<svg width="20" height="20" viewBox="0 0 20 20" fill="none" xmlns="http://www.w3.org/2000/svg">
<path opacity="0.1" d="M7.35059 9.39603H3.21088C2.66473 9.3852 2.14462 9.1606 1.76225 8.77049C1.37988 8.38038 1.16576 7.85587 1.16586 7.30962V3.16991C1.17456 2.62232 1.39821 2.1001 1.78855 1.71596C2.17889 1.33181 2.70462 1.11654 3.25228 1.11661H7.39199C7.94534 1.11661 8.47603 1.33643 8.86731 1.72771C9.25858 2.11899 9.4784 2.64968 9.4784 3.20303V7.34274C9.4741 7.61745 9.41558 7.88861 9.3062 8.14064C9.19682 8.39268 9.03874 8.62063 8.84104 8.81141C8.64333 9.00219 8.40989 9.15205 8.15412 9.25237C7.89835 9.3527 7.62528 9.40152 7.35059 9.39603ZM16.8388 9.39603H12.6991C12.1457 9.39603 11.6151 9.17622 11.2238 8.78494C10.8325 8.39366 10.6127 7.86297 10.6127 7.30962V3.16991C10.6127 2.61656 10.8325 2.08587 11.2238 1.69459C11.6151 1.30331 12.1457 1.0835 12.6991 1.0835H16.8388C17.3922 1.0835 17.9228 1.30331 18.3141 1.69459C18.7054 2.08587 18.9252 2.61656 18.9252 3.16991V7.30962C18.9253 7.85587 18.7112 8.38038 18.3288 8.77049C17.9465 9.1606 17.4263 9.3852 16.8802 9.39603H16.8388ZM16.7891 18.9174H12.7736C12.2203 18.9174 11.6896 18.6976 11.2983 18.3063C10.907 17.915 10.6872 17.3843 10.6872 16.831V12.6912C10.6872 12.1379 10.907 11.6072 11.2983 11.2159C11.6896 10.8246 12.2203 10.6048 12.7736 10.6048H16.8719C17.4253 10.6048 17.956 10.8246 18.3472 11.2159C18.7385 11.6072 18.9583 12.1379 18.9583 12.6912V16.831C18.9583 17.3843 18.7385 17.915 18.3472 18.3063C17.956 18.6976 17.4253 18.9174 16.8719 18.9174H16.7891ZM7.2678 18.9174H3.12809C2.57473 18.9174 2.04405 18.6976 1.65277 18.3063C1.26149 17.915 1.04167 17.3843 1.04167 16.831V12.6912C1.04167 12.1379 1.26149 11.6072 1.65277 11.2159C2.04405 10.8246 2.57473 10.6048 3.12809 10.6048H7.2678C7.82115 10.6048 8.35184 10.8246 8.74311 11.2159C9.13439 11.6072 9.35421 12.1379 9.35421 12.6912V16.831C9.35464 17.3703 9.14622 17.8888 8.77267 18.2778C8.39912 18.6667 7.88947 18.896 7.35059 18.9174H7.2678Z" fill="#99A1B7"/>
<path d="M7.35059 9.39604H3.21088C2.66473 9.3852 2.14462 9.1606 1.76225 8.77049C1.37988 8.38038 1.16576 7.85587 1.16586 7.30962V3.16991C1.17456 2.62232 1.39821 2.1001 1.78855 1.71596C2.17889 1.33181 2.70462 1.11654 3.25228 1.11661H7.39199C7.94534 1.11661 8.47603 1.33643 8.86731 1.72771C9.25858 2.11899 9.4784 2.64968 9.4784 3.20303V7.34274C9.4741 7.61745 9.41558 7.88861 9.3062 8.14064C9.19682 8.39268 9.03874 8.62063 8.84104 8.81141C8.64333 9.00219 8.40989 9.15205 8.15412 9.25237C7.89835 9.3527 7.62528 9.40152 7.35059 9.39604V9.39604ZM3.21088 2.35853C2.9913 2.35853 2.78071 2.44576 2.62544 2.60103C2.47017 2.75629 2.38294 2.96689 2.38294 3.18647V7.32618C2.38294 7.54576 2.47017 7.75635 2.62544 7.91162C2.78071 8.06689 2.9913 8.15412 3.21088 8.15412H7.35059C7.57018 8.15412 7.78077 8.06689 7.93603 7.91162C8.0913 7.75635 8.17853 7.54576 8.17853 7.32618V3.18647C8.17853 2.96689 8.0913 2.75629 7.93603 2.60103C7.78077 2.44576 7.57018 2.35853 7.35059 2.35853H3.21088ZM16.8388 9.39604H12.6991C12.1457 9.39604 11.6151 9.17622 11.2238 8.78494C10.8325 8.39366 10.6127 7.86297 10.6127 7.30962V3.16991C10.6127 2.61656 10.8325 2.08587 11.2238 1.69459C11.6151 1.30331 12.1457 1.0835 12.6991 1.0835H16.8388C17.3922 1.0835 17.9228 1.30331 18.3141 1.69459C18.7054 2.08587 18.9252 2.61656 18.9252 3.16991V7.30962C18.9253 7.85587 18.7112 8.38038 18.3288 8.77049C17.9465 9.1606 17.4264 9.3852 16.8802 9.39604H16.8388ZM12.6991 2.35853C12.4795 2.35853 12.2689 2.44576 12.1137 2.60103C11.9584 2.75629 11.8712 2.96689 11.8712 3.18647V7.32618C11.8712 7.54576 11.9584 7.75635 12.1137 7.91162C12.2689 8.06689 12.4795 8.15412 12.6991 8.15412H16.8388C17.0584 8.15412 17.269 8.06689 17.4243 7.91162C17.5795 7.75635 17.6668 7.54576 17.6668 7.32618V3.18647C17.6668 2.96689 17.5795 2.75629 17.4243 2.60103C17.269 2.44576 17.0584 2.35853 16.8388 2.35853H12.6991ZM16.7891 18.9174H12.7736C12.2203 18.9174 11.6896 18.6976 11.2983 18.3063C10.907 17.915 10.6872 17.3843 10.6872 16.831V12.6912C10.6872 12.1379 10.907 11.6072 11.2983 11.2159C11.6896 10.8246 12.2203 10.6048 12.7736 10.6048H16.8719C17.4253 10.6048 17.956 10.8246 18.3472 11.2159C18.7385 11.6072 18.9583 12.1379 18.9583 12.6912V16.831C18.9583 17.3843 18.7385 17.915 18.3472 18.3063C17.956 18.6976 17.4253 18.9174 16.8719 18.9174H16.7891ZM12.6908 11.8799C12.4712 11.8799 12.2606 11.9671 12.1054 12.1224C11.9501 12.2776 11.8629 12.4882 11.8629 12.7078V16.8475C11.8629 17.0671 11.9501 17.2777 12.1054 17.433C12.2606 17.5882 12.4712 17.6755 12.6908 17.6755H16.7891C17.0087 17.6755 17.2193 17.5882 17.3746 17.433C17.5298 17.2777 17.6171 17.0671 17.6171 16.8475V12.7078C17.6171 12.4882 17.5298 12.2776 17.3746 12.1224C17.2193 11.9671 17.0087 11.8799 16.7891 11.8799H12.6908ZM7.2678 18.9174H3.12809C2.57473 18.9174 2.04405 18.6976 1.65277 18.3063C1.26149 17.915 1.04167 17.3843 1.04167 16.831V12.6912C1.04167 12.1379 1.26149 11.6072 1.65277 11.2159C2.04405 10.8246 2.57473 10.6048 3.12809 10.6048H7.2678C7.82115 10.6048 8.35184 10.8246 8.74311 11.2159C9.13439 11.6072 9.35421 12.1379 9.35421 12.6912V16.831C9.35464 17.3703 9.14622 17.8888 8.77267 18.2778C8.39912 18.6667 7.88947 18.896 7.35059 18.9174H7.2678ZM3.12809 11.8799C2.9085 11.8799 2.69791 11.9671 2.54264 12.1224C2.38737 12.2776 2.30014 12.4882 2.30014 12.7078V16.8475C2.30014 17.0671 2.38737 17.2777 2.54264 17.433C2.69791 17.5882 2.9085 17.6755 3.12809 17.6755H7.2678C7.48738 17.6755 7.69797 17.5882 7.85324 17.433C8.00851 17.2777 8.09574 17.0671 8.09574 16.8475V12.7078C8.09574 12.4882 8.00851 12.2776 7.85324 12.1224C7.69797 11.9671 7.48738 11.8799 7.2678 11.8799H3.12809Z" fill="#99A1B7"/>
</svg>
