<svg width="193" height="201" viewBox="0 0 193 201" fill="none" xmlns="http://www.w3.org/2000/svg">
<path d="M45.517 86.8319C37.6371 71.6497 29.7573 56.5088 21.9187 41.3267C35.4506 44.0083 48.9412 46.69 62.4731 49.3716C64.7834 49.8254 67.3826 50.2379 69.3216 48.9177C70.7243 47.9689 71.4256 46.3187 72.1682 44.8335C75.0561 39.0576 79.3468 34.0244 84.5863 30.2701C88.8769 27.2172 94.5702 24.9894 99.2733 27.2584C101.006 28.0836 102.45 29.4863 104.141 30.3939C109.917 33.6119 117.096 31.1778 123.119 28.5374C129.184 25.897 136.032 23.0503 142.138 25.6082C144.283 26.5158 146.099 28.0011 148.038 29.28C156.165 34.6845 166.603 36.7061 173.286 43.8434C178.773 49.6604 180.754 58.4892 178.319 66.1215C174.153 79.1583 158.764 87.0794 157.073 100.653C156.743 103.21 156.949 105.81 156.578 108.367C155.34 116.289 148.203 122.353 140.447 124.375C132.69 126.396 124.439 125.035 116.725 122.807C94.1576 116.247 73.8597 102.097 59.9565 83.1189" fill="#F4F6F9"/>
<path d="M167.593 123.96C167.51 120.618 166.933 117.194 166.19 113.934C163.096 100.402 155.381 87.9432 144.572 79.2382L144.283 79.6096C144.325 75.1127 144.49 70.8633 144.861 65.7889V65.7064C145.934 66.2014 147.213 66.2839 148.244 65.7476C149.935 64.9224 150.843 62.8184 150.265 61.0444C149.729 59.3942 147.914 58.239 146.181 58.404L148.203 47.1L143.5 46.1099C141.602 45.6973 139.58 46.1923 137.847 46.9762C132.567 49.369 127.327 51.8856 122.665 53.9897C122.665 53.9897 126.956 57.7852 129.06 59.6417C129.06 59.6417 124.852 69.7082 123.078 74.04C112.269 71.9772 101.501 69.9556 90.6921 67.8928C85.3288 66.8615 79.8831 65.8301 74.4786 66.3664C71.632 66.6139 68.744 67.3565 66.1861 68.6355C65.6086 68.1817 65.031 67.6453 64.5772 67.0677L64.866 68.0991C63.9171 67.0265 62.1844 66.8202 60.8642 67.3978C60.6579 67.4803 60.4929 67.6041 60.2866 67.6866C59.9978 67.109 59.4615 66.6139 58.8014 66.4489C57.8938 66.2014 56.9449 66.4902 56.2023 67.0265C55.0471 66.0777 53.3143 65.9126 51.9116 66.5315C51.6641 66.6553 51.4166 66.779 51.1691 66.944C50.4677 66.1602 49.1475 66.0364 48.1986 66.5727C47.291 67.0678 46.7547 68.0579 46.5071 69.0893L17.7519 62.4471C14.4514 61.7045 11.7698 65.1287 13.3375 68.1404L43.8668 127.054C40.7726 128.374 37.7609 129.818 34.7492 131.262V131.674C36.2757 138.152 37.6784 142.153 40.03 148.383L39.6999 148.919C44.6919 148.837 49.6426 148.383 54.552 147.682L58.5951 155.479C60.0803 158.367 64.2059 158.326 65.6911 155.438L71.3844 144.051C74.8499 143.061 78.2329 141.906 81.5746 140.586C84.215 151.725 88.7943 162.369 95.1477 171.857C102.739 170.537 110 167.484 116.229 162.946C116.064 162.369 115.858 161.832 115.693 161.255L135.207 176.272C136.857 177.551 139.168 177.303 140.57 175.777L155.546 159.274C157.073 157.583 156.866 154.984 155.134 153.54L129.225 132.046C130.298 131.674 131.37 131.221 132.402 130.767C134.134 132.417 136.486 133.407 138.838 133.531C140.529 133.613 142.386 133.283 143.871 134.108C144.861 134.686 145.521 135.717 146.305 136.543C147.955 138.317 150.348 139.389 152.741 139.637C155.175 139.926 157.609 139.472 159.919 138.564C162.436 137.574 164.829 136.006 166.273 133.737C168.129 130.932 167.675 127.219 167.593 123.96Z" fill="white"/>
<path d="M168.088 127.095C168.005 122.557 167.552 118.142 166.52 113.728C164.829 106.302 161.693 99.1647 157.485 92.8113C153.979 87.5306 149.647 82.7449 144.696 78.7843C144.778 74.7 144.902 70.6569 145.191 66.6139C145.604 66.7376 146.016 66.7788 146.429 66.7788C147.089 66.7788 147.708 66.6551 148.326 66.3663C150.266 65.4174 151.338 62.9833 150.637 60.9205C150.224 59.7241 149.317 58.7752 148.161 58.2389C151.379 55.5985 154.721 49.1214 152.04 45.6559C148.45 41.0352 143.83 42.8917 142.881 36.6621C139.745 38.2298 139.415 42.603 140.447 44.2119C140.777 44.707 141.107 45.0783 141.478 45.4083C140.323 45.4496 139.168 45.7384 138.095 46.1509C136.239 46.8935 134.423 47.8012 132.608 48.6263C129.101 50.2353 125.594 51.9268 122.088 53.4945C121.716 53.6595 121.675 54.2371 121.964 54.4846C123.986 56.2999 126.007 58.0739 128.07 59.8891C126.42 63.8084 124.811 67.7278 123.202 71.6471C122.954 72.2246 122.748 72.8022 122.5 73.3798C122.459 73.3385 122.377 73.2973 122.294 73.2973C113.011 71.5233 105.379 70.1618 96.0966 68.4291C91.5172 67.5627 86.9378 66.5725 82.2759 66.0362C78.0678 65.5412 73.7772 65.5412 69.6516 66.6551C68.2077 67.0676 66.805 67.604 65.4848 68.2641C65.3611 68.1403 65.2373 68.0578 65.1548 67.934C65.1135 67.8928 65.1135 67.8103 65.031 67.769C63.9584 66.6139 62.1844 66.2838 60.6992 66.7788C60.5341 66.8201 60.3691 66.9026 60.2041 66.9851C59.9153 66.6138 59.544 66.3251 59.1314 66.1188C58.1 65.665 56.9036 65.8713 55.9547 66.4076C54.4695 65.4587 52.5305 65.4587 50.9628 66.3251C50.1377 65.7475 49.065 65.5824 48.1161 65.9537C47.0022 66.3663 46.2184 67.3565 45.8058 68.4704L17.5868 61.9519C15.8128 61.5394 14.0388 62.1995 12.9249 63.6022C11.811 65.0461 11.646 66.9026 12.4711 68.5116L42.7116 126.847C41.804 127.219 40.8964 127.631 40.03 128.044C38.0497 128.951 36.1107 129.859 34.1304 130.849C34.0066 130.89 33.9241 131.014 33.8829 131.138C30.4174 127.012 25.5492 124.042 20.2685 122.846C22.8263 132.169 25.3842 141.452 27.9008 150.776C30.2524 151.353 32.6452 151.972 34.9968 151.683C36.647 151.477 38.256 150.817 39.4112 149.703C44.2381 149.579 49.065 149.208 53.8507 148.548L57.6875 155.933C58.4713 157.459 60.0391 158.408 61.7718 158.408H61.813C63.5458 158.408 65.1135 157.418 65.8974 155.891L71.4669 144.752C74.066 144.01 76.6239 143.143 79.1405 142.236C79.6768 142.029 80.2544 141.823 80.7907 141.617C81.4096 144.175 82.1522 146.733 82.9773 149.249C85.4114 156.51 88.6706 163.482 92.7137 169.96C93.2087 170.785 93.7451 171.569 94.2814 172.394C94.4464 172.641 94.6939 172.724 94.9827 172.682C95.2303 172.641 95.4778 172.6 95.7666 172.559C93.7863 177.221 92.7137 182.295 92.6724 187.328C92.6724 187.741 92.7137 188.236 93.085 188.483C93.4975 188.772 94.0751 188.442 94.4877 188.153C101.996 182.666 109.505 177.221 117.013 171.734C117.426 171.404 117.88 171.115 118.168 170.661C119.159 169.093 117.797 167.113 116.518 165.793C116.106 165.339 115.652 164.926 115.198 164.473C115.569 164.225 115.899 163.978 116.271 163.73C116.436 163.606 116.56 163.4 116.56 163.194L134.547 177.014C135.372 177.633 136.362 177.963 137.352 177.963C138.631 177.963 139.869 177.468 140.777 176.478L155.753 159.976C156.619 159.027 157.031 157.83 156.949 156.552C156.866 155.273 156.289 154.159 155.299 153.334L130.215 132.499C130.834 132.252 131.453 132.004 132.072 131.716C133.103 132.623 134.341 133.325 135.661 133.778C136.569 134.108 137.517 134.273 138.508 134.356C139.498 134.438 140.529 134.315 141.519 134.397C142.551 134.48 143.458 134.81 144.201 135.552C144.902 136.254 145.48 137.079 146.222 137.78C147.666 139.1 149.523 139.967 151.421 140.379C155.505 141.204 160.126 139.967 163.509 137.574C165.076 136.46 166.479 134.975 167.263 133.201C168.005 131.097 168.129 129.075 168.088 127.095ZM132.732 49.9053C134.465 49.0801 136.197 48.2963 137.93 47.5124C139.539 46.8111 141.354 46.3573 143.128 46.7286C143.252 46.7698 143.335 46.7286 143.417 46.7286C144.778 47.5537 145.892 48.2962 145.562 50.9779C145.274 52.9994 143.747 55.1447 145.356 57.8264L145.562 57.9088C145.232 57.9914 144.985 58.2801 145.067 58.6102C145.15 58.9402 145.439 59.1878 145.769 59.1053C147.295 58.8165 148.987 59.8479 149.482 61.2918C149.977 62.777 149.193 64.5923 147.79 65.2524C146.387 65.9125 144.49 65.4174 143.623 64.0972C143.417 63.8084 143.046 63.726 142.757 63.9322C142.468 64.1385 142.386 64.5098 142.592 64.7985C142.963 65.3349 143.458 65.7888 143.995 66.1188C143.665 70.6157 143.5 75.1538 143.458 79.6919C143.376 79.5269 143.211 79.4444 142.963 79.4444C139.209 79.5681 135.413 79.4032 131.659 78.9906C128.771 78.6606 124.646 78.248 123.49 74.9888C123.449 74.865 123.367 74.7412 123.243 74.6999C125.058 70.2443 126.915 65.7888 128.771 61.3744C128.978 60.8793 129.184 60.3429 129.39 59.8479C129.473 59.6416 129.39 59.394 129.225 59.229C127.327 57.5375 125.429 55.8873 123.49 54.1958C126.626 52.7519 129.679 51.308 132.732 49.9053ZM64.1234 68.4704C64.1646 68.5116 64.1646 68.5529 64.2059 68.5942C65.0723 69.6256 66.2274 70.2857 67.5064 70.657C68.9091 71.0283 70.4355 71.1107 71.8382 71.5233C72.4571 71.7295 73.3234 72.1834 73.2822 72.9672C73.2822 73.6273 72.5396 73.9986 72.0033 74.2049C70.5593 74.7412 68.9503 74.7825 67.5064 74.3287C66.7638 74.0811 66.1037 73.6686 65.4023 73.3386C64.7422 73.0498 64.0409 72.926 63.422 73.3386C62.8445 73.7511 62.5969 74.4524 62.2256 75.03C61.813 75.6901 61.2767 76.309 60.6992 76.8453C59.874 77.6292 57.9763 78.7018 57.3987 77.0516C57.1924 76.474 57.2337 75.8552 57.2749 75.2776C57.3574 74.4525 57.4812 73.6685 57.6462 72.8434C57.9763 71.1932 58.6364 69.4605 60.0391 68.4291C61.2768 67.5215 63.0507 67.3565 64.1234 68.4704ZM57.9763 66.9851C58.4714 66.9851 58.9252 67.1914 59.214 67.5215C58.3888 68.1816 57.7287 69.0892 57.2749 70.0793C56.5323 71.7708 56.161 73.7098 56.0785 75.5251C56.0785 75.8138 56.0785 76.1027 56.1198 76.3915C55.831 76.804 55.5009 77.1753 55.0058 77.4229C54.222 77.8354 53.3969 77.5467 52.9431 76.8453C52.4067 76.0202 52.4892 74.9887 52.7368 74.0811C53.0256 73.0497 53.4381 72.0184 53.892 71.0282C54.3045 70.1206 54.7583 69.2129 55.3772 68.4291C55.996 67.6865 56.9036 66.9851 57.9763 66.9851ZM54.9646 67.1089C54.3045 67.769 53.8094 68.5942 53.3556 69.4193C52.6543 70.7395 52.0354 72.1009 51.6229 73.5449C51.2516 74.7825 51.1278 76.1027 51.7054 77.2579C51.0453 77.3816 50.3852 76.9278 50.0139 76.3915C49.4776 75.6076 49.2301 74.5762 49.1063 73.6273C48.8175 71.6883 49.1888 69.543 50.5915 68.099C51.7054 66.9026 53.5206 66.4076 54.9646 67.1089ZM48.0336 67.2739C48.5287 66.8613 49.3126 66.7376 49.9314 66.9851C48.2399 68.5528 47.5798 70.9457 47.7861 73.256C47.7861 73.4623 47.8274 73.7098 47.8686 73.9161C47.7036 74.0399 47.5798 74.0811 47.4561 73.9986C47.126 73.7098 47.0847 72.9672 47.0022 72.5547C46.8784 71.8121 46.7547 71.1107 46.7547 70.3681C46.7959 69.2542 47.126 67.9752 48.0336 67.2739ZM50.7978 147.558C47.3323 147.97 43.8668 148.177 40.4013 148.3C40.4013 148.177 40.3188 148.012 40.2775 147.888C39.9475 147.021 39.6174 146.155 39.2874 145.289C38.7098 143.762 38.1735 142.194 37.6372 140.627C37.1421 139.1 36.647 137.533 36.2344 136.006C35.9869 135.14 35.7806 134.315 35.5744 133.448C35.4506 132.871 35.2443 132.293 35.1618 131.716C37.8434 130.395 40.5663 129.116 43.3305 127.92L53.3556 147.269C52.5305 147.31 51.6641 147.434 50.7978 147.558ZM72.3333 143.061L75.6337 136.501C76.0876 135.594 76.9127 134.975 77.8616 134.727C78.3979 134.603 78.9755 134.603 79.5118 134.768C79.8418 136.584 80.1719 138.399 80.5844 140.214C77.9028 141.246 75.1387 142.195 72.3333 143.061ZM115.281 162.699C109.298 166.948 102.45 169.836 95.2302 171.156C91.1872 165.05 87.8455 158.449 85.3289 151.601C83.3898 146.361 81.9459 140.957 80.9145 135.47L114.909 161.626C115.074 161.997 115.157 162.369 115.281 162.699ZM155.711 156.386C155.794 157.294 155.464 158.202 154.845 158.862L139.869 175.364C138.714 176.643 136.734 176.808 135.331 175.777L81.4096 134.315C80.5844 133.696 79.6356 133.366 78.6042 133.366C78.2741 133.366 77.9028 133.407 77.5728 133.489C76.2526 133.778 75.0974 134.686 74.4786 135.924L64.866 155.19C64.2884 156.345 63.1745 157.047 61.8956 157.047C61.8956 157.047 61.8955 157.047 61.8543 157.047C60.5754 157.047 59.4615 156.387 58.8839 155.231L13.6263 67.8927C13.0075 66.7376 13.1312 65.3349 13.9563 64.3035C14.7814 63.2721 16.0604 62.7771 17.3393 63.1071L45.5583 69.6256C45.4757 70.4919 45.517 71.317 45.6408 72.1834C45.7646 72.9673 45.8471 73.7923 46.2184 74.4937C46.5897 75.1125 47.2497 75.5251 47.9924 75.3188C48.0336 75.3188 48.0749 75.2776 48.1161 75.2776C48.6112 77.0516 49.6838 78.7843 51.7054 78.578C51.9942 78.5368 52.2417 78.4543 52.4892 78.3718C53.0256 78.8256 53.6857 79.0731 54.387 78.9906C55.1709 78.9081 55.9135 78.5368 56.4498 77.9592C56.7798 78.578 57.2749 79.0318 58.0588 79.1556C59.8328 79.4856 61.4417 78.0004 62.4731 76.7627C62.7619 76.4327 63.0095 76.0614 63.257 75.6901C63.4633 75.3188 63.6283 74.9475 63.8758 74.6175C64.4122 73.9161 65.4848 74.9063 66.0624 75.1538C67.6714 75.8964 69.5279 76.1026 71.2606 75.7313C71.3844 75.6901 71.5494 75.6489 71.6732 75.6077L116.271 85.8803C117.591 86.1691 118.581 87.2005 118.829 88.5619C119.076 89.9234 118.499 91.2023 117.385 91.9449L101.501 102.465C100.263 103.29 99.5209 104.569 99.4384 106.054C99.3559 107.54 99.9747 108.901 101.089 109.85L154.432 154.117C155.216 154.654 155.67 155.479 155.711 156.386ZM102.326 109.107C103.564 109.107 104.802 109.066 105.998 109.066C108.968 109.066 111.98 109.107 114.951 109.231C115.157 109.85 115.569 110.386 116.064 110.799C115.281 111.541 114.909 112.697 115.157 113.769C115.446 114.924 116.436 115.75 117.55 115.997C117.508 116.286 117.55 116.616 117.673 116.905C117.962 117.647 118.581 118.06 119.282 118.349C120.149 118.679 121.056 118.926 121.923 119.133C122.83 119.38 123.779 119.586 124.687 119.751C125.801 119.916 126.997 119.999 128.194 119.875C127.616 123.506 128.565 127.425 130.875 130.272C130.958 130.354 130.999 130.437 131.082 130.519C130.421 130.808 129.761 131.055 129.06 131.303L102.326 109.107ZM118.457 105.889C118.87 105.931 119.159 105.477 119.035 105.106C118.829 104.28 119.241 103.331 120.025 102.96C120.479 102.713 121.015 102.754 121.469 102.919C121.51 103.043 121.593 103.166 121.634 103.29C121.799 103.579 122.088 103.62 122.335 103.538C122.459 103.662 122.624 103.703 122.748 103.703C123.202 103.95 123.655 104.198 124.151 104.445C124.316 104.528 124.439 104.569 124.646 104.528C124.769 104.487 124.934 104.363 125.017 104.239C125.141 103.95 125.099 103.538 124.811 103.373C124.109 103.043 123.49 102.713 122.83 102.3C122.748 102.218 122.665 102.176 122.542 102.135C122.542 101.392 123.325 100.691 124.068 100.609C125.471 100.402 126.956 101.31 128.07 102.053C130.38 103.538 132.443 105.642 133.639 108.158C134.753 110.469 134.96 113.315 133.681 115.584C132.36 117.895 129.679 118.844 127.162 118.844C125.388 118.844 123.656 118.431 121.964 117.977C121.221 117.771 120.396 117.606 119.654 117.276C119.241 117.111 118.375 116.492 118.87 115.956C119.2 115.584 118.994 114.842 118.416 114.883C117.508 114.966 116.559 114.429 116.312 113.48C116.106 112.614 116.642 111.748 117.426 111.376C117.962 111.129 117.715 110.428 117.261 110.263C116.312 109.85 115.734 108.695 115.941 107.705C116.271 106.508 117.385 105.807 118.457 105.889ZM166.85 128.456C166.768 130.354 166.397 132.252 165.283 133.82C163.055 136.955 158.888 138.77 155.134 139.1C153.153 139.265 151.132 139.018 149.317 138.151C148.45 137.739 147.666 137.244 146.965 136.584C146.264 135.924 145.727 135.14 145.067 134.48C144.366 133.778 143.582 133.283 142.592 133.077C141.643 132.871 140.653 132.912 139.704 132.912C137.765 132.953 135.991 132.582 134.3 131.633C131.04 129.735 129.308 126.022 129.225 122.392C129.184 121.525 129.266 120.618 129.431 119.751C131.082 119.421 132.608 118.72 133.804 117.4C135.455 115.584 136.032 113.15 135.743 110.799C139.291 109.437 143.376 109.52 146.924 110.881C147.089 111.5 147.254 112.078 147.378 112.697C147.708 113.934 148.079 115.296 149.028 116.203C149.853 116.946 151.049 117.193 152.081 116.781C153.153 116.327 153.69 115.213 153.236 114.141C152.741 112.903 151.421 112.036 150.348 111.335C149.564 110.84 148.739 110.386 147.914 110.015C147.254 107.416 146.594 104.817 145.892 102.218C145.686 101.434 144.49 101.764 144.696 102.548C145.274 104.858 145.892 107.168 146.47 109.479C145.315 109.107 144.077 108.819 142.881 108.695C140.364 108.406 137.806 108.736 135.455 109.602C135.372 109.19 135.248 108.819 135.083 108.406C133.846 105.229 131.329 102.589 128.441 100.774C126.915 99.8248 124.852 98.7522 123.037 99.536C122.17 99.9073 121.51 100.732 121.345 101.599C120.685 101.475 119.984 101.558 119.365 101.888C118.333 102.424 117.756 103.538 117.756 104.652C116.312 104.858 115.033 105.931 114.744 107.416C114.703 107.622 114.703 107.787 114.703 107.993C112.599 107.911 110.536 107.87 108.432 107.87C105.998 107.87 103.605 107.87 101.171 107.952C100.841 107.416 100.717 106.756 100.717 106.096C100.759 105.023 101.336 104.074 102.202 103.497L118.086 92.9763C119.654 91.9449 120.396 90.1709 120.066 88.3144C119.736 86.4991 118.416 85.0964 116.601 84.6426L73.5297 74.6999C74.1898 74.2049 74.6436 73.5035 74.4786 72.5547C74.0661 70.3681 71.4669 70.1619 69.7342 69.8318C68.6203 69.6256 67.5889 69.4192 66.64 68.9241C71.0956 66.8613 76.4588 66.5314 81.2445 67.0264C85.8239 67.4802 90.3208 68.4703 94.8177 69.3367C99.3146 70.2031 103.853 71.0695 108.35 71.8946C113.424 72.8435 116.848 73.4211 121.923 74.37C121.964 74.37 121.964 74.37 122.005 74.37C121.923 74.535 121.882 74.7 121.799 74.865C121.593 75.3188 122.005 75.6077 122.418 75.6077C123.821 78.8256 127.451 79.6507 130.628 80.022C134.712 80.5583 138.838 80.7233 142.922 80.5995C143.334 80.5995 143.541 80.2696 143.5 79.9395C143.706 80.187 144.118 80.2695 144.366 80.0632C148.161 83.1986 151.586 86.788 154.556 90.7485C158.888 96.6068 162.23 103.208 164.292 110.18C165.489 114.182 166.355 118.349 166.644 122.515C166.809 124.537 166.933 126.517 166.85 128.456ZM148.409 111.541C149.729 112.243 153.318 114.347 151.998 115.461C151.338 115.997 150.348 115.75 149.853 115.172C149.069 114.347 148.863 113.15 148.574 112.078C148.492 111.871 148.45 111.706 148.409 111.541ZM143.706 60.8792C145.191 60.2192 146.841 60.2604 148.285 61.003C148.574 61.1681 148.656 61.5807 148.491 61.8694C148.326 62.1582 147.914 62.2407 147.625 62.0757C147.13 61.8282 146.511 61.6632 145.975 61.6632C145.81 61.6632 145.645 61.6632 145.48 61.6632C145.439 61.6632 145.356 61.6632 145.315 61.6632L145.15 61.7044C144.985 61.7456 144.861 61.7869 144.696 61.8281C144.613 61.8694 144.531 61.8694 144.448 61.9106C144.407 61.9106 144.366 61.9519 144.325 61.9519C144.366 61.9107 144.366 61.9519 144.283 61.9519C143.953 62.0757 143.623 62.0344 143.417 61.7457C143.335 61.4569 143.417 61.003 143.706 60.8792ZM142.839 51.0191C142.674 50.7304 142.798 50.359 143.046 50.1527C143.169 50.0702 143.376 50.029 143.541 50.0702C143.706 50.1115 143.83 50.2352 143.912 50.359C144.242 50.9366 144.448 51.5554 144.49 52.2155C144.49 52.3806 144.407 52.5456 144.325 52.6694C144.201 52.7931 144.036 52.8344 143.871 52.8344C143.706 52.8344 143.541 52.7519 143.417 52.6694C143.293 52.5456 143.252 52.3806 143.252 52.2155C143.252 52.1743 143.252 52.1331 143.252 52.0918C143.211 51.8443 143.128 51.5968 143.046 51.3492C142.963 51.2667 142.922 51.1429 142.839 51.0191ZM139.828 48.6676C139.745 48.5438 139.745 48.3376 139.745 48.1725C139.787 48.0075 139.91 47.8837 140.034 47.8012C140.158 47.7187 140.364 47.7187 140.529 47.7187C140.859 47.8012 141.189 47.8837 141.478 48.0075C141.684 48.09 141.891 48.1725 142.056 48.255C142.179 48.2963 142.303 48.42 142.386 48.5438C142.468 48.6676 142.468 48.8326 142.468 48.9564C142.468 49.1214 142.386 49.2039 142.303 49.3276C142.221 49.4514 142.014 49.4927 141.849 49.4927C141.684 49.4927 141.519 49.4101 141.395 49.3276C141.354 49.2864 141.354 49.2864 141.313 49.2451C140.942 49.0801 140.529 48.9564 140.158 48.8739C140.034 48.9151 139.91 48.7914 139.828 48.6676ZM135.785 53.3295C135.785 53.3708 135.785 53.4533 135.785 53.3295V53.3295ZM135.578 53.0406C135.496 52.9581 135.578 52.9994 135.578 53.0406V53.0406ZM135.29 52.7519C135.207 52.6694 135.248 52.7106 135.29 52.7519V52.7519ZM133.969 52.3806C134.093 52.3806 134.217 52.3394 134.341 52.3806C134.341 52.3806 134.382 52.3806 134.423 52.3806C134.423 52.3806 134.423 52.3806 134.465 52.3806C134.506 52.3806 134.506 52.3806 134.547 52.3806C134.671 52.4219 134.795 52.4631 134.877 52.5044C134.877 52.5044 134.918 52.5043 134.918 52.5456C134.96 52.5869 135.042 52.5868 135.083 52.6281C135.125 52.6693 135.166 52.6694 135.207 52.7107C135.248 52.7107 135.248 52.7519 135.29 52.7519C135.372 52.8344 135.455 52.9169 135.537 52.9994C135.537 53.0407 135.578 53.0407 135.578 53.0819C135.62 53.1232 135.62 53.1645 135.661 53.2057C135.702 53.247 135.702 53.2882 135.743 53.3707C135.743 53.3707 135.743 53.3708 135.743 53.3295C135.743 53.3708 135.785 53.412 135.785 53.412C135.908 53.7008 136.197 53.9483 136.527 53.8246C136.816 53.7421 137.064 53.3707 136.94 53.0819C136.692 52.4631 136.28 51.9268 135.702 51.5555C135.166 51.2254 134.506 51.0604 133.928 51.1429C133.763 51.1842 133.598 51.1842 133.474 51.3079C133.351 51.4317 133.268 51.5968 133.309 51.7618C133.309 51.9268 133.351 52.0918 133.474 52.2155C133.639 52.298 133.804 52.3806 133.969 52.3806ZM139.91 55.4748C139.91 55.5161 139.91 55.5161 139.91 55.4748C139.869 55.4335 139.869 55.4335 139.91 55.4748C139.91 55.4748 139.869 55.4748 139.91 55.4748ZM138.343 54.5259C138.343 54.1958 138.631 53.9071 138.961 53.9071C140.405 53.8658 141.684 55.1035 141.726 56.5062C141.726 56.8362 141.437 57.125 141.107 57.125C140.777 57.125 140.488 56.8362 140.488 56.5062C140.488 56.4649 140.488 56.4237 140.488 56.4237C140.488 56.3412 140.447 56.2586 140.447 56.1761C140.447 56.1349 140.447 56.1349 140.405 56.0936C140.405 56.0524 140.364 56.0524 140.364 56.0111C140.323 55.9286 140.282 55.8461 140.199 55.7636L140.158 55.7223C140.117 55.681 140.075 55.6398 140.034 55.5986C139.993 55.5573 139.952 55.5161 139.91 55.4748L139.869 55.4335C139.869 55.4335 139.869 55.4335 139.91 55.4335C139.828 55.3922 139.745 55.3098 139.663 55.2685C139.622 55.2273 139.415 55.186 139.621 55.2685C139.58 55.2685 139.539 55.2272 139.498 55.2272C139.415 55.186 139.333 55.186 139.25 55.186C139.168 55.186 139.085 55.186 139.003 55.186C138.59 55.1448 138.343 54.8559 138.343 54.5259ZM137.064 63.1896C137.105 63.1484 137.146 63.1071 137.187 63.0246C137.352 62.7771 137.559 62.5295 137.682 62.282C137.847 61.9932 138.219 61.9107 138.549 62.0757C138.838 62.2407 138.92 62.6532 138.755 62.942C138.59 63.2308 138.425 63.4784 138.26 63.726C138.054 64.0147 137.806 64.3448 137.517 64.5511C137.105 64.8399 136.569 64.7573 136.239 64.386C135.95 64.0559 135.867 63.6435 135.867 63.2309C135.867 62.9009 136.156 62.6121 136.486 62.6121C136.775 62.5296 137.064 62.8596 137.064 63.1896ZM138.013 82.4561C137.229 83.8175 135.867 84.6839 134.341 84.8489C132.979 84.9727 131.577 84.4364 130.628 83.4463C130.215 83.0337 129.885 82.3323 129.349 82.0848C128.771 81.8373 128.194 82.456 127.74 82.7448C125.306 84.2713 121.964 82.7449 121.551 79.8982C121.428 79.1144 122.624 78.7843 122.748 79.5681C122.995 81.0946 124.233 82.2498 125.842 82.126C127.286 82.0022 128.359 80.2696 129.885 80.9709C130.504 81.2597 130.917 81.8372 131.329 82.3323C131.824 82.9098 132.443 83.3224 133.186 83.4874C134.712 83.8587 136.239 83.1162 136.981 81.796C137.352 81.1359 138.425 81.7547 138.013 82.4561Z" fill="black"/>
<path d="M136.115 200.531C133.227 198.633 130.298 196.736 127.41 194.838C126.75 194.384 127.369 193.353 128.029 193.765C130.917 195.663 133.846 197.561 136.734 199.458C137.394 199.912 136.775 200.985 136.115 200.531ZM123.944 191.909C125.883 192.527 127.946 192.775 129.968 192.651C130.752 192.61 130.752 191.372 129.968 191.414C127.575 191.537 125.182 191.125 122.954 190.258C122.542 190.093 122.005 190.588 122.212 191.001C123.284 193.6 124.728 195.993 126.502 198.138C126.708 198.386 127.162 198.344 127.369 198.138C127.616 197.891 127.575 197.519 127.369 197.272C126.007 195.663 124.852 193.848 123.944 191.909ZM101.46 55.7231C99.3146 54.4442 97.1693 53.2065 95.024 51.9276C94.3227 51.515 93.7038 52.5877 94.4052 53.0003C96.5505 54.2792 98.6958 55.5169 100.841 56.7958C101.542 57.2084 102.161 56.1357 101.46 55.7231ZM90.4446 49.741C93.25 50.1948 96.0554 50.3187 98.8608 50.0299C99.6447 49.9474 99.6447 48.7097 98.8608 48.7922C95.7254 49.1223 92.5074 48.9572 89.4132 48.3384C88.8769 48.2146 88.4644 48.7509 88.7119 49.246C90.2796 52.0926 91.8473 54.898 93.3738 57.7447C93.7451 58.446 94.8177 57.8272 94.4464 57.1259C93.1262 54.6505 91.8061 52.2164 90.4446 49.741ZM174.4 26.0602C179.145 29.4432 183.93 32.7849 188.675 36.1679C189.335 36.6217 189.954 35.549 189.294 35.0952C184.549 31.7122 179.763 28.3705 175.019 24.9875C174.359 24.5337 173.74 25.6064 174.4 26.0602ZM169.202 21.2333C168.954 20.4907 167.758 20.7795 168.006 21.5634C169.202 25.4414 171.141 29.0306 173.699 32.1248C174.194 32.7436 175.06 31.8773 174.565 31.2585C172.131 28.3293 170.316 24.9051 169.202 21.2333ZM175.968 21.9759C175.968 21.6046 175.679 21.3984 175.349 21.3571C172.626 21.0683 169.986 20.1193 167.717 18.5929C167.057 18.1391 166.438 19.2118 167.098 19.6656C169.573 21.3158 172.42 22.2647 175.349 22.5948C175.679 22.636 175.968 22.306 175.968 21.9759ZM192.718 95.865C190.077 94.1735 187.437 92.4408 184.755 90.7493C184.095 90.3368 183.476 91.3681 184.137 91.8219C186.777 93.5134 189.417 95.2462 192.099 96.9377C192.759 97.3915 193.378 96.3188 192.718 95.865ZM177.989 88.5628C181.249 89.3879 184.508 90.1717 187.767 90.9968C188.551 91.2031 188.881 90.0067 188.097 89.8004C184.302 88.8516 180.506 87.9027 176.71 86.9538C176.215 86.8301 175.679 87.4076 176.009 87.8614C177.866 90.6256 179.722 93.3485 181.62 96.1126C182.074 96.7727 183.146 96.1539 182.693 95.4938C181.125 93.1834 179.557 90.8731 177.989 88.5628ZM18.0819 35.3428C14.0801 32.5374 10.0783 29.7732 6.07651 26.9678C5.41641 26.514 4.79758 27.5867 5.45767 28.0405C9.45948 30.8459 13.4613 33.6101 17.4631 36.4155C18.0819 36.8693 18.7008 35.7966 18.0819 35.3428ZM2.07471 25.1526C5.49895 26.1428 8.96443 27.1742 12.3887 28.1643C13.1725 28.3706 13.4613 27.1741 12.7187 26.9678C8.84064 25.8127 4.92136 24.6987 1.04332 23.5436C0.506994 23.3786 0.0944061 23.9975 0.341941 24.4513C2.07468 27.8755 3.80742 31.2584 5.54016 34.6826C5.91146 35.384 6.98416 34.7652 6.61285 34.0638C5.08639 31.0934 3.60118 28.123 2.07471 25.1526ZM88.9182 6.42242C91.3935 7.94888 93.8276 9.43409 96.3029 10.9606C96.963 11.3731 97.6231 10.3005 96.9218 9.88797C94.4464 8.3615 92.0124 6.87629 89.537 5.34983C88.8357 4.93727 88.2168 6.00986 88.9182 6.42242ZM82.5235 2.75069C84.9989 3.82334 87.6805 4.31845 90.3621 4.23594C91.146 4.19469 91.146 2.95701 90.3621 2.99827C87.1442 3.12204 84.0087 2.33818 81.2446 0.7292C80.7082 0.399153 80.0894 1.05919 80.3782 1.59551C82.0697 4.44216 83.7199 7.28879 85.4114 10.1354C85.824 10.8368 86.8966 10.218 86.4841 9.51661C85.1639 7.20628 83.8437 4.97851 82.5235 2.75069Z" fill="black"/>
</svg>
