<svg width="18" height="18" viewBox="0 0 18 18" fill="none" xmlns="http://www.w3.org/2000/svg">
<path d="M15.6375 8.99993C15.6356 9.14851 15.5757 9.29046 15.4706 9.39553C15.3656 9.5006 15.2236 9.56049 15.075 9.56243H8.95505V11.9999C8.9609 12.0893 8.93852 12.1783 8.89108 12.2543C8.84364 12.3303 8.77352 12.3894 8.69064 12.4234C8.60775 12.4574 8.51629 12.4645 8.42915 12.4437C8.34202 12.4229 8.26363 12.3752 8.20505 12.3074L5.20505 9.30743C5.12627 9.22746 5.08211 9.1197 5.08211 9.00743C5.08211 8.89517 5.12627 8.78741 5.20505 8.70743L8.20505 5.70743C8.26286 5.64092 8.33981 5.59389 8.42538 5.57279C8.51095 5.5517 8.60094 5.55756 8.68305 5.58958C8.76516 5.6216 8.83536 5.67822 8.88405 5.75167C8.93274 5.82513 8.95754 5.91184 8.95505 5.99993V8.42243H15.075C15.1499 8.42341 15.2238 8.43913 15.2926 8.46868C15.3614 8.49823 15.4237 8.54105 15.4759 8.59467C15.5282 8.6483 15.5693 8.71169 15.597 8.78123C15.6248 8.85076 15.6385 8.92508 15.6375 8.99993ZM2.92505 3.62993C2.77586 3.62993 2.63279 3.6892 2.5273 3.79469C2.42181 3.90018 2.36255 4.04325 2.36255 4.19243V13.8074C2.36255 13.9566 2.42181 14.0997 2.5273 14.2052C2.63279 14.3107 2.77586 14.3699 2.92505 14.3699C3.07423 14.3699 3.21731 14.3107 3.3228 14.2052C3.42829 14.0997 3.48755 13.9566 3.48755 13.8074V4.19243C3.48856 4.11829 3.4747 4.04469 3.44679 3.97599C3.41888 3.90729 3.37748 3.84487 3.32504 3.79244C3.27261 3.74 3.2102 3.69861 3.1415 3.6707C3.07279 3.64279 2.9992 3.62893 2.92505 3.62993V3.62993Z" fill="#99A1B7"/>
</svg>
