<svg width="20" height="20" viewBox="0 0 20 20" fill="none" xmlns="http://www.w3.org/2000/svg">
<path opacity="0.1" d="M11.6685 19.1438L18.8194 11.6389H18.7922C18.9119 11.5113 18.977 11.342 18.9737 11.167V7.02895C18.9771 5.64046 18.4662 4.29991 17.5395 3.26594C16.6128 2.23196 15.3359 1.57785 13.9554 1.42981L12.5941 1.40259H7.33077L5.96956 1.42981C4.60604 1.60383 3.35237 2.26788 2.44237 3.2981C1.53236 4.32832 1.02816 5.65438 1.0238 7.02895V13.7171C1.0262 15.2085 1.61975 16.6382 2.67438 17.6928C3.72901 18.7475 5.1587 19.341 6.65017 19.3434H11.1876C11.2776 19.3485 11.3676 19.3332 11.4509 19.2986C11.5341 19.264 11.6086 19.2111 11.6685 19.1438Z" fill="#99A1B7"/>
<path d="M14.0681 7.89711H5.84017C5.6559 7.89711 5.47917 7.82391 5.34887 7.69361C5.21857 7.56331 5.14537 7.38658 5.14537 7.20231C5.14537 7.01803 5.21857 6.84131 5.34887 6.711C5.47917 6.5807 5.6559 6.5075 5.84017 6.5075H14.0681C14.2524 6.5075 14.4291 6.5807 14.5594 6.711C14.6897 6.84131 14.7629 7.01803 14.7629 7.20231C14.7629 7.38658 14.6897 7.56331 14.5594 7.69361C14.4291 7.82391 14.2524 7.89711 14.0681 7.89711V7.89711ZM9.0765 10.85H5.89502C5.71075 10.85 5.53402 10.9232 5.40372 11.0535C5.27342 11.1838 5.20022 11.3606 5.20022 11.5448C5.20022 11.7291 5.27342 11.9058 5.40372 12.0361C5.53402 12.1664 5.71075 12.2396 5.89502 12.2396H9.0765C9.26077 12.2396 9.4375 12.1664 9.5678 12.0361C9.6981 11.9058 9.77131 11.7291 9.77131 11.5448C9.77131 11.3606 9.6981 11.1838 9.5678 11.0535C9.4375 10.9232 9.26077 10.85 9.0765 10.85V10.85ZM18.8861 11.6637L11.682 19.2243C11.6216 19.2921 11.5467 19.3454 11.4628 19.3802C11.3789 19.4151 11.2882 19.4305 11.1975 19.4254H6.6264C5.12385 19.423 3.68354 18.825 2.62108 17.7626C1.55862 16.7001 0.96067 15.2598 0.958252 13.7572V7.01946C0.962645 5.63468 1.47059 4.29878 2.38735 3.2609C3.30411 2.22303 4.56709 1.55405 5.94074 1.37874V1.26904C5.94074 1.08719 6.01297 0.912787 6.14156 0.7842C6.27015 0.655613 6.44455 0.583374 6.6264 0.583374C6.80825 0.583374 6.98265 0.655613 7.11124 0.7842C7.23982 0.912787 7.31206 1.08719 7.31206 1.26904V1.35132H12.6145V1.26904C12.6145 1.08719 12.6868 0.912787 12.8153 0.7842C12.9439 0.655613 13.1183 0.583374 13.3002 0.583374C13.482 0.583374 13.6564 0.655613 13.785 0.7842C13.9136 0.912787 13.9858 1.08719 13.9858 1.26904V1.37874C15.3767 1.52788 16.663 2.18685 17.5966 3.2285C18.5302 4.27015 19.0449 5.62066 19.0415 7.01946V11.1883C19.0448 11.3645 18.9792 11.5351 18.8586 11.6637H18.8861ZM10.4478 15.22C10.4109 14.009 10.8562 12.833 11.6858 11.9501C12.5155 11.0673 13.6617 10.55 14.8726 10.5118H17.6701V7.01946C17.678 5.98935 17.3116 4.99141 16.639 4.21117C15.9664 3.43092 15.0333 2.92146 14.0133 2.7775V2.94205C14.0133 3.1239 13.941 3.2983 13.8124 3.42689C13.6839 3.55548 13.5095 3.62772 13.3276 3.62772C13.1458 3.62772 12.9714 3.55548 12.8428 3.42689C12.7142 3.2983 12.6419 3.1239 12.6419 2.94205V2.69522H7.31206V2.91463C7.31206 3.09648 7.23982 3.27088 7.11124 3.39946C6.98265 3.52805 6.80825 3.60029 6.6264 3.60029C6.44455 3.60029 6.27015 3.52805 6.14156 3.39946C6.01297 3.27088 5.94074 3.09648 5.94074 2.91463V2.7775C4.92627 2.93406 4.00084 3.44714 3.33061 4.22461C2.66038 5.00207 2.28925 5.993 2.28387 7.01946V13.7847C2.28628 14.9235 2.73976 16.015 3.54504 16.8203C4.35033 17.6256 5.44184 18.0791 6.58069 18.0815H10.4753L10.4478 15.22ZM14.9275 11.8374C14.0844 11.859 13.2842 12.2134 12.7017 12.8233C12.1193 13.4332 11.802 14.2488 11.8192 15.092V17.0484L16.7559 11.8374H14.9275Z" fill="#99A1B7"/>
</svg>
