<svg width="17" height="17" viewBox="0 0 17 17" fill="none" xmlns="http://www.w3.org/2000/svg">
<path opacity="0.1" d="M8.56769 1.44043C7.13048 1.44043 5.72555 1.86661 4.53055 2.66508C3.33555 3.46355 2.40417 4.59845 1.85417 5.92626C1.30417 7.25407 1.16027 8.71516 1.44066 10.1248C1.72104 11.5343 2.41312 12.8291 3.42939 13.8454C4.44565 14.8617 5.74044 15.5537 7.15004 15.8341C8.55963 16.1145 10.0207 15.9706 11.3485 15.4206C12.6763 14.8706 13.8112 13.9392 14.6097 12.7442C15.4082 11.5492 15.8344 10.1443 15.8344 8.70709C15.8326 6.7804 15.0664 4.93314 13.704 3.57076C12.3416 2.20839 10.4944 1.44222 8.56769 1.44043Z" fill="#17C653"/>
<path d="M8.63436 2.26266C9.89587 2.26266 11.129 2.63674 12.1779 3.33759C13.2269 4.03845 14.0444 5.0346 14.5271 6.20008C15.0099 7.36556 15.1362 8.64802 14.8901 9.88529C14.644 11.1226 14.0365 12.2591 13.1445 13.1511C12.2525 14.0431 11.116 14.6506 9.8787 14.8967C8.64144 15.1428 7.35897 15.0165 6.19349 14.5337C5.02801 14.051 4.03186 13.2334 3.331 12.1845C2.63015 11.1356 2.25607 9.90246 2.25607 8.64095C2.25607 6.94932 2.92806 5.32698 4.12423 4.13081C5.32039 2.93465 6.94273 2.26266 8.63436 2.26266ZM7.99994 9.65056L5.90568 7.54948C5.78333 7.43484 5.62306 7.36927 5.45545 7.36529C5.32955 7.36653 5.2068 7.40481 5.10251 7.47536C4.99822 7.5459 4.917 7.64558 4.86899 7.76197C4.82098 7.87837 4.80829 8.00632 4.83252 8.12987C4.85674 8.25343 4.9168 8.36712 5.00521 8.45676L7.54971 11.0081C7.67464 11.1193 7.83608 11.1808 8.00335 11.1808C8.17062 11.1808 8.33207 11.1193 8.45699 11.0081L12.2771 7.1811C12.3656 7.09146 12.4256 6.97777 12.4498 6.85421C12.4741 6.73066 12.4614 6.60271 12.4134 6.48632C12.3654 6.36992 12.2841 6.27024 12.1799 6.1997C12.0756 6.12915 11.9528 6.09087 11.8269 6.08963C11.6593 6.09361 11.499 6.15918 11.3767 6.27382L8.00676 9.68467M8.63436 1.30762C7.18396 1.30762 5.76614 1.73771 4.56018 2.54351C3.35422 3.3493 2.41429 4.49461 1.85925 5.8346C1.3042 7.1746 1.15898 8.64908 1.44194 10.0716C1.72489 11.4941 2.42333 12.8008 3.44891 13.8264C4.4745 14.852 5.78117 15.5504 7.2037 15.8334C8.62622 16.1163 10.1007 15.9711 11.4407 15.4161C12.7807 14.861 13.926 13.9211 14.7318 12.7151C15.5376 11.5092 15.9677 10.0913 15.9677 8.64095C15.9659 6.69658 15.1927 4.83237 13.8178 3.4575C12.4429 2.08262 10.5787 1.30942 8.63436 1.30762Z" fill="#17C653"/>
</svg>
