<svg width="24" height="25" viewBox="0 0 24 25" fill="none" xmlns="http://www.w3.org/2000/svg">
<path d="M22.1935 8.66469H12.0006C9.72249 8.66245 7.87392 10.5074 7.87164 12.7854C7.87095 13.493 8.05227 14.1889 8.3982 14.8061L3.30176 6.06145C7.01381 1.25709 13.9177 0.371628 18.7221 4.08367C20.265 5.27579 21.4631 6.85685 22.1935 8.66469Z" fill="#F44336"/>
<path d="M23 12.7894C22.9949 18.8622 18.0732 23.7839 12.0004 23.7889C11.5405 23.7907 11.0811 23.76 10.6255 23.6973L15.5753 14.8518C16.7097 12.8769 16.0335 10.3564 14.0628 9.21453C13.4389 8.85331 12.7305 8.66352 12.0096 8.66455H22.1933C22.7286 9.97376 23.0026 11.375 23 12.7894Z" fill="#FFC107"/>
<path d="M15.5753 14.852L10.6255 23.6975H10.6163C4.59287 22.9365 0.32685 17.4365 1.08788 11.4131C1.33421 9.46344 2.09864 7.61547 3.30163 6.06152L8.39807 14.8062L8.42557 14.852C9.56209 16.8263 12.0839 17.5055 14.0582 16.369C14.6889 16.006 15.2123 15.4826 15.5753 14.852Z" fill="#4CAF50"/>
<path d="M15.5751 14.8518C14.4386 16.8262 11.9168 17.5054 9.94243 16.3689C9.31181 16.0059 8.78843 15.4825 8.4254 14.8518L8.3979 14.806C7.28415 12.8187 7.99233 10.3049 9.9796 9.19112C10.5969 8.84519 11.2927 8.66387 12.0003 8.66455H12.0094C12.7303 8.66352 13.4387 8.85331 14.0627 9.21453C16.0333 10.3564 16.7096 12.8769 15.5751 14.8518Z" fill="#F44336"/>
<path d="M15.5751 14.8518C14.4386 16.8262 11.9168 17.5054 9.94243 16.3689C9.31181 16.0059 8.78843 15.4825 8.4254 14.8518L8.3979 14.806C7.28415 12.8187 7.99233 10.3049 9.9796 9.19112C10.5969 8.84519 11.2927 8.66387 12.0003 8.66455H12.0094C12.7303 8.66352 13.4387 8.85331 14.0627 9.21453C16.0333 10.3564 16.7096 12.8769 15.5751 14.8518Z" fill="#2196F3"/>
<path d="M11.985 17.3728C11.1859 17.3727 10.4009 17.1622 9.70903 16.7623C9.01137 16.3588 8.43196 15.7791 8.02885 15.0813C6.76325 12.8892 7.51432 10.0862 9.70641 8.82059C10.4039 8.4179 11.1952 8.20611 12.0006 8.20654C14.5318 8.20457 16.5854 10.255 16.5873 12.7861C16.588 13.5919 16.3761 14.3835 15.9733 15.0813C15.1473 16.5013 13.6278 17.3744 11.985 17.3728ZM12.0088 9.12316C10.6935 9.11616 9.47572 9.81622 8.81987 10.9564C7.8074 12.7121 8.40984 14.9561 10.1655 15.9686C11.9211 16.981 14.1651 16.3786 15.1776 14.623C16.1901 12.8693 15.5892 10.6269 13.8356 9.6144C13.2804 9.29387 12.6508 9.12449 12.0097 9.1232L12.0088 9.12316Z" fill="#FAFAFA"/>
</svg>
