<svg width="28" height="29" viewBox="0 0 28 29" fill="none" xmlns="http://www.w3.org/2000/svg">
<g clip-path="url(#clip0_27158_107105)">
<path d="M8.25024 4.34972L8.40604 4.53191L13.7484 7.61407L13.9878 7.65964L14.1976 7.64992L19.5646 4.5492L19.7168 4.34963L15.2763 1.79503C14.525 1.42615 13.4097 1.42651 12.6586 1.79539L8.25024 4.34972Z" fill="#C1EAE2"/>
<path d="M2.5022 19.3901C2.55893 20.2237 3.1155 21.1882 3.80949 21.6544L8.25009 24.2097L8.3506 23.971V17.8112L8.25009 17.5897L8.09474 17.3817L2.69879 14.2676L2.51436 14.2795L2.5022 19.3901Z" fill="#A5E0D3"/>
<path d="M25.4344 19.3902C25.3774 20.2238 24.8209 21.1883 24.1268 21.6544L19.7166 24.2098L19.6094 23.9866V17.8561L19.7166 17.5898L19.885 17.3925L25.2163 14.3125L25.4471 14.2795L25.4344 19.3902Z" fill="#68BDAB"/>
<path d="M19.7167 4.3497L13.9878 7.65962L14.0466 7.92583L19.3554 10.9932L19.7167 10.9699L19.8085 10.69V4.5707L19.7167 4.3497Z" fill="#F14831"/>
<path d="M24.1432 6.90349L19.7168 4.34961V10.9699L20.0247 10.9196L24.962 8.07083L25.0388 7.8989C24.8052 7.49382 24.4912 7.13674 24.1432 6.90349Z" fill="#E92023"/>
<path d="M25.447 14.2796L25.4531 9.16896C25.4247 8.75235 25.2723 8.30268 25.039 7.89868L19.7166 10.9697L19.8357 11.1764L25.1962 14.2728L25.447 14.2796Z" fill="#C13722"/>
<path d="M19.7166 10.9697L25.447 14.2797L19.7166 17.5897L19.5347 17.303V11.2773L19.7166 10.9697Z" fill="#A9371E"/>
<path d="M8.25024 17.5898L8.56032 17.5723L13.8113 20.6077L13.9878 20.9067L13.846 21.0979L8.47053 24.1926L8.25024 24.2098V17.5898Z" fill="#F25257"/>
<path d="M12.6799 26.7652C13.0548 26.949 13.5213 27.042 13.9878 27.042L14.0485 26.8866V21.069L13.9878 20.9065L8.25024 24.2097L12.6799 26.7653V26.7652Z" fill="#F57590"/>
<path d="M13.9875 20.9065V27.0416C14.4541 27.0416 14.9192 26.9487 15.2946 26.7646L19.7165 24.2097L19.6028 24.0539L14.1739 20.9241L13.9875 20.9065Z" fill="#F15051"/>
<path d="M19.7167 17.5898L19.5348 17.4675L14.1367 20.5926L13.9878 20.9067L19.7167 24.2098V17.5898Z" fill="#EC402C"/>
<path d="M8.25026 10.9699L8.46343 10.9777L13.8532 7.86837L13.9878 7.65989L8.25017 4.34961L8.12967 4.48776L8.11499 10.6878L8.25026 10.9699Z" fill="#F36375"/>
<path d="M3.8249 6.90349L8.2502 4.34961V10.9699L7.94697 10.9785L3.09894 8.17881L2.93188 7.89899C3.16541 7.49391 3.47692 7.13683 3.82499 6.90358" fill="#F25749"/>
<path d="M2.93198 7.89868C2.69873 8.30277 2.54905 8.75244 2.52068 9.16896L2.51465 14.2796L2.87848 14.2528L8.11178 11.2327L8.25038 10.9697L2.93198 7.89868Z" fill="#F14926"/>
<path d="M8.25023 10.9697L2.5144 14.2796L8.25023 17.5897L8.39558 17.3478V11.3221L8.25023 10.9697Z" fill="#EF3844"/>
<path d="M13.9874 14.2779L13.7783 14.2715L8.43552 11.1908L8.25 10.9698L13.9875 7.65942L14.0661 7.94689V14.092L13.9874 14.2779Z" fill="#9B3940"/>
<path d="M8.25024 10.9697L13.9878 14.2778L13.8457 14.4846L8.5079 17.557L8.25024 17.5897V10.9697Z" fill="#B62B22"/>
<path d="M13.9875 14.2781L14.1035 14.4959V20.6856L13.9876 20.9067L8.25 17.5898L13.9875 14.2781Z" fill="#842921"/>
<path d="M13.9875 20.9066L19.7165 17.5898L19.5766 17.3874L14.2829 14.3276L13.9875 14.2781V20.9066Z" fill="#A01F20"/>
<path d="M19.7167 10.9697L19.3069 11.0308L14.0951 14.0404L13.9878 14.2779L19.7167 17.5897V10.9697Z" fill="#7D2629"/>
<path d="M13.9875 14.2779L19.7165 10.9698L13.9876 7.65942L13.9875 14.2779Z" fill="#7C253B"/>
<path d="M13.9875 10.1421L10.4028 12.2109V16.3487L13.9877 18.4178L17.5708 16.3487V12.2109L13.9875 10.1423V10.1421Z" fill="#B6E6DB"/>
<path d="M13.9876 14.278L10.4028 12.2107V16.3485L13.9877 18.4181L14.1445 18.118V14.5295L13.9876 14.278Z" fill="#A5E0D3"/>
<path d="M13.9875 14.278L17.5707 12.2107V16.3485L13.9876 18.4181V14.2781L13.9875 14.278Z" fill="#68BDAB"/>
</g>
<defs>
<clipPath id="clip0_27158_107105">
<rect width="23.0589" height="25.6667" fill="white" transform="translate(2.47339 1.448)"/>
</clipPath>
</defs>
</svg>
