<svg width="20" height="20" viewBox="0 0 20 20" fill="none" xmlns="http://www.w3.org/2000/svg">
<path opacity="0.1" d="M13.4462 1.66663H6.57652C5.07611 1.66886 3.6378 2.26589 2.57684 3.32684C1.51589 4.3878 0.918864 5.82611 0.916626 7.32652V12.6734C0.918864 14.1738 1.51589 15.6121 2.57684 16.6731C3.6378 17.734 5.07611 18.3311 6.57652 18.3333H13.4462C14.9466 18.3311 16.385 17.734 17.4459 16.6731C18.5069 15.6121 19.1039 14.1738 19.1061 12.6734V7.32652C19.1039 5.82611 18.5069 4.3878 17.4459 3.32684C16.385 2.26589 14.9466 1.66886 13.4462 1.66663Z" fill="#99A1B7"/>
<path d="M13.4621 1.59998H6.53802C5.02575 1.60223 3.57606 2.20398 2.50672 3.27332C1.43738 4.34266 0.835629 5.79235 0.833374 7.30463V12.6938C0.835629 14.206 1.43738 15.6557 2.50672 16.7251C3.57606 17.7944 5.02575 18.3962 6.53802 18.3984H13.4621C14.9743 18.3962 16.424 17.7944 17.4934 16.7251C18.5627 15.6557 19.1645 14.206 19.1667 12.6938V7.30463C19.1645 5.79235 18.5627 4.34266 17.4934 3.27332C16.424 2.20398 14.9743 1.60223 13.4621 1.59998V1.59998ZM17.9729 12.6852C17.9729 13.8816 17.4977 15.029 16.6517 15.8749C15.8058 16.7208 14.6584 17.1961 13.4621 17.1961H6.53802C5.34167 17.1961 4.19432 16.7208 3.34837 15.8749C2.50242 15.029 2.02717 13.8816 2.02717 12.6852V7.30463C2.02717 6.10827 2.50242 4.96092 3.34837 4.11497C4.19432 3.26902 5.34167 2.79377 6.53802 2.79377H13.4621C14.6584 2.79377 15.8058 3.26902 16.6517 4.11497C17.4977 4.96092 17.9729 6.10827 17.9729 7.30463V12.6852ZM8.41399 10.1271C8.89599 9.81521 9.26417 9.35576 9.46354 8.81738C9.66291 8.27899 9.68277 7.69056 9.52017 7.13996C9.35756 6.58936 9.02121 6.10613 8.56134 5.76243C8.10147 5.41874 7.54276 5.23303 6.96864 5.23303C6.39453 5.23303 5.83582 5.41874 5.37595 5.76243C4.91608 6.10613 4.57973 6.58936 4.41712 7.13996C4.25452 7.69056 4.27438 8.27899 4.47375 8.81738C4.67312 9.35576 5.0413 9.81521 5.5233 10.1271C4.94005 10.2349 4.40823 10.5309 4.00933 10.9699C3.61042 11.4088 3.36644 11.9665 3.31477 12.5573C3.31477 12.7156 3.37766 12.8675 3.4896 12.9794C3.60154 13.0914 3.75336 13.1542 3.91167 13.1542C4.06998 13.1542 4.2218 13.0914 4.33374 12.9794C4.44568 12.8675 4.50857 12.7156 4.50857 12.5573C4.50857 11.8922 5.51477 11.1504 6.96438 11.1504C8.41399 11.1504 9.42872 11.8922 9.42872 12.5573C9.42872 12.7156 9.49161 12.8675 9.60355 12.9794C9.71549 13.0914 9.86731 13.1542 10.0256 13.1542C10.1839 13.1542 10.3358 13.0914 10.4477 12.9794C10.5596 12.8675 10.6225 12.7156 10.6225 12.5573C10.5712 11.9654 10.3276 11.4066 9.92877 10.9662C9.52996 10.5258 8.99794 10.2281 8.41399 10.1186V10.1271ZM6.96438 6.43486C7.25518 6.43317 7.53992 6.51797 7.78241 6.67848C8.0249 6.83899 8.21421 7.06796 8.32627 7.33631C8.43834 7.60465 8.4681 7.90025 8.41178 8.18555C8.35546 8.47085 8.2156 8.73296 8.00997 8.93859C7.80434 9.14422 7.54223 9.28408 7.25693 9.3404C6.97163 9.39672 6.67603 9.36696 6.40769 9.25489C6.13935 9.14283 5.91037 8.95352 5.74986 8.71103C5.58936 8.46853 5.50456 8.1838 5.50624 7.893C5.50848 7.50697 5.66282 7.13738 5.93579 6.86441C6.20876 6.59144 6.57835 6.4371 6.96438 6.43486ZM15.7985 11.7046C15.7985 11.8629 15.7356 12.0148 15.6237 12.1267C15.5117 12.2386 15.3599 12.3015 15.2016 12.3015H12.4217C12.2634 12.3015 12.1116 12.2386 11.9997 12.1267C11.8877 12.0148 11.8248 11.8629 11.8248 11.7046C11.8248 11.5463 11.8877 11.3945 11.9997 11.2826C12.1116 11.1706 12.2634 11.1077 12.4217 11.1077H15.2016C15.3599 11.1077 15.5117 11.1706 15.6237 11.2826C15.7356 11.3945 15.7985 11.5463 15.7985 11.7046ZM16.1055 8.65191C16.1055 8.81022 16.0426 8.96204 15.9306 9.07398C15.8187 9.18592 15.6669 9.24881 15.5086 9.24881H11.245C11.0867 9.24881 10.9349 9.18592 10.8229 9.07398C10.711 8.96204 10.6481 8.81022 10.6481 8.65191C10.6481 8.49361 10.711 8.34178 10.8229 8.22984C10.9349 8.1179 11.0867 8.05501 11.245 8.05501H15.5086C15.6662 8.05722 15.8167 8.12081 15.9282 8.23228C16.0397 8.34375 16.1033 8.49429 16.1055 8.65191V8.65191Z" fill="#99A1B7"/>
</svg>
