<svg width="300" height="300" viewBox="0 0 300 300" fill="none" xmlns="http://www.w3.org/2000/svg">
<path d="M122.23 182.186C115.791 185.357 107.838 183.985 101.731 180.339C95.5767 176.694 90.9374 170.966 86.7241 165.19C84.3097 161.829 81.9899 158.373 80.6171 154.491C76.2144 141.946 82.6528 127.933 91.9315 118.37C101.163 108.808 113.045 102.227 122.987 93.3747C127.2 89.6348 131.035 85.516 135.532 82.1549C146.847 73.5862 161.948 70.2251 175.866 73.2075C183.346 74.8171 190.637 78.3203 195.797 83.9538C199.821 88.3092 202.425 93.7533 205.644 98.7241C208.768 103.553 212.461 108.003 216.674 111.932C220.414 115.435 224.533 118.56 227.941 122.394C239.445 135.413 240.013 156.764 229.267 170.398C222.165 179.393 211.372 184.647 200.578 188.293C191.868 191.275 196.081 165.048 186.897 164.149C180.222 163.486 157.593 174.185 150.918 184.979C148.077 189.571 142.917 189.571 137.568 189.239C130.893 188.861 124.312 186.73 118.632 183.18" fill="#16202C"/>
<path d="M102.915 236.582C103.199 234.263 105.33 232.511 105.898 230.239C106.134 229.292 106.087 228.25 106.04 227.256C105.661 220.25 105.661 213.196 106.04 206.19C106.182 203.207 106.418 200.13 107.981 197.574C109.164 195.633 111.058 194.023 111.294 191.751C111.436 190.378 110.916 189.052 110.916 187.679C110.916 186.307 111.721 184.697 113.093 184.697L112.478 184.413C112.951 181.572 111.152 178.827 108.975 176.933C106.797 175.04 104.146 173.714 102.063 171.773C99.6486 169.548 98.0391 166.66 96.5242 163.772C93.7311 158.518 91.08 153.026 90.6066 147.109C90.4646 145.357 90.5592 143.558 91.1747 141.948C92.5949 138.303 96.3821 136.315 99.8853 134.611L100.027 133.758C101.164 130.161 105.093 128.078 108.833 127.888C112.573 127.699 116.218 129.024 119.768 130.35C125.639 132.528 131.84 134.989 135.296 140.197C138.657 145.215 138.042 150.612 138.326 156.293C138.563 160.648 139.935 164.293 139.557 168.838C139.415 170.353 139.225 171.868 139.415 173.335C139.841 176.27 141.876 179.016 141.545 181.951L141.166 180.436C144.338 186.212 146.326 192.603 146.989 199.183C147.226 201.314 147.321 203.586 148.409 205.432C149.498 207.278 151.439 208.462 152.954 210.024C157.688 215.042 157.025 222.948 155.889 229.813" fill="#111217"/>
<path d="M154.753 211.208C153.806 209.835 152.575 208.746 151.297 207.61C149.972 206.426 148.835 205.195 148.315 203.444C147.794 201.645 147.794 199.798 147.557 197.952C147.321 196.011 146.942 194.118 146.516 192.224C145.569 188.342 144.101 184.602 142.255 181.052C142.16 178.495 140.693 176.223 140.172 173.761C139.841 172.246 140.077 170.637 140.219 169.122C140.362 167.56 140.314 165.997 140.125 164.482C139.793 161.595 139.083 158.707 138.989 155.772C138.847 152.931 138.941 150.044 138.515 147.203C138.136 144.363 137.142 141.617 135.438 139.297C133.923 137.214 131.935 135.557 129.757 134.184C127.532 132.812 125.07 131.723 122.656 130.776C119.863 129.687 117.023 128.551 114.135 127.841C111.105 127.083 107.838 126.941 104.903 128.125C102.347 129.166 100.217 131.013 99.3645 133.664C99.3172 133.853 99.3171 134.042 99.4118 134.184C96.2873 135.699 92.9735 137.451 91.1746 140.528C89.0442 144.173 89.849 148.907 90.9379 152.742C92.1214 156.955 94.1571 160.932 96.1927 164.766C97.1869 166.613 98.181 168.412 99.4592 170.021C100.737 171.678 102.252 173.051 103.957 174.235C105.85 175.56 107.839 176.744 109.448 178.401C110.916 179.963 112.146 182.046 111.768 184.271C111.768 184.365 111.768 184.413 111.768 184.46C111.01 184.934 110.489 185.833 110.3 186.733C109.921 188.531 110.916 190.283 110.537 192.082C110.205 193.692 108.975 194.97 108.028 196.248C106.986 197.668 106.276 199.278 105.898 201.029C105.519 202.828 105.377 204.675 105.329 206.521C105.235 208.604 105.14 210.734 105.14 212.864C105.045 217.125 105.14 221.386 105.282 225.646C105.329 226.735 105.424 227.872 105.377 229.008C105.329 229.955 105.045 230.807 104.572 231.659C103.72 233.221 102.489 234.641 102.252 236.44C102.205 236.819 102.347 237.198 102.726 237.292C103.057 237.387 103.53 237.198 103.578 236.819C103.814 235.304 104.714 234.12 105.519 232.842C106.418 231.327 106.844 229.812 106.75 228.061C106.608 224.037 106.418 220.013 106.466 215.942C106.466 211.965 106.513 207.941 106.892 203.964C107.034 202.213 107.365 200.414 108.123 198.852C108.833 197.384 109.921 196.201 110.821 194.875C111.294 194.165 111.673 193.407 111.91 192.603C112.146 191.656 112.052 190.662 111.91 189.715C111.768 188.768 111.531 187.821 111.768 186.875C111.91 186.448 112.147 185.975 112.525 185.691C116.881 186.685 121.283 187.727 125.781 187.395C129.568 187.111 133.308 185.928 136.527 183.939C137.994 183.04 139.367 182.046 140.598 180.862C140.693 181.052 140.788 181.241 140.882 181.43C140.882 181.62 140.882 181.809 140.835 181.998C140.787 182.472 141.166 182.709 141.498 182.661C142.871 185.454 144.007 188.342 144.812 191.325C145.285 193.123 145.711 194.97 145.995 196.816C146.279 198.662 146.374 200.556 146.658 202.402C146.942 204.154 147.557 205.716 148.741 207.042C149.83 208.32 151.25 209.267 152.386 210.45C154.516 212.675 155.558 215.658 155.889 218.687C156.268 222.333 155.842 225.978 155.226 229.576C155.084 230.475 156.457 230.854 156.599 229.955C157.593 223.895 158.446 216.652 154.753 211.208ZM131.461 184.697C127.769 185.975 123.934 186.212 120.052 185.738C117.922 185.454 115.792 184.981 113.709 184.508C113.661 184.271 113.472 184.081 113.188 184.081C113.472 180.341 110.726 177.359 107.838 175.229C106.182 173.998 104.383 172.956 102.82 171.584C101.258 170.211 100.075 168.601 98.9858 166.849C97.8969 165.098 96.9501 163.204 96.0033 161.358C95.0091 159.417 94.0623 157.476 93.3049 155.44C92.5474 153.452 91.932 151.369 91.5533 149.286C91.2219 147.25 90.9852 144.978 91.5533 142.942C92.6421 139.013 96.6188 136.978 99.98 135.368C100.122 135.605 100.406 135.794 100.737 135.747C101.495 135.605 102.347 135.463 103.104 135.652C104.004 135.889 104.335 136.551 104.477 137.451C104.714 138.966 104.477 140.623 103.814 141.996C103.578 142.469 103.294 142.895 103.01 143.321C102.631 143.369 102.394 143.653 102.394 144.031C101.826 144.552 101.211 144.978 100.453 145.262C98.6071 145.972 96.2401 146.162 94.2991 145.688C93.3996 145.452 93.0209 146.824 93.9203 147.061C95.814 147.534 97.8969 147.44 99.7905 146.966C100.785 146.73 101.684 146.351 102.489 145.783C102.868 147.724 104.051 149.475 105.755 150.47C105.803 150.517 105.85 150.517 105.898 150.517C106.087 151.227 106.324 151.89 106.608 152.553C107.46 154.494 109.069 156.908 111.484 156.671C111.673 156.671 111.815 156.576 111.957 156.482C112.904 157.571 114.135 158.47 115.508 158.991C113.283 161.074 112.241 164.293 112.999 167.275C113.235 168.175 114.608 167.796 114.371 166.897C113.709 164.198 114.798 161.121 117.07 159.464L117.117 159.417C117.212 159.417 117.307 159.464 117.401 159.464C119.342 159.748 121.331 159.512 123.177 158.802C124.834 158.139 126.585 157.05 127.248 155.298C127.674 154.162 127.438 153.073 126.822 152.221C126.869 152.174 126.917 152.174 126.964 152.126C127.106 152.032 127.248 151.984 127.39 151.89C127.437 151.89 127.485 151.842 127.485 151.842C127.579 151.795 127.627 151.795 127.722 151.748C127.864 151.7 128.006 151.653 128.195 151.653C128.242 151.653 128.29 151.653 128.337 151.653C128.432 151.653 128.479 151.653 128.574 151.653C128.668 151.653 128.763 151.653 128.81 151.653C128.858 151.653 128.905 151.653 128.905 151.653C128.952 151.653 128.952 151.653 129 151.653C128.952 151.653 128.952 151.653 128.905 151.653C128.952 151.653 129.094 151.7 129.142 151.7C129.236 151.7 129.331 151.748 129.426 151.748C129.805 151.842 130.231 151.606 130.278 151.274C130.373 150.896 130.183 150.517 129.805 150.422C128.432 149.996 126.869 150.328 125.781 151.227C125.544 151.085 125.355 150.943 125.07 150.848C124.597 150.659 124.124 150.517 123.65 150.47C123.698 150.47 123.698 150.422 123.745 150.422C124.218 150.044 124.597 149.57 124.928 149.049C125.733 147.866 126.491 146.682 127.295 145.546C127.532 145.215 127.343 144.741 127.059 144.552C126.727 144.363 126.301 144.505 126.065 144.789C125.354 145.83 124.644 146.872 123.982 147.913C123.698 148.339 123.461 148.718 123.129 149.049C123.082 149.097 122.94 149.239 122.893 149.286C122.94 149.239 122.798 149.381 122.798 149.381C122.751 149.428 122.703 149.428 122.656 149.475C122.656 149.475 122.609 149.475 122.609 149.523C122.561 149.523 122.514 149.57 122.467 149.57C122.467 149.57 122.23 149.57 122.372 149.57C121.993 149.523 121.615 149.665 121.52 150.044C121.473 150.233 121.52 150.47 121.662 150.659C121.567 150.659 121.52 150.706 121.425 150.706C121.473 150.612 121.52 150.517 121.52 150.375C121.473 148.434 120.005 146.588 118.064 146.256C117.685 146.209 117.259 146.351 117.212 146.73C117.117 147.061 117.307 147.534 117.685 147.582C117.875 147.629 118.064 147.676 118.253 147.724C118.301 147.724 118.348 147.771 118.395 147.771C118.301 147.724 118.301 147.724 118.348 147.724C118.348 147.724 118.395 147.724 118.395 147.771C118.49 147.818 118.585 147.866 118.632 147.913C118.727 147.961 118.774 148.008 118.869 148.055C118.916 148.103 118.963 148.103 118.963 148.15C118.821 148.055 118.916 148.15 118.963 148.15C119.106 148.292 119.248 148.434 119.39 148.576C119.437 148.623 119.484 148.671 119.484 148.671L119.437 148.623C119.437 148.671 119.484 148.671 119.484 148.718C119.532 148.813 119.579 148.86 119.626 148.955C119.674 149.049 119.721 149.144 119.768 149.191C119.768 149.239 119.816 149.286 119.816 149.333C119.863 149.523 119.958 149.665 119.958 149.854C119.958 149.901 119.958 149.949 120.005 149.996C120.005 150.091 120.005 150.186 120.005 150.28C120.005 150.517 120.147 150.801 120.384 150.896C119.768 151.132 119.153 151.416 118.585 151.7C117.78 152.079 118.49 153.31 119.295 152.931C120.762 152.221 122.561 151.369 124.218 151.937C124.597 152.079 124.928 152.221 125.165 152.458C125.212 152.505 125.212 152.553 125.26 152.6C125.307 152.647 125.355 152.647 125.402 152.695C125.97 153.31 126.207 154.115 125.781 154.967C125.07 156.34 123.414 157.145 122.041 157.618C120.478 158.139 118.727 158.281 117.117 157.902C114.087 157.192 111.862 154.92 111.2 151.89C110.868 150.28 110.821 148.576 110.963 146.966C111.105 145.451 111.626 143.889 112.715 142.8C113.945 141.57 115.697 141.001 117.307 140.481C119.39 139.818 121.473 139.155 123.556 138.492C124.408 138.208 124.029 136.835 123.177 137.12C120.999 137.83 118.774 138.492 116.596 139.202C114.892 139.771 113.093 140.433 111.768 141.712C110.442 142.99 109.827 144.789 109.59 146.588C109.353 148.529 109.401 150.564 109.874 152.458C110.111 153.405 110.489 154.304 111.01 155.109C109.448 154.967 108.454 153.168 107.886 151.842C107.128 150.138 106.844 148.245 106.797 146.398C106.75 144.505 106.986 142.516 107.507 140.67C107.744 139.676 108.17 138.824 108.927 138.114C109.59 137.498 110.49 137.025 111.294 136.599C113.046 135.747 114.798 136.267 116.644 136.315C117.543 136.362 117.543 134.942 116.644 134.895C114.798 134.8 112.999 134.326 111.2 135.084C109.164 135.936 107.223 137.262 106.418 139.392C105.661 141.428 105.424 143.795 105.377 145.972C105.377 146.73 105.424 147.487 105.519 148.245C104.477 147.25 103.862 145.83 103.767 144.363C103.815 144.268 103.909 144.221 103.957 144.126C104.903 142.942 105.566 141.522 105.803 140.007C106.039 138.492 106.134 136.551 105.187 135.273C104.761 134.658 104.193 134.326 103.531 134.137C103.578 134.042 103.625 133.948 103.625 133.853C103.625 133.664 103.673 133.474 103.767 133.238C103.815 133.096 103.815 133.048 103.862 133.001C103.909 132.906 103.957 132.764 104.051 132.67C104.288 132.291 104.667 131.912 104.951 131.675C105.898 130.965 106.986 130.681 108.123 130.444C108.501 130.35 108.738 129.924 108.596 129.592C108.501 129.214 108.123 129.024 107.744 129.119C106.371 129.403 105.045 129.829 103.957 130.681C102.962 131.486 102.3 132.622 102.205 133.9C102.205 133.948 102.205 133.995 102.205 134.042C101.59 134.042 100.974 134.137 100.406 134.232C100.406 134.232 100.406 134.184 100.359 134.184C100.453 134.09 100.548 133.995 100.595 133.853C101.305 131.675 103.152 130.113 105.235 129.261C107.744 128.267 110.395 128.314 112.999 128.882C115.839 129.498 118.585 130.586 121.331 131.628C123.698 132.527 126.017 133.522 128.195 134.752C130.325 135.983 132.314 137.498 133.829 139.392C135.533 141.522 136.527 144.031 137 146.73C137.426 149.381 137.379 152.079 137.474 154.778C137.568 157.571 138.042 160.316 138.515 163.062C138.752 164.624 138.894 166.234 138.847 167.844C138.799 169.595 138.421 171.347 138.657 173.098C138.894 175.039 139.888 176.886 140.456 178.779C137.947 181.525 134.87 183.513 131.461 184.697ZM127.438 151.89C127.438 151.89 127.485 151.89 127.438 151.89V151.89ZM122.467 149.523C122.419 149.523 122.419 149.523 122.467 149.523V149.523ZM144.954 195.396C142.587 196.485 140.219 197.574 137.805 198.473C133.45 200.083 129 200.793 124.408 200.035C119.816 199.325 115.508 197.384 111.294 195.538C110.442 195.159 111.2 193.928 112.004 194.307C114.277 195.301 116.596 196.343 118.963 197.147C123.129 198.615 127.532 199.372 131.935 198.615C136.29 197.857 140.314 196.011 144.243 194.165C145.048 193.786 145.758 195.017 144.954 195.396ZM136.574 191.467C136.858 191.798 137.237 192.035 137.663 192.177C138.468 192.461 139.462 192.224 140.03 191.561C140.551 190.898 140.788 189.952 140.456 189.147C140.267 188.673 140.03 188.342 139.604 188.058C139.273 187.821 138.799 187.727 138.421 187.727C137.947 187.727 137.474 187.869 137.095 188.105C136.622 188.389 136.338 188.768 136.148 189.289C136.101 189.431 136.101 189.62 136.196 189.762C136.101 189.904 136.006 190.046 136.054 190.188C136.101 190.662 136.243 191.088 136.574 191.467ZM138.278 190.898C138.278 190.898 138.326 190.898 138.373 190.898C138.326 190.898 138.278 190.898 138.278 190.898ZM138.799 190.851C138.799 190.804 138.799 190.804 138.799 190.851V190.851ZM138.989 190.709C138.989 190.709 139.036 190.662 139.036 190.614C139.036 190.662 138.989 190.662 138.989 190.709ZM139.131 190.472L139.178 190.378C139.131 190.425 139.131 190.472 139.131 190.472ZM139.225 190.141C139.225 190.094 139.225 190.094 139.225 190.094C139.225 190.094 139.225 190.094 139.225 190.141ZM139.178 189.62C139.178 189.62 139.178 189.62 139.178 189.573C139.178 189.62 139.178 189.62 139.178 189.62ZM139.083 189.478C139.083 189.478 139.036 189.431 139.036 189.384C139.083 189.431 139.083 189.478 139.083 189.478ZM137.994 189.242C137.947 189.242 137.947 189.242 137.947 189.242C137.947 189.242 137.947 189.242 137.994 189.242ZM137.616 189.526C137.663 189.478 137.71 189.431 137.71 189.384C137.71 189.384 137.758 189.384 137.758 189.336C137.805 189.289 137.852 189.289 137.9 189.242C137.9 189.242 137.947 189.242 137.947 189.194C137.994 189.194 138.089 189.147 138.136 189.147C138.184 189.147 138.184 189.147 138.231 189.147C138.278 189.147 138.326 189.147 138.421 189.147C138.468 189.147 138.468 189.147 138.515 189.147C138.563 189.147 138.657 189.194 138.657 189.194C138.705 189.194 138.705 189.194 138.752 189.242C138.799 189.289 138.847 189.289 138.894 189.336L138.941 189.384L138.989 189.431C138.989 189.431 138.989 189.478 139.036 189.478C139.036 189.526 139.083 189.526 139.083 189.573C139.083 189.573 139.083 189.573 139.131 189.62C139.131 189.668 139.178 189.762 139.178 189.81V189.857C139.178 189.904 139.178 189.999 139.178 190.046C139.178 190.094 139.178 190.141 139.178 190.141C139.178 190.188 139.131 190.283 139.131 190.283C139.131 190.283 139.131 190.33 139.131 190.378V190.425C139.131 190.472 139.083 190.472 139.083 190.52C139.083 190.52 139.036 190.567 139.036 190.614C139.036 190.614 139.036 190.662 138.989 190.662C138.941 190.709 138.941 190.709 138.894 190.756L138.847 190.804C138.799 190.851 138.752 190.851 138.705 190.898H138.657C138.61 190.898 138.61 190.898 138.563 190.898C138.515 190.898 138.468 190.898 138.373 190.898C138.373 190.898 138.373 190.898 138.326 190.898H138.278C138.184 190.898 138.136 190.851 138.042 190.851C138.042 190.851 137.994 190.851 137.994 190.804C137.947 190.756 137.852 190.709 137.805 190.662C137.758 190.614 137.758 190.614 137.71 190.567C137.663 190.52 137.663 190.52 137.616 190.472L137.568 190.425C137.568 190.378 137.521 190.378 137.521 190.33C137.521 190.33 137.521 190.33 137.521 190.283V190.236C137.521 190.188 137.474 190.141 137.474 190.094V190.046C137.474 189.952 137.426 189.904 137.426 189.857C137.474 189.81 137.521 189.762 137.521 189.668C137.521 189.62 137.568 189.62 137.568 189.573C137.568 189.573 137.568 189.526 137.616 189.526Z" fill="#DCDCDC"/>
<path d="M169.239 268.204C166.967 262.239 170.659 255.848 173.547 250.12C177.571 242.072 180.175 233.266 181.074 224.319C181.548 219.585 181.832 214.33 185.335 211.111V211.158C187.465 193.737 185.477 175.511 191.442 158.989C192.247 156.811 193.193 154.586 194.945 153.024C196.507 151.556 198.59 150.752 200.626 150.042C204.224 148.858 207.964 147.911 211.751 147.343C215.065 146.822 218.521 146.538 221.692 147.532C224.107 148.29 226.569 149.899 227.752 152.219C228.178 153.071 228.131 154.207 228.936 154.634C229.788 155.06 231.397 154.349 232.486 154.965C233.48 155.533 234.238 156.432 234.995 157.332C236.037 158.61 237.031 159.936 237.93 161.309C238.498 162.113 239.019 162.966 239.208 163.912C239.398 164.812 239.256 165.711 239.114 166.611C237.646 175.274 233.149 183.369 226.521 189.145C224.675 190.754 222.639 192.222 220.604 193.595C218.615 194.92 215.775 196.057 214.071 197.761C212.745 199.086 212.65 201.406 212.272 203.205C211.704 205.951 211.278 208.744 210.994 211.537L211.751 212.294C214.639 213.194 215.728 216.792 215.444 219.774C215.159 222.757 213.976 225.644 213.976 228.674C214.023 233.266 216.816 237.29 219.089 241.314C223.87 249.836 226.332 259.635 226.143 269.387" fill="#111217"/>
<path d="M238.688 161.12C237.836 159.842 236.889 158.564 235.942 157.333C235.09 156.244 234.238 155.155 233.054 154.445C232.534 154.161 232.013 154.019 231.397 153.972C230.782 153.972 230.214 154.114 229.598 154.019C229.125 153.971 228.983 153.64 228.841 153.214C228.652 152.646 228.51 152.078 228.178 151.51C227.563 150.374 226.616 149.474 225.622 148.669C220.793 145.024 214.307 146.018 208.769 147.107C205.739 147.723 202.709 148.527 199.774 149.569C197.217 150.468 194.803 151.699 193.146 153.924C191.489 156.197 190.59 158.99 189.785 161.641C188.886 164.528 188.223 167.464 187.702 170.446C185.666 182.376 186.092 194.542 185.051 206.614C184.909 207.987 184.767 209.36 184.625 210.733C182.116 213.147 181.216 216.603 180.79 219.917C180.554 221.716 180.412 223.562 180.175 225.361C179.938 227.491 179.559 229.574 179.133 231.657C178.234 235.871 177.003 239.989 175.441 243.966C173.879 247.895 171.796 251.541 170.091 255.375C168.292 259.446 166.872 263.991 168.482 268.346C168.813 269.199 170.186 268.82 169.855 267.968C168.434 264.18 169.523 260.204 171.038 256.653C172.648 252.913 174.683 249.41 176.293 245.67C177.903 241.836 179.181 237.906 180.127 233.882C181.027 229.953 181.548 226.024 181.974 222C182.353 218.497 182.873 214.662 185.382 212.011C185.382 212.011 185.382 212.011 185.43 212.011C193.004 214.473 201.383 217.124 209.289 214.331C210.189 213.999 211.183 213.715 211.94 213.053C214.828 214.283 215.112 218.307 214.639 221.006C214.26 223.089 213.645 225.124 213.408 227.207C213.219 229.196 213.503 231.137 214.118 233.03C215.396 236.818 217.811 240.084 219.61 243.635C221.503 247.375 222.923 251.351 223.918 255.422C225.006 259.967 225.527 264.654 225.48 269.341C225.48 270.24 226.9 270.24 226.9 269.341C227.042 260.772 225.196 252.203 221.551 244.439C220.651 242.546 219.61 240.699 218.568 238.853C217.527 237.102 216.485 235.303 215.728 233.362C214.97 231.421 214.592 229.432 214.781 227.397C214.97 225.219 215.68 223.089 216.059 220.959C216.58 217.645 215.917 213.384 212.651 211.822C212.698 211.443 212.603 211.112 212.272 210.78C212.13 210.638 212.035 210.591 211.893 210.591C212.082 208.887 212.367 207.23 212.651 205.525C212.698 205.431 212.698 205.336 212.698 205.194C212.887 204.247 213.029 203.3 213.171 202.354C213.361 201.217 213.503 199.987 214.071 198.945C214.639 197.856 215.775 197.194 216.769 196.578C217.905 195.868 219.089 195.3 220.225 194.637C221.456 193.88 222.687 193.028 223.823 192.175C226.095 190.518 228.226 188.672 230.119 186.542C233.67 182.613 236.416 178.02 238.167 173.05C238.593 171.819 238.972 170.588 239.256 169.31C239.587 167.984 239.919 166.564 239.966 165.191C240.155 163.724 239.54 162.398 238.688 161.12ZM224.628 170.872C224.486 170.872 224.344 170.872 224.202 170.872H224.107C225.433 169.499 226.379 167.653 226.995 165.759C227.184 166.233 227.421 166.706 227.658 167.085C227.421 168.221 227.042 169.357 226.19 170.115C225.859 170.446 225.385 170.683 224.912 170.777C224.864 170.777 224.817 170.777 224.77 170.825C224.77 170.872 224.628 170.872 224.628 170.872ZM208.911 213.005C207.916 213.337 206.922 213.621 205.928 213.81C203.798 214.189 201.573 214.236 199.395 214.047C194.851 213.668 190.448 212.201 186.092 210.78C186.471 207.372 186.755 203.963 186.945 200.555C192.531 204.531 199.395 206.662 206.26 206.567C207.869 206.567 209.479 206.378 211.088 206.141C211.041 206.472 210.994 206.756 210.946 207.088C210.71 208.555 210.52 210.07 210.378 211.585C210.331 211.964 210.568 212.153 210.852 212.248C210.757 212.295 210.615 212.39 210.52 212.437C210 212.627 209.479 212.816 208.911 213.005ZM238.356 167.085C238.12 168.363 237.836 169.594 237.457 170.872C235.989 175.796 233.575 180.388 230.309 184.317C226.805 188.53 222.355 191.891 217.574 194.542C215.538 195.679 213.266 196.862 212.461 199.229C212.082 200.365 211.94 201.549 211.704 202.732C211.562 203.395 211.467 204.011 211.325 204.673C204.839 205.857 197.975 204.91 192.01 201.975C190.258 201.123 188.602 200.129 187.087 198.945L187.039 198.898C187.418 191.181 187.56 183.465 188.459 175.796C189.122 170.02 190.306 164.244 192.341 158.753C193.288 156.244 194.566 153.924 196.886 152.457C199.301 150.989 202.236 150.232 204.934 149.521C207.869 148.764 210.852 148.101 213.834 147.77C216.675 147.438 219.657 147.438 222.403 148.48C224.533 149.332 226.474 150.847 227.326 152.977C226.853 153.025 226.427 153.498 226.758 154.019C227.184 154.682 227.326 155.439 227.373 156.244C226.048 158.232 225.764 160.789 226.237 163.156C226.143 163.582 226.048 164.008 225.906 164.434C225.101 167.322 223.586 170.493 220.604 171.535C220.651 171.44 220.746 171.346 220.793 171.251C221.835 169.499 222.45 167.511 223.113 165.617C223.87 163.44 224.533 161.262 224.864 158.99C225.243 156.481 225.148 153.972 224.391 151.605C224.107 150.752 222.734 151.131 223.018 151.983C224.296 155.865 223.492 159.936 222.261 163.724C221.693 165.57 221.03 167.416 220.272 169.168C219.562 170.73 218.663 172.198 217.101 173.002C215.68 173.713 214.023 173.76 212.556 173.239C213.455 172.529 214.355 171.819 215.112 170.967C216.154 169.831 216.816 168.458 217.29 166.99C217.811 165.381 218.331 163.771 218.663 162.161C219.42 158.848 219.468 155.202 217.479 152.315C216.959 151.557 215.728 152.267 216.248 153.025C217.716 155.108 217.953 157.759 217.621 160.268C217.432 161.641 217.053 162.966 216.675 164.339C216.296 165.57 215.964 166.848 215.444 167.984C214.876 169.215 214.071 170.162 213.077 171.014C212.13 171.819 211.136 172.671 210.094 173.334C208.343 174.47 205.123 175.559 204.177 172.86C203.703 171.488 204.129 170.02 204.697 168.694C205.076 167.748 205.739 166.375 206.922 166.375C207.396 166.375 207.727 165.901 207.585 165.475C207.017 163.582 207.159 161.593 208.058 159.794C208.153 159.605 208.153 159.368 208.106 159.226C208.958 158.279 209.668 157.191 210.236 156.054C210.378 155.723 210.331 155.25 209.999 155.06C209.668 154.871 209.195 154.966 209.005 155.297C208.674 156.007 208.248 156.717 207.774 157.38C207.727 157.427 207.68 157.522 207.632 157.569L207.585 157.617C207.538 157.664 207.538 157.664 207.49 157.711C207.348 157.853 207.254 158.043 207.112 158.185C207.017 158.279 206.922 158.374 206.828 158.469C204.792 157.664 204.319 155.06 203.987 153.119C203.94 152.741 203.466 152.551 203.135 152.646C202.756 152.741 202.567 153.119 202.662 153.498C202.898 154.871 203.135 156.291 203.845 157.522C204.366 158.422 205.123 159.179 206.07 159.652C206.07 159.794 206.165 159.984 206.26 160.078C206.307 160.126 206.354 160.173 206.449 160.173C205.928 161.735 205.786 163.392 206.118 165.002C205.218 165.286 204.555 166.043 204.035 166.848C203.277 168.126 202.709 169.689 202.662 171.203C202.614 172.482 202.993 173.902 203.94 174.801C205.029 175.843 206.544 175.985 207.917 175.701C209.147 175.464 210.331 174.849 211.372 174.091C212.982 174.943 214.876 175.133 216.627 174.659C217.858 174.328 218.9 173.618 219.752 172.718C219.894 172.955 220.178 173.097 220.509 173.002C221.456 172.766 222.308 172.387 223.066 171.866C224.438 172.529 226.048 172.198 227.231 171.251C228.131 170.493 228.699 169.452 229.03 168.316C229.078 168.363 229.172 168.41 229.22 168.458C230.877 169.452 232.912 169.215 234.664 169.925C235.516 170.257 235.895 168.884 235.043 168.552C233.575 167.937 231.871 168.079 230.403 167.464C228.888 166.801 228.32 164.955 227.942 163.487C227.184 160.599 227.61 157.096 230.309 155.392C230.64 155.392 230.924 155.344 231.255 155.344C231.918 155.344 232.392 155.486 232.912 155.865C234.001 156.717 234.853 157.948 235.705 159.037C236.605 160.22 237.504 161.404 238.215 162.682C238.83 164.15 238.641 165.523 238.356 167.085ZM191.584 206.567C191.631 206.898 191.631 207.277 191.442 207.561C191.253 207.845 191.016 208.034 190.684 208.129C190.116 208.271 189.548 208.082 189.122 207.703C188.933 207.514 188.744 207.277 188.696 207.04C188.602 206.756 188.649 206.472 188.744 206.188C188.744 206.141 188.791 206.094 188.791 206.046C188.933 205.715 189.264 205.478 189.596 205.431C189.738 205.383 189.88 205.383 190.022 205.383C190.164 205.383 190.353 205.431 190.495 205.478C190.779 205.573 191.016 205.715 191.205 205.904C191.347 206.046 191.537 206.33 191.584 206.567ZM213.597 178.447C215.728 181.382 215.964 185.5 214.213 188.72C213.787 189.524 212.556 188.814 212.982 188.009C214.497 185.216 214.213 181.76 212.367 179.204C211.846 178.399 213.077 177.689 213.597 178.447Z" fill="#DCDCDC"/>
<path d="M146.277 189.763C146.893 184.318 149.354 179.158 153.142 175.229C153.615 174.708 154.183 174.14 154.231 173.43C154.278 172.625 153.615 171.915 153.331 171.158C152.574 169.311 153.757 167.228 153.947 165.24C154.136 163.11 153.094 161.074 153.142 158.944C153.142 155.346 156.645 152.127 160.243 152.363L159.107 151.227C162.989 140.292 153.473 131.202 149.118 121.923C147.603 118.704 146.23 115.248 146.609 111.745C146.988 108.242 149.781 104.739 153.331 104.786C152.763 101.046 156.74 97.3536 160.432 98.2531C161.426 96.5962 162.468 94.7973 164.172 93.9452C165.876 93.093 168.433 93.5191 169.143 95.318C170.374 93.9451 171.936 92.667 173.782 92.667C175.534 92.667 177.096 93.8978 177.996 95.3654C178.895 96.8329 179.274 98.5845 179.652 100.289C182.54 98.3478 186.801 99.9574 188.695 102.892C190.588 105.828 190.636 109.568 190.067 113.023C189.452 116.716 188.221 120.314 186.422 123.58C184.434 127.131 181.404 130.587 180.268 134.516C178.942 138.966 180.599 144.032 181.925 148.292L181.783 147.251C183.913 150.564 184.955 154.541 184.718 158.423C184.671 159.086 184.623 159.843 184.907 160.459C185.239 161.169 185.996 161.595 186.564 162.163C187.132 162.731 187.511 163.678 186.943 164.293" fill="#111217"/>
<path d="M186.376 125.095C188.553 121.497 190.068 117.473 190.778 113.307C191.394 109.567 191.441 105.259 189.027 102.087C187.038 99.4834 183.299 97.9212 180.174 99.2467C179.559 96.643 178.612 93.8498 176.055 92.5716C173.783 91.3881 171.558 92.2403 169.759 93.7552C169.522 93.5185 169.144 93.5658 168.86 93.8026C167.771 92.8557 166.209 92.6191 164.741 92.9978C162.563 93.6132 161.191 95.6015 160.102 97.4478C160.054 97.4478 160.007 97.4951 159.96 97.4951C156.22 97.0691 152.716 100.288 152.574 103.981C152.48 104.028 152.385 104.075 152.29 104.123C152.243 104.123 152.243 104.17 152.196 104.17C149.355 104.691 147.13 107.153 146.278 109.898C145 113.828 146.562 118.088 148.219 121.639C151.107 127.935 155.794 133.285 158.113 139.818C159.439 143.463 159.676 147.297 158.397 150.99C158.303 151.321 158.397 151.558 158.634 151.747C156.551 152.126 154.657 153.452 153.521 155.251C152.811 156.34 152.385 157.665 152.385 158.943C152.385 160.648 153.001 162.304 153.19 163.961C153.332 165.571 152.764 166.991 152.48 168.553C152.338 169.263 152.29 169.926 152.432 170.636C152.574 171.441 153.048 172.057 153.379 172.814C153.663 173.477 153.332 173.95 152.906 174.471C152.385 175.039 151.864 175.607 151.344 176.175C150.35 177.359 149.45 178.637 148.693 180.01C146.988 183.04 145.947 186.353 145.568 189.762C145.473 190.661 146.894 190.661 146.988 189.762C147.32 186.874 148.219 183.986 149.545 181.43C150.207 180.152 151.012 178.874 151.912 177.737C152.338 177.217 152.764 176.696 153.237 176.175C153.711 175.654 154.326 175.134 154.657 174.471C154.989 173.903 155.036 173.24 154.799 172.577C154.61 171.962 154.137 171.441 153.9 170.778C153.379 169.358 154.137 167.796 154.421 166.376C154.752 164.861 154.563 163.393 154.231 161.878C153.947 160.458 153.569 159.038 153.947 157.618C154.657 154.919 157.356 152.884 160.149 153.026C160.386 153.026 160.528 152.978 160.622 152.836C164.788 153.688 169.096 153.736 173.262 152.931C175.251 152.552 177.286 152.032 179.133 151.227C180.221 150.753 181.263 150.043 181.926 149.096C183.062 151.369 183.772 153.83 183.914 156.387C183.961 157.144 183.961 157.854 183.914 158.612C183.867 159.417 183.867 160.221 184.293 160.932C184.624 161.5 185.097 161.878 185.618 162.257C185.902 162.494 186.754 163.251 186.376 163.725C185.808 164.435 186.802 165.429 187.37 164.719C188.411 163.393 187.465 161.973 186.376 161.074C185.713 160.553 185.287 160.079 185.287 159.18C185.287 158.281 185.381 157.428 185.334 156.529C185.192 153.073 184.103 149.712 182.257 146.824C182.21 146.729 182.115 146.635 182.02 146.587C180.931 143.037 179.843 139.297 180.553 135.604C181.5 131.722 184.293 128.456 186.376 125.095ZM175.677 93.9446C177.618 95.1281 178.328 97.4005 178.801 99.5308C178.375 99.5782 177.902 99.6728 177.523 99.7675C176.813 99.9095 176.055 100.194 175.44 100.572C174.067 101.472 173.546 103.034 173.878 104.644C174.351 107.105 176.529 108.668 178.896 109.236C178.801 109.425 178.801 109.662 178.896 109.851C178.849 109.898 178.801 109.993 178.754 110.088C178.659 110.466 178.517 110.845 178.422 111.224C178.375 111.413 178.328 111.603 178.233 111.792C178.186 111.934 178.186 112.076 178.091 112.171C177.949 112.313 177.665 112.36 177.476 112.407C177.192 112.455 176.908 112.502 176.623 112.502C175.582 112.549 174.588 112.265 173.736 111.745C173.736 111.603 173.783 111.508 173.783 111.366C173.878 109.425 173.215 107.484 173.026 105.543C172.836 103.649 172.6 101.756 172.126 99.8622C171.7 98.2053 171.132 96.5483 170.469 94.9861C171.889 93.7079 173.736 92.7611 175.677 93.9446ZM164.788 94.4653C165.972 93.9445 167.96 94.134 168.528 95.5069C168.67 95.8382 169.002 96.0749 169.333 96.0275C169.949 97.4951 170.422 99.01 170.801 100.572C171.274 102.608 171.463 104.644 171.7 106.679C171.889 108.336 172.505 110.04 172.315 111.697L172.268 111.745C172.174 111.934 172.126 112.123 172.221 112.265C172.221 112.313 172.174 112.407 172.174 112.455C171.984 113.165 171.558 113.875 170.801 114.159C170.09 114.443 169.333 114.348 168.86 113.733C168.718 113.544 168.528 113.496 168.339 113.496C167.771 109.662 166.445 105.827 164.646 102.419C163.794 100.809 162.895 99.0573 161.427 97.9212C162.279 96.5956 163.273 95.0807 164.788 94.4653ZM160.291 98.9626C160.338 98.9626 160.338 98.9626 160.386 98.9626C161.569 99.8148 162.327 101.14 163.037 102.419C163.889 103.981 164.646 105.59 165.262 107.247C165.877 108.952 166.351 110.703 166.729 112.455C167.013 113.733 167.392 115.343 166.871 116.668C166.54 117.52 165.783 117.71 164.93 117.662C164.078 117.615 163.273 117.473 162.469 117.236C162.327 116.053 161.758 114.774 161.427 113.78C160.575 111.366 159.628 108.81 158.35 106.585C157.451 105.022 155.794 103.555 153.995 103.602C154.326 100.714 157.451 98.2999 160.291 98.9626ZM181.121 148.008C180.553 149.144 179.322 149.806 178.186 150.233C176.387 150.943 174.493 151.416 172.6 151.747C168.718 152.41 164.741 152.316 160.906 151.511C160.622 151.463 160.433 151.558 160.291 151.7C160.102 151.7 159.912 151.7 159.723 151.7C159.77 151.653 159.818 151.558 159.865 151.463C160.67 149.191 160.906 146.824 160.717 144.504C160.812 144.599 161.001 144.694 161.19 144.694C167.487 144.883 173.83 143.274 179.227 140.007C179.464 142.705 180.316 145.404 181.121 148.008ZM179.369 135.226C179.133 136.267 179.085 137.309 179.085 138.397C173.736 141.759 167.439 143.463 161.143 143.226C160.859 143.226 160.67 143.368 160.575 143.51C160.48 142.895 160.386 142.279 160.244 141.664C159.439 138.445 157.924 135.462 156.267 132.622C154.563 129.687 152.669 126.894 151.06 123.958C149.261 120.645 147.367 116.857 147.367 113.023C147.367 109.614 149.592 105.496 153.427 105.496C153.758 105.496 153.995 105.306 154.089 105.022C155.415 104.928 156.646 106.253 157.261 107.389C158.255 109.188 159.06 111.177 159.77 113.118C160.149 114.159 160.48 115.153 160.812 116.195C160.954 116.621 161.143 117.189 161.19 117.662C161.19 117.71 161.19 117.757 161.19 117.804C161.19 118.136 161.096 118.42 160.812 118.656C159.581 119.698 157.451 118.704 156.362 117.899C154.563 116.573 153.474 114.443 152.48 112.502C152.054 111.697 150.823 112.407 151.249 113.212C151.675 114.064 152.101 114.869 152.622 115.674C152.527 115.721 152.432 115.721 152.29 115.769C152.101 115.816 151.912 115.863 151.722 115.863C151.58 115.911 151.533 115.911 151.296 115.911C150.539 115.958 149.876 115.958 149.213 115.769C148.835 115.674 148.409 115.863 148.361 116.242C148.266 116.621 148.456 117.047 148.835 117.094C150.349 117.425 151.959 117.331 153.427 116.81C153.995 117.615 154.705 118.325 155.462 118.94C157.025 120.124 159.486 121.023 161.332 119.935C161.901 119.603 162.232 119.13 162.421 118.609C164.031 119.082 166.066 119.366 167.345 118.372C168.292 117.615 168.576 116.431 168.576 115.248C169.522 115.816 170.801 115.769 171.747 115.248C172.552 114.774 173.12 114.017 173.404 113.165C174.493 113.733 175.724 113.97 176.955 113.875C177.665 113.828 178.612 113.686 179.133 113.07C179.464 112.691 179.559 112.265 179.701 111.792C179.748 111.603 179.843 111.366 179.89 111.177C180.837 112.218 182.115 112.928 183.535 113.212C183.914 113.26 184.34 113.118 184.387 112.739C184.482 112.407 184.293 111.934 183.914 111.887C183.725 111.839 183.488 111.792 183.299 111.745C183.204 111.697 183.109 111.697 183.014 111.65C182.967 111.65 182.873 111.603 182.825 111.603C182.446 111.413 182.068 111.224 181.689 110.987C181.642 110.94 181.642 110.94 181.594 110.893L181.547 110.845C181.452 110.798 181.405 110.703 181.31 110.656C181.168 110.514 181.026 110.372 180.884 110.23C180.837 110.135 180.742 110.088 180.695 109.993L180.647 109.946C180.6 109.898 180.6 109.898 180.553 109.851C180.458 109.756 180.411 109.662 180.363 109.52C180.6 109.52 180.837 109.567 181.073 109.52C183.204 109.472 185.239 108.668 187.038 107.673C187.843 107.247 187.133 106.016 186.328 106.442C183.441 108.052 179.417 109.094 176.671 106.632C175.582 105.685 174.73 103.933 175.582 102.513C175.961 101.898 176.576 101.566 177.239 101.377C177.618 101.235 177.996 101.188 178.375 101.093C178.754 101.046 179.133 100.904 179.464 100.998C179.653 101.093 179.843 101.046 179.985 100.998C180.032 100.998 180.079 100.951 180.127 100.951C182.73 99.2941 186.281 100.667 187.985 103.034C190.21 106.111 189.974 110.372 189.263 113.922C188.459 117.946 186.896 121.734 184.719 125.189C182.683 128.314 180.127 131.438 179.369 135.226ZM170.422 133.521C165.072 131.864 164.078 125 164.883 120.266C165.025 119.366 166.398 119.745 166.256 120.645C165.546 124.574 166.256 130.776 170.801 132.148C171.7 132.432 171.321 133.805 170.422 133.521Z" fill="#DCDCDC"/>
<path d="M77.0193 61.6575C76.4985 60.9 77.7293 60.1899 78.25 60.9474C82.3687 66.9123 87.1027 72.3564 92.4522 77.2325C93.115 77.8479 92.1209 78.8421 91.4581 78.2267C86.014 73.3033 81.1852 67.7171 77.0193 61.6575ZM225.574 52.9941C220.177 60.8527 215.112 68.9006 210.33 77.1378C208.957 79.5049 207.632 81.8719 206.306 84.2389C205.88 85.0437 207.111 85.7538 207.537 84.949C212.129 76.6171 217.053 68.4272 222.26 60.474C223.728 58.2016 225.243 55.9293 226.805 53.7042C227.326 52.9468 226.095 52.2367 225.574 52.9941ZM178.754 29.3238C176.624 32.4956 178.328 37.2297 181.879 38.5079C182.684 38.7919 183.015 37.6558 182.447 37.2297C179.654 35.194 175.346 36.6616 174.162 39.8334C173.831 40.6855 175.204 41.0643 175.535 40.2122C176.813 36.9457 174.636 32.8744 171.227 32.0696C171.18 32.543 171.085 33.0164 171.038 33.4424C173.878 33.7738 176.719 32.827 178.849 30.9334C179.512 30.3179 178.518 29.3238 177.855 29.9393C176.008 31.5962 173.499 32.3063 171.038 32.0222C170.233 31.9275 170.091 33.253 170.848 33.395C173.547 34.0578 175.156 37.1823 174.162 39.786C174.636 39.9281 175.062 40.0228 175.535 40.1648C176.434 37.7977 179.748 36.9456 181.737 38.4132C181.926 37.9871 182.115 37.5611 182.305 37.135C179.559 36.1882 178.423 32.4483 180.032 30.0339C180.506 29.2765 179.275 28.5664 178.754 29.3238ZM60.0713 94.7011C60.4974 95.5533 61.3022 96.0268 62.107 96.4528C62.8644 96.8789 63.4798 97.3522 63.8112 98.157C64.4266 99.5772 64.1425 101.376 62.959 102.418C63.3851 102.607 63.7638 102.749 64.1899 102.938C64.3319 101.424 66.0362 100.477 67.4091 100.429C69.3974 100.335 71.1963 101.471 72.8059 102.465C72.9952 102.039 73.1846 101.613 73.3739 101.187C71.6223 100.477 70.3916 98.6778 70.3916 96.7842C70.3916 94.8432 71.6224 93.139 73.3267 92.3815C74.0368 92.0501 73.6107 91.1033 72.9479 91.0559C71.7171 90.9613 70.723 91.7188 69.9182 92.5235C69.066 93.3283 68.3085 94.0384 67.2197 94.3698C65.1367 94.9852 62.8171 94.3225 61.4915 92.6182C60.9234 91.9081 59.9292 92.9023 60.4973 93.6124C62.0122 95.4587 64.5213 96.2634 66.8883 95.8847C68.0245 95.6953 69.1133 95.2219 69.9654 94.4644C70.8649 93.707 71.717 92.3815 73.0426 92.4762C72.9006 92.0501 72.8059 91.5767 72.6638 91.1506C70.4388 92.1448 68.9239 94.5118 69.0186 96.9735C69.1133 99.4826 70.7702 101.66 73.0426 102.56C73.8 102.844 74.2734 101.66 73.6106 101.282C71.575 100.051 69.3027 98.7252 66.841 99.1512C64.8527 99.4826 63.0537 100.903 62.8643 102.986C62.817 103.649 63.6692 103.838 64.0952 103.507C65.5628 102.228 65.9889 100.051 65.4208 98.2517C65.1368 97.3522 64.616 96.5475 63.8585 95.932C63.0538 95.3166 61.8703 95.0326 61.3969 94.0858C60.9235 93.139 59.6926 93.849 60.0713 94.7011ZM140.692 37.1823C140.456 45.1355 141.071 53.0888 142.539 60.9C142.728 61.7995 144.053 61.4207 143.911 60.5212C142.491 52.8047 141.876 44.9935 142.113 37.1823C142.16 36.2828 140.74 36.2828 140.692 37.1823ZM224.911 105.732C225.621 106.394 226.758 106.205 227.373 105.495C227.704 105.069 227.894 104.595 227.894 104.027C227.894 103.507 227.752 102.986 227.61 102.512C227.515 102.181 227.231 101.992 226.947 101.992C226.142 101.944 225.337 101.944 224.58 101.897C224.201 101.897 223.87 102.228 223.87 102.607C223.87 102.986 224.201 103.317 224.58 103.317C225.385 103.365 226.19 103.365 226.947 103.412C226.71 103.223 226.473 103.08 226.284 102.891C226.331 103.08 226.379 103.27 226.426 103.459C226.426 103.554 226.474 103.649 226.474 103.743V103.791C226.474 103.696 226.474 103.649 226.474 103.696C226.474 103.743 226.474 103.791 226.474 103.838C226.474 103.933 226.474 104.027 226.474 104.122V104.169C226.474 104.264 226.474 104.217 226.474 104.122C226.474 104.122 226.474 104.217 226.426 104.264C226.426 104.311 226.426 104.359 226.379 104.406V104.453C226.332 104.548 226.379 104.501 226.426 104.406C226.379 104.453 226.379 104.501 226.332 104.548C226.426 104.406 226.426 104.453 226.379 104.501C226.379 104.548 226.332 104.548 226.332 104.548C226.332 104.548 226.284 104.595 226.237 104.595C226.379 104.453 226.331 104.501 226.284 104.548C226.237 104.595 226.189 104.595 226.095 104.643C226 104.69 226.237 104.595 226.142 104.643C226.095 104.643 226.095 104.643 226.047 104.69C226 104.69 226 104.69 225.953 104.69C225.811 104.737 226.142 104.69 226 104.69C225.953 104.69 225.953 104.69 225.906 104.69C225.763 104.69 225.953 104.69 226 104.69C226 104.69 225.906 104.69 225.906 104.643C225.763 104.595 226 104.69 225.953 104.69C225.953 104.69 225.905 104.643 225.858 104.643C225.811 104.643 226 104.785 225.906 104.643C225.621 104.359 225.148 104.359 224.911 104.643C224.675 105.021 224.627 105.495 224.911 105.732ZM131.461 54.4144C132.455 57.6809 133.449 60.9947 134.443 64.2612C134.727 65.1134 136.1 64.7819 135.816 63.8825C134.822 60.616 133.828 57.3021 132.834 54.0356C132.597 53.1835 131.224 53.5622 131.461 54.4144ZM90.4166 69.1372C91.7421 70.4627 93.0203 71.741 94.3459 73.0665C94.6299 73.3506 95.1034 73.3506 95.3401 73.0665C95.5768 72.7825 95.6241 72.3565 95.3401 72.0724C94.0145 70.7469 92.7363 69.4687 91.4108 68.1431C91.1267 67.8591 90.6533 67.8591 90.4166 68.1431C90.1799 68.3798 90.1325 68.8532 90.4166 69.1372ZM208.153 66.2968C206.591 68.6638 205.076 71.0308 203.513 73.3979C202.993 74.1553 204.223 74.8654 204.744 74.108C206.306 71.7409 207.821 69.3739 209.384 67.0069C209.904 66.2494 208.674 65.492 208.153 66.2968Z" fill="#DCDCDC"/>
</svg>
