<svg width="20" height="20" viewBox="0 0 20 20" fill="none" xmlns="http://www.w3.org/2000/svg">
<path opacity="0.1" d="M7.35055 9.39603H3.21083C2.66469 9.3852 2.14458 9.1606 1.76221 8.77049C1.37984 8.38038 1.16571 7.85587 1.16582 7.30962V3.16991C1.17451 2.62232 1.39816 2.1001 1.7885 1.71596C2.17884 1.33181 2.70457 1.11654 3.25223 1.11661H7.39194C7.94529 1.11661 8.47598 1.33643 8.86726 1.72771C9.25854 2.11899 9.47836 2.64968 9.47836 3.20303V7.34274C9.47405 7.61745 9.41553 7.88861 9.30615 8.14064C9.19678 8.39268 9.0387 8.62063 8.84099 8.81141C8.64329 9.00219 8.40985 9.15205 8.15408 9.25237C7.8983 9.3527 7.62524 9.40152 7.35055 9.39603ZM16.8388 9.39603H12.6991C12.1457 9.39603 11.615 9.17622 11.2237 8.78494C10.8325 8.39366 10.6126 7.86297 10.6126 7.30962V3.16991C10.6126 2.61656 10.8325 2.08587 11.2237 1.69459C11.615 1.30331 12.1457 1.0835 12.6991 1.0835H16.8388C17.3921 1.0835 17.9228 1.30331 18.3141 1.69459C18.7054 2.08587 18.9252 2.61656 18.9252 3.16991V7.30962C18.9253 7.85587 18.7112 8.38038 18.3288 8.77049C17.9464 9.1606 17.4263 9.3852 16.8802 9.39603H16.8388ZM16.7891 18.9174H12.7736C12.2202 18.9174 11.6895 18.6976 11.2982 18.3063C10.907 17.915 10.6872 17.3843 10.6872 16.831V12.6912C10.6872 12.1379 10.907 11.6072 11.2982 11.2159C11.6895 10.8246 12.2202 10.6048 12.7736 10.6048H16.8719C17.4252 10.6048 17.9559 10.8246 18.3472 11.2159C18.7385 11.6072 18.9583 12.1379 18.9583 12.6912V16.831C18.9583 17.3843 18.7385 17.915 18.3472 18.3063C17.9559 18.6976 17.4252 18.9174 16.8719 18.9174H16.7891ZM7.26775 18.9174H3.12804C2.57469 18.9174 2.044 18.6976 1.65272 18.3063C1.26144 17.915 1.04163 17.3843 1.04163 16.831V12.6912C1.04163 12.1379 1.26144 11.6072 1.65272 11.2159C2.044 10.8246 2.57469 10.6048 3.12804 10.6048H7.26775C7.8211 10.6048 8.35179 10.8246 8.74307 11.2159C9.13435 11.6072 9.35416 12.1379 9.35416 12.6912V16.831C9.35459 17.3703 9.14617 17.8888 8.77263 18.2778C8.39908 18.6667 7.88942 18.896 7.35055 18.9174H7.26775Z" fill="#99A1B7"/>
<path d="M7.35055 9.39604H3.21083C2.66469 9.3852 2.14458 9.1606 1.76221 8.77049C1.37984 8.38038 1.16571 7.85587 1.16582 7.30962V3.16991C1.17451 2.62232 1.39816 2.1001 1.7885 1.71596C2.17884 1.33181 2.70457 1.11654 3.25223 1.11661H7.39194C7.94529 1.11661 8.47598 1.33643 8.86726 1.72771C9.25854 2.11899 9.47836 2.64968 9.47836 3.20303V7.34274C9.47405 7.61745 9.41553 7.88861 9.30615 8.14064C9.19678 8.39268 9.0387 8.62063 8.84099 8.81141C8.64329 9.00219 8.40985 9.15205 8.15408 9.25237C7.8983 9.3527 7.62524 9.40152 7.35055 9.39604V9.39604ZM3.21083 2.35853C2.99125 2.35853 2.78066 2.44576 2.62539 2.60103C2.47012 2.75629 2.38289 2.96689 2.38289 3.18647V7.32618C2.38289 7.54576 2.47012 7.75635 2.62539 7.91162C2.78066 8.06689 2.99125 8.15412 3.21083 8.15412H7.35055C7.57013 8.15412 7.78072 8.06689 7.93599 7.91162C8.09126 7.75635 8.17849 7.54576 8.17849 7.32618V3.18647C8.17849 2.96689 8.09126 2.75629 7.93599 2.60103C7.78072 2.44576 7.57013 2.35853 7.35055 2.35853H3.21083ZM16.8388 9.39604H12.6991C12.1457 9.39604 11.615 9.17622 11.2237 8.78494C10.8325 8.39366 10.6126 7.86297 10.6126 7.30962V3.16991C10.6126 2.61656 10.8325 2.08587 11.2237 1.69459C11.615 1.30331 12.1457 1.0835 12.6991 1.0835H16.8388C17.3921 1.0835 17.9228 1.30331 18.3141 1.69459C18.7054 2.08587 18.9252 2.61656 18.9252 3.16991V7.30962C18.9253 7.85587 18.7112 8.38038 18.3288 8.77049C17.9464 9.1606 17.4263 9.3852 16.8802 9.39604H16.8388ZM12.6991 2.35853C12.4795 2.35853 12.2689 2.44576 12.1136 2.60103C11.9583 2.75629 11.8711 2.96689 11.8711 3.18647V7.32618C11.8711 7.54576 11.9583 7.75635 12.1136 7.91162C12.2689 8.06689 12.4795 8.15412 12.6991 8.15412H16.8388C17.0583 8.15412 17.2689 8.06689 17.4242 7.91162C17.5795 7.75635 17.6667 7.54576 17.6667 7.32618V3.18647C17.6667 2.96689 17.5795 2.75629 17.4242 2.60103C17.2689 2.44576 17.0583 2.35853 16.8388 2.35853H12.6991ZM16.7891 18.9174H12.7736C12.2202 18.9174 11.6895 18.6976 11.2982 18.3063C10.907 17.915 10.6872 17.3843 10.6872 16.831V12.6912C10.6872 12.1379 10.907 11.6072 11.2982 11.2159C11.6895 10.8246 12.2202 10.6048 12.7736 10.6048H16.8719C17.4252 10.6048 17.9559 10.8246 18.3472 11.2159C18.7385 11.6072 18.9583 12.1379 18.9583 12.6912V16.831C18.9583 17.3843 18.7385 17.915 18.3472 18.3063C17.9559 18.6976 17.4252 18.9174 16.8719 18.9174H16.7891ZM12.6908 11.8799C12.4712 11.8799 12.2606 11.9671 12.1053 12.1224C11.9501 12.2776 11.8628 12.4882 11.8628 12.7078V16.8475C11.8628 17.0671 11.9501 17.2777 12.1053 17.433C12.2606 17.5882 12.4712 17.6755 12.6908 17.6755H16.7891C17.0087 17.6755 17.2193 17.5882 17.3745 17.433C17.5298 17.2777 17.617 17.0671 17.617 16.8475V12.7078C17.617 12.4882 17.5298 12.2776 17.3745 12.1224C17.2193 11.9671 17.0087 11.8799 16.7891 11.8799H12.6908ZM7.26775 18.9174H3.12804C2.57469 18.9174 2.044 18.6976 1.65272 18.3063C1.26144 17.915 1.04163 17.3843 1.04163 16.831V12.6912C1.04163 12.1379 1.26144 11.6072 1.65272 11.2159C2.044 10.8246 2.57469 10.6048 3.12804 10.6048H7.26775C7.8211 10.6048 8.35179 10.8246 8.74307 11.2159C9.13435 11.6072 9.35417 12.1379 9.35417 12.6912V16.831C9.35459 17.3703 9.14617 17.8888 8.77263 18.2778C8.39908 18.6667 7.88942 18.896 7.35055 18.9174H7.26775ZM3.12804 11.8799C2.90846 11.8799 2.69787 11.9671 2.5426 12.1224C2.38733 12.2776 2.3001 12.4882 2.3001 12.7078V16.8475C2.3001 17.0671 2.38733 17.2777 2.5426 17.433C2.69787 17.5882 2.90846 17.6755 3.12804 17.6755H7.26775C7.48734 17.6755 7.69792 17.5882 7.85319 17.433C8.00846 17.2777 8.09569 17.0671 8.09569 16.8475V12.7078C8.09569 12.4882 8.00846 12.2776 7.85319 12.1224C7.69792 11.9671 7.48734 11.8799 7.26775 11.8799H3.12804Z" fill="#99A1B7"/>
</svg>
