<svg width="24" height="25" viewBox="0 0 24 25" fill="none" xmlns="http://www.w3.org/2000/svg">
<path d="M6.63197 1.64063H13.993L20.2241 8.14158V20.7787C20.2241 22.3594 18.9428 23.6406 17.3621 23.6406H6.63197C5.05121 23.6406 3.77002 22.3594 3.77002 20.7787V4.50257C3.77002 2.92184 5.05121 1.64063 6.63197 1.64063Z" fill="#0263D1"/>
<path opacity="0.302" fill-rule="evenodd" clip-rule="evenodd" d="M13.9841 1.64062V8.08818H20.2241L13.9841 1.64062Z" fill="white"/>
<path d="M6.42737 17.3388V13.6968H7.71748C7.97549 13.6968 8.21574 13.7354 8.43817 13.8065C8.6606 13.8807 8.86227 13.9874 9.0432 14.1298C9.2241 14.2722 9.36648 14.462 9.47027 14.6992C9.57407 14.9365 9.62746 15.2093 9.62746 15.5178C9.62746 15.8262 9.57407 16.0991 9.47027 16.3363C9.36648 16.5736 9.2241 16.7634 9.0432 16.9057C8.8623 17.0481 8.6606 17.1549 8.43817 17.229C8.21574 17.3002 7.97552 17.3388 7.71748 17.3388H6.42737ZM7.33786 16.5469H7.60774C7.75306 16.5469 7.88949 16.5291 8.01107 16.4965C8.13563 16.4609 8.24832 16.4046 8.35509 16.3304C8.46185 16.2562 8.54488 16.1495 8.6042 16.0101C8.6665 15.8737 8.69613 15.7076 8.69613 15.5178C8.69613 15.328 8.66647 15.1619 8.6042 15.0225C8.54488 14.8861 8.46185 14.7793 8.35509 14.7052C8.24832 14.6281 8.13563 14.5747 8.01107 14.5391C7.88949 14.5064 7.75306 14.4887 7.60774 14.4887H7.33786V16.5469ZM11.8369 17.3803C11.2883 17.3803 10.8345 17.2023 10.4757 16.8494C10.1168 16.4965 9.93884 16.0516 9.93884 15.5178C9.93884 14.984 10.1168 14.5391 10.4757 14.1862C10.8345 13.8333 11.2883 13.6553 11.8369 13.6553C12.3767 13.6553 12.8245 13.8333 13.1834 14.1862C13.5393 14.5391 13.7172 14.984 13.7172 15.5178C13.7172 16.0516 13.5393 16.4965 13.1834 16.8494C12.8245 17.2023 12.3767 17.3803 11.8369 17.3803ZM11.137 16.2859C11.3179 16.4876 11.5492 16.5884 11.831 16.5884C12.1127 16.5884 12.3411 16.4876 12.522 16.2859C12.7029 16.0813 12.7919 15.8262 12.7919 15.5178C12.7919 15.2093 12.7029 14.9543 12.522 14.7496C12.3411 14.548 12.1127 14.4471 11.831 14.4471C11.5492 14.4471 11.3179 14.548 11.137 14.7496C10.9561 14.9543 10.8641 15.2093 10.8641 15.5178C10.8641 15.8262 10.9561 16.0813 11.137 16.2859ZM15.8822 17.3803C15.3514 17.3803 14.9094 17.2142 14.5595 16.888C14.2066 16.5588 14.0316 16.102 14.0316 15.5178C14.0316 14.9365 14.2096 14.4798 14.5655 14.1506C14.9243 13.8214 15.3603 13.6553 15.8822 13.6553C16.3538 13.6553 16.7393 13.7709 17.0448 14.0052C17.3473 14.2366 17.5223 14.545 17.5668 14.9305L16.6474 15.1174C16.6089 14.9157 16.5169 14.7526 16.3746 14.631C16.2322 14.5094 16.0661 14.4471 15.8763 14.4471C15.6153 14.4471 15.3988 14.5391 15.2238 14.7259C15.0488 14.9157 14.9599 15.1767 14.9599 15.5178C14.9599 15.8588 15.0488 16.1198 15.2208 16.3067C15.3958 16.4965 15.6123 16.5884 15.8763 16.5884C16.0661 16.5884 16.2292 16.535 16.3627 16.4283C16.4961 16.3215 16.5792 16.1792 16.6148 16.0012L17.5549 16.2147C17.4689 16.5825 17.2791 16.8672 16.9825 17.0718C16.6889 17.2765 16.3212 17.3803 15.8822 17.3803Z" fill="white"/>
</svg>
