<svg width="50" height="51" viewBox="0 0 50 51" fill="none" xmlns="http://www.w3.org/2000/svg">
<path fill-rule="evenodd" clip-rule="evenodd" d="M10.8087 2.72363H39.1966C44.0123 2.72363 47.9149 6.62643 47.9149 11.4463V39.8343C47.9149 44.65 44.0123 48.557 39.1922 48.557H10.8087C5.98855 48.5526 2.08594 44.65 2.08594 39.8299V11.4463C2.08594 6.62624 5.98873 2.72363 10.8087 2.72363Z" fill="#50C800"/>
<path fill-rule="evenodd" clip-rule="evenodd" d="M47.9166 32.3288V19.0725C47.3996 17.8153 46.6409 16.6718 45.6834 15.7068C45.7685 14.2836 45.4506 12.8425 44.7122 11.558C44.2288 10.7166 43.0607 10.5958 42.4074 11.3208L40.926 12.9633C40.917 12.9589 40.9081 12.9589 40.8991 12.9545C41.0916 11.455 40.8364 9.90672 40.1024 8.52379C39.6459 7.66441 38.6569 7.51225 37.9767 8.21032L30.8605 15.4205C30.78 15.4966 30.695 15.577 30.6145 15.6577C30.6099 15.6621 30.6009 15.6665 30.5965 15.6711C27.504 18.4727 22.6839 18.5891 19.7389 16.0157C19.5544 15.814 19.3618 15.6199 19.1615 15.4339L12.0323 8.2149C11.3519 7.51665 10.3629 7.66899 9.90643 8.52837C9.17684 9.90672 8.91726 11.4462 9.10534 12.9366C9.09178 12.941 9.0784 12.941 9.06501 12.9455L7.60142 11.3208C6.94809 10.5958 5.78 10.7166 5.29219 11.558C4.56718 12.8156 4.24931 14.2255 4.3164 15.6218C3.37356 16.5524 2.61578 17.6534 2.08325 18.8665V32.5391C3.69001 36.2046 7.35083 38.7691 11.6071 38.7691H12.0635C16.284 38.7691 19.918 36.2494 21.5426 32.6331C23.1046 32.6241 24.2368 32.6197 24.9396 32.6197C26.4611 32.6153 27.6472 32.6153 28.4976 32.6153C30.1177 36.2404 33.7608 38.7691 37.9855 38.7691H38.3077C42.6446 38.7691 46.3591 36.106 47.9166 32.3288Z" fill="#8EE000"/>
<path fill-rule="evenodd" clip-rule="evenodd" d="M12.2516 16.3291C16.2436 16.3291 19.4839 19.5646 19.4839 23.5615V27.8444C19.4839 31.8365 16.248 35.0768 12.2516 35.0768C8.25933 35.0768 5.01904 31.8411 5.01904 27.8444V23.5615C5.01904 19.5648 8.25933 16.3291 12.2516 16.3291ZM37.659 16.3291C41.651 16.3291 44.8913 19.5646 44.8913 23.5615V27.8444C44.8913 31.8365 41.6554 35.0768 37.659 35.0768C33.6667 35.0768 30.4264 31.8411 30.4264 27.8444V23.5615C30.4264 19.5648 33.6623 16.3291 37.659 16.3291Z" fill="white"/>
<path fill-rule="evenodd" clip-rule="evenodd" d="M13.3659 20.4824C15.259 20.4824 16.7985 22.0175 16.7985 23.9152V27.5806C16.7985 29.4737 15.2634 31.0132 13.3659 31.0132C11.4728 31.0132 9.93311 29.4781 9.93311 27.5806V23.9152C9.93311 22.0175 11.4728 20.4824 13.3659 20.4824Z" fill="#4B4B4B"/>
<path fill-rule="evenodd" clip-rule="evenodd" d="M25.0026 28.8032C27.173 28.8032 28.9319 30.5621 28.9319 32.7326V34.0977C28.9319 36.2684 27.173 38.0271 25.0026 38.0271C22.8319 38.0271 21.073 36.2684 21.073 34.0977V32.7326C21.073 30.5621 22.8319 28.8032 25.0026 28.8032Z" fill="#F48000"/>
<path d="M19.5781 33.1083C20.048 30.6022 22.3708 28.7939 25.15 28.7939C27.6787 28.7939 29.9657 30.6469 30.4266 33.1083V33.3097C30.4266 33.4665 30.3729 33.529 30.2297 33.5112L25.1546 34.4151H24.8547L19.775 33.5066C19.6318 33.5246 19.5781 33.4619 19.5781 33.3053V33.1083Z" fill="#FFC200"/>
<path fill-rule="evenodd" clip-rule="evenodd" d="M24.17 29.6624C24.4353 29.5984 24.7072 29.5653 24.9801 29.564C25.271 29.564 25.5665 29.5999 25.8575 29.676C26.1443 29.7498 26.3985 29.917 26.5799 30.1511C26.7614 30.3852 26.8598 30.6731 26.8598 30.9693C26.8599 31.0857 26.8371 31.2009 26.7926 31.3085C26.7481 31.416 26.6828 31.5138 26.6005 31.5961C26.5182 31.6784 26.4205 31.7437 26.3129 31.7882C26.2054 31.8327 26.0901 31.8555 25.9737 31.8554H24.0314C23.9151 31.8555 23.7998 31.8327 23.6922 31.7882C23.5847 31.7437 23.4869 31.6784 23.4046 31.5961C23.3223 31.5138 23.2571 31.416 23.2126 31.3085C23.1681 31.2009 23.1452 31.0857 23.1453 30.9693C23.1407 30.3517 23.566 29.8102 24.17 29.6624Z" fill="#FFE747"/>
<path fill-rule="evenodd" clip-rule="evenodd" d="M36.5444 20.4819C38.4377 20.4819 39.9772 22.017 39.9772 23.9147V27.5801C39.9772 29.4732 38.4421 31.0127 36.5444 31.0127C34.6513 31.0127 33.1118 29.4776 33.1118 27.5801V23.9147C33.1162 22.017 34.6513 20.4819 36.5444 20.4819Z" fill="#4B4B4B"/>
<path d="M10.4659 24.6442C11.6895 24.6442 12.6812 23.6563 12.6812 22.4378C12.6812 21.2193 11.6895 20.2314 10.4659 20.2314C9.24241 20.2314 8.25049 21.2193 8.25049 22.4378C8.25049 23.6563 9.24241 24.6442 10.4659 24.6442ZM33.3088 24.6442C34.5323 24.6442 35.5242 23.6563 35.5242 22.4378C35.5242 21.2193 34.5323 20.2314 33.3088 20.2314C32.0852 20.2314 31.0935 21.2193 31.0935 22.4378C31.0935 23.6563 32.0852 24.6442 33.3088 24.6442Z" fill="white"/>
</svg>
