<svg width="32" height="33" viewBox="0 0 32 33" fill="none" xmlns="http://www.w3.org/2000/svg">
<path d="M15.9999 31.4552C24.1001 31.4552 30.6666 24.8887 30.6666 16.7885C30.6666 8.68832 24.1001 2.12183 15.9999 2.12183C7.89974 2.12183 1.33325 8.68832 1.33325 16.7885C1.33325 24.8887 7.89974 31.4552 15.9999 31.4552Z" fill="#F68922"/>
<path d="M15.6263 10.8342C15.6263 10.8342 11.1422 11.4881 10.4883 16.4393C10.4883 16.4393 9.79516 21.9818 15.4965 23.4774C15.8914 23.5807 16.298 23.6328 16.7062 23.6325H16.9865C17.274 23.6324 17.5587 23.6889 17.8244 23.7988C18.0901 23.9088 18.3315 24.07 18.5348 24.2733C18.7382 24.4765 18.8995 24.7178 19.0095 24.9835C19.1196 25.2491 19.1762 25.5338 19.1762 25.8213C19.1785 26.373 18.9715 26.905 18.5971 27.3101C18.2226 27.7152 17.7085 27.9634 17.1584 28.0045C14.3558 28.1913 10.5939 26.8255 8.15286 23.5391C8.15286 23.5391 3.37265 16.7111 8.58259 10.4381C9.81487 8.94459 11.4179 7.80098 13.2311 7.12176C15.3722 6.32584 18.5083 5.81391 21.2314 7.93824C21.2314 7.93824 24.8747 10.7408 23.0064 15.3183C23.0064 15.3183 21.6985 18.9616 17.2144 19.2418L16.5913 19.2073C16.2967 19.1999 16.0071 19.1295 15.742 19.0009C15.4768 18.8722 15.2423 18.6883 15.0542 18.4615C14.866 18.2347 14.7286 17.9702 14.6512 17.6858C14.5738 17.4015 14.5581 17.1039 14.6053 16.813C14.6823 16.3398 14.9216 15.9081 15.2821 15.5921C15.6426 15.2761 16.1019 15.0954 16.5811 15.081L17.2144 15.038C17.2144 15.038 19.3631 14.9446 19.1762 12.4223C19.1762 12.4223 18.9894 10.1803 15.6263 10.8342Z" fill="#2A2460"/>
</svg>
