<svg width="200" height="201" viewBox="0 0 200 201" fill="none" xmlns="http://www.w3.org/2000/svg">
<g clip-path="url(#clip0_27158_221723)">
<rect width="200" height="200" transform="translate(0 0.5)" fill="white"/>
<rect width="200" height="200" transform="translate(0 0.5)" fill="white"/>
<path d="M95.5241 135.401C90.4374 133.788 85.048 131.971 81.7135 127.806C78.8691 124.251 77.9912 119.552 77.3142 115.047C76.8968 112.28 76.518 109.507 76.1777 106.728C75.5891 101.883 75.1264 96.9291 76.1335 92.1521C77.1406 87.375 79.8388 82.7341 84.1769 80.4952C89.1513 77.9332 95.4697 78.8382 100.199 75.8577C105.983 72.2205 107.12 64.5071 109.726 58.2091C111.677 53.6093 114.618 49.4965 118.34 46.1636C122.062 42.8307 126.474 40.36 131.26 38.9274C143.924 35.2391 158.48 39.8052 167.143 49.7404C169.881 52.8775 172.127 56.6474 172.498 60.7916C173.543 72.4484 160.123 81.026 159.361 92.6999C158.851 100.526 164.213 107.807 163.869 115.639C163.662 120.341 161.355 124.782 158.157 128.228C154.958 131.675 150.913 134.24 146.735 136.411C133.899 143.067 119.591 146.374 105.136 146.027" fill="#F4F6F9"/>
<path d="M172.739 115.527L172.43 115.387C172.369 109.389 172.43 103.748 172.77 97.0142L172.804 96.8815C173.722 97.319 174.749 97.4738 175.755 97.3263C176.761 97.1787 177.7 96.7354 178.454 96.0528C179.207 95.3701 179.74 94.4788 179.986 93.4923C180.232 92.5057 180.179 91.4684 179.834 90.5121C179.466 89.5663 178.838 88.7438 178.023 88.1394C177.208 87.5349 176.238 87.1733 175.227 87.096L178.473 73.8672L170.419 70.805C167.908 70.3287 165.213 71.016 162.91 72.1218C155.952 75.4562 149.082 78.9607 142.92 81.8868C142.92 81.8868 148.704 86.817 151.59 89.2191C151.59 89.2191 146.806 98.2731 144.247 102.829C135.489 106.048 127.436 111.029 120.253 116.99C116.34 120.236 112.563 123.945 110.726 128.684C110.029 130.504 109.691 132.442 109.733 134.39C108.61 133.805 107.451 133.292 106.262 132.856C101.965 131.219 97.1946 129.814 94.4692 126.109C93.2307 124.428 92.0228 122.084 89.9371 122.233C88.4196 122.345 87.5112 123.73 86.6776 125.095C85.8642 124.07 85.137 122.98 84.5034 121.835C86.0481 121.961 87.4908 121.076 88.6918 120.096C90.7333 118.426 92.54 116.224 92.9041 113.611C93.2681 110.998 91.754 108.008 89.1614 107.456C88.8934 107.388 88.6127 107.388 88.3448 107.456C87.5758 107.681 87.324 108.678 87.4806 109.464C87.6371 110.25 88.0454 110.981 88.0794 111.781C88.1577 113.594 86.1434 114.955 84.3367 114.809C82.53 114.663 80.9819 113.448 79.7025 112.165C78.1714 110.617 76.7764 108.681 76.8309 106.507C76.8188 106.073 76.9373 105.645 77.1711 105.279C78.6001 103.302 82.53 106.875 83.9182 104.87C84.5 104.03 83.993 102.863 83.333 102.08C81.9612 100.459 80.0252 99.4197 77.9162 99.1713C76.8615 99.0523 75.6706 99.1918 74.9697 99.9845C74.4287 100.594 74.2892 101.458 74.2382 102.271C74.1055 104.232 74.2893 106.201 74.7826 108.103C73.4835 104.185 71.6774 100.453 69.4101 97.004C68.9916 96.3745 68.4574 95.6906 67.7089 95.643C66.8651 95.5852 66.1676 96.4051 66.0519 97.2421C65.9362 98.0791 66.2492 98.9128 66.569 99.6953C67.8782 102.915 69.4143 106.037 71.1658 109.038L66.8991 102.016C66.4772 101.335 65.8783 100.536 65.0618 100.655C63.8641 100.825 63.8981 102.57 64.2928 103.717C64.9529 105.629 65.6878 107.515 66.4976 109.375L64.4561 104.952C64.2248 104.445 63.8981 103.874 63.3435 103.812C62.6188 103.737 62.1629 104.595 62.088 105.32C61.8941 107.222 62.8195 109.042 63.728 110.723C67.3709 117.485 71.1669 124.161 75.116 130.753C71.5537 132.26 73.9013 138.021 75.9292 140.297C78.4198 143.094 81.8733 144.863 84.4932 147.537C87.2662 150.365 88.9708 154.053 91.3321 157.234C96.4597 164.138 101.482 172.389 110.083 172.545C110.083 172.545 119.95 155.193 140.365 154.512C160.78 153.832 158.398 142.263 167.585 136.139C176.771 130.015 185.863 135.435 185.863 135.435C183.511 127.667 178.952 120.75 172.739 115.527Z" fill="white"/>
<path d="M20.4147 119.178L27.0223 114.013L27.0733 114.084C28.7428 116.416 30.7843 116.712 33.1977 114.972C33.3883 114.836 33.589 114.673 33.8102 114.482C36.5049 112.23 37.5257 109.785 36.8724 107.147C35.8517 105.673 35.2052 104.748 34.933 104.37C33.7737 102.681 32.2175 101.303 30.4009 100.355C28.5863 99.4481 27.0756 99.4277 25.8688 100.294L25.4435 100.597C24.2096 101.804 22.8486 104.308 21.3606 108.11L14.8959 109.532L1.96655 89.3212L19.1252 74.5103L24.3649 80.8491L12.1161 90.1582L17.9003 100.757C20.0642 96.6739 22.0524 93.9837 23.8648 92.6863C24.2275 92.4239 24.6395 92.2375 25.0761 92.1385C27.7413 90.8364 30.199 90.7128 32.4492 91.7676C35.0986 92.9312 37.5449 95.077 39.7883 98.205C40.6422 99.389 41.4283 100.62 42.1428 101.893C46.1713 107.909 45.3082 113.709 39.5535 119.293C38.8885 119.94 38.1779 120.538 37.427 121.083C32.2258 124.81 26.555 124.175 20.4147 119.178ZM63.8947 53.0272C64.3426 56.0518 64.5225 59.11 64.4323 62.1662C64.3394 65.2698 63.937 68.3563 63.2313 71.3801C61.8907 77.2459 59.7846 81.1474 56.9129 83.0845C54.2567 84.9568 51.0814 85.9513 47.8317 85.929L47.3111 85.912C44.5571 85.8653 41.8355 85.3081 39.2847 84.2686C36.7397 83.2342 34.933 80.3682 33.8646 75.6705C33.2442 72.8545 32.9835 69.9712 33.0889 67.0896C33.168 64.8527 33.4125 62.6249 33.8204 60.4241C34.8615 54.9575 35.9617 50.836 37.1208 48.0596C38.2799 45.2832 42.4842 42.3174 49.7337 39.1622C52.6676 39.3895 55.533 40.1638 58.182 41.4452C61.09 42.7971 62.9942 46.6578 63.8947 53.0272ZM52.3264 47.9235C45.9048 49.4886 42.3458 52.1573 41.6494 55.9295C41.2959 57.9169 41.0878 59.9274 41.0268 61.945C40.9657 63.905 41.0351 65.8669 41.2343 67.8177C41.6268 71.9415 42.3073 74.7859 43.2758 76.351C43.9359 77.4852 46.262 78.109 50.2543 78.2224C50.7783 78.2248 51.2976 78.123 51.782 77.923C53.5966 77.3423 55.1527 74.8279 56.4501 70.3797C57.2182 67.8987 57.6642 65.3292 57.7771 62.7344C57.8279 61.2909 57.7276 59.8461 57.4777 58.4235C56.8607 54.8441 55.1436 51.3464 52.3264 47.9303V47.9235Z" fill="#9ED5F0"/>
<path d="M97.7978 76.848L87.464 74.9122C86.3465 74.7028 85.271 75.439 85.0617 76.5565L84.5768 79.1449C84.3674 80.2624 85.1036 81.3379 86.2211 81.5472L96.5549 83.483C97.6723 83.6924 98.7479 82.9562 98.9572 81.8388L99.4421 79.2503C99.6514 78.1328 98.9153 77.0573 97.7978 76.848Z" fill="white"/>
<path d="M97.9908 75.8441L87.6575 73.9081C87.4689 73.8731 87.2776 73.8549 87.0859 73.8536C86.3676 73.8541 85.6721 74.1058 85.1197 74.5649C84.5673 75.0241 84.1928 75.6619 84.0611 76.368L83.5779 78.9573C83.5012 79.355 83.5042 79.7639 83.5866 80.1604C83.669 80.5569 83.8292 80.9331 84.058 81.2673C84.2868 81.6014 84.5796 81.8869 84.9194 82.1071C85.2593 82.3274 85.6394 82.478 86.0379 82.5503L96.3712 84.4863C96.5587 84.5203 96.7488 84.5374 96.9394 84.5373C97.6581 84.5403 98.3549 84.2904 98.9079 83.8313C99.4609 83.3722 99.8348 82.7333 99.9642 82.0263L100.451 79.4371C100.599 78.6346 100.424 77.8061 99.9625 77.1327C99.5015 76.4594 98.7925 75.996 97.9908 75.8441ZM99.447 79.2465L98.9605 81.8358C98.8761 82.3103 98.6266 82.7397 98.2561 83.048C97.8856 83.3562 97.418 83.5234 96.936 83.52C96.8082 83.5203 96.6806 83.509 96.5549 83.486L86.2217 81.55C85.955 81.5022 85.7005 81.4019 85.4731 81.2548C85.2456 81.1077 85.0497 80.9168 84.8967 80.6932C84.7438 80.4696 84.6368 80.2179 84.5822 79.9525C84.5275 79.6872 84.5262 79.4137 84.5783 79.1478L85.0614 76.5586C85.1092 76.2919 85.2095 76.0375 85.3566 75.81C85.5037 75.5825 85.6946 75.3866 85.9182 75.2336C86.1418 75.0807 86.3936 74.9738 86.6589 74.9191C86.9242 74.8644 87.1977 74.8631 87.4635 74.9152L97.7968 76.8512C98.0634 76.8986 98.3179 76.9985 98.5455 77.1453C98.7731 77.292 98.9693 77.4825 99.1225 77.7057C99.2758 77.929 99.3831 78.1804 99.4382 78.4456C99.4933 78.7107 99.4952 78.9841 99.4436 79.2499L99.447 79.2465ZM88.9708 98.678L86.8919 109.767C86.8102 110.203 86.5585 110.589 86.1923 110.84C85.826 111.09 85.3752 111.185 84.9389 111.104L83.891 110.91C83.4544 110.827 83.0685 110.575 82.8178 110.208C82.5671 109.841 82.4722 109.39 82.5538 108.953L84.6293 97.8648C84.7118 97.4283 84.9642 97.0423 85.331 96.7916C85.6978 96.5409 86.149 96.446 86.5857 96.5276L86.8749 96.5821C86.9974 95.0759 87.1789 93.5732 87.4193 92.0738C87.4019 92.0485 87.3826 92.0246 87.3615 92.0023C87.3088 91.9895 87.2583 91.9689 87.2118 91.9411C86.8715 91.7744 86.5585 91.5294 86.2421 91.3287C85.6432 90.9476 85.0478 90.5631 84.4558 90.1684C83.2264 89.3518 82.0162 88.5091 80.8253 87.6404C80.7425 87.5818 80.6771 87.5018 80.6364 87.4089C80.5956 87.3159 80.5809 87.2136 80.594 87.113C80.4411 83.8917 80.7773 80.6659 81.5909 77.5453C81.6265 77.4144 81.7127 77.3031 81.8304 77.2358C81.9482 77.1685 82.0878 77.1507 82.2187 77.1863C82.3495 77.222 82.4608 77.3081 82.5281 77.4259C82.5955 77.5436 82.6133 77.6832 82.5776 77.8141C81.8022 80.793 81.4754 83.8709 81.6079 86.9463C82.6729 87.7152 83.7447 88.4672 84.8368 89.1953C85.4243 89.59 86.0186 89.979 86.6197 90.3624C87.1199 90.6788 87.831 90.9748 88.2053 91.4341C88.3257 91.5584 88.4114 91.7121 88.4537 91.8799C88.4488 92.2247 88.4008 92.5676 88.3108 92.9006C88.1973 93.6287 88.1021 94.3602 88.025 95.0952C87.9637 95.6566 87.9161 96.2214 87.8718 96.7964C88.2491 96.9285 88.5668 97.191 88.7676 97.5366C88.9685 97.8822 89.0394 98.2882 88.9674 98.6814L88.9708 98.678ZM84.187 77.6338C84.2518 77.6514 84.3124 77.6816 84.3655 77.7227C84.4186 77.7638 84.4631 77.815 84.4965 77.8733C84.5298 77.9316 84.5513 77.9959 84.5598 78.0625C84.5683 78.1291 84.5636 78.1967 84.5459 78.2615C84.5283 78.3263 84.4981 78.387 84.457 78.4401C84.4159 78.4932 84.3647 78.5377 84.3064 78.571C84.2481 78.6043 84.1838 78.6259 84.1172 78.6343C84.0506 78.6428 83.983 78.6381 83.9182 78.6205L82.2374 78.2802C82.1065 78.2441 81.9954 78.1575 81.9284 78.0395C81.8614 77.9214 81.844 77.7816 81.8801 77.6508C81.9162 77.5199 82.0028 77.4088 82.1209 77.3418C82.2389 77.2748 82.3787 77.2574 82.5096 77.2935L84.187 77.6338Z" fill="black"/>
<path d="M89.1035 75.218C88.953 75.6626 88.8827 76.1303 88.8959 76.5994C88.913 77.4568 89.0967 78.3007 89.015 79.1615C88.93 80.0903 88.5421 81.0328 88.3516 81.9447L90.9102 82.4244C91.9078 83.0864 92.6695 84.048 93.0853 85.1708C93.5011 86.2935 93.5496 87.5193 93.2239 88.6714C93.0742 89.2089 92.8666 89.8452 93.2239 90.2671C93.3535 90.4003 93.521 90.4904 93.7036 90.5251C93.8863 90.5598 94.0752 90.5375 94.2446 90.461C94.5818 90.3032 94.8493 90.0272 94.9966 89.6853C95.4729 88.685 95.1803 87.5077 94.9217 86.4325C94.6631 85.3574 94.476 84.1291 95.102 83.2172L95.0068 83.1934L95.888 83.3567C95.9186 83.2512 95.9492 83.1424 95.9765 83.0369C96.5031 81.0088 96.8716 78.943 97.0789 76.858C97.0789 76.8104 97.0789 76.7627 97.0789 76.7151L89.1035 75.218Z" fill="#9ED5F0"/>
<path d="M171.208 90.3658C172.109 89.9406 173.094 89.7241 174.091 89.7323C175.087 89.7406 176.068 89.9734 176.962 90.4134C177.551 90.706 177.033 91.5873 176.445 91.2946C175.711 90.9385 174.907 90.7495 174.091 90.7413C173.275 90.7331 172.467 90.9058 171.726 91.247C171.61 91.3065 171.476 91.3206 171.35 91.2867C171.224 91.2527 171.115 91.1731 171.045 91.0633C170.975 90.9489 170.953 90.8116 170.984 90.6811C171.014 90.5505 171.095 90.4373 171.208 90.3658ZM166.88 78.6613L164.9 80.3285C164.805 80.4246 164.752 80.5542 164.752 80.6892C164.752 80.8242 164.805 80.9537 164.9 81.0498C164.998 81.1422 165.127 81.1937 165.261 81.1937C165.395 81.1937 165.524 81.1422 165.622 81.0498L167.602 79.3826C167.697 79.2865 167.75 79.1569 167.75 79.022C167.75 78.887 167.697 78.7574 167.602 78.6613C167.504 78.5689 167.375 78.5174 167.241 78.5174C167.107 78.5174 166.978 78.5689 166.88 78.6613ZM165.043 78.0999H165.064L165.118 78.0591L165.193 78.0046C165.298 77.9264 165.404 77.8515 165.513 77.7801C165.573 77.7453 165.626 77.6988 165.668 77.6433C165.71 77.5879 165.741 77.5245 165.759 77.457C165.776 77.3895 165.78 77.3192 165.77 77.2503C165.76 77.1813 165.736 77.115 165.7 77.0554C165.63 76.9398 165.518 76.8562 165.388 76.8224C165.257 76.7887 165.119 76.8076 165.002 76.875C164.069 77.4996 163.261 78.2936 162.621 79.2159C162.558 79.3308 162.541 79.4655 162.575 79.5922C162.608 79.7189 162.689 79.8278 162.801 79.8964C162.919 79.962 163.058 79.9795 163.188 79.9452C163.319 79.911 163.431 79.8277 163.502 79.7127C163.57 79.614 163.641 79.5085 163.72 79.4167V79.3962L163.767 79.3384L163.886 79.1955C164.051 78.9995 164.226 78.8121 164.41 78.6341C164.587 78.4606 164.774 78.2938 164.965 78.1339C164.992 78.1244 165.018 78.113 165.043 78.0999ZM164.914 72.3838C164.779 72.3847 164.649 72.4387 164.554 72.5342C164.458 72.6298 164.404 72.7591 164.403 72.8941C164.407 73.0284 164.462 73.1562 164.557 73.2512C164.652 73.3462 164.78 73.4011 164.914 73.4045H164.996L165.162 73.4351C165.278 73.4624 165.39 73.493 165.502 73.5304C165.559 73.5463 165.613 73.5668 165.666 73.5917L165.751 73.6325C165.858 73.6836 165.961 73.7416 166.06 73.806C166.11 73.8334 166.158 73.8641 166.203 73.8979L166.278 73.9523C166.37 74.0263 166.458 74.1058 166.54 74.1905C166.621 74.2592 166.694 74.3368 166.758 74.4218C166.763 74.4341 166.77 74.4456 166.778 74.4559C166.799 74.4797 166.816 74.5069 166.833 74.5307C166.85 74.5545 166.904 74.6362 166.935 74.6906C166.969 74.7485 167.014 74.7991 167.067 74.8396C167.121 74.88 167.182 74.9096 167.247 74.9265C167.312 74.9434 167.379 74.9473 167.446 74.9381C167.512 74.9289 167.576 74.9066 167.634 74.8727C167.692 74.8387 167.743 74.7937 167.783 74.7402C167.824 74.6867 167.853 74.6257 167.87 74.5608C167.887 74.4958 167.891 74.4282 167.882 74.3618C167.872 74.2953 167.85 74.2313 167.816 74.1735C167.503 73.6715 167.078 73.2488 166.575 72.9383C166.071 72.6278 165.503 72.438 164.914 72.3838ZM169.895 77.9876C170.019 78.1649 170.127 78.3528 170.218 78.549L170.249 78.6341L170.3 78.7872C170.332 78.899 170.357 79.0127 170.375 79.1274C170.411 79.258 170.498 79.3688 170.616 79.4357C170.734 79.5027 170.873 79.5203 171.004 79.4847C171.13 79.4432 171.235 79.3553 171.298 79.239C171.361 79.1227 171.378 78.9867 171.345 78.8587C171.252 78.3308 171.037 77.8319 170.717 77.4023C170.397 76.9727 169.98 76.6242 169.5 76.3851C169.384 76.3256 169.25 76.3114 169.125 76.3454C168.999 76.3794 168.89 76.459 168.82 76.5688C168.753 76.6864 168.734 76.8257 168.768 76.9568C168.803 77.0879 168.887 77.2002 169.004 77.2697C169.106 77.3174 169.205 77.372 169.3 77.433L169.446 77.5317L169.49 77.5691C169.577 77.6409 169.659 77.7182 169.735 77.8005C169.773 77.8413 169.81 77.8787 169.844 77.9196L169.892 77.9808L169.895 77.9876ZM154.836 95.8267L154.737 95.8914C154.672 95.9322 154.601 95.973 154.533 96.0071L154.465 96.0377L154.393 96.0649L154.169 96.1329C154.097 96.15 154.026 96.1636 153.951 96.1738H153.91H153.791C153.638 96.1817 153.484 96.176 153.332 96.1568H153.315L153.175 96.1295C153.097 96.1127 153.02 96.0912 152.944 96.0649L152.856 96.0377L152.777 96.0037L152.611 95.9254C152.543 95.888 152.474 95.8471 152.41 95.8029L152.338 95.7519L152.291 95.711C152.233 95.66 152.175 95.6056 152.121 95.5477L152.042 95.4627V95.4456L152.022 95.415C151.951 95.3015 151.839 95.2194 151.709 95.1853C151.58 95.1511 151.442 95.1676 151.324 95.2313C151.208 95.3001 151.124 95.4119 151.09 95.5424C151.055 95.6729 151.074 95.8117 151.141 95.9288C151.391 96.2649 151.707 96.5474 152.069 96.7595C152.431 96.9717 152.831 97.1093 153.247 97.1642C153.663 97.219 154.085 97.1901 154.49 97.079C154.894 96.9679 155.272 96.777 155.601 96.5174C155.697 96.4217 155.751 96.292 155.751 96.1568C155.751 96.0215 155.697 95.8918 155.601 95.7961C155.551 95.7446 155.49 95.7043 155.423 95.6777C155.356 95.6512 155.284 95.6389 155.212 95.6418C155.14 95.6447 155.069 95.6626 155.004 95.6945C154.939 95.7263 154.882 95.7714 154.836 95.8267ZM185.019 135.237C184.516 133.559 183.903 131.916 183.185 130.317C181.056 125.59 178.062 121.302 174.359 117.674C172.86 119.446 171.486 121.319 170.246 123.281C165.582 130.68 162.869 139.14 162.359 147.871C162.388 147.913 162.413 147.959 162.433 148.007C162.455 148.09 162.456 148.178 162.436 148.261C162.416 148.345 162.375 148.422 162.318 148.487C162.303 148.592 162.257 148.69 162.186 148.769C162.114 148.848 162.021 148.903 161.918 148.927C161.814 148.952 161.706 148.945 161.607 148.907C161.508 148.869 161.422 148.802 161.362 148.715C160.533 148.749 159.71 148.559 158.98 148.163C158.922 148.132 158.872 148.087 158.834 148.034C158.771 148.034 158.71 148.021 158.653 147.995C158.597 147.97 158.546 147.933 158.504 147.887C158.462 147.841 158.431 147.787 158.411 147.727C158.392 147.668 158.385 147.606 158.391 147.544C158.534 144.93 158.868 142.329 159.388 139.763C161.135 131.097 165.015 123.003 170.678 116.214C168.379 117.009 165.964 117.415 163.532 117.415C158.874 117.427 154.338 115.928 150.603 113.145C147.432 110.759 144.958 107.565 143.441 103.897C143.312 103.894 143.188 103.847 143.091 103.762C142.993 103.678 142.928 103.562 142.907 103.435C142.601 103.554 142.294 103.673 141.988 103.799C142.041 103.872 142.07 103.961 142.07 104.052C142.07 104.143 142.041 104.232 141.988 104.306C140.416 106.68 139.017 109.163 137.8 111.737C135.652 116.324 134.084 121.161 133.131 126.136C132.176 131.107 131.851 136.18 132.165 141.233C132.199 141.763 131.546 141.862 131.267 141.542L128.004 140.681C127.725 141.001 127.072 140.899 127.109 140.372C127.303 137.594 127.637 134.828 128.109 132.083C129.71 122.823 132.902 113.909 137.544 105.738C132.387 108.273 127.501 111.328 122.965 114.857C120.427 116.758 118.039 118.849 115.82 121.114C113.734 123.302 111.88 125.806 110.818 128.66C110.209 130.293 109.897 132.022 109.896 133.764C110.369 134.023 110.835 134.295 111.291 134.594C113.571 136.102 115.578 138.187 116.276 140.899C116.453 141.58 116.568 142.386 116.146 143.012C115.966 143.266 115.718 143.465 115.431 143.585C115.143 143.705 114.828 143.742 114.52 143.693C113.118 143.529 112.046 142.366 111.237 141.311C109.762 139.29 108.94 136.867 108.879 134.366C107.796 133.815 106.683 133.327 105.544 132.903C102.911 131.91 100.199 131.025 97.7629 129.586C96.553 128.893 95.4532 128.024 94.4999 127.007C93.6017 126.027 92.9654 124.86 92.1182 123.839C91.3969 122.965 90.417 122.114 89.1989 122.478C88.0557 122.818 87.365 124.043 86.7866 124.989C86.1013 126.209 85.217 127.306 84.1701 128.235C82.9928 129.218 81.5604 130.069 80.0327 130.328C78.4369 130.6 76.7459 130.283 75.191 130.794C74.7954 130.914 74.4372 131.134 74.1502 131.432C73.8632 131.729 73.657 132.095 73.551 132.495C73.0508 134.302 73.9117 136.408 74.7861 137.959C76.0824 140.263 78.2668 141.859 80.3491 143.403C81.6179 144.314 82.8335 145.297 83.9897 146.346C85.1091 147.429 86.1137 148.624 86.9873 149.912C87.889 151.202 88.6885 152.549 89.546 153.876C90.4034 155.203 91.2472 156.401 92.142 157.619C93.7446 159.81 95.3097 162.042 97.0484 164.117C98.6918 166.088 100.505 167.983 102.659 169.398C104.751 170.813 107.202 171.605 109.726 171.681C110.383 171.698 110.383 172.719 109.726 172.702C108.413 172.679 107.11 172.467 105.857 172.072C100.58 170.388 96.9021 165.785 93.7242 161.504C91.9175 159.068 90.0869 156.639 88.4708 154.07C87.5793 152.661 86.7117 151.232 85.7488 149.882C84.7656 148.524 83.6233 147.289 82.3464 146.204C79.9374 144.162 77.0759 142.549 75.0549 140.079C73.6835 138.438 72.79 136.451 72.4724 134.336C72.3138 133.377 72.4428 132.393 72.8433 131.508C73.0774 131.075 73.3997 130.695 73.7894 130.393C74.179 130.091 74.6275 129.874 75.1059 129.756C74.3438 128.681 73.5816 127.609 72.8331 126.527C70.9458 123.819 69.0847 121.097 67.2496 118.361C66.3423 116.987 65.435 115.609 64.5277 114.227C63.6839 112.941 62.7686 111.665 62.1255 110.263C61.5947 109.103 61.1048 107.582 61.5505 106.317C61.6251 106.054 61.759 105.812 61.9419 105.609C62.1247 105.406 62.3517 105.248 62.6053 105.146C62.8485 105.075 63.1072 105.075 63.3504 105.146C63.2685 104.915 63.207 104.677 63.1667 104.435C62.983 103.295 63.296 101.774 64.7386 101.771C65.1051 101.78 65.4604 101.899 65.7594 102.111C65.4884 101.608 65.2431 101.091 65.0244 100.563C64.6502 99.6375 64.5005 98.5963 65.0244 97.6947C65.232 97.2838 65.5778 96.9593 66.0009 96.7782C66.4241 96.5971 66.8976 96.571 67.3381 96.7046C68.2738 97.0278 68.8658 97.926 69.4374 98.678C70.9101 100.628 72.2296 102.689 73.3843 104.843C73.3605 104.598 73.3298 104.35 73.3128 104.102C73.2278 102.771 73.1699 101.141 74.2553 100.168C75.2284 99.2972 76.637 99.1849 77.8857 99.3279C79.2977 99.4866 80.6517 99.9787 81.836 100.764C82.9044 101.478 84.085 102.509 84.313 103.843C84.4114 104.334 84.3205 104.844 84.0587 105.272C83.7969 105.699 83.3834 106.011 82.901 106.146C82.0742 106.371 81.1759 106.163 80.3593 105.997C79.6244 105.844 78.7534 105.568 78.0014 105.765C76.8412 106.065 77.2257 107.701 77.5183 108.518C77.9776 109.801 78.9201 110.872 79.9 111.784C81.6591 113.394 84.7213 115.503 87.0009 113.462C87.4412 113.096 87.7377 112.586 87.8379 112.022C87.9264 111.362 87.6066 110.736 87.3582 110.148C86.9159 109.107 86.6505 107.63 87.7325 106.861C88.709 106.18 90.2571 106.759 91.1349 107.358C92.1033 108.036 92.853 108.982 93.2921 110.08C94.34 112.594 93.6119 115.343 92.1488 117.531C91.3661 118.695 90.4273 119.746 89.3588 120.654C88.5377 121.397 87.5488 121.929 86.4769 122.206C86.6403 122.434 86.8172 122.648 86.9839 122.886C87.7597 121.947 88.6851 121.274 90.0461 121.393C91.4071 121.512 92.3122 122.414 93.0743 123.407C93.9487 124.526 94.6531 125.755 95.6738 126.755C97.8003 128.834 100.641 129.994 103.384 131.025C105.238 131.723 107.109 132.386 108.886 133.254C109.022 130.371 109.895 127.572 111.42 125.122C112.972 122.653 114.866 120.417 117.045 118.48C116.914 118.512 116.776 118.494 116.657 118.432C116.539 118.369 116.446 118.265 116.398 118.14C115.405 115.663 114.384 113.196 113.336 110.74C109.58 102.009 105.458 93.4473 100.971 85.0545C100.662 84.4761 101.543 83.9623 101.853 84.5408C103.132 86.9361 104.38 89.3462 105.595 91.771C109.889 100.307 113.819 109.011 117.385 117.885C117.42 117.968 117.429 118.059 117.412 118.147L117.732 117.858C120.27 115.614 122.935 113.518 125.714 111.58C131.228 107.67 137.219 104.482 143.543 102.094C143.997 101.271 144.45 100.446 144.904 99.6205C146.825 96.0978 148.722 92.5604 150.593 89.0082L148.623 87.3512C146.479 85.5365 144.34 83.7219 142.206 81.9073C142.151 81.8516 142.11 81.7842 142.085 81.7102C142.06 81.6362 142.053 81.5574 142.063 81.48C142.073 81.4026 142.101 81.3286 142.144 81.2635C142.187 81.1983 142.244 81.1439 142.311 81.1043C144.273 80.172 146.231 79.2239 148.184 78.2598C151.886 76.4429 155.574 74.6022 159.279 72.7989C161.032 71.9449 162.777 70.9922 164.642 70.4172C165.735 70.0695 166.87 69.8715 168.017 69.8285C167.336 69.3042 166.745 68.672 166.268 67.9572C164.863 65.8613 165.152 60.0397 169.283 57.8723C170.684 66.1471 176.812 63.5442 181.702 69.5835C185.468 74.2415 180.919 83.2172 176.656 86.6571C177.416 86.9509 178.105 87.402 178.678 87.9807C179.252 88.5594 179.696 89.2528 179.983 90.0153C180.406 91.3149 180.359 92.7214 179.853 93.9905C179.346 95.2597 178.411 96.3114 177.21 96.9631C176.438 97.3533 175.585 97.5539 174.72 97.5484C174.109 97.5472 173.503 97.4543 172.92 97.2728C172.637 103.091 172.546 108.909 172.58 114.734C172.64 114.755 172.695 114.788 172.743 114.829C173.332 115.323 173.907 115.85 174.468 116.364C174.607 116.419 174.72 116.525 174.784 116.66C175.422 117.27 176.038 117.9 176.632 118.548C180.938 123.248 184.135 128.855 185.985 134.955C186.193 135.578 185.206 135.85 185.019 135.237ZM86.3476 123.737C85.9223 123.2 85.5106 122.652 85.1296 122.084C85.0851 122.006 85.0617 121.918 85.0617 121.829C85.0616 121.739 85.0849 121.651 85.1293 121.574C85.1736 121.496 85.2374 121.431 85.3145 121.386C85.3915 121.34 85.4791 121.316 85.5685 121.315C86.2235 121.296 86.8635 121.114 87.4296 120.784C88.5579 120.101 89.5556 119.223 90.3762 118.191C91.2587 117.195 91.9435 116.041 92.3938 114.789C93.1253 112.618 92.7613 110.124 90.9886 108.552C90.5951 108.197 90.1314 107.93 89.6276 107.766C89.1887 107.623 88.4708 107.426 88.1441 107.861C87.4637 108.817 88.5831 110.212 88.777 111.155C89.267 113.574 86.7934 115.459 84.5511 115.323C83.2061 115.195 81.9238 114.692 80.8493 113.873C79.7785 113.129 78.8097 112.249 77.9674 111.253C77.118 110.294 76.5318 109.132 76.2662 107.878C76.079 106.827 76.1437 105.568 77.1644 104.966C78.5662 104.139 80.3797 105.092 81.8496 105.18C82.5029 105.221 83.2718 105.061 83.299 104.251C83.3399 103.009 81.8734 101.955 80.9377 101.393C79.7986 100.704 78.502 100.317 77.1712 100.27C75.9838 100.233 74.6976 100.56 74.3744 101.852C74.2452 102.533 74.2177 103.229 74.2927 103.918C74.3316 104.644 74.4168 105.367 74.5479 106.082C74.7267 107.037 74.9815 107.977 75.3101 108.892C75.5369 109.418 75.7524 109.95 75.9565 110.488C76.1641 111.029 75.276 111.4 75.0209 110.879C74.7657 110.359 74.5377 109.753 74.3404 109.178C72.8835 105.748 71.0253 102.504 68.8046 99.5116C68.3384 98.8889 67.7838 97.8818 66.9842 97.6266C66.1847 97.3714 65.6845 98.2731 65.6811 98.9434C65.6811 99.9641 66.314 100.924 66.7631 101.784C67.253 102.721 67.7623 103.646 68.2908 104.557C69.3478 106.372 70.482 108.149 71.6933 109.889C72.0709 110.43 71.1897 110.927 70.8086 110.403L67.3653 105.639C66.8822 104.959 66.4126 104.278 65.9125 103.639C65.6233 103.261 65.0721 102.564 64.5107 102.788C63.6532 103.128 64.2623 104.789 64.5107 105.343C65.3511 107.245 66.2765 109.107 67.2666 110.937L69.0938 114.159C69.1624 114.276 69.1817 114.415 69.1476 114.546C69.1134 114.678 69.0286 114.79 68.9117 114.858C68.7949 114.927 68.6556 114.946 68.5244 114.912C68.3933 114.878 68.2811 114.793 68.2125 114.676C67.532 113.542 66.8754 112.383 66.2425 111.199L65.579 110.059L64.2827 107.773C64.0751 107.409 63.8812 107.034 63.6566 106.681C63.5239 106.466 63.3164 106.157 63.0646 106.109C62.6223 106.027 62.4454 106.728 62.4113 107.048C62.3703 107.681 62.4594 108.316 62.6733 108.913C63.0986 110.25 63.9152 111.434 64.674 112.604C66.3253 115.14 67.9982 117.663 69.6926 120.171C71.8225 123.324 73.991 126.453 76.1981 129.559C77.5897 129.412 79.0153 129.589 80.3763 129.218C81.9446 128.732 83.3481 127.822 84.4321 126.588C85.116 125.823 85.6944 124.72 86.3613 123.723L86.3476 123.737ZM109.92 134.965C109.967 135.485 110.046 136.002 110.155 136.513C110.421 137.793 110.914 139.014 111.611 140.12C112.24 141.103 113.176 142.325 114.353 142.645C116.055 143.1 115.166 140.675 114.819 139.923C114.273 138.775 113.504 137.748 112.557 136.901C111.754 136.159 110.874 135.505 109.934 134.948L109.92 134.965ZM140.763 104.275C140.409 104.425 140.059 104.578 139.712 104.734C139.487 104.833 139.27 104.942 139.031 105.044C139.034 105.135 139.009 105.226 138.96 105.303C137.58 107.645 136.323 110.057 135.193 112.529C131.286 121.099 128.91 130.285 128.171 139.674L131.097 140.436C130.967 137.807 131.009 135.173 131.223 132.549C131.648 127.438 132.703 122.398 134.363 117.545C135.956 112.88 138.105 108.425 140.763 104.275ZM171.259 114.887C171.361 114.849 171.474 114.849 171.576 114.887C171.521 108.875 171.617 102.863 171.916 96.8543C171.133 96.4534 170.459 95.8698 169.949 95.153C169.907 95.0983 169.876 95.0355 169.859 94.9685C169.841 94.9014 169.838 94.8316 169.848 94.7631C169.859 94.6946 169.883 94.629 169.92 94.5703C169.956 94.5115 170.005 94.4608 170.062 94.4213C170.118 94.3818 170.183 94.3542 170.251 94.3403C170.318 94.3265 170.388 94.3265 170.456 94.3406C170.524 94.3546 170.588 94.3823 170.645 94.4219C170.702 94.4616 170.75 94.5124 170.787 94.5712C171.267 95.2643 171.926 95.8142 172.694 96.1625C173.462 96.5108 174.31 96.6445 175.148 96.5493C175.985 96.454 176.782 96.1335 177.452 95.6217C178.122 95.1099 178.641 94.4261 178.953 93.6429C179.266 92.8597 179.36 92.0065 179.226 91.174C179.093 90.3414 178.736 89.5608 178.193 88.915C177.651 88.2692 176.944 87.7824 176.147 87.5064C175.351 87.2305 174.494 87.1757 173.668 87.3478C173.536 87.3753 173.398 87.349 173.284 87.2747C173.171 87.2003 173.092 87.0841 173.064 86.9514C173.037 86.8188 173.063 86.6806 173.138 86.5673C173.212 86.4541 173.328 86.375 173.461 86.3475C173.617 86.3134 173.77 86.293 173.927 86.2726L173.151 85.9324C170.916 82.4482 172.927 79.5664 173.226 76.8478C173.645 72.9452 171.834 72.1456 169.732 70.9581C167.765 70.6519 165.754 71.0568 163.917 71.7679C162.08 72.479 160.297 73.4692 158.517 74.33C156.738 75.1908 154.904 76.1061 153.101 76.9975C149.906 78.5763 146.707 80.155 143.492 81.6929L143.689 81.8596C146.321 84.0939 148.955 86.3225 151.593 88.5455C151.672 88.6251 151.723 88.7284 151.738 88.8396C151.752 88.9508 151.73 89.0638 151.675 89.1613L150.957 90.5223C148.837 94.5168 146.724 98.5283 144.492 102.472C144.494 102.559 144.474 102.644 144.434 102.722C144.394 102.799 144.336 102.865 144.264 102.914L144.193 103.04C144.963 105.08 146.054 106.985 147.425 108.681C150.042 111.943 153.585 114.335 157.588 115.544C162.09 116.856 166.901 116.628 171.259 114.898V114.887ZM173.641 116.929C173.168 116.49 172.688 116.061 172.195 115.643C172.216 115.724 172.217 115.809 172.196 115.89C172.176 115.972 172.136 116.047 172.079 116.109C170.444 117.977 168.951 119.965 167.612 122.056C162.799 129.621 159.989 138.285 159.446 147.234C159.467 147.238 159.488 147.244 159.507 147.251C159.609 147.309 159.715 147.357 159.82 147.408L159.895 147.435L160.048 147.493C160.255 147.561 160.466 147.612 160.681 147.646H160.722H160.753H160.94C161.049 147.646 161.158 147.646 161.28 147.646H161.382C161.515 145.349 161.8 143.063 162.236 140.804C163.946 132.016 167.865 123.807 173.624 116.953L173.641 116.929ZM149.143 114.074C148.906 113.915 148.639 113.807 148.357 113.758C148.076 113.709 147.787 113.719 147.51 113.788C147.403 113.82 147.309 113.884 147.242 113.973C147.174 114.062 147.137 114.17 147.136 114.282L147.075 116.109C147.075 116.244 147.129 116.374 147.224 116.47C147.32 116.565 147.45 116.619 147.585 116.619C147.72 116.619 147.85 116.565 147.946 116.47C148.042 116.374 148.096 116.244 148.096 116.109C148.113 115.656 148.126 115.204 148.14 114.748C148.21 114.761 148.279 114.778 148.347 114.799C148.395 114.816 148.449 114.846 148.371 114.799L148.494 114.86C148.533 114.882 148.572 114.906 148.609 114.932L148.653 114.962C148.718 115.012 148.779 115.068 148.834 115.129L148.912 115.217C148.834 115.125 148.912 115.217 148.932 115.258L148.994 115.357C149.001 115.375 149.011 115.392 149.021 115.408C149.045 115.486 149.069 115.561 149.089 115.639C149.089 115.687 149.089 115.731 149.089 115.775C149.087 115.801 149.087 115.828 149.089 115.854L149.072 115.908L149.041 116.017L149.024 116.058C148.987 116.126 148.933 116.194 148.902 116.265C148.871 116.304 148.836 116.34 148.8 116.374L148.718 116.452L148.698 116.469C148.623 116.514 148.555 116.561 148.48 116.602L148.429 116.629C148.388 116.629 148.351 116.66 148.31 116.67L148.164 116.708H148.133C148.065 116.708 147.912 116.745 147.857 116.708C147.857 116.708 147.963 116.735 147.902 116.708C147.871 116.699 147.841 116.692 147.81 116.687C147.761 116.676 147.713 116.661 147.667 116.643C147.539 116.607 147.402 116.622 147.285 116.686C147.168 116.749 147.08 116.856 147.041 116.983C147.007 117.111 147.024 117.247 147.087 117.364C147.15 117.48 147.255 117.568 147.381 117.609C147.847 117.749 148.346 117.726 148.797 117.545C149.248 117.364 149.625 117.035 149.865 116.612C149.991 116.395 150.072 116.155 150.103 115.906C150.134 115.657 150.114 115.404 150.045 115.163C149.865 114.72 149.548 114.347 149.14 114.098L149.143 114.074ZM146.231 127.684C146.369 128.026 146.406 128.4 146.336 128.762C146.267 129.124 146.094 129.459 145.84 129.725C145.698 129.864 145.528 129.97 145.343 130.039C145.157 130.107 144.959 130.136 144.761 130.124C144.364 130.083 143.991 129.91 143.703 129.634C143.434 129.385 143.248 129.06 143.172 128.701C143.166 128.627 143.166 128.551 143.172 128.477C143.13 128.6 143.044 128.703 142.93 128.766C142.816 128.828 142.683 128.847 142.556 128.817C142.427 128.779 142.317 128.692 142.25 128.574C142.184 128.457 142.165 128.318 142.199 128.188C142.349 127.72 142.634 127.307 143.018 127C143.401 126.693 143.867 126.506 144.356 126.462C144.77 126.427 145.183 126.531 145.53 126.758C145.852 126.997 146.095 127.326 146.228 127.704L146.231 127.684ZM144.326 127.476C144.349 127.49 144.387 127.483 144.322 127.497L144.326 127.476ZM145.346 128.558C145.345 128.545 145.345 128.531 145.346 128.518C145.345 128.528 145.345 128.538 145.346 128.548C145.35 128.487 145.35 128.426 145.346 128.364C145.346 128.337 145.346 128.307 145.346 128.279C145.346 128.218 145.319 128.157 145.302 128.099L145.271 128.004C145.244 127.956 145.224 127.909 145.193 127.861L145.139 127.779C145.098 127.735 145.061 127.691 145.016 127.65L144.945 127.602C144.921 127.587 144.896 127.574 144.87 127.561C144.792 127.538 144.72 127.517 144.642 127.5H144.547C144.473 127.505 144.399 127.505 144.326 127.5H144.264L144.176 127.521L144.2 127.541C144.294 127.638 144.346 127.767 144.346 127.902C144.346 128.036 144.294 128.166 144.2 128.262C144.186 128.28 144.175 128.3 144.166 128.32C144.166 128.32 144.166 128.337 144.166 128.344C144.166 128.351 144.166 128.361 144.166 128.378C144.166 128.395 144.166 128.412 144.166 128.422C144.166 128.432 144.166 128.46 144.166 128.48C144.166 128.501 144.166 128.497 144.166 128.504C144.166 128.511 144.186 128.572 144.196 128.606C144.209 128.635 144.224 128.664 144.241 128.691L144.292 128.773V128.793C144.335 128.843 144.382 128.891 144.431 128.936L144.458 128.96L144.516 129.001C144.552 129.023 144.59 129.044 144.628 129.062L144.662 129.079H144.645L144.724 129.099H144.761H144.87L144.958 129.072L145.026 129.035L145.054 129.018C145.069 129.005 145.084 128.991 145.098 128.977C145.118 128.96 145.135 128.936 145.156 128.916L145.193 128.861L145.237 128.776C145.237 128.722 145.271 128.671 145.285 128.616V128.562C145.285 128.562 145.333 128.606 145.336 128.579L145.346 128.558ZM144.666 129.059H144.683C144.625 129.062 144.622 129.065 144.642 129.079L144.666 129.059ZM145.346 128.572V128.548C145.337 128.561 145.332 128.577 145.333 128.592L145.346 128.572ZM106.358 91.6655L125.102 81.4581L130.233 78.6613C131.907 82.7874 133.649 86.8851 135.459 90.9544C129.62 94.0121 123.783 97.0743 117.946 100.141L112.897 102.785C112.315 103.091 112.832 103.972 113.414 103.666L131.267 94.3092L135.874 91.8935C136.126 92.4549 136.374 93.0197 136.629 93.5947C137.922 96.4528 139.249 99.295 140.61 102.121C140.896 102.713 141.777 102.196 141.491 101.608C139.116 96.6626 136.84 91.6723 134.663 86.6367C132.485 81.601 130.411 76.5144 128.439 71.3766C127.323 68.4709 126.243 65.5539 125.197 62.6255C124.976 62.0131 123.989 62.2853 124.214 62.8977C125.994 67.888 127.872 72.8306 129.848 77.7256L111.199 87.882L105.844 90.8013C105.265 91.0973 105.783 91.9785 106.358 91.6655Z" fill="black"/>
<path d="M52.8811 143.26C52.8811 143.318 52.8981 143.189 52.9015 143.172C52.9049 143.155 52.9321 143.046 52.9492 142.985C52.9774 142.885 53.0174 142.789 53.0682 142.699C53.1642 142.506 53.2918 142.33 53.4459 142.178C53.7591 141.858 54.1493 141.624 54.5789 141.498C55.0055 141.357 55.465 141.35 55.8957 141.478C56.2862 141.6 56.6249 141.849 56.8586 142.185C57.0945 142.54 57.2394 142.948 57.2805 143.373C57.3213 143.8 57.257 144.231 57.0934 144.628C56.9262 145.037 56.6201 145.373 56.2291 145.577C56.0408 145.67 55.8403 145.735 55.6337 145.771C55.4178 145.796 55.1998 145.796 54.9838 145.771C54.9471 145.769 54.9106 145.764 54.8749 145.754L54.6572 145.707C54.524 145.672 54.3933 145.629 54.2659 145.577C54.2318 145.558 54.1966 145.541 54.1604 145.526L53.9903 145.438C53.8882 145.377 53.7419 145.281 53.6773 145.23C53.2803 144.934 53.0046 144.504 52.9015 144.019C52.8853 143.953 52.8558 143.89 52.815 143.836C52.7742 143.781 52.7228 143.735 52.6639 143.7C52.605 143.666 52.5397 143.643 52.472 143.635C52.4043 143.626 52.3355 143.631 52.2697 143.649C52.2039 143.667 52.1424 143.698 52.0888 143.741C52.0353 143.783 51.9908 143.836 51.9581 143.896C51.9253 143.956 51.9049 144.022 51.898 144.09C51.8912 144.157 51.898 144.226 51.9182 144.291C52.0778 144.891 52.4005 145.434 52.8504 145.861C53.3003 146.288 53.8597 146.582 54.4667 146.71C55.0819 146.875 55.7331 146.843 56.3295 146.62C56.9259 146.397 57.4379 145.993 57.7943 145.465C58.1126 144.936 58.29 144.334 58.3096 143.717C58.3293 143.1 58.1905 142.488 57.9065 141.94C57.6042 141.375 57.1281 140.922 56.5485 140.648C55.9688 140.374 55.3165 140.294 54.6878 140.419C53.976 140.533 53.3186 140.869 52.8104 141.381C52.3023 141.892 51.9696 142.551 51.8604 143.264C51.8229 143.536 52.1224 143.774 52.3707 143.774C52.505 143.771 52.6328 143.716 52.7278 143.621C52.8228 143.526 52.8777 143.398 52.8811 143.264V143.26Z" fill="black"/>
<path d="M120.403 28.8051L119.001 25.998C118.933 25.8812 118.821 25.7963 118.69 25.7618C118.56 25.7274 118.42 25.7463 118.304 25.8143C118.193 25.884 118.113 25.9927 118.079 26.1187C118.045 26.2448 118.06 26.379 118.12 26.4948L119.522 29.3052C119.59 29.4221 119.702 29.5069 119.834 29.5411C119.965 29.5752 120.104 29.5558 120.221 29.4873C120.338 29.4187 120.423 29.3065 120.457 29.1754C120.491 29.0442 120.471 28.9049 120.403 28.7881V28.8051Z" fill="black"/>
<path d="M18.1725 59.9852L14.4298 57.1782C14.3124 57.11 14.1728 57.091 14.0415 57.1255C13.9101 57.1599 13.7978 57.2449 13.7289 57.3619C13.6694 57.4779 13.6553 57.6118 13.6893 57.7377C13.7232 57.8635 13.8029 57.9721 13.9126 58.0424L17.6554 60.8494C17.7722 60.9175 17.9113 60.9363 18.0421 60.9019C18.1729 60.8674 18.2847 60.7825 18.3529 60.6657C18.4123 60.5497 18.4265 60.4158 18.3925 60.2899C18.3585 60.1641 18.2789 60.0555 18.1691 59.9852H18.1725Z" fill="black"/>
<path d="M77.6407 78.2496C76.3024 75.0059 75.741 71.8938 75.9565 68.9133C76.0473 67.5405 76.2822 66.1811 76.6574 64.8575C77.3504 62.4822 78.3453 60.2055 79.6175 58.0832C81.8337 54.2611 83.8445 52.2877 85.6501 52.163C86.1444 52.0874 86.6488 52.1117 87.1336 52.2344C90.8014 53.2574 92.8123 54.3632 93.1661 55.5518C93.7037 57.219 93.6856 60.0045 93.1117 63.9083C92.8514 65.7585 92.4695 67.5896 91.9685 69.3896C91.4535 71.2438 90.803 73.0577 90.0223 74.8165C89.8127 75.2779 89.5513 75.714 89.2431 76.1163L95.245 80.2605C95.5547 79.7195 95.8609 79.1547 96.1603 78.5592C97.5098 75.9262 98.5949 73.1658 99.3994 70.3185C100.187 67.5132 100.727 64.6441 101.012 61.7443C101.652 55.6471 100.781 51.6378 98.3991 49.7166C96.2478 47.923 93.7808 46.5464 91.1247 45.6575C83.6914 46.9073 79.1196 48.6788 77.4093 50.9721C75.699 53.2654 73.7313 56.8221 71.5061 61.6422C70.6187 63.5823 69.8782 65.5863 69.2911 67.6374C68.5272 70.2766 68.1019 73.0023 68.0254 75.7488C67.946 79.4507 68.5879 82.1613 69.9511 83.8807C73.0882 83.52 75.7728 81.9719 77.6407 78.2496Z" fill="#9ED5F0"/>
</g>
<defs>
<clipPath id="clip0_27158_221723">
<rect width="200" height="200" fill="white" transform="translate(0 0.5)"/>
</clipPath>
</defs>
</svg>
