<svg width="16" height="16" viewBox="0 0 16 16" fill="none" xmlns="http://www.w3.org/2000/svg">
<g clip-path="url(#clip0_27158_169182)">
<path d="M0 7.99994C0 8.97851 0.176031 9.91588 0.497594 10.7825L8 11.1304L15.5024 10.7826C15.824 9.91588 16 8.97851 16 7.99994C16 7.02138 15.824 6.08401 15.5024 5.21735L8 4.86951L0.497594 5.21732C0.176031 6.08401 0 7.02138 0 7.99994Z" fill="black"/>
<path d="M7.99996 0C4.56025 0 1.6279 2.171 0.497559 5.21741H15.5024C14.372 2.171 11.4397 0 7.99996 0Z" fill="#0052B4"/>
<path d="M15.5024 10.7826H0.497559C1.6279 13.829 4.56025 16 7.99996 16C11.4397 16 14.372 13.829 15.5024 10.7826Z" fill="#F0F0F0"/>
</g>
<defs>
<clipPath id="clip0_27158_169182">
<rect width="16" height="16" fill="white"/>
</clipPath>
</defs>
</svg>
