<svg width="40" height="40" viewBox="0 0 40 40" fill="none" xmlns="http://www.w3.org/2000/svg">
<rect x="0.5" y="0.5" width="39" height="39" rx="19.5" fill="#F9F9F9"/>
<rect x="0.5" y="0.5" width="39" height="39" rx="19.5" stroke="#F1F1F4"/>
<g clip-path="url(#clip0_27158_267868)">
<path d="M12.64 13.2611H14.7063C14.7629 13.2609 14.8171 13.2384 14.8571 13.1984C14.8972 13.1584 14.9197 13.1042 14.9199 13.0476C14.9199 13.0468 14.8949 11.2768 14.8949 10.7851V10.7791C14.8949 10.3752 14.9795 10.0229 15.1276 9.72723L15.198 9.59485C15.189 9.59653 15.1807 9.60102 15.1744 9.60768L11.1624 13.5861C11.1551 13.5921 11.1498 13.6004 11.1475 13.6096C11.2305 13.5685 11.344 13.5122 11.3599 13.5052C11.709 13.3473 12.1328 13.2611 12.64 13.2611Z" fill="#74BB44"/>
<path d="M28.7064 12.8278C28.5424 11.95 28.0202 11.5173 27.5481 11.3471C27.0392 11.163 26.0065 10.9723 24.7097 10.8197C23.6659 10.6965 22.4391 10.7066 21.6981 10.7292C21.6092 10.1201 21.182 9.56359 20.7038 9.37094C19.4307 8.85864 17.4622 8.98241 16.9574 9.12389C16.5557 9.23629 16.1113 9.46613 15.8642 9.82039C15.6984 10.0574 15.5909 10.3605 15.59 10.7842C15.59 11.024 15.5967 11.5888 15.6029 12.0908C15.6087 12.594 15.6157 13.0445 15.6157 13.0477C15.6154 13.2634 15.5296 13.4702 15.377 13.6227C15.2245 13.7752 15.0176 13.8609 14.8019 13.8612H12.7368C12.2965 13.8612 11.9597 13.9351 11.7026 14.0519C11.4452 14.1688 11.2628 14.3264 11.1242 14.5128C10.8486 14.8828 10.8006 15.3398 10.8018 15.8063C10.8018 15.8063 10.8057 16.1872 10.8974 16.9248C10.974 17.4952 11.5928 21.4816 12.1806 22.6939C12.4085 23.1653 12.5606 23.3623 13.0081 23.5702C14.0057 23.9974 16.2843 24.4727 17.3526 24.6088C18.4184 24.7453 19.0877 25.0318 19.4863 24.1958C19.4876 24.1932 19.5663 23.9882 19.6742 23.6851C20.0205 22.6364 20.0687 21.7056 20.0687 21.0323C20.0687 20.9636 20.1693 20.9606 20.1693 21.0323C20.1693 21.5079 20.0782 23.1906 21.3495 23.6417C21.8516 23.8194 22.8923 23.9783 23.9505 24.1024C24.9067 24.2127 25.6006 24.5885 25.6006 27.0427C25.6006 28.5354 25.2871 28.7399 23.648 28.7399C22.3192 28.7399 21.8126 28.7742 21.8126 27.7192C21.8126 26.8656 22.6566 26.9553 23.2819 26.9553C23.5615 26.9553 23.3584 26.7477 23.3584 26.2209C23.3584 25.6968 23.6865 25.3942 23.3763 25.3867C21.2139 25.3269 19.9412 25.3841 19.9412 28.089C19.9412 30.5442 20.8807 31.0001 23.9505 31.0001C26.3569 31.0001 27.2046 30.9215 28.1985 27.8383C28.3952 27.2296 28.8711 25.3724 29.1585 22.2534C29.3402 20.2819 28.9866 14.3298 28.7064 12.8278ZM24.5112 19.4062C24.2139 19.396 23.9281 19.4146 23.6615 19.4575C23.7367 18.8517 23.9867 18.1074 24.8731 18.1386C25.8543 18.1725 25.9914 19.0998 25.9948 19.7276C25.5813 19.5434 25.0691 19.4258 24.5112 19.4062Z" fill="#74BB44"/>
</g>
<defs>
<clipPath id="clip0_27158_267868">
<rect width="18.4096" height="22" fill="white" transform="translate(10.8 9)"/>
</clipPath>
</defs>
</svg>
