<svg width="46" height="46" viewBox="0 0 46 46" fill="none" xmlns="http://www.w3.org/2000/svg">
<g clip-path="url(#clip0_27158_147940)">
<path d="M8.89298 10.0835H12.8533C12.9618 10.0833 13.0657 10.0401 13.1424 9.96347C13.2192 9.88681 13.2624 9.7829 13.2627 9.67446C13.2627 9.6729 13.2148 6.2804 13.2148 5.33802V5.3265C13.2148 4.55224 13.377 3.87698 13.6609 3.31037L13.7957 3.05664C13.7784 3.05986 13.7626 3.06847 13.7506 3.08124L6.06087 10.7065C6.04678 10.7181 6.03675 10.7339 6.03223 10.7516C6.19131 10.6729 6.40893 10.5648 6.43944 10.5515C7.10847 10.2488 7.92072 10.0835 8.89298 10.0835Z" fill="#74BB44"/>
<path d="M39.6874 9.25357C39.373 7.57117 38.3721 6.74181 37.4674 6.41554C36.492 6.06281 34.5126 5.69731 32.027 5.40467C30.0264 5.16869 27.675 5.18799 26.2547 5.23126C26.0844 4.0638 25.2656 2.9972 24.3491 2.62797C21.9089 1.64605 18.136 1.88328 17.1684 2.15445C16.3985 2.36988 15.5467 2.81041 15.0732 3.4894C14.7553 3.94363 14.5492 4.52456 14.5477 5.3368C14.5477 5.79631 14.5604 6.87879 14.5723 7.84109C14.5835 8.80557 14.5969 9.66887 14.5969 9.6751C14.5963 10.0885 14.4318 10.4849 14.1394 10.7771C13.847 11.0694 13.4506 11.2338 13.0371 11.2342H9.07896C8.23496 11.2342 7.58958 11.3759 7.09676 11.5997C6.60331 11.8239 6.25369 12.1258 5.98813 12.4832C5.45982 13.1924 5.36798 14.0682 5.37015 14.9623C5.37015 14.9623 5.37763 15.6924 5.55352 17.1061C5.70016 18.1995 6.8863 25.84 8.01298 28.1637C8.44977 29.0672 8.74117 29.4448 9.59887 29.8433C11.511 30.6621 15.8783 31.573 17.9259 31.8339C19.9688 32.0954 21.2514 32.6446 22.0154 31.0422C22.0179 31.0372 22.1689 30.6443 22.3756 30.0634C23.0394 28.0535 23.1318 26.2693 23.1318 24.9789C23.1318 24.8472 23.3245 24.8416 23.3245 24.9789C23.3245 25.8904 23.1499 29.1157 25.5866 29.9803C26.5489 30.3209 28.5436 30.6253 30.5718 30.8632C32.4046 31.0746 33.7346 31.795 33.7346 36.4988C33.7346 39.3598 33.1337 39.7518 29.9922 39.7518C27.4452 39.7518 26.4742 39.8175 26.4742 37.7954C26.4742 36.1594 28.0918 36.3313 29.2904 36.3313C29.8262 36.3313 29.4371 35.9334 29.4371 34.9238C29.4371 33.9192 30.0659 33.3392 29.4713 33.3248C25.3267 33.2103 22.8874 33.3199 22.8874 38.5043C22.8874 43.21 24.6881 44.0839 30.5718 44.0839C35.1841 44.0839 36.8089 43.9332 38.7139 38.0236C39.0909 36.8571 40.0031 33.2974 40.5538 27.3194C40.9022 23.5405 40.2244 12.1324 39.6874 9.25357ZM31.6465 21.8622C31.0768 21.8426 30.5289 21.8784 30.018 21.9606C30.1621 20.7993 30.6413 19.3728 32.3402 19.4326C34.2209 19.4977 34.4836 21.275 34.4902 22.4783C33.6975 22.1253 32.7159 21.8999 31.6465 21.8622Z" fill="#74BB44"/>
</g>
<defs>
<clipPath id="clip0_27158_147940">
<rect width="35.2851" height="42.1667" fill="white" transform="translate(5.36621 1.91699)"/>
</clipPath>
</defs>
</svg>
