<svg width="23" height="22" viewBox="0 0 23 22" fill="none" xmlns="http://www.w3.org/2000/svg">
<g clip-path="url(#clip0_27158_192593)">
<path d="M17.377 0.100098H5.7775C4.18388 0.100098 3.70813 1.30822 3.70813 2.06823V20.5319C3.70813 21.4417 4.17013 21.71 4.42313 21.8149C4.52213 21.8558 4.68713 21.8925 4.87825 21.8925C5.17388 21.8925 5.53275 21.8054 5.82288 21.5166C5.82288 21.5166 11.3325 15.0892 11.4219 14.9843C11.5113 14.8795 11.5553 14.8795 11.6158 14.8795H15.1C16.5891 14.8795 16.8724 13.8498 17.036 13.2246C17.1694 12.7029 18.7039 5.24584 19.1796 2.88953C19.5358 1.06986 19.0738 0.100098 17.377 0.100098Z" fill="#EC407A"/>
<path d="M14.5706 11.6243C14.5046 11.9403 14.2255 12.1555 13.8996 12.1555H11.6144C10.7124 12.1555 9.92038 12.5246 9.32363 13.2219L6.45813 16.5657V3.50523C6.45813 3.12931 6.76613 2.82422 7.14563 2.82422H15.5469C15.9814 2.82422 16.3086 3.21103 16.222 3.63326C16.0969 4.2489 15.9525 4.94898 15.8026 5.68175C15.7366 5.99911 15.4548 6.22929 15.1289 6.22929H11.2706C10.8911 6.22929 10.5831 6.53438 10.5831 6.9103V8.27233C10.5831 8.64825 10.8911 8.95335 11.2706 8.95335H14.2846C14.7205 8.95335 15.045 9.35378 14.957 9.77601C14.8071 10.4992 14.6724 11.1394 14.5706 11.6243Z" fill="#FAFAFA"/>
</g>
<defs>
<clipPath id="clip0_27158_192593">
<rect width="22" height="21.7925" fill="white" transform="translate(0.5 0.100098)"/>
</clipPath>
</defs>
</svg>
