<svg width="40" height="41" viewBox="0 0 40 41" fill="none" xmlns="http://www.w3.org/2000/svg">
<g clip-path="url(#clip0_27158_107004)">
<path d="M31.8756 5.01052C31.6615 4.71396 31.318 4.53833 30.9523 4.53833H24.68H15.1553H8.65962C8.28383 4.53833 7.93227 4.72372 7.71993 5.0338L0.593506 15.443L19.7947 35.951C19.8415 36.001 19.9049 36.025 19.9679 36.0239C19.9746 36.0239 19.9813 36.0227 19.988 36.022C20.0412 36.0164 20.093 35.9936 20.1328 35.9514L39.4067 15.443L31.8756 5.01052Z" fill="#2B96F5"/>
<path d="M15.1553 4.53833H8.65962C8.28383 4.53833 7.93227 4.72372 7.71993 5.0338L0.593506 15.443H12.1263L15.1553 4.53833Z" fill="#49D5FF"/>
<path d="M39.4065 15.443L31.8755 5.01052C31.6614 4.71396 31.3179 4.53833 30.9522 4.53833H24.6799L27.8738 15.443H39.4065Z" fill="#2B96F5"/>
<path d="M19.9124 35.9839L12.1263 15.4429H0.593506L19.7947 35.951C19.8415 36.0009 19.9049 36.0249 19.9679 36.0238C19.9448 36.0228 19.9221 36.0097 19.9124 35.9839Z" fill="#2BB7FF"/>
<path d="M39.4067 15.4429H27.8738L20.0294 35.984C20.0216 36.0045 20.0058 36.0171 19.988 36.0219C20.0412 36.0163 20.093 35.9935 20.1328 35.9513L39.4067 15.4429Z" fill="#2B84E9"/>
<path d="M27.8738 15.443L24.6799 4.53833H15.1552L12.1262 15.443H27.8738Z" fill="#2BB7FF"/>
<path d="M20.0293 35.984L27.8738 15.4429H12.1262L19.9123 35.9839C19.922 36.0097 19.9447 36.0228 19.9678 36.0239C19.9745 36.0238 19.9812 36.0226 19.9879 36.0219C20.0056 36.017 20.0215 36.0044 20.0293 35.984Z" fill="#2B96F5"/>
<path d="M39.9703 15.628C39.9767 15.6085 39.982 15.5888 39.9863 15.5689C39.9877 15.5629 39.9891 15.5569 39.9901 15.5509C39.9945 15.5273 39.9978 15.5036 39.9992 15.4797C39.9994 15.4769 39.9993 15.4741 39.9994 15.4714C40.0004 15.4501 40.0001 15.4289 39.9988 15.4077C39.9985 15.4008 39.9979 15.394 39.9972 15.387C39.9953 15.3666 39.9924 15.3464 39.9884 15.3263C39.9877 15.3228 39.9873 15.3192 39.9865 15.3157C39.9813 15.292 39.9744 15.2687 39.9663 15.2456C39.9646 15.2408 39.9627 15.2362 39.9609 15.2315C39.9535 15.2119 39.945 15.1928 39.9354 15.174C39.9333 15.1699 39.9313 15.1657 39.9292 15.1615C39.9172 15.1393 39.9039 15.1176 39.8889 15.0968C39.8886 15.0963 39.8884 15.0958 39.8881 15.0954L32.3571 4.66277C32.0323 4.21293 31.5071 3.94434 30.9523 3.94434H24.68H19.507C19.179 3.94434 18.9132 4.2102 18.9132 4.53817C18.9132 4.86613 19.179 5.13199 19.507 5.13199H24.2351L27.0811 14.849H17.2636C16.9356 14.849 16.6698 15.1148 16.6698 15.4428C16.6698 15.7708 16.9357 16.0366 17.2636 16.0366H27.0118L19.9863 34.4616L12.9872 16.0367H14.3868C14.7148 16.0367 14.9806 15.7708 14.9806 15.4429C14.9806 15.1149 14.7147 14.849 14.3868 14.849H12.9076L15.6067 5.13207H17.1448C17.4729 5.13207 17.7386 4.86621 17.7386 4.53824C17.7386 4.21027 17.4728 3.94441 17.1448 3.94441H15.1553H8.65957C8.08754 3.94441 7.55316 4.22621 7.22996 4.69824L0.109083 15.0992C0.108536 15.1 0.108068 15.1008 0.107521 15.1015L0.103536 15.1073C0.102208 15.1093 0.101349 15.1113 0.100021 15.1133C0.0876769 15.1318 0.0765832 15.1508 0.0664269 15.1703C0.0639269 15.1751 0.0614269 15.1801 0.059005 15.185C0.0486925 15.2064 0.0393175 15.2282 0.0317393 15.2505C0.0315049 15.2513 0.0311143 15.252 0.0308799 15.2527C0.0231456 15.2757 0.017208 15.299 0.0123643 15.3226C0.0111143 15.3287 0.0101768 15.3348 0.00908302 15.341C0.00587989 15.3595 0.00353614 15.3781 0.00212988 15.3969C0.00166113 15.4027 0.000958007 15.4086 0.000723631 15.4144C-0.000370121 15.438 -0.000291996 15.4616 0.00142676 15.4851C0.00173926 15.4893 0.00236426 15.4933 0.00275489 15.4974C0.00462989 15.5176 0.00759864 15.5378 0.0115049 15.5579C0.0126768 15.5637 0.0138487 15.5695 0.0151768 15.5753C0.0261143 15.6231 0.0429112 15.6697 0.06588 15.7144C0.0668175 15.7162 0.0673644 15.718 0.0683019 15.7197C0.0697863 15.7226 0.0717394 15.725 0.0732238 15.7277C0.0829113 15.7455 0.0936144 15.7627 0.105333 15.7797C0.108614 15.7844 0.111739 15.7893 0.115099 15.794C0.128927 15.8128 0.143693 15.8312 0.160099 15.8487L0.162521 15.8513L0.162833 15.8516L19.3612 36.3568C19.5165 36.5227 19.7359 36.6178 19.9631 36.6181C19.9631 36.6181 19.9636 36.6181 19.9638 36.6181C20.1908 36.6181 20.4101 36.5232 20.5654 36.3578L36.5045 19.3979C36.7291 19.1589 36.7174 18.783 36.4785 18.5584C36.2395 18.3338 35.8635 18.3455 35.639 18.5845L21.6259 33.4953L28.283 16.0368H38.0336L37.2313 16.8904C37.0067 17.1294 37.0184 17.5052 37.2574 17.7298C37.372 17.8376 37.5181 17.8909 37.664 17.8909C37.8221 17.8909 37.9799 17.8281 38.0968 17.7037L39.8394 15.8496C39.8396 15.8493 39.8399 15.849 39.8402 15.8487C39.8422 15.8465 39.844 15.844 39.846 15.8417C39.8609 15.8254 39.8745 15.8084 39.8871 15.791C39.891 15.7856 39.8947 15.7801 39.8985 15.7746C39.9102 15.7572 39.921 15.7394 39.9306 15.7212C39.9321 15.7184 39.934 15.7161 39.9353 15.7133C39.9359 15.7122 39.9362 15.7111 39.9367 15.71C39.9481 15.6874 39.9579 15.6644 39.9662 15.6409C39.9678 15.6365 39.9689 15.6322 39.9703 15.628ZM11.7167 16.0367L18.3758 33.5667L1.96299 16.0367H11.7167ZM8.20996 5.3691C8.3116 5.22067 8.47965 5.13207 8.65949 5.13207H14.374L11.6749 14.849H1.71971L8.20996 5.3691ZM31.3941 5.35801L38.2455 14.849H28.3187L25.4726 5.13207H30.9523C31.1268 5.13207 31.292 5.21653 31.3941 5.35801Z" fill="black"/>
</g>
<defs>
<clipPath id="clip0_27158_107004">
<rect width="40" height="40" fill="white" transform="translate(0 0.28125)"/>
</clipPath>
</defs>
</svg>
