<svg width="40" height="40" viewBox="0 0 40 40" fill="none" xmlns="http://www.w3.org/2000/svg">
<rect x="0.5" y="0.5" width="39" height="39" rx="19.5" fill="#F9F9F9"/>
<rect x="0.5" y="0.5" width="39" height="39" rx="19.5" stroke="#F1F1F4"/>
<path d="M19.9999 30.9903L24.0507 17.4685H15.949L19.9998 30.9903H19.9999Z" fill="#E24329"/>
<path d="M20 30.9902L15.949 17.4684H10.272L20 30.9902Z" fill="#FC6D26"/>
<path d="M10.272 17.4684L9.04106 21.5776C8.98632 21.7603 8.98631 21.9571 9.04103 22.1398C9.09575 22.3225 9.20239 22.4817 9.34566 22.5946L20 30.9903L10.2719 17.4685L10.272 17.4684Z" fill="#FCA326"/>
<path d="M10.272 17.4684H15.949L13.5094 9.32428C13.3838 8.90521 12.8372 8.9053 12.7117 9.32428L10.272 17.4684Z" fill="#E24329"/>
<path d="M20.0001 30.9902L24.0509 17.4684H29.7281L20 30.9902H20.0001Z" fill="#FC6D26"/>
<path d="M29.728 17.4684L30.959 21.5776C31.0137 21.7603 31.0137 21.9571 30.9589 22.1398C30.9042 22.3225 30.7976 22.4817 30.6543 22.5946L20 30.9903L29.728 17.4685V17.4684Z" fill="#FCA326"/>
<path d="M29.7279 17.4684H24.0508L26.4905 9.32428C26.6161 8.90521 27.1627 8.9053 27.2882 9.32428L29.7279 17.4684Z" fill="#E24329"/>
</svg>
