<svg width="30" height="30" viewBox="0 0 30 30" fill="none" xmlns="http://www.w3.org/2000/svg">
<g clip-path="url(#clip0_27158_61741)">
<path d="M25.597 20.5459H16.3066C16.1567 20.5459 16.0114 20.5962 15.894 20.6901L8.97063 26.1946C8.79173 26.3366 8.89236 26.6228 9.12157 26.6228H25.7032C27.3423 26.6228 28.816 25.1514 28.7009 23.3814C28.5958 21.7669 27.2205 20.5459 25.597 20.5459Z" fill="#00C9DB"/>
<path d="M18.081 14.7996C18.081 14.7918 18.0798 14.784 18.0787 14.775C18.0273 13.9454 17.6371 13.1392 16.9282 12.5858L6.14957 4.01654C4.83355 2.98788 2.9294 3.21933 1.89626 4.53199C0.863128 5.84578 1.09346 7.74322 2.40836 8.77188L10.2229 14.9841L2.40836 21.1964C1.09346 22.2239 0.863128 24.1225 1.89626 25.4351C2.9294 26.7478 4.83355 26.9792 6.14957 25.9506L16.9293 17.3802C17.6382 16.8268 18.0284 16.0206 18.0798 15.191C18.081 15.1831 18.081 15.1753 18.0821 15.1664C18.0854 15.1049 18.0865 15.0445 18.0865 14.983C18.0865 14.9226 18.0843 14.8611 18.081 14.7996Z" fill="#0D55FF"/>
<path d="M28.7501 23.5838C28.7501 25.2621 27.3871 26.6217 25.7032 26.6217C24.0216 26.6217 22.6586 25.261 22.6586 23.5838C22.6586 21.9066 24.0216 20.5459 25.7032 20.5459C27.3871 20.5459 28.7501 21.9066 28.7501 23.5838Z" fill="#7000F2"/>
</g>
<defs>
<clipPath id="clip0_27158_61741">
<rect width="27.5" height="23.2478" fill="white" transform="translate(1.25 3.375)"/>
</clipPath>
</defs>
</svg>
