<svg width="24" height="25" viewBox="0 0 24 25" fill="none" xmlns="http://www.w3.org/2000/svg">
<path d="M8.58564 15.6829C8.15286 15.3905 7.85328 14.9636 7.6897 14.3991L8.69418 13.9851C8.78536 14.3325 8.94456 14.6017 9.17182 14.7928C9.39762 14.9838 9.67262 15.0779 9.99394 15.0779C10.3225 15.0779 10.6047 14.978 10.8406 14.7783C11.0766 14.5786 11.1953 14.3238 11.1953 14.0155C11.1953 13.7 11.0708 13.4423 10.8218 13.2426C10.5729 13.0429 10.2603 12.943 9.88682 12.943H9.30644V11.9487H9.82748C10.1488 11.9487 10.4195 11.8618 10.6395 11.6881C10.8595 11.5145 10.9695 11.2771 10.9695 10.9746C10.9695 10.7054 10.871 10.4912 10.6742 10.3305C10.4773 10.1699 10.2284 10.0888 9.92588 10.0888C9.6306 10.0888 9.39616 10.167 9.22243 10.3248C9.04876 10.4826 8.92281 10.6765 8.84324 10.9052L7.8489 10.4912C7.9806 10.1178 8.22234 9.78776 8.57692 9.50266C8.93154 9.21752 9.38456 9.07422 9.93456 9.07422C10.3413 9.07422 10.7074 9.15238 11.0317 9.31016C11.3559 9.46794 11.6106 9.68648 11.7945 9.96436C11.9783 10.2437 12.0695 10.5563 12.0695 10.9037C12.0695 11.2583 11.9841 11.5579 11.8133 11.804C11.6425 12.05 11.4326 12.2382 11.1837 12.3699V12.4293C11.5122 12.5668 11.78 12.7766 11.9913 13.0589C12.2012 13.3411 12.3068 13.6784 12.3068 14.072C12.3068 14.4657 12.207 14.8174 12.0072 15.1257C11.8075 15.434 11.531 15.6772 11.1807 15.8537C10.829 16.0303 10.4339 16.1201 9.99536 16.1201C9.48734 16.1215 9.01842 15.9753 8.58564 15.6829Z" fill="#0085F7"/>
<path d="M14.7557 10.6986L13.6527 11.4961L13.1013 10.6595L15.0799 9.23242H15.8383V15.9641H14.7557V10.6986Z" fill="#0085F7"/>
<path d="M17.7894 18.2798H6.21045L4.55298 20.722L6.21045 23.4903H17.7894L19.1587 20.545L17.7894 18.2798Z" fill="#00A94B"/>
<path d="M17.7895 1.49023H2.73684C1.77722 1.49023 1 2.26745 1 3.22707V18.2797L3.60528 20.1318L6.21056 18.2797V6.70075H17.7895L19.572 4.09547L17.7895 1.49023Z" fill="#0085F7"/>
<path d="M1 18.2798V21.7535C1 22.7131 1.77722 23.4903 2.73684 23.4903H6.21052V18.2798H1Z" fill="#00802E"/>
<path d="M23.0001 6.7008L20.3948 5.02441L17.7896 6.7008V18.2798L20.1326 19.5028L23.0001 18.2798V6.7008Z" fill="#FFBC00"/>
<path d="M23.0001 6.70075V3.22707C23.0001 2.26745 22.2229 1.49023 21.2632 1.49023H17.7896V6.70075H23.0001Z" fill="#0067D5"/>
<path d="M17.7896 23.4903L23.0001 18.2798H17.7896V23.4903Z" fill="#FF4131"/>
</svg>
