<svg width="40" height="41" viewBox="0 0 40 41" fill="none" xmlns="http://www.w3.org/2000/svg">
<path d="M1.66663 4.66992H20.5778C33.4134 4.66992 38.3333 11.6793 38.3333 20.5214C38.3333 31.1241 31.4629 36.4441 20.5778 36.4441H1.66663V4.66992ZM3.49996 6.50325V34.6119H20.5778C30.8884 34.6119 36.4983 29.8075 36.4983 20.5214C36.4983 10.9781 30.4171 6.50269 20.5778 6.50269H3.49996V6.50325Z" fill="black"/>
<path d="M5.79138 22.5879H11.2583V32.3178H5.79138V22.5879Z" fill="black"/>
<path d="M8.52416 21.0834C10.4006 21.0834 11.9218 19.5622 11.9218 17.6857C11.9218 15.8093 10.4006 14.2881 8.52416 14.2881C6.6477 14.2881 5.12653 15.8093 5.12653 17.6857C5.12653 19.5622 6.6477 21.0834 8.52416 21.0834Z" fill="black"/>
<path d="M22.7229 19.2751V20.8506H18.8276V14.5284H22.5985V16.1033H20.4025V16.8353H22.4791V18.4108H20.4025V19.2756L22.7229 19.2751ZM23.4045 20.8517L25.3107 14.5261H27.5515L29.4571 20.8517H27.8177L27.4601 19.6282H25.3998L25.0416 20.8517H23.4045ZM25.8616 18.0543H27.0016L26.4787 16.2675H26.3834L25.8616 18.0543ZM30.2491 14.5267H31.8251V19.2756H34.1579C33.5178 10.6588 26.7405 8.79688 20.5785 8.79688H14.0114V14.53H14.9832C16.7555 14.53 17.8557 15.7317 17.8557 17.6654C17.8557 19.6607 16.7818 20.8517 14.9832 20.8517H14.0114V32.3225H20.5791C30.5926 32.3225 34.08 27.6716 34.2033 20.8506H30.2491V14.5267ZM14.0103 16.105V19.2756H14.9832C15.6575 19.2756 16.2808 19.0806 16.2808 17.6648C16.2808 16.2821 15.5874 16.105 14.9832 16.105H14.0103Z" fill="#D50072"/>
</svg>
