<svg width="24" height="25" viewBox="0 0 24 25" fill="none" xmlns="http://www.w3.org/2000/svg">
<path fill-rule="evenodd" clip-rule="evenodd" d="M6.63197 1.64063H13.993L20.2241 8.14158V20.7787C20.2241 22.3594 18.9428 23.6406 17.3621 23.6406H6.63197C5.05121 23.6406 3.77002 22.3594 3.77002 20.7787V4.50257C3.77002 2.92184 5.05121 1.64063 6.63197 1.64063Z" fill="#FF6600"/>
<path opacity="0.302" fill-rule="evenodd" clip-rule="evenodd" d="M13.984 1.64062V8.08818H20.224L13.984 1.64062Z" fill="white"/>
<path d="M9.00155 18.0559H10.1137C10.1434 18.0559 10.17 18.0351 10.176 18.0085L10.5022 16.837H11.7627L12.1126 18.0085C12.1215 18.0351 12.1482 18.0559 12.1779 18.0559H13.3316C13.3701 18.0559 13.3998 18.0262 13.3998 17.9907C13.3998 17.9788 13.3968 17.9699 13.3939 17.961L11.9228 13.2217C11.9139 13.195 11.8902 13.1772 11.8605 13.1772H10.4518C10.4221 13.1772 10.3955 13.195 10.3895 13.2217L8.93628 17.9699C8.93036 17.9907 8.93628 18.0114 8.94815 18.0292C8.96005 18.044 8.98081 18.0559 9.00155 18.0559ZM14.417 14.1885C14.7907 14.1885 15.0606 13.9365 15.0606 13.5865C15.0517 13.2276 14.7907 12.9785 14.423 12.9785C14.2361 12.9785 14.07 13.0438 13.9544 13.1594C13.8476 13.2692 13.7913 13.4234 13.7942 13.5865C13.7913 13.7466 13.8476 13.8949 13.9574 14.0047C14.07 14.1233 14.2332 14.1885 14.417 14.1885ZM13.8891 14.4792C13.8506 14.4792 13.8209 14.5088 13.8209 14.5444V17.9906C13.8209 18.0262 13.8506 18.0559 13.8891 18.0559H14.9598C14.9953 18.0559 15.025 18.0262 15.025 17.9906V14.5444C15.025 14.5088 14.9953 14.4792 14.9598 14.4792H13.8891ZM11.567 15.9028H10.695L10.953 14.9774C10.9975 14.8114 11.042 14.6156 11.0865 14.4258C11.0954 14.3813 11.1043 14.3398 11.1161 14.2953C11.1725 14.5237 11.2348 14.7698 11.297 14.9804L11.567 15.9028Z" fill="white"/>
</svg>
