<svg width="46" height="46" viewBox="0 0 46 46" fill="none" xmlns="http://www.w3.org/2000/svg">
<g clip-path="url(#clip0_27158_147927)">
<path d="M16.0352 11.2275L15.5066 11.5783C11.1493 14.4282 8.85348 18.4834 8.80101 23.6758C8.73348 30.3162 13.4124 36.0922 19.8848 37.5781C28.2396 39.4964 36.508 33.4398 37.1801 24.9095C37.7116 18.1624 33.1496 12.1011 26.7125 10.0058C25.7419 8.92354 24.8605 5.28629 26.3945 3.6296C32.7206 5.03536 37.4634 8.26552 40.5212 13.468C47.2073 24.8434 41.1965 39.6711 28.4965 43.2128C16.6991 46.5027 4.76239 38.7257 2.99806 26.6001C1.04017 15.2942 9.0231 5.23636 20.2861 3.5459C17.6585 5.92228 16.2527 9.18573 16.0352 11.2275Z" fill="#494949"/>
<path d="M31.1702 20.8538C32.0798 19.1588 32.0386 17.386 31.5221 15.5925C31.3952 15.1512 31.1309 14.3944 30.9526 13.8997C33.9935 16.1469 36.5903 21.5502 35.2703 26.9199C34.0475 31.8951 29.2792 35.9023 24.3603 36.3657C18.0259 36.9622 13.1006 33.1664 11.2469 28.5519C9.27016 23.6322 10.8531 17.5815 14.2505 14.5691C12.5881 17.9161 13.1027 20.5731 13.782 21.5646C14.537 22.6667 15.7391 23.2381 16.9123 22.9117C18.1456 22.5687 19.0918 21.4652 19.0704 20.0584C19.0561 19.119 18.8885 18.0596 18.5181 17.2133C16.3199 12.1918 18.1522 7.66319 21.6978 4.54447C22.7269 3.63932 23.9235 2.77062 25.4467 1.91699C23.773 4.29337 23.4886 7.18874 24.7603 9.88311C25.506 11.3513 26.4612 12.8847 27.3042 14.3012C28.8192 16.8472 29.7483 19.4649 29.346 22.5018C29.3415 22.5354 30.551 22.0332 31.1702 20.8538Z" fill="#FB3239"/>
</g>
<defs>
<clipPath id="clip0_27158_147927">
<rect width="40.5812" height="42.1667" fill="white" transform="translate(2.70215 1.91699)"/>
</clipPath>
</defs>
</svg>
