<svg width="40" height="40" viewBox="0 0 40 40" fill="none" xmlns="http://www.w3.org/2000/svg">
<rect x="0.5" y="0.5" width="39" height="39" rx="19.5" fill="#F9F9F9"/>
<rect x="0.5" y="0.5" width="39" height="39" rx="19.5" stroke="#F1F1F4"/>
<g clip-path="url(#clip0_27158_267860)">
<path d="M16.3663 13.8578L16.0905 14.0408C13.8171 15.5277 12.6193 17.6435 12.5919 20.3525C12.5567 23.8171 14.9979 26.8306 18.3747 27.6059C22.7338 28.6068 27.0477 25.4468 27.3984 20.9962C27.6757 17.476 25.2955 14.3135 21.9371 13.2203C21.4307 12.6557 20.9708 10.758 21.7712 9.89364C25.0717 10.6271 27.5462 12.3124 29.1416 15.0267C32.63 20.9617 29.4939 28.6979 22.8678 30.5457C16.7127 32.2622 10.4848 28.2046 9.5643 21.8783C8.54279 15.9795 12.7078 10.732 18.5842 9.84998C17.2132 11.0898 16.4798 12.7925 16.3663 13.8578Z" fill="#494949"/>
<path d="M24.2626 18.8802C24.7372 17.9958 24.7157 17.0709 24.4462 16.1352C24.38 15.9049 24.2421 15.5101 24.1491 15.252C25.7356 16.4244 27.0905 19.2435 26.4018 22.0451C25.7638 24.6409 23.276 26.7316 20.7096 26.9733C17.4047 27.2846 14.835 25.3042 13.8678 22.8966C12.8365 20.3298 13.6624 17.1729 15.435 15.6012C14.5676 17.3475 14.8361 18.7337 15.1905 19.2511C15.5844 19.826 16.2116 20.1242 16.8237 19.9539C17.4671 19.7749 17.9608 19.1992 17.9496 18.4652C17.9422 17.9751 17.8548 17.4223 17.6615 16.9808C16.5146 14.3609 17.4706 11.9981 19.3205 10.371C19.8574 9.89873 20.4817 9.4455 21.2764 9.00012C20.4032 10.24 20.2548 11.7506 20.9183 13.1564C21.3074 13.9224 21.8057 14.7224 22.2456 15.4615C23.036 16.7898 23.5207 18.1555 23.3108 19.74C23.3085 19.7576 23.9396 19.4955 24.2626 18.8802Z" fill="#FB3239"/>
</g>
<defs>
<clipPath id="clip0_27158_267860">
<rect width="21.1728" height="22" fill="white" transform="translate(9.40991 9)"/>
</clipPath>
</defs>
</svg>
