<svg width="50" height="51" viewBox="0 0 50 51" fill="none" xmlns="http://www.w3.org/2000/svg">
<path d="M19 4.25316C22.7128 2.10957 27.2872 2.10957 31 4.25316L40.6506 9.82496C44.3634 11.9686 46.6506 15.9301 46.6506 20.2173V31.3609C46.6506 35.648 44.3634 39.6096 40.6506 41.7532L31 47.325C27.2872 49.4686 22.7128 49.4686 19 47.325L9.34937 41.7532C5.63655 39.6096 3.34937 35.648 3.34937 31.3609V20.2173C3.34937 15.9301 5.63655 11.9686 9.34937 9.82496L19 4.25316Z" fill="#FFF5EF"/>
<path d="M19.25 4.68618C22.8081 2.6319 27.1919 2.6319 30.75 4.68618L40.4006 10.258C43.9587 12.3123 46.1506 16.1087 46.1506 20.2173V31.3609C46.1506 35.4694 43.9587 39.2659 40.4006 41.3201L30.75 46.8919C27.1919 48.9462 22.8081 48.9462 19.25 46.8919L9.59937 41.3202C6.04125 39.2659 3.84937 35.4694 3.84937 31.3609V20.2173C3.84937 16.1087 6.04125 12.3123 9.59937 10.258L19.25 4.68618Z" stroke="#FF6F1E" stroke-opacity="0.2"/>
<path opacity="0.1" d="M25.0347 35.7807C24.3141 35.7839 23.6057 35.5948 22.9827 35.2328L17.8759 32.2895C17.2555 31.928 16.7405 31.4104 16.3821 30.7882C16.0237 30.1659 15.8345 29.4607 15.8333 28.7426V22.8374C15.8345 22.1193 16.0237 21.4141 16.3821 20.7918C16.7405 20.1696 17.2555 19.652 17.8759 19.2905L22.9827 16.3472C23.6066 15.987 24.3143 15.7974 25.0347 15.7974C25.7551 15.7974 26.4628 15.987 27.0866 16.3472L32.1934 19.2905C32.8138 19.652 33.3289 20.1696 33.6872 20.7918C34.0456 21.4141 34.2348 22.1193 34.2361 22.8374V28.7426C34.2348 29.4607 34.0456 30.1659 33.6872 30.7882C33.3289 31.4104 32.8138 31.928 32.1934 32.2895L27.0866 35.2328C26.4636 35.5948 25.7552 35.7839 25.0347 35.7807Z" fill="#FF6F1E"/>
<path fill-rule="evenodd" clip-rule="evenodd" d="M25.009 35.8722C24.2818 35.8755 23.5669 35.6846 22.9382 35.3194L17.7846 32.349C17.1584 31.9842 16.6387 31.4619 16.277 30.8339C15.9154 30.206 15.7244 29.4943 15.7231 28.7696V22.8102C15.7244 22.0855 15.9154 21.3738 16.277 20.7459C16.6387 20.1179 17.1584 19.5956 17.7846 19.2308L22.9382 16.2604C23.5678 15.8969 24.282 15.7056 25.009 15.7056C25.736 15.7056 26.4502 15.8969 27.0798 16.2604L32.2334 19.2308C32.8595 19.5956 33.3793 20.1179 33.7409 20.7459C34.1026 21.3738 34.2935 22.0855 34.2948 22.8102V28.7696C34.2935 29.4943 34.1026 30.206 33.7409 30.8339C33.3793 31.4619 32.8595 31.9842 32.2334 32.349L27.0798 35.3194C26.451 35.6846 25.7361 35.8755 25.009 35.8722ZM25.009 17.1319C24.5301 17.1321 24.0592 17.2546 23.6409 17.4879L18.4499 20.4489C18.0438 20.6942 17.7086 21.0408 17.477 21.4548C17.2453 21.8688 17.1253 22.3358 17.1287 22.8102V28.7696C17.1253 29.244 17.2453 29.711 17.477 30.125C17.7086 30.539 18.0438 30.8856 18.4499 31.1309L23.6035 34.1106C24.0218 34.3436 24.4927 34.466 24.9715 34.466C25.4503 34.466 25.9212 34.3436 26.3395 34.1106L31.5681 31.1309C31.9811 30.8903 32.3238 30.5457 32.5622 30.1314C32.8006 29.7171 32.9263 29.2476 32.9268 28.7696V22.8102C32.9263 22.3322 32.8006 21.8627 32.5622 21.4484C32.3238 21.0341 31.9811 20.6895 31.5681 20.4489L26.4145 17.4692C25.9852 17.2296 25.5006 17.1069 25.009 17.1131V17.1319ZM25.0091 24.4784C25.2576 24.4784 25.4959 24.5771 25.6716 24.7528C25.8474 24.9285 25.9461 25.1669 25.9461 25.4154V29.7819C25.9461 30.0304 25.8474 30.2687 25.6716 30.4444C25.4959 30.6202 25.2576 30.7189 25.0091 30.7189C24.7606 30.7189 24.5222 30.6202 24.3465 30.4444C24.1708 30.2687 24.0721 30.0304 24.0721 29.7819V25.4154C24.0721 25.1669 24.1708 24.9285 24.3465 24.7528C24.5222 24.5771 24.7606 24.4784 25.0091 24.4784ZM26.1803 22.0322C26.1803 22.6791 25.6559 23.2035 25.009 23.2035C24.3621 23.2035 23.8377 22.6791 23.8377 22.0322C23.8377 21.3853 24.3621 20.8609 25.009 20.8609C25.6559 20.8609 26.1803 21.3853 26.1803 22.0322Z" fill="#FF6F1E"/>
</svg>
