<svg width="28" height="28" viewBox="0 0 28 28" fill="none" xmlns="http://www.w3.org/2000/svg">
<g clip-path="url(#clip0_27732_79734)">
<path d="M22.9917 27.5226C17.0162 28.1601 10.9899 28.1601 5.01443 27.5226C3.85405 27.4001 2.77073 26.8835 1.94507 26.059C1.11942 25.2345 0.60132 24.1519 0.477154 22.9917C-0.160353 17.0162 -0.160353 10.9899 0.477154 5.01443C0.599692 3.85405 1.11627 2.77073 1.94077 1.94507C2.76526 1.11942 3.84785 0.60132 5.00806 0.477154C10.9835 -0.160353 17.0099 -0.160353 22.9853 0.477154C24.1457 0.599692 25.229 1.11627 26.0547 1.94077C26.8803 2.76526 27.3984 3.84785 27.5226 5.00806C28.1601 10.9835 28.1601 17.0099 27.5226 22.9853C27.4001 24.1457 26.8835 25.229 26.059 26.0547C25.2345 26.8803 24.1519 27.3984 22.9917 27.5226V27.5226Z" fill="url(#paint0_linear_27732_79734)"/>
<path d="M17.5366 5.25H10.4634C9.08124 5.25168 7.75617 5.80149 6.77883 6.77883C5.80149 7.75617 5.25168 9.08124 5.25 10.4634V17.5366C5.25168 18.9188 5.80149 20.2438 6.77883 21.2212C7.75617 22.1985 9.08124 22.7483 10.4634 22.75H17.5366C18.9188 22.7483 20.2438 22.1985 21.2212 21.2212C22.1985 20.2438 22.7483 18.9188 22.75 17.5366V10.4634C22.7483 9.08124 22.1985 7.75617 21.2212 6.77883C20.2438 5.80149 18.9188 5.25168 17.5366 5.25V5.25ZM20.9889 17.5366C20.9891 17.99 20.8999 18.439 20.7265 18.858C20.5531 19.2769 20.2988 19.6576 19.9782 19.9782C19.6576 20.2988 19.2769 20.5531 18.858 20.7265C18.439 20.8999 17.99 20.9891 17.5366 20.9889H10.4634C10.01 20.9891 9.56098 20.8999 9.14203 20.7265C8.72309 20.5531 8.34243 20.2988 8.02182 19.9782C7.7012 19.6576 7.44692 19.2769 7.2735 18.858C7.10008 18.439 7.01093 17.99 7.01114 17.5366V10.4634C7.01114 9.54781 7.37486 8.66971 8.02228 8.02228C8.66971 7.37486 9.54781 7.01114 10.4634 7.01114H17.5366C18.4522 7.01114 19.3303 7.37486 19.9777 8.02228C20.6251 8.66971 20.9889 9.54781 20.9889 10.4634V17.5366Z" fill="white"/>
<path d="M14 9.47388C13.1048 9.47388 12.2297 9.73933 11.4854 10.2367C10.7411 10.734 10.161 11.4409 9.81841 12.2679C9.47584 13.095 9.38621 14.005 9.56085 14.883C9.73549 15.761 10.1666 16.5675 10.7996 17.2005C11.4325 17.8335 12.239 18.2645 13.117 18.4392C13.995 18.6138 14.905 18.5242 15.7321 18.1816C16.5591 17.839 17.266 17.2589 17.7634 16.5146C18.2607 15.7703 18.5262 14.8952 18.5262 14C18.5245 12.8001 18.0471 11.6499 17.1986 10.8014C16.3502 9.95296 15.1999 9.47556 14 9.47388V9.47388ZM14 16.7666C13.4528 16.7666 12.9179 16.6043 12.463 16.3003C12.008 15.9964 11.6534 15.5643 11.444 15.0587C11.2346 14.5532 11.1798 13.9969 11.2866 13.4603C11.3933 12.9236 11.6568 12.4307 12.0437 12.0437C12.4307 11.6568 12.9236 11.3933 13.4603 11.2866C13.9969 11.1798 14.5532 11.2346 15.0587 11.444C15.5643 11.6534 15.9964 12.008 16.3004 12.463C16.6043 12.9179 16.7666 13.4528 16.7666 14C16.7662 14.7336 16.4746 15.4371 15.9558 15.9558C15.4371 16.4746 14.7336 16.7662 14 16.7666V16.7666Z" fill="white"/>
<path d="M18.5516 10.5923C19.1693 10.5923 19.67 10.0916 19.67 9.47388C19.67 8.8562 19.1693 8.35547 18.5516 8.35547C17.934 8.35547 17.4332 8.8562 17.4332 9.47388C17.4332 10.0916 17.934 10.5923 18.5516 10.5923Z" fill="white"/>
</g>
<defs>
<linearGradient id="paint0_linear_27732_79734" x1="2.08397" y1="25.9158" x2="25.4544" y2="2.54534" gradientUnits="userSpaceOnUse">
<stop stop-color="#E09B3D"/>
<stop offset="0.3" stop-color="#C74C4D"/>
<stop offset="0.6" stop-color="#C21975"/>
<stop offset="1" stop-color="#7024C4"/>
</linearGradient>
<clipPath id="clip0_27732_79734">
<rect width="28" height="28" fill="white"/>
</clipPath>
</defs>
</svg>
