<svg width="46" height="46" viewBox="0 0 46 46" fill="none" xmlns="http://www.w3.org/2000/svg">
<path d="M40.2611 1.91699H5.7395C3.62837 1.91699 1.91699 3.62837 1.91699 5.7395V40.2611C1.91699 42.3723 3.62837 44.0837 5.7395 44.0837H40.2611C42.3723 44.0837 44.0837 42.3723 44.0837 40.2611V5.7395C44.0837 3.62837 42.3723 1.91699 40.2611 1.91699Z" fill="#DC395F"/>
<path d="M16.009 15.1834C17.4107 15.1834 18.585 14.0848 18.585 12.6448C18.585 11.2059 17.4107 10.1074 16.009 10.1074C14.6073 10.1074 13.4334 11.2059 13.4334 12.6448C13.4334 14.0846 14.6073 15.1834 16.009 15.1834ZM10.668 28.7756C10.5166 29.4196 10.4407 30.115 10.4407 30.6823C10.4407 32.9176 11.6528 34.4015 14.2288 34.4015C16.3651 34.4015 18.0971 33.1329 19.3441 31.0844L18.5827 34.1403H22.8249L25.2494 24.4158C25.8556 21.9536 27.0298 20.6756 28.8104 20.6756C30.2119 20.6756 31.0831 21.5473 31.0831 22.9862C31.0831 23.4031 31.0452 23.8572 30.8937 24.3499L29.6435 28.8197C29.4541 29.4637 29.3786 30.1081 29.3786 30.7138C29.3786 32.8358 30.6283 34.3879 33.2422 34.3879C35.4772 34.3879 37.2574 32.9491 38.2424 29.5018L36.5758 28.8584C35.7424 31.1679 35.0226 31.5854 34.4543 31.5854C33.886 31.5854 33.583 31.2069 33.583 30.4497C33.583 30.1088 33.6591 29.7304 33.7724 29.2748L34.9848 24.9201C35.2877 23.8976 35.4016 22.9908 35.4016 22.1577C35.4016 18.9 33.4316 17.1998 31.0452 17.1998C28.8104 17.1998 26.5373 19.2158 25.4011 21.3374L26.2343 17.5293H19.7571L18.8479 20.8835H21.8784L20.0122 28.3549C18.5468 31.6126 15.8548 31.6655 15.517 31.5899C14.9623 31.4647 14.6075 31.254 14.6075 30.5332C14.6075 30.1173 14.6832 29.5199 14.8727 28.7996L17.714 17.5293H10.5166L9.60742 20.8835H12.5998L10.6682 28.7756" fill="white"/>
</svg>
