<svg width="24" height="25" viewBox="0 0 24 25" fill="none" xmlns="http://www.w3.org/2000/svg">
<path fill-rule="evenodd" clip-rule="evenodd" d="M6.63513 1.64063H13.9933L20.2258 8.14294V20.7755C20.2258 22.3569 18.9421 23.6406 17.3607 23.6406H6.63513C5.05374 23.6406 3.77002 22.3569 3.77002 20.7755V4.50574C3.77002 2.92434 5.05374 1.64063 6.63513 1.64063Z" fill="#60A313"/>
<path opacity="0.302" fill-rule="evenodd" clip-rule="evenodd" d="M13.9839 1.64062V8.08713H20.2257L13.9839 1.64062Z" fill="white"/>
<path d="M9.35136 18.2638C9.22114 18.2638 9.1095 18.2452 9.00718 18.1986C8.89555 18.1614 8.80254 18.0963 8.71882 18.0126C8.63509 17.9289 8.56999 17.8359 8.52346 17.7242C8.48624 17.6219 8.46764 17.5103 8.46764 17.3801V16.1801C8.46764 16.0498 8.43042 15.9568 8.36532 15.8917C8.29091 15.8359 8.18859 15.7987 8.03974 15.7987H7.97461V14.8684H8.03974C8.18856 14.8684 8.29091 14.8405 8.36532 14.7754C8.43045 14.7103 8.46764 14.6173 8.46764 14.487V13.287C8.46764 13.1661 8.48624 13.0452 8.52346 12.9429C8.56996 12.8405 8.63509 12.7382 8.71882 12.6545C8.80254 12.5708 8.89555 12.5057 9.00718 12.4684C9.1095 12.4219 9.22114 12.4033 9.35136 12.4033H9.82577V13.3056H9.66764C9.58391 13.3056 9.5281 13.3242 9.4909 13.3615C9.45368 13.408 9.43509 13.4731 9.43509 13.5661V14.6917C9.43509 14.7847 9.41649 14.8777 9.39787 14.9521C9.36996 15.0265 9.33274 15.0917 9.28624 15.1475C9.23973 15.194 9.18392 15.2405 9.11879 15.287L9.02575 15.3335L9.11879 15.38C9.18392 15.4265 9.2397 15.4731 9.28624 15.5196C9.38856 15.6219 9.43506 15.78 9.43506 15.9754V17.1103C9.43506 17.194 9.45366 17.2684 9.49088 17.3056C9.5281 17.3429 9.58391 17.3708 9.66761 17.3708H9.82575V18.2638L9.35136 18.2638ZM14.6444 18.2638H14.17V17.3707H14.3281C14.4025 17.3707 14.4677 17.3428 14.5049 17.3056C14.5421 17.2684 14.5607 17.194 14.5607 17.1103V15.9754C14.5607 15.8824 14.57 15.7893 14.5979 15.7149C14.6165 15.6405 14.6537 15.5754 14.7002 15.5196C14.7467 15.4731 14.8025 15.4265 14.877 15.38L14.9607 15.3335L14.877 15.287C14.8118 15.2405 14.756 15.194 14.7095 15.1475C14.6537 15.0917 14.6165 15.0266 14.5979 14.9521C14.57 14.8777 14.5607 14.7847 14.5607 14.6917V13.5661C14.5607 13.4731 14.5421 13.408 14.5048 13.3615C14.4676 13.3242 14.4025 13.3056 14.3281 13.3056H14.17V12.4033H14.6444C14.7653 12.4033 14.8862 12.4219 14.9886 12.4684C15.1002 12.5057 15.1932 12.5708 15.2769 12.6545C15.3606 12.7382 15.4257 12.8312 15.463 12.9429C15.5095 13.0452 15.5281 13.1661 15.5281 13.287V14.487C15.5281 14.6173 15.5653 14.7103 15.6304 14.7754C15.6955 14.8405 15.8071 14.8684 15.956 14.8684H16.0211V15.7987H15.956C15.8072 15.7987 15.6955 15.8359 15.6304 15.8917C15.5653 15.9568 15.5281 16.0498 15.5281 16.1801V17.3801C15.5281 17.6312 15.4444 17.8452 15.2769 18.0126C15.1932 18.0963 15.1002 18.1614 14.9886 18.1986C14.8863 18.2452 14.7653 18.2638 14.6444 18.2638ZM11.7607 14.1987H12.7746V15.2405H11.6955V14.1987H11.7607ZM11.2025 18.0591L11.6304 16.2917H12.8397C12.5235 16.9056 12.2165 17.5196 11.9095 18.1429H11.1839L11.2025 18.0591Z" fill="white"/>
</svg>
