<svg width="40" height="40" viewBox="0 0 40 40" fill="none" xmlns="http://www.w3.org/2000/svg">
<rect x="0.5" y="0.5" width="39" height="39" rx="19.5" fill="#F9F9F9"/>
<rect x="0.5" y="0.5" width="39" height="39" rx="19.5" stroke="#F1F1F4"/>
<g clip-path="url(#clip0_27158_267852)">
<path d="M30.1324 19.3915L20.7781 10.0372L19.8717 9.13074L12.83 16.1724L9.61001 19.3915C9.44917 19.5531 9.35889 19.7719 9.35889 20C9.35889 20.228 9.44917 20.4468 9.61001 20.6084L16.0432 27.0417L19.8717 30.8692L26.9124 23.8275L27.0221 23.7188L30.1324 20.6133C30.2131 20.5333 30.277 20.4381 30.3207 20.3333C30.3643 20.2284 30.3868 20.116 30.3868 20.0024C30.3868 19.8888 30.3643 19.7764 30.3207 19.6715C30.277 19.5667 30.2131 19.4715 30.1324 19.3915ZM19.8717 23.2141L16.6575 20L19.8717 16.7858L23.0849 20L19.8717 23.2141Z" fill="#2684FF"/>
<path d="M19.8719 16.7858C18.8611 15.7752 18.2912 14.4056 18.2869 12.9762C18.2825 11.5468 18.844 10.1738 19.8486 9.15698L12.8157 16.187L16.6432 20.0146L19.8719 16.7858Z" fill="url(#paint0_linear_27158_267852)"/>
<path d="M23.0938 19.9912L19.8718 23.2141C20.8865 24.2291 21.4565 25.6055 21.4565 27.0407C21.4565 28.4758 20.8865 29.8523 19.8718 30.8672L26.9242 23.8187L23.0938 19.9912Z" fill="url(#paint1_linear_27158_267852)"/>
</g>
<defs>
<linearGradient id="paint0_linear_27158_267852" x1="19.2964" y1="13.5338" x2="14.808" y2="18.0212" gradientUnits="userSpaceOnUse">
<stop offset="0.18" stop-color="#0052CC"/>
<stop offset="1" stop-color="#2684FF"/>
</linearGradient>
<linearGradient id="paint1_linear_27158_267852" x1="20.4852" y1="26.4273" x2="24.9648" y2="21.9486" gradientUnits="userSpaceOnUse">
<stop offset="0.18" stop-color="#0052CC"/>
<stop offset="1" stop-color="#2684FF"/>
</linearGradient>
<clipPath id="clip0_27158_267852">
<rect width="20.7768" height="22" fill="white" transform="translate(9.61011 9)"/>
</clipPath>
</defs>
</svg>
