<svg width="30" height="30" viewBox="0 0 30 30" fill="none" xmlns="http://www.w3.org/2000/svg">
<path d="M20.5269 15.0721L25.3278 9.0358C26.9228 6.98979 26.6167 3.92875 24.4579 2.25324C22.3153 0.609891 19.3024 1.04493 17.6913 3.12316C17.5625 3.26821 13.8572 7.9081 13.3738 8.48809C13.3576 8.52036 13.3415 8.53636 13.3415 8.53636V6.08759C13.3415 3.42927 11.1666 1.25437 8.50827 1.25437C5.84994 1.25437 3.67505 3.42927 3.67505 6.08759V23.9168C3.67505 26.575 5.84994 28.75 8.50827 28.75C11.1666 28.75 13.3415 26.575 13.3415 23.9168V21.5163C13.4705 21.6773 17.6752 26.8704 17.6913 26.8704C19.3508 28.9809 22.3475 29.3676 24.4579 27.7242C26.6328 26.0326 26.9066 23.0629 25.3278 21.0007L20.5269 15.0721Z" fill="#7FE881"/>
<path d="M25.3276 21.0007C26.9064 23.0629 26.6327 26.0326 24.4578 27.7242C22.3474 29.3676 19.3506 28.9809 17.6911 26.8704C17.675 26.8704 13.4704 21.6774 13.3413 21.5163V8.53636C13.3413 8.53636 13.3574 8.52036 13.3736 8.48809C13.857 7.9081 17.5623 3.26821 17.6911 3.12316C19.3022 1.04493 22.3151 0.609891 24.4578 2.25324C26.6165 3.9287 26.9225 6.98979 25.3276 9.0358L20.5267 15.0721L25.3276 21.0007Z" fill="#5BC980"/>
</svg>
