<svg width="20" height="20" viewBox="0 0 20 20" fill="none" xmlns="http://www.w3.org/2000/svg">
<path opacity="0.1" d="M10.0061 19.0831C9.65721 19.0785 9.31287 19.0054 8.99372 18.8681C8.67457 18.7308 8.38718 18.5322 8.14878 18.2841L6.67157 16.7282C6.55344 16.6043 6.41046 16.5053 6.25148 16.4373C6.09249 16.3693 5.92087 16.3338 5.74723 16.3329H4.75377C3.91363 16.3307 3.10855 16.0048 2.51448 15.4264C1.92041 14.848 1.58565 14.0642 1.58337 13.2463V3.99483C1.58793 3.17835 1.92369 2.3967 2.51752 1.82014C3.11134 1.24359 3.91512 0.918833 4.75377 0.916626H15.2584C16.0986 0.918846 16.9036 1.24475 17.4977 1.82313C18.0918 2.4015 18.4265 3.1853 18.4288 4.00324V13.2547C18.4265 14.0726 18.0918 14.8564 17.4977 15.4348C16.9036 16.0132 16.0986 16.3391 15.2584 16.3413H14.3254C13.9969 16.3565 13.6872 16.4952 13.4616 16.7282L11.898 18.3177C11.6526 18.5638 11.3583 18.7586 11.033 18.8901C10.7077 19.0217 10.3583 19.0874 10.0061 19.0831Z" fill="#99A1B7"/>
<path d="M10 19.1665C9.64791 19.1619 9.30041 19.0881 8.97833 18.9495C8.65625 18.811 8.36622 18.6105 8.12564 18.3602L6.63487 16.79C6.51566 16.6649 6.37138 16.565 6.21093 16.4964C6.05049 16.4278 5.87729 16.3919 5.70205 16.3911H4.69949C3.85164 16.3888 3.03917 16.0599 2.43965 15.4763C1.84013 14.8926 1.5023 14.1016 1.5 13.2761V3.93982C1.5046 3.11585 1.84344 2.32703 2.44271 1.74518C3.04199 1.16333 3.85314 0.835601 4.69949 0.833374H15.3005C16.1484 0.835614 16.9608 1.16451 17.5604 1.74819C18.1599 2.33187 18.4977 3.12287 18.5 3.94831V13.2846C18.4977 14.1101 18.1599 14.9011 17.5604 15.4847C16.9608 16.0684 16.1484 16.3973 15.3005 16.3996H14.359C14.0274 16.4149 13.7149 16.5548 13.4872 16.79L11.9092 18.3941C11.6616 18.6424 11.3646 18.839 11.0363 18.9718C10.7081 19.1046 10.3554 19.1708 10 19.1665ZM4.69949 2.10651C4.19775 2.10651 3.71657 2.30055 3.36179 2.64596C3.00701 2.99136 2.80769 3.45983 2.80769 3.94831V13.2846C2.81683 13.7672 3.02017 14.227 3.37397 14.5651C3.72776 14.9032 4.20374 15.0926 4.69949 15.0925H5.70205C6.06028 15.1002 6.41306 15.1796 6.73848 15.3256C7.06391 15.4716 7.35505 15.6811 7.59385 15.9412L9.0759 17.5029C9.19422 17.6262 9.33731 17.7245 9.49628 17.7916C9.65525 17.8588 9.82671 17.8934 10 17.8934C10.3502 17.8778 10.6836 17.7426 10.9415 17.5114L12.5195 15.9412C12.7523 15.6872 13.035 15.4813 13.3509 15.3355C13.6669 15.1897 14.0097 15.1071 14.359 15.0925H15.2308C15.7325 15.0925 16.2137 14.8984 16.5685 14.553C16.9233 14.2076 17.1226 13.7392 17.1226 13.2507V3.91436C17.114 3.44332 16.9203 2.99339 16.5814 2.65712C16.2425 2.32085 15.7841 2.1238 15.3005 2.10651H4.69949ZM14.4636 7.49611C14.3355 7.3249 14.1677 7.18565 13.9737 7.08975C13.7798 6.99386 13.5652 6.94406 13.3477 6.94442H11.8395L12.0313 5.90045C12.1047 5.54549 12.0478 5.1767 11.8703 4.85848C11.6929 4.54026 11.4063 4.29282 11.0605 4.1594C10.7148 4.02597 10.3319 4.01502 9.97872 4.12847C9.62554 4.24192 9.32451 4.47255 9.12821 4.78009L8.25641 6.10415C8.02032 5.88672 7.70953 5.76266 7.38462 5.75616H6.51282C6.33733 5.75614 6.16358 5.79007 6.00166 5.85596C5.83974 5.92185 5.69287 6.0184 5.56959 6.14001C5.44631 6.26161 5.34907 6.40584 5.28351 6.56433C5.21795 6.72281 5.18538 6.8924 5.18769 7.06324V11.4174C5.18999 11.758 5.33062 12.084 5.57888 12.3241C5.82714 12.5642 6.16288 12.699 6.51282 12.699H7.38462C7.68389 12.6982 7.97358 12.5962 8.2041 12.4104L8.77949 12.8602C9.13707 13.1033 9.56396 13.2309 10 13.2252H12.101C12.4425 13.2268 12.7754 13.1212 13.0502 12.9239C13.3251 12.7267 13.5272 12.4483 13.6267 12.1303L14.7077 8.73529C14.7746 8.5251 14.7873 8.30211 14.7447 8.08601C14.7021 7.8699 14.6056 7.66731 14.4636 7.49611V7.49611ZM7.38462 11.4259H6.51282V7.05476H7.38462V11.4089V11.4259ZM12.3538 11.7569C12.3351 11.8143 12.2978 11.8643 12.2476 11.8995C12.1973 11.9346 12.1368 11.9531 12.0749 11.9521H10C9.85522 11.9556 9.71263 11.9172 9.59026 11.8417L8.71846 11.1712V7.7762L10.2615 5.50153C10.2763 5.47353 10.2966 5.44864 10.3212 5.42833C10.3459 5.40802 10.3745 5.39268 10.4053 5.38321C10.4361 5.37373 10.4686 5.37031 10.5008 5.37314C10.533 5.37597 10.5642 5.38499 10.5928 5.39968C10.6546 5.41927 10.7067 5.46054 10.7389 5.51546C10.7711 5.57037 10.7812 5.63499 10.7672 5.69675L10.5231 6.88501C10.4937 7.0465 10.5012 7.2123 10.5449 7.37069C10.5885 7.52908 10.6674 7.6762 10.7759 7.80166C10.8814 7.92733 11.0144 8.02839 11.1653 8.09742C11.3162 8.16645 11.481 8.2017 11.6477 8.20058H13.339L13.4174 8.30243L12.3538 11.7569Z" fill="#99A1B7"/>
</svg>
