<svg width="32" height="22" viewBox="0 0 32 22" fill="none" xmlns="http://www.w3.org/2000/svg">
<path d="M25.3479 2.07227L30.9247 19.2221C31.345 20.5144 30.3817 21.8406 29.0227 21.8406H25.4501C24.143 21.8406 22.9864 20.9943 22.5908 19.7485L17.313 3.12631C16.8216 1.57872 17.9767 0 19.6004 0H22.4949C23.7943 0 24.946 0.836549 25.3479 2.07227Z" fill="#F8285A"/>
<path d="M18.4585 14.5335L14.4 1.53388C14.1152 0.621383 13.2702 0 12.3143 0C11.3835 0 10.6159 0.729443 10.5685 1.65907L10.0856 11.1365C10.0391 12.0484 10.1491 12.9616 10.4108 13.8364L12.3784 20.4138C12.6317 21.2605 13.4107 21.8406 14.2945 21.8406H15.8075C16.678 21.8406 17.4485 21.2775 17.713 20.4481L18.4476 18.1442C18.8218 16.9703 18.8257 15.7096 18.4585 14.5335Z" fill="#E9E9E9"/>
<path d="M9.1401 0H12.2456C13.8639 0 15.0183 1.56893 14.5369 3.11397L9.30882 19.8925C8.9182 21.1461 7.75771 22 6.44464 22H2.91149C1.56802 22 0.606629 20.7018 0.998436 19.4167L6.27052 2.12509C6.65544 0.862609 7.82025 0 9.1401 0Z" fill="#F8285A"/>
</svg>
