<svg width="51" height="50" viewBox="0 0 51 50" fill="none" xmlns="http://www.w3.org/2000/svg">
<path d="M44.2265 43.7105C44.0811 43.8559 43.8995 43.9285 43.6815 43.9285C43.4634 43.9285 43.2818 43.8559 43.1364 43.7105C42.9911 43.5652 42.9184 43.3835 42.9184 43.1655C42.9184 42.9475 42.9911 42.7476 43.1546 42.6023C43.2999 42.4569 43.4816 42.4024 43.6815 42.4024C43.8995 42.4024 44.0811 42.4751 44.2265 42.6205C44.3718 42.7658 44.4445 42.9475 44.4445 43.1655C44.4627 43.3835 44.39 43.5652 44.2265 43.7105V43.7105ZM43.2454 42.7113C43.1183 42.8385 43.0638 42.9838 43.0638 43.1473C43.0638 43.329 43.1183 43.4743 43.2454 43.6015C43.3726 43.7287 43.518 43.7832 43.6996 43.7832C43.8813 43.7832 44.0266 43.7287 44.1538 43.6015C44.281 43.4743 44.3355 43.329 44.3355 43.1473C44.3355 42.9838 44.281 42.8203 44.1538 42.7113C44.0266 42.5841 43.8813 42.5114 43.6996 42.5114C43.518 42.5296 43.3726 42.5841 43.2454 42.7113ZM43.9358 43.547C43.8631 43.6015 43.7905 43.6197 43.7178 43.6197C43.6088 43.6197 43.4998 43.5833 43.4089 43.4925C43.3181 43.4017 43.2818 43.2927 43.2818 43.1655C43.2818 43.0383 43.3181 42.9293 43.3908 42.8385C43.4634 42.7476 43.5725 42.7113 43.6996 42.7113C43.7723 42.7113 43.845 42.7295 43.9176 42.7658C44.0085 42.8203 44.0811 42.9111 44.0993 43.0565H43.8995C43.8813 43.002 43.8631 42.9475 43.8268 42.9293C43.7905 42.9111 43.7541 42.893 43.7178 42.893C43.6633 42.893 43.6088 42.9111 43.5725 42.9656C43.5361 43.0201 43.518 43.0928 43.518 43.1836C43.518 43.2745 43.5361 43.3472 43.5725 43.3835C43.6088 43.4198 43.6633 43.4562 43.7178 43.4562C43.7723 43.4562 43.8086 43.438 43.845 43.4198L43.8995 43.3108H44.0811C44.063 43.4198 44.0085 43.4925 43.9358 43.547V43.547ZM45.8616 35.4806C45.8616 35.4079 45.8434 35.3352 45.8434 35.2626C45.8434 35.2081 45.8252 35.1717 45.8252 35.1354C45.8071 35.0264 45.7889 34.9355 45.7526 34.8265C45.6799 34.6267 45.5709 34.4268 45.4256 34.2633C45.2802 34.0998 45.1167 33.9727 44.9532 33.8818C44.7715 33.791 44.5898 33.7365 44.4445 33.7001C44.39 33.7001 44.3537 33.682 44.3173 33.682C44.5172 32.8099 44.2628 32.1377 44.0993 31.8289L44.1357 31.7925C44.3537 31.5745 44.5353 31.3747 44.6988 31.1748L44.7352 31.1385C44.8624 30.9568 44.935 30.7752 44.9895 30.6116C45.0259 30.4663 45.0622 30.3391 45.0622 30.212V30.1029V30.0303V29.8668C45.044 29.5943 45.0077 29.2491 44.826 28.8675C44.7352 28.6859 44.608 28.486 44.4445 28.3043C44.281 28.1227 44.0811 27.9592 43.845 27.832C43.8268 27.8138 43.8086 27.8138 43.7905 27.7957C43.2999 27.0871 42.7549 26.5239 42.2644 26.1061C42.01 25.8881 41.7739 25.7064 41.574 25.561C41.3742 25.4157 41.2107 25.3067 41.1198 25.234C40.9018 25.0705 40.7383 24.9797 40.6656 24.9433C40.484 24.8343 40.3568 24.7435 40.2841 24.689C40.2296 24.6345 40.1933 24.6163 40.1751 24.5982C40.1751 24.5982 40.1751 24.58 40.1569 24.5436C40.1388 24.4891 40.1388 24.4165 40.1388 24.2893C40.1388 24.1076 40.1388 23.8351 40.1569 23.4718C40.1933 22.8904 40.2478 22.1092 40.3204 21.0373C40.3386 20.6921 40.3386 20.3651 40.3386 20.0744C40.3204 19.5839 40.2478 19.1479 40.1569 18.7482C40.1388 18.6573 40.1024 18.5665 40.0843 18.4757C40.0661 18.403 40.0479 18.3667 40.0298 18.3303C40.0116 18.2758 39.9934 18.2213 39.9571 18.1486C39.9389 18.1123 39.9389 18.076 39.9026 18.0396C39.8663 17.9488 39.8299 17.858 39.7754 17.7671L39.7572 17.749L39.7391 17.6944L39.7209 17.6581C39.6301 17.4946 39.5211 17.3493 39.4121 17.2221C39.3576 16.9677 39.2667 16.6044 39.1032 16.1865C38.9579 15.8232 38.7762 15.4235 38.5037 15.0238C38.4128 14.8785 38.3038 14.7513 38.1948 14.6241L38.2312 14.5878C38.2857 14.5333 39.5574 13.1889 40.5748 11.4448C42.4461 8.19277 41.8284 6.2125 40.9745 5.12244L40.9563 5.0861L40.9381 5.04977C40.1206 4.14139 38.9942 3.59636 37.6316 3.41468C34.7793 3.05133 31.5455 4.4684 30.6916 4.86809L29.1292 3.16033C28.9838 3.01499 28.8385 2.86965 28.675 2.76065C28.5115 2.65164 28.3298 2.54263 28.1481 2.4518C27.7848 2.28829 27.3851 2.17928 26.9491 2.12478C26.0952 2.01577 25.1141 2.12478 24.0604 2.39729C22.4798 2.79698 20.7176 3.59636 18.8645 4.70458C17.0114 5.81281 15.0856 7.24805 13.2143 8.95581C10.9252 11.0269 9.03577 13.2252 7.65503 15.3327C6.96466 16.3682 6.40146 17.3856 5.98361 18.3667C5.56575 19.3295 5.29324 20.2561 5.18423 21.0918C5.11156 21.7095 5.11156 22.2909 5.23874 22.8177C5.29324 23.0539 5.36591 23.2719 5.47492 23.4899C5.60209 23.7624 5.7656 24.0168 5.96544 24.2348L7.58236 25.9244L7.76404 26.1061L7.74587 26.1242L7.69137 26.2332C7.65503 26.2877 7.63686 26.3422 7.60053 26.3786L7.54603 26.4876C7.52786 26.5421 7.49152 26.5966 7.47336 26.6511L7.41885 26.7601C7.40069 26.8146 7.36435 26.8691 7.34618 26.9236C7.32801 26.9599 7.30985 26.9963 7.30985 27.0326L7.25534 27.1961C7.23718 27.2325 7.23718 27.2688 7.21901 27.3051C7.20084 27.3596 7.18267 27.4141 7.16451 27.4868C7.16451 27.505 7.14634 27.5231 7.14634 27.5413C7.14634 27.5595 7.12817 27.5776 7.12817 27.5958C7.11 27.6503 7.09184 27.723 7.07367 27.7775C7.07367 27.8138 7.0555 27.8502 7.0555 27.8865C7.0555 27.9047 7.03733 27.941 7.03733 27.9592C7.03733 27.9955 7.01916 28.0318 7.01916 28.0682C7.01916 28.1045 7.001 28.1408 7.001 28.1772C6.98283 28.2498 6.98283 28.3225 6.96466 28.4134C6.96466 28.4315 6.96466 28.4497 6.94649 28.486V28.5042C6.94649 28.5587 6.92833 28.6132 6.92833 28.6495C6.92833 28.7222 6.91016 28.813 6.91016 28.8857V29.7941C6.91016 29.8304 6.91016 29.8668 6.92833 29.9031C6.92833 29.9394 6.92833 29.9939 6.94649 30.0484V30.1029C6.94649 30.1393 6.96466 30.1938 6.96466 30.2301C6.96466 30.2665 6.98283 30.3028 6.98283 30.3573C6.98283 30.3755 6.98283 30.3936 7.001 30.4118C7.001 30.43 7.01916 30.4663 7.01916 30.4845V30.5208C7.01916 30.5571 7.03733 30.5935 7.0555 30.6661C7.0555 30.6843 7.0555 30.6843 7.07367 30.7025C7.09184 30.7388 7.09184 30.7752 7.09184 30.7933L7.11 30.8297C7.11 30.8478 7.11 30.8478 7.12817 30.866L7.14634 30.9023V30.9568C7.14634 30.975 7.14634 30.975 7.16451 30.9932L7.18267 31.0295C7.18267 31.0658 7.20084 31.084 7.20084 31.1203C7.21901 31.1567 7.21901 31.193 7.23718 31.2657V31.2475V31.2657C7.23718 31.2838 7.23718 31.2838 7.25534 31.302C7.27351 31.3565 7.29168 31.3928 7.29168 31.411C7.30985 31.4474 7.32801 31.4837 7.34618 31.5564L7.36435 31.5745C7.38252 31.6109 7.38252 31.6472 7.40069 31.6654L7.41885 31.7017C7.41885 31.7199 7.43702 31.738 7.43702 31.7562C7.43702 31.7744 7.45519 31.8107 7.47336 31.8289L7.49152 31.8652C7.50969 31.8834 7.50969 31.9197 7.52786 31.9379C7.54603 31.956 7.54603 31.9742 7.54603 31.9924C7.56419 32.0287 7.58236 32.0651 7.60053 32.1196L7.6187 32.1377C7.63686 32.1559 7.63686 32.1741 7.65503 32.1922C7.6732 32.2104 7.6732 32.2467 7.69137 32.2649C7.70954 32.2831 7.7277 32.3194 7.74587 32.3739L7.76404 32.3921C7.78221 32.4102 7.78221 32.4284 7.80037 32.4466C7.81854 32.4829 7.83671 32.5011 7.83671 32.5192C7.85488 32.5374 7.87304 32.5737 7.89121 32.6101V32.6282C7.90938 32.6464 7.90938 32.6646 7.92755 32.6828C7.94571 32.7191 7.96388 32.7373 7.98205 32.7554C8.00022 32.7736 8.01838 32.8099 8.05472 32.8644C8.07289 32.8826 8.09106 32.9008 8.09106 32.9189C8.10922 32.9553 8.12739 32.9734 8.14556 32.9916C8.16373 33.0098 8.18189 33.0461 8.20006 33.0824C8.21823 33.1006 8.2364 33.1369 8.25456 33.1551C8.27273 33.1914 8.2909 33.2096 8.32723 33.2278L8.38174 33.2823L8.39991 33.3005C8.43624 33.3368 8.45441 33.3731 8.49074 33.4095L8.52708 33.4458L8.58158 33.5003L8.69059 33.6093L8.72692 33.6456L8.78143 33.7001L8.79959 33.7183C8.83593 33.7546 8.89043 33.791 8.92677 33.8455L8.94493 33.8636C8.9631 33.8818 8.98127 33.8818 8.99944 33.9182C9.05394 33.9727 9.10844 34.009 9.16295 34.0635L9.19928 34.0817L9.21745 34.0998L9.25378 34.118C9.30829 34.1543 9.34462 34.1907 9.39913 34.227L9.41729 34.2452C9.43546 34.2633 9.45363 34.2633 9.45363 34.2633L9.48996 34.2997C9.5263 34.336 9.56263 34.3542 9.59897 34.3905L9.6353 34.4087L9.67164 34.445L9.68981 34.4632C9.72614 34.4813 9.78065 34.5177 9.81698 34.5359C9.83515 34.554 9.85332 34.5722 9.88965 34.5722L9.92599 34.5904L9.94415 34.6085H9.96232C10.035 34.6449 10.0895 34.6812 10.144 34.7175L10.1803 34.7357L10.3983 34.8447H10.4165L10.4528 34.8629L10.5619 34.9174C10.58 34.9174 10.5982 34.9355 10.6164 34.9355C10.6345 34.9537 10.6527 34.9537 10.689 34.9719H10.7072C10.7435 34.99 10.7799 35.0082 10.8162 35.0082H10.8344C10.8707 35.0264 10.907 35.0445 10.9615 35.0627H10.9797L11.016 35.0809C11.0342 35.0809 11.0524 35.099 11.0705 35.099H11.0887C11.1432 35.1172 11.1977 35.1354 11.2704 35.1536H11.2886C11.3794 35.1899 11.4702 35.2081 11.5611 35.2262H11.5792C11.6519 35.2444 11.7428 35.2626 11.8154 35.2807H11.8881C11.9608 35.2989 12.0334 35.3171 12.1061 35.3171H12.1788C12.2333 35.3171 12.2696 35.3352 12.3241 35.3352C12.3241 35.3534 12.3423 35.3716 12.3423 35.3897C12.4695 35.7349 12.5966 36.0801 12.742 36.4071C14.8858 42.3479 20.8266 46.9625 27.6031 47.8164C34.3796 48.6521 41.6285 44.1465 44.5717 38.0604C44.6988 37.8242 44.8079 37.6062 44.9169 37.37C45.2075 37.0612 45.4437 36.7523 45.5891 36.4253C45.8252 36.2254 45.8797 35.8258 45.8616 35.4806V35.4806ZM8.2364 33.1188H8.25456H8.2364Z" fill="#664F44"/>
<path d="M40.0664 5.75877C39.7394 5.39542 39.3579 5.1229 38.94 4.92306C38.8673 4.88672 38.7947 4.86856 38.7038 4.85039C38.6675 4.83222 38.6312 4.79589 38.5948 4.77772C38.2315 4.63238 37.85 4.54154 37.4503 4.48704C35.4882 4.23269 33.2354 4.95939 31.9636 5.46809C31.891 5.50442 31.8183 5.52259 31.7456 5.55893C31.6366 5.61343 31.5276 5.64976 31.4186 5.70427C31.2369 5.77694 31.0553 5.86778 30.8554 5.95861C30.8191 5.97678 30.8009 5.97678 30.7646 5.99495L30.4194 5.59526L30.2559 5.41358L30.1105 5.25008L30.056 5.17741L28.7298 3.65132L28.6208 3.52415L28.4755 3.36064H28.4573L28.0758 3.45148L27.6397 3.54232C27.4036 3.43331 27.1129 3.36064 26.7859 3.30614C26.1318 3.2153 25.2961 3.30614 24.3514 3.54232C23.4067 3.7785 22.3348 4.19635 21.2084 4.75955C18.9374 5.88594 16.4303 7.61187 13.9958 9.82832C13.142 10.5914 12.3608 11.3907 11.6341 12.1719C10.9255 12.935 10.2896 13.7162 9.70828 14.4611C8.52739 16.0053 7.63717 17.4951 7.05581 18.8395C6.67429 19.7297 6.43811 20.5472 6.34727 21.2558C6.2746 21.7645 6.29277 22.2187 6.38361 22.582C6.41994 22.7092 6.45628 22.8 6.49261 22.909C6.58345 23.127 6.69246 23.3087 6.8378 23.4722L8.30938 25.0165L8.47288 25.18L8.49105 25.1618C8.52739 25.1073 8.58189 25.0528 8.63639 25.0165L8.65456 24.9983L8.70906 24.9438C8.7454 24.8893 8.7999 24.853 8.83624 24.7985C8.87257 24.7621 8.89074 24.744 8.92708 24.7258C8.96341 24.7076 8.98158 24.6713 9.01791 24.6531L9.05425 24.6168C9.09058 24.5986 9.10875 24.5623 9.14509 24.5441C9.18142 24.5078 9.23593 24.4714 9.27226 24.4351C9.29043 24.4169 9.32676 24.3988 9.34493 24.3806H9.3631C9.4176 24.3443 9.45394 24.3079 9.50844 24.2716C9.54477 24.2534 9.56294 24.2353 9.59928 24.1989C9.65378 24.1626 9.69012 24.1263 9.74462 24.0899C9.78095 24.0718 9.79912 24.0536 9.83546 24.0354C9.88996 23.9991 9.94446 23.9627 9.99897 23.9446C10.0353 23.9264 10.0535 23.9082 10.0898 23.8901C10.1443 23.8537 10.1988 23.8356 10.2533 23.7992C10.2896 23.7811 10.3078 23.7629 10.3442 23.7447L10.3805 23.7266C10.435 23.7084 10.4713 23.6721 10.5258 23.6539C10.544 23.6357 10.5803 23.6357 10.5985 23.6176C10.6348 23.5994 10.6712 23.5812 10.7257 23.5631L10.8347 23.5086L10.871 23.4904L11.1435 23.3814C11.1799 23.3632 11.198 23.3632 11.2344 23.345C11.2707 23.3269 11.2889 23.3269 11.3252 23.3087L11.3615 23.2905C11.3797 23.2905 11.3979 23.2724 11.416 23.2724C11.4524 23.2542 11.4887 23.2542 11.5432 23.236H11.5796C11.6341 23.2179 11.6704 23.2179 11.7249 23.1997C11.7612 23.1815 11.8157 23.1815 11.8521 23.1634C11.9066 23.1452 11.9611 23.1452 12.0156 23.127C12.0337 23.127 12.0519 23.1089 12.0882 23.1089C12.1064 23.1089 12.1427 23.1089 12.1609 23.0907C12.2154 23.0725 12.2699 23.0725 12.3244 23.0725C12.3789 23.0725 12.4153 23.0544 12.4698 23.0544C12.5061 23.0544 12.5424 23.0362 12.5788 23.0362H12.7241C12.9058 23.0362 13.1238 23.0362 13.3418 23.0544H13.3781C13.5962 23.0725 13.8505 23.1089 14.1049 23.1634C14.1594 23.1815 14.232 23.1815 14.2865 23.1997C14.3047 23.1815 14.3047 23.1452 14.3229 23.127C14.4682 22.8909 14.5954 22.6365 14.7407 22.4003C15.5583 21.0378 16.4303 19.8387 17.3205 18.785C17.6294 18.4216 17.9382 18.0946 18.2471 17.7676C19.537 16.4232 20.8269 15.3876 21.9896 14.5882C22.244 14.4066 22.5165 14.2431 22.7527 14.0795C23.0978 13.8615 23.4249 13.6799 23.7337 13.4982C23.988 13.3528 24.2242 13.2257 24.4604 13.1167C24.8419 12.9168 25.1871 12.7533 25.496 12.6261L25.7685 12.5171C25.8957 12.4626 26.0228 12.4081 26.1318 12.3718C26.041 12.3536 25.932 12.3536 25.8411 12.3536H25.4778C25.387 12.3536 25.278 12.3536 25.1871 12.3718C25.0054 12.39 24.8056 12.4081 24.6057 12.4263C24.5331 12.4445 24.4786 12.4445 24.4059 12.4626C24.8964 12.2083 25.387 12.0266 25.8411 11.8813C26.15 11.7904 26.4588 11.7178 26.7495 11.6633C27.1492 11.5906 27.5307 11.5361 27.8759 11.5179C28.1121 11.4997 28.3301 11.4997 28.53 11.4997C28.7298 11.4997 28.9296 11.5179 29.0932 11.5179C29.6927 11.5542 30.056 11.6451 30.056 11.6451C29.9652 11.5179 29.8562 11.4271 29.7472 11.3362C29.5292 11.1727 29.293 11.0637 29.075 10.9729C28.9841 10.9365 28.9115 10.9184 28.8388 10.882C28.7843 10.8639 28.7298 10.8457 28.6935 10.8457C28.8025 10.8275 28.8933 10.8094 28.9841 10.8094C29.0932 10.7912 29.184 10.7912 29.293 10.773C30.1469 10.7004 30.9099 10.773 31.4731 10.8639C32.1453 10.9911 32.5632 11.1546 32.5632 11.1546C32.4723 10.9729 32.327 10.8094 32.1635 10.664C32.0545 10.5732 31.9273 10.4824 31.8183 10.4097C32.0545 10.4642 32.2543 10.5187 32.4723 10.5914C33.0174 10.7549 33.4716 10.9547 33.8349 11.1182L34.1619 11.2817C34.1983 11.2999 34.2164 11.3181 34.2346 11.3181C34.5616 11.4997 34.7433 11.6269 34.7433 11.6269C34.6888 11.4271 34.5798 11.2454 34.4344 11.0819C34.3981 11.0456 34.3618 10.9911 34.3254 10.9547H34.3436C34.3618 10.9547 34.3799 10.9729 34.4163 10.9729C34.4344 10.9729 34.4708 10.9911 34.5071 11.0092C34.6525 11.0637 34.8705 11.1546 35.1248 11.2817C35.143 11.2817 35.143 11.2999 35.1611 11.2999L35.2702 11.3544C35.361 11.4089 35.4518 11.4452 35.5427 11.5179L35.8152 11.6814C35.8697 11.7178 35.906 11.7359 35.9605 11.7723C36.0514 11.8449 36.1604 11.9176 36.2512 12.0084C36.3602 12.0993 36.4511 12.1901 36.5419 12.281L36.5964 12.3355C36.6691 12.4081 36.7417 12.4808 36.7962 12.5535C36.9234 12.6988 37.0324 12.8623 37.1414 13.0258C37.2686 13.2257 37.3594 13.4618 37.4503 13.698C37.4503 13.7162 37.4503 13.7344 37.4684 13.7344C37.5229 13.6799 37.6319 13.5709 37.7591 13.4255C38.8128 12.1901 41.974 8.19323 40.0664 5.75877" fill="#132134"/>
<path d="M44.7716 35.6077C44.7716 35.6077 44.808 35.3351 44.6626 35.0808C44.6626 35.0626 44.6445 35.0445 44.6445 35.0445L44.6263 35.0263L44.5718 34.9718C44.5355 34.9355 44.4991 34.8991 44.4446 34.8628C44.4265 34.8446 44.3901 34.8265 44.3538 34.8083C44.263 34.7719 44.1721 34.7356 44.0449 34.7174C43.9541 34.6993 43.8633 34.6993 43.7543 34.6993H43.6089V34.7356C43.6089 34.7538 43.6271 34.7719 43.6271 34.8083C43.6271 34.8265 43.6271 34.8446 43.6453 34.8446C43.6634 34.8991 43.6816 34.99 43.6998 35.0626C43.6998 35.0626 43.6998 35.0808 43.6816 35.1171V35.1353C43.6271 35.2625 43.4817 35.5532 43.1547 35.9165C43.1002 35.9892 43.0457 36.0437 42.9731 36.1164C42.0647 37.0611 40.1026 38.3873 35.9603 39.1322C34.5614 39.332 33.2534 39.3502 32.1633 39.2049C30.5282 39.005 29.311 38.4781 28.7296 37.7696C28.6751 37.7151 28.6388 37.6424 28.5843 37.5879C28.5479 37.5334 28.5298 37.4971 28.4934 37.4426C28.4753 37.4244 28.4753 37.4063 28.4571 37.3881C28.2209 36.9521 28.1119 36.4797 28.1119 36.0255C28.1119 35.4623 28.2936 34.9355 28.5843 34.5358C28.8205 34.2088 29.1293 33.9544 29.5108 33.8454C29.6925 33.7909 29.8924 33.7546 30.0922 33.7727C30.1285 33.7727 30.183 33.7727 30.2557 33.7909C30.3829 33.8091 30.5827 33.8272 30.8189 33.8636C30.8371 33.8636 30.8734 33.8636 30.8916 33.8817C31.6728 33.9726 32.9082 34.0997 34.3979 34.0089C37.1231 33.8454 40.7021 32.9915 43.9541 30.0484V30.0302C43.9723 29.7758 43.9359 29.3398 43.6271 28.9946C43.5726 28.9401 43.5181 28.8856 43.4454 28.8311C43.4091 28.7948 43.3546 28.7766 43.3182 28.7403C43.2637 28.7221 43.2274 28.6858 43.1911 28.6676L43.0276 28.5586V28.5404C43.0094 28.5041 42.9912 28.4678 42.9549 28.4314C42.1192 27.1597 40.9564 26.4148 40.4841 26.0696C40.2661 25.9061 40.1207 25.8335 40.1207 25.8335C39.1215 25.2158 38.9762 25.0159 39.067 23.3627C39.1033 22.7631 39.1578 21.9819 39.2305 20.91C39.2305 20.7647 39.2487 20.6375 39.2487 20.5104V20.4195V19.9835C39.2487 19.8927 39.2305 19.8018 39.2305 19.7291C39.2305 19.6928 39.2305 19.6565 39.2124 19.6201C39.1942 19.5293 39.1942 19.4385 39.176 19.3476C39.176 19.3113 39.1578 19.2568 39.1578 19.2204C39.1578 19.1659 39.1397 19.1296 39.1215 19.0751C39.1033 19.0388 39.1033 18.9843 39.0852 18.9479C39.067 18.8934 39.0488 18.8389 39.0488 18.7844C39.0488 18.7663 39.0307 18.7481 39.0307 18.7299C39.0307 18.7118 39.0125 18.6936 39.0125 18.6754V18.6573L38.9943 18.6027C38.9762 18.5664 38.958 18.5301 38.958 18.4937V18.4756L38.9398 18.4392L38.9217 18.4029C38.8853 18.3302 38.8672 18.2576 38.8308 18.2031L38.8127 18.1486C38.7763 18.0941 38.74 18.0214 38.7037 17.9669L38.6855 17.9487L38.6673 17.9305C38.631 17.8942 38.6128 17.8579 38.5765 17.8215L38.5401 17.767C38.5038 17.7125 38.4675 17.6762 38.4311 17.6399V17.4945C38.413 17.4219 38.3948 17.331 38.3766 17.2402C38.3766 17.222 38.3585 17.1857 38.3585 17.1675V17.1493C38.3585 17.113 38.3403 17.0948 38.3403 17.0585C38.3221 16.9858 38.304 16.9132 38.2676 16.8405C38.2676 16.8223 38.2495 16.786 38.2495 16.7678L38.195 16.6043C38.1768 16.568 38.1768 16.5316 38.1586 16.5135C38.1405 16.459 38.1223 16.4045 38.086 16.35L38.0315 16.241C38.0133 16.1865 37.977 16.1319 37.9588 16.0774L37.9043 15.9684C37.8679 15.9139 37.8498 15.8594 37.8134 15.8049L37.7589 15.6959C37.7226 15.6414 37.6863 15.5869 37.6499 15.5143C37.6318 15.4779 37.6136 15.4597 37.5954 15.4234C37.5773 15.4052 37.5591 15.3689 37.5409 15.3507C37.4864 15.2962 37.4501 15.2417 37.3956 15.1872L37.3593 15.1691C37.2866 15.0964 37.2321 15.0237 37.1594 14.9692L37.1412 14.9511C37.1049 14.9329 37.0686 14.8966 37.0504 14.8784H37.0322C36.9959 14.8602 36.9777 14.842 36.9414 14.8239L36.9232 14.8057C36.8869 14.7875 36.8324 14.7512 36.7597 14.7149C36.7416 14.6967 36.7052 14.6967 36.6689 14.6785C36.5054 14.624 36.3055 14.5514 36.0512 14.4787C36.033 14.4787 36.0148 14.4787 35.9967 14.4605C35.7968 14.406 35.5607 14.3515 35.3063 14.3152C35.2155 14.297 35.1428 14.297 35.052 14.2789C35.0156 14.2789 34.9793 14.2789 34.9248 14.2607H34.8703C34.6704 14.2425 34.4888 14.2243 34.2889 14.2243H34.2708C34.0164 14.2243 33.7621 14.2425 33.5259 14.297C33.5804 14.2062 33.7439 14.0972 33.8892 14.0063C34.0891 13.8973 34.2708 13.8247 34.2708 13.8247C34.1617 13.8247 34.0527 13.8428 33.9437 13.861C33.9074 13.861 33.8711 13.8792 33.8347 13.8792C33.8166 13.8792 33.7802 13.8792 33.7621 13.8973H33.7439C33.7257 13.8973 33.7076 13.8973 33.6894 13.9155C33.1262 14.0427 32.5812 14.2425 32.2723 14.3697L32.1633 14.4242H32.1451C32.1088 14.4242 32.0906 14.4242 32.0543 14.4424C32.2723 14.0245 32.5993 13.8065 32.8537 13.6975C32.89 13.6793 32.9445 13.6612 32.9808 13.643C32.999 13.643 32.999 13.643 33.0172 13.6248C33.0535 13.6066 33.0899 13.6066 33.108 13.5885C33.1625 13.5703 33.1989 13.5703 33.1989 13.5703H32.9082C32.2905 13.643 31.7273 13.8428 31.2549 14.1153C30.9279 14.297 30.6372 14.4969 30.3829 14.6967C30.3102 14.7149 30.2557 14.733 30.183 14.733C29.4927 14.8784 28.7115 15.0601 27.8939 15.3144C27.5851 15.4052 27.2762 15.5142 26.9674 15.6233C26.7312 15.7141 26.4768 15.8049 26.2407 15.8958C26.059 15.9684 25.8955 16.0411 25.7138 16.1138C24.4602 16.677 23.2067 17.4219 22.1711 18.4211L22.0621 18.5301L21.7896 18.8026L21.6806 18.9116C21.6442 18.9661 21.5897 19.0206 21.5534 19.0569C21.3536 19.275 21.1719 19.5111 20.9902 19.7655C20.863 19.9472 20.7359 20.147 20.6269 20.3468L20.6087 20.365C20.3725 20.7829 20.1545 21.2189 19.991 21.7094C19.9001 21.9456 19.8275 22.1999 19.7548 22.4543C19.7366 22.527 19.7185 22.5815 19.7003 22.6541L19.6821 22.6905C19.6095 22.963 19.555 23.2537 19.5186 23.5443C19.5186 23.5988 19.5005 23.6534 19.5005 23.726C19.4823 23.8714 19.4641 24.0167 19.4641 24.1802C19.446 24.3256 19.446 24.4527 19.446 24.5981V25.1613C19.446 25.3248 19.446 25.4883 19.4641 25.6518V25.67C19.4641 25.8335 19.4823 25.997 19.5005 26.1787C19.5005 26.2513 19.5186 26.324 19.5186 26.3967V26.4512C19.5186 26.4875 19.5186 26.5238 19.5368 26.5783C19.555 26.76 19.5913 26.9599 19.6095 27.1597C19.6095 27.2142 19.6276 27.2687 19.6276 27.3232C19.664 27.4867 19.6821 27.6684 19.7185 27.8319C19.7185 27.8319 19.6821 27.6139 19.7003 27.2869C19.7003 27.2142 19.7185 27.1234 19.7185 27.0507C19.7366 26.869 19.773 26.651 19.8456 26.4512L19.9001 26.2877C19.9001 26.2695 19.9183 26.2513 19.9365 26.215C19.9728 26.1242 20.0273 26.0151 20.0818 25.9243C20.1 25.997 20.1 26.0696 20.1182 26.1242V27.087C20.1363 27.7047 20.1908 28.4496 20.318 29.0855C20.318 29.0855 20.3362 27.9409 20.536 27.7956C20.536 27.7956 20.8812 29.9394 21.1901 30.7387C21.2264 30.8477 21.2809 30.9204 21.3172 30.9749V30.7569L21.2809 29.576V29.4488C21.5171 29.9394 21.7896 30.4299 22.0984 30.9567C22.1893 31.1021 22.2619 31.2474 22.3528 31.3928C21.7714 31.9015 21.2264 32.6463 20.8267 33.5184C20.7722 33.6637 20.6995 33.8091 20.645 33.9544C20.6087 34.0452 20.5905 34.1179 20.5542 34.2088C20.5542 34.2269 20.536 34.2633 20.536 34.2814C20.5178 34.3359 20.4997 34.4086 20.4815 34.4631C20.4815 34.4994 20.4633 34.5176 20.4633 34.5539C20.4452 34.6084 20.427 34.6811 20.4088 34.7356C20.4088 34.7719 20.3907 34.7901 20.3907 34.8265L20.3362 35.099C20.318 35.1898 20.2998 35.2806 20.2998 35.3715C20.2998 35.4078 20.2998 35.426 20.2817 35.4623C20.2817 35.535 20.2635 35.5895 20.2635 35.6622C20.2635 35.6985 20.2635 35.7348 20.2453 35.7712C20.2453 35.8438 20.2272 35.8983 20.2272 35.971V36.6069C20.2272 36.6796 20.2272 36.7522 20.2453 36.8431V36.8976C20.2453 36.9884 20.2635 37.0792 20.2817 37.1882C20.2817 37.2246 20.2817 37.2427 20.2998 37.2791C20.2998 37.3518 20.318 37.4063 20.3362 37.4789C20.3362 37.5153 20.3543 37.5516 20.3543 37.5879C20.3725 37.6424 20.3725 37.7151 20.3907 37.7696C20.3907 37.8059 20.4088 37.8423 20.4088 37.8786C20.427 37.9331 20.4452 37.9876 20.4452 38.0603C20.4633 38.0966 20.4633 38.133 20.4815 38.1875C20.4997 38.242 20.5178 38.3146 20.536 38.3691C20.5542 38.4055 20.5542 38.4418 20.5724 38.4781C20.5905 38.5326 20.6087 38.6053 20.6269 38.6598C20.645 38.6962 20.645 38.7325 20.6632 38.7688C20.6814 38.8415 20.7177 38.9142 20.7359 38.9687C20.754 39.005 20.754 39.0232 20.7722 39.0595L21.0447 39.659C21.0629 39.6954 21.081 39.7135 21.0992 39.7499L21.2082 39.9679C21.2264 40.0042 21.2446 40.0406 21.2809 40.0769C21.3172 40.1314 21.3536 40.2041 21.3899 40.2586C21.4081 40.2949 21.4444 40.3312 21.4626 40.3676C21.4989 40.4221 21.5352 40.4948 21.5897 40.5493C21.6261 40.5856 21.6442 40.6219 21.6806 40.6764C21.7169 40.7309 21.7714 40.8036 21.8078 40.8581C21.8441 40.8944 21.8623 40.9308 21.8986 40.9853C21.9531 41.0398 21.9894 41.1125 22.0439 41.167C22.0803 41.2033 22.0984 41.2396 22.1348 41.276C22.1893 41.3486 22.2438 41.4031 22.3164 41.4758L22.4073 41.5666C22.4981 41.6575 22.589 41.7665 22.6798 41.8573C22.6798 41.8573 22.6253 41.7847 22.5526 41.6393C22.5345 41.6211 22.5163 41.5848 22.5163 41.5485L22.4618 41.4395C22.4436 41.4031 22.4255 41.3668 22.4073 41.3123C22.2619 40.9853 22.1348 40.5129 22.1529 40.0042L22.3164 40.2222C22.3709 40.3494 22.4618 40.5129 22.5526 40.6946C22.589 40.7491 22.6253 40.8218 22.6435 40.8763C22.7888 41.1306 22.9341 41.4213 23.1158 41.6938C23.3338 42.039 23.5518 42.366 23.788 42.6749C23.788 42.6749 23.5155 42.0935 23.4247 41.712C23.4065 41.603 23.3883 41.5121 23.4065 41.4576C23.4247 41.4758 23.4428 41.5121 23.4792 41.5303C23.4973 41.5485 23.5155 41.5848 23.5518 41.603C23.5882 41.6575 23.6427 41.7302 23.7154 41.821L23.7517 41.8573C23.788 41.8937 23.8062 41.9482 23.8425 41.9845C23.8789 42.039 23.9152 42.0935 23.9697 42.148C24.3512 42.6385 24.8781 43.2926 25.2414 43.6378C25.3686 43.7468 25.4776 43.8376 25.5503 43.8739L25.0234 42.9292C26.2225 43.9103 31.2004 45.1638 36.0875 43.7649C36.687 43.6014 37.2684 43.3834 37.8498 43.1291C38.195 42.9837 38.5401 42.802 38.8853 42.6204L38.9398 42.584C39.176 42.4569 39.4122 42.3115 39.6484 42.1662C39.83 42.0572 40.0117 41.93 40.1752 41.821C40.4659 41.6211 40.7566 41.4031 41.0473 41.167C41.0655 41.1488 41.0836 41.1306 41.1018 41.1306C41.3743 40.8944 41.6468 40.6401 41.883 40.3857C42.21 40.0406 42.5007 39.6954 42.755 39.3502L42.7732 39.332C42.8459 39.2412 42.9004 39.1685 42.9549 39.0777L42.9731 39.0595C42.9912 39.0232 43.0094 39.005 43.0276 38.9687C43.1184 38.8415 43.1911 38.7325 43.2819 38.6053C43.3001 38.569 43.3182 38.5508 43.3364 38.5145C43.3727 38.4418 43.4091 38.3873 43.4636 38.3146C43.4999 38.2601 43.5181 38.2238 43.5544 38.1693C43.5908 38.1148 43.6271 38.0603 43.6453 38.0058C43.6998 37.915 43.7543 37.8059 43.8088 37.7151L43.8633 37.6061L43.9723 37.3881L44.0268 37.2791L44.0449 37.2427C44.0813 37.1519 44.1358 37.0611 44.1721 36.9702V36.9521C44.3356 36.8067 44.4446 36.6614 44.5536 36.5342C44.5718 36.516 44.59 36.4979 44.59 36.4797C44.699 36.1345 44.7716 35.862 44.7716 35.6077V35.6077ZM15.5399 32.0831C15.5399 32.065 15.5399 32.0468 15.5217 32.0105C15.4672 31.7016 15.4127 31.3746 15.3946 31.0476V30.9749C15.3401 30.9931 15.2856 31.0658 15.2129 31.1566C15.1947 31.1929 15.1584 31.2293 15.1402 31.2838C14.9767 31.5926 14.8314 32.0286 14.8314 32.0286C14.8495 31.8833 14.8677 31.738 14.8677 31.5926V31.5381C14.8859 31.3928 14.904 31.2293 14.9222 31.0839V31.0294C14.9404 30.8477 14.9767 30.6842 15.0131 30.5207C15.0131 30.5026 15.0131 30.4844 15.0312 30.448V30.4299C15.0312 30.4117 15.0312 30.3935 15.0494 30.3754C15.0494 30.339 15.0676 30.3209 15.0676 30.2845C15.0857 30.1574 15.1221 30.0302 15.1402 29.903C15.1584 29.794 15.1766 29.685 15.1947 29.5942V29.5578C15.1947 29.5397 15.1947 29.5215 15.2129 29.5215V29.4852C15.2129 29.467 15.2311 29.4307 15.2311 29.4125C15.2311 29.3943 15.2311 29.3762 15.2492 29.358C15.2492 29.3217 15.2674 29.2853 15.2674 29.2672C15.2674 29.249 15.2856 29.2127 15.2856 29.1945C15.2856 29.1581 15.3037 29.1218 15.3037 29.1036C15.3037 29.0855 15.3037 29.0673 15.3219 29.0491C15.3219 29.031 15.3219 29.0128 15.3401 29.0128C15.3401 28.9765 15.3582 28.9583 15.3582 28.9401V28.8856L15.3219 28.922C15.2856 28.9401 15.2674 28.9765 15.2311 28.9946L15.1947 29.031C15.1584 29.0673 15.1221 29.1036 15.1039 29.14L15.0857 29.1581L14.9767 29.3217L14.9586 29.3398C14.9586 29.358 14.9404 29.358 14.9404 29.3762L14.8859 29.4852V29.5215C14.8677 29.576 14.8314 29.6305 14.8132 29.685C14.7587 29.8303 14.7042 29.9757 14.6679 30.1029C14.6497 30.1392 14.6497 30.1937 14.6315 30.2119C14.6134 30.2845 14.5952 30.3572 14.5952 30.3754V30.3935V30.3754C14.5952 30.3209 14.5952 30.2845 14.6134 30.23C14.6134 30.1392 14.6315 30.0302 14.6315 29.9394C14.6315 29.8667 14.6497 29.7758 14.6679 29.7032C14.6679 29.685 14.6679 29.6487 14.686 29.6305C14.686 29.5942 14.7042 29.5578 14.7042 29.5215C14.7042 29.4852 14.7224 29.4488 14.7224 29.4125V29.358C14.7224 29.3217 14.7405 29.2672 14.7405 29.2308V29.14V29.1036C14.7405 29.0855 14.7405 29.0673 14.7587 29.0491C14.7769 28.9946 14.795 28.922 14.795 28.8675V28.8493C14.8132 28.813 14.8132 28.7585 14.8314 28.7221V28.704C14.8495 28.6131 14.8859 28.5223 14.904 28.4314V28.3951C14.904 28.3769 14.904 28.3588 14.9222 28.3406C14.9586 28.1953 15.0131 28.0499 15.0494 27.9227V27.9046C15.0857 27.7956 15.1402 27.6684 15.1766 27.5594V27.5412C15.1947 27.4867 15.2129 27.4504 15.2311 27.3959C15.2674 27.3232 15.2856 27.2505 15.3219 27.1779C15.3219 27.1597 15.3401 27.1234 15.3764 27.0507C15.3946 27.0325 15.3946 26.9962 15.4127 26.978C15.4309 26.9417 15.4491 26.9054 15.4672 26.8509L15.4854 26.8145L15.7943 26.2513C15.8124 26.2332 15.8124 26.1968 15.8306 26.1787V26.1605L15.8488 26.1242C15.8851 26.0696 15.9214 25.997 15.9578 25.9425C16.0123 25.8516 16.0486 25.7608 16.1031 25.6881C16.194 25.5246 16.2666 25.3793 16.3211 25.3066C16.3393 25.2521 16.3575 25.2339 16.3756 25.2158C16.3575 25.2158 16.2666 25.1431 16.1213 25.0523C15.9396 24.9433 15.6853 24.7979 15.3764 24.6526C15.2674 24.5981 15.1766 24.5617 15.0676 24.5072C14.9404 24.4527 14.795 24.3982 14.6497 24.3437C14.6134 24.3256 14.577 24.3256 14.5407 24.3074C14.4135 24.2711 14.3045 24.2347 14.1773 24.1984C14.0865 24.1802 13.9957 24.162 13.923 24.1439C13.8503 24.1257 13.7777 24.1257 13.705 24.1075C13.6686 24.1075 13.6323 24.1075 13.596 24.0894C13.5596 24.0894 13.5233 24.0894 13.487 24.0712C13.3961 24.0712 13.2871 24.053 13.1963 24.053H13.0509C12.8329 24.053 12.6331 24.0712 12.4332 24.1075H12.3969C12.0336 24.162 11.6884 24.2529 11.3432 24.3801C11.2342 24.4164 11.1252 24.4709 10.998 24.5254C10.9617 24.5436 10.9435 24.5617 10.9072 24.5617L10.7982 24.6162C10.4711 24.7797 10.1623 24.9978 9.87161 25.2339H9.85344C9.5991 25.4338 9.38109 25.67 9.18124 25.9061L9.01773 26.1242C8.94506 26.215 8.89056 26.3058 8.83606 26.3967C8.72705 26.5602 8.61805 26.7419 8.52721 26.9235C8.49087 26.9962 8.45454 27.0507 8.43637 27.1234C8.43637 27.1415 8.4182 27.1415 8.4182 27.1597C8.23652 27.5957 8.09118 28.0499 8.03668 28.5404C8.01851 28.6313 8.01851 28.7221 8.00035 28.8311V28.8675C8.00035 28.9401 7.98218 29.0128 7.98218 29.1036V29.4307C7.98218 29.5033 7.98218 29.576 8.00035 29.6487V29.7395C8.00035 29.794 8.01851 29.8485 8.01851 29.903V29.9212C8.01851 29.9575 8.01851 29.9757 8.03668 30.012C8.03668 30.0665 8.05485 30.121 8.05485 30.1574C8.05485 30.1937 8.07302 30.23 8.07302 30.2664C8.09118 30.3209 8.09118 30.3572 8.10935 30.4117C8.10935 30.448 8.12752 30.4844 8.14569 30.5207V30.5389L8.16385 30.5752V30.6116L8.18202 30.6479C8.20019 30.6842 8.20019 30.7206 8.21836 30.7569C8.23652 30.7932 8.23652 30.8477 8.25469 30.8841C8.27286 30.9204 8.29103 30.9567 8.29103 31.0112L8.3092 31.0476C8.32736 31.0839 8.32736 31.1021 8.34553 31.1384C8.3637 31.1748 8.38187 31.2111 8.40003 31.2656L8.45454 31.3746C8.4727 31.3928 8.4727 31.4109 8.49087 31.4291C8.50904 31.4473 8.50904 31.4654 8.52721 31.4836L8.58171 31.5926C8.59988 31.6289 8.61804 31.6834 8.65438 31.7198C8.67255 31.7561 8.69072 31.7925 8.70888 31.8106C8.72705 31.847 8.76339 31.9015 8.78155 31.9378C8.79972 31.9741 8.81789 31.9923 8.83606 32.0286C8.85422 32.065 8.89056 32.1195 8.92689 32.1558C8.94506 32.1921 8.96323 32.2103 8.9814 32.2285C9.01773 32.2648 9.0359 32.3193 9.07224 32.3557C9.0904 32.3738 9.10857 32.4102 9.12674 32.4283C9.16307 32.4647 9.19941 32.5192 9.23574 32.5555C9.25391 32.5737 9.27208 32.5918 9.29025 32.6282C9.32658 32.6645 9.36292 32.719 9.39925 32.7553L9.45376 32.8098C9.49009 32.8462 9.52643 32.9007 9.58093 32.937L9.63543 32.9915L9.76261 33.1187C9.78077 33.1369 9.79894 33.155 9.81711 33.155C9.85344 33.1914 9.90795 33.2277 9.96245 33.2822C9.98062 33.3004 9.99879 33.3004 10.017 33.3185C10.0715 33.3549 10.1078 33.3912 10.1623 33.4275C10.1805 33.4457 10.1986 33.4457 10.1986 33.4639L10.3621 33.5729L10.3985 33.5911L10.562 33.7001L10.5983 33.7182C10.6528 33.7546 10.7255 33.7909 10.78 33.8272L10.8163 33.8454C10.8708 33.8817 10.9435 33.9181 10.998 33.9362L11.0343 33.9544C11.107 33.9907 11.1615 34.0089 11.2342 34.0452L11.2524 34.0634C11.325 34.0997 11.3977 34.1179 11.4522 34.1542H11.4704C11.543 34.1724 11.6157 34.2088 11.6884 34.2269H11.7065C11.7429 34.2451 11.7792 34.2451 11.8155 34.2633C11.8519 34.2814 11.8882 34.2814 11.9427 34.2996H11.9609C12.0336 34.3178 12.1244 34.3359 12.1971 34.3541C12.2697 34.3723 12.3606 34.3904 12.4332 34.3904C12.6876 34.4268 12.9419 34.4449 13.1963 34.4631H13.378C13.4688 34.4631 13.5415 34.4631 13.6323 34.4449C13.7413 34.4268 13.8685 34.4268 13.9957 34.4086C14.1047 34.3904 14.2137 34.3723 14.3045 34.3541C14.468 34.3178 14.6315 34.2814 14.7769 34.2269C15.2492 34.0997 15.6489 33.9181 15.9033 33.7182C15.9033 33.7182 15.7398 32.9915 15.6126 32.2648C15.5763 32.2285 15.5581 32.1558 15.5399 32.0831" fill="#90694C"/>
<path d="M27.2033 5.08618L27.1488 4.35948L27.5122 3.5601L27.6575 3.52376C27.4213 3.41476 27.1306 3.34209 26.8036 3.28758C26.1496 3.19675 25.3139 3.28758 24.3692 3.52376C23.4244 3.75994 22.3526 4.1778 21.2262 4.741C18.9552 5.86739 16.4481 7.59331 14.0136 9.80977C13.1597 10.5728 12.3785 11.3722 11.6518 12.1534C10.9433 12.9164 10.3074 13.6976 9.72604 14.4425C8.54515 15.9868 7.65493 17.4765 7.07357 18.8209C6.69205 19.7111 6.45587 20.5287 6.36503 21.2372C6.29236 21.7459 6.31053 22.2001 6.40137 22.5635C6.4377 22.6906 6.47404 22.7815 6.51037 22.8905C6.60121 23.1085 6.71022 23.2902 6.85556 23.4537L8.32714 24.9979L8.49065 25.1614L8.50881 25.1433C8.54515 25.0888 8.59965 25.0342 8.65415 24.9979L8.67232 24.9797L8.72682 24.9252C8.76316 24.8707 8.81766 24.8344 8.854 24.7799C8.89033 24.7436 8.9085 24.7254 8.94484 24.7072C8.98117 24.6891 8.99934 24.6527 9.03567 24.6346L9.07201 24.5982C9.10834 24.5801 9.12651 24.5437 9.16285 24.5256C9.19918 24.4892 9.25369 24.4529 9.29002 24.4165C9.30819 24.3984 9.34452 24.3802 9.36269 24.362H9.38086C9.43536 24.3257 9.4717 24.2894 9.5262 24.253C9.56254 24.2349 9.5807 24.2167 9.61704 24.1804C9.67154 24.144 9.70788 24.1077 9.76238 24.0714C9.79872 24.0532 9.81688 24.035 9.85322 24.0169C9.90772 23.9805 9.96222 23.9442 10.0167 23.926C10.0531 23.9079 10.0712 23.8897 10.1076 23.8715C10.1621 23.8352 10.2166 23.817 10.2711 23.7807C10.3074 23.7625 10.3256 23.7443 10.3619 23.7262L10.3982 23.708C10.7434 22.7451 11.2703 21.6732 11.9607 20.5832C12.7964 19.2388 13.8683 17.8217 15.14 16.4046C15.9394 15.5144 16.8114 14.6242 17.7561 13.7703C18.9734 12.6621 20.2269 11.6629 21.4623 10.7908C22.2981 10.2095 23.1156 9.68259 23.915 9.2284C23.9876 9.19207 24.0603 9.13756 24.1512 9.10123C24.3692 8.97406 24.569 8.86505 24.787 8.75604C25.2412 8.51986 25.6954 8.30185 26.1314 8.12018L25.9134 7.86583L25.8771 7.82949L25.6046 7.52064L24.0966 5.70388L24.1148 4.39581L24.0966 4.37764L25.1685 4.05062L27.2033 5.08618Z" fill="#2F83C1"/>
<path d="M44.7718 35.6077C44.7718 35.6077 44.8081 35.3352 44.6627 35.0809C44.6627 35.0627 44.6446 35.0445 44.6446 35.0445L44.6264 35.0264L44.5719 34.9719C44.5356 34.9355 44.4992 34.8992 44.4447 34.8628C44.4266 34.8447 44.3902 34.8265 44.3539 34.8083C44.2631 34.772 44.1722 34.7357 44.045 34.7175C43.9542 34.6993 43.8634 34.6993 43.7544 34.6993H43.609V34.7357C43.609 34.7538 43.6272 34.772 43.6272 34.8083C43.6272 34.8265 43.6272 34.8447 43.6454 34.8447C43.6635 34.8992 43.6817 34.99 43.6999 35.0627C43.6999 35.0627 43.6999 35.0809 43.6817 35.1172V35.1354C43.6272 35.2625 43.4818 35.5532 43.1548 35.9166C43.1003 35.9892 43.0458 36.0437 42.9732 36.1164C42.0648 37.0611 40.1027 38.3874 35.9604 39.1322C34.5615 39.3321 33.2535 39.3503 32.1634 39.2049C30.5283 39.0051 29.3111 38.4782 28.7297 37.7697C28.6752 37.7152 28.6389 37.6425 28.5844 37.588C28.548 37.5335 28.5299 37.4972 28.4935 37.4426C28.4754 37.4245 28.4754 37.4063 28.4572 37.3881C28.221 36.9521 28.112 36.4798 28.112 36.0256C28.112 35.4624 28.2937 34.9355 28.5844 34.5358C28.8206 34.2088 29.1294 33.9545 29.5109 33.8455C29.6926 33.791 29.8925 33.7546 30.0923 33.7728C30.1286 33.7728 30.1831 33.7728 30.2558 33.791C30.383 33.8091 30.5828 33.8273 30.819 33.8636C30.8372 33.8636 30.8735 33.8636 30.8917 33.8818C31.6729 33.9726 32.9083 34.0998 34.398 34.009C37.1232 33.8455 40.7022 32.9916 43.9542 30.0484V30.0303C43.9724 29.7759 43.936 29.3399 43.6272 28.9947C43.5727 28.9402 43.5182 28.8857 43.4455 28.8312C43.4092 28.7949 43.3547 28.7767 43.3183 28.7404C43.2638 28.7222 43.2275 28.6858 43.1912 28.6677L43.0277 28.5587V28.5405C43.0095 28.5042 42.9913 28.4678 42.955 28.4315C42.1193 27.1598 40.9565 26.4149 40.4842 26.0697C40.2662 25.9062 40.1208 25.8335 40.1208 25.8335C39.1216 25.2158 38.9763 25.016 39.0671 23.3627C39.1034 22.7632 39.158 21.982 39.2306 20.9101C39.2306 20.7648 39.2488 20.6376 39.2488 20.5104V20.4196V19.9835C39.2488 19.8927 39.2306 19.8019 39.2306 19.7292C39.2306 19.6929 39.2306 19.6565 39.2125 19.6202C39.1943 19.5294 39.1943 19.4385 39.1761 19.3477C39.1761 19.3113 39.1579 19.2568 39.1579 19.2205C39.1579 19.166 39.1398 19.1297 39.1216 19.0752C39.1034 19.0388 39.1034 18.9843 39.0853 18.948C39.0671 18.8935 39.0489 18.839 39.0489 18.7845C39.0489 18.7663 39.0308 18.7481 39.0308 18.73C39.0308 18.7118 39.0126 18.6936 39.0126 18.6755V18.6573L38.9944 18.6028C38.9763 18.5665 38.9581 18.5301 38.9581 18.4938V18.4756L38.9399 18.4393L38.9218 18.403C38.8854 18.3303 38.8673 18.2576 38.8309 18.2031L38.8128 18.1486C38.7764 18.0941 38.7401 18.0214 38.7038 17.9669L38.6856 17.9488L38.6674 17.9306C38.6311 17.8943 38.6129 17.8579 38.5766 17.8216L38.5403 17.7671C38.5039 17.7126 38.4676 17.6763 38.4312 17.6399L38.2859 17.4946C38.2314 17.4582 38.1769 17.4219 38.1224 17.4037C38.1042 17.3856 38.0861 17.3856 38.0679 17.3856L37.9589 17.3311C37.9407 17.3311 37.9226 17.3129 37.9044 17.3129C37.868 17.2947 37.8317 17.2947 37.8135 17.2766C37.7954 17.2766 37.7772 17.2584 37.7409 17.2584C37.7045 17.2584 37.6864 17.2402 37.65 17.2402H37.2503C37.2322 17.2402 37.214 17.2402 37.1958 17.2584C37.1777 17.2584 37.1595 17.2584 37.1413 17.2766C37.105 17.2766 37.0687 17.2947 37.0142 17.3129H36.9778C36.8688 17.3492 36.778 17.3856 36.669 17.4219L36.6326 17.4401C36.5963 17.4582 36.56 17.4764 36.5055 17.4946L36.451 17.5127L36.342 17.5673L36.2875 17.6036L36.1785 17.6581L36.124 17.6944C36.0876 17.7126 36.0513 17.7489 36.0149 17.7671L35.9786 17.7853C35.9423 17.8216 35.8878 17.8398 35.8514 17.8761L35.8333 17.8943C35.7788 17.9306 35.7424 17.9669 35.6879 17.9851C35.5971 18.0396 35.5063 18.1123 35.4154 18.1668C35.3427 18.2213 35.2701 18.2758 35.1792 18.3303L35.1429 18.3485C35.0702 18.403 34.9794 18.4575 34.9067 18.4938L34.8704 18.512C34.7977 18.5665 34.7069 18.6028 34.6342 18.6573L34.5979 18.6755C34.5252 18.73 34.4344 18.7663 34.3435 18.8027L34.3072 18.8208C34.2164 18.8572 34.1437 18.8935 34.0528 18.9298L34.0165 18.948C33.9257 18.9843 33.8348 19.0025 33.744 19.0388H33.7258C33.635 19.057 33.526 19.0752 33.4351 19.0933C33.2716 19.1115 33.09 19.1297 32.9264 19.1297C32.6539 19.1297 32.3814 19.1115 32.0907 19.0752L31.8182 19.0207C31.7819 19.0207 31.7456 19.0025 31.7274 19.0025C31.4912 18.948 31.2369 18.8935 31.0007 18.839C30.8917 18.8208 30.8008 18.7845 30.6918 18.7663C30.5283 18.73 30.3648 18.6936 30.1831 18.6573C30.1468 18.6573 30.1105 18.6391 30.0923 18.6391C30.0741 18.6391 30.0378 18.621 30.0196 18.621C29.9833 18.621 29.947 18.6028 29.9106 18.6028C29.8743 18.6028 29.8379 18.5846 29.8016 18.5846H29.7653C29.7289 18.5846 29.6926 18.5665 29.6744 18.5665C29.6018 18.5483 29.5291 18.5301 29.4383 18.5301C29.4201 18.5301 29.3838 18.5301 29.3656 18.512C29.3111 18.512 29.2566 18.4938 29.2021 18.4938C29.1657 18.4938 29.1476 18.4938 29.1112 18.4756C29.0567 18.4756 29.0204 18.4575 28.9659 18.4575H28.1302C28.0394 18.4575 27.9667 18.4756 27.8758 18.4756H27.8032C27.7487 18.4756 27.6942 18.4938 27.6397 18.4938H27.6215C27.5852 18.4938 27.567 18.512 27.5307 18.512C27.4762 18.5301 27.4217 18.5301 27.3672 18.5483C27.3308 18.5483 27.2945 18.5665 27.2763 18.5665C27.2218 18.5846 27.1673 18.6028 27.1128 18.6028C27.0765 18.6028 27.0583 18.621 27.022 18.6391C26.9675 18.6573 26.8948 18.6755 26.8403 18.6936C26.804 18.7118 26.7858 18.7118 26.7676 18.73C26.6768 18.7663 26.5859 18.8027 26.5133 18.839C25.8229 19.2387 25.2234 19.7837 24.7692 20.4014C24.6057 20.6194 24.4603 20.8374 24.3332 21.0554C24.1878 21.2916 24.0788 21.546 23.9698 21.8003C23.9335 21.873 23.9153 21.9457 23.879 22.0183C23.8426 22.1455 23.7881 22.2727 23.7518 22.3998C23.7518 22.418 23.7518 22.4362 23.7336 22.4362C23.6973 22.5815 23.661 22.7269 23.6246 22.8904C23.5883 23.0539 23.5701 23.1992 23.5519 23.3627C23.5338 23.4536 23.5338 23.5262 23.5338 23.6171C23.5156 23.8533 23.5156 24.0713 23.5338 24.3074V24.3619C23.5338 24.4165 23.5338 24.471 23.5519 24.5436C23.5701 24.7071 23.5883 24.8706 23.6246 25.0342C23.6428 25.0887 23.661 25.1432 23.661 25.2158C23.6791 25.2703 23.6791 25.3248 23.6973 25.3793C23.8063 25.7972 23.9698 26.1787 24.1696 26.5057C24.9145 27.7956 26.1499 28.5768 27.0583 28.9947C27.4035 29.14 27.7668 29.2854 28.1484 29.4126L28.112 29.4489C28.0394 29.4671 27.9667 29.4852 27.8758 29.5034C27.7487 29.5397 27.5852 29.5942 27.4217 29.6487C27.24 29.7032 27.022 29.7941 26.804 29.8849C26.2226 30.1211 25.5686 30.4663 24.9872 30.9386C24.9145 30.9931 24.8418 31.0658 24.7692 31.1203C24.642 31.2293 24.533 31.3383 24.424 31.4655L24.3877 31.5018L24.3332 31.5563C24.2968 31.6108 24.2423 31.6472 24.206 31.7017L24.1515 31.7562C24.097 31.8288 24.0425 31.9015 24.0061 31.9742C23.9516 32.0469 23.9153 32.1195 23.8608 32.1922C23.5156 32.7917 23.3158 33.5184 23.3703 34.3905V34.3542C23.3703 34.336 23.3703 34.3178 23.3884 34.2996V34.2815C23.3884 34.2633 23.4066 34.2451 23.4066 34.2088V34.1906C23.4066 34.1725 23.4248 34.1361 23.4248 34.0998C23.4248 34.0635 23.4429 34.0453 23.4611 34.009V33.9908C23.4793 33.9545 23.4793 33.9181 23.4974 33.8818V33.8636C23.5156 33.8273 23.5156 33.791 23.5338 33.7546V33.7365C23.5519 33.7001 23.5701 33.6638 23.5883 33.6093L23.6064 33.5911C23.6246 33.5548 23.6428 33.5003 23.6791 33.4639C23.7155 33.3913 23.7518 33.3368 23.7881 33.2641C23.8063 33.2459 23.8245 33.2096 23.8426 33.1914L23.8608 33.1733L23.9698 33.0097C24.0061 32.9734 24.0425 32.9189 24.0788 32.8826L24.1151 32.8462C24.1515 32.8099 24.1696 32.7736 24.206 32.7554L24.2423 32.7191C24.2787 32.6827 24.3332 32.6464 24.3695 32.5919C24.3695 32.5919 23.5883 34.3723 23.9335 35.7712V35.7531V35.7167V35.6622V35.5896V35.4987C23.9335 35.4624 23.9335 35.426 23.9516 35.3897C23.9516 35.3534 23.9516 35.317 23.9698 35.2807V35.2625C23.9698 35.2262 23.988 35.1717 23.988 35.1354V35.099C24.0061 35.0445 24.0061 35.0082 24.0243 34.9537V34.9355C24.0425 34.881 24.0606 34.8265 24.0606 34.7902C24.0606 34.772 24.0788 34.7538 24.0788 34.7357L24.097 34.6993C24.1151 34.663 24.1333 34.6085 24.1515 34.5722C24.1696 34.5177 24.206 34.4632 24.2423 34.4087C24.2423 34.3905 24.2605 34.3723 24.2605 34.3723L24.3695 34.2088C24.3695 34.2088 24.3332 34.6448 24.3332 35.1717C24.3332 35.2625 24.3332 35.3352 24.3513 35.426C24.3513 35.4805 24.3513 35.535 24.3695 35.5896C24.4058 35.0264 24.5148 34.4995 24.6602 34.009C24.5148 34.4995 24.4058 35.0264 24.3695 35.5896C24.3513 35.9529 24.3513 36.3163 24.3877 36.6978C24.4422 37.3336 24.6057 38.024 24.8782 38.7326C24.8782 38.7326 24.6238 37.915 24.9872 37.0975L25.0962 37.3155C25.1325 37.5517 25.1689 37.8968 25.2415 38.2784C25.3142 38.9142 25.6049 40.8218 26.913 42.1481C26.913 42.1481 26.4224 41.5122 26.4951 40.6947C26.5496 40.8037 26.6041 40.8945 26.6404 40.9853C26.8585 41.4032 27.2945 42.1662 27.785 42.7113C27.785 42.7113 27.4035 41.9664 27.4943 41.8029C27.4943 41.8029 28.7661 43.3835 29.1657 43.5288L28.6389 42.6568L28.6207 42.6386C30.4556 43.983 32.9991 44.4735 36.124 43.6015C36.669 43.4561 37.214 43.2563 37.7954 43.0201C38.1406 42.8748 38.4857 42.6931 38.8309 42.5114L38.8854 42.4751C39.1216 42.3479 39.3578 42.2026 39.594 42.0572C39.7757 41.9482 39.9573 41.8211 40.1208 41.712C40.4115 41.5122 40.7022 41.2942 40.9929 41.058C41.011 41.0398 41.0292 41.0217 41.0474 41.0217C41.3199 40.7855 41.5924 40.5311 41.8286 40.2768C42.1556 39.9316 42.4463 39.5864 42.7006 39.2412L42.7188 39.2231C42.7915 39.1322 42.846 39.0596 42.9005 38.9687L42.9187 38.9506C42.9368 38.9142 42.955 38.8961 42.9732 38.8597C43.064 38.7326 43.1367 38.6235 43.2275 38.4964C43.2457 38.46 43.2638 38.4419 43.282 38.4055C43.3183 38.3329 43.3547 38.2784 43.4092 38.2057C43.4455 38.1512 43.4637 38.1149 43.5 38.0604C43.5364 38.0058 43.5727 37.9513 43.5909 37.8968C43.6454 37.806 43.6999 37.697 43.7544 37.6062L43.8089 37.4972L43.9179 37.2791L43.9724 37.1701L43.9905 37.1338C44.0269 37.043 44.0814 36.9521 44.1177 36.8613V36.8431C44.2812 36.6978 44.3902 36.5524 44.4992 36.4253C44.5174 36.4071 44.5356 36.3889 44.5356 36.3708C44.6991 36.1346 44.7718 35.8621 44.7718 35.6077V35.6077ZM15.3947 30.975C15.3402 30.9931 15.2857 31.0658 15.213 31.1566C15.1948 31.193 15.1585 31.2293 15.1403 31.2838C14.9768 31.5927 14.8315 32.0287 14.8315 32.0287C14.8496 31.8834 14.8678 31.738 14.8678 31.5927V31.5382C14.886 31.3928 14.9042 31.2293 14.9223 31.084V31.0295C14.9405 30.8478 14.9768 30.6843 15.0132 30.5208C15.0132 30.5026 15.0132 30.4844 15.0313 30.4481V30.4299C15.0313 30.4118 15.0313 30.3936 15.0495 30.3754C15.0495 30.3391 15.0677 30.3209 15.0677 30.2846C15.0858 30.1574 15.1222 30.0303 15.1403 29.9031C15.1585 29.7941 15.1767 29.6851 15.1948 29.5942V29.5579C15.1948 29.5397 15.1948 29.5216 15.213 29.5216V29.4852C15.213 29.4671 15.2312 29.4307 15.2312 29.4126C15.2312 29.3944 15.2312 29.3762 15.2493 29.358C15.2493 29.3217 15.2675 29.2854 15.2675 29.2672C15.2675 29.249 15.2857 29.2127 15.2857 29.1945C15.2857 29.1582 15.3038 29.1219 15.3038 29.1037C15.3038 29.0855 15.3038 29.0674 15.322 29.0492C15.322 29.031 15.322 29.0129 15.3402 29.0129C15.3402 28.9765 15.3583 28.9584 15.3583 28.9402V28.8857L15.322 28.922C15.2857 28.9402 15.2675 28.9765 15.2312 28.9947L15.1948 29.031C15.1585 29.0674 15.1222 29.1037 15.104 29.14L15.0858 29.1582L14.9768 29.3217L14.9587 29.3399C14.9587 29.3581 14.9405 29.3581 14.9405 29.3762L14.886 29.4852V29.5216C14.8678 29.5761 14.8315 29.6306 14.8133 29.6851C14.7588 29.8304 14.7043 29.9758 14.668 30.1029C14.6498 30.1393 14.6498 30.1938 14.6316 30.2119C14.6135 30.2846 14.5953 30.3573 14.5953 30.3754V30.3936V30.3754C14.5953 30.3209 14.5953 30.2846 14.6135 30.2301C14.6135 30.1393 14.6316 30.0303 14.6316 29.9394C14.6316 29.8667 14.6498 29.7759 14.668 29.7032C14.668 29.6851 14.668 29.6487 14.6861 29.6306C14.6861 29.5942 14.7043 29.5579 14.7043 29.5216C14.7043 29.4852 14.7225 29.4489 14.7225 29.4126V29.358C14.7225 29.3217 14.7406 29.2672 14.7406 29.2309V29.14V29.1037C14.7406 29.0855 14.7406 29.0674 14.7588 29.0492C14.777 28.9947 14.7951 28.922 14.7951 28.8675V28.8494C14.8133 28.813 14.8133 28.7585 14.8315 28.7222V28.704C14.8496 28.6132 14.886 28.5223 14.9042 28.4315V28.3952C14.9042 28.377 14.9042 28.3588 14.9223 28.3407C14.9587 28.1953 15.0132 28.05 15.0495 27.9228V27.9046C15.0858 27.7956 15.1403 27.6685 15.1767 27.5595V27.5413C15.1948 27.4868 15.213 27.4504 15.2312 27.3959C15.2675 27.3233 15.2857 27.2506 15.322 27.1779C15.322 27.1598 15.3402 27.1234 15.3765 27.0508C15.3947 27.0326 15.3947 26.9963 15.4128 26.9781C15.431 26.9418 15.4492 26.9054 15.4673 26.8509L15.4855 26.8146C15.4673 26.7964 15.431 26.7964 15.4128 26.7782H15.3947L15.3583 26.7601C15.1948 26.6874 15.0132 26.6147 14.8315 26.5602H14.7951C14.668 26.5239 14.559 26.5057 14.4318 26.4876C14.3591 26.4876 14.2865 26.4694 14.2138 26.4694H14.0321C13.9413 26.4694 13.8504 26.4876 13.7596 26.4876C13.7233 26.4876 13.7051 26.4876 13.6688 26.5057C13.6324 26.5057 13.5779 26.5239 13.5416 26.5239C13.5234 26.5239 13.5052 26.5239 13.4871 26.5421C13.4507 26.5421 13.4326 26.5602 13.3962 26.5602C13.3417 26.5784 13.2691 26.5966 13.2146 26.6147C13.1964 26.6147 13.1601 26.6329 13.1419 26.6329C13.0692 26.6692 12.9784 26.6874 12.9057 26.7237C12.8694 26.7419 12.8512 26.7601 12.8149 26.7601L12.7059 26.8146L12.6695 26.8327C12.6332 26.8509 12.5969 26.8691 12.5605 26.9054C12.5242 26.9236 12.4879 26.9418 12.4515 26.9781C12.4152 26.9963 12.3788 27.0326 12.3425 27.0508C12.3243 27.0689 12.288 27.0871 12.2698 27.1053C12.2153 27.1598 12.1427 27.2143 12.0882 27.2688L11.9973 27.3596C11.9428 27.4141 11.9065 27.4686 11.852 27.5231L11.8338 27.5413C11.8157 27.5776 11.7793 27.5958 11.7612 27.6321L11.7066 27.6866C11.6158 27.8138 11.525 27.9591 11.4523 28.1045C11.4341 28.1227 11.4341 28.1408 11.416 28.159C11.3796 28.2317 11.3615 28.3043 11.3251 28.377C11.307 28.4133 11.307 28.4315 11.2888 28.4678C11.2706 28.5405 11.2343 28.6132 11.2161 28.704V28.7767C11.198 28.8312 11.198 28.8857 11.1798 28.9402C11.1798 28.9765 11.1798 28.9947 11.1616 29.031C11.1616 29.0674 11.1616 29.0855 11.1435 29.1219V29.1945C11.1435 29.2854 11.1253 29.3762 11.1435 29.4671C11.1435 29.5397 11.1435 29.6124 11.1616 29.6851V29.7214C11.1616 29.7577 11.1798 29.7941 11.1798 29.8304C11.198 29.9758 11.2343 30.1029 11.2706 30.2483C11.307 30.3573 11.3433 30.4481 11.3796 30.5389C11.4523 30.7206 11.5431 30.8841 11.6521 31.0476C11.8702 31.3747 12.1608 31.6653 12.506 31.8834C12.6877 32.0105 12.9057 32.1014 13.1237 32.174C13.3236 32.2467 13.5416 32.3012 13.7778 32.3194C13.8323 32.3194 13.8868 32.3375 13.9231 32.3375H14.1593C14.2319 32.3375 14.3046 32.3194 14.3773 32.3194C14.4136 32.3194 14.4681 32.3194 14.5045 32.3012C14.6135 32.283 14.7043 32.2649 14.8133 32.2467H14.8315C14.8678 32.2285 14.9042 32.2285 14.9587 32.2104C15.0858 32.174 15.213 32.1195 15.322 32.065L15.3402 32.0469C15.3765 32.0287 15.4128 32.0105 15.431 32.0105C15.3765 31.7017 15.322 31.3747 15.3038 31.0476C15.3947 31.0113 15.3947 30.9931 15.3947 30.975" fill="#FCE9CD"/>
<path d="M27.6578 5.30469L27.7123 5.34102L27.6578 5.30469Z" fill="#4D9ED7"/>
<path d="M43.6635 34.8633C43.6635 34.8451 43.6635 34.827 43.6453 34.827C43.6271 34.7906 43.6271 34.7725 43.6271 34.7543C43.5363 34.4636 43.4273 34.2456 43.3183 34.0821C43.1911 33.8823 43.0821 33.7733 43.0821 33.7733L43.1366 33.5552C43.1548 33.4644 43.1729 33.3736 43.1729 33.2827C43.2456 32.6287 43.0821 32.12 42.9367 31.8293C42.9186 31.7748 42.9004 31.7385 42.8822 31.7021C42.7732 31.7748 42.6824 31.8475 42.5734 31.9202C40.6113 33.2464 38.413 34.1003 36.033 34.4636C34.398 34.718 32.672 34.7361 30.8734 34.5181L30.9098 34.5363C30.9098 34.5363 29.8197 34.6816 29.529 35.7172L29.5472 35.7354L29.4564 36.4257C29.4927 37.3705 29.9106 37.9518 30.4011 38.2607C30.9098 38.4605 31.5275 38.6059 32.2178 38.6967C33.3987 38.842 34.7795 38.8057 36.1602 38.5877C38.0133 38.3333 40.6295 37.3523 42.5007 36.0805C42.9186 35.7899 43.3183 35.481 43.6453 35.1722L43.6635 35.154L43.6816 35.1358C43.6816 35.0087 43.6635 34.936 43.6635 34.8633" fill="white"/>
<path d="M40.1206 25.8883C39.1214 25.2706 38.9761 25.0707 39.0669 23.4175C39.1033 22.818 39.1578 22.0368 39.2304 20.9649C39.2304 20.8195 39.2486 20.6923 39.2486 20.5652V20.4743V20.0383C39.2486 19.9475 39.2304 19.8566 39.2304 19.784C39.2304 19.7476 39.2304 19.7113 39.2123 19.675C39.1941 19.5841 39.1941 19.4933 39.1759 19.4024C39.1759 19.3661 39.1578 19.3116 39.1578 19.2753C39.1578 19.2208 39.1396 19.1844 39.1214 19.1299C39.1033 19.0936 39.1033 19.0391 39.0851 19.0028C38.9397 18.7847 38.7762 18.6031 38.5764 18.4396L38.5401 18.4032L38.5037 18.3851H38.4856C38.4492 18.3669 38.4311 18.3487 38.3947 18.3306C38.3584 18.3124 38.322 18.2942 38.3039 18.2761C38.0132 18.0944 37.668 17.9854 37.3228 17.9309C37.123 17.8945 36.9231 17.8945 36.7233 17.8945C36.6325 17.8945 36.5234 17.9127 36.4326 17.9127C36.1783 17.949 35.9239 18.0035 35.6514 18.0762C35.5606 18.1307 35.4697 18.2034 35.3789 18.2579C35.3062 18.3124 35.2335 18.3669 35.1427 18.4214L35.1064 18.4396C35.0337 18.4941 34.9429 18.5486 34.8702 18.5849L34.8339 18.6031C34.7612 18.6576 34.6704 18.6939 34.5977 18.7484L34.5613 18.7666C34.4887 18.8211 34.3978 18.8574 34.307 18.8938L34.2707 18.9119C34.1798 18.9483 34.1072 18.9846 34.0163 19.0209L33.98 19.0391C33.8891 19.0754 33.7983 19.0936 33.7075 19.1299H33.6893C33.5985 19.1481 33.4895 19.1663 33.3986 19.1844C33.2351 19.2026 33.0534 19.2208 32.8899 19.2208C32.6174 19.2208 32.3449 19.2026 32.0542 19.1663L31.7817 19.1118C31.7454 19.1118 31.709 19.0936 31.6909 19.0936C31.4547 19.0391 31.2003 18.9846 30.9642 18.9301C30.8551 18.9119 30.7643 18.8756 30.6553 18.8574C30.4918 18.8211 30.3283 18.7847 30.1466 18.7484C30.1103 18.7484 30.0739 18.7302 30.0558 18.7302C29.9104 18.7302 29.7651 18.7484 29.6379 18.7666H29.6016C29.1837 18.8211 28.784 18.9119 28.3662 19.0573C28.348 19.0573 28.3298 19.0754 28.2935 19.0754C28.2208 19.0936 28.1663 19.1299 28.0937 19.1481C28.0028 19.1844 27.9302 19.2208 27.8393 19.2571C27.2398 19.5115 26.6766 19.8748 26.1316 20.329C25.9136 20.5107 25.7137 20.7105 25.5139 20.9104C25.2232 21.2192 24.9688 21.5462 24.7327 21.8914C24.7145 21.9096 24.7145 21.9277 24.6963 21.9459C24.5691 22.1276 24.4601 22.3274 24.3693 22.5091C24.333 22.5818 24.2966 22.6545 24.2603 22.709V22.7271C24.1513 22.9633 24.0605 23.1813 23.9878 23.4175C23.9878 23.4357 23.9878 23.4538 23.9696 23.4538C23.9514 23.4902 23.9514 23.5265 23.9333 23.5628C23.8969 23.6718 23.8606 23.7808 23.8424 23.8899C23.8061 23.9989 23.7879 24.1079 23.7698 24.235C23.7698 24.2532 23.7516 24.2895 23.7516 24.3077C23.7334 24.3804 23.7334 24.453 23.7153 24.5076C23.6789 24.7619 23.6608 25.0162 23.6426 25.2706V25.4523C23.7516 25.8701 23.9151 26.2516 24.115 26.5787C24.8598 27.8686 26.0952 28.6498 27.0036 29.0676C27.3488 29.213 27.7121 29.3583 28.0937 29.4855L28.1118 29.5037L28.13 29.4855C28.1845 29.4491 28.2208 29.4128 28.2753 29.3765C28.2935 29.3583 28.3117 29.3583 28.3298 29.3401L28.4934 29.2311C28.5115 29.213 28.5297 29.213 28.5479 29.1948L28.7114 29.0858C28.7295 29.0676 28.7477 29.0676 28.7659 29.0495C28.8204 29.0131 28.8749 28.9768 28.9475 28.9405C28.9657 28.9223 28.9839 28.9223 29.002 28.9041C29.0566 28.8678 29.1292 28.8315 29.1837 28.7951C29.2019 28.7769 29.2201 28.7769 29.2382 28.7588C29.2927 28.7224 29.3654 28.6861 29.4199 28.6498C29.4381 28.6316 29.4744 28.6316 29.4926 28.6134C29.5471 28.5771 29.6197 28.5408 29.6743 28.5044C29.6924 28.4863 29.7288 28.4681 29.7469 28.4681C29.8014 28.4318 29.8741 28.3954 29.9468 28.3591C29.9831 28.3409 30.0013 28.3228 30.0376 28.3228C30.1103 28.2864 30.1648 28.2501 30.2374 28.2319C30.2738 28.2137 30.292 28.1956 30.3283 28.1956C30.401 28.1592 30.4555 28.1411 30.5281 28.1047L30.6371 28.0502C30.7098 28.0139 30.7643 27.9957 30.837 27.9594C30.8733 27.9412 30.9097 27.9231 30.9642 27.9049C31.0368 27.8867 31.0913 27.8504 31.164 27.8322C31.2003 27.8141 31.2548 27.7959 31.2912 27.7777C31.3638 27.7596 31.4183 27.7232 31.491 27.7051C31.5455 27.6869 31.5819 27.6687 31.6364 27.6506C31.709 27.6324 31.7635 27.596 31.8362 27.5779L31.9997 27.5234C32.0542 27.5052 32.1269 27.487 32.1814 27.4507C32.2359 27.4325 32.3086 27.4144 32.3631 27.3962C32.4176 27.378 32.4902 27.3599 32.5447 27.3417C32.6174 27.3235 32.6901 27.3054 32.7446 27.2872C32.7991 27.269 32.8536 27.2509 32.9263 27.2327C32.9989 27.2145 33.0716 27.1964 33.1624 27.16C33.1988 27.1419 33.2351 27.1419 33.2714 27.1237C33.5621 26.3788 34.4523 24.5257 35.9603 24.3259C36.1238 24.3077 36.2691 24.2895 36.4144 24.2895H36.5234C36.5053 24.1805 36.4871 24.0715 36.4871 23.9444C36.4326 23.145 36.687 22.4728 37.0321 22.4546C37.3047 22.4364 37.5227 22.8361 37.559 22.9633C37.668 23.1995 37.7407 23.5083 37.7588 23.8535C37.777 24.1624 37.7407 24.453 37.6862 24.7074C37.7225 24.7437 37.7407 24.7801 37.777 24.7982C38.1222 25.2343 38.1767 25.8156 38.1585 26.2516C38.2857 26.2335 38.4311 26.2335 38.5764 26.2153C38.6127 26.2153 38.6491 26.2153 38.6854 26.1971H38.7581C38.9216 26.179 39.1033 26.1608 39.2849 26.1608C39.6846 26.1245 40.0843 26.1063 40.5022 26.0881C40.266 25.961 40.1206 25.8883 40.1206 25.8883V25.8883ZM43.9177 37.0796C43.2636 37.6609 42.5733 38.1333 41.8829 38.5148C41.5377 38.6965 41.1925 38.86 40.8655 39.0053C40.1206 39.3323 39.4121 39.5504 38.7762 39.7139C37.3773 40.059 36.4144 40.0591 36.4144 40.0591C37.1775 40.4769 38.1404 40.4769 38.7944 40.4224C39.2486 40.3861 39.5574 40.2952 39.5574 40.2952C39.5393 40.5677 39.5029 40.8221 39.4666 41.0764C39.4121 41.349 39.3394 41.5851 39.2486 41.8031V41.8213C39.1396 42.0938 38.9942 42.33 38.8489 42.548C38.8307 42.5662 38.8126 42.6025 38.7944 42.6207L38.8489 42.5843C39.0851 42.4572 39.3213 42.3118 39.5574 42.1665C39.7391 42.0575 39.9208 41.9303 40.0843 41.8213C40.375 41.6215 40.6657 41.4035 40.9564 41.1673C40.9745 41.1491 40.9927 41.1309 41.0109 41.1309C41.2834 40.8948 41.5559 40.6404 41.7921 40.3861C42.1191 40.0409 42.4098 39.6957 42.6641 39.3505L42.6823 39.3323C42.755 39.2415 42.8095 39.1688 42.864 39.078L42.8821 39.0598C42.9003 39.0235 42.9185 39.0053 42.9366 38.969C43.0275 38.8418 43.1001 38.7328 43.191 38.6056C43.2091 38.5693 43.2273 38.5511 43.2455 38.5148C43.2818 38.4421 43.3181 38.3876 43.3726 38.315C43.409 38.2605 43.4272 38.2241 43.4635 38.1696C43.4998 38.1151 43.5362 38.0606 43.5543 38.0061C43.6088 37.9153 43.6633 37.8063 43.7178 37.7154L43.7723 37.6064L43.8813 37.3884L43.9358 37.2794L43.954 37.2431C43.9903 37.1522 44.0449 37.0614 44.0812 36.9706C44.0085 36.9887 43.9722 37.0251 43.9177 37.0796V37.0796ZM27.3488 29.758C27.1671 29.8125 26.9491 29.9033 26.7311 29.9942C26.1497 30.2304 25.4957 30.5755 24.9143 31.0479C24.8417 31.1024 24.769 31.1751 24.6963 31.2296C24.5691 31.3386 24.4601 31.4476 24.3511 31.5748L24.3148 31.6111L24.2603 31.6656C24.224 31.7201 24.1695 31.7564 24.1331 31.8109L24.0786 31.8654C24.0241 31.9381 23.9696 32.0108 23.9333 32.0835C23.8788 32.1561 23.8424 32.2288 23.7879 32.3015C23.4428 32.901 23.2429 33.6277 23.2974 34.4998V34.4634C23.2974 34.4452 23.2974 34.4271 23.3156 34.4089V34.3907C23.3156 34.3726 23.3337 34.3544 23.3337 34.3181V34.2999C23.3337 34.2817 23.3519 34.2454 23.3519 34.2091C23.3519 34.1727 23.3701 34.1546 23.3882 34.1182V34.1001C23.4064 34.0637 23.4064 34.0274 23.4246 33.9911V33.9729C23.4428 33.9366 23.4428 33.9002 23.4609 33.8639V33.8457C23.4791 33.8094 23.4973 33.773 23.5154 33.7185L23.5336 33.7004C23.5518 33.664 23.5699 33.6095 23.6063 33.5732C23.6426 33.5005 23.6789 33.446 23.7153 33.3734C23.7334 33.3552 23.7516 33.3189 23.7698 33.3007L23.7879 33.2825L23.8969 33.119C23.9333 33.0827 23.9696 33.0282 24.0059 32.9918L24.0423 32.9555C24.0786 32.9192 24.0968 32.8828 24.1331 32.8647L24.1695 32.8283C24.2058 32.792 24.2603 32.7557 24.2966 32.7012C24.2966 32.7012 23.5154 34.4816 23.8606 35.8805V35.8623V35.826V35.7715V35.6988V35.608C23.8606 35.5716 23.8606 35.5353 23.8788 35.499C23.8788 35.4626 23.8788 35.4263 23.8969 35.39V35.3718C23.8969 35.3355 23.9151 35.281 23.9151 35.2446V35.2083C23.9333 35.1538 23.9333 35.1175 23.9514 35.0629V35.0448C23.9696 34.9903 23.9878 34.9358 23.9878 34.8994C23.9878 34.8813 24.0059 34.8631 24.0059 34.8449L24.0241 34.8086C24.0423 34.7723 24.0605 34.7178 24.0786 34.6814C24.0968 34.6269 24.1331 34.5724 24.1695 34.5179C24.1695 34.4998 24.1876 34.4816 24.1876 34.4816L24.2966 34.3181C24.2966 34.3181 24.2603 34.7541 24.2603 35.281C24.2603 35.3718 24.2603 35.4445 24.2785 35.5353C24.2785 35.5898 24.2785 35.6443 24.2966 35.6988C24.333 35.1356 24.442 34.6088 24.5873 34.1182C24.6236 33.9911 24.6782 33.8457 24.7145 33.7185C24.7145 33.7004 24.7327 33.6822 24.7327 33.664C24.7872 33.5369 24.8235 33.4279 24.878 33.3007C24.8962 33.2825 24.8962 33.2644 24.9143 33.228C24.9688 33.119 25.0233 32.9918 25.0778 32.8828C25.096 32.8647 25.096 32.8465 25.096 32.8283C25.2232 32.5922 25.3504 32.3741 25.4775 32.1743C25.4957 32.1561 25.4957 32.138 25.5139 32.1198C25.5684 32.0471 25.6229 31.9745 25.6774 31.8836C25.6955 31.8654 25.6955 31.8473 25.7137 31.8291C25.7319 31.8109 25.7319 31.7928 25.75 31.7746C25.8227 31.6838 25.8772 31.5929 25.9499 31.5021C25.9681 31.4839 25.9681 31.4658 25.9862 31.4658C26.0589 31.3749 26.1316 31.2841 26.2042 31.2114C26.2951 31.1024 26.3859 31.0116 26.4767 30.9026C26.5494 30.8299 26.6039 30.7572 26.6766 30.7027L26.7493 30.63C26.8946 30.4847 27.0399 30.3394 27.1853 30.2122C27.585 29.8488 27.912 29.6127 28.021 29.54C27.9483 29.5582 27.8757 29.5763 27.7848 29.5945C27.6758 29.649 27.5305 29.7035 27.3488 29.758" fill="#F2D2AC"/>
<path d="M37.8133 25.8153C37.8133 25.8153 37.8133 25.7789 37.7951 25.7063C37.7224 25.4519 37.4681 24.8342 36.4689 24.9251C35.4152 25.0341 35.0518 25.8879 34.961 26.1786C34.9428 26.2331 34.9428 26.2695 34.9428 26.2695L34.9791 26.2876C35.1063 26.1786 35.3607 26.1786 35.5968 26.3421C35.7058 26.4148 35.7785 26.4875 35.8512 26.5783C35.942 26.7236 35.9602 26.869 35.9057 26.978L35.8512 27.0325C35.8512 27.0325 35.8875 27.0507 35.9602 27.0688C36.2509 27.1597 37.0684 27.3232 37.5044 26.76C37.5226 26.7236 37.5408 26.7055 37.5589 26.6691C37.4681 26.6328 37.4318 26.5056 37.4318 26.3421C37.4318 26.2695 37.4499 26.1968 37.4681 26.106C37.5226 25.8879 37.6861 25.7608 37.8133 25.8153ZM32.5628 33.591C31.8725 33.7364 31.2729 33.8454 30.8187 33.918C30.8369 33.918 30.8732 33.918 30.8914 33.9362C31.6726 34.027 32.908 34.1542 34.3978 34.0634C37.1229 33.8999 40.7019 33.046 43.9539 30.1028V30.0847C43.9721 29.8303 43.9358 29.3943 43.6269 29.0491C43.5724 28.9946 43.5179 28.9401 43.4453 28.8856C43.4271 28.8856 43.4271 28.8674 43.4089 28.8674C43.3181 28.8129 43.2454 28.7766 43.1727 28.7221L43.0092 28.6131V28.5949C42.8094 28.8856 42.5732 29.1581 42.3189 29.4125C42.228 29.5033 42.1372 29.5941 42.0282 29.685C41.138 30.4844 39.9752 31.1747 38.7217 31.7198C36.6506 32.6281 34.3251 33.2277 32.5628 33.591ZM15.3399 28.8493C15.3036 28.8674 15.2854 28.9038 15.2491 28.9219L15.2127 28.9583C15.1764 28.9946 15.1401 29.0309 15.1219 29.0673L15.1037 29.0854L14.9947 29.249L14.9766 29.2671C14.9766 29.2853 14.9584 29.2853 14.9584 29.3035L14.9039 29.4125V29.4488C14.8857 29.5033 14.8494 29.5578 14.8312 29.6123C14.7767 29.7576 14.7222 29.903 14.6859 30.0302C14.6677 30.0665 14.6677 30.121 14.6495 30.1392C14.6314 30.2118 14.6132 30.2845 14.6132 30.3027V30.3208V30.3027C14.6132 30.2482 14.6132 30.2118 14.6314 30.1573C14.6314 30.0665 14.6495 29.9575 14.6495 29.8667C14.6495 29.794 14.6677 29.7031 14.6859 29.6305C14.6859 29.6123 14.6859 29.576 14.704 29.5578C14.704 29.5215 14.7222 29.4851 14.7222 29.4488C14.7222 29.4125 14.7404 29.3761 14.7404 29.3398V29.2853C14.7404 29.249 14.7586 29.1945 14.7586 29.1581V29.0673V29.0309C14.7586 29.0128 14.7586 28.9946 14.7767 28.9764C14.7949 28.9219 14.8131 28.8493 14.8131 28.7948V28.7766C14.8312 28.7403 14.8312 28.6858 14.8494 28.6494V28.6313C14.8676 28.5404 14.9039 28.4496 14.9221 28.3587V28.3224C14.9221 28.3042 14.9221 28.2861 14.9402 28.2679C14.9766 28.1226 15.0311 27.9772 15.0674 27.85V27.8319C15.1037 27.7229 15.1582 27.5957 15.1946 27.4867V27.4685C15.2127 27.414 15.2309 27.3777 15.2491 27.3232C15.2854 27.2505 15.3036 27.1778 15.3399 27.1052C15.3399 27.087 15.3581 27.0507 15.3944 26.978C15.4126 26.9598 15.4126 26.9235 15.4308 26.9053C15.4489 26.869 15.4671 26.8327 15.4853 26.7782L15.5034 26.7418C15.4853 26.7237 15.4489 26.7237 15.4308 26.7055H15.4126L15.3763 26.6873C15.2127 26.6146 15.0311 26.542 14.8494 26.4875H14.8131C14.6859 26.4511 14.5769 26.433 14.4497 26.4148C14.377 26.4148 14.3044 26.3966 14.2317 26.3966H14.05C13.9592 26.3966 13.8683 26.4148 13.7775 26.4148C13.7412 26.4148 13.723 26.4148 13.6867 26.433C13.6503 26.433 13.5958 26.4511 13.5595 26.4511C13.5413 26.4511 13.5232 26.4511 13.505 26.4693C13.4687 26.4693 13.4505 26.4875 13.4141 26.4875C13.3596 26.5056 13.287 26.5238 13.2325 26.542C13.2143 26.542 13.178 26.5601 13.1598 26.5601C13.0871 26.5965 12.9963 26.6146 12.9236 26.651C12.8873 26.6691 12.8691 26.6873 12.8328 26.6873L12.7238 26.7418L12.6874 26.76C12.6511 26.7782 12.6148 26.7963 12.5784 26.8327C12.5421 26.8508 12.5058 26.869 12.4694 26.9053C12.4331 26.9235 12.3968 26.9598 12.3604 26.978C12.3423 26.9962 12.3059 27.0143 12.2878 27.0325C12.2333 27.087 12.1606 27.1415 12.1061 27.196L12.0152 27.2868C11.9607 27.3414 11.9244 27.3959 11.8699 27.4504L11.8517 27.4685C11.8336 27.5049 11.7972 27.523 11.7791 27.5594L11.7246 27.6139C11.6337 27.741 11.5429 27.8864 11.4702 28.0317C11.452 28.0499 11.452 28.0681 11.4339 28.0862C11.3975 28.1589 11.3794 28.2316 11.343 28.3042C11.3249 28.3406 11.3249 28.3587 11.3067 28.3951C11.3067 28.4132 11.3249 28.4314 11.3249 28.4496C11.343 28.5222 11.3612 28.5768 11.3794 28.6494V28.6858C11.3975 28.7403 11.4339 28.8129 11.452 28.8674C11.5247 29.0491 11.5974 29.2126 11.6882 29.358C11.7064 29.3761 11.7064 29.3943 11.7246 29.4125V29.4306L11.7427 29.4488C11.7972 29.5578 11.8517 29.6486 11.9062 29.7213C11.9971 29.8485 12.0697 29.9393 12.1242 30.012L12.1606 30.0483C12.1606 30.0665 12.1787 30.0665 12.1787 30.0665L12.2151 30.1028C12.2151 30.0665 12.1969 30.0302 12.1969 30.012C12.1424 29.7758 12.1242 29.5578 12.1242 29.3216V29.2853C12.1242 29.1399 12.1242 28.9946 12.1424 28.8674L12.1969 29.0309C12.2151 29.1036 12.2514 29.1763 12.2696 29.249V29.2853C12.3786 29.5941 12.5058 29.8485 12.6329 30.0483C12.7783 30.3027 12.9055 30.4662 12.9963 30.5752C13.0145 30.5934 13.0326 30.6115 13.0326 30.6297L13.069 30.666C13.0145 30.4117 12.9781 30.1755 12.9781 29.9393V29.7031C12.9781 29.5941 12.9781 29.5033 12.9963 29.4125C13.0326 29.576 13.0871 29.7395 13.1416 29.8848V29.903C13.3415 30.4298 13.5777 30.8114 13.7412 31.0475L13.7593 31.0657C13.7957 31.1021 13.8138 31.1384 13.832 31.1747C13.8502 31.1929 13.8683 31.2111 13.8683 31.2292L13.9047 31.2656L13.9228 31.2837V31.2474C13.9228 31.2111 13.9047 31.1747 13.9047 31.1384C13.8865 31.0112 13.8683 30.884 13.8502 30.775C13.8502 30.7024 13.832 30.6115 13.832 30.5389V30.3208V30.2845V30.1392C13.832 30.0483 13.8502 29.9393 13.8502 29.8485C13.8683 29.903 13.8865 29.9757 13.9047 30.0302C13.9228 30.0665 13.941 30.121 13.9592 30.1573V30.1755L13.9773 30.1937C13.9955 30.2482 14.0137 30.3027 14.0318 30.339C14.0682 30.4299 14.1045 30.5207 14.159 30.5934C14.2135 30.7024 14.2499 30.7932 14.3044 30.8659C14.3407 30.9204 14.3589 30.9567 14.377 30.993C14.4134 31.0475 14.4497 31.1021 14.4679 31.1384C14.5042 31.1747 14.5224 31.2111 14.5405 31.2474L14.5587 31.2656C14.5769 31.3019 14.6132 31.3201 14.6314 31.3564C14.6495 31.3746 14.6677 31.3927 14.6677 31.4109C14.704 31.4472 14.7222 31.4836 14.7404 31.4836L14.7586 31.5017V31.4472C14.7767 31.3019 14.7949 31.1384 14.8131 30.993V30.9385C14.8312 30.7569 14.8676 30.5934 14.9039 30.4299C14.9039 30.4117 14.9039 30.3935 14.9221 30.3572V30.339C14.9221 30.3208 14.9221 30.3027 14.9402 30.2845C14.9402 30.2482 14.9584 30.23 14.9584 30.1937C14.9766 30.0665 15.0129 29.9393 15.0311 29.8121C15.0492 29.7031 15.0674 29.5941 15.0856 29.5033V29.467C15.0856 29.4488 15.0856 29.4306 15.1037 29.4306V29.3943C15.1037 29.3761 15.1219 29.3398 15.1219 29.3216C15.1219 29.3035 15.1219 29.2853 15.1401 29.2671C15.1401 29.2308 15.1582 29.1944 15.1582 29.1763C15.1582 29.1581 15.1764 29.1218 15.1764 29.1036C15.1764 29.0673 15.1946 29.0309 15.1946 29.0128C15.1946 28.9946 15.1946 28.9764 15.2127 28.9583C15.2127 28.9401 15.2127 28.9219 15.2309 28.9219C15.2309 28.8856 15.2491 28.8674 15.2491 28.8493V28.7948L15.3399 28.8493V28.8493ZM37.3591 36.4433C37.6134 36.3525 37.8315 36.2798 38.0131 36.2072C38.3583 36.0618 38.54 35.9528 38.54 35.9165C38.5218 35.8801 38.322 35.8983 37.9586 35.9891C37.777 36.0255 37.5589 36.0618 37.2864 36.1345C37.1592 36.1708 37.0139 36.189 36.8686 36.2072C36.7232 36.2253 36.5597 36.2617 36.3962 36.2798C36.0692 36.3343 35.7058 36.3707 35.3062 36.407L34.7066 36.4615C34.5068 36.4797 34.2888 36.4797 34.0708 36.4978C33.1987 36.516 32.2358 36.4797 31.2548 36.298C30.7461 36.2072 30.0375 35.971 29.547 35.6985L29.5288 35.6803C29.8195 34.6447 30.9096 34.4994 30.9096 34.4994L30.8732 34.4812H30.8187C30.6552 34.4631 30.5281 34.4449 30.4009 34.4267C30.31 34.4086 30.2374 34.4086 30.1829 34.3904C30.1284 34.3904 30.0739 34.3722 30.0557 34.3722C29.4017 34.3359 29.0383 34.8809 28.9293 35.1171L28.8748 35.2261C28.784 35.4441 28.7113 35.6803 28.6931 35.9528C28.6568 36.4433 28.784 36.9702 29.1655 37.4244C29.4198 37.7332 29.8559 38.0058 30.4191 38.2238C29.9285 37.9149 29.4925 37.3154 29.4743 36.3888C30.0375 36.625 30.6734 36.7704 31.1639 36.8612C32.1995 37.061 33.2169 37.0792 34.1071 37.0247C34.3251 37.0065 34.5613 36.9884 34.7611 36.9702C34.9791 36.9339 35.179 36.9157 35.3788 36.8975C35.7785 36.8249 36.1237 36.7704 36.4689 36.6977C36.6324 36.6614 36.7959 36.625 36.9412 36.5705C37.1047 36.5342 37.2319 36.4978 37.3591 36.4433" fill="#F2D2AC"/>
<path d="M36.5053 24.3076C37.0503 24.3258 37.4136 24.4893 37.668 24.7436C37.7225 24.5075 37.7588 24.2168 37.7407 23.8898C37.7225 23.5446 37.6498 23.2357 37.5408 22.9996C37.5045 22.8542 37.2865 22.4727 37.014 22.4909C36.6688 22.509 36.4144 23.1812 36.4689 23.9806C36.4689 24.0896 36.4871 24.1986 36.5053 24.3076ZM37.4136 26.3606C37.4136 26.5059 37.4682 26.6331 37.5408 26.6876C37.668 26.7603 37.8315 26.6149 37.9042 26.3787C37.9042 26.3606 37.9223 26.3424 37.9223 26.3242C37.9768 26.1062 37.9223 25.8882 37.7952 25.8337C37.668 25.761 37.5045 25.9064 37.4318 26.1426C37.4318 26.2152 37.4136 26.2879 37.4136 26.3606ZM34.9428 26.7603C34.9974 26.8511 35.0882 26.9419 35.1972 27.0146C35.4334 27.1599 35.6877 27.1781 35.8331 27.0509L35.8876 26.9964C35.9421 26.8874 35.9239 26.7421 35.8331 26.5967C35.7786 26.5059 35.6877 26.4151 35.5787 26.3606C35.3425 26.2152 35.0882 26.1971 34.961 26.3061C34.9428 26.3242 34.9247 26.3424 34.9065 26.3787C34.852 26.4696 34.8702 26.6149 34.9428 26.7603V26.7603ZM43.9722 30.0849C43.954 30.0849 43.954 30.0849 43.9722 30.0849V30.0849ZM43.6815 35.1174C43.3363 35.4444 42.9548 35.7532 42.5188 36.0439C40.6475 37.3157 38.0313 38.3149 36.1782 38.5511C34.7793 38.7691 33.4168 38.8054 32.2359 38.6601C31.5455 38.5692 30.946 38.4239 30.4191 38.224C29.8559 38.006 29.4199 37.7335 29.1655 37.4247C28.784 36.9705 28.675 36.4254 28.6932 35.9531C28.7113 35.6987 28.7659 35.4444 28.8749 35.2264L28.9294 35.1174C29.0565 34.8812 29.4017 34.318 30.0558 34.3725C30.0739 34.3725 30.1284 34.3725 30.1829 34.3907C30.2374 34.3907 30.3283 34.4088 30.4009 34.427C30.5281 34.4452 30.6553 34.4633 30.8188 34.4815H30.8733C32.6719 34.6995 34.3978 34.6813 36.0329 34.427C38.4129 34.0636 40.6112 33.2098 42.5733 31.8835C42.6823 31.8109 42.7731 31.7382 42.8821 31.6655L43.954 30.0668C40.702 33.0281 37.123 33.882 34.3978 34.0455C32.9081 34.1363 31.6727 34.0273 30.8915 33.9183C30.8551 33.9183 30.837 33.9183 30.8188 33.9001C30.5826 33.8638 30.4009 33.8456 30.2556 33.8275C30.1829 33.8275 30.1284 33.8093 30.0921 33.8093C29.8922 33.7911 29.6924 33.8275 29.5107 33.882C29.1474 33.991 28.8204 34.2453 28.5842 34.5723C28.2935 34.972 28.1118 35.5171 28.1118 36.0621C28.1118 36.5163 28.2208 36.9886 28.457 37.4247C28.4752 37.4428 28.4752 37.461 28.4933 37.4792C28.5297 37.5337 28.5478 37.57 28.5842 37.6245C28.6205 37.679 28.675 37.7517 28.7295 37.8062C29.2927 38.5147 30.5281 39.0234 32.1632 39.2414C33.2714 39.3868 34.5613 39.3686 35.9602 39.1688C40.1025 38.4239 42.0646 37.0795 42.9729 36.1529C43.0456 36.0803 43.1001 36.0258 43.1546 35.9531C43.4816 35.5716 43.627 35.2809 43.6815 35.1719V35.1537C43.6997 35.1174 43.6997 35.0992 43.6997 35.0992L43.6815 35.1174" fill="#664F44"/>
<path d="M30.5101 20.7654C30.3829 20.6927 30.2376 20.6382 30.0922 20.6019C30.0014 20.5837 29.9106 20.5655 29.8016 20.5474C29.7652 20.5474 29.7289 20.5474 29.6926 20.5292C29.202 20.4929 28.7842 20.5655 28.7842 20.5655C28.6933 20.5837 28.6025 20.6019 28.5298 20.6382C27.8758 20.838 27.4216 21.1832 27.0946 21.5829C26.8402 21.9099 26.6586 22.2551 26.5677 22.6003C26.5496 22.6366 26.5496 22.6548 26.5496 22.6911C26.5314 22.782 26.4951 22.8728 26.4769 22.9455C26.4224 23.2362 26.386 23.4905 26.386 23.7085C26.386 23.9992 26.4042 24.1809 26.4042 24.1809C26.5132 23.9265 26.6404 23.7085 26.7676 23.4905C27.0764 22.9637 27.4034 22.5276 27.7486 22.1824C28.4027 21.5102 29.0749 21.1469 29.5836 20.9652C30.1286 20.7835 30.5101 20.7654 30.5101 20.7654V20.7654ZM38.3767 19.8388L38.3585 19.8025C38.2859 19.7116 38.195 19.6208 38.086 19.5481C37.8317 19.3846 37.4865 19.2938 37.0141 19.3846C37.0141 19.3846 36.4509 19.5118 36.1239 19.8933C36.1239 19.8933 37.105 19.4755 38.1587 20.2203C38.2495 20.293 38.3585 20.3657 38.4494 20.4565C38.5402 20.5474 38.6492 20.6382 38.74 20.7654C38.74 20.7654 38.7037 20.3112 38.4312 19.9115C38.413 19.8752 38.3949 19.857 38.3767 19.8388" fill="#E9B784"/>
<path d="M30.637 27.0696C31.0186 26.9606 31.4183 26.8516 31.8724 26.7426C31.9451 26.3974 31.9633 25.9796 31.9088 25.5254C31.7816 24.4717 31.3092 23.6541 30.8369 23.7086C30.3645 23.7631 30.092 24.6715 30.2192 25.7252C30.2919 26.2703 30.4372 26.7426 30.637 27.0696Z" fill="#664F44"/>
<path d="M28.4753 3.32422L27.4942 3.54223L27.6941 5.32266L25.0961 3.99642L24.0242 4.32344L24.0424 4.34161L27.2036 7.9388L27.2399 7.92063L27.2762 7.90246C27.3671 7.84796 27.4761 7.77529 27.5669 7.72079C27.6033 7.70262 27.6396 7.68445 27.6759 7.64812C27.8213 7.55728 27.9666 7.46644 28.112 7.39377L26.7675 5.84952L28.9295 6.90324C29.0022 6.86691 29.0567 6.83057 29.1293 6.79424L28.9295 5.24999L29.9105 6.39455H29.9287C30.0196 6.35821 30.0922 6.30371 30.1831 6.26738L30.2194 6.24921L30.2557 6.23104C30.2739 6.23104 30.2921 6.21287 30.2921 6.21287L30.4011 6.15837C30.4011 6.15837 30.4192 6.15837 30.4192 6.1402C30.5282 6.0857 30.6554 6.0312 30.7644 5.97669L28.4753 3.32422Z" fill="#FFD250"/>
<path d="M27.5122 3.59702V3.54252V3.59702ZM27.5122 3.54252L27.6575 3.50619C27.4214 3.39718 27.1307 3.32451 26.8037 3.27001C26.1496 3.17917 25.3139 3.27001 24.3692 3.50619C23.4245 3.74236 22.3526 4.16022 21.2262 4.72342C18.9552 5.84981 16.4481 7.57574 14.0136 9.79219C13.1598 10.5552 12.3786 11.3546 11.6519 12.1358L14.595 15.7693C15.3944 14.8973 16.2483 14.0252 17.193 13.1714C18.4466 12.0268 19.7183 11.0094 20.9719 10.1374C22.1891 9.2835 23.4063 8.55679 24.5509 7.97543L24.0422 5.64997L24.0604 4.3419L24.0422 4.32373L25.1141 3.99671L27.2034 5.0686L27.1489 4.3419L27.5122 3.54252" fill="#4D9ED7"/>
<path d="M27.5124 3.54199L27.149 4.34137L27.2035 5.08624L27.7122 5.34059L27.5124 3.54199ZM26.7675 5.84928L28.9476 6.92117L28.1119 7.39353L26.7675 5.84928ZM28.9476 5.24975L29.1475 6.794L29.9287 6.39431L28.9476 5.24975Z" fill="#132134"/>
<path d="M37.1595 4.68685H37.5592C37.9226 4.68685 38.2677 4.74136 38.5948 4.81403C38.6129 4.81403 38.6311 4.81403 38.6493 4.83219H38.6674L38.7038 4.85036H38.7401C38.7038 4.83219 38.6674 4.79586 38.6311 4.77769C38.2677 4.63235 37.8862 4.54151 37.4865 4.48701C35.5244 4.23266 33.2716 4.95937 31.9999 5.46806C31.9272 5.5044 31.8546 5.52257 31.7819 5.5589C31.6729 5.6134 31.5639 5.64974 31.4549 5.70424C31.2732 5.77691 31.0915 5.86775 30.8917 5.95859C30.8553 5.97676 30.8372 5.97676 30.8008 5.99492C30.6918 6.04943 30.5647 6.10393 30.4557 6.15843C30.4557 6.15843 30.4375 6.15843 30.4375 6.1766L30.3285 6.2311C30.3103 6.2311 30.2921 6.24927 30.2921 6.24927H30.2195L30.2013 6.26744C30.1105 6.30377 30.0378 6.34011 29.947 6.39461H29.9288C29.9106 6.41278 29.8925 6.41278 29.8743 6.43095H29.8561C29.838 6.43095 29.8198 6.44912 29.8198 6.44912C29.6926 6.52179 29.5654 6.57629 29.4383 6.64896C29.3474 6.70346 29.2566 6.7398 29.1658 6.7943H29.1476C29.0749 6.83064 29.0204 6.86697 28.9477 6.90331C28.7297 7.01231 28.5299 7.13949 28.3119 7.26666C28.2937 7.28483 28.2755 7.28483 28.2392 7.30299C28.221 7.32116 28.2029 7.32116 28.1847 7.33933C28.1665 7.3575 28.1484 7.3575 28.1302 7.37566L28.112 7.39383C27.9667 7.48467 27.8214 7.55734 27.676 7.64818C27.6397 7.66635 27.6033 7.68451 27.567 7.72085C27.4762 7.77535 27.3672 7.84802 27.2763 7.90253L27.24 7.92069L27.2037 7.93886L26.3861 8.48389C25.9319 8.79274 25.4959 9.10159 25.0599 9.42861C25.0054 9.46494 24.9509 9.51945 24.8964 9.55578C23.7518 10.4097 22.6617 11.3362 21.608 12.2809C20.4998 13.2983 19.4279 14.3339 18.4287 15.3876C17.8837 15.9326 17.4113 16.4232 17.0479 16.8228C16.2849 17.6404 15.867 18.1491 15.8852 18.1672C15.8852 18.1672 15.9579 18.1127 16.0851 17.9856C15.9942 18.0946 15.8852 18.2217 15.7944 18.3308C17.4658 16.5503 19.3007 14.7336 21.281 13.0258C22.4801 11.9902 23.7336 10.991 25.0235 10.0645C25.5867 9.66479 26.1681 9.2651 26.7495 8.88358C26.9311 8.75641 27.131 8.6474 27.3127 8.52023C27.4035 8.46572 27.4943 8.41122 27.6033 8.35672C27.6578 8.32038 27.7123 8.28405 27.7668 8.26588C27.8759 8.21138 27.9667 8.13871 28.0757 8.0842C28.1665 8.0297 28.2755 7.9752 28.3664 7.90253C28.4209 7.86619 28.4754 7.84802 28.5299 7.81169L28.9114 7.59368C28.9841 7.55734 29.0568 7.50284 29.1294 7.4665C29.3656 7.33933 29.6018 7.21216 29.8561 7.08498C29.8743 7.06681 29.8925 7.06681 29.9106 7.04865L30.0196 6.99414C30.0741 6.97598 30.1105 6.93964 30.165 6.92147C30.1831 6.90331 30.2013 6.90331 30.2195 6.88514L30.3285 6.83064C30.3285 6.83064 30.3467 6.83064 30.3467 6.81247H30.3648C30.4738 6.75797 30.5828 6.70346 30.6737 6.66713C30.6918 6.66713 30.71 6.64896 30.7282 6.63079L30.8372 6.57629C30.9644 6.52179 31.0734 6.46728 31.2005 6.41278C31.2369 6.39461 31.2732 6.37644 31.2914 6.35828C31.3095 6.35828 31.3277 6.34011 31.3459 6.34011C31.3822 6.32194 31.4185 6.30377 31.4549 6.30377C31.6002 6.24927 31.7274 6.1766 31.8727 6.1221C31.9999 6.06759 32.1089 6.01309 32.2361 5.95859C32.9265 5.66791 33.5623 5.43173 34.1619 5.23188C35.2883 4.92303 36.2875 4.72319 37.1595 4.68685" fill="white"/>
</svg>
