<svg width="50" height="51" viewBox="0 0 50 51" fill="none" xmlns="http://www.w3.org/2000/svg">
<path d="M19.25 4.68569C22.8081 2.63141 27.1919 2.63141 30.75 4.68569L40.4006 10.2575C43.9587 12.3118 46.1506 16.1082 46.1506 20.2168V31.3604C46.1506 35.4689 43.9587 39.2654 40.4006 41.3197L30.75 46.8915C27.1919 48.9457 22.8081 48.9457 19.25 46.8915L9.59937 41.3197C6.04125 39.2654 3.84937 35.4689 3.84937 31.3604V20.2168C3.84937 16.1082 6.04125 12.3118 9.59937 10.2575L19.25 4.68569Z" fill="#F9F9F9" stroke="#DBDFE9"/>
<path d="M30.2617 34.2678H19.7384C18.5228 34.2678 17.357 33.7849 16.4975 32.9253C15.6379 32.0658 15.155 30.9 15.155 29.6844V21.9019C15.155 20.6864 15.6379 19.5206 16.4975 18.661C17.357 17.8015 18.5228 17.3186 19.7384 17.3186H30.2617C31.4773 17.3186 32.6431 17.8015 33.5026 18.661C34.3621 19.5206 34.845 20.6864 34.845 21.9019V29.6753C34.8462 30.2779 34.7286 30.8749 34.4988 31.4321C34.269 31.9892 33.9316 32.4955 33.5058 32.9221C33.0801 33.3487 32.5745 33.6871 32.0178 33.918C31.4611 34.1489 30.8644 34.2678 30.2617 34.2678ZM19.7384 18.6844C18.885 18.6844 18.0666 19.0234 17.4632 19.6268C16.8598 20.2302 16.5209 21.0486 16.5209 21.9019V29.6753C16.5209 30.5286 16.8598 31.347 17.4632 31.9504C18.0666 32.5538 18.885 32.8928 19.7384 32.8928H30.2617C31.115 32.8928 31.9334 32.5538 32.5368 31.9504C33.1402 31.347 33.4792 30.5286 33.4792 29.6753V21.9019C33.4792 21.0486 33.1402 20.2302 32.5368 19.6268C31.9334 19.0234 31.115 18.6844 30.2617 18.6844H19.7384ZM27.0075 25.9628L30.0234 23.4053C30.1595 23.285 30.244 23.1169 30.2594 22.936C30.2748 22.755 30.2198 22.5751 30.1059 22.4336C29.9856 22.2968 29.8166 22.2125 29.635 22.1988C29.4534 22.1851 29.2736 22.2431 29.1342 22.3603L26.1184 24.9178C25.8027 25.1835 25.4034 25.3291 24.9909 25.3291C24.5783 25.3291 24.179 25.1835 23.8634 24.9178L20.765 22.3511C20.6252 22.2295 20.4429 22.1685 20.2581 22.1814C20.0733 22.1943 19.9012 22.2801 19.7796 22.4199C19.6581 22.5596 19.597 22.742 19.6099 22.9268C19.6228 23.1116 19.7086 23.2837 19.8484 23.4053L22.9834 25.9811C23.5443 26.4601 24.2578 26.7233 24.9954 26.7233C25.7331 26.7233 26.4466 26.4601 27.0075 25.9811V25.9628Z" fill="#99A1B7"/>
</svg>
