<svg width="16" height="16" viewBox="0 0 16 16" fill="none" xmlns="http://www.w3.org/2000/svg">
<g clip-path="url(#clip0_27158_169179)">
<path d="M8 16C12.4183 16 16 12.4183 16 8C16 3.58172 12.4183 0 8 0C3.58172 0 0 3.58172 0 8C0 12.4183 3.58172 16 8 16Z" fill="#F0F0F0"/>
<path d="M7.65186 8.00005H15.9997C15.9997 7.27796 15.9034 6.57852 15.7241 5.91309H7.65186V8.00005Z" fill="#D80027"/>
<path d="M7.65186 3.8261H14.8255C14.3358 3.02698 13.7097 2.32064 12.9796 1.73914H7.65186V3.8261Z" fill="#D80027"/>
<path d="M7.99993 16C9.88271 16 11.6132 15.3492 12.9798 14.2609H3.02002C4.38661 15.3492 6.11714 16 7.99993 16Z" fill="#D80027"/>
<path d="M1.17398 12.1739H14.8256C15.2188 11.5324 15.5236 10.8311 15.7242 10.0869H0.275391C0.475922 10.8311 0.780828 11.5324 1.17398 12.1739Z" fill="#D80027"/>
<path d="M8 8C8 3.58175 8 3.06087 8 0C3.58175 0 0 3.58175 0 8H8Z" fill="#0052B4"/>
<path d="M5.31968 6.84781C4.22712 6.84781 3.34143 5.9621 3.34143 4.86956C3.34143 3.77703 4.22715 2.89131 5.31968 2.89131C5.66034 2.89131 5.98087 2.97747 6.26071 3.1291C5.82171 2.69981 5.22134 2.43481 4.5588 2.43481C3.21415 2.43481 2.12402 3.52491 2.12402 4.8696C2.12402 6.21428 3.21415 7.30438 4.5588 7.30438C5.22134 7.30438 5.82171 7.03938 6.26071 6.6101C5.98087 6.76166 5.66037 6.84781 5.31968 6.84781Z" fill="#FFDA44"/>
<path d="M5.87732 3.47827L6.22854 4.21271L7.0217 4.02946L6.66651 4.76193L7.30438 5.26777L6.5102 5.4468L6.51241 6.2609L5.87732 5.75158L5.2422 6.2609L5.24438 5.4468L4.4502 5.26777L5.08807 4.76193L4.73285 4.02946L5.52607 4.21271L5.87732 3.47827Z" fill="#FFDA44"/>
</g>
<defs>
<clipPath id="clip0_27158_169179">
<rect width="16" height="16" fill="white"/>
</clipPath>
</defs>
</svg>
