<svg width="20" height="20" viewBox="0 0 20 20" fill="none" xmlns="http://www.w3.org/2000/svg">
<g clip-path="url(#clip0_27732_79698)">
<path opacity="0.1" fill-rule="evenodd" clip-rule="evenodd" d="M15.1104 6.01139C15.1823 6.0746 15.2524 6.14029 15.3205 6.20841C15.5943 6.89792 15.7109 7.17606 15.7602 7.46567C15.8033 7.71859 15.7949 7.98026 15.7949 8.53232V13.3334C16.4359 13.1675 17.838 12.7958 18.2473 12.2754C18.6567 11.7551 18.884 11.1148 18.8944 10.4528V4.69144C18.8919 3.89002 18.5724 3.12215 18.0057 2.55546C17.439 1.98877 16.6711 1.66928 15.8697 1.66675H7.95749C7.26223 1.6659 6.58804 1.90535 6.04908 2.34457C5.64332 2.67524 5.33299 3.57614 5.14485 4.29189H4.89134C4.37139 4.2863 3.85549 4.38389 3.3735 4.579C2.89151 4.77412 2.45301 5.06289 2.08336 5.4286C1.71372 5.79432 1.42027 6.22971 1.22001 6.70958C1.01975 7.18946 0.916657 7.70428 0.916687 8.22427V13.256C0.916657 13.776 1.01975 14.2908 1.22001 14.7707C1.42027 15.2506 1.71372 15.686 2.08336 16.0517C2.45301 16.4174 2.89151 16.7062 3.3735 16.9013C3.85549 17.0964 4.37139 17.194 4.89134 17.1884H5.92306C5.97143 17.1864 6.01948 17.1971 6.06247 17.2194C6.10547 17.2416 6.14194 17.2746 6.16831 17.3152L6.92941 18.3892C7.08552 18.6172 7.29509 18.8035 7.53981 18.9317C7.78453 19.06 8.05694 19.1263 8.33323 19.125C8.60952 19.1263 8.88193 19.06 9.12665 18.9317C9.37137 18.8035 9.58094 18.6172 9.73704 18.3892L10.4981 17.3152C10.5251 17.2752 10.5617 17.2426 10.6045 17.2204C10.6474 17.1983 10.6952 17.1873 10.7434 17.1884H11.8597C12.9026 17.1884 13.9028 16.7741 14.6403 16.0366C15.3778 15.2992 15.7921 14.2989 15.7921 13.256V8.22427C15.7921 7.42935 15.5514 6.65925 15.1104 6.01139Z" fill="#99A1B7"/>
<path d="M14.5438 13.813V8.19551C14.5415 7.48514 14.2583 6.80451 13.756 6.3022C13.2537 5.79989 12.5731 5.5167 11.8627 5.51446H4.20255V4.791C4.20253 3.74575 4.616 2.74293 5.35271 2.00144C6.08942 1.25995 7.08954 0.839996 8.13477 0.833252H15.1481C16.1977 0.833252 17.2044 1.25023 17.9466 1.99245C18.6888 2.73467 19.1058 3.74134 19.1058 4.791V9.89777C19.1036 10.9386 18.6915 11.9367 17.9587 12.6759C17.2259 13.4151 16.2314 13.8358 15.1906 13.847L14.5438 13.813ZM11.8627 4.23777C12.9124 4.23777 13.919 4.65474 14.6613 5.39696C15.4035 6.13919 15.8205 7.14585 15.8205 8.19551V12.4512C16.3886 12.304 16.8927 11.9746 17.2556 11.5134C17.6184 11.0521 17.8199 10.4846 17.8291 9.89777V4.791C17.8269 4.08063 17.5437 3.4 17.0414 2.89769C16.5391 2.39538 15.8584 2.11219 15.1481 2.10994H8.13477C7.51849 2.10919 6.9209 2.32144 6.44317 2.71076C5.96544 3.10008 5.63694 3.64254 5.51329 4.24628L11.8627 4.23777ZM8.35606 19.1666C8.07799 19.1679 7.80382 19.1011 7.55752 18.9721C7.31122 18.843 7.1003 18.6555 6.94319 18.4261L6.17717 17.3451C6.15064 17.3043 6.11393 17.271 6.07065 17.2486C6.02738 17.2263 5.97903 17.2155 5.93034 17.2175H4.89197C4.36866 17.2231 3.84943 17.1249 3.36433 16.9285C2.87923 16.7321 2.4379 16.4415 2.06587 16.0734C1.69384 15.7054 1.3985 15.2672 1.19695 14.7842C0.995396 14.3012 0.891632 13.7831 0.891663 13.2597V8.19551C0.891632 7.67218 0.995396 7.15403 1.19695 6.67106C1.3985 6.18808 1.69384 5.74988 2.06587 5.38181C2.4379 5.01374 2.87923 4.7231 3.36433 4.52673C3.84943 4.33035 4.36866 4.23214 4.89197 4.23777H11.9053C12.9549 4.23777 13.9616 4.65474 14.7038 5.39696C15.446 6.13919 15.863 7.14585 15.863 8.19551V13.2597C15.863 14.3094 15.446 15.3161 14.7038 16.0583C13.9616 16.8005 12.9549 17.2175 11.9053 17.2175H10.7818C10.7332 17.2163 10.6852 17.2274 10.642 17.2497C10.5989 17.2721 10.5621 17.3049 10.535 17.3451L9.76893 18.4261C9.61183 18.6555 9.4009 18.843 9.1546 18.9721C8.9083 19.1011 8.63413 19.1679 8.35606 19.1666ZM4.89197 5.51446C4.53663 5.50996 4.18392 5.57592 3.85423 5.70854C3.52453 5.84115 3.22439 6.03779 2.97113 6.28708C2.71788 6.53638 2.51654 6.83339 2.37875 7.16096C2.24096 7.48852 2.16945 7.84015 2.16836 8.19551V13.2597C2.16604 13.6169 2.2351 13.9708 2.37148 14.3009C2.50785 14.631 2.7088 14.9305 2.96251 15.1818C3.21623 15.4331 3.5176 15.6312 3.84893 15.7645C4.18027 15.8978 4.53488 15.9635 4.89197 15.9578H5.93034C6.18435 15.9566 6.43484 16.0171 6.66022 16.1343C6.88561 16.2514 7.07911 16.4216 7.22406 16.6302L7.98156 17.6601C8.02378 17.7203 8.07982 17.7695 8.14498 17.8035C8.21014 17.8376 8.28253 17.8555 8.35606 17.8558C8.42959 17.8555 8.50198 17.8376 8.56714 17.8035C8.63231 17.7695 8.68835 17.7203 8.73056 17.6601L9.48806 16.5791C9.63857 16.3799 9.83451 16.2196 10.0596 16.1116C10.2846 16.0035 10.5322 15.9508 10.7818 15.9578H11.8627C12.5738 15.9578 13.2557 15.6753 13.7585 15.1725C14.2613 14.6697 14.5438 13.9878 14.5438 13.2768V8.19551C14.5415 7.48514 14.2583 6.80451 13.756 6.3022C13.2537 5.79989 12.5731 5.5167 11.8627 5.51446H4.89197ZM5.38562 9.99991C5.22739 9.99991 5.0727 10.0468 4.94113 10.1347C4.80956 10.2227 4.70702 10.3476 4.64646 10.4938C4.58591 10.64 4.57006 10.8009 4.60093 10.9561C4.6318 11.1112 4.708 11.2538 4.81989 11.3657C4.93178 11.4776 5.07434 11.5538 5.22954 11.5847C5.38473 11.6155 5.5456 11.5997 5.69179 11.5391C5.83798 11.4786 5.96294 11.376 6.05085 11.2445C6.13876 11.1129 6.18568 10.9582 6.18568 10.8C6.18347 10.5885 6.09847 10.3863 5.9489 10.2367C5.79934 10.0871 5.59712 10.0021 5.38562 9.99991ZM8.36457 9.99991C8.20789 9.99689 8.05378 10.04 7.92135 10.1238C7.78893 10.2076 7.68404 10.3284 7.61969 10.4713C7.55534 10.6142 7.53437 10.7728 7.55939 10.9275C7.5844 11.0822 7.6543 11.2262 7.7604 11.3415C7.8665 11.4568 8.00414 11.5385 8.15622 11.5763C8.3083 11.6141 8.46814 11.6064 8.61589 11.5541C8.76363 11.5019 8.89279 11.4074 8.98731 11.2824C9.08184 11.1574 9.13758 11.0074 9.14761 10.851C9.15333 10.7434 9.13749 10.6358 9.10102 10.5344C9.06455 10.433 9.00818 10.34 8.93523 10.2607C8.86228 10.1814 8.77422 10.1175 8.67623 10.0727C8.57823 10.0279 8.47227 10.0032 8.36457 9.99991ZM11.335 9.99991C11.1768 9.99991 11.0221 10.0468 10.8905 10.1347C10.759 10.2227 10.6564 10.3476 10.5959 10.4938C10.5353 10.64 10.5195 10.8009 10.5503 10.9561C10.5812 11.1112 10.6574 11.2538 10.7693 11.3657C10.8812 11.4776 11.0237 11.5538 11.1789 11.5847C11.3341 11.6155 11.495 11.5997 11.6412 11.5391C11.7874 11.4786 11.9123 11.376 12.0002 11.2445C12.0881 11.1129 12.1351 10.9582 12.1351 10.8C12.1329 10.5885 12.0479 10.3863 11.8983 10.2367C11.7487 10.0871 11.5465 10.0021 11.335 9.99991Z" fill="#99A1B7"/>
</g>
<defs>
<clipPath id="clip0_27732_79698">
<rect width="20" height="20" fill="white"/>
</clipPath>
</defs>
</svg>
