<svg width="24" height="25" viewBox="0 0 24 25" fill="none" xmlns="http://www.w3.org/2000/svg">
<path d="M11.9605 19.4943C10.9916 19.4706 10.1923 19.0431 9.6819 18.1508C9.15873 17.2284 9.18152 16.2842 9.73932 15.3846C11.0673 13.2436 12.4126 11.1145 13.7497 8.97986C14.0231 8.54328 14.2902 8.10032 14.5763 7.67194C14.9563 7.08603 15.5499 6.67157 16.2309 6.51683C16.9118 6.36208 17.6263 6.47927 18.2221 6.84344C19.4808 7.61908 19.9019 9.23233 19.1181 10.5038C17.5157 13.1136 15.8906 15.7106 14.2428 18.2948C13.7351 19.0941 12.9649 19.4797 11.9605 19.4943Z" fill="#FFCB00"/>
<path d="M3.63921 19.4942C2.66123 19.4705 1.86646 19.0239 1.36608 18.1352C0.850199 17.2128 0.883011 16.2667 1.44264 15.3671C2.87117 13.0752 4.30608 10.7865 5.74738 8.50125C5.92967 8.20595 6.11195 7.90335 6.307 7.61715C6.70252 7.04396 7.30559 6.6472 7.98852 6.51086C8.67146 6.37453 9.38064 6.50933 9.96592 6.88673C10.5512 7.26412 10.9666 7.85448 11.1243 8.53282C11.2819 9.21115 11.1693 9.92421 10.8104 10.521C9.21359 13.0995 7.59487 15.6688 5.97524 18.2355C5.44934 19.0676 4.67552 19.4796 3.63921 19.4942Z" fill="#FF3D57"/>
<path d="M20.336 14.2676C21.8098 14.2749 23.0028 15.4461 23.0001 16.8826C23.0001 18.3409 21.7751 19.5166 20.2877 19.4984C18.8002 19.4802 17.6281 18.3217 17.6299 16.8789C17.6317 15.4151 18.8293 14.2585 20.336 14.2676Z" fill="#00D647"/>
</svg>
