<svg width="18" height="18" viewBox="0 0 18 18" fill="none" xmlns="http://www.w3.org/2000/svg">
<g clip-path="url(#clip0_27158_192075)">
<path d="M0.75 12.213C0.75 14.3564 2.48745 16.0947 4.63162 16.0947V2.43018H0.75V12.213Z" fill="url(#paint0_linear_27158_192075)"/>
<path d="M17.2492 12.213C17.2492 14.3572 15.5109 16.0947 13.3676 16.0947V2.43018H17.2492V12.213Z" fill="url(#paint1_linear_27158_192075)"/>
<path d="M6.05228 3.85509C4.9806 1.99802 2.60625 1.36194 0.75 2.43362L5.75858 11.1093C6.45323 12.1612 7.64535 12.855 9 12.855C9.60473 12.8558 10.2012 12.7148 10.7416 12.4433L10.9437 12.327L6.05228 3.85509Z" fill="url(#paint2_linear_27158_192075)"/>
<path d="M11.9477 3.846C13.0194 1.98975 15.3937 1.35367 17.25 2.42535L12.2414 11.101C11.5467 12.1529 10.3546 12.8467 8.99997 12.8467C8.39525 12.8476 7.79877 12.7065 7.2584 12.4351L7.05627 12.3187L11.9477 3.846Z" fill="url(#paint3_linear_27158_192075)"/>
</g>
<defs>
<linearGradient id="paint0_linear_27158_192075" x1="2.69081" y1="2.43016" x2="2.69081" y2="16.0946" gradientUnits="userSpaceOnUse">
<stop stop-color="#16ED8C"/>
<stop offset="1" stop-color="#0767FC"/>
</linearGradient>
<linearGradient id="paint1_linear_27158_192075" x1="15.3084" y1="2.43016" x2="15.3084" y2="16.0946" gradientUnits="userSpaceOnUse">
<stop stop-color="#16ED8C"/>
<stop offset="1" stop-color="#0767FC"/>
</linearGradient>
<linearGradient id="paint2_linear_27158_192075" x1="0.75" y1="7.38404" x2="10.9437" y2="7.38404" gradientUnits="userSpaceOnUse">
<stop stop-color="#0B46AA"/>
<stop offset="1" stop-color="#1455E1"/>
</linearGradient>
<linearGradient id="paint3_linear_27158_192075" x1="7.05627" y1="7.37575" x2="17.25" y2="7.37575" gradientUnits="userSpaceOnUse">
<stop stop-color="#0B46AA"/>
<stop offset="1" stop-color="#1455E1"/>
</linearGradient>
<clipPath id="clip0_27158_192075">
<rect width="16.5" height="14.19" fill="white" transform="translate(0.75 1.90479)"/>
</clipPath>
</defs>
</svg>
