<svg width="206" height="200" viewBox="0 0 206 200" fill="none" xmlns="http://www.w3.org/2000/svg">
<path d="M77.4179 84.1462C70.1107 86.6975 62.0174 83.8471 55.3003 79.9963C48.5833 76.1455 42.3162 71.2149 34.8607 69.1453C30.2874 67.8696 24.8037 67.9676 21.4795 71.3578C17.724 75.1901 18.2904 81.4149 19.6269 86.6154C22.7843 98.7686 29.0911 110.435 39.0423 118.11C48.9935 125.785 62.8934 128.81 74.5384 124.091C86.1834 119.372 94.2793 106.094 91.3443 93.8724C90.5503 90.6197 88.9809 87.4306 86.2919 85.4377C83.603 83.4448 79.6754 82.9287 76.9018 84.7999L77.4179 84.1462Z" fill="#006C8F"/>
<path d="M29.5784 68.3829C31.3687 68.3949 33.1492 68.6487 34.8716 69.1372C42.3271 71.2148 48.5942 76.1454 55.3112 79.9882C60.2498 82.8201 65.932 85.112 71.5004 85.112C73.5173 85.124 75.5218 84.7947 77.4288 84.1381L76.9127 84.7918C78.0939 84.0191 79.4792 83.6172 80.8905 83.6379C82.8342 83.6535 84.723 84.2834 86.2869 85.4376C88.9759 87.4305 90.5559 90.6196 91.3393 93.8723C94.2797 106.084 86.1837 119.372 74.5387 124.091C70.7735 125.596 66.7527 126.358 62.6979 126.335C54.2923 126.335 45.7729 123.26 39.0532 118.089C29.102 110.432 22.7952 98.7685 19.6378 86.6074C18.2907 81.4121 17.7243 75.182 21.4904 71.3498C23.5865 69.2113 26.5428 68.3829 29.589 68.3829H29.5784ZM29.5784 66.5303C25.6721 66.5303 22.4168 67.7478 20.1566 70.0529C16.626 73.655 15.8479 79.3795 17.8461 87.0732C19.4412 93.3607 21.9192 99.3905 25.2063 104.983C28.7051 110.853 32.9846 115.757 37.9099 119.557C45.0372 125.044 54.0673 128.188 62.6846 128.188C66.9784 128.213 71.2361 127.404 75.2215 125.806C81.3378 123.326 86.586 118.673 90.0001 112.708C93.528 106.549 94.6396 99.7053 93.131 93.4382C92.4323 90.527 90.8682 86.5306 87.3826 83.9449C85.5031 82.5533 83.2291 81.7969 80.8905 81.7853C79.8138 81.7793 78.744 81.9584 77.7279 82.3146C77.6562 82.3011 77.5837 82.2932 77.5109 82.2908H77.4129C77.3495 82.2868 77.2858 82.2868 77.2224 82.2908C77.0659 82.3069 76.9121 82.3424 76.7645 82.3966C75.0648 82.9753 73.2801 83.2652 71.4846 83.2541C67.0012 83.2541 61.8642 81.6106 56.2164 78.3765C54.4035 77.3364 52.58 76.1877 50.8147 75.0788C46.0005 72.0511 41.0223 68.9176 35.3533 67.3375C33.4718 66.8074 31.5278 66.5315 29.5731 66.5171L29.5784 66.5303Z" fill="#323544"/>
<path d="M44.9178 81.634L41.104 71.577C39.1035 70.5709 37.0133 69.7539 34.8607 69.1368C32.0209 68.3429 28.8318 68.0782 26.0264 68.8087L23.7715 69.6635C22.9229 70.1004 22.1493 70.6694 21.4795 71.3494C17.724 75.1817 18.2904 81.4064 19.6269 86.607C20.1298 88.539 20.712 90.4604 21.3763 92.3554L43.9359 83.7963C44.1426 83.7192 44.3321 83.6021 44.4935 83.4516C44.6549 83.301 44.7849 83.1201 44.8761 82.9192C44.9674 82.7183 45.018 82.5013 45.0251 82.2808C45.0323 82.0602 44.9958 81.8404 44.9178 81.634Z" fill="#08A4CA"/>
<path d="M77.8998 133.044C88.8302 118.258 96.6747 102.968 105.663 86.7952C109.032 80.7345 114.926 78.3579 118.97 72.7815C123.04 67.1522 125.372 60.062 125.139 52.9532C124.938 46.7867 121.979 37.6559 124.903 32.3098C128.037 26.5852 136.723 26.5191 142.662 28.5913C157.036 33.604 166.69 46.4453 171.216 60.6469C175.742 74.8485 174.627 93.4646 167.775 106.565C160.923 119.666 151.703 126.221 139.285 133.428C130.022 138.806 118.594 139.973 108.055 140.749C97.5163 141.524 86.6177 139.11 77.8098 132.925L77.8998 133.044Z" fill="#006C8F"/>
<path d="M135.339 27.3546C137.832 27.3646 140.306 27.7849 142.662 28.5985C157.036 33.6111 166.69 46.4524 171.216 60.654C175.742 74.8556 174.627 93.4717 167.775 106.572C160.923 119.673 151.703 126.221 139.285 133.427C130.022 138.805 118.594 139.972 108.055 140.748C106.788 140.841 105.518 140.888 104.244 140.888C94.9809 140.888 85.6517 138.392 77.9289 133.007C88.8461 118.231 96.6827 102.954 105.663 86.7944C109.032 80.7337 114.926 78.357 118.97 72.7807C123.04 67.1514 125.372 60.0611 125.139 52.9524C124.938 46.7858 121.979 37.6551 124.903 32.309C126.875 28.7096 131.041 27.3466 135.339 27.3466V27.3546ZM77.8098 132.924L77.9289 133.007L77.8998 133.044L77.8098 132.924ZM135.339 25.502C129.654 25.502 125.369 27.606 123.278 31.4277C120.944 35.6887 121.825 41.6859 122.603 46.9738C122.924 49.1704 123.231 51.2453 123.286 53.0133C123.458 59.7123 121.411 66.2802 117.464 71.6956C115.778 74.0272 113.737 75.7554 111.578 77.5869C108.862 79.8894 106.054 82.2713 104.04 85.8945C102.566 88.5411 101.108 91.2036 99.6945 93.7734C92.5037 106.874 85.702 119.26 76.8518 131.334C76.7168 131.416 76.5923 131.515 76.4812 131.628C76.1736 131.942 75.9879 132.356 75.9574 132.795C75.9268 133.233 76.0534 133.669 76.3145 134.023L76.4045 134.145C76.61 134.424 76.8909 134.64 77.2143 134.766C84.855 139.986 94.1896 142.741 104.239 142.741C105.546 142.741 106.885 142.69 108.185 142.595C119.189 141.801 130.726 140.539 140.209 135.031C145.819 131.773 151.719 128.131 156.834 123.601C162.067 118.969 166.06 113.829 169.406 107.432C176.337 94.1731 177.772 75.1441 172.973 60.0929C167.76 43.7317 156.93 31.6129 143.265 26.8491C140.71 25.9695 138.028 25.5144 135.326 25.502H135.339Z" fill="#323544"/>
<path d="M77.9 133.044L77.9292 133.004L77.8101 132.925L77.9 133.044Z" fill="#006C8F"/>
<path d="M77.8104 132.924L77.9295 133.004L77.9004 133.043L77.8104 132.924ZM77.8104 131.072C77.4677 131.072 77.1316 131.167 76.8397 131.346C76.5477 131.525 76.3112 131.782 76.1565 132.088C76.0018 132.394 75.935 132.737 75.9634 133.078C75.9919 133.42 76.1145 133.747 76.3177 134.023L76.4051 134.144C76.5773 134.378 76.8019 134.567 77.0606 134.698C77.3194 134.828 77.6052 134.896 77.8951 134.896C78.1847 134.896 78.4704 134.829 78.7291 134.699C78.9879 134.569 79.2126 134.38 79.3851 134.147L79.4063 134.115C79.5554 133.916 79.6629 133.689 79.7224 133.448C79.7819 133.207 79.7922 132.956 79.7527 132.71C79.7132 132.465 79.6246 132.23 79.4924 132.019C79.3601 131.809 79.1868 131.627 78.9828 131.485L78.9061 131.432L78.8717 131.408C78.5615 131.19 78.192 131.073 77.813 131.072H77.8104Z" fill="#323544"/>
<path d="M171.217 60.6536C168.07 50.7792 162.441 41.5638 154.466 35.1802C157.703 39.924 160.224 45.1185 161.948 50.5966C166.474 64.8008 165.36 83.4143 158.508 96.5149C151.656 109.616 142.44 116.163 130.023 123.37C120.759 128.748 109.332 129.915 98.7928 130.69C92.7762 131.152 86.7259 130.517 80.9362 128.817C79.9587 130.218 78.9566 131.613 77.9297 133.003C86.7137 139.13 97.5648 141.518 108.056 140.747C118.595 139.972 130.023 138.805 139.286 133.427C151.703 126.22 160.919 119.686 167.774 106.572C174.628 93.4581 175.742 74.8579 171.217 60.6536Z" fill="#08A4CA"/>
<path d="M68.6371 122.986L68.6662 122.947L68.5471 122.867L68.6371 122.986Z" fill="#006C8F"/>
<path d="M68.5472 122.867L68.6663 122.946L68.6372 122.986L68.5472 122.867ZM68.5472 121.014C68.2045 121.014 67.8685 121.109 67.5765 121.288C67.2845 121.468 67.048 121.725 66.8933 122.031C66.7386 122.336 66.6718 122.679 66.7002 123.021C66.7287 123.362 66.8514 123.689 67.0545 123.965L67.1419 124.087C67.3141 124.32 67.5387 124.509 67.7975 124.64C68.0562 124.77 68.3421 124.838 68.6319 124.838C68.9215 124.839 69.2072 124.771 69.466 124.641C69.7247 124.511 69.9494 124.322 70.1219 124.089L70.1431 124.058C70.2922 123.859 70.3997 123.632 70.4592 123.39C70.5187 123.149 70.529 122.898 70.4895 122.653C70.45 122.407 70.3615 122.172 70.2292 121.961C70.0969 121.751 69.9236 121.569 69.7197 121.427L69.6429 121.374L69.6085 121.35C69.2983 121.133 68.9288 121.015 68.5499 121.014H68.5472Z" fill="#323544"/>
<path d="M154.842 43.0695C152.113 40.7511 148.101 41.5477 144.827 42.8525C141.553 44.1572 138.123 45.896 134.709 45.073C133.121 44.6919 131.681 43.7761 130.075 43.5221C129.086 43.3804 128.078 43.4874 127.141 43.8336C126.205 44.1797 125.369 44.7539 124.71 45.5044C124.652 45.5705 124.596 45.6393 124.541 45.7108C124.739 48.1298 125.07 50.5779 125.139 52.9545C125.237 56.2217 124.821 59.484 123.908 62.6225C132.721 60.3994 142.932 62.4637 150.972 57.7634C153.46 56.3077 155.694 54.1322 156.66 51.303C157.626 48.4738 157.059 44.9539 154.842 43.0695Z" fill="#08A4CA"/>
<path d="M126.677 20.976C131.684 8.93398 144.526 0.597217 157.563 0.949213C159.442 0.996852 161.607 1.38855 162.525 3.02679C163.56 4.8794 162.38 7.22164 160.794 8.61904C159.209 10.0164 157.2 10.9427 155.874 12.5889C160.929 12.2174 166.006 12.2909 171.047 12.8086C172.598 12.9674 174.181 13.1791 175.573 13.8831C176.965 14.5871 178.153 15.8707 178.336 17.4216C178.518 18.9725 177.682 20.4599 176.483 21.4312C175.284 22.4025 173.792 22.9027 172.296 23.2441C166.566 24.5297 160.566 23.7468 155.358 21.0342C151.817 19.1816 148.652 16.4238 144.756 15.524C141.688 14.8174 138.444 15.3467 135.493 16.4635C132.542 17.5804 129.866 19.2636 127.201 20.9336" fill="#006C8F"/>
<path d="M166.921 24.7587C162.753 24.7666 158.645 23.7679 154.945 21.8475C153.752 21.2202 152.598 20.4951 151.481 19.7911C149.192 18.3487 147.032 16.9883 144.565 16.4193C141.985 15.8238 138.97 16.1361 135.85 17.3218C132.984 18.4122 130.305 20.0901 127.72 21.7125C127.513 21.8408 127.264 21.8835 127.026 21.8316C126.857 21.8979 126.672 21.913 126.494 21.875C126.317 21.8369 126.154 21.7474 126.027 21.6177C125.9 21.4879 125.813 21.3236 125.779 21.1451C125.744 20.9667 125.763 20.782 125.833 20.6142C128.326 14.617 132.865 9.26294 138.616 5.52859C144.367 1.79425 151.108 -0.161574 157.597 0.010454C160.508 0.0872052 162.435 0.944701 163.345 2.56177C164.648 4.88018 163.258 7.68027 161.416 9.29999C160.759 9.85712 160.071 10.3758 159.354 10.8535C159.042 11.0706 158.735 11.2849 158.439 11.4993C162.677 11.3164 166.923 11.442 171.142 11.8751C172.754 12.0392 174.453 12.2668 175.994 13.0423C177.846 13.9712 179.056 15.5618 179.259 17.3006C179.463 19.0394 178.627 20.8762 177.081 22.136C175.636 23.3137 173.879 23.8218 172.511 24.1341C170.677 24.551 168.802 24.7605 166.921 24.7587ZM141.882 14.2703C142.924 14.2665 143.964 14.381 144.981 14.6117C147.754 15.2522 150.15 16.7607 152.468 18.2216C153.553 18.9045 154.678 19.6111 155.808 20.2066C160.824 22.804 166.595 23.5535 172.108 22.3239C173.847 21.9269 175.02 21.424 175.917 20.6962C176.975 19.8308 177.558 18.6107 177.428 17.5203C177.272 16.197 176.158 15.1992 175.165 14.699C173.908 14.0639 172.399 13.868 170.962 13.7198C165.975 13.2096 160.953 13.137 155.954 13.5028C155.773 13.518 155.592 13.4797 155.433 13.3928C155.274 13.3058 155.144 13.174 155.059 13.0137C154.975 12.8535 154.939 12.6719 154.957 12.4916C154.975 12.3112 155.045 12.1401 155.16 11.9995C156.051 10.8906 157.192 10.0993 158.293 9.3344C158.95 8.89705 159.582 8.42254 160.185 7.91318C161.527 6.7328 162.485 4.8299 161.723 3.4722C161.157 2.46385 159.751 1.92394 157.544 1.86571C145.859 1.55871 134.127 8.61452 128.662 18.9389C130.727 17.6211 132.911 16.4993 135.186 15.5883C137.32 14.7504 139.589 14.3074 141.882 14.2809V14.2703Z" fill="#323544"/>
<path d="M128.963 52.6786C129.973 52.6786 130.792 51.8598 130.792 50.8498C130.792 49.8398 129.973 49.021 128.963 49.021C127.953 49.021 127.134 49.8398 127.134 50.8498C127.134 51.8598 127.953 52.6786 128.963 52.6786Z" fill="#323544"/>
<path d="M143.329 50.8519C144.339 50.8519 145.158 50.0331 145.158 49.0231C145.158 48.0131 144.339 47.1943 143.329 47.1943C142.319 47.1943 141.5 48.0131 141.5 49.0231C141.5 50.0331 142.319 50.8519 143.329 50.8519Z" fill="#323544"/>
<path d="M121.442 42.448C121.132 42.448 120.832 42.3392 120.594 42.1406C120.356 41.9421 120.195 41.6663 120.14 41.3614C120.084 41.0565 120.138 40.7418 120.29 40.4722C120.443 40.2026 120.686 39.9952 120.976 39.8861L122.94 39.1477C123.102 39.0865 123.275 39.058 123.449 39.0637C123.623 39.0694 123.794 39.1093 123.952 39.1811C124.11 39.2528 124.253 39.3551 124.372 39.4819C124.49 39.6088 124.583 39.7578 124.644 39.9205C124.705 40.0831 124.734 40.2562 124.728 40.4299C124.722 40.6036 124.682 40.7745 124.611 40.9327C124.539 41.091 124.437 41.2336 124.31 41.3523C124.183 41.4711 124.034 41.5637 123.871 41.6249L121.913 42.3633C121.762 42.4203 121.603 42.449 121.442 42.448Z" fill="#323544"/>
<path d="M139.997 40.5099C139.93 40.5098 139.864 40.5045 139.798 40.494L137.726 40.179C137.549 40.1588 137.378 40.1032 137.224 40.0155C137.069 39.9278 136.933 39.8097 136.825 39.6685C136.717 39.5272 136.639 39.3656 136.595 39.1933C136.55 39.021 136.541 38.8415 136.568 38.6657C136.595 38.4898 136.657 38.3211 136.75 38.1697C136.843 38.0183 136.966 37.8873 137.111 37.7845C137.257 37.6817 137.421 37.6092 137.595 37.5713C137.769 37.5335 137.948 37.5311 138.123 37.5642L140.195 37.8792C140.524 37.9305 140.821 38.1038 141.028 38.3646C141.235 38.6253 141.336 38.9544 141.31 39.2861C141.285 39.6179 141.136 39.9281 140.893 40.1549C140.649 40.3817 140.329 40.5084 139.997 40.5099Z" fill="#323544"/>
<path d="M194.84 45.1594C194.84 45.1594 200.57 43.9076 203.391 49.4945C206.212 55.0815 201.462 61.7192 201.462 61.7192C201.462 61.7192 195.041 60.7214 194.845 56.6615C194.845 56.6615 197.06 56.2778 196.335 54.3352C195.61 52.3926 193.845 54.3802 193.845 54.3802C193.845 54.3802 190.256 50.2647 194.84 45.1594Z" fill="#111217"/>
<path d="M201.461 62.6466C201.415 62.6506 201.368 62.6506 201.321 62.6466C201.027 62.6016 194.149 61.4768 193.929 56.7156C193.919 56.4902 193.991 56.2687 194.132 56.0928C194.274 55.9169 194.474 55.7986 194.697 55.7602C194.893 55.7231 195.366 55.5564 195.515 55.2917C195.556 55.191 195.575 55.0826 195.57 54.9739C195.566 54.8651 195.538 54.7587 195.488 54.6618C195.46 54.5751 195.419 54.493 195.366 54.4183C195.055 54.5472 194.778 54.7465 194.556 55.0006C194.468 55.0967 194.36 55.1735 194.24 55.2264C194.121 55.2792 193.991 55.3068 193.86 55.3076C193.73 55.3069 193.6 55.2784 193.481 55.2241C193.362 55.1699 193.256 55.091 193.17 54.9926C193.127 54.945 189.086 50.1944 194.162 44.5439C194.293 44.4002 194.465 44.3003 194.654 44.2581C194.718 44.2448 201.12 42.9348 204.227 49.0802C207.268 55.0959 202.433 61.9717 202.226 62.2628C202.139 62.3833 202.024 62.481 201.891 62.5477C201.757 62.6145 201.61 62.6484 201.461 62.6466ZM195.904 57.2846C196.549 59.4363 199.72 60.3811 201.038 60.6881C202.004 59.116 204.69 54.0981 202.576 49.9112C200.432 45.6766 196.438 45.8725 195.332 46.0207C192.685 49.1463 193.421 51.7612 194.067 53.0024C194.55 52.6582 195.146 52.5097 195.734 52.5869C196.205 52.6769 196.846 52.9945 197.224 54.0108C197.378 54.3598 197.449 54.7393 197.432 55.1202C197.416 55.501 197.312 55.873 197.129 56.2074C196.837 56.6846 196.406 57.0606 195.893 57.2846H195.904Z" fill="#323544"/>
<path d="M200.21 56.9203C199.975 56.9201 199.748 56.8306 199.577 56.6699C199.405 56.5092 199.301 56.2894 199.286 56.0549C198.664 46.6462 189.401 40.8078 189.316 40.7496C189.106 40.6208 188.955 40.4136 188.897 40.1737C188.839 39.9337 188.879 39.6806 189.008 39.47C189.137 39.2594 189.344 39.1086 189.584 39.0508C189.824 38.993 190.077 39.0329 190.287 39.1617C190.703 39.4263 200.45 45.5479 201.138 55.9199C201.147 56.0414 201.131 56.1633 201.092 56.2787C201.053 56.3941 200.992 56.5007 200.912 56.5924C200.832 56.684 200.734 56.759 200.625 56.813C200.516 56.867 200.397 56.899 200.276 56.9071L200.21 56.9203Z" fill="#323544"/>
<path d="M177.149 148.492C178.541 151.308 182.829 151.437 185.322 149.529C187.815 147.621 188.958 144.474 189.977 141.502L191.478 137.117C188.553 139.634 183.985 138.236 180.327 139.462C178.736 140.031 177.361 141.082 176.394 142.469C175.427 143.856 174.917 145.51 174.934 147.2" fill="#111217"/>
<path d="M181.394 151.733C180.868 151.735 180.343 151.675 179.83 151.556C179.084 151.406 178.381 151.09 177.773 150.632C177.166 150.174 176.668 149.585 176.318 148.909C176.209 148.689 176.193 148.434 176.272 148.202C176.35 147.969 176.519 147.777 176.739 147.668C176.959 147.559 177.214 147.543 177.447 147.621C177.68 147.7 177.871 147.869 177.98 148.089C178.209 148.52 178.532 148.894 178.925 149.183C179.318 149.473 179.771 149.671 180.251 149.762C181.026 149.928 181.828 149.929 182.604 149.763C183.379 149.598 184.111 149.27 184.75 148.801C187.108 146.999 188.207 143.788 189.091 141.21L189.81 139.093C188.302 139.622 186.635 139.686 185.025 139.755C183.416 139.824 181.953 139.89 180.611 140.34C179.208 140.846 177.996 141.776 177.143 142.999C176.29 144.223 175.837 145.681 175.847 147.173C175.851 147.295 175.83 147.416 175.787 147.53C175.744 147.644 175.679 147.748 175.595 147.836C175.512 147.925 175.412 147.996 175.301 148.046C175.19 148.096 175.07 148.124 174.949 148.127C174.827 148.131 174.706 148.111 174.592 148.067C174.478 148.024 174.374 147.959 174.285 147.876C174.197 147.792 174.126 147.692 174.076 147.581C174.026 147.47 173.998 147.35 173.994 147.229C173.962 145.337 174.527 143.483 175.609 141.931C176.691 140.379 178.235 139.207 180.021 138.582C181.609 138.053 183.303 137.976 184.943 137.905C187.209 137.807 189.35 137.714 190.861 136.412C191.015 136.28 191.209 136.202 191.412 136.19C191.615 136.179 191.816 136.235 191.984 136.349C192.152 136.463 192.278 136.629 192.343 136.822C192.407 137.014 192.406 137.223 192.341 137.415L190.84 141.801C189.877 144.617 188.675 148.121 185.872 150.27C184.574 151.223 183.005 151.736 181.394 151.733Z" fill="#323544"/>
<path d="M173.296 148.512C173 148.512 172.703 148.504 172.407 148.488C172.161 148.475 171.931 148.365 171.766 148.182C171.602 147.999 171.516 147.758 171.529 147.513C171.542 147.267 171.652 147.036 171.835 146.872C172.018 146.707 172.259 146.622 172.505 146.635C174.704 146.735 176.902 146.389 178.964 145.619C181.027 144.848 182.912 143.668 184.507 142.149C184.591 142.052 184.694 141.973 184.81 141.918C184.926 141.862 185.052 141.832 185.181 141.828C185.309 141.824 185.437 141.847 185.556 141.895C185.675 141.944 185.783 142.016 185.873 142.108C185.962 142.2 186.032 142.31 186.077 142.431C186.122 142.551 186.141 142.68 186.133 142.808C186.126 142.936 186.092 143.062 186.033 143.176C185.975 143.29 185.893 143.391 185.793 143.472C182.422 146.684 177.952 148.486 173.296 148.512Z" fill="#323544"/>
<path d="M55.0199 41.1489C51.6587 41.4876 48.9115 37.92 49.0783 34.7759C49.245 31.6317 51.3437 28.9534 53.3657 26.5026L56.3484 22.8662C55.9012 26.7011 59.9505 29.8241 61.1123 33.5876C62.1207 36.872 60.583 40.6037 57.5341 42.3345" fill="#111217"/>
<path d="M57.5291 43.2609C57.3243 43.261 57.1251 43.1933 56.9629 43.0683C56.8006 42.9432 56.6844 42.7679 56.6323 42.5698C56.5803 42.3717 56.5954 42.1619 56.6753 41.9733C56.7552 41.7846 56.8954 41.6278 57.0739 41.5273C59.747 40.0161 61.0994 36.7211 60.2207 33.8522C59.7972 32.4733 58.8974 31.1103 58.0267 29.7923C57.0607 28.3288 56.0735 26.8308 55.6289 25.1979L54.0806 27.0849C52.3339 29.218 50.1584 31.8726 50.0022 34.8209C49.9255 36.2738 50.6215 37.92 51.7701 39.0184C52.7017 39.905 53.8212 40.3417 54.9275 40.2226C55.1732 40.198 55.4186 40.272 55.6096 40.4284C55.8007 40.5847 55.9219 40.8106 55.9464 41.0562C55.971 41.3019 55.897 41.5473 55.7406 41.7384C55.5843 41.9295 55.3584 42.0506 55.1128 42.0752C53.4639 42.2419 51.8231 41.6358 50.4918 40.3681C48.9436 38.8913 48.0464 36.7317 48.1522 34.7335C48.3401 31.1792 50.73 28.2626 52.6514 25.9204L55.6342 22.284C55.7611 22.1297 55.9346 22.0206 56.1287 21.973C56.3227 21.9254 56.527 21.9418 56.7109 22.0198C56.8949 22.0978 57.0487 22.2331 57.1494 22.4057C57.2501 22.5783 57.2923 22.7788 57.2697 22.9774C57.0421 24.9438 58.2728 26.807 59.5776 28.784C60.5198 30.2105 61.4937 31.6952 61.9939 33.3202C63.124 36.9937 61.4011 41.2177 57.987 43.1444C57.8473 43.2228 57.6893 43.263 57.5291 43.2609Z" fill="#323544"/>
<path d="M58.7283 45.5587C58.5896 45.5589 58.4526 45.5278 58.3275 45.4678C58.2024 45.4077 58.0925 45.3203 58.0058 45.212C54.7876 41.2183 53.3796 35.9489 54.245 31.1427C54.2885 30.9009 54.4263 30.6863 54.6281 30.546C54.8298 30.4058 55.079 30.3515 55.3208 30.395C55.5627 30.4385 55.7773 30.5763 55.9175 30.7781C56.0577 30.9799 56.112 31.2291 56.0685 31.4709C55.2983 35.7663 56.5608 40.4693 59.4482 44.0501C59.557 44.1864 59.6253 44.3506 59.6452 44.5238C59.665 44.6971 59.6358 44.8724 59.5607 45.0298C59.4855 45.1872 59.3677 45.3203 59.2205 45.4138C59.0733 45.5073 58.9027 45.5575 58.7283 45.5587Z" fill="#323544"/>
<path d="M83.737 120.525L19.6196 106.087C17.4222 105.593 15.2397 106.973 14.7449 109.17L5.65545 149.536C5.16065 151.734 6.54089 153.916 8.7383 154.411L72.8557 168.849C75.0531 169.344 77.2356 167.963 77.7304 165.766L86.8199 125.4C87.3147 123.202 85.9344 121.02 83.737 120.525Z" fill="#111217"/>
<path d="M73.7739 169.873C73.4008 169.874 73.0288 169.832 72.665 169.749L8.54601 155.314C7.90476 155.171 7.29812 154.902 6.76082 154.524C6.22353 154.145 5.76614 153.665 5.41484 153.109C5.06354 152.554 4.82523 151.935 4.71355 151.287C4.60188 150.64 4.61903 149.977 4.76404 149.336L13.8498 108.967C13.994 108.326 14.2631 107.719 14.6418 107.182C15.0204 106.645 15.5013 106.188 16.0567 105.837C16.6122 105.486 17.2315 105.247 17.8791 105.135C18.5267 105.024 19.19 105.041 19.8311 105.185L83.9501 119.62C85.244 119.913 86.369 120.707 87.0785 121.828C87.7879 122.949 88.0239 124.306 87.7347 125.601L78.6463 165.967C78.3973 167.074 77.7794 168.063 76.8941 168.773C76.0088 169.483 74.9086 169.871 73.7739 169.873ZM18.7248 106.913C18.0099 106.915 17.3168 107.16 16.759 107.607C16.2012 108.054 15.8119 108.677 15.6548 109.375L6.57166 149.741C6.48057 150.144 6.46993 150.562 6.54036 150.97C6.61078 151.378 6.76089 151.768 6.98211 152.117C7.20332 152.467 7.4913 152.77 7.82958 153.008C8.16786 153.247 8.54981 153.416 8.95359 153.507L73.0726 167.939C73.8878 168.121 74.7421 167.973 75.4481 167.526C76.1541 167.08 76.6542 166.371 76.8387 165.557L85.9191 125.193C86.1016 124.378 85.9534 123.524 85.5068 122.818C85.0603 122.112 84.352 121.612 83.5372 121.427L19.4235 106.993C19.1952 106.94 18.9617 106.914 18.7275 106.913H18.7248Z" fill="#323544"/>
<path d="M16.2502 107.621L45.2278 144.552L86.6866 123.479" fill="#111217"/>
<path d="M45.2278 145.479C45.0871 145.479 44.9483 145.447 44.8218 145.385C44.6952 145.324 44.5843 145.234 44.4973 145.124L15.5198 108.193C15.4385 108.098 15.3773 107.988 15.3398 107.869C15.3023 107.75 15.2893 107.624 15.3016 107.5C15.3139 107.375 15.3512 107.255 15.4113 107.145C15.4714 107.036 15.553 106.94 15.6513 106.862C15.7495 106.785 15.8624 106.729 15.983 106.696C16.1037 106.664 16.2297 106.656 16.3534 106.674C16.4771 106.691 16.596 106.734 16.7029 106.798C16.8098 106.863 16.9025 106.949 16.9754 107.05L45.4872 143.38L86.2685 122.654C86.4869 122.548 86.7385 122.531 86.9689 122.609C87.1993 122.686 87.3901 122.851 87.5001 123.067C87.6102 123.284 87.6307 123.535 87.5572 123.767C87.4838 123.999 87.3223 124.192 87.1075 124.306L45.646 145.378C45.5163 145.444 45.3731 145.478 45.2278 145.479Z" fill="#323544"/>
<path d="M8.08288 142.28C7.87784 142.28 7.67877 142.211 7.51686 142.085C7.35496 141.96 7.23938 141.784 7.18823 141.585C7.13707 141.387 7.15324 141.177 7.23421 140.988C7.31517 140.8 7.45634 140.644 7.63561 140.544L31.2247 127.497C31.3313 127.433 31.4496 127.391 31.5727 127.374C31.6957 127.357 31.8209 127.365 31.9409 127.397C32.0608 127.429 32.1731 127.485 32.2709 127.562C32.3687 127.639 32.4502 127.734 32.5104 127.843C32.5705 127.951 32.6083 128.071 32.6213 128.195C32.6343 128.318 32.6223 128.443 32.5861 128.562C32.5498 128.681 32.49 128.791 32.4103 128.886C32.3306 128.981 32.2325 129.06 32.1219 129.116L8.5328 142.164C8.39525 142.241 8.24034 142.281 8.08288 142.28Z" fill="#323544"/>
<path d="M79.464 157.777C79.3035 157.776 79.1459 157.734 79.0066 157.654C78.8674 157.575 78.7514 157.46 78.67 157.322L65.1724 134.489C65.0996 134.385 65.0491 134.267 65.024 134.142C64.9989 134.017 64.9999 133.889 65.0267 133.764C65.0536 133.64 65.1058 133.522 65.1801 133.419C65.2543 133.315 65.3491 133.229 65.4585 133.163C65.5679 133.098 65.6895 133.057 65.8158 133.041C65.942 133.025 66.0703 133.035 66.1924 133.071C66.3146 133.106 66.428 133.167 66.5257 133.248C66.6234 133.33 66.7033 133.431 66.7603 133.545L80.2579 156.379C80.3409 156.52 80.3853 156.68 80.3866 156.843C80.388 157.006 80.3463 157.166 80.2658 157.308C80.1852 157.45 80.0686 157.568 79.9278 157.65C79.7871 157.732 79.627 157.776 79.464 157.777Z" fill="#323544"/>
<path d="M28.9807 59.7946L3.71185 69.3832C2.84544 69.712 2.40959 70.6809 2.73837 71.5473L8.77494 87.4554C9.10371 88.3218 10.0726 88.7577 10.939 88.4289L36.2079 78.8402C37.0743 78.5115 37.5102 77.5426 37.1814 76.6762L31.1448 60.768C30.816 59.9016 29.8472 59.4658 28.9807 59.7946Z" fill="#111217"/>
<path d="M29.5731 59.6939C29.9131 59.6943 30.2451 59.798 30.5249 59.9914C30.8047 60.1847 31.0191 60.4584 31.1398 60.7764L37.1767 76.6877C37.334 77.1036 37.3198 77.5649 37.1372 77.9704C36.9545 78.3758 36.6185 78.6921 36.2028 78.85L10.9331 88.4385C10.5168 88.5959 10.0551 88.5818 9.64928 88.3992C9.24342 88.2166 8.92656 87.8805 8.7682 87.4646L2.73397 71.5559C2.57571 71.1401 2.58913 70.6783 2.77129 70.2723C2.95344 69.8664 3.2894 69.5493 3.70527 69.391L28.9776 59.8051C29.1677 59.7323 29.3695 59.6946 29.5731 59.6939ZM29.5731 57.8413C29.1452 57.8408 28.7209 57.9189 28.3212 58.0716L3.04891 67.6602C2.17376 67.9924 1.46634 68.6585 1.08221 69.5121C0.698072 70.3657 0.668665 71.337 1.00045 72.2123L7.05056 88.1157C7.30561 88.7821 7.75577 89.3561 8.34221 89.7626C8.92864 90.1692 9.62407 90.3893 10.3376 90.3944C10.7655 90.3949 11.1898 90.3168 11.5895 90.1641L36.8618 80.5755C37.736 80.2422 38.4423 79.5758 38.8259 78.7224C39.2094 77.8691 39.2388 76.8984 38.9076 76.0234L32.8734 60.1147C32.616 59.4476 32.1633 58.8737 31.5745 58.4681C30.9856 58.0625 30.2881 57.844 29.5731 57.8413Z" fill="#323544"/>
<path d="M2.89575 70.6809L21.2102 76.7786L30.6559 60.1475" fill="#111217"/>
<path d="M21.2101 77.7042C21.1112 77.7038 21.0129 77.6878 20.919 77.6565L2.60195 71.5694C2.48656 71.5308 2.3799 71.4699 2.28805 71.3901C2.19621 71.3103 2.12099 71.2132 2.06667 71.1043C2.01236 70.9954 1.98003 70.8769 1.97151 70.7555C1.963 70.6342 1.97847 70.5123 2.01705 70.3969C2.05563 70.2815 2.11656 70.1749 2.19636 70.083C2.27615 69.9912 2.37326 69.916 2.48213 69.8617C2.591 69.8073 2.7095 69.775 2.83087 69.7665C2.95224 69.758 3.0741 69.7735 3.18949 69.812L20.7814 75.6689L29.8513 59.6941C29.9727 59.4804 30.1741 59.3236 30.4111 59.2584C30.5284 59.2261 30.651 59.2172 30.7718 59.2322C30.8925 59.2473 31.0092 59.286 31.115 59.3461C31.2208 59.4062 31.3138 59.4866 31.3885 59.5826C31.4633 59.6787 31.5184 59.7885 31.5507 59.9059C31.5831 60.0232 31.5919 60.1458 31.5769 60.2666C31.5618 60.3874 31.5232 60.504 31.463 60.6098L22.0173 77.241C21.9356 77.3826 21.8179 77.5 21.6761 77.5813C21.5344 77.6627 21.3736 77.705 21.2101 77.7042Z" fill="#323544"/>
<path d="M7.74156 85.0301C7.58234 85.03 7.42584 84.9888 7.28716 84.9106C7.14848 84.8324 7.0323 84.7197 6.94984 84.5835C6.86738 84.4473 6.82141 84.2922 6.81638 84.1331C6.81135 83.9739 6.84742 83.8162 6.92112 83.675L12.0555 73.8482C12.1118 73.7403 12.1888 73.6445 12.2821 73.5664C12.3754 73.4882 12.4832 73.4292 12.5994 73.3927C12.7155 73.3562 12.8377 73.343 12.9589 73.3537C13.0802 73.3644 13.1981 73.3989 13.306 73.4552C13.4139 73.5115 13.5097 73.5885 13.5879 73.6818C13.666 73.7752 13.725 73.883 13.7615 73.9991C13.798 74.1152 13.8113 74.2374 13.8006 74.3586C13.7898 74.4799 13.7553 74.5978 13.699 74.7057L8.56465 84.5325C8.48592 84.6827 8.3676 84.8084 8.22251 84.8961C8.07742 84.9838 7.9111 85.0302 7.74156 85.0301Z" fill="#323544"/>
<path d="M35.7451 74.1611C35.6046 74.1608 35.466 74.1282 35.3401 74.0659L25.5292 69.302C25.4197 69.2488 25.3218 69.1746 25.241 69.0836C25.1602 68.9925 25.0981 68.8865 25.0583 68.7715C25.0185 68.6565 25.0017 68.5347 25.009 68.4133C25.0162 68.2918 25.0473 68.1729 25.1005 68.0634C25.1536 67.9539 25.2279 67.856 25.3189 67.7752C25.4099 67.6944 25.5159 67.6323 25.631 67.5925C25.746 67.5527 25.8677 67.5359 25.9892 67.5431C26.1107 67.5504 26.2296 67.5815 26.3391 67.6346L36.1632 72.3985C36.352 72.4899 36.5042 72.6428 36.5948 72.8319C36.6855 73.0211 36.7092 73.2354 36.6622 73.4399C36.6151 73.6443 36.5001 73.8267 36.3359 73.9573C36.1717 74.0878 35.9681 74.1588 35.7583 74.1585L35.7451 74.1611Z" fill="#323544"/>
<path d="M149.329 163.293L89.0341 195.992C87.4597 196.846 85.6105 197.04 83.8932 196.53C82.1759 196.021 80.7312 194.851 79.8769 193.276L57.1162 151.331C56.5656 150.316 56.2843 149.176 56.2991 148.022C56.314 146.867 56.6244 145.736 57.2009 144.735L76.4708 111.335C77.0771 110.285 77.9549 109.418 79.012 108.824C80.069 108.231 81.2665 107.932 82.4785 107.961L123.575 108.789C124.767 108.813 125.932 109.153 126.951 109.774C127.969 110.394 128.805 111.274 129.373 112.322L152.055 154.139C152.907 155.714 153.098 157.564 152.587 159.28C152.076 160.997 150.904 162.44 149.329 163.293Z" fill="#111217"/>
<path d="M85.8236 197.745C85.0805 197.743 84.3416 197.635 83.6296 197.422C82.6612 197.137 81.759 196.663 80.9753 196.027C80.1915 195.391 79.542 194.606 79.0642 193.717L56.3035 151.771C55.6826 150.615 55.3659 149.32 55.383 148.008C55.4001 146.696 55.7506 145.41 56.4015 144.27L75.6713 110.87C76.3586 109.68 77.3529 108.696 78.5503 108.022C79.7477 107.347 81.1043 107.007 82.4783 107.035L123.583 107.861C124.938 107.89 126.263 108.277 127.421 108.982C128.579 109.688 129.53 110.687 130.178 111.879L152.859 153.695C153.828 155.486 154.046 157.588 153.466 159.54C152.887 161.492 151.557 163.134 149.768 164.106L89.4759 196.81C88.3557 197.422 87.1 197.743 85.8236 197.745ZM82.3301 108.885C81.3073 108.885 80.3023 109.153 79.4162 109.664C78.5302 110.175 77.7945 110.911 77.2831 111.797L58.0159 145.197C57.5212 146.061 57.2545 147.036 57.2411 148.032C57.2277 149.027 57.4679 150.01 57.9391 150.887L80.6998 192.833C81.0641 193.506 81.5576 194.1 82.1519 194.583C82.7463 195.065 83.4299 195.425 84.1637 195.643C84.8974 195.861 85.6669 195.932 86.4281 195.852C87.1893 195.772 87.9273 195.543 88.5999 195.177L148.887 162.479C149.559 162.114 150.154 161.621 150.636 161.026C151.118 160.432 151.478 159.748 151.695 159.014C151.913 158.281 151.984 157.511 151.904 156.75C151.824 155.989 151.594 155.251 151.229 154.579L128.55 112.763C128.059 111.858 127.337 111.1 126.458 110.564C125.579 110.029 124.574 109.735 123.545 109.714L82.4492 108.885H82.3301Z" fill="#1D1D1B"/>
<path d="M101.955 82.2348L46.9447 112.078C45.6239 112.795 45.1341 114.446 45.8506 115.767L80.3546 179.368C81.0711 180.689 82.7226 181.179 84.0434 180.462L139.054 150.619C140.374 149.903 140.864 148.251 140.148 146.93L105.644 83.3289C104.927 82.0082 103.276 81.5183 101.955 82.2348Z" fill="#111217"/>
<path d="M103.246 81.9258C103.735 81.9278 104.214 82.0613 104.633 82.3123C105.052 82.5633 105.396 82.9226 105.628 83.3523L140.14 146.947C140.483 147.582 140.561 148.327 140.355 149.019C140.15 149.71 139.678 150.292 139.044 150.637L84.0346 180.474C83.7205 180.645 83.3757 180.752 83.0201 180.79C82.6645 180.828 82.3049 180.795 81.962 180.693C81.6191 180.592 81.2996 180.424 81.0217 180.198C80.7438 179.973 80.5131 179.696 80.3426 179.381L45.8469 115.778C45.5051 115.145 45.4282 114.402 45.6331 113.712C45.8379 113.022 46.3079 112.441 46.94 112.097L101.952 82.2513C102.349 82.0337 102.794 81.9199 103.246 81.9205V81.9258ZM103.246 80.0679C102.485 80.0693 101.737 80.2603 101.068 80.6236L46.056 110.461C44.9903 111.04 44.1979 112.018 43.853 113.181C43.5081 114.344 43.6389 115.596 44.2166 116.662L78.715 180.263C79.0002 180.792 79.3869 181.259 79.853 181.639C80.3191 182.018 80.8555 182.302 81.4314 182.474C82.0073 182.646 82.6115 182.703 83.2094 182.642C83.8073 182.58 84.3872 182.401 84.9159 182.115L139.928 152.267C140.992 151.686 141.782 150.706 142.126 149.544C142.47 148.381 142.339 147.13 141.762 146.063L107.269 82.4551C106.875 81.7327 106.293 81.1301 105.585 80.7109C104.877 80.2916 104.069 80.0713 103.246 80.0732V80.0679Z" fill="#323544"/>
<path d="M101.952 82.2517L54.4514 108.016L61.1446 143.986L66.4564 153.778C66.9153 153.827 67.3787 153.809 67.8326 153.726L124.353 143.205C125.602 142.973 126.708 142.253 127.427 141.206C128.146 140.158 128.42 138.868 128.188 137.618L124.589 118.277L105.642 83.3421C105.471 83.028 105.241 82.7506 104.963 82.5258C104.685 82.301 104.366 82.1332 104.023 82.0319C103.681 81.9306 103.321 81.8979 102.966 81.9356C102.611 81.9733 102.266 82.0807 101.952 82.2517Z" fill="#111217"/>
<path d="M56.393 68.2328L114.031 57.5086C115.281 57.2761 116.572 57.5495 117.62 58.2688C118.668 58.988 119.387 60.0942 119.62 61.3439L132.681 131.539C132.913 132.789 132.64 134.08 131.92 135.128C131.201 136.176 130.095 136.895 128.845 137.128L72.3233 147.644C71.0736 147.877 69.7826 147.603 68.7345 146.884C67.6864 146.165 66.967 145.059 66.7344 143.809L53.4667 72.5003C53.3784 72.028 53.3841 71.5428 53.4834 71.0727C53.5828 70.6025 53.7738 70.1565 54.0455 69.7602C54.3173 69.3639 54.6645 69.025 55.0673 68.7629C55.4701 68.5008 55.9206 68.3207 56.393 68.2328Z" fill="#111217"/>
<path d="M114.918 57.421C116.036 57.423 117.118 57.8156 117.977 58.5308C118.836 59.246 119.419 60.2389 119.623 61.3379L132.687 131.531C132.919 132.78 132.645 134.071 131.926 135.118C131.207 136.166 130.101 136.885 128.852 137.118L72.3314 147.638C71.7127 147.754 71.0771 147.747 70.4612 147.617C69.8453 147.486 69.2611 147.236 68.7421 146.88C68.2231 146.524 67.7795 146.068 67.4367 145.541C67.0939 145.013 66.8587 144.422 66.7445 143.803L53.4718 72.496C53.3837 72.0236 53.3896 71.5386 53.4891 71.0685C53.5885 70.5984 53.7796 70.1526 54.0515 69.7564C54.3233 69.3602 54.6705 69.0214 55.0733 68.7595C55.4761 68.4975 55.9265 68.3175 56.3989 68.2297L114.034 57.503C114.325 57.4497 114.621 57.4222 114.918 57.421ZM114.918 55.5684C114.508 55.5694 114.098 55.6075 113.695 55.6822L56.0575 66.4088C54.6218 66.678 53.3515 67.5058 52.5254 68.7105C51.6993 69.9152 51.3848 71.3984 51.6509 72.8347L64.921 144.142C65.2044 145.666 66.012 147.044 67.2038 148.035C68.3957 149.027 69.8969 149.571 71.4474 149.573C71.8576 149.572 72.2669 149.534 72.6702 149.459L129.191 138.939C130.049 138.78 130.867 138.453 131.599 137.977C132.33 137.502 132.961 136.887 133.455 136.167C133.949 135.448 134.296 134.638 134.476 133.784C134.657 132.931 134.668 132.05 134.508 131.192L121.444 60.9992C121.161 59.4745 120.354 58.0969 119.162 57.105C117.97 56.1131 116.468 55.5695 114.918 55.5684Z" fill="#323544"/>
<path d="M112.692 67.127L63.1639 75.8513C61.6366 76.1203 60.6165 77.5765 60.8856 79.1038L60.9843 79.6642C61.2533 81.1915 62.7095 82.2116 64.2369 81.9426L113.765 73.2183C115.292 72.9493 116.312 71.4931 116.043 69.9658L115.945 69.4054C115.675 67.878 114.219 66.858 112.692 67.127Z" fill="#111217"/>
<path d="M114.508 77.4347L64.9796 86.1589C63.4523 86.4279 62.4322 87.8841 62.7012 89.4115L62.8 89.9718C63.069 91.4992 64.5252 92.5192 66.0525 92.2502L115.581 83.526C117.108 83.2569 118.128 81.8007 117.859 80.2734L117.76 79.713C117.491 78.1857 116.035 77.1656 114.508 77.4347Z" fill="#111217"/>
<path d="M116.324 87.7418L66.7957 96.466C65.2684 96.735 64.2484 98.1913 64.5174 99.7186L64.6161 100.279C64.8851 101.806 66.3414 102.826 67.8687 102.557L117.397 93.8331C118.924 93.5641 119.944 92.1078 119.675 90.5805L119.576 90.0201C119.307 88.4928 117.851 87.4728 116.324 87.7418Z" fill="#111217"/>
<path d="M118.14 98.0514L68.6121 106.776C67.0848 107.045 66.0648 108.501 66.3338 110.028L66.4325 110.589C66.7016 112.116 68.1578 113.136 69.6851 112.867L119.213 104.143C120.74 103.874 121.761 102.417 121.491 100.89L121.393 100.33C121.124 98.8024 119.667 97.7823 118.14 98.0514Z" fill="#111217"/>
<path d="M119.954 108.359L70.4259 117.083C68.8985 117.352 67.8785 118.808 68.1475 120.336L68.2462 120.896C68.5153 122.423 69.9715 123.444 71.4988 123.174L121.027 114.45C122.554 114.181 123.574 112.725 123.305 111.198L123.206 110.637C122.937 109.11 121.481 108.09 119.954 108.359Z" fill="#111217"/>
<path d="M121.77 118.666L72.2423 127.39C70.7149 127.659 69.6949 129.116 69.9639 130.643L70.0626 131.203C70.3317 132.731 71.7879 133.751 73.3152 133.482L122.843 124.757C124.371 124.488 125.391 123.032 125.122 121.505L125.023 120.944C124.754 119.417 123.298 118.397 121.77 118.666Z" fill="#111217"/>
<path d="M63.4231 162.962L105.377 154.215L135.598 123.819L153.831 157.431C154.019 157.778 154.137 158.16 154.177 158.553C154.218 158.946 154.181 159.343 154.068 159.722C153.955 160.101 153.768 160.454 153.518 160.76C153.269 161.067 152.961 161.321 152.613 161.509L85.7418 197.783C85.3946 197.972 85.0137 198.09 84.6208 198.131C84.2279 198.173 83.8307 198.136 83.4519 198.024C83.0732 197.911 82.7203 197.725 82.4134 197.477C82.1065 197.228 81.8516 196.921 81.6634 196.574L63.4231 162.962Z" fill="#111217"/>
<path d="M135.598 123.818L153.831 157.43C154.019 157.778 154.137 158.159 154.178 158.552C154.218 158.946 154.181 159.343 154.068 159.722C153.955 160.101 153.768 160.453 153.519 160.76C153.269 161.067 152.961 161.321 152.613 161.509L85.742 197.783C85.3949 197.972 85.0139 198.09 84.6209 198.132C84.228 198.173 83.8307 198.137 83.4518 198.024C83.0729 197.912 82.72 197.726 82.4131 197.477C82.1063 197.228 81.8515 196.921 81.6636 196.573L63.4233 162.962L105.377 154.215L135.598 123.818ZM135.598 121.966C135.353 121.965 135.109 122.013 134.882 122.107C134.655 122.201 134.448 122.339 134.275 122.514L104.467 152.515L63.0554 161.149C62.7725 161.207 62.5073 161.331 62.281 161.511C62.0547 161.691 61.8734 161.92 61.7518 162.183C61.6302 162.445 61.5715 162.731 61.5805 163.02C61.5895 163.309 61.6659 163.592 61.8036 163.846L80.0359 197.457C80.6501 198.59 81.6892 199.433 82.9246 199.799C84.1599 200.166 85.4904 200.027 86.6233 199.413L153.505 163.136C154.634 162.521 155.474 161.484 155.84 160.251C156.206 159.019 156.069 157.691 155.458 156.559L137.229 122.948C137.091 122.693 136.896 122.475 136.659 122.309C136.422 122.144 136.149 122.036 135.863 121.995C135.775 121.984 135.687 121.977 135.598 121.976V121.966Z" fill="#323544"/>
<path d="M83.2511 190.486L67.8268 162.046L63.4229 162.962L81.6526 196.573C81.8408 196.921 82.0956 197.228 82.4025 197.476C82.7094 197.725 83.0623 197.911 83.4411 198.023C83.8199 198.136 84.2171 198.172 84.61 198.131C85.0029 198.09 85.3838 197.971 85.731 197.783L152.613 161.509C152.96 161.32 153.267 161.066 153.516 160.759C153.765 160.452 153.951 160.099 154.063 159.72C154.175 159.341 154.212 158.944 154.171 158.551C154.129 158.158 154.011 157.777 153.822 157.43L153.073 156.03L87.3295 191.696C86.9823 191.884 86.6014 192.003 86.2085 192.044C85.8156 192.085 85.4184 192.049 85.0396 191.936C84.6609 191.824 84.308 191.638 84.0011 191.389C83.6942 191.14 83.4394 190.834 83.2511 190.486Z" fill="#111217"/>
<path d="M82.616 178.575L97.9344 147.265C98.5024 146.107 99.4364 145.168 100.592 144.594C101.747 144.02 103.06 143.842 104.326 144.089L135.13 150.095" fill="#111217"/>
<path d="M82.616 179.504C82.4747 179.503 82.3354 179.47 82.2085 179.408C81.9882 179.3 81.8199 179.109 81.7405 178.877C81.6611 178.644 81.6771 178.39 81.785 178.17L97.1035 146.858C97.7623 145.515 98.8453 144.427 100.185 143.761C101.524 143.096 103.046 142.89 104.514 143.176L135.318 149.184C135.438 149.206 135.553 149.252 135.656 149.319C135.759 149.386 135.847 149.472 135.917 149.573C135.986 149.675 136.034 149.789 136.059 149.909C136.084 150.029 136.084 150.153 136.061 150.273C136.037 150.393 135.99 150.508 135.922 150.61C135.854 150.712 135.766 150.799 135.664 150.867C135.562 150.935 135.448 150.982 135.327 151.005C135.207 151.028 135.083 151.027 134.963 151.002L104.149 144.995C103.082 144.789 101.977 144.939 101.004 145.423C100.031 145.907 99.2447 146.698 98.7655 147.673L83.4497 178.982C83.3732 179.138 83.2546 179.27 83.1073 179.362C82.9599 179.454 82.7898 179.503 82.616 179.504Z" fill="#323544"/>
<path d="M85.5055 103.579C98.2527 103.579 108.586 93.2456 108.586 80.4984C108.586 67.7512 98.2527 57.4175 85.5055 57.4175C72.7582 57.4175 62.4246 67.7512 62.4246 80.4984C62.4246 93.2456 72.7582 103.579 85.5055 103.579Z" fill="#111217"/>
<path d="M85.5244 104.507C79.4819 104.514 73.6587 102.244 69.2163 98.1476C64.7739 94.0516 62.0388 88.4315 61.5566 82.4083C61.0744 76.385 62.8805 70.4014 66.6147 65.6508C70.3489 60.9003 75.7366 57.732 81.7033 56.7779C87.67 55.8238 93.7771 57.1541 98.8065 60.5033C103.836 63.8526 107.418 68.9747 108.838 74.848C110.258 80.7213 109.412 86.914 106.468 92.191C103.524 97.468 98.6995 101.441 92.956 103.319C90.5565 104.102 88.0486 104.503 85.5244 104.507ZM85.5244 58.3319C80.0857 58.3159 74.8304 60.297 70.7556 63.8992C66.6809 67.5014 64.0702 72.4742 63.4191 77.8738C62.768 83.2734 64.1218 88.7241 67.2234 93.1917C70.3251 97.6593 74.9589 100.833 80.2455 102.11C85.5321 103.387 91.1037 102.68 95.903 100.121C100.702 97.5622 104.395 93.3308 106.281 88.2295C108.167 83.1283 108.115 77.5122 106.134 72.4469C104.154 67.3817 100.383 63.2197 95.5365 60.7509C92.4366 59.1713 89.0088 58.3427 85.5297 58.3319H85.5244Z" fill="#323544"/>
<path d="M85.506 97.4246C94.8534 97.4246 102.431 89.847 102.431 80.4997C102.431 71.1523 94.8534 63.5747 85.506 63.5747C76.1586 63.5747 68.5811 71.1523 68.5811 80.4997C68.5811 89.847 76.1586 97.4246 85.506 97.4246Z" fill="#111217"/>
<path d="M85.4872 98.3609C80.9894 98.3656 76.655 96.6751 73.3482 93.6263C70.0414 90.5775 68.0051 86.3944 67.6452 81.911C67.2854 77.4276 68.6285 72.9733 71.4067 69.4361C74.1849 65.8989 78.1942 63.5387 82.6352 62.826C87.0762 62.1134 91.6226 63.1006 95.3681 65.5909C99.1136 68.0812 101.783 71.8916 102.844 76.2624C103.905 80.6333 103.28 85.2435 101.093 89.1739C98.9062 93.1043 95.3185 96.0662 91.045 97.469C89.2516 98.0597 87.3754 98.3608 85.4872 98.3609ZM85.5216 64.4845C83.8299 64.4855 82.1489 64.7534 80.5407 65.2785C77.5328 66.2606 74.8837 68.1126 72.9284 70.6002C70.973 73.0878 69.7992 76.0994 69.5554 79.2541C69.3116 82.4088 70.0087 85.565 71.5585 88.3236C73.1084 91.0821 75.4415 93.3192 78.2627 94.7518C81.0839 96.1844 84.2666 96.7483 87.4083 96.3722C90.55 95.996 93.5096 94.6968 95.9129 92.6386C98.3162 90.5805 100.055 87.8559 100.91 84.8095C101.765 81.763 101.697 78.5315 100.716 75.5235C99.6666 72.3186 97.6334 69.5263 94.9055 67.5438C92.1775 65.5614 88.8938 64.4899 85.5216 64.4819V64.4845Z" fill="#323544"/>
<path d="M83.5762 71.3225C84.6084 72.8602 87.7181 83.4968 87.7181 83.4968C87.7181 83.4968 79.0373 76.6051 78.0025 75.0648C77.7568 74.6988 77.5856 74.288 77.4986 73.8559C77.4116 73.4237 77.4106 72.9787 77.4957 72.5462C77.5807 72.1136 77.7501 71.7021 77.9942 71.335C78.2383 70.9679 78.5522 70.6525 78.9182 70.4068C79.2842 70.1611 79.695 69.9899 80.1271 69.9029C80.5593 69.8159 81.0043 69.8149 81.4369 69.9C81.8694 69.985 82.281 70.1544 82.648 70.3985C83.0151 70.6426 83.3305 70.9565 83.5762 71.3225Z" fill="#CB730B"/>
<path d="M87.7184 84.4287C87.509 84.4282 87.3058 84.3573 87.1415 84.2275C86.2416 83.5103 78.3177 77.1955 77.2353 75.5837C76.911 75.1173 76.6828 74.5909 76.564 74.0354C76.4451 73.4798 76.438 72.9062 76.5431 72.3479C76.6481 71.7895 76.8632 71.2577 77.1758 70.7833C77.4884 70.309 77.8923 69.9015 78.3639 69.5848C78.8355 69.268 79.3654 69.0483 79.9228 68.9384C80.4802 68.8284 81.0539 68.8305 81.6104 68.9445C82.167 69.0584 82.6953 69.282 83.1646 69.6022C83.634 69.9223 84.0349 70.3327 84.344 70.8093C85.4265 72.4211 88.2848 82.1446 88.6077 83.2483C88.6621 83.4373 88.6554 83.6387 88.5883 83.8237C88.5213 84.0086 88.3974 84.1676 88.2345 84.2778C88.0814 84.3784 87.9016 84.431 87.7184 84.4287ZM80.787 70.7643C80.305 70.763 79.8337 70.9069 79.4346 71.1772C79.1697 71.3551 78.9425 71.5835 78.766 71.8492C78.5894 72.115 78.4669 72.4129 78.4054 72.726C78.344 73.0391 78.3448 73.3612 78.4079 73.674C78.4709 73.9868 78.595 74.2841 78.7729 74.5489C79.3208 75.3667 82.8725 78.3812 85.9743 80.9007C84.8045 77.0738 83.3542 72.646 82.7984 71.8309C82.5759 71.5022 82.2762 71.233 81.9255 71.0471C81.5749 70.8611 81.1839 70.764 80.787 70.7643Z" fill="#CB730B"/>
<path d="M91.3334 90.8616C92.5641 90.8616 93.5618 89.8639 93.5618 88.6332C93.5618 87.4025 92.5641 86.4048 91.3334 86.4048C90.1027 86.4048 89.105 87.4025 89.105 88.6332C89.105 89.8639 90.1027 90.8616 91.3334 90.8616Z" fill="#323544"/>
<path d="M91.3283 91.789C90.7268 91.7883 90.138 91.6156 89.6314 91.2914C89.1248 90.9671 88.7214 90.5048 88.4688 89.9589C88.2163 89.413 88.125 88.8062 88.2059 88.2102C88.2867 87.6142 88.5363 87.0536 88.9252 86.5947C89.314 86.1358 89.826 85.7977 90.4007 85.6201C90.9753 85.4425 91.5888 85.4329 92.1688 85.5925C92.7487 85.7521 93.271 86.0741 93.674 86.5206C94.077 86.9672 94.3439 87.5196 94.4433 88.1129C94.5812 88.9379 94.3861 89.7839 93.9008 90.4651C93.4155 91.1464 92.6797 91.6073 91.855 91.7466C91.6809 91.7751 91.5047 91.7892 91.3283 91.789ZM91.3283 87.3348C91.2564 87.3343 91.1847 87.3405 91.1139 87.3533C90.9449 87.3805 90.7831 87.4414 90.6381 87.5323C90.4931 87.6232 90.3678 87.7423 90.2697 87.8826C90.1701 88.0217 90.0991 88.1791 90.0605 88.3457C90.0219 88.5123 90.0166 88.6849 90.0449 88.8536C90.0732 89.0222 90.1345 89.1837 90.2253 89.3286C90.3161 89.4735 90.4346 89.5991 90.574 89.6982C90.7837 89.8469 91.0328 89.9303 91.2899 89.9377C91.5469 89.9451 91.8004 89.8763 92.0183 89.7398C92.2363 89.6034 92.4089 89.4055 92.5146 89.1711C92.6202 88.9366 92.6541 88.6762 92.6119 88.4225C92.5613 88.1195 92.4053 87.8442 92.1714 87.6452C91.9375 87.4461 91.6407 87.3362 91.3336 87.3348H91.3283Z" fill="#CB730B"/>
<path d="M104.303 94.9856L102.788 96.5842C101.931 97.4894 101.97 98.9182 102.875 99.7757L121.07 117.012C121.975 117.87 123.404 117.831 124.262 116.926L125.776 115.327C126.633 114.422 126.595 112.993 125.689 112.136L107.494 94.8993C106.589 94.0418 105.16 94.0805 104.303 94.9856Z" fill="#323544"/>
<path d="M122.619 118.544C121.805 118.544 121.021 118.231 120.43 117.67L102.235 100.449C101.931 100.162 101.686 99.8178 101.516 99.4361C101.345 99.0544 101.251 98.6427 101.24 98.2246C101.228 97.8066 101.3 97.3904 101.45 97.0001C101.6 96.6097 101.825 96.2527 102.113 95.9497L103.627 94.3618C103.914 94.0574 104.258 93.8127 104.64 93.6416C105.021 93.4706 105.433 93.3765 105.851 93.365C106.269 93.3534 106.685 93.4245 107.076 93.5743C107.466 93.724 107.823 93.9493 108.126 94.2374L126.322 111.472C126.933 112.053 127.289 112.853 127.312 113.696C127.335 114.54 127.022 115.358 126.444 115.971L124.93 117.559C124.643 117.864 124.298 118.108 123.916 118.279C123.534 118.449 123.122 118.542 122.704 118.552L122.619 118.544ZM105.946 95.1955H105.909C105.734 95.1996 105.561 95.2385 105.401 95.3098C105.241 95.3812 105.097 95.4835 104.977 95.611L103.463 97.1989C103.342 97.3253 103.247 97.4744 103.184 97.6378C103.121 97.8011 103.091 97.9753 103.095 98.1503C103.1 98.3253 103.139 98.4977 103.211 98.6574C103.283 98.8171 103.386 98.961 103.513 99.0807L121.703 116.329C121.83 116.45 121.979 116.545 122.143 116.609C122.306 116.672 122.481 116.702 122.656 116.698C122.832 116.693 123.004 116.653 123.164 116.581C123.324 116.509 123.468 116.406 123.588 116.278L125.099 114.69C125.22 114.564 125.315 114.415 125.378 114.251C125.441 114.088 125.472 113.914 125.467 113.739C125.462 113.564 125.423 113.392 125.351 113.232C125.279 113.072 125.177 112.928 125.049 112.809L106.853 95.5607C106.607 95.3262 106.28 95.1954 105.94 95.1955H105.946Z" fill="#CB730B"/>
<path d="M118.17 95.8484C115.878 93.8158 112.032 92.0823 108.907 92.5904C105.731 93.1065 103.055 95.5017 100.798 97.5898C99.3234 98.9475 97.9472 100.541 97.455 102.483C96.9627 104.426 97.5979 106.771 99.3552 107.734C100.641 108.438 102.306 108.33 103.449 109.243C104.36 109.973 104.712 111.172 105.204 112.228C105.937 113.798 107.192 115.248 108.875 115.645C109.897 115.851 110.957 115.752 111.924 115.362C114.34 114.47 116.158 112.466 117.852 110.532C119.176 109.042 120.499 107.501 121.158 105.625C122.344 102.208 120.875 98.2462 118.17 95.8484Z" fill="#006C8F"/>
<path d="M110.056 92.5108C112.93 92.5108 116.143 94.0697 118.17 95.8588C120.875 98.2566 122.344 102.211 121.161 105.635C120.512 107.512 119.168 109.052 117.855 110.542C116.151 112.477 114.343 114.48 111.927 115.372C111.271 115.624 110.576 115.759 109.873 115.769C109.538 115.77 109.204 115.732 108.878 115.655C107.195 115.258 105.94 113.803 105.207 112.239C104.715 111.18 104.363 109.984 103.452 109.253C102.309 108.34 100.644 108.459 99.3581 107.745C97.6008 106.781 96.9762 104.436 97.4578 102.494C97.9395 100.551 99.3263 98.9579 100.8 97.6002C103.058 95.52 105.736 93.1169 108.91 92.6008C109.289 92.5399 109.672 92.5098 110.056 92.5108ZM110.056 90.6582C109.572 90.6579 109.089 90.6959 108.611 90.772C104.807 91.3887 101.766 94.1914 99.546 96.2372C98.1936 97.4811 96.3198 99.4369 95.6608 102.039C95.0203 104.569 95.7799 107.898 98.4688 109.37C99.1957 109.738 99.9695 110.005 100.769 110.164C101.391 110.312 101.978 110.449 102.293 110.693C102.65 110.979 102.92 111.611 103.206 112.281C103.307 112.519 103.413 112.765 103.529 113.014C104.62 115.351 106.414 116.968 108.449 117.45C108.916 117.56 109.394 117.615 109.873 117.614C110.795 117.604 111.708 117.431 112.57 117.103C115.481 116.026 117.569 113.662 119.245 111.759C120.6 110.224 122.135 108.483 122.913 106.233C123.611 104.139 123.601 101.874 122.884 99.7863C122.21 97.7374 121.008 95.9019 119.401 94.464C117.413 92.7014 113.779 90.6582 110.056 90.6582Z" fill="#323544"/>
</svg>
