<svg width="20" height="20" viewBox="0 0 20 20" fill="none" xmlns="http://www.w3.org/2000/svg">
<path opacity="0.1" d="M18.4494 4.43588C18.1491 3.87876 17.7432 3.38778 17.2551 2.99136C16.767 2.59494 16.2065 2.30097 15.606 2.12644L12.7376 1.28049C11.7932 0.995384 10.7846 1.0201 9.85487 1.35112C8.92511 1.68215 8.12142 2.30267 7.55782 3.12466C7.42614 3.14559 7.29569 3.17383 7.16705 3.20925L4.30696 4.0552C3.09984 4.42507 2.08601 5.26667 1.48759 6.39564C0.889164 7.5246 0.75493 8.84888 1.11429 10.0784L2.66074 15.374C2.83892 15.9835 3.13344 16.5514 3.52747 17.045C3.92149 17.5387 4.40729 17.9485 4.95708 18.251C5.50688 18.5534 6.10988 18.7427 6.73161 18.8079C7.35334 18.8731 7.9816 18.8129 8.58046 18.6309L11.4406 17.7849C12.0442 17.6172 12.6093 17.3297 13.1034 16.939C14.0845 16.8793 15.0234 16.5123 15.7915 15.8883C16.5595 15.2643 17.1191 14.4139 17.3935 13.4537L18.8901 8.16651C19.0686 7.5467 19.1217 6.89647 19.0459 6.2552C18.9702 5.61393 18.7672 4.99499 18.4494 4.43588Z" fill="#99A1B7"/>
<path fill-rule="evenodd" clip-rule="evenodd" d="M17.3252 2.96753C17.8179 3.36767 18.2277 3.86326 18.5308 4.42561C18.8516 4.98997 19.0564 5.61473 19.1329 6.26201C19.2093 6.9093 19.1558 7.56565 18.9756 8.19127L17.465 13.5281C17.188 14.4974 16.6232 15.3558 15.8479 15.9856C15.0726 16.6154 14.1249 16.9859 13.1346 17.0461C12.6359 17.4405 12.0654 17.7307 11.4561 17.9L8.56917 18.7539C7.96468 18.9377 7.33052 18.9984 6.70296 18.9326C6.07539 18.8668 5.46673 18.6757 4.91177 18.3704C4.35682 18.0651 3.86646 17.6515 3.46873 17.1532C3.07101 16.6549 2.77372 16.0817 2.59386 15.4664L1.0329 10.1211C0.67016 8.88005 0.805655 7.54334 1.4097 6.40377C2.01374 5.26421 3.03708 4.4147 4.25554 4.04136L7.14248 3.18747C7.27234 3.15172 7.40401 3.12321 7.53692 3.10208C8.10581 2.27237 8.91706 1.64602 9.85555 1.31189C10.794 0.977754 11.8121 0.95281 12.7653 1.24059L15.6607 2.09449C16.2668 2.27065 16.8326 2.56739 17.3252 2.96753ZM5.51846 17.2501C6.34417 17.6998 7.31133 17.7984 8.20831 17.5243L11.0029 16.696L8.57757 15.9788C7.97032 15.8011 7.4036 15.5031 6.91 15.1017C6.41641 14.7004 6.0057 14.2037 5.7015 13.6402C5.39731 13.0768 5.20563 12.4576 5.13751 11.8185C5.06939 11.1794 5.12617 10.5329 5.30457 9.91613L6.80679 4.63054L4.61641 5.29658C4.17071 5.43154 3.75559 5.65469 3.39483 5.95324C3.03408 6.25179 2.7348 6.61986 2.51415 7.03634C2.2935 7.45282 2.15583 7.90952 2.10902 8.38026C2.06221 8.85099 2.1072 9.3265 2.24139 9.77951L3.80235 15.1249C4.0757 16.0363 4.69274 16.8004 5.51846 17.2501ZM16.2062 13.1268L17.7252 7.78994L17.6916 7.83264C17.8213 7.37793 17.8617 6.90168 17.8104 6.4311C17.7591 5.96051 17.6171 5.50483 17.3927 5.09008C17.1682 4.67534 16.8656 4.30967 16.5022 4.01398C16.1388 3.71829 15.7216 3.49836 15.2746 3.36678L12.3793 2.51289C12.0575 2.41752 11.7241 2.36865 11.389 2.36773C10.6345 2.37632 9.90234 2.62927 9.29872 3.0899C8.6951 3.55052 8.25142 4.19486 8.03207 4.92941L6.52145 10.2662C6.39175 10.7209 6.35139 11.1972 6.40268 11.6678C6.45397 12.1384 6.5959 12.594 6.82037 13.0088C7.04483 13.4235 7.34743 13.7892 7.71086 14.0849C8.07429 14.3806 8.49143 14.6005 8.93843 14.7321L11.8338 15.586C12.7364 15.8501 13.705 15.7396 14.5277 15.2786C14.9342 15.0516 15.292 14.7444 15.5802 14.3749C15.8684 14.0054 16.0812 13.5811 16.2062 13.1268ZM15.1906 8.52444C15.1526 8.66062 15.0725 8.78072 14.9622 8.86687C14.8518 8.95302 14.717 9.00063 14.5779 9.00262H14.4185L10.4741 7.97795C10.3206 7.92189 10.1936 7.80887 10.1186 7.66154C10.0436 7.51422 10.0261 7.34348 10.0697 7.18359C10.1132 7.02369 10.2146 6.88645 10.3534 6.79939C10.4922 6.71234 10.6582 6.6819 10.8182 6.71419L14.7626 7.7474C14.9191 7.79508 15.0512 7.90281 15.1311 8.04781C15.211 8.19281 15.2323 8.36373 15.1906 8.52444ZM12.7485 11.4361C12.7094 11.5716 12.629 11.691 12.5189 11.7769C12.4087 11.8629 12.2746 11.911 12.1359 11.9143H11.9764L9.64335 11.291C9.56388 11.271 9.48907 11.2353 9.42322 11.1858C9.35738 11.1363 9.3018 11.0741 9.25968 11.0026C9.21757 10.9312 9.18974 10.852 9.17781 10.7696C9.16588 10.6872 9.17008 10.6032 9.19017 10.5225C9.2317 10.3585 9.33535 10.218 9.47847 10.1315C9.62159 10.0451 9.79252 10.0199 9.95387 10.0614L12.2953 10.6847C12.4511 10.7271 12.5849 10.8287 12.6692 10.9685C12.7535 11.1083 12.7819 11.2757 12.7485 11.4361Z" fill="#99A1B7"/>
</svg>
