<svg width="20" height="20" viewBox="0 0 20 20" fill="none" xmlns="http://www.w3.org/2000/svg">
<path opacity="0.1" fill-rule="evenodd" clip-rule="evenodd" d="M14.9296 1.54505C15.3476 1.26577 15.839 1.1167 16.3417 1.1167C17.0158 1.1167 17.6622 1.38448 18.1389 1.86114C18.6156 2.33779 18.8833 2.98427 18.8833 3.65837C18.8833 4.16106 18.7343 4.65246 18.455 5.07044C18.4471 5.08226 18.4391 5.09401 18.431 5.10569C18.6185 5.66918 18.7167 6.26408 18.7167 6.8691V13.2809C18.7167 14.7623 18.1282 16.1831 17.0806 17.2306C16.0331 18.2782 14.6123 18.8667 13.1309 18.8667H6.71911C5.23767 18.8667 3.8169 18.2782 2.76937 17.2306C1.72183 16.1831 1.13333 14.7623 1.13333 13.2809V6.8691C1.13333 5.38766 1.72183 3.9669 2.76937 2.91936C3.8169 1.87182 5.23767 1.28333 6.71911 1.28333H13.1309C13.7359 1.28333 14.3309 1.38149 14.8944 1.569C14.9061 1.56093 14.9178 1.55294 14.9296 1.54505Z" fill="#99A1B7"/>
<path fill-rule="evenodd" clip-rule="evenodd" d="M17.0876 2.55521C16.8746 2.41289 16.6242 2.33693 16.368 2.33693C16.0245 2.33693 15.6951 2.47338 15.4522 2.71628C15.2093 2.95917 15.0728 3.28861 15.0728 3.63211C15.0728 3.88827 15.1488 4.13868 15.2911 4.35167C15.4334 4.56466 15.6357 4.73067 15.8724 4.8287C16.109 4.92673 16.3695 4.95238 16.6207 4.9024C16.8719 4.85243 17.1027 4.72908 17.2839 4.54794C17.465 4.36681 17.5883 4.13603 17.6383 3.88479C17.6883 3.63355 17.6626 3.37313 17.5646 3.13647C17.4666 2.8998 17.3006 2.69752 17.0876 2.55521ZM14.9289 1.4783C15.3549 1.19367 15.8557 1.04175 16.368 1.04175C17.055 1.04175 17.7139 1.31466 18.1997 1.80045C18.6855 2.28623 18.9584 2.9451 18.9584 3.63211C18.9584 4.14443 18.8065 4.64525 18.5218 5.07124C18.2372 5.49722 17.8326 5.82923 17.3593 6.02529C16.886 6.22135 16.3651 6.27265 15.8627 6.1727C15.3602 6.07275 14.8986 5.82604 14.5364 5.46377C14.1741 5.1015 13.9274 4.63994 13.8274 4.13746C13.7275 3.63498 13.7788 3.11415 13.9748 2.64082C14.1709 2.16749 14.5029 1.76294 14.9289 1.4783ZM6.00652 18.9586H13.7776C15.0909 18.9473 16.3472 18.4206 17.2758 17.492C18.2045 16.5633 18.7312 15.307 18.7425 13.9938V8.81303C18.7425 8.64128 18.6742 8.47657 18.5528 8.35512C18.4313 8.23367 18.2666 8.16544 18.0949 8.16544C17.9231 8.16544 17.7584 8.23367 17.637 8.35512C17.5155 8.47657 17.4473 8.64128 17.4473 8.81303V13.9938C17.4361 14.9635 17.0458 15.8904 16.3601 16.5762C15.6743 17.262 14.7474 17.6522 13.7776 17.6634H6.00652C5.03674 17.6522 4.10984 17.262 3.42406 16.5762C2.73828 15.8904 2.34805 14.9635 2.33684 13.9938V6.22267C2.34805 5.25289 2.73828 4.326 3.42406 3.64021C4.10984 2.95443 5.03674 2.56421 6.00652 2.55299H11.524C11.6957 2.55299 11.8605 2.48477 11.9819 2.36332C12.1033 2.24187 12.1716 2.07715 12.1716 1.9054C12.1716 1.73365 12.1033 1.56893 11.9819 1.44749C11.8605 1.32604 11.6957 1.25781 11.524 1.25781H6.00652C4.69324 1.26909 3.43695 1.79579 2.50829 2.72445C1.57963 3.65311 1.05293 4.9094 1.04166 6.22267V13.9938C1.05293 15.307 1.57963 16.5633 2.50829 17.492C3.43695 18.4206 4.69324 18.9473 6.00652 18.9586ZM9.89208 11.4031H5.84249C5.67073 11.4031 5.50602 11.3349 5.38457 11.2134C5.26312 11.092 5.1949 10.9273 5.1949 10.7555C5.1949 10.5837 5.26312 10.419 5.38457 10.2976C5.50602 10.1761 5.67073 10.1079 5.84249 10.1079H9.89208C10.0638 10.1079 10.2286 10.1761 10.35 10.2976C10.4714 10.419 10.5397 10.5837 10.5397 10.7555C10.5397 10.9273 10.4714 11.092 10.35 11.2134C10.2286 11.3349 10.0638 11.4031 9.89208 11.4031ZM5.84249 14.8569H13.3459C13.5177 14.8569 13.6824 14.7886 13.8038 14.6672C13.9253 14.5457 13.9935 14.381 13.9935 14.2093C13.9935 14.0375 13.9253 13.8728 13.8038 13.7514C13.6824 13.6299 13.5177 13.5617 13.3459 13.5617H5.84249C5.67073 13.5617 5.50602 13.6299 5.38457 13.7514C5.26312 13.8728 5.1949 14.0375 5.1949 14.2093C5.1949 14.381 5.26312 14.5457 5.38457 14.6672C5.50602 14.7886 5.67073 14.8569 5.84249 14.8569Z" fill="#99A1B7"/>
</svg>
