<svg width="18" height="18" viewBox="0 0 18 18" fill="none" xmlns="http://www.w3.org/2000/svg">
<g clip-path="url(#clip0_27158_192101)">
<path d="M5.51762 13.7362C5.04945 13.7362 4.66772 14.1008 4.66772 14.5531C4.66772 14.8606 4.84492 15.1241 5.10857 15.2647L8.39439 17.0257C8.65503 17.1726 8.9492 17.2497 9.24841 17.2496C9.44847 17.2496 9.63941 17.2145 9.81661 17.153L10.9391 16.8412V13.7319C10.9437 13.7362 5.52209 13.7362 5.51762 13.7362Z" fill="url(#paint0_linear_27158_192101)"/>
<path d="M5.51762 13.7362C5.04945 13.7362 4.66772 14.1008 4.66772 14.5531C4.66772 14.8606 4.84492 15.1241 5.10857 15.2647L8.39439 17.0257C8.65503 17.1726 8.9492 17.2497 9.24841 17.2496C9.44847 17.2496 9.63941 17.2145 9.81661 17.153L10.9391 16.8412V13.7319C10.9437 13.7362 5.52209 13.7362 5.51762 13.7362Z" fill="url(#paint1_linear_27158_192101)"/>
<path d="M9.74446 0.816328C9.58926 0.772013 9.42858 0.749852 9.26718 0.750502C8.99906 0.750502 8.73094 0.803266 8.48998 0.926154C8.44014 0.948153 3.1455 3.82457 3.1455 3.82457C3.0728 3.85981 3.00457 3.90363 2.94098 3.94763C2.93204 3.95193 2.9274 3.9564 2.91829 3.96087C2.87739 3.99146 2.84095 4.02222 2.80022 4.05299C2.782 4.06622 2.76378 4.08392 2.7502 4.09699C2.72752 4.11881 2.70466 4.14081 2.68661 4.16281C2.62302 4.22864 2.51388 4.36906 2.51388 4.36906C2.32664 4.63525 2.2266 4.95297 2.22755 5.27842V12.9198C2.22755 13.3723 2.60927 13.7368 3.07744 13.7368C3.19552 13.7368 3.30466 13.7148 3.40468 13.6708L4.918 12.8496C5.19059 12.718 5.40886 12.4939 5.52247 12.2172C5.54962 12.1601 5.57231 12.09 5.58606 12.0195C5.59053 12.002 5.59517 11.98 5.59517 11.9625C5.59517 11.9539 5.59964 11.9406 5.59964 11.9319C5.60428 11.9009 5.60875 11.8659 5.60875 11.8353C5.60875 11.8088 5.61339 11.7868 5.61339 11.7605V7.69371V6.42445C5.61339 6.06868 5.77237 5.74814 6.02244 5.5242C6.14051 5.41884 6.29503 5.32655 6.47686 5.26519C6.65853 5.19919 10.9579 3.69739 10.9579 3.69739V1.16333L9.74446 0.816328Z" fill="url(#paint2_linear_27158_192101)"/>
<path d="M9.74446 0.816328C9.58926 0.772013 9.42858 0.749852 9.26718 0.750502C8.99906 0.750502 8.73094 0.803266 8.48998 0.926154C8.44014 0.948153 3.1455 3.82457 3.1455 3.82457C3.0728 3.85981 3.00457 3.90363 2.94098 3.94763C2.93204 3.95193 2.9274 3.9564 2.91829 3.96087C2.87739 3.99146 2.84095 4.02222 2.80022 4.05299C2.782 4.06622 2.76378 4.08392 2.7502 4.09699C2.72752 4.11881 2.70466 4.14081 2.68661 4.16281C2.62302 4.22864 2.51388 4.36906 2.51388 4.36906C2.32664 4.63525 2.2266 4.95297 2.22755 5.27842V12.9198C2.22755 13.3723 2.60927 13.7368 3.07744 13.7368C3.19552 13.7368 3.30466 13.7148 3.40468 13.6708L4.918 12.8496C5.19059 12.718 5.40886 12.4939 5.52247 12.2172C5.54962 12.1601 5.57231 12.09 5.58606 12.0195C5.59053 12.002 5.59517 11.98 5.59517 11.9625C5.59517 11.9539 5.59964 11.9406 5.59964 11.9319C5.60428 11.9009 5.60875 11.8659 5.60875 11.8353C5.60875 11.8088 5.61339 11.7868 5.61339 11.7605V7.69371V6.42445C5.61339 6.06868 5.77237 5.74814 6.02244 5.5242C6.14051 5.41884 6.29503 5.32655 6.47686 5.26519C6.65853 5.19919 10.9579 3.69739 10.9579 3.69739V1.16333L9.74446 0.816328Z" fill="url(#paint3_linear_27158_192101)"/>
<path d="M14.5847 2.18538L9.81738 0.837402C10.5081 1.09658 10.9397 1.6806 10.9397 2.39214C10.9397 2.39214 10.9354 15.3168 10.9397 15.6286C10.9443 16.3312 10.4808 16.9329 9.81738 17.1568C9.96279 17.1173 14.5847 15.8305 14.5847 15.8305C15.2708 15.6198 15.7663 15.0048 15.7663 14.2716V3.74424C15.7708 3.01551 15.2708 2.39609 14.5847 2.18538Z" fill="url(#paint4_linear_27158_192101)"/>
</g>
<defs>
<linearGradient id="paint0_linear_27158_192101" x1="5.13934" y1="15.0772" x2="16.9518" y2="16.1467" gradientUnits="userSpaceOnUse">
<stop stop-color="#F32B44"/>
<stop offset="0.6" stop-color="#A4070A"/>
</linearGradient>
<linearGradient id="paint1_linear_27158_192101" x1="13.1438" y1="15.754" x2="7.89974" y2="15.2791" gradientUnits="userSpaceOnUse">
<stop stop-opacity="0.4"/>
<stop offset="1" stop-opacity="0"/>
</linearGradient>
<linearGradient id="paint2_linear_27158_192101" x1="9.91668" y1="0.181268" x2="1.21334" y2="13.0439" gradientUnits="userSpaceOnUse">
<stop stop-color="#800600"/>
<stop offset="0.6" stop-color="#C72127"/>
<stop offset="0.728" stop-color="#C13959"/>
<stop offset="0.847" stop-color="#BC4B81"/>
<stop offset="0.942" stop-color="#B95799"/>
<stop offset="1" stop-color="#B85BA2"/>
</linearGradient>
<linearGradient id="paint3_linear_27158_192101" x1="10.1032" y1="-0.0761937" x2="8.26002" y2="2.64778" gradientUnits="userSpaceOnUse">
<stop stop-opacity="0.4"/>
<stop offset="1" stop-opacity="0"/>
</linearGradient>
<linearGradient id="paint4_linear_27158_192101" x1="12.7952" y1="-0.0896654" x2="12.7952" y2="16.0091" gradientUnits="userSpaceOnUse">
<stop stop-color="#FFB900"/>
<stop offset="0.166" stop-color="#EF8400"/>
<stop offset="0.313" stop-color="#E25C01"/>
<stop offset="0.429" stop-color="#DB4401"/>
<stop offset="0.5" stop-color="#D83B01"/>
</linearGradient>
<clipPath id="clip0_27158_192101">
<rect width="13.5432" height="16.5" fill="white" transform="translate(2.22754 0.75)"/>
</clipPath>
</defs>
</svg>
