<svg width="200" height="200" viewBox="0 0 200 200" fill="none" xmlns="http://www.w3.org/2000/svg">
<rect width="200" height="200" fill="white"/>
<path d="M93.4727 147.982C94.9676 143.335 78.3784 133.841 56.4195 126.778C34.4607 119.716 15.4477 117.758 13.9528 122.405C12.4579 127.053 29.0472 136.546 51.006 143.609C72.9648 150.672 91.9778 152.63 93.4727 147.982Z" fill="#F0F0F0"/>
<path d="M9.37767 121.434C9.30494 121.434 9.23263 121.423 9.16367 121.4C9.07609 121.372 8.9949 121.327 8.92474 121.268C8.85458 121.208 8.79685 121.136 8.75485 121.054C8.71285 120.972 8.68742 120.883 8.68001 120.791C8.6726 120.699 8.68336 120.607 8.71167 120.52C9.72567 117.362 14.1997 115.6 21.6397 115.432C21.7316 115.43 21.823 115.446 21.9088 115.479C21.9945 115.512 22.0728 115.562 22.1393 115.626C22.2058 115.689 22.2591 115.765 22.2963 115.849C22.3334 115.933 22.3536 116.024 22.3557 116.116C22.3578 116.208 22.3417 116.299 22.3085 116.385C22.2753 116.471 22.2255 116.549 22.162 116.615C22.0984 116.682 22.0225 116.735 21.9383 116.772C21.8542 116.81 21.7636 116.83 21.6717 116.832C14.9777 116.984 10.8477 118.448 10.0437 120.948C9.99865 121.089 9.90983 121.212 9.79009 121.3C9.67035 121.387 9.5259 121.434 9.37767 121.434Z" fill="#F0F0F0"/>
<path d="M23.2617 136.838C23.1192 136.839 22.9797 136.797 22.8617 136.718L20.2757 134.958C20.1299 134.85 20.0315 134.69 20.0011 134.512C19.9708 134.333 20.0108 134.15 20.1128 134C20.2148 133.85 20.3709 133.746 20.5482 133.709C20.7255 133.672 20.9103 133.705 21.0637 133.802L23.6497 135.56C23.7735 135.644 23.8669 135.766 23.9161 135.908C23.9653 136.05 23.9677 136.204 23.9229 136.347C23.8781 136.49 23.7885 136.615 23.6673 136.703C23.5461 136.792 23.3997 136.839 23.2497 136.838H23.2617Z" fill="#F0F0F0"/>
<path d="M17.4139 132.882C17.2699 132.879 17.1302 132.832 17.0139 132.748C10.5279 128.046 7.65987 123.816 8.72187 120.52C8.74737 120.429 8.79086 120.344 8.84974 120.271C8.90862 120.198 8.98168 120.137 9.06457 120.093C9.14745 120.048 9.23844 120.021 9.33212 120.012C9.4258 120.004 9.52024 120.014 9.6098 120.043C9.69936 120.072 9.7822 120.118 9.85337 120.18C9.92454 120.241 9.98259 120.316 10.024 120.401C10.0655 120.485 10.0895 120.577 10.0946 120.671C10.0997 120.765 10.0859 120.859 10.0539 120.948C9.22187 123.548 12.0539 127.426 17.8359 131.616C17.9554 131.702 18.0443 131.825 18.0899 131.966C18.1354 132.106 18.1354 132.258 18.0896 132.398C18.0439 132.539 17.9549 132.661 17.8353 132.748C17.7157 132.835 17.5717 132.882 17.4239 132.882H17.4139Z" fill="#F0F0F0"/>
<path d="M81.0757 154.826H81.0237C72.1197 154.174 61.1677 151.868 50.1857 148.336C50.0981 148.308 50.0169 148.263 49.9467 148.203C49.8766 148.144 49.8188 148.071 49.7767 147.989C49.7347 147.907 49.7091 147.818 49.7016 147.726C49.694 147.635 49.7046 147.542 49.7327 147.455C49.7608 147.367 49.8059 147.286 49.8654 147.216C49.9249 147.146 49.9976 147.088 50.0794 147.046C50.1612 147.004 50.2505 146.978 50.3422 146.971C50.4338 146.963 50.5261 146.974 50.6137 147.002C61.4937 150.502 72.3297 152.786 81.1257 153.43C81.2176 153.433 81.308 153.454 81.3917 153.493C81.4754 153.531 81.5507 153.585 81.6134 153.652C81.676 153.72 81.7248 153.799 81.757 153.885C81.7891 153.971 81.804 154.063 81.8007 154.155C81.7974 154.247 81.7761 154.337 81.7379 154.421C81.6996 154.504 81.6453 154.58 81.578 154.642C81.5107 154.705 81.4317 154.754 81.3455 154.786C81.2593 154.818 81.1676 154.833 81.0757 154.83V154.826Z" fill="#F0F0F0"/>
<path d="M85.9517 155.016H85.1657C84.98 155.013 84.8029 154.937 84.6733 154.804C84.5437 154.671 84.4723 154.492 84.4747 154.307C84.4771 154.121 84.5531 153.944 84.6861 153.814C84.819 153.685 84.998 153.613 85.1837 153.616C86.7577 153.638 88.2357 153.594 89.5837 153.486C89.7693 153.471 89.9534 153.53 90.0953 153.65C90.2373 153.771 90.3255 153.943 90.3407 154.129C90.3558 154.314 90.2965 154.498 90.1759 154.64C90.0554 154.782 89.8833 154.871 89.6977 154.886C88.5317 154.968 87.2777 155.016 85.9517 155.016Z" fill="#F0F0F0"/>
<path d="M158.161 150.574C179.118 141.308 194.518 130.201 192.557 125.765C190.596 121.329 172.016 125.244 151.059 134.509C130.101 143.775 114.702 154.882 116.663 159.318C118.624 163.754 137.203 159.839 158.161 150.574Z" fill="#F0F0F0"/>
<path d="M120.428 165.1H120.4C115.848 164.9 113.034 163.65 112.036 161.392C110.424 157.748 114.088 152.206 122.352 145.792C122.499 145.678 122.685 145.626 122.869 145.649C123.053 145.673 123.221 145.768 123.335 145.915C123.449 146.061 123.5 146.247 123.477 146.432C123.454 146.616 123.359 146.784 123.212 146.898C115.728 152.712 112.03 157.922 113.316 160.834C114.072 162.542 116.542 163.534 120.462 163.708C120.648 163.712 120.824 163.789 120.952 163.923C121.081 164.057 121.151 164.237 121.147 164.423C121.143 164.608 121.065 164.785 120.931 164.913C120.797 165.042 120.618 165.112 120.432 165.108L120.428 165.1Z" fill="#F0F0F0"/>
<path d="M126.924 144.016C126.774 144.016 126.629 143.969 126.508 143.881C126.388 143.792 126.298 143.668 126.254 143.525C126.209 143.383 126.211 143.229 126.26 143.088C126.308 142.947 126.401 142.825 126.524 142.74C128.51 141.376 130.664 140 132.924 138.65C133.082 138.568 133.266 138.55 133.437 138.599C133.609 138.648 133.755 138.76 133.846 138.913C133.938 139.066 133.967 139.248 133.929 139.422C133.89 139.596 133.787 139.749 133.64 139.85C131.4 141.184 129.27 142.542 127.31 143.89C127.196 143.969 127.062 144.012 126.924 144.016Z" fill="#F0F0F0"/>
<path d="M141.07 161.753C140.901 161.754 140.737 161.694 140.609 161.584C140.481 161.474 140.397 161.322 140.373 161.154C140.349 160.987 140.386 160.817 140.477 160.675C140.568 160.533 140.708 160.429 140.87 160.381C147.412 158.455 153.818 156.096 160.046 153.317C166.266 150.591 172.299 147.455 178.104 143.929C178.183 143.882 178.27 143.85 178.361 143.835C178.452 143.821 178.545 143.825 178.635 143.847C178.725 143.869 178.809 143.908 178.883 143.963C178.958 144.017 179.021 144.086 179.069 144.164C179.117 144.243 179.149 144.331 179.163 144.422C179.177 144.513 179.173 144.606 179.151 144.696C179.129 144.785 179.09 144.87 179.036 144.944C178.981 145.019 178.913 145.082 178.834 145.129C172.977 148.685 166.891 151.849 160.616 154.599C154.331 157.402 147.867 159.782 141.266 161.725C141.202 161.744 141.136 161.754 141.07 161.753Z" fill="#F0F0F0"/>
<path d="M174.3 115.089C176.596 115.089 178.458 113.228 178.458 110.931C178.458 108.635 176.596 106.773 174.3 106.773C172.004 106.773 170.142 108.635 170.142 110.931C170.142 113.228 172.004 115.089 174.3 115.089Z" fill="#F0F0F0"/>
<path d="M39.2297 153.738C40.131 153.738 40.8617 153.007 40.8617 152.106C40.8617 151.204 40.131 150.474 39.2297 150.474C38.3283 150.474 37.5977 151.204 37.5977 152.106C37.5977 153.007 38.3283 153.738 39.2297 153.738Z" fill="#F0F0F0"/>
<path d="M186.272 120.404C187.273 120.404 188.084 119.593 188.084 118.592C188.084 117.591 187.273 116.78 186.272 116.78C185.271 116.78 184.46 117.591 184.46 118.592C184.46 119.593 185.271 120.404 186.272 120.404Z" fill="#F0F0F0"/>
<path d="M19.1817 105.018C20.5977 105.018 21.7457 103.87 21.7457 102.454C21.7457 101.038 20.5977 99.8896 19.1817 99.8896C17.7656 99.8896 16.6177 101.038 16.6177 102.454C16.6177 103.87 17.7656 105.018 19.1817 105.018Z" fill="#F0F0F0"/>
<path d="M181.158 143.535C181.006 143.536 180.859 143.487 180.738 143.397C180.616 143.307 180.527 143.18 180.484 143.034C180.441 142.889 180.447 142.734 180.499 142.592C180.552 142.451 180.649 142.33 180.776 142.247C182.342 141.229 183.84 140.199 185.228 139.185C185.378 139.076 185.565 139.03 185.749 139.059C185.933 139.088 186.097 139.188 186.207 139.338C186.316 139.489 186.362 139.676 186.333 139.86C186.304 140.043 186.204 140.208 186.054 140.317C184.654 141.345 183.126 142.389 181.538 143.421C181.425 143.495 181.293 143.535 181.158 143.535Z" fill="#F0F0F0"/>
<path d="M62.4258 119.41C62.4258 121.435 63.2303 123.378 64.6623 124.81C66.0943 126.242 68.0366 127.046 70.0618 127.046H152C154.025 127.046 155.967 126.242 157.399 124.81C158.831 123.378 159.636 121.435 159.636 119.41V65.0381H62.4358L62.4258 119.41Z" fill="white"/>
<path d="M89.636 127.046H152C154.025 127.046 155.967 126.242 157.399 124.81C158.832 123.378 159.636 121.435 159.636 119.41V65.0381H62.436V119.41C62.436 121.435 63.2405 123.378 64.6726 124.81C66.1046 126.242 68.0468 127.046 70.072 127.046" fill="white"/>
<path d="M152 127.748H89.6358C89.4502 127.748 89.2721 127.674 89.1409 127.543C89.0096 127.412 88.9358 127.234 88.9358 127.048C88.9358 126.862 89.0096 126.684 89.1409 126.553C89.2721 126.422 89.4502 126.348 89.6358 126.348H152C153.839 126.346 155.602 125.614 156.903 124.313C158.203 123.013 158.934 121.249 158.936 119.41V65.7379H63.1358V119.41C63.1374 121.249 63.8686 123.013 65.169 124.313C66.4693 125.614 68.2326 126.346 70.0718 126.348C70.2575 126.348 70.4355 126.422 70.5668 126.553C70.6981 126.684 70.7718 126.862 70.7718 127.048C70.7718 127.234 70.6981 127.412 70.5668 127.543C70.4355 127.674 70.2575 127.748 70.0718 127.748C67.8615 127.745 65.7424 126.866 64.1796 125.303C62.6168 123.74 61.738 121.62 61.7358 119.41V65.0379C61.7358 64.8522 61.8096 64.6742 61.9409 64.5429C62.0721 64.4116 62.2502 64.3379 62.4358 64.3379H159.636C159.821 64.3379 160 64.4116 160.131 64.5429C160.262 64.6742 160.336 64.8522 160.336 65.0379V119.41C160.334 121.62 159.455 123.74 157.892 125.303C156.329 126.866 154.21 127.745 152 127.748Z" fill="#4C3133"/>
<path d="M85.0959 127.748L80.5599 127.696C80.3742 127.696 80.1962 127.622 80.0649 127.491C79.9336 127.36 79.8599 127.182 79.8599 126.996C79.8599 126.81 79.9336 126.632 80.0649 126.501C80.1962 126.37 80.3742 126.296 80.5599 126.296L85.0959 126.348C85.2815 126.348 85.4596 126.422 85.5908 126.553C85.7221 126.684 85.7959 126.862 85.7959 127.048C85.7959 127.234 85.7221 127.412 85.5908 127.543C85.4596 127.674 85.2815 127.748 85.0959 127.748Z" fill="#4C3133"/>
<path d="M152 55.0142H70.0618C68.0366 55.0142 66.0943 55.8187 64.6623 57.2507C63.2303 58.6827 62.4258 60.625 62.4258 62.6502V65.0382H159.626V62.6502C159.626 60.6267 158.823 58.686 157.393 57.2542C155.963 55.8225 154.023 55.0168 152 55.0142Z" fill="white"/>
<path d="M159.634 65.738H62.4339C62.2482 65.738 62.0702 65.6642 61.9389 65.5329C61.8076 65.4017 61.7339 65.2236 61.7339 65.038V62.65C61.7365 60.4399 62.6156 58.3212 64.1784 56.7584C65.7411 55.1957 67.8599 54.3166 70.0699 54.314H152C154.21 54.3166 156.329 55.1957 157.891 56.7584C159.454 58.3212 160.333 60.4399 160.336 62.65V65.038C160.336 65.1301 160.318 65.2214 160.283 65.3066C160.248 65.3918 160.196 65.4692 160.131 65.5342C160.065 65.5993 159.988 65.6508 159.903 65.6858C159.817 65.7208 159.726 65.7385 159.634 65.738ZM63.1259 64.338H158.926V62.65C158.924 60.8128 158.194 59.0513 156.896 57.7513C155.597 56.4513 153.837 55.7187 152 55.714H70.0619C68.223 55.7161 66.46 56.4475 65.1597 57.7478C63.8594 59.0481 63.128 60.8111 63.1259 62.65V64.338Z" fill="#4C3133"/>
<path d="M140.052 62.7081H136.324C136.138 62.7081 135.96 62.6344 135.829 62.5031C135.698 62.3718 135.624 62.1938 135.624 62.0081C135.624 61.8225 135.698 61.6444 135.829 61.5131C135.96 61.3819 136.138 61.3081 136.324 61.3081H140.052C140.238 61.3081 140.416 61.3819 140.547 61.5131C140.678 61.6444 140.752 61.8225 140.752 62.0081C140.752 62.1938 140.678 62.3718 140.547 62.5031C140.416 62.6344 140.238 62.7081 140.052 62.7081Z" fill="#4C3133"/>
<path d="M147.046 58.2783H143.316V62.0083H147.046V58.2783Z" fill="#FFD900"/>
<path d="M147.046 62.7081H143.316C143.13 62.7081 142.952 62.6344 142.821 62.5031C142.689 62.3718 142.616 62.1938 142.616 62.0081V58.2781C142.616 58.0925 142.689 57.9144 142.821 57.7831C142.952 57.6519 143.13 57.5781 143.316 57.5781H147.046C147.231 57.5781 147.409 57.6519 147.541 57.7831C147.672 57.9144 147.746 58.0925 147.746 58.2781V62.0001C147.747 62.0927 147.729 62.1846 147.695 62.2705C147.66 62.3563 147.609 62.4344 147.544 62.5003C147.478 62.5661 147.401 62.6184 147.315 62.6541C147.23 62.6898 147.138 62.7081 147.046 62.7081ZM144.016 61.3081H146.346V58.9781H144.016V61.3081Z" fill="#4C3133"/>
<path d="M154.272 62.7081C154.18 62.7091 154.09 62.6919 154.005 62.6576C153.92 62.6233 153.843 62.5725 153.778 62.5081L150.048 58.7801C149.917 58.6475 149.843 58.4682 149.844 58.2816C149.845 58.095 149.92 57.9164 150.053 57.7851C150.185 57.6538 150.365 57.5806 150.551 57.5816C150.738 57.5825 150.917 57.6575 151.048 57.7901L154.778 61.5181C154.877 61.6162 154.944 61.7414 154.971 61.8778C154.999 62.0142 154.985 62.1557 154.932 62.2843C154.879 62.4129 154.788 62.5228 154.673 62.6C154.557 62.6773 154.421 62.7184 154.282 62.7181L154.272 62.7081Z" fill="#4C3133"/>
<path d="M150.542 62.7081C150.45 62.7091 150.359 62.6919 150.275 62.6576C150.19 62.6233 150.113 62.5725 150.048 62.5081C149.982 62.4433 149.931 62.3661 149.895 62.2812C149.86 62.1962 149.842 62.1051 149.842 62.0131C149.842 61.9211 149.86 61.83 149.895 61.7451C149.931 61.6601 149.982 61.583 150.048 61.5181L153.778 57.7901C153.843 57.7245 153.92 57.6723 154.005 57.6365C154.09 57.6007 154.182 57.582 154.274 57.5816C154.367 57.5811 154.458 57.5988 154.544 57.6338C154.629 57.6687 154.707 57.7201 154.773 57.7851C154.838 57.8501 154.891 57.9274 154.926 58.0126C154.962 58.0978 154.981 58.1892 154.981 58.2816C154.982 58.374 154.964 58.4656 154.929 58.5511C154.894 58.6366 154.843 58.7145 154.778 58.7801L151.048 62.5081C150.981 62.5738 150.902 62.6254 150.815 62.6598C150.728 62.6941 150.635 62.7106 150.542 62.7081Z" fill="#4C3133"/>
<path d="M85.366 73.896H72.82C70.813 73.896 69.186 75.523 69.186 77.53V90.076C69.186 92.083 70.813 93.71 72.82 93.71H85.366C87.373 93.71 89 92.083 89 90.076V77.53C89 75.523 87.373 73.896 85.366 73.896Z" fill="#F0F0F0"/>
<path d="M152.744 115.74H116.638C114.957 115.74 113.594 117.103 113.594 118.784V119.224C113.594 120.905 114.957 122.268 116.638 122.268H152.744C154.425 122.268 155.788 120.905 155.788 119.224V118.784C155.788 117.103 154.425 115.74 152.744 115.74Z" fill="#F0F0F0"/>
<path d="M152.744 104.318H116.638C114.957 104.318 113.594 105.681 113.594 107.362V107.802C113.594 109.483 114.957 110.846 116.638 110.846H152.744C154.425 110.846 155.788 109.483 155.788 107.802V107.362C155.788 105.681 154.425 104.318 152.744 104.318Z" fill="#F0F0F0"/>
<path d="M152.744 92.896H116.638C114.957 92.896 113.594 94.2588 113.594 95.94V96.38C113.594 98.0611 114.957 99.424 116.638 99.424H152.744C154.425 99.424 155.788 98.0611 155.788 96.38V95.94C155.788 94.2588 154.425 92.896 152.744 92.896Z" fill="#F0F0F0"/>
<path d="M49.4557 42.8399C49.4557 42.8399 47.3997 39.0139 51.1997 35.9479C54.9997 32.8819 61.0297 34.9859 61.0297 34.9859C61.0297 34.9859 61.4657 39.7299 58.3577 40.6379C58.3577 40.6379 57.6417 39.1379 56.2737 40.0219C54.9057 40.9059 56.7777 41.7819 56.7777 41.7819C56.7777 41.7819 54.2717 45.1199 49.4557 42.8399Z" fill="#E2E2E0"/>
<path d="M52.6619 44.3318C51.4442 44.3108 50.2468 44.0169 49.1579 43.4718C49.022 43.4081 48.9104 43.3022 48.8399 43.1698C48.8159 43.1258 46.5659 38.7938 50.7639 35.4038C54.8139 32.1298 61.0039 34.2338 61.2659 34.3238C61.3926 34.369 61.5039 34.4494 61.5864 34.5557C61.669 34.662 61.7195 34.7897 61.7319 34.9238C61.7519 35.1398 62.1779 40.2558 58.5579 41.3118C58.3984 41.3584 58.2275 41.3468 58.0758 41.279C57.9241 41.2112 57.8015 41.0917 57.7299 40.9418C57.6218 40.7262 57.4412 40.5555 57.2199 40.4598C57.1208 40.4453 57.0198 40.4513 56.9231 40.4775C56.8264 40.5036 56.7362 40.5493 56.6579 40.6118C56.6027 40.6466 56.5512 40.6868 56.5039 40.7318C56.6681 40.905 56.8626 41.0467 57.0779 41.1498C57.1719 41.1941 57.2549 41.2587 57.3209 41.3391C57.387 41.4194 57.4343 41.5134 57.4596 41.6142C57.4848 41.7151 57.4874 41.8203 57.467 41.9222C57.4467 42.0242 57.4039 42.1203 57.3419 42.2038C56.7613 42.8749 56.0425 43.4126 55.2347 43.7799C54.4269 44.1472 53.5492 44.3355 52.6619 44.3318ZM49.9819 42.3098C52.9159 43.6038 54.8199 42.5958 55.6859 41.8898C55.3518 41.6182 55.1366 41.2273 55.0859 40.7998C55.0599 40.4338 55.1819 39.9018 55.9019 39.4358C56.1449 39.2597 56.4238 39.1394 56.7187 39.0834C57.0136 39.0274 57.3172 39.0371 57.6079 39.1118C58.0044 39.2317 58.3574 39.4646 58.6239 39.7818C60.2059 38.9438 60.3659 36.5318 60.3579 35.5118C58.9459 35.1238 54.5219 34.1698 51.6479 36.4918C48.7739 38.8138 49.6599 41.5458 49.9819 42.3098Z" fill="#B9B9B9"/>
<path d="M46.378 48.1057C46.2989 48.1053 46.2206 48.0918 46.146 48.0657C45.9709 48.0041 45.8275 47.8756 45.7469 47.7085C45.6663 47.5413 45.6552 47.3491 45.716 47.1737C45.836 46.8317 48.748 38.7517 56.626 36.2977C56.8011 36.2493 56.9883 36.271 57.1478 36.3581C57.3073 36.4451 57.4267 36.5908 57.4807 36.7644C57.5347 36.9379 57.5192 37.1256 57.4373 37.2878C57.3554 37.4501 57.2136 37.5741 57.042 37.6337C49.842 39.8757 47.066 47.5597 47.042 47.6337C46.9941 47.7717 46.9044 47.8913 46.7854 47.9759C46.6664 48.0605 46.524 48.1059 46.378 48.1057Z" fill="#B9B9B9"/>
<path d="M131.166 30.9294C129.248 32.5434 129.966 35.8914 131.92 37.4634C133.874 39.0354 136.532 39.3174 139.028 39.5414L142.714 39.8694C140.206 38.0814 140.42 34.2694 138.772 31.6694C137.334 29.3974 134.336 28.2414 131.744 28.9634" fill="#E2E2E0"/>
<path d="M142.716 40.5696H142.652L138.966 40.2416C136.606 40.0316 133.666 39.7696 131.48 38.0116C130.831 37.47 130.305 36.7965 129.936 36.0358C129.567 35.2752 129.364 34.4447 129.34 33.5996C129.326 32.2976 129.814 31.1616 130.716 30.3996C130.858 30.28 131.042 30.2218 131.227 30.2377C131.412 30.2537 131.584 30.3425 131.703 30.4846C131.823 30.6268 131.881 30.8106 131.865 30.9957C131.849 31.1808 131.76 31.352 131.618 31.4716C131.323 31.7349 131.091 32.0609 130.939 32.4258C130.787 32.7906 130.719 33.1849 130.74 33.5796C130.758 34.2198 130.911 34.849 131.19 35.4255C131.469 36.0019 131.867 36.5126 132.358 36.9236C134.214 38.4156 136.918 38.6556 139.09 38.8496L140.942 39.0136C140.226 37.9336 139.848 36.6396 139.478 35.3736C139.138 34.2116 138.788 33.0116 138.18 32.0516C136.91 30.0516 134.224 29.0076 131.932 29.6516C131.842 29.6804 131.748 29.6907 131.654 29.682C131.56 29.6733 131.469 29.6457 131.386 29.6009C131.303 29.5561 131.23 29.4951 131.171 29.4214C131.113 29.3477 131.069 29.2629 131.044 29.1721C131.019 29.0813 131.012 28.9864 131.025 28.8929C131.037 28.7995 131.068 28.7096 131.116 28.6285C131.164 28.5474 131.228 28.4768 131.304 28.421C131.38 28.3652 131.466 28.3252 131.558 28.3036C133.009 27.9225 134.542 28.007 135.942 28.5454C137.342 29.0838 138.537 30.0487 139.358 31.3036C140.07 32.4296 140.45 33.7256 140.816 34.9796C141.326 36.7256 141.816 38.3796 143.114 39.3056C143.235 39.3914 143.325 39.5131 143.372 39.6533C143.419 39.7935 143.42 39.9449 143.376 40.0859C143.331 40.227 143.243 40.3503 143.124 40.4382C143.006 40.5262 142.862 40.5743 142.714 40.5756L142.716 40.5696Z" fill="#B9B9B9"/>
<path d="M137.088 36.7498C136.956 36.7503 136.827 36.7128 136.716 36.6418C135.069 35.5886 133.651 34.2128 132.549 32.5973C131.447 30.9819 130.684 29.1602 130.304 27.2418C130.283 27.1499 130.28 27.0546 130.296 26.9616C130.312 26.8686 130.347 26.7798 130.399 26.7006C130.45 26.6214 130.517 26.5535 130.595 26.5008C130.674 26.4482 130.762 26.4119 130.855 26.3942C130.947 26.3765 131.043 26.3778 131.135 26.3979C131.227 26.418 131.314 26.4566 131.391 26.5113C131.468 26.566 131.533 26.6357 131.583 26.7162C131.632 26.7968 131.664 26.8864 131.678 26.9798C132.021 28.709 132.71 30.3511 133.704 31.8073C134.697 33.2635 135.975 34.5039 137.46 35.4538C137.588 35.5347 137.687 35.6551 137.741 35.7967C137.795 35.9384 137.801 36.0938 137.759 36.2395C137.717 36.3852 137.629 36.5133 137.508 36.6046C137.387 36.6959 137.24 36.7455 137.088 36.7458V36.7498Z" fill="#B9B9B9"/>
<path d="M119.138 88.3674L115.286 89.1354C111.333 89.919 107.231 89.1023 103.879 86.8645C100.528 84.6267 98.2011 81.1508 97.4098 77.1994L94.8458 64.3374C94.0621 60.3851 94.8783 56.2833 97.1152 52.932C99.3522 49.5807 102.827 47.2537 106.778 46.4614L110.628 45.6934C114.58 44.9098 118.682 45.7259 122.033 47.9629C125.384 50.1998 127.712 53.6748 128.504 57.6254L131.07 70.4874C131.855 74.4403 131.039 78.5432 128.802 81.8954C126.565 85.2475 123.089 87.5752 119.138 88.3674ZM107.834 51.7674C105.288 52.2772 103.048 53.7765 101.607 55.936C100.166 58.0955 99.6401 60.7388 100.146 63.2854L102.712 76.1474C103.222 78.6932 104.721 80.9327 106.88 82.3741C109.04 83.8156 111.683 84.3411 114.23 83.8354L118.08 83.0674C120.626 82.5576 122.865 81.0583 124.306 78.8988C125.748 76.7393 126.273 74.0961 125.768 71.5494L123.2 58.6874C122.69 56.1424 121.191 53.9036 119.033 52.4623C116.874 51.021 114.232 50.4949 111.686 50.9994L107.834 51.7674Z" fill="#FFD900"/>
<path d="M112.31 90.1316C108.634 90.125 105.073 88.8467 102.232 86.5136C99.3911 84.1805 97.4449 80.9363 96.7238 77.3316L94.1598 64.4796C93.3396 60.3453 94.1929 56.0545 96.5326 52.5487C98.8723 49.043 102.507 46.6085 106.64 45.7796L110.492 45.0116C114.627 44.1902 118.92 45.0432 122.427 47.3833C125.935 49.7234 128.37 53.3595 129.2 57.4936L131.764 70.3556C132.583 74.4901 131.729 78.7808 129.389 82.2865C127.049 85.7923 123.414 88.2266 119.282 89.0556L115.432 89.8216C114.404 90.0282 113.358 90.1321 112.31 90.1316ZM113.6 46.1036C112.646 46.104 111.695 46.1984 110.76 46.3856L106.908 47.1536C103.142 47.9106 99.8291 50.13 97.6966 53.3253C95.5642 56.5207 94.7856 60.4312 95.5318 64.1996L98.0958 77.0616C98.8518 80.8303 101.072 84.1453 104.269 86.2791C107.466 88.4129 111.379 89.1913 115.15 88.4436L119 87.6816L119.138 88.3676L119 87.6816C122.769 86.9265 126.084 84.7068 128.218 81.5099C130.352 78.3129 131.13 74.3998 130.382 70.6296L127.818 57.7676C127.158 54.4814 125.381 51.5246 122.79 49.3986C120.199 47.2727 116.952 46.1086 113.6 46.1036ZM112.3 84.7276C109.876 84.7198 107.53 83.8751 105.657 82.3365C103.785 80.7978 102.501 78.6596 102.024 76.2836L99.4598 63.4216C98.9187 60.6928 99.4821 57.8609 101.027 55.547C102.571 53.2332 104.97 51.6266 107.698 51.0796L111.548 50.3116C114.276 49.771 117.108 50.3347 119.422 51.8791C121.735 53.4234 123.342 55.8223 123.89 58.5496L126.456 71.4116C126.997 74.1403 126.433 76.9723 124.889 79.2861C123.345 81.5999 120.945 83.2066 118.218 83.7536L114.366 84.5216C113.686 84.6583 112.994 84.7273 112.3 84.7276ZM107.972 52.4536C105.608 52.9272 103.529 54.3192 102.19 56.3241C100.852 58.3289 100.363 60.7829 100.832 63.1476L103.4 76.0096C103.873 78.3732 105.265 80.4525 107.27 81.7911C109.275 83.1296 111.729 83.6182 114.094 83.1496L117.946 82.3816C120.309 81.907 122.388 80.5144 123.726 78.5093C125.064 76.5042 125.552 74.0502 125.084 71.6856L122.52 58.8236C122.046 56.4599 120.653 54.3808 118.648 53.0426C116.643 51.7043 114.188 51.2163 111.824 51.6856L107.972 52.4536Z" fill="#4C3133"/>
<path d="M129.111 66.2562L98.3925 72.3833C94.8731 73.0852 92.5891 76.5074 93.2911 80.0268L98.0438 103.855C98.7458 107.375 102.168 109.659 105.687 108.957L136.406 102.83C139.926 102.128 142.21 98.7057 141.508 95.1862L136.755 71.3576C136.053 67.8382 132.631 65.5542 129.111 66.2562Z" fill="#F0F0F0"/>
<path d="M130.388 66.1354C131.889 66.1373 133.344 66.6591 134.505 67.6122C135.665 68.5652 136.46 69.8907 136.754 71.3634L141.506 95.1994C141.841 96.8893 141.492 98.6432 140.534 100.076C139.577 101.508 138.089 102.501 136.4 102.837L105.686 108.963C105.265 109.046 104.837 109.089 104.408 109.089C102.906 109.087 101.451 108.566 100.291 107.613C99.1302 106.659 98.3355 105.334 98.0416 103.861L93.2896 80.0314C92.9556 78.3417 93.3062 76.5885 94.2645 75.1574C95.2227 73.7262 96.7101 72.7341 98.3996 72.3994L129.12 66.2734C129.54 66.1886 129.967 66.1457 130.396 66.1454L130.388 66.1354ZM130.396 64.7454C129.875 64.7457 129.356 64.7973 128.846 64.8994L98.1256 71.0254C96.0719 71.4357 94.2651 72.6448 93.1025 74.3868C91.9398 76.1289 91.5165 78.2613 91.9256 80.3154L96.6776 104.145C96.8796 105.163 97.2803 106.131 97.8567 106.993C98.4331 107.856 99.1739 108.596 100.037 109.172C100.9 109.748 101.868 110.148 102.885 110.349C103.903 110.551 104.95 110.549 105.968 110.345L136.688 104.219C138.74 103.807 140.546 102.598 141.708 100.856C142.87 99.1145 143.295 96.9832 142.888 94.9294L138.128 71.0914C137.769 69.3039 136.804 67.6951 135.396 66.537C133.988 65.3789 132.223 64.7425 130.4 64.7354L130.396 64.7454Z" fill="#4C3133"/>
<path d="M107.674 104.763C106.837 104.93 105.975 104.931 105.138 104.765C104.301 104.599 103.505 104.27 102.795 103.796C102.085 103.322 101.476 102.713 101.001 102.004C100.527 101.294 100.197 100.498 100.03 99.6614L95.2779 75.8334C95.1626 75.2516 95.1269 74.6568 95.1719 74.0654C94.3806 74.8205 93.7931 75.7635 93.464 76.8065C93.135 77.8496 93.0751 78.959 93.2899 80.0314L98.0419 103.861C98.3793 105.551 99.3738 107.038 100.807 107.994C102.24 108.951 103.994 109.3 105.684 108.963L136.4 102.837C137.788 102.558 139.048 101.833 139.986 100.772C140.925 99.7116 141.491 98.3736 141.6 96.9614C140.714 97.8133 139.604 98.3948 138.4 98.6374L107.674 104.763Z" fill="#DEDFDF"/>
<path d="M119.688 84.8632L118.712 79.9692L113.732 80.9692L114.714 85.8932C114.017 86.5939 113.564 87.5006 113.422 88.4789C113.28 89.4573 113.458 90.4553 113.928 91.325C114.398 92.1947 115.135 92.8898 116.031 93.3075C116.927 93.7251 117.934 93.843 118.902 93.6437C119.87 93.4443 120.749 92.9384 121.407 92.2008C122.065 91.4632 122.468 90.5332 122.556 89.5486C122.644 88.564 122.413 87.5771 121.896 86.7343C121.38 85.8915 120.605 85.2375 119.688 84.8692V84.8632Z" fill="#4C3133"/>
<path d="M118.712 79.9695L119.688 84.8635C120.603 85.2356 121.373 85.8921 121.886 86.736C122.399 87.5799 122.626 88.5664 122.535 89.5495C122.443 90.5327 122.038 91.4604 121.379 92.1955C120.72 92.9306 119.841 93.4341 118.874 93.6315C118.576 93.6902 118.273 93.7196 117.97 93.7195C117.064 93.7161 116.179 93.4453 115.427 92.9411C114.674 92.437 114.087 91.7218 113.74 90.8854C113.392 90.0489 113.299 89.1284 113.472 88.2393C113.646 87.3502 114.078 86.532 114.714 85.8875L113.732 80.9635L118.712 79.9635V79.9695ZM118.712 78.5635C118.619 78.564 118.527 78.5734 118.436 78.5915L113.456 79.5915C113.092 79.6644 112.772 79.8787 112.566 80.1873C112.361 80.4959 112.286 80.8736 112.358 81.2375L113.2 85.4915C112.458 86.4626 112.03 87.637 111.974 88.8578C111.918 90.0786 112.236 91.2874 112.885 92.3226C113.535 93.3578 114.485 94.17 115.608 94.6506C116.732 95.1312 117.975 95.2572 119.173 95.0118C120.37 94.7665 121.463 94.1614 122.307 93.2775C123.151 92.3936 123.705 91.2731 123.895 90.0659C124.085 88.8586 123.901 87.6222 123.369 86.5221C122.837 85.4219 121.982 84.5104 120.918 83.9095L120.078 79.6975C120.015 79.3798 119.844 79.0937 119.594 78.888C119.344 78.6824 119.03 78.5698 118.706 78.5695L118.712 78.5635Z" fill="#4C3133"/>
<path d="M116.238 81.7763L104.046 84.208L106.055 94.2796L118.247 91.8479L116.238 81.7763Z" fill="white"/>
<path d="M106.052 94.9837C105.89 94.9836 105.733 94.9276 105.608 94.8251C105.483 94.7227 105.398 94.5801 105.366 94.4216L103.366 84.3496C103.33 84.1677 103.368 83.979 103.471 83.8249C103.574 83.6708 103.734 83.5639 103.916 83.5277L116.116 81.0957C116.206 81.0776 116.299 81.0775 116.389 81.0954C116.479 81.1132 116.565 81.1487 116.642 81.1998C116.718 81.2509 116.784 81.3166 116.835 81.3931C116.886 81.4696 116.922 81.5554 116.94 81.6457L118.94 91.7156C118.958 91.8059 118.958 91.8988 118.94 91.989C118.922 92.0793 118.887 92.1651 118.836 92.2417C118.785 92.3182 118.719 92.3839 118.642 92.4351C118.566 92.4862 118.48 92.5217 118.39 92.5397L106.2 94.9716C106.151 94.98 106.101 94.984 106.052 94.9837ZM104.868 84.7637L106.6 93.4616L117.418 91.3036L115.686 82.5996L104.868 84.7637Z" fill="#4C3133"/>
<path d="M98.4183 102.968C104.273 101.8 108.026 95.8699 106.799 89.7226C105.573 83.5753 99.833 79.5385 93.9781 80.7063C88.1233 81.8741 84.3709 87.8042 85.5971 93.9516C86.8232 100.099 92.5635 104.136 98.4183 102.968Z" fill="white"/>
<path d="M96.3996 103.872C90.9756 103.872 86.0616 99.8515 84.9136 94.0915C84.2765 90.9936 84.8605 87.7692 86.5436 85.0915C87.35 83.793 88.414 82.6735 89.6699 81.8022C90.9258 80.9309 92.347 80.3262 93.8456 80.0255C100.068 78.7835 106.19 83.0755 107.49 89.5915C108.126 92.6897 107.542 95.9141 105.858 98.5915C105.052 99.8901 103.988 101.01 102.733 101.881C101.477 102.752 100.056 103.357 98.5576 103.658C97.8472 103.801 97.1243 103.872 96.3996 103.872ZM95.9996 81.2095C95.3664 81.2093 94.7347 81.2717 94.1136 81.3955C92.8015 81.6606 91.5575 82.1916 90.4585 82.9559C89.3595 83.7202 88.4288 84.7016 87.7236 85.8395C86.2316 88.2132 85.7156 91.072 86.2836 93.8175C87.2976 98.9115 91.6276 102.472 96.3956 102.472C97.0282 102.472 97.6593 102.409 98.2796 102.286C99.5934 102.022 100.839 101.492 101.94 100.728C103.041 99.9638 103.973 98.9821 104.68 97.8435C106.17 95.4686 106.686 92.6097 106.12 89.8635C105.094 84.7695 100.766 81.2095 95.9996 81.2095Z" fill="#4C3133"/>
<path d="M92.3797 95.4411C93.872 95.4411 95.0817 94.2314 95.0817 92.7391C95.0817 91.2468 93.872 90.0371 92.3797 90.0371C90.8875 90.0371 89.6777 91.2468 89.6777 92.7391C89.6777 94.2314 90.8875 95.4411 92.3797 95.4411Z" fill="white"/>
<path d="M92.3717 96.1432C91.7284 96.1412 91.0989 95.9567 90.5563 95.6112C90.0136 95.2657 89.5801 94.7733 89.3062 94.1913C89.0322 93.6092 88.929 92.9614 89.0085 92.323C89.088 91.6846 89.347 91.0819 89.7554 90.5848C90.1638 90.0878 90.7048 89.7168 91.3156 89.515C91.9265 89.3131 92.582 89.2887 93.2062 89.4446C93.8303 89.6004 94.3974 89.9301 94.8417 90.3955C95.2859 90.8608 95.589 91.4426 95.7157 92.0732C95.8031 92.5114 95.8033 92.9624 95.7163 93.4006C95.6293 93.8387 95.4568 94.2555 95.2087 94.627C94.9605 94.9984 94.6416 95.3174 94.2701 95.5655C93.8987 95.8137 93.4819 95.9862 93.0438 96.0732C92.8227 96.1193 92.5975 96.1427 92.3717 96.1432ZM92.3838 90.7432C92.2494 90.7434 92.1155 90.7568 91.9838 90.7832C91.6618 90.8483 91.3609 90.9916 91.1075 91.2005C90.8541 91.4094 90.656 91.6776 90.5308 91.9812C90.4056 92.2848 90.3571 92.6146 90.3896 92.9414C90.4221 93.2682 90.5345 93.582 90.717 93.855C90.8995 94.1281 91.1465 94.352 91.436 94.507C91.7256 94.6619 92.0489 94.7432 92.3773 94.7436C92.7057 94.7441 93.0292 94.6636 93.3191 94.5093C93.6091 94.3551 93.8566 94.1318 94.0398 93.8592C94.1869 93.641 94.2891 93.3955 94.3402 93.1373C94.3914 92.879 94.3906 92.6132 94.3378 92.3552C94.248 91.9016 94.0039 91.4931 93.6469 91.1992C93.29 90.9053 92.8422 90.7442 92.3798 90.7432H92.3838Z" fill="#4C3133"/>
<path d="M106.638 89.6312C106.464 89.6304 106.298 89.5654 106.17 89.4487C106.041 89.3321 105.961 89.172 105.944 88.9996C105.927 88.8272 105.975 88.6546 106.078 88.5153C106.181 88.3759 106.332 88.2797 106.502 88.2452L117.102 86.1312C117.193 86.1095 117.288 86.1064 117.381 86.1222C117.474 86.138 117.562 86.1723 117.641 86.2231C117.72 86.2739 117.789 86.3401 117.842 86.4177C117.895 86.4954 117.931 86.583 117.95 86.6752C117.968 86.7674 117.968 86.8624 117.949 86.9545C117.93 87.0466 117.892 87.1339 117.839 87.2112C117.785 87.2885 117.716 87.3542 117.637 87.4043C117.557 87.4545 117.468 87.4882 117.376 87.5032L106.776 89.6172C106.73 89.6266 106.684 89.6313 106.638 89.6312Z" fill="#4C3133"/>
<path d="M87.5217 105.836C85.7477 102.86 85.7397 100.678 87.6237 99.5437C89.5077 98.4097 92.4697 102.654 92.4697 102.654C92.4697 102.654 95.5117 102.004 97.2177 97.3677C97.2177 97.3677 100.772 93.9277 101.376 99.7677C101.376 99.7677 104.658 98.6557 103.892 102.84C103.892 102.84 107.166 102.194 106.158 106.84C105.15 111.486 95.2377 118.786 87.5217 105.836Z" fill="#C5E6F1"/>
<path d="M97.5997 113.828C94.8377 113.828 90.6897 112.532 86.9137 106.196C84.2277 101.684 85.9757 99.7157 87.2577 98.9437C89.2877 97.7217 91.8137 100.64 92.7237 101.826C93.5337 101.476 95.3637 100.362 96.5557 97.1257C96.5917 97.0271 96.6498 96.9382 96.7257 96.8657C96.9017 96.6957 98.4837 95.2217 100.044 95.7897C101.044 96.1537 101.672 97.1897 101.966 98.9417C102.302 98.8999 102.643 98.9262 102.97 99.019C103.296 99.1118 103.6 99.2691 103.864 99.4817C104.5 100.03 104.774 100.922 104.684 102.136C105.267 102.199 105.812 102.458 106.23 102.87C107.044 103.7 107.248 105.086 106.83 106.988C106.23 109.704 103.076 113.05 98.9937 113.716C98.5327 113.79 98.0666 113.827 97.5997 113.828ZM88.1177 105.478C91.9757 111.952 96.0417 112.78 98.7737 112.334C102.174 111.78 104.974 108.97 105.468 106.692C105.764 105.326 105.682 104.318 105.236 103.858C104.79 103.398 104.024 103.526 104.014 103.528C103.902 103.547 103.787 103.54 103.679 103.506C103.571 103.472 103.473 103.412 103.393 103.332C103.312 103.252 103.253 103.154 103.218 103.046C103.184 102.938 103.176 102.823 103.196 102.712C103.396 101.626 103.31 100.856 102.952 100.542C102.5 100.142 101.6 100.428 101.592 100.432C101.492 100.464 101.386 100.474 101.281 100.46C101.177 100.446 101.077 100.409 100.989 100.351C100.901 100.294 100.827 100.217 100.772 100.127C100.718 100.037 100.684 99.9364 100.674 99.8317C100.514 98.2917 100.11 97.2957 99.5637 97.0977C99.0177 96.8997 98.1537 97.4737 97.8077 97.7657C95.9757 102.566 92.7477 103.3 92.6077 103.33C92.473 103.358 92.333 103.346 92.205 103.296C92.077 103.245 91.9667 103.158 91.8877 103.046C90.8417 101.552 88.8757 99.5937 87.9777 100.134C86.4917 101.03 86.5397 102.826 88.1157 105.47L88.1177 105.478Z" fill="#4C3133"/>
<path d="M101.376 99.7676C101.376 99.7676 101.56 102.802 99.2056 104.168L101.376 99.7676Z" fill="#C5E6F1"/>
<path d="M99.1997 104.862C99.0455 104.862 98.8955 104.811 98.773 104.718C98.6505 104.624 98.5623 104.493 98.5222 104.344C98.482 104.195 98.4922 104.037 98.5511 103.894C98.6099 103.752 98.7142 103.633 98.8477 103.556C100.788 102.434 100.672 99.8336 100.67 99.8076C100.659 99.622 100.722 99.4396 100.846 99.3007C100.969 99.1617 101.143 99.0775 101.329 99.0666C101.514 99.0558 101.697 99.1191 101.836 99.2427C101.975 99.3663 102.059 99.54 102.07 99.7256C102.07 99.8656 102.248 103.208 99.5517 104.768C99.4447 104.829 99.3232 104.862 99.1997 104.862Z" fill="#4C3133"/>
<path d="M103.891 102.84C103.891 102.84 103.845 105.64 101.491 107.23L103.891 102.84Z" fill="#C5E6F1"/>
<path d="M101.487 107.93C101.337 107.932 101.19 107.885 101.068 107.796C100.946 107.708 100.856 107.582 100.811 107.439C100.766 107.295 100.769 107.141 100.819 106.998C100.868 106.856 100.963 106.734 101.087 106.65C103.119 105.276 103.181 102.85 103.183 102.828C103.186 102.642 103.263 102.465 103.396 102.336C103.53 102.207 103.709 102.136 103.894 102.139C104.08 102.142 104.257 102.218 104.386 102.352C104.515 102.485 104.586 102.664 104.583 102.85C104.583 102.98 104.501 106.032 101.871 107.81C101.758 107.887 101.625 107.929 101.487 107.93Z" fill="#4C3133"/>
<path d="M136.844 89.5437C136.681 89.5437 136.523 89.4867 136.398 89.3826C136.273 89.2785 136.188 89.1338 136.158 88.9737L133.358 74.0537C133.325 73.8717 133.365 73.684 133.47 73.5316C133.575 73.3793 133.736 73.2746 133.918 73.2405C134.099 73.2064 134.287 73.2457 134.44 73.3497C134.593 73.4537 134.699 73.6141 134.734 73.7957L137.534 88.7157C137.568 88.8982 137.528 89.0866 137.423 89.2396C137.318 89.3927 137.156 89.4977 136.974 89.5317C136.931 89.5407 136.888 89.5447 136.844 89.5437Z" fill="#4C3133"/>
<path d="M137.894 95.2554C137.728 95.2553 137.568 95.1966 137.442 95.0897C137.316 94.9828 137.231 94.8346 137.204 94.6714L136.738 91.8714C136.719 91.7792 136.719 91.6841 136.738 91.5919C136.756 91.4997 136.793 91.4121 136.847 91.3345C136.9 91.257 136.968 91.1909 137.048 91.1403C137.127 91.0898 137.216 91.0558 137.309 91.0403C137.401 91.0248 137.496 91.0282 137.588 91.0503C137.679 91.0724 137.765 91.1127 137.841 91.1688C137.917 91.2249 137.98 91.2957 138.028 91.3769C138.075 91.4581 138.106 91.548 138.118 91.6414L138.584 94.4414C138.613 94.6235 138.57 94.8099 138.462 94.9598C138.354 95.1098 138.192 95.211 138.01 95.2414C137.972 95.2499 137.933 95.2546 137.894 95.2554Z" fill="#4C3133"/>
<path d="M73.3999 86.8563C70.5239 83.6683 66.3839 82.1163 62.3039 81.6563C55.8343 80.9463 49.3322 82.6718 44.0659 86.4963C37.9499 90.9323 33.7159 97.9843 31.5839 105.604C30.5768 109.28 29.9733 113.054 29.7839 116.86C29.6146 120.184 29.6815 123.516 29.9839 126.83C36.2179 130.786 46.2199 135.25 57.8339 138.986C62.6779 140.544 67.3679 141.836 71.7239 142.842C69.2219 137.78 69.4239 131.616 70.7239 126.002C70.8459 125.484 70.9739 124.97 71.1119 124.464C72.8419 118.106 75.7119 112.144 77.0179 105.664C78.3239 99.1843 77.7359 91.6663 73.3999 86.8563Z" fill="#C5E6F1"/>
<path d="M59.4239 81.4841C60.3842 81.4838 61.3438 81.5385 62.2979 81.6481C66.3779 82.1161 70.5179 83.6681 73.3939 86.8481C77.7359 91.6581 78.3239 99.1641 77.0219 105.648C75.7199 112.132 72.8459 118.092 71.1159 124.448C70.9779 124.954 70.8499 125.468 70.7279 125.986C69.4219 131.6 69.2199 137.764 71.7279 142.826C67.3719 141.826 62.6819 140.528 57.8379 138.97C46.2239 135.234 36.2219 130.77 29.9879 126.814C29.6854 123.5 29.6186 120.168 29.7879 116.844C29.9772 113.038 30.5808 109.264 31.5879 105.588C33.7199 97.9681 37.9539 90.9161 44.0699 86.4801C48.5392 83.2416 53.9146 81.4923 59.4339 81.4801L59.4239 81.4841ZM59.4339 80.0801C53.6199 80.1009 47.9588 81.9447 43.2479 85.3521C37.2219 89.7221 32.6019 96.7761 30.2479 105.216C29.2153 108.99 28.597 112.865 28.4039 116.772C28.2313 120.162 28.2981 123.56 28.6039 126.94C28.6228 127.155 28.6909 127.362 28.803 127.546C28.915 127.729 29.0679 127.885 29.2499 128C35.8379 132.182 46.1079 136.668 57.4219 140.308C62.1939 141.842 66.9059 143.15 71.4219 144.196C71.6803 144.256 71.9505 144.241 72.2008 144.153C72.4512 144.066 72.6714 143.908 72.8359 143.7C73.0005 143.492 73.1025 143.242 73.1301 142.978C73.1577 142.714 73.1098 142.448 72.9919 142.21C70.4139 136.996 71.0879 130.684 72.1059 126.308C72.2259 125.796 72.3519 125.296 72.4819 124.82C73.1979 122.188 74.1379 119.558 75.0479 117.02C76.3199 113.458 77.6379 109.776 78.4099 105.93C79.1359 102.308 79.2439 98.6701 78.7199 95.4061C78.1059 91.5701 76.6679 88.3781 74.4459 85.9181C70.8779 81.9641 65.9639 80.6581 62.4719 80.2581C61.4647 80.1419 60.4517 80.0838 59.4379 80.0841L59.4339 80.0801Z" fill="#4C3133"/>
<path d="M43.0918 128.098C40.3779 126.816 38.1053 124.757 36.5616 122.183C35.018 119.608 34.2726 116.634 34.4198 113.636V113.538C34.607 109.731 35.2106 105.957 36.2198 102.282C38.0998 95.562 41.6198 89.282 46.6198 84.856C45.7394 85.3509 44.888 85.8958 44.0698 86.488C37.9538 90.924 33.7198 97.976 31.5878 105.596C30.5807 109.271 29.9772 113.046 29.7878 116.852C29.6185 120.176 29.6854 123.508 29.9878 126.822C36.2218 130.778 46.2238 135.242 57.8378 138.978C62.6818 140.536 67.3718 141.828 71.7278 142.834C70.9749 141.287 70.4436 139.641 70.1498 137.946C67.6558 137.264 65.0918 136.504 62.4798 135.664C55.1998 133.326 48.5698 130.702 43.0918 128.098Z" fill="#81C4D4"/>
<path d="M172.62 125.4C172.424 124.588 172.186 123.787 171.906 123C170.458 118.942 167.678 115.214 163.778 113.38C159.878 111.546 154.824 111.938 151.722 114.93C148.506 118.032 148.01 122.91 147.39 127.33C147.094 129.444 146.724 131.554 146.266 133.646C144.85 140.128 142.608 146.428 139.216 152.09C143.252 150.776 147.616 149.134 152.116 147.202C160.656 143.536 168.116 139.498 173.362 135.878L173.488 135.75C173.578 132.286 173.434 128.766 172.62 125.4Z" fill="#C5E6F1"/>
<path d="M158.762 112.268C160.495 112.267 162.207 112.646 163.778 113.378C167.678 115.212 170.458 118.94 171.906 122.998C172.186 123.785 172.424 124.586 172.62 125.398C173.434 128.756 173.578 132.276 173.488 135.744L173.362 135.872C168.112 139.492 160.656 143.53 152.116 147.196C147.618 149.128 143.252 150.77 139.216 152.084C142.616 146.422 144.85 140.122 146.266 133.64C146.724 131.548 147.094 129.44 147.39 127.324C148.01 122.898 148.506 118.02 151.722 114.924C153.588 113.124 156.16 112.264 158.762 112.264V112.268ZM158.762 110.864C155.636 110.864 152.79 111.948 150.75 113.916C147.374 117.172 146.704 122.05 146.112 126.352L146 127.14C145.702 129.264 145.33 131.354 144.894 133.34C143.404 140.166 141.094 146.23 138.01 151.364C137.883 151.576 137.814 151.819 137.811 152.066C137.808 152.314 137.87 152.558 137.992 152.774C138.114 152.989 138.291 153.168 138.505 153.293C138.719 153.418 138.962 153.484 139.21 153.484C139.357 153.484 139.503 153.461 139.642 153.414C143.842 152.046 148.228 150.386 152.662 148.484C160.984 144.91 168.614 140.842 174.152 137.024C174.228 136.971 174.299 136.911 174.364 136.844L174.49 136.714C174.732 136.462 174.871 136.129 174.88 135.78C174.992 131.48 174.704 128.078 173.976 125.068C173.767 124.205 173.514 123.354 173.218 122.518C171.514 117.744 168.29 113.946 164.368 112.1C162.611 111.281 160.695 110.857 158.756 110.858L158.762 110.864Z" fill="#4C3133"/>
<path d="M172.62 125.4C172.424 124.588 172.186 123.787 171.906 123C170.458 118.942 167.676 115.214 163.778 113.38C163.428 113.214 163.07 113.067 162.704 112.94C165.778 114.94 168.01 118.186 169.254 121.674C169.534 122.461 169.772 123.262 169.968 124.074L169.992 124.174C170.64 126.951 170.367 129.864 169.214 132.473C168.061 135.081 166.09 137.244 163.6 138.634C159.284 141.068 153.812 144.01 149.456 145.88C146.474 147.16 143.554 148.31 140.748 149.324C140.263 150.257 139.749 151.181 139.208 152.094C143.244 150.78 147.608 149.138 152.108 147.206C160.648 143.54 168.108 139.502 173.354 135.882L173.48 135.754C173.578 132.286 173.434 128.766 172.62 125.4Z" fill="#81C4D4"/>
<path d="M77.384 96.0421C68.568 97.1361 59.396 93.2421 53.568 96.0421C47.74 98.8421 49.138 107.698 56.83 107.466C63.544 107.266 72.386 107.592 76.23 108.918C76.528 107.842 76.798 106.756 77.018 105.654C77.6765 102.493 77.8003 99.244 77.384 96.0421Z" fill="#81C4D4"/>
<path d="M66.0219 74.8201C59.4519 74.4201 49.488 77.31 44.5 80.0861C42.3 81.31 38.604 83.592 36.2 84.342C33.796 85.092 30.686 84.4841 29.626 82.2001C29.004 80.8581 29.25 79.2261 29.988 77.9441C30.726 76.6621 31.904 75.6841 33.152 74.8881C36.3037 72.8886 39.9857 71.8876 43.716 72.016C44.716 72.054 46.074 71.918 46.224 70.924C46.34 70.158 45.548 69.5561 44.8 69.3521C44.052 69.1481 43.216 69.1301 42.6 68.6621C41.812 68.0621 41.666 66.8621 42.078 65.9621C42.49 65.0621 43.324 64.3981 44.234 64.0121C55.8 59.1121 66.0219 74.8201 66.0219 74.8201Z" fill="#C5E6F1"/>
<path d="M34.1858 85.34C32.0438 85.34 29.8938 84.442 28.9858 82.494C28.3058 81.028 28.4518 79.196 29.3758 77.594C30.0698 76.394 31.1758 75.312 32.7758 74.298C36.0492 72.2249 39.8714 71.1864 43.7438 71.318C44.5318 71.348 45.4718 71.234 45.5338 70.818C45.5818 70.512 45.0878 70.156 44.6178 70.028C44.4178 69.976 44.2178 69.936 44.0018 69.894C43.4118 69.78 42.7438 69.65 42.1758 69.218C41.1758 68.46 40.8638 66.936 41.4398 65.67C41.8898 64.684 42.7858 63.87 43.9618 63.366C48.9438 61.256 54.4578 62.524 59.9098 67.04C62.469 69.1907 64.7231 71.6803 66.6098 74.44C66.6804 74.5487 66.7194 74.6749 66.7225 74.8045C66.7257 74.9341 66.6927 75.0621 66.6274 75.174C66.5621 75.286 66.4669 75.3777 66.3526 75.4387C66.2382 75.4998 66.1092 75.528 65.9798 75.52C59.6938 75.136 49.7998 77.94 44.8398 80.696C44.3998 80.942 43.8978 81.23 43.3598 81.538C41.1518 82.8 38.3998 84.388 36.3998 85.01C35.6823 85.2295 34.9361 85.3407 34.1858 85.34ZM43.0538 72.704C39.6802 72.7108 36.3775 73.6725 33.5278 75.478C32.1278 76.368 31.1738 77.29 30.5938 78.292C29.9078 79.492 29.7798 80.868 30.2618 81.906C31.1618 83.848 33.8818 84.33 35.9918 83.672C37.8378 83.098 40.5138 81.56 42.6638 80.326C43.2078 80.012 43.7138 79.726 44.1578 79.474C49.0258 76.766 58.0658 74.114 64.6358 74.074C62.9906 71.874 61.0997 69.8691 58.9998 68.098C53.9138 63.898 49.0418 62.738 44.5158 64.656C43.6638 65.018 43.0258 65.584 42.7158 66.256C42.4538 66.832 42.4958 67.706 43.0258 68.108C43.3338 68.342 43.7878 68.43 44.2678 68.522C44.5018 68.568 44.7438 68.614 44.9858 68.68C46.0798 68.978 47.0958 69.88 46.9198 71.032C46.8198 71.704 46.2678 72.818 43.6938 72.72C43.4791 72.7093 43.2658 72.704 43.0538 72.704Z" fill="#4C3133"/>
<path d="M60.7999 93.4799C60.628 93.48 60.462 93.4168 60.3337 93.3024C60.2054 93.1879 60.1237 93.0303 60.1041 92.8595C60.0846 92.6886 60.1286 92.5166 60.2278 92.3762C60.327 92.2357 60.4744 92.1367 60.6419 92.0979L63.6719 91.3979C63.8528 91.356 64.0429 91.3877 64.2004 91.486C64.3579 91.5842 64.47 91.7411 64.5119 91.9219C64.5538 92.1028 64.5221 92.2929 64.4239 92.4505C64.3256 92.608 64.1688 92.72 63.9879 92.7619L60.9579 93.4619C60.906 93.4737 60.8531 93.4798 60.7999 93.4799Z" fill="#4C3133"/>
<path d="M78.9758 95.1119C78.8675 95.1117 78.7607 95.0864 78.6638 95.0379L74.9338 93.1719C74.8499 93.1318 74.7748 93.0754 74.713 93.006C74.6511 92.9366 74.6037 92.8555 74.5736 92.7676C74.5434 92.6796 74.531 92.5866 74.5372 92.4938C74.5434 92.401 74.568 92.3104 74.6095 92.2273C74.6511 92.1441 74.7088 92.0701 74.7794 92.0095C74.8499 91.9489 74.9317 91.9029 75.0202 91.8743C75.1087 91.8457 75.2019 91.835 75.2946 91.8428C75.3872 91.8506 75.4774 91.8768 75.5598 91.9199L79.2898 93.7839C79.4302 93.8552 79.5426 93.9716 79.6089 94.1144C79.6752 94.2572 79.6915 94.4182 79.6553 94.5714C79.619 94.7247 79.5323 94.8613 79.4091 94.9593C79.2859 95.0573 79.1332 95.1111 78.9758 95.1119Z" fill="#4C3133"/>
<path d="M62.7759 102.22C63.548 102.22 64.1739 101.594 64.1739 100.822C64.1739 100.05 63.548 99.4238 62.7759 99.4238C62.0038 99.4238 61.3779 100.05 61.3779 100.822C61.3779 101.594 62.0038 102.22 62.7759 102.22Z" fill="#4C3133"/>
<path d="M75.1299 102.452C75.902 102.452 76.5279 101.826 76.5279 101.054C76.5279 100.282 75.902 99.6562 75.1299 99.6562C74.3578 99.6562 73.7319 100.282 73.7319 101.054C73.7319 101.826 74.3578 102.452 75.1299 102.452Z" fill="#4C3133"/>
<path d="M161.23 83.8996C163.061 83.8996 164.546 82.415 164.546 80.5836C164.546 78.7522 163.061 77.2676 161.23 77.2676C159.398 77.2676 157.914 78.7522 157.914 80.5836C157.914 82.415 159.398 83.8996 161.23 83.8996Z" fill="white"/>
<path d="M161.23 77.2677C161.886 77.2677 162.527 77.4622 163.072 77.8265C163.617 78.1909 164.042 78.7088 164.293 79.3147C164.544 79.9206 164.61 80.5874 164.482 81.2306C164.354 81.8738 164.038 82.4647 163.574 82.9284C163.111 83.3922 162.52 83.708 161.877 83.836C161.233 83.9639 160.567 83.8982 159.961 83.6473C159.355 83.3963 158.837 82.9713 158.473 82.4259C158.108 81.8806 157.914 81.2395 157.914 80.5837C157.914 79.7042 158.263 78.8608 158.885 78.2389C159.507 77.617 160.35 77.2677 161.23 77.2677ZM161.23 75.8677C160.297 75.8677 159.385 76.1443 158.61 76.6625C157.834 77.1807 157.23 77.9172 156.873 78.7789C156.516 79.6407 156.422 80.5889 156.604 81.5037C156.786 82.4185 157.235 83.2588 157.895 83.9184C158.555 84.5779 159.395 85.0271 160.31 85.2091C161.224 85.391 162.173 85.2976 163.034 84.9407C163.896 84.5837 164.633 83.9793 165.151 83.2037C165.669 82.4282 165.946 81.5164 165.946 80.5837C165.944 79.3334 165.447 78.1348 164.563 77.2507C163.679 76.3666 162.48 75.8693 161.23 75.8677Z" fill="#4C3133"/>
<path d="M76.692 56.3835C78.5234 56.3835 80.008 54.8988 80.008 53.0675C80.008 51.2361 78.5234 49.7515 76.692 49.7515C74.8606 49.7515 73.376 51.2361 73.376 53.0675C73.376 54.8988 74.8606 56.3835 76.692 56.3835Z" fill="white"/>
<path d="M76.6918 49.7516C77.3477 49.7512 77.989 49.9453 78.5346 50.3094C79.0802 50.6736 79.5055 51.1913 79.7568 51.7972C80.0081 52.4031 80.074 53.0699 79.9463 53.7133C79.8186 54.3566 79.5029 54.9477 79.0392 55.4116C78.5756 55.8756 77.9847 56.1916 77.3414 56.3197C76.6981 56.4478 76.0313 56.3823 75.4253 56.1313C74.8192 55.8804 74.3012 55.4554 73.9368 54.9101C73.5723 54.3647 73.3778 53.7235 73.3778 53.0676C73.3778 52.1885 73.7269 51.3453 74.3483 50.7235C74.9697 50.1017 75.8127 49.7521 76.6918 49.7516ZM76.6918 48.3516C75.7587 48.35 74.8461 48.6252 74.0695 49.1425C73.2929 49.6597 72.6872 50.3957 72.3291 51.2573C71.9709 52.1189 71.8764 53.0674 72.0574 53.9827C72.2385 54.898 72.687 55.7391 73.3462 56.3994C74.0055 57.0598 74.8458 57.5097 75.7608 57.6924C76.6758 57.875 77.6245 57.7821 78.4867 57.4253C79.3489 57.0686 80.0859 56.4642 80.6044 55.6885C81.123 54.9128 81.3998 54.0006 81.3998 53.0676C81.3987 51.8171 80.9015 50.6182 80.0173 49.734C79.1331 48.8498 77.9342 48.3526 76.6838 48.3516H76.6918Z" fill="#4C3133"/>
<path d="M88.5158 144.051C87.9835 144.053 87.4629 143.896 87.0197 143.601C86.5766 143.306 86.2308 142.886 86.0263 142.395C85.8218 141.904 85.7677 141.362 85.8708 140.84C85.9739 140.318 86.2296 139.838 86.6056 139.461C86.9815 139.085 87.4608 138.828 87.9828 138.724C88.5048 138.619 89.046 138.672 89.5378 138.876C90.0297 139.079 90.4502 139.424 90.7461 139.866C91.0419 140.309 91.1998 140.829 91.1998 141.361C91.1993 142.074 90.9165 142.757 90.4135 143.261C89.9104 143.765 89.2281 144.049 88.5158 144.051ZM88.5158 140.073C88.2606 140.073 88.0111 140.149 87.7989 140.291C87.5868 140.433 87.4214 140.634 87.3238 140.87C87.2263 141.106 87.2008 141.365 87.2508 141.616C87.3007 141.866 87.4238 142.096 87.6044 142.276C87.785 142.457 88.015 142.579 88.2654 142.629C88.5158 142.678 88.7752 142.653 89.0109 142.555C89.2466 142.457 89.4479 142.291 89.5894 142.079C89.7309 141.866 89.8062 141.617 89.8058 141.361C89.8053 141.02 89.6691 140.692 89.4273 140.451C89.1854 140.209 88.8576 140.073 88.5158 140.073Z" fill="#4C3133"/>
</svg>
