<svg width="300" height="300" viewBox="0 0 300 300" fill="none" xmlns="http://www.w3.org/2000/svg">
<rect width="300" height="300" fill="white"/>
<path d="M196.042 172.805C205.158 183.314 223.505 164.793 234.943 156.838C246.381 148.884 256.774 135.762 253.464 122.234C249.4 105.629 226.873 97.21 226.176 80.1402C225.886 72.4181 230.356 65.4508 232.737 58.1352C235.117 50.8195 234.362 40.8912 227.337 37.7559C225.247 36.8269 222.866 36.6527 220.544 36.4786C209.745 35.7818 198.945 35.027 188.146 34.3303C173.921 33.4013 159.232 32.5304 145.82 37.2914C126.776 44.0845 113.422 61.0382 96.5845 72.3601C94.2621 73.9277 91.7655 75.4373 88.9786 75.5534C80.6179 75.9018 76.96 64.8122 69.6444 60.6899C62.5029 56.6256 52.6906 60.5737 48.5102 67.6572C44.3299 74.7406 44.7363 83.74 47.4071 91.5201C50.0779 99.3002 54.7228 106.209 58.7871 113.351C62.8513 120.492 66.393 128.273 66.5672 136.459C66.7413 145.342 62.8512 153.819 58.6708 161.657C54.4905 169.496 173.399 146.678 196.042 172.805Z" fill="#F4F6F9"/>
<path d="M257.761 249.91C254.742 242.072 260.664 232.608 256.949 225.118C253.871 218.905 245.859 217.28 240.517 212.867C236.918 209.848 234.595 205.667 231.866 201.835C229.137 198.003 225.538 194.404 220.893 193.591L220.951 193.242C217.467 187.436 212.416 182.037 209.861 177.334C207.887 173.792 223.796 165.722 223.796 165.722C212.01 154.051 184.895 132.685 169.277 127.053C168.696 118.925 167.942 98.9519 167.942 98.9519C174.154 97.3842 186.695 94.0748 186.695 94.0748C179.379 85.0173 171.425 74.5664 163.18 64.2896C160.452 60.864 156.794 57.8449 152.613 56.6837L139.318 53.9548L133.57 78.3403C130.318 76.8307 126.08 77.4694 123.525 80.0241C120.506 82.9852 120.158 88.2687 122.712 91.6362C124.338 93.7845 126.951 94.9457 129.622 95.0618L129.563 95.2941C125.093 105.861 121.028 114.628 116.5 123.802L116.442 123.57C101.636 130.13 87.7597 135.82 74.2315 144.878C60.7615 153.877 48.6268 165.489 41.3112 180.005C41.3112 180.005 50.5428 177.218 59.1358 180.701C58.4971 181.398 57.9745 182.153 57.51 182.966C55.4779 186.507 55.1296 190.746 53.9684 194.636C49.73 208.687 35.0987 217.686 30.7441 231.737C30.7441 231.737 37.5952 247.065 85.2631 254.729C86.8307 254.961 86.8307 252 87.1791 250.548C87.4694 249.097 87.2371 247.529 86.134 246.426C85.6695 245.962 85.0889 245.671 84.3922 245.439C85.4953 244.394 86.5405 243.291 87.3533 242.072C89.2693 239.459 90.2564 236.323 89.2693 233.479C88.6307 231.679 87.2952 230.169 86.134 228.601C79.6892 219.834 92.1143 217.28 98.3848 211.996C100.127 210.486 101.636 208.57 102.681 206.596C105.468 209.964 109.01 212.751 112.958 214.667C116.384 217.338 119.983 218.673 122.886 219.196C123.351 219.37 123.874 219.544 124.396 219.66L124.164 219.37C124.338 219.37 124.57 219.428 124.744 219.428L128.46 197.655C128.46 197.655 149.188 198.526 150.697 176.347C150.93 172.747 150.581 169.786 149.827 167.231C156.271 166.418 161.903 166.651 166.954 167.173C168.232 168.16 169.567 169.496 170.67 171.179C170.728 171.644 170.961 172.108 171.309 172.515C171.425 172.631 171.483 172.689 171.599 172.805C173.515 176.637 174.444 182.037 172.644 189.701C171.077 196.436 168.232 201.429 165.039 205.203C164.922 205.145 164.864 205.029 164.748 204.971L164.864 205.435C157.723 213.738 149.014 215.654 149.014 215.654L145.762 238.82L197.204 227.208L190.411 200.326C192.153 200.094 193.895 199.629 195.637 199.107C195.462 200.21 195.462 201.371 195.578 202.532C195.927 205.203 197.088 207.758 198.888 209.732H199.352C199.643 223.608 201.21 237.485 204.113 251.013C205.275 256.471 206.9 262.335 211.429 265.586C211.429 265.586 220.022 248.923 239.763 257.051C259.503 265.18 269.025 257.051 269.025 257.051C264.148 257.458 259.445 254.38 257.761 249.91ZM184.257 176.347L182.863 170.831C183.095 170.773 183.386 170.657 183.618 170.599C186.347 169.96 189.656 170.367 191.224 172.689C191.282 172.805 191.34 172.921 191.398 173.037C188.901 173.908 186.521 175.011 184.257 176.347ZM188.205 192.023C191.456 190.688 194.882 189.585 198.191 188.656C195.462 189.643 191.688 191.501 188.553 193.475L188.205 192.023Z" fill="white"/>
<path d="M135.021 154.167L136.879 135.646C136.879 135.646 122.364 138.026 111.565 149.116C112.32 149.29 113.132 149.522 113.887 149.755C116.035 150.393 118.416 151.032 120.274 152.426C121.841 153.645 122.887 155.677 122.364 157.709C121.783 159.741 119.693 160.612 117.719 160.496C115.397 160.38 113.19 159.277 111.042 158.464C109.242 157.767 107.384 157.187 105.41 157.361C105.004 158.115 104.597 158.812 104.249 159.625C104.888 159.915 105.526 160.206 106.165 160.496C109.242 162.064 112.145 164.038 114.758 166.418C116.848 168.334 121.145 172.05 118.01 174.895C117.313 175.476 116.558 175.824 115.745 175.94C116.79 177.159 117.719 178.669 117.371 180.353C117.022 182.095 115.339 183.082 113.655 183.024C111.681 182.965 109.823 181.746 108.081 180.875C107.094 180.411 106.107 179.946 105.12 179.54C105.294 179.656 105.526 179.772 105.701 179.946C106.746 180.643 107.733 181.398 108.662 182.269C109.3 182.907 109.997 183.604 110.229 184.475C111.042 187.204 107.152 187.552 105.468 187.61C103.727 187.668 102.043 187.494 100.359 187.146C100.533 189.12 99.8364 191.442 101.056 192.778C102.043 193.881 103.901 194.578 104.365 196.203C104.888 198.061 103.436 201.603 104.133 203.171C109.533 215.421 119.171 219.428 124.919 219.718L128.635 197.945C128.635 197.945 149.362 198.816 150.872 176.637C152.207 156.49 135.021 154.167 135.021 154.167Z" fill="#FFE945"/>
<path d="M98.5009 187.146C98.5009 186.972 98.5008 186.798 98.4427 186.566H98.3848C98.4428 186.74 98.4428 186.914 98.5009 187.146Z" fill="black"/>
<path d="M104.017 147.607C109.881 140.988 117.545 136.053 126.022 133.44C126.196 133.382 126.312 133.324 126.37 133.208C129.157 133.556 131.944 134.195 134.615 135.066C125.673 138.085 117.371 142.73 110.113 148.71C110.81 148.884 111.564 149.058 112.261 149.232C119.577 143.368 127.996 138.898 136.995 136.169C137.227 136.111 137.344 135.995 137.46 135.879C138.098 135.646 138.272 134.485 137.402 134.195C133.744 132.917 130.028 131.93 126.138 131.524C125.847 131.466 125.615 131.64 125.441 131.872C116.5 134.659 108.429 139.943 102.333 147.026C102.217 147.142 102.159 147.316 102.101 147.433C102.681 147.433 103.378 147.491 104.017 147.607Z" fill="black"/>
<path d="M127.763 200.907C125.383 199.92 123.815 197.713 122.422 195.681C121.667 194.636 120.97 193.533 120.158 192.546C119.403 191.559 118.474 190.456 117.429 189.817C116.267 189.12 114.642 189.004 113.829 190.34C113.074 191.559 113.597 193.185 113.829 194.462C114.467 197.481 115.397 200.442 116.674 203.287C118.125 206.597 120.041 209.616 122.306 212.461C123.002 213.332 124.222 212.112 123.525 211.242C119.925 206.771 117.371 201.545 115.977 196.03C115.629 194.752 115.222 193.301 115.222 191.965C115.164 190.282 116.732 191.327 117.371 191.965C119.054 193.591 120.274 195.681 121.667 197.539C123.177 199.629 124.918 201.545 127.357 202.532C127.821 202.707 128.286 202.358 128.402 201.952C128.518 201.487 128.17 201.081 127.763 200.907Z" fill="black"/>
<path d="M137.75 169.612C136.647 168.16 135.66 166.651 134.673 165.083C130.376 158.058 127.531 150.219 126.254 142.091C126.08 140.988 124.396 141.452 124.57 142.555C125.615 149.465 127.879 156.142 131.073 162.296C132.699 165.373 134.556 168.334 136.647 171.121C137.517 172.224 138.853 173.85 138.098 175.36C137.866 175.824 137.401 176.289 136.821 176.173C136.124 176.056 135.718 175.186 135.427 174.605C134.44 172.863 133.511 171.121 132.582 169.438C131.769 167.928 131.015 166.244 129.912 164.909C129.041 163.806 127.705 162.935 126.254 163.283C124.802 163.631 123.931 165.025 123.815 166.418C123.641 168.102 124.512 169.67 125.267 171.121C126.138 172.805 126.95 174.489 127.705 176.231C129.215 179.714 130.434 183.314 131.363 186.972C131.537 187.669 131.77 188.365 131.653 189.12C131.537 190.049 130.84 189.701 130.26 189.236C128.808 187.959 127.531 186.449 126.312 184.94C123.815 181.863 121.783 178.437 120.215 174.837C119.751 173.792 118.241 174.721 118.706 175.708C120.215 179.018 122.073 182.211 124.28 185.114C125.383 186.565 126.602 188.017 127.879 189.352C128.925 190.456 130.434 192.197 132.176 191.268C133.453 190.572 133.511 189.004 133.279 187.727C132.989 185.869 132.35 184.011 131.77 182.269C130.55 178.495 129.041 174.779 127.241 171.237C126.544 169.786 125.151 167.986 125.557 166.302C125.673 165.722 126.08 165.141 126.66 165.025C127.415 164.909 128.054 165.548 128.46 166.07C128.925 166.651 129.273 167.289 129.621 167.928C130.144 168.915 130.724 169.902 131.247 170.889C132.176 172.631 133.105 174.431 134.15 176.115C134.905 177.392 136.24 178.437 137.808 177.856C139.143 177.334 140.072 175.824 139.956 174.373C140.014 172.457 138.795 171.005 137.75 169.612Z" fill="black"/>
<path d="M101.869 191.675C101.694 190.224 101.636 188.714 101.694 187.262C101.114 187.204 100.533 187.088 99.9525 186.972C99.8944 188.366 99.9524 189.759 100.069 191.153" fill="black"/>
<path d="M103.727 205.319C113.016 218.092 121.145 219.137 124.222 220.066C125.325 220.357 125.79 218.673 124.687 218.383C115.687 215.77 108.255 209.209 104.481 200.79" fill="black"/>
<path d="M169.915 170.076C170.031 169.205 170.379 168.334 170.902 167.637C172.411 165.663 175.024 164.85 177.288 164.154C178.566 163.747 179.843 163.399 181.12 163.108L175.547 141.104L166.257 143.426L161.147 164.27C161.147 164.27 166.199 165.373 169.915 170.076Z" fill="#9ED5F0"/>
<path d="M174.618 183.372C175.779 182.036 177.056 180.759 178.392 179.598C180.192 178.088 182.108 176.695 184.198 175.534L183.211 171.702C181.353 172.224 179.553 173.153 177.753 173.734C176.069 174.314 173.979 174.779 172.237 174.14C173.34 176.927 173.921 180.527 173.457 185.056C173.805 184.533 174.211 183.894 174.618 183.372Z" fill="#9ED5F0"/>
<path d="M185.069 201.37C184.082 201.254 182.921 200.964 182.34 200.093C181.875 199.396 182.05 198.525 182.398 197.829C183.385 196.029 185.417 194.693 187.159 193.59C185.824 194.171 184.488 194.751 183.211 195.448C181.527 196.319 179.727 197.306 177.753 196.9C175.953 196.551 174.792 194.984 174.966 193.184C175.082 191.964 175.779 190.919 176.592 189.932C175.431 189.758 174.444 189.236 173.689 188.074C173.457 187.726 173.341 187.378 173.283 187.029C173.166 187.9 172.992 188.829 172.76 189.758C167.651 211.531 149.129 215.711 149.129 215.711L145.878 238.878L197.32 227.265L190.759 201.254C188.843 201.603 186.985 201.661 185.069 201.37Z" fill="#9ED5F0"/>
<path d="M144.253 211.589C143.962 211.183 144.195 210.66 144.543 210.37C144.949 210.08 145.472 210.312 145.762 210.66C146.865 212.344 148.027 213.97 149.13 215.654C149.42 216.06 149.188 216.583 148.839 216.873C148.433 217.163 147.91 216.931 147.62 216.583C146.517 214.899 145.414 213.273 144.253 211.589ZM172.993 212.925C174.386 214.841 177.579 218.615 174.967 220.821C173.805 221.808 172.122 221.344 171.135 220.298C170.032 219.137 169.335 217.57 168.348 216.292C167.419 215.073 166.316 213.738 165.038 212.867C164.574 212.518 163.645 212.054 163.064 212.634C162.6 213.157 163.122 214.028 163.413 214.492C164.284 216.002 165.329 217.453 166.316 218.963C167.361 220.531 168.406 222.156 169.451 223.724C170.09 224.653 168.58 225.524 167.941 224.595C166.78 222.853 165.677 221.111 164.516 219.369C163.935 218.499 163.355 217.628 162.774 216.757C162.251 216.002 161.729 215.247 161.381 214.376C160.916 213.041 161.206 211.531 162.6 210.951C163.993 210.312 165.387 210.951 166.49 211.822C167.767 212.867 168.87 214.144 169.857 215.421C170.38 216.118 170.844 216.757 171.309 217.512C171.715 218.15 172.064 218.963 172.644 219.428C173.167 219.834 173.864 219.892 174.096 219.195C174.328 218.557 174.038 217.918 173.689 217.337C172.935 215.944 171.948 214.609 170.961 213.273C169.045 210.66 166.896 208.28 164.516 206.074C160.8 210.66 156.039 214.376 150.639 216.757C149.478 224.305 148.317 231.853 147.156 239.4C146.981 240.445 145.53 240.097 145.472 239.11C145.356 239.052 145.24 238.936 145.182 238.82C143.788 236.672 142.22 234.698 140.421 232.84C140.13 232.549 140.13 232.201 140.246 231.969C141.466 224.711 142.743 217.453 143.962 210.138C144.078 209.615 144.485 209.441 144.833 209.557C149.943 208.686 154.762 206.712 159 203.693C164.051 200.093 168.232 194.926 170.554 189.062C170.67 188.539 170.728 188.017 170.786 187.494C170.844 187.262 171.019 187.03 171.251 186.914C171.657 185.694 171.948 184.475 172.122 183.198C172.76 179.25 172.238 175.127 170.148 171.702C168.115 168.45 164.632 166.244 160.858 165.663C160.626 165.721 160.335 165.721 160.103 165.605C159.871 165.605 159.639 165.547 159.465 165.547C158.652 165.547 158.419 164.618 158.768 164.154C157.607 162.934 156.445 161.715 155.226 160.496C154.645 160.554 154.065 160.148 154.239 159.451C156.561 152.077 158.071 144.471 158.768 136.749C158.536 136.227 158.826 135.53 159.523 135.53C159.639 135.472 159.813 135.472 159.929 135.53C162.193 135.472 164.4 135.065 166.548 134.311C166.722 134.136 167.012 134.02 167.245 134.078C167.593 134.02 167.999 134.311 168.115 134.601C170.38 136.517 172.702 138.433 174.967 140.291C174.967 140.291 174.967 140.349 175.025 140.349C175.141 140.349 175.257 140.349 175.373 140.349C175.838 140.407 176.244 140.697 176.244 141.22C176.244 141.626 175.838 142.149 175.373 142.091C172.702 141.8 170.032 142.265 167.651 143.542C167.245 143.774 166.896 143.658 166.664 143.368C166.606 143.426 166.548 143.484 166.432 143.542C165.038 150.451 163.413 157.303 161.555 164.096C165.967 164.909 169.857 167.695 172.006 171.702C174.967 177.217 174.328 183.662 172.064 189.352C171.657 191.733 170.961 194.055 170.032 196.319C168.812 199.28 167.245 202.067 165.329 204.622C168.348 207.119 170.786 209.906 172.993 212.925ZM172.644 140.349C170.844 138.839 169.103 137.388 167.303 135.878C165.329 136.575 163.297 136.981 161.264 137.097C163.122 138.781 165.038 140.407 166.896 142.091C166.954 142.033 167.012 142.033 167.071 141.975C168.754 141.046 170.67 140.523 172.644 140.349ZM156.561 159.161C157.781 160.438 159.058 161.715 160.277 162.993C162.077 156.316 163.645 149.639 165.038 142.846C165.038 142.787 165.038 142.787 165.096 142.729C163.587 141.394 162.077 140.059 160.568 138.723C159.813 145.574 158.419 152.367 156.445 158.986C156.445 159.044 156.503 159.102 156.561 159.161ZM168.058 197.016C162.716 204.39 154.529 209.499 145.588 211.067C144.427 217.976 143.208 224.943 142.046 231.853C143.44 233.304 144.717 234.872 145.878 236.555C146.865 230.169 147.852 223.782 148.839 217.395C147.794 217.802 147.33 216.118 148.375 215.712C148.665 215.596 148.956 215.479 149.188 215.363C149.362 215.015 149.71 214.957 150.001 215.015C151.975 214.144 153.891 213.041 155.691 211.822C161.09 208.106 165.387 202.938 168.058 197.016ZM164.516 225.059C164.284 224.653 163.703 224.479 163.297 224.769C162.89 225.001 162.716 225.524 163.006 225.988C163.993 227.556 164.98 229.182 166.025 230.749C166.258 231.156 166.838 231.33 167.245 231.04C167.651 230.807 167.825 230.285 167.535 229.82C166.548 228.253 165.561 226.627 164.516 225.059ZM177.986 156.548C176.767 154.574 175.373 152.774 173.805 151.09C172.993 150.219 172.122 149.406 171.251 148.594C170.438 147.897 169.567 147.026 168.58 146.736C167.593 146.503 166.548 146.968 166.258 148.013C165.967 149 166.374 150.161 166.664 151.148C167.303 153.471 168.116 155.735 169.161 157.941C170.322 160.38 171.657 162.76 173.225 164.967C173.864 165.896 175.373 165.025 174.735 164.096C171.715 159.915 169.509 155.212 168.232 150.219C168.116 149.871 167.767 149 167.941 148.594C168.174 148.187 168.87 148.826 169.103 149.058C170.09 149.813 170.961 150.684 171.831 151.555C173.631 153.355 175.141 155.329 176.476 157.477C177.057 158.406 178.566 157.535 177.986 156.548Z" fill="black"/>
<path d="M201.965 196.203C203.01 195.855 203.474 197.539 202.429 197.887C196.914 199.745 190.991 202.242 185.069 201.371C184.082 201.255 182.921 200.964 182.34 200.094C181.876 199.397 182.05 198.526 182.398 197.829C183.443 195.855 185.708 194.462 187.566 193.3C190.004 191.733 192.617 190.339 195.288 189.12C197.146 188.307 199.236 187.204 201.326 187.088C202.429 187.03 202.429 188.772 201.326 188.83C201.268 188.83 201.036 188.888 201.152 188.83C201.268 188.83 200.978 188.83 200.978 188.888C200.804 188.946 200.571 188.946 200.397 189.004C199.933 189.12 199.41 189.294 198.946 189.468C197.726 189.875 196.565 190.397 195.462 190.978C192.965 192.139 190.585 193.475 188.263 194.926C187.334 195.565 186.405 196.203 185.534 196.958C184.837 197.539 184.314 198.061 183.908 198.758C183.792 198.932 183.85 198.874 183.85 198.816C183.85 198.874 183.792 198.932 183.792 198.99C183.676 199.281 183.792 199.048 183.792 198.99C183.792 199.048 183.792 199.107 183.792 199.165C183.792 199.107 183.792 199.165 183.792 199.165C183.676 199.048 183.966 199.281 183.792 199.223C183.85 199.281 183.908 199.339 184.024 199.339C184.14 199.397 184.082 199.397 184.082 199.397C184.256 199.455 184.43 199.513 184.663 199.571C185.65 199.803 186.637 199.861 187.624 199.803C192.617 199.745 197.378 197.771 201.965 196.203ZM150 72.5342C150.581 73.8696 151.22 75.205 151.8 76.5404C151.975 76.9469 152.613 77.063 153.02 76.8307C153.426 76.5404 153.542 76.0759 153.31 75.6114C152.729 74.276 152.091 72.9407 151.51 71.6053C151.336 71.1988 150.697 71.0827 150.291 71.315C149.884 71.6053 149.826 72.0697 150 72.5342ZM154.297 71.373C154.065 70.9666 154.239 70.4441 154.587 70.1538C154.994 69.9215 155.574 70.0957 155.807 70.4441C156.736 72.0117 157.374 73.8116 157.664 75.6114C157.723 76.0759 157.548 76.5404 157.084 76.6566C156.677 76.7727 156.097 76.4824 156.039 76.076C155.923 75.205 155.69 74.3922 155.4 73.5793C155.342 73.3471 155.226 73.1729 155.168 72.9407C155.226 73.0568 155.11 72.8245 155.11 72.8245C155.052 72.7084 154.994 72.5923 154.936 72.4762C154.761 72.1278 154.529 71.7214 154.297 71.373ZM145.994 69.1087C145.762 69.5151 145.24 69.6312 144.775 69.399C144.369 69.1667 144.252 68.5861 144.485 68.1797C145.181 66.9604 146.168 65.9734 147.388 65.2186C147.794 64.9864 148.317 65.1605 148.607 65.5089C148.839 65.9153 148.665 66.4379 148.317 66.7282C148.085 66.8443 147.91 67.0185 147.678 67.1926C147.736 67.1346 147.794 67.0765 147.852 67.0765C147.33 67.483 146.865 67.9474 146.459 68.47C146.517 68.4119 146.575 68.3539 146.575 68.2958C146.343 68.5861 146.169 68.8764 145.994 69.1087ZM153.6 63.8832C153.716 64.3477 153.484 64.8122 153.02 64.9283C152.613 65.0444 152.033 64.7541 151.975 64.3477C151.8 63.5929 152.381 63.0703 153.078 63.0703C153.426 63.0703 153.833 63.1284 154.239 63.1865C155.052 63.3026 155.923 63.4187 156.736 63.5929C157.2 63.709 157.432 64.2316 157.316 64.638C157.2 65.1025 156.677 65.3347 156.271 65.2186C155.69 65.1025 155.11 64.9863 154.471 64.8702C154.413 64.8702 154.413 64.8702 154.529 64.8702C154.471 64.8702 154.413 64.8702 154.413 64.8702C154.355 64.8702 154.297 64.8702 154.181 64.8702C154.065 64.8702 153.891 64.8122 153.774 64.8122C153.6 64.8122 153.484 64.8122 153.31 64.7541C153.252 64.7541 153.194 64.7541 153.136 64.7541C153.078 64.7541 153.136 64.7541 153.252 64.7541C153.484 64.6961 153.6 64.5218 153.716 64.2896C153.6 64.1154 153.6 63.9993 153.6 63.8832C153.6 63.8251 153.6 63.8251 153.6 63.8832ZM269.141 258.154C265.948 258.27 262.87 257.051 260.432 254.961C257.993 252.813 256.6 249.852 256.252 246.658C255.613 240.794 258.11 235.046 257.413 229.24C257.064 226.511 255.845 224.189 253.813 222.331C251.897 220.531 249.517 219.312 247.252 218.034C244.872 216.757 242.491 215.48 240.343 213.796C237.846 211.822 235.93 209.209 234.131 206.538C230.937 201.835 227.512 196.204 221.705 194.694C220.893 196.378 219.906 198.003 218.744 199.513C214.274 205.377 207.655 209.383 200.397 210.603C200.513 214.899 200.746 219.254 201.094 223.55C201.733 231.621 202.894 239.633 204.403 247.587C205.565 253.626 206.668 261.057 212.009 265.005C212.88 265.644 212.009 267.154 211.138 266.515C208.177 264.367 206.377 261.173 205.158 257.806C203.939 254.438 203.3 250.897 202.662 247.413C201.849 243.291 201.21 239.168 200.629 235.046C199.526 227.034 198.888 218.963 198.714 210.893C198.423 210.835 198.307 210.603 198.249 210.312C197.494 209.441 196.855 208.57 196.333 207.525C195.056 205.029 194.533 202.242 194.881 199.513C195.462 199.339 196.101 199.165 196.681 198.99C196.043 202.532 197.088 206.306 199.468 209.093C199.468 209.093 199.468 209.093 199.526 209.093C201.442 208.803 203.358 208.338 205.158 207.7C211.719 205.261 217.235 200.268 220.254 193.939C220.254 193.823 220.254 193.765 220.254 193.649C219.848 192.952 219.383 192.255 218.919 191.559C216.538 188.017 213.983 184.591 211.545 181.108C210.442 179.54 209.339 177.972 208.294 176.347C207.306 174.779 206.436 173.095 205.332 171.586C202.836 168.102 199.236 164.851 195.114 163.573C193.14 162.935 190.875 163.225 188.843 163.457C186.579 163.748 184.373 164.212 182.166 164.735C179.67 165.315 177.057 165.954 174.676 167.057C173.689 167.521 172.702 168.16 172.122 169.089C171.657 169.902 171.425 171.121 172.064 171.934C173.399 173.792 176.65 172.515 178.276 171.876C180.54 171.005 182.689 169.96 185.069 169.67C187.043 169.438 189.25 169.728 190.875 170.947C191.34 171.295 191.746 171.702 192.037 172.166C193.894 171.586 195.752 171.121 197.668 170.831C198.772 170.657 199.236 172.341 198.133 172.515C194.591 173.037 191.107 174.14 187.856 175.65C185.011 177.043 182.282 178.727 179.902 180.817C178.682 181.863 177.521 182.966 176.476 184.127C175.489 185.172 174.328 186.74 175.954 187.843C176.708 188.365 177.579 188.365 178.45 188.191C183.85 182.966 190.817 179.308 198.249 177.972C199.352 177.74 199.817 179.424 198.714 179.656C194.882 180.353 191.224 181.63 187.798 183.488C184.779 185.114 181.992 187.146 179.495 189.585C178.392 190.63 176.592 192.139 176.824 193.881C177.115 195.797 179.612 195.333 180.831 194.752C182.515 193.997 184.14 193.126 185.824 192.372C187.566 191.617 189.249 190.92 191.049 190.281C194.649 188.946 198.307 187.901 202.081 187.088C203.184 186.856 203.649 188.539 202.545 188.772C197.959 189.759 193.43 191.152 189.075 192.894C187.159 193.649 185.243 194.52 183.385 195.449C181.702 196.32 179.902 197.307 177.928 196.9C176.128 196.552 174.967 194.984 175.141 193.184C175.257 191.965 175.954 190.92 176.767 189.933C175.605 189.759 174.618 189.236 173.863 188.075C172.818 186.449 173.689 184.707 174.85 183.372C176.012 182.037 177.289 180.759 178.624 179.598C182.108 176.637 186.114 174.257 190.411 172.689C189.133 171.354 186.985 171.121 185.185 171.354C182.689 171.644 180.366 172.979 177.986 173.792C175.896 174.489 173.225 175.069 171.309 173.56C169.509 172.108 169.741 169.379 171.077 167.638C172.586 165.664 175.199 164.851 177.463 164.154C180.018 163.341 182.631 162.761 185.243 162.238C187.508 161.832 189.772 161.425 192.094 161.367C194.301 161.309 196.275 161.832 198.249 162.819C202.429 164.909 205.797 168.451 208.235 172.457C210.268 175.882 212.474 179.076 214.796 182.269C217.235 185.695 219.79 189.062 221.938 192.662C222.054 192.72 222.17 192.836 222.286 193.01C228.963 194.636 232.737 201.139 236.395 206.422C238.137 208.977 240.111 211.357 242.607 213.157C244.814 214.725 247.252 215.886 249.633 217.221C251.897 218.499 254.219 219.834 256.019 221.75C257.935 223.782 259.039 226.279 259.387 229.008C260.142 234.814 257.761 240.446 258.226 246.194C258.458 249.039 259.619 251.651 261.767 253.567C263.858 255.425 266.586 256.471 269.373 256.354C270.244 256.412 270.244 258.154 269.141 258.154ZM199.062 145.807C201.675 148.071 204.171 150.452 206.61 152.89C207.423 153.703 208.642 152.426 207.829 151.671C199.352 143.252 190.12 135.704 179.379 130.421C176.418 128.969 173.341 127.692 170.264 126.531C169.683 118.228 169.393 109.925 169.044 101.681C169.044 101.042 168.986 100.403 168.986 99.7647C174.444 98.3713 179.96 96.9197 185.418 95.5263C185.94 95.4102 186.521 95.236 187.043 95.1199C187.74 94.9457 187.798 94.1328 187.45 93.6683C183.153 88.3268 178.973 82.9852 174.734 77.5855C172.47 74.7405 170.264 71.8956 167.999 69.0506C165.909 66.4379 163.935 63.5929 161.497 61.2705C159.929 59.7609 158.245 58.4835 156.329 57.4384C157.607 57.1481 159 56.6837 160.393 55.8708C164.109 53.6645 167.941 44.4909 163.238 38.1042C154.936 49.7744 147.446 41.2395 135.485 46.9295C126.254 51.284 126.602 68.47 130.608 76.8888C127.821 76.7146 124.976 77.6436 123.002 79.6176C119.693 82.9271 119.286 88.6171 122.131 92.3329C123.641 94.3651 126.021 95.5843 128.518 95.9908C124.686 105.106 120.506 114.106 116.151 122.989C116.151 122.989 116.151 122.989 116.093 122.989C104.016 128.331 91.8236 133.44 80.4437 140.175C69.9348 146.387 60.0644 153.935 51.994 163.167C47.5814 168.218 43.7494 173.734 40.7303 179.714C40.2077 180.701 41.7174 181.572 42.2399 180.585C47.5815 169.96 55.5358 160.961 64.5933 153.355C74.3475 145.226 85.379 138.956 96.817 133.498C103.262 130.421 109.823 127.634 116.383 124.731C116.383 124.731 116.383 124.731 116.441 124.731C116.325 125.079 116.441 125.428 116.848 125.602C129.679 131.117 143.962 132.975 157.781 130.943C161.671 130.363 165.503 129.492 169.219 128.331C169.335 128.273 169.451 128.214 169.509 128.156C174.967 130.188 180.308 132.627 185.301 135.646C190.179 138.549 194.765 142.033 199.062 145.807ZM128.634 127.75C124.918 126.821 121.261 125.602 117.719 124.092C117.661 124.092 117.603 124.034 117.545 124.034C122.073 114.802 126.37 105.513 130.318 96.0488C131.828 95.9907 133.279 95.6424 134.614 94.8876C135.021 94.6553 135.195 94.1328 134.963 93.7264C134.731 93.32 134.208 93.1458 133.802 93.378C130.55 95.236 125.847 94.2489 123.525 91.2878C121.261 88.2687 121.551 83.5077 124.222 80.8369C126.892 78.1661 131.653 77.8758 134.673 80.1402C135.079 80.4305 135.601 80.3724 135.892 79.966C136.182 79.5596 136.124 79.037 135.718 78.7467C135.485 78.5725 135.253 78.4564 135.079 78.2822L136.53 78.3403C142.569 74.6244 141.582 68.7022 143.149 64.2896C145.414 57.961 148.781 58.0771 152.846 57.7868C158.884 59.6448 162.658 64.9864 166.374 69.6893C170.728 75.147 174.967 80.6627 179.321 86.1785C181.295 88.6751 183.269 91.1717 185.243 93.6683C181.063 94.7715 176.825 95.8746 172.644 96.9778C171.018 97.3842 169.393 97.7906 167.767 98.1971C167.419 98.3132 167.128 98.6616 167.128 99.0099C167.419 106.093 167.709 113.177 168.057 120.26C168.174 122.35 168.29 124.499 168.406 126.589C155.632 130.653 141.698 131.059 128.634 127.75ZM136.182 86.4688C136.472 86.8172 136.53 87.3397 136.182 87.6881C135.892 87.9784 135.253 88.0365 134.963 87.6881C133.163 85.4237 130.376 84.0883 127.473 84.1464C126.37 84.1464 126.37 82.4045 127.473 82.4045C130.782 82.3465 134.034 83.8561 136.182 86.4688ZM145.53 110.912C144.949 111.783 144.02 112.364 142.975 112.538C141.001 112.828 139.027 111.899 137.924 110.216C136.646 108.3 136.53 105.803 136.472 103.539C136.472 102.435 138.214 102.435 138.214 103.539C138.272 105.745 138.272 108.416 139.956 109.983C140.479 110.506 141.466 110.796 142.162 110.854C142.278 110.854 142.336 110.854 142.453 110.854C142.511 110.854 142.569 110.854 142.627 110.854C142.743 110.854 142.859 110.796 142.975 110.796L143.207 110.738C143.614 110.564 143.788 110.39 143.962 110.1C144.194 109.693 144.717 109.519 145.181 109.809C145.588 109.983 145.762 110.506 145.53 110.912ZM120.273 152.368C118.474 150.974 116.035 150.336 113.887 149.697C111.622 149 109.3 148.536 106.978 148.129C104.945 147.723 102.855 147.374 100.765 147.316C98.7909 147.258 96.9911 147.549 95.1912 148.362C93.3333 149.174 91.6495 150.277 90.0819 151.613C88.4562 153.006 87.0047 154.632 85.7273 156.374C84.508 158.058 83.579 159.916 82.4759 161.657C79.9793 165.547 77.2505 169.321 74.6958 173.153C74.1732 173.966 73.6506 174.779 73.1862 175.592C71.6766 175.127 69.9348 175.127 68.4252 175.302C64.9996 175.708 61.6901 177.218 59.2516 179.656C56.3486 182.501 55.2455 186.391 54.3745 190.281C53.5617 193.997 52.4585 197.481 50.6006 200.79C48.8588 203.868 46.7687 206.712 44.5623 209.499C40.1497 215.073 35.2145 220.357 32.0212 226.801C31.2664 228.369 30.5697 229.995 30.0472 231.621C29.6988 232.666 31.3825 233.13 31.7309 232.085C35.9693 218.615 48.975 210.312 54.1424 197.307C55.5939 193.649 56.0002 189.701 57.2776 185.985C58.4969 182.617 60.7612 179.947 63.9546 178.321C65.4641 177.566 67.0899 177.102 68.7736 176.927C69.8187 176.811 71.1541 176.811 72.1992 177.043C70.9799 179.308 70.4573 181.863 71.4443 184.359C72.4314 186.798 74.4055 188.656 76.6118 189.933C78.8762 191.268 81.3728 192.081 83.9855 192.546C86.7724 193.068 89.6174 193.359 92.4624 192.952C94.6687 192.662 97.0491 191.907 98.1523 189.991C98.5006 190.165 98.791 190.397 99.0813 190.63C101.81 192.952 103.726 196.378 103.726 200.036C103.668 203.577 101.926 207.119 99.6038 209.732C97.6297 211.996 95.0171 213.506 92.4624 215.015C88.7465 217.163 82.7663 220.008 83.5791 225.234C84.1597 228.717 87.5271 230.75 88.5722 234.059C89.8496 238.065 86.8885 241.897 84.2177 244.568C82.6501 244.22 80.7921 244.452 79.5728 245.671C78.4116 246.832 78.1214 248.807 79.5149 249.91C79.9213 250.258 80.3276 250.258 80.734 249.91C82.0114 248.865 83.4049 247.761 84.6822 246.6C84.7403 246.658 84.8565 246.658 84.9145 246.716C87.9917 248.458 85.9016 252.232 84.6242 254.438C84.0436 255.425 85.5531 256.296 86.1337 255.309C87.2369 253.451 88.4561 251.419 88.2819 249.155C88.1658 247.529 87.295 246.194 86.0176 245.323C87.4111 243.929 88.6304 242.362 89.5013 240.62C90.3722 238.82 90.8947 236.788 90.6044 234.756C90.3141 232.666 89.0948 231.04 87.8755 229.414C86.424 227.498 84.5661 225.06 85.7273 222.621C86.7724 220.473 89.1529 219.137 91.0689 217.918C93.5074 216.467 96.0041 215.189 98.2685 213.448C101.23 211.183 103.494 208.106 104.713 204.622C105.932 201.139 105.758 197.423 104.075 194.113C103.204 192.372 101.926 190.862 100.475 189.585C100.068 189.236 99.6619 188.83 99.1394 188.598C98.9072 188.481 98.7329 188.365 98.5007 188.307C98.5587 187.727 98.5007 187.146 98.3846 186.623C100.707 187.204 103.029 187.611 105.41 187.494C107.094 187.436 111.042 187.088 110.171 184.359C109.881 183.488 109.242 182.733 108.603 182.153C107.674 181.282 106.687 180.527 105.642 179.83C105.468 179.714 105.236 179.598 105.062 179.424C106.049 179.83 107.036 180.295 108.023 180.759C109.764 181.572 111.564 182.85 113.596 182.908C115.28 182.966 116.964 181.979 117.312 180.237C117.661 178.553 116.79 177.043 115.687 175.824C116.5 175.708 117.312 175.418 117.951 174.779C121.086 171.934 116.79 168.218 114.7 166.302C112.145 163.98 109.242 161.948 106.107 160.38C104.771 159.741 103.436 159.161 102.1 158.638C102.797 157.883 103.784 157.477 104.945 157.303C107.036 157.013 109.068 157.651 110.984 158.406C113.132 159.219 115.28 160.322 117.661 160.438C119.635 160.554 121.725 159.741 122.306 157.651C122.944 155.619 121.841 153.587 120.273 152.368ZM80.4437 247.994C80.3857 247.471 80.7921 246.89 81.3147 246.6C81.663 246.368 82.1276 246.252 82.534 246.194C81.8373 246.832 81.1405 247.413 80.4437 247.994ZM116.325 158.406C114.119 157.825 112.029 156.78 109.881 156.084C106.745 155.097 102.449 155.155 100.359 158C98.5587 157.419 96.6428 156.954 94.7849 156.664C93.6817 156.49 93.2172 158.174 94.3203 158.348C100.649 159.335 106.687 161.948 111.68 165.896C112.9 166.883 114.119 167.928 115.222 169.089C116.093 169.96 118.009 171.586 117.196 172.979C116.558 174.14 115.222 174.198 114.003 174.024C111.68 171.76 109.01 169.786 106.165 168.16C102.449 166.07 98.3846 164.56 94.2042 163.806C93.1011 163.573 92.6366 165.257 93.7397 165.489C100.533 166.767 106.919 169.902 111.971 174.547C112.609 175.127 113.19 175.708 113.771 176.289C114.409 176.985 115.164 177.682 115.454 178.611C116.093 180.353 114.583 181.398 112.958 181.108C112.029 180.934 111.216 180.469 110.403 180.063C109.59 179.656 108.719 179.25 107.906 178.843C106.165 178.031 104.423 177.276 102.623 176.637C99.8361 175.534 96.9331 174.605 94.03 173.85C93.972 173.85 93.9138 173.792 93.7977 173.792C92.8687 173.444 91.9398 173.153 90.9528 173.037C90.8947 173.037 90.7787 173.037 90.7206 173.037C90.6045 173.037 90.4883 172.979 90.3722 172.921C89.269 172.689 88.8045 174.373 89.9077 174.605C91.1269 174.837 92.2881 175.127 93.5074 175.476C94.3203 175.766 95.1912 176.115 96.004 176.521C98.4426 177.624 100.881 178.901 103.146 180.353C104.191 180.992 105.178 181.688 106.165 182.443C106.571 182.733 106.978 183.082 107.326 183.43C107.558 183.662 108.023 184.127 108.081 184.243C108.197 184.359 108.255 184.533 108.371 184.649C108.371 184.649 108.429 184.707 108.429 184.766C108.429 184.824 108.487 184.882 108.487 184.94C108.487 184.94 108.487 184.94 108.487 184.998C108.487 184.998 108.487 185.056 108.487 185.114L108.429 185.172C108.371 185.23 108.197 185.288 108.197 185.288C107.616 185.52 106.978 185.578 106.339 185.636C100.823 186.159 95.4235 183.837 90.3722 182.095C89.3271 181.746 88.8626 183.43 89.9077 183.779C92.0559 184.533 94.2622 185.288 96.4686 185.985C96.5266 186.101 96.5266 186.217 96.5846 186.333C96.8169 187.204 96.933 188.133 96.5846 189.004C96.5266 189.178 96.5267 189.294 96.5267 189.41C95.6558 190.572 93.8558 191.036 92.5204 191.21C90.0818 191.559 87.5853 191.384 85.1467 190.978C80.8502 190.281 75.857 188.598 73.5346 184.591C72.025 181.979 72.7217 179.192 74.3474 176.869C76.7279 172.979 79.3987 169.263 81.9534 165.489C83.0565 163.864 84.1597 162.18 85.1467 160.438C86.1918 158.638 87.295 156.896 88.6304 155.329C89.9658 153.819 91.4172 152.484 93.101 151.381C94.6686 150.394 96.4105 149.349 98.2685 149.058C100.184 148.768 102.217 149 104.075 149.29C106.107 149.581 108.081 149.987 110.113 150.452C112.435 150.974 114.758 151.613 116.964 152.484C118.706 153.181 120.738 154.4 120.68 156.548C120.738 158.929 117.951 158.87 116.325 158.406Z" fill="black"/>
<path d="M65.6381 94.4815C64.7672 93.8428 65.6381 92.3333 66.509 92.9719C72.6634 97.5587 78.8179 102.204 85.0304 106.79C85.9014 107.429 85.0304 108.939 84.1595 108.3C78.0051 103.655 71.7925 99.0683 65.6381 94.4815ZM84.624 95.1202C87.9335 98.1974 91.2429 101.275 94.6105 104.352C95.4233 105.107 96.6425 103.887 95.8296 103.133C92.5202 100.055 89.2108 96.9781 85.8432 93.9009C85.0304 93.1461 83.8112 94.3654 84.624 95.1202ZM215.551 117.532C221.125 113.409 226.757 109.287 232.33 105.165C233.201 104.526 232.33 103.016 231.459 103.655C225.886 107.777 220.254 111.9 214.68 116.022C213.751 116.719 214.622 118.228 215.551 117.532ZM221.531 123.57C224.202 122.351 226.873 121.189 229.543 119.97C229.95 119.796 230.066 119.157 229.834 118.751C229.601 118.286 229.079 118.228 228.615 118.461C225.944 119.68 223.273 120.841 220.602 122.06C220.196 122.235 220.08 122.873 220.312 123.28C220.602 123.686 221.125 123.744 221.531 123.57ZM72.4893 112.771C73.8247 113.409 75.1602 114.106 76.4955 114.745C76.902 114.977 77.4825 114.861 77.7147 114.454C77.947 114.048 77.8309 113.467 77.4244 113.235C76.089 112.596 74.7537 111.9 73.4183 111.261C73.0119 111.029 72.4312 111.145 72.199 111.551C71.9667 111.958 72.0248 112.538 72.4893 112.771Z" fill="black"/>
</svg>
