<svg width="300" height="300" viewBox="0 0 300 300" fill="none" xmlns="http://www.w3.org/2000/svg">
<path d="M196.042 172.205C205.158 182.714 223.505 164.193 234.943 156.238C246.381 148.284 256.774 135.162 253.464 121.634C249.4 105.029 226.873 96.61 226.176 79.5401C225.886 71.818 230.356 64.8507 232.737 57.5351C235.117 50.2194 234.362 40.2911 227.337 37.1558C225.247 36.2268 222.866 36.0526 220.544 35.8785C209.745 35.1817 198.945 34.4269 188.146 33.7302C173.921 32.8012 159.232 31.9303 145.82 36.6913C126.776 43.4844 113.422 60.4381 96.5845 71.76C94.2621 73.3276 91.7655 74.8372 88.9786 74.9533C80.6179 75.3017 76.96 64.2121 69.6444 60.0898C62.5029 56.0255 52.6906 59.9737 48.5102 67.0571C44.3299 74.1405 44.7363 83.1399 47.4071 90.92C50.0779 98.7001 54.7228 105.609 58.7871 112.751C62.8513 119.892 66.393 127.672 66.5672 135.859C66.7413 144.742 62.8512 153.219 58.6708 161.057C54.4905 168.896 173.399 146.078 196.042 172.205Z" fill="#16202C"/>
<path d="M257.76 249.31C254.741 241.472 260.663 232.008 256.948 224.518C253.87 218.306 245.858 216.68 240.516 212.268C236.917 209.248 234.594 205.068 231.865 201.236C229.137 197.404 225.537 193.804 220.892 192.991L220.95 192.643C217.466 186.837 212.415 181.437 209.86 176.734C207.886 173.193 223.795 165.122 223.795 165.122C212.009 153.452 184.894 132.086 169.276 126.454C168.695 118.325 167.941 98.3525 167.941 98.3525C174.153 96.7849 186.694 93.4754 186.694 93.4754C179.378 84.418 171.424 73.967 163.18 63.6903C160.451 60.2647 156.793 57.2455 152.613 56.0843L139.317 53.3555L133.569 77.741C130.317 76.2314 126.079 76.8701 123.524 79.4247C120.505 82.3858 120.157 87.6694 122.711 91.0369C124.337 93.1851 126.95 94.3463 129.621 94.4624L129.562 94.6947C125.092 105.262 121.028 114.029 116.499 123.202L116.441 122.97C101.635 129.531 87.7587 135.221 74.2306 144.279C60.7605 153.278 48.6258 164.89 41.3102 179.405C41.3102 179.405 50.5418 176.618 59.1348 180.102C58.4961 180.799 57.9735 181.553 57.5091 182.366C55.4769 185.908 55.1287 190.146 53.9674 194.037C49.729 208.087 35.0977 217.087 30.7432 231.137C30.7432 231.137 37.5943 246.465 85.2621 254.129C86.8297 254.362 86.8298 251.401 87.1781 249.949C87.4684 248.497 87.2362 246.93 86.133 245.827C85.6685 245.362 85.0879 245.072 84.3912 244.84C85.4943 243.795 86.5395 242.691 87.3523 241.472C89.2683 238.859 90.2554 235.724 89.2684 232.879C88.6297 231.079 87.2942 229.57 86.133 228.002C79.6883 219.235 92.1133 216.68 98.3839 211.397C100.126 209.887 101.635 207.971 102.68 205.997C105.467 209.365 109.009 212.151 112.957 214.067C116.383 216.738 119.982 218.074 122.885 218.596C123.35 218.77 123.873 218.945 124.395 219.061L124.163 218.77C124.337 218.77 124.569 218.828 124.743 218.828L128.459 197.056C128.459 197.056 149.187 197.927 150.696 175.747C150.929 172.148 150.58 169.187 149.826 166.632C156.27 165.819 161.902 166.051 166.953 166.574C168.231 167.561 169.566 168.896 170.669 170.58C170.727 171.045 170.96 171.509 171.308 171.915C171.424 172.032 171.482 172.09 171.598 172.206C173.514 176.038 174.443 181.437 172.643 189.101C171.076 195.836 168.231 200.83 165.038 204.604C164.921 204.546 164.863 204.429 164.747 204.371L164.863 204.836C157.722 213.139 149.013 215.055 149.013 215.055L145.761 238.221L197.203 226.609L190.41 199.727C192.152 199.494 193.894 199.03 195.636 198.507C195.461 199.61 195.461 200.772 195.577 201.933C195.926 204.604 197.087 207.158 198.887 209.132H199.351C199.642 223.009 201.209 236.885 204.112 250.413C205.274 255.871 206.899 261.735 211.428 264.987C211.428 264.987 220.021 248.323 239.762 256.452C259.502 264.58 269.024 256.452 269.024 256.452C264.147 256.858 259.444 253.781 257.76 249.31ZM184.256 175.747L182.862 170.232C183.094 170.174 183.385 170.057 183.617 169.999C186.346 169.361 189.655 169.767 191.223 172.09C191.281 172.206 191.339 172.322 191.397 172.438C188.9 173.309 186.52 174.412 184.256 175.747ZM188.204 191.424C191.455 190.088 194.881 188.985 198.19 188.056C195.461 189.043 191.687 190.901 188.552 192.875L188.204 191.424Z" fill="#111217"/>
<path d="M135.021 153.567L136.879 135.045C136.879 135.045 122.364 137.426 111.565 148.515C112.32 148.69 113.132 148.922 113.887 149.154C116.035 149.793 118.416 150.432 120.274 151.825C121.841 153.044 122.887 155.076 122.364 157.108C121.783 159.141 119.693 160.012 117.719 159.895C115.397 159.779 113.19 158.676 111.042 157.863C109.242 157.167 107.384 156.586 105.41 156.76C105.004 157.515 104.597 158.212 104.249 159.024C104.888 159.315 105.526 159.605 106.165 159.895C109.242 161.463 112.145 163.437 114.758 165.818C116.848 167.734 121.145 171.449 118.01 174.294C117.313 174.875 116.558 175.223 115.745 175.34C116.79 176.559 117.719 178.068 117.371 179.752C117.022 181.494 115.339 182.481 113.655 182.423C111.681 182.365 109.823 181.146 108.081 180.275C107.094 179.81 106.107 179.346 105.12 178.939C105.294 179.055 105.526 179.172 105.701 179.346C106.746 180.042 107.733 180.797 108.662 181.668C109.3 182.307 109.997 183.004 110.229 183.874C111.042 186.603 107.152 186.952 105.468 187.01C103.727 187.068 102.043 186.894 100.359 186.545C100.533 188.519 99.8364 190.842 101.056 192.177C102.043 193.28 103.901 193.977 104.365 195.603C104.888 197.461 103.436 201.002 104.133 202.57C109.533 214.821 119.171 218.827 124.919 219.117L128.635 197.345C128.635 197.345 149.362 198.215 150.872 176.036C152.207 155.889 135.021 153.567 135.021 153.567Z" fill="#CB730B"/>
<path d="M98.5009 186.545C98.5009 186.371 98.5008 186.197 98.4427 185.965H98.3848C98.4428 186.139 98.4428 186.313 98.5009 186.545Z" fill="#DCDCDC"/>
<path d="M104.017 147.006C109.881 140.387 117.545 135.452 126.022 132.839C126.196 132.781 126.312 132.723 126.37 132.607C129.157 132.955 131.944 133.594 134.615 134.465C125.673 137.484 117.371 142.129 110.113 148.109C110.81 148.283 111.564 148.458 112.261 148.632C119.577 142.768 127.996 138.297 136.995 135.568C137.227 135.51 137.344 135.394 137.46 135.278C138.098 135.046 138.272 133.884 137.402 133.594C133.744 132.317 130.028 131.33 126.138 130.923C125.847 130.865 125.615 131.039 125.441 131.272C116.5 134.059 108.429 139.342 102.333 146.426C102.217 146.542 102.159 146.716 102.101 146.832C102.681 146.832 103.378 146.89 104.017 147.006Z" fill="#DCDCDC"/>
<path d="M127.763 200.305C125.383 199.318 123.815 197.112 122.422 195.08C121.667 194.035 120.97 192.931 120.158 191.944C119.403 190.957 118.474 189.854 117.429 189.216C116.267 188.519 114.642 188.403 113.829 189.738C113.074 190.957 113.597 192.583 113.829 193.86C114.467 196.88 115.397 199.841 116.674 202.686C118.125 205.995 120.041 209.014 122.306 211.859C123.002 212.73 124.222 211.511 123.525 210.64C119.925 206.169 117.371 200.944 115.977 195.428C115.629 194.151 115.222 192.699 115.222 191.364C115.164 189.68 116.732 190.725 117.371 191.364C119.054 192.989 120.274 195.08 121.667 196.938C123.177 199.028 124.918 200.944 127.357 201.931C127.821 202.105 128.286 201.757 128.402 201.35C128.518 200.886 128.17 200.479 127.763 200.305Z" fill="#DCDCDC"/>
<path d="M137.75 169.011C136.647 167.559 135.66 166.05 134.673 164.482C130.376 157.457 127.531 149.619 126.254 141.49C126.08 140.387 124.396 140.852 124.57 141.955C125.615 148.864 127.879 155.541 131.073 161.695C132.699 164.773 134.556 167.734 136.647 170.52C137.517 171.624 138.853 173.249 138.098 174.759C137.866 175.223 137.401 175.688 136.821 175.572C136.124 175.456 135.718 174.585 135.427 174.004C134.44 172.262 133.511 170.521 132.582 168.837C131.769 167.327 131.015 165.643 129.912 164.308C129.041 163.205 127.705 162.334 126.254 162.682C124.802 163.031 123.931 164.424 123.815 165.818C123.641 167.501 124.512 169.069 125.267 170.52C126.138 172.204 126.95 173.888 127.705 175.63C129.215 179.113 130.434 182.713 131.363 186.371C131.537 187.068 131.77 187.765 131.653 188.519C131.537 189.448 130.84 189.1 130.26 188.635C128.808 187.358 127.531 185.849 126.312 184.339C123.815 181.262 121.783 177.836 120.215 174.236C119.751 173.191 118.241 174.12 118.706 175.107C120.215 178.417 122.073 181.61 124.28 184.513C125.383 185.965 126.602 187.416 127.879 188.752C128.925 189.855 130.434 191.597 132.176 190.668C133.453 189.971 133.511 188.403 133.279 187.126C132.989 185.268 132.35 183.41 131.77 181.668C130.55 177.894 129.041 174.178 127.241 170.637C126.544 169.185 125.151 167.385 125.557 165.701C125.673 165.121 126.08 164.54 126.66 164.424C127.415 164.308 128.054 164.947 128.46 165.469C128.925 166.05 129.273 166.688 129.621 167.327C130.144 168.314 130.724 169.301 131.247 170.288C132.176 172.03 133.105 173.83 134.15 175.514C134.905 176.791 136.24 177.836 137.808 177.256C139.143 176.733 140.072 175.223 139.956 173.772C140.014 171.856 138.795 170.404 137.75 169.011Z" fill="#DCDCDC"/>
<path d="M101.869 191.074C101.694 189.622 101.636 188.113 101.694 186.661C101.114 186.603 100.533 186.487 99.9525 186.371C99.8944 187.765 99.9524 189.158 100.069 190.551" fill="#DCDCDC"/>
<path d="M103.727 204.718C113.016 217.492 121.145 218.537 124.222 219.466C125.325 219.756 125.79 218.072 124.687 217.782C115.687 215.169 108.255 208.608 104.481 200.189" fill="#DCDCDC"/>
<path d="M169.916 169.476C170.032 168.605 170.38 167.734 170.903 167.037C172.412 165.063 175.025 164.25 177.289 163.553C178.567 163.147 179.844 162.799 181.121 162.508L175.548 140.503L166.258 142.826L161.148 163.67C161.148 163.67 166.2 164.773 169.916 169.476Z" fill="#006C8F"/>
<path d="M174.618 182.771C175.779 181.436 177.056 180.159 178.392 178.997C180.192 177.488 182.108 176.094 184.198 174.933L183.211 171.101C181.353 171.624 179.553 172.553 177.753 173.133C176.069 173.714 173.979 174.178 172.237 173.54C173.34 176.327 173.921 179.926 173.457 184.455C173.805 183.932 174.211 183.294 174.618 182.771Z" fill="#006C8F"/>
<path d="M185.069 200.77C184.082 200.654 182.921 200.364 182.34 199.493C181.875 198.796 182.05 197.925 182.398 197.228C183.385 195.429 185.417 194.093 187.159 192.99C185.824 193.571 184.488 194.151 183.211 194.848C181.527 195.719 179.727 196.706 177.753 196.3C175.953 195.951 174.792 194.384 174.966 192.584C175.082 191.364 175.779 190.319 176.592 189.332C175.431 189.158 174.444 188.635 173.689 187.474C173.457 187.126 173.341 186.778 173.283 186.429C173.166 187.3 172.992 188.229 172.76 189.158C167.651 210.931 149.129 215.111 149.129 215.111L145.878 238.277L197.32 226.665L190.759 200.654C188.843 201.002 186.985 201.061 185.069 200.77Z" fill="#006C8F"/>
<path d="M144.253 210.989C143.962 210.582 144.195 210.06 144.543 209.769C144.949 209.479 145.472 209.711 145.762 210.06C146.865 211.743 148.027 213.369 149.13 215.053C149.42 215.459 149.188 215.982 148.839 216.272C148.433 216.562 147.91 216.33 147.62 215.982C146.517 214.298 145.414 212.672 144.253 210.989ZM172.993 212.324C174.386 214.24 177.579 218.014 174.967 220.22C173.805 221.207 172.122 220.743 171.135 219.698C170.032 218.536 169.335 216.969 168.348 215.691C167.419 214.472 166.316 213.137 165.038 212.266C164.574 211.918 163.645 211.453 163.064 212.034C162.6 212.556 163.122 213.427 163.413 213.892C164.284 215.401 165.329 216.853 166.316 218.362C167.361 219.93 168.406 221.556 169.451 223.123C170.09 224.052 168.58 224.923 167.941 223.994C166.78 222.252 165.677 220.51 164.516 218.769C163.935 217.898 163.355 217.027 162.774 216.156C162.251 215.401 161.729 214.646 161.381 213.775C160.916 212.44 161.206 210.93 162.6 210.35C163.993 209.711 165.387 210.35 166.49 211.221C167.767 212.266 168.87 213.543 169.857 214.821C170.38 215.517 170.844 216.156 171.309 216.911C171.715 217.549 172.064 218.362 172.644 218.827C173.167 219.233 173.864 219.291 174.096 218.594C174.328 217.956 174.038 217.317 173.689 216.737C172.935 215.343 171.948 214.008 170.961 212.672C169.045 210.06 166.896 207.679 164.516 205.473C160.8 210.06 156.039 213.775 150.639 216.156C149.478 223.704 148.317 231.252 147.156 238.8C146.981 239.845 145.53 239.496 145.472 238.509C145.356 238.451 145.24 238.335 145.182 238.219C143.788 236.071 142.22 234.097 140.421 232.239C140.13 231.948 140.13 231.6 140.246 231.368C141.466 224.11 142.743 216.853 143.962 209.537C144.078 209.014 144.485 208.84 144.833 208.956C149.943 208.085 154.762 206.111 159 203.092C164.051 199.493 168.232 194.325 170.554 188.461C170.67 187.938 170.728 187.416 170.786 186.893C170.844 186.661 171.019 186.429 171.251 186.313C171.657 185.093 171.948 183.874 172.122 182.597C172.76 178.649 172.238 174.526 170.148 171.101C168.115 167.849 164.632 165.643 160.858 165.063C160.626 165.121 160.335 165.121 160.103 165.004C159.871 165.004 159.639 164.946 159.465 164.946C158.652 164.946 158.419 164.017 158.768 163.553C157.607 162.334 156.445 161.114 155.226 159.895C154.645 159.953 154.065 159.547 154.239 158.85C156.561 151.476 158.071 143.87 158.768 136.148C158.536 135.626 158.826 134.929 159.523 134.929C159.639 134.871 159.813 134.871 159.929 134.929C162.193 134.871 164.4 134.465 166.548 133.71C166.722 133.536 167.012 133.419 167.245 133.478C167.593 133.419 167.999 133.71 168.115 134C170.38 135.916 172.702 137.832 174.967 139.69C174.967 139.69 174.967 139.748 175.025 139.748C175.141 139.748 175.257 139.748 175.373 139.748C175.838 139.806 176.244 140.096 176.244 140.619C176.244 141.025 175.838 141.548 175.373 141.49C172.702 141.2 170.032 141.664 167.651 142.941C167.245 143.174 166.896 143.058 166.664 142.767C166.606 142.825 166.548 142.883 166.432 142.941C165.038 149.851 163.413 156.702 161.555 163.495C165.967 164.308 169.857 167.095 172.006 171.101C174.967 176.617 174.328 183.061 172.064 188.751C171.657 191.132 170.961 193.454 170.032 195.719C168.812 198.68 167.245 201.467 165.329 204.021C168.348 206.518 170.786 209.305 172.993 212.324ZM172.644 139.748C170.844 138.238 169.103 136.787 167.303 135.277C165.329 135.974 163.297 136.381 161.264 136.497C163.122 138.18 165.038 139.806 166.896 141.49C166.954 141.432 167.012 141.432 167.071 141.374C168.754 140.445 170.67 139.922 172.644 139.748ZM156.561 158.56C157.781 159.837 159.058 161.114 160.277 162.392C162.077 155.715 163.645 149.038 165.038 142.245C165.038 142.187 165.038 142.187 165.096 142.129C163.587 140.793 162.077 139.458 160.568 138.122C159.813 144.974 158.419 151.767 156.445 158.386C156.445 158.444 156.503 158.502 156.561 158.56ZM168.058 196.415C162.716 203.789 154.529 208.898 145.588 210.466C144.427 217.375 143.208 224.342 142.046 231.252C143.44 232.703 144.717 234.271 145.878 235.955C146.865 229.568 147.852 223.181 148.839 216.795C147.794 217.201 147.33 215.517 148.375 215.111C148.665 214.995 148.956 214.879 149.188 214.762C149.362 214.414 149.71 214.356 150.001 214.414C151.975 213.543 153.891 212.44 155.691 211.221C161.09 207.505 165.387 202.337 168.058 196.415ZM164.516 224.459C164.284 224.052 163.703 223.878 163.297 224.168C162.89 224.401 162.716 224.923 163.006 225.388C163.993 226.955 164.98 228.581 166.025 230.149C166.258 230.555 166.838 230.729 167.245 230.439C167.651 230.207 167.825 229.684 167.535 229.22C166.548 227.652 165.561 226.026 164.516 224.459ZM177.986 155.947C176.767 153.973 175.373 152.173 173.805 150.489C172.993 149.618 172.122 148.806 171.251 147.993C170.438 147.296 169.567 146.425 168.58 146.135C167.593 145.902 166.548 146.367 166.258 147.412C165.967 148.399 166.374 149.56 166.664 150.547C167.303 152.87 168.116 155.134 169.161 157.34C170.322 159.779 171.657 162.159 173.225 164.366C173.864 165.295 175.373 164.424 174.735 163.495C171.715 159.315 169.509 154.612 168.232 149.618C168.116 149.27 167.767 148.399 167.941 147.993C168.174 147.586 168.87 148.225 169.103 148.457C170.09 149.212 170.961 150.083 171.831 150.954C173.631 152.754 175.141 154.728 176.476 156.876C177.057 157.805 178.566 156.934 177.986 155.947Z" fill="#DCDCDC"/>
<path d="M201.965 195.603C203.01 195.255 203.474 196.939 202.429 197.287C196.914 199.145 190.991 201.641 185.069 200.771C184.082 200.654 182.921 200.364 182.34 199.493C181.876 198.797 182.05 197.926 182.398 197.229C183.443 195.255 185.708 193.861 187.566 192.7C190.004 191.132 192.617 189.739 195.288 188.52C197.146 187.707 199.236 186.604 201.326 186.488C202.429 186.43 202.429 188.171 201.326 188.229C201.268 188.229 201.036 188.288 201.152 188.229C201.268 188.229 200.978 188.229 200.978 188.288C200.804 188.346 200.571 188.346 200.397 188.404C199.933 188.52 199.41 188.694 198.946 188.868C197.726 189.275 196.565 189.797 195.462 190.378C192.965 191.539 190.585 192.874 188.263 194.326C187.334 194.964 186.405 195.603 185.534 196.358C184.837 196.939 184.314 197.461 183.908 198.158C183.792 198.332 183.85 198.274 183.85 198.216C183.85 198.274 183.792 198.332 183.792 198.39C183.676 198.68 183.792 198.448 183.792 198.39C183.792 198.448 183.792 198.506 183.792 198.564C183.792 198.506 183.792 198.564 183.792 198.564C183.676 198.448 183.966 198.68 183.792 198.622C183.85 198.68 183.908 198.738 184.024 198.738C184.14 198.797 184.082 198.797 184.082 198.797C184.256 198.855 184.43 198.913 184.663 198.971C185.65 199.203 186.637 199.261 187.624 199.203C192.617 199.145 197.378 197.171 201.965 195.603ZM150 71.9339C150.581 73.2693 151.22 74.6047 151.8 75.9401C151.975 76.3465 152.613 76.4626 153.02 76.2304C153.426 75.9401 153.542 75.4756 153.31 75.0111C152.729 73.6757 152.091 72.3403 151.51 71.0049C151.336 70.5985 150.697 70.4824 150.291 70.7146C149.884 71.0049 149.826 71.4694 150 71.9339ZM154.297 70.7727C154.065 70.3663 154.239 69.8437 154.587 69.5534C154.994 69.3212 155.574 69.4954 155.807 69.8437C156.736 71.4114 157.374 73.2112 157.664 75.0111C157.723 75.4756 157.548 75.9401 157.084 76.0562C156.677 76.1723 156.097 75.882 156.039 75.4756C155.923 74.6047 155.69 73.7918 155.4 72.979C155.342 72.7467 155.226 72.5726 155.168 72.3403C155.226 72.4564 155.11 72.2242 155.11 72.2242C155.052 72.1081 154.994 71.992 154.936 71.8758C154.761 71.5275 154.529 71.121 154.297 70.7727ZM145.994 68.5083C145.762 68.9148 145.24 69.0309 144.775 68.7986C144.369 68.5664 144.252 67.9858 144.485 67.5793C145.181 66.3601 146.168 65.373 147.388 64.6183C147.794 64.386 148.317 64.5602 148.607 64.9086C148.839 65.315 148.665 65.8375 148.317 66.1278C148.085 66.2439 147.91 66.4181 147.678 66.5923C147.736 66.5342 147.794 66.4762 147.852 66.4762C147.33 66.8826 146.865 67.3471 146.459 67.8696C146.517 67.8116 146.575 67.7535 146.575 67.6955C146.343 67.9858 146.169 68.2761 145.994 68.5083ZM153.6 63.2829C153.716 63.7474 153.484 64.2118 153.02 64.328C152.613 64.4441 152.033 64.1538 151.975 63.7473C151.8 62.9926 152.381 62.47 153.078 62.47C153.426 62.47 153.833 62.5281 154.239 62.5861C155.052 62.7023 155.923 62.8184 156.736 62.9926C157.2 63.1087 157.432 63.6312 157.316 64.0377C157.2 64.5021 156.677 64.7344 156.271 64.6183C155.69 64.5021 155.11 64.386 154.471 64.2699C154.413 64.2699 154.413 64.2699 154.529 64.2699C154.471 64.2699 154.413 64.2699 154.413 64.2699C154.355 64.2699 154.297 64.2699 154.181 64.2699C154.065 64.2699 153.891 64.2118 153.774 64.2118C153.6 64.2118 153.484 64.2118 153.31 64.1538C153.252 64.1538 153.194 64.1538 153.136 64.1538C153.078 64.1538 153.136 64.1538 153.252 64.1538C153.484 64.0957 153.6 63.9215 153.716 63.6893C153.6 63.5151 153.6 63.399 153.6 63.2829C153.6 63.2248 153.6 63.2248 153.6 63.2829ZM269.141 257.554C265.948 257.67 262.87 256.451 260.432 254.361C257.993 252.212 256.6 249.251 256.252 246.058C255.613 240.194 258.11 234.446 257.413 228.64C257.064 225.911 255.845 223.588 253.813 221.73C251.897 219.931 249.517 218.711 247.252 217.434C244.872 216.157 242.491 214.879 240.343 213.196C237.846 211.221 235.93 208.609 234.131 205.938C230.937 201.235 227.512 195.603 221.705 194.094C220.893 195.777 219.906 197.403 218.744 198.913C214.274 204.777 207.655 208.783 200.397 210.002C200.513 214.299 200.746 218.653 201.094 222.95C201.733 231.02 202.894 239.033 204.403 246.987C205.565 253.025 206.668 260.457 212.009 264.405C212.88 265.044 212.009 266.553 211.138 265.915C208.177 263.766 206.377 260.573 205.158 257.206C203.939 253.838 203.3 250.296 202.662 246.813C201.849 242.69 201.21 238.568 200.629 234.446C199.526 226.433 198.888 218.363 198.714 210.293C198.423 210.234 198.307 210.002 198.249 209.712C197.494 208.841 196.855 207.97 196.333 206.925C195.056 204.428 194.533 201.641 194.881 198.913C195.462 198.738 196.101 198.564 196.681 198.39C196.043 201.932 197.088 205.706 199.468 208.493C199.468 208.493 199.468 208.493 199.526 208.493C201.442 208.202 203.358 207.738 205.158 207.099C211.719 204.661 217.235 199.667 220.254 193.339C220.254 193.223 220.254 193.165 220.254 193.049C219.848 192.352 219.383 191.655 218.919 190.958C216.538 187.417 213.983 183.991 211.545 180.507C210.442 178.94 209.339 177.372 208.294 175.746C207.306 174.179 206.436 172.495 205.332 170.985C202.836 167.502 199.236 164.25 195.114 162.973C193.14 162.334 190.875 162.625 188.843 162.857C186.579 163.147 184.373 163.612 182.166 164.134C179.67 164.715 177.057 165.354 174.676 166.457C173.689 166.921 172.702 167.56 172.122 168.489C171.657 169.302 171.425 170.521 172.064 171.334C173.399 173.192 176.65 171.914 178.276 171.276C180.54 170.405 182.689 169.36 185.069 169.069C187.043 168.837 189.25 169.127 190.875 170.347C191.34 170.695 191.746 171.102 192.037 171.566C193.894 170.985 195.752 170.521 197.668 170.231C198.772 170.056 199.236 171.74 198.133 171.914C194.591 172.437 191.107 173.54 187.856 175.05C185.011 176.443 182.282 178.127 179.902 180.217C178.682 181.262 177.521 182.365 176.476 183.527C175.489 184.572 174.328 186.139 175.954 187.242C176.708 187.765 177.579 187.765 178.45 187.591C183.85 182.365 190.817 178.708 198.249 177.372C199.352 177.14 199.817 178.824 198.714 179.056C194.882 179.753 191.224 181.03 187.798 182.888C184.779 184.514 181.992 186.546 179.495 188.984C178.392 190.029 176.592 191.539 176.824 193.281C177.115 195.197 179.612 194.732 180.831 194.152C182.515 193.397 184.14 192.526 185.824 191.771C187.566 191.016 189.249 190.32 191.049 189.681C194.649 188.346 198.307 187.3 202.081 186.488C203.184 186.255 203.649 187.939 202.545 188.171C197.959 189.158 193.43 190.552 189.075 192.294C187.159 193.048 185.243 193.919 183.385 194.848C181.702 195.719 179.902 196.706 177.928 196.3C176.128 195.952 174.967 194.384 175.141 192.584C175.257 191.365 175.954 190.32 176.767 189.333C175.605 189.158 174.618 188.636 173.863 187.475C172.818 185.849 173.689 184.107 174.85 182.772C176.012 181.436 177.289 180.159 178.624 178.998C182.108 176.037 186.114 173.656 190.411 172.089C189.133 170.753 186.985 170.521 185.185 170.753C182.689 171.044 180.366 172.379 177.986 173.192C175.896 173.888 173.225 174.469 171.309 172.96C169.509 171.508 169.741 168.779 171.077 167.037C172.586 165.063 175.199 164.25 177.463 163.554C180.018 162.741 182.631 162.16 185.243 161.638C187.508 161.231 189.772 160.825 192.094 160.767C194.301 160.709 196.275 161.231 198.249 162.218C202.429 164.308 205.797 167.85 208.235 171.856C210.268 175.282 212.474 178.475 214.796 181.669C217.235 185.094 219.79 188.462 221.938 192.061C222.054 192.12 222.17 192.236 222.286 192.41C228.963 194.036 232.737 200.538 236.395 205.822C238.137 208.377 240.111 210.757 242.607 212.557C244.814 214.125 247.252 215.286 249.633 216.621C251.897 217.898 254.219 219.234 256.019 221.15C257.935 223.182 259.039 225.679 259.387 228.407C260.142 234.214 257.761 239.845 258.226 245.593C258.458 248.438 259.619 251.051 261.767 252.967C263.858 254.825 266.586 255.87 269.373 255.754C270.244 255.812 270.244 257.554 269.141 257.554ZM199.062 145.206C201.675 147.471 204.171 149.851 206.61 152.29C207.423 153.103 208.642 151.825 207.829 151.071C199.352 142.652 190.12 135.104 179.379 129.82C176.418 128.369 173.341 127.092 170.264 125.93C169.683 117.628 169.393 109.325 169.044 101.08C169.044 100.442 168.986 99.803 168.986 99.1644C174.444 97.7709 179.96 96.3194 185.418 94.9259C185.94 94.8098 186.521 94.6356 187.043 94.5195C187.74 94.3453 187.798 93.5325 187.45 93.068C183.153 87.7264 178.973 82.3848 174.734 76.9852C172.47 74.1402 170.264 71.2952 167.999 68.4502C165.909 65.8375 163.935 62.9926 161.497 60.6701C159.929 59.1606 158.245 57.8832 156.329 56.8381C157.607 56.5478 159 56.0833 160.393 55.2705C164.109 53.0642 167.941 43.8906 163.238 37.5039C154.936 49.1741 147.446 40.6392 135.485 46.3291C126.254 50.6837 126.602 67.8696 130.608 76.2884C127.821 76.1143 124.976 77.0432 123.002 79.0173C119.693 82.3268 119.286 88.0167 122.131 91.7326C123.641 93.7647 126.021 94.984 128.518 95.3904C124.686 104.506 120.506 113.505 116.151 122.389C116.151 122.389 116.151 122.389 116.093 122.389C104.016 127.73 91.8236 132.84 80.4437 139.575C69.9348 145.787 60.0644 153.335 51.994 162.567C47.5814 167.618 43.7494 173.134 40.7303 179.114C40.2077 180.101 41.7174 180.972 42.2399 179.985C47.5815 169.36 55.5358 160.36 64.5933 152.754C74.3475 144.626 85.379 138.355 96.817 132.898C103.262 129.82 109.823 127.034 116.383 124.13C116.383 124.13 116.383 124.13 116.441 124.13C116.325 124.479 116.441 124.827 116.848 125.001C129.679 130.517 143.962 132.375 157.781 130.343C161.671 129.762 165.503 128.891 169.219 127.73C169.335 127.672 169.451 127.614 169.509 127.556C174.967 129.588 180.308 132.027 185.301 135.046C190.179 137.949 194.765 141.433 199.062 145.206ZM128.634 127.15C124.918 126.221 121.261 125.001 117.719 123.492C117.661 123.492 117.603 123.434 117.545 123.434C122.073 114.202 126.37 104.912 130.318 95.4485C131.828 95.3904 133.279 95.042 134.614 94.2873C135.021 94.055 135.195 93.5325 134.963 93.126C134.731 92.7196 134.208 92.5455 133.802 92.7777C130.55 94.6356 125.847 93.6486 123.525 90.6875C121.261 87.6683 121.551 82.9074 124.222 80.2366C126.892 77.5658 131.653 77.2755 134.673 79.5399C135.079 79.8302 135.601 79.7721 135.892 79.3657C136.182 78.9592 136.124 78.4367 135.718 78.1464C135.485 77.9722 135.253 77.8561 135.079 77.6819L136.53 77.74C142.569 74.0241 141.582 68.1019 143.149 63.6893C145.414 57.3606 148.781 57.4768 152.846 57.1865C158.884 59.0444 162.658 64.386 166.374 69.0889C170.728 74.5466 174.967 80.0624 179.321 85.5782C181.295 88.0748 183.269 90.5714 185.243 93.068C181.063 94.1712 176.825 95.2743 172.644 96.3775C171.018 96.7839 169.393 97.1903 167.767 97.5967C167.419 97.7128 167.128 98.0612 167.128 98.4096C167.419 105.493 167.709 112.576 168.057 119.66C168.174 121.75 168.29 123.898 168.406 125.988C155.632 130.053 141.698 130.459 128.634 127.15ZM136.182 85.8685C136.472 86.2168 136.53 86.7394 136.182 87.0878C135.892 87.3781 135.253 87.4361 134.963 87.0878C133.163 84.8234 130.376 83.488 127.473 83.546C126.37 83.546 126.37 81.8042 127.473 81.8042C130.782 81.7461 134.034 83.2557 136.182 85.8685ZM145.53 110.312C144.949 111.183 144.02 111.764 142.975 111.938C141.001 112.228 139.027 111.299 137.924 109.615C136.646 107.699 136.53 105.203 136.472 102.938C136.472 101.835 138.214 101.835 138.214 102.938C138.272 105.145 138.272 107.815 139.956 109.383C140.479 109.906 141.466 110.196 142.162 110.254C142.278 110.254 142.336 110.254 142.453 110.254C142.511 110.254 142.569 110.254 142.627 110.254C142.743 110.254 142.859 110.196 142.975 110.196L143.207 110.138C143.614 109.964 143.788 109.789 143.962 109.499C144.194 109.093 144.717 108.919 145.181 109.209C145.588 109.383 145.762 109.906 145.53 110.312ZM120.273 151.767C118.474 150.374 116.035 149.735 113.887 149.097C111.622 148.4 109.3 147.935 106.978 147.529C104.945 147.122 102.855 146.774 100.765 146.716C98.7909 146.658 96.9911 146.948 95.1912 147.761C93.3333 148.574 91.6495 149.677 90.0819 151.013C88.4562 152.406 87.0047 154.032 85.7273 155.774C84.508 157.457 83.579 159.315 82.4759 161.057C79.9793 164.947 77.2505 168.721 74.6958 172.553C74.1732 173.366 73.6506 174.179 73.1862 174.992C71.6766 174.527 69.9348 174.527 68.4252 174.701C64.9996 175.108 61.6901 176.617 59.2516 179.056C56.3486 181.901 55.2455 185.791 54.3745 189.681C53.5617 193.397 52.4585 196.881 50.6006 200.19C48.8588 203.267 46.7687 206.112 44.5623 208.899C40.1497 214.473 35.2145 219.756 32.0212 226.201C31.2664 227.769 30.5697 229.395 30.0472 231.02C29.6988 232.065 31.3825 232.53 31.7309 231.485C35.9693 218.015 48.975 209.712 54.1424 196.706C55.5939 193.049 56.0002 189.1 57.2776 185.385C58.4969 182.017 60.7612 179.346 63.9546 177.72C65.4641 176.966 67.0899 176.501 68.7736 176.327C69.8187 176.211 71.1541 176.211 72.1992 176.443C70.9799 178.708 70.4573 181.262 71.4443 183.759C72.4314 186.197 74.4055 188.055 76.6118 189.333C78.8762 190.668 81.3728 191.481 83.9855 191.945C86.7724 192.468 89.6174 192.758 92.4624 192.352C94.6687 192.061 97.0491 191.307 98.1523 189.391C98.5006 189.565 98.791 189.797 99.0813 190.029C101.81 192.352 103.726 195.777 103.726 199.435C103.668 202.977 101.926 206.519 99.6038 209.131C97.6297 211.396 95.0171 212.905 92.4624 214.415C88.7465 216.563 82.7663 219.408 83.5791 224.634C84.1597 228.117 87.5271 230.149 88.5722 233.459C89.8496 237.465 86.8885 241.297 84.2177 243.968C82.6501 243.619 80.7921 243.852 79.5728 245.071C78.4116 246.232 78.1214 248.206 79.5149 249.309C79.9213 249.658 80.3276 249.658 80.734 249.309C82.0114 248.264 83.4049 247.161 84.6822 246C84.7403 246.058 84.8565 246.058 84.9145 246.116C87.9917 247.858 85.9016 251.632 84.6242 253.838C84.0436 254.825 85.5531 255.696 86.1337 254.709C87.2369 252.851 88.4561 250.819 88.2819 248.555C88.1658 246.929 87.295 245.593 86.0176 244.723C87.4111 243.329 88.6304 241.761 89.5013 240.02C90.3722 238.22 90.8947 236.188 90.6044 234.155C90.3141 232.065 89.0948 230.44 87.8755 228.814C86.424 226.898 84.5661 224.459 85.7273 222.021C86.7724 219.873 89.1529 218.537 91.0689 217.318C93.5074 215.866 96.0041 214.589 98.2685 212.847C101.23 210.583 103.494 207.506 104.713 204.022C105.932 200.538 105.758 196.822 104.075 193.513C103.204 191.771 101.926 190.262 100.475 188.984C100.068 188.636 99.6619 188.229 99.1394 187.997C98.9072 187.881 98.7329 187.765 98.5007 187.707C98.5587 187.126 98.5007 186.546 98.3846 186.023C100.707 186.604 103.029 187.01 105.41 186.894C107.094 186.836 111.042 186.488 110.171 183.759C109.881 182.888 109.242 182.133 108.603 181.552C107.674 180.682 106.687 179.927 105.642 179.23C105.468 179.114 105.236 178.998 105.062 178.824C106.049 179.23 107.036 179.695 108.023 180.159C109.764 180.972 111.564 182.249 113.596 182.307C115.28 182.365 116.964 181.378 117.312 179.636C117.661 177.953 116.79 176.443 115.687 175.224C116.5 175.108 117.312 174.817 117.951 174.179C121.086 171.334 116.79 167.618 114.7 165.702C112.145 163.379 109.242 161.347 106.107 159.78C104.771 159.141 103.436 158.56 102.1 158.038C102.797 157.283 103.784 156.877 104.945 156.703C107.036 156.412 109.068 157.051 110.984 157.806C113.132 158.619 115.28 159.722 117.661 159.838C119.635 159.954 121.725 159.141 122.306 157.051C122.944 155.019 121.841 152.987 120.273 151.767ZM80.4437 247.393C80.3857 246.871 80.7921 246.29 81.3147 246C81.663 245.768 82.1276 245.652 82.534 245.593C81.8373 246.232 81.1405 246.813 80.4437 247.393ZM116.325 157.806C114.119 157.225 112.029 156.18 109.881 155.483C106.745 154.496 102.449 154.554 100.359 157.399C98.5587 156.819 96.6428 156.354 94.7849 156.064C93.6817 155.89 93.2172 157.573 94.3203 157.748C100.649 158.735 106.687 161.347 111.68 165.295C112.9 166.283 114.119 167.328 115.222 168.489C116.093 169.36 118.009 170.985 117.196 172.379C116.558 173.54 115.222 173.598 114.003 173.424C111.68 171.16 109.01 169.186 106.165 167.56C102.449 165.47 98.3846 163.96 94.2042 163.205C93.1011 162.973 92.6366 164.657 93.7397 164.889C100.533 166.166 106.919 169.302 111.971 173.947C112.609 174.527 113.19 175.108 113.771 175.688C114.409 176.385 115.164 177.082 115.454 178.011C116.093 179.753 114.583 180.798 112.958 180.507C112.029 180.333 111.216 179.869 110.403 179.462C109.59 179.056 108.719 178.649 107.906 178.243C106.165 177.43 104.423 176.675 102.623 176.037C99.8361 174.934 96.9331 174.005 94.03 173.25C93.972 173.25 93.9138 173.192 93.7977 173.192C92.8687 172.843 91.9398 172.553 90.9528 172.437C90.8947 172.437 90.7787 172.437 90.7206 172.437C90.6045 172.437 90.4883 172.379 90.3722 172.321C89.269 172.089 88.8045 173.772 89.9077 174.005C91.1269 174.237 92.2881 174.527 93.5074 174.875C94.3203 175.166 95.1912 175.514 96.004 175.921C98.4426 177.024 100.881 178.301 103.146 179.753C104.191 180.391 105.178 181.088 106.165 181.843C106.571 182.133 106.978 182.481 107.326 182.83C107.558 183.062 108.023 183.527 108.081 183.643C108.197 183.759 108.255 183.933 108.371 184.049C108.371 184.049 108.429 184.107 108.429 184.165C108.429 184.223 108.487 184.281 108.487 184.339C108.487 184.339 108.487 184.339 108.487 184.397C108.487 184.397 108.487 184.456 108.487 184.514L108.429 184.572C108.371 184.63 108.197 184.688 108.197 184.688C107.616 184.92 106.978 184.978 106.339 185.036C100.823 185.559 95.4235 183.236 90.3722 181.494C89.3271 181.146 88.8626 182.83 89.9077 183.178C92.0559 183.933 94.2622 184.688 96.4686 185.385C96.5266 185.501 96.5266 185.617 96.5846 185.733C96.8169 186.604 96.933 187.533 96.5846 188.404C96.5266 188.578 96.5267 188.694 96.5267 188.81C95.6558 189.971 93.8558 190.436 92.5204 190.61C90.0818 190.958 87.5853 190.784 85.1467 190.378C80.8502 189.681 75.857 187.997 73.5346 183.991C72.025 181.378 72.7217 178.591 74.3474 176.269C76.7279 172.379 79.3987 168.663 81.9534 164.889C83.0565 163.263 84.1597 161.58 85.1467 159.838C86.1918 158.038 87.295 156.296 88.6304 154.728C89.9658 153.219 91.4172 151.883 93.101 150.78C94.6686 149.793 96.4105 148.748 98.2685 148.458C100.184 148.168 102.217 148.4 104.075 148.69C106.107 148.98 108.081 149.387 110.113 149.851C112.435 150.374 114.758 151.013 116.964 151.883C118.706 152.58 120.738 153.799 120.68 155.948C120.738 158.328 117.951 158.27 116.325 157.806Z" fill="#DCDCDC"/>
<path d="M65.6381 93.8807C64.7672 93.242 65.6381 91.7324 66.509 92.3711C72.6634 96.9579 78.8179 101.603 85.0304 106.19C85.9014 106.828 85.0304 108.338 84.1595 107.699C78.0051 103.054 71.7925 98.4675 65.6381 93.8807ZM84.624 94.5194C87.9335 97.5966 91.2429 100.674 94.6105 103.751C95.4233 104.506 96.6425 103.287 95.8296 102.532C92.5202 99.4545 89.2108 96.3773 85.8432 93.3001C85.0304 92.5453 83.8112 93.7646 84.624 94.5194ZM215.551 116.931C221.125 112.808 226.757 108.686 232.33 104.564C233.201 103.925 232.33 102.416 231.459 103.054C225.886 107.177 220.254 111.299 214.68 115.421C213.751 116.118 214.622 117.628 215.551 116.931ZM221.531 122.969C224.202 121.75 226.873 120.589 229.543 119.369C229.95 119.195 230.066 118.556 229.834 118.15C229.601 117.686 229.079 117.628 228.615 117.86C225.944 119.079 223.273 120.24 220.602 121.46C220.196 121.634 220.08 122.272 220.312 122.679C220.602 123.085 221.125 123.143 221.531 122.969ZM72.4893 112.17C73.8247 112.808 75.1602 113.505 76.4955 114.144C76.902 114.376 77.4825 114.26 77.7147 113.854C77.947 113.447 77.8309 112.867 77.4244 112.634C76.089 111.996 74.7537 111.299 73.4183 110.66C73.0119 110.428 72.4312 110.544 72.199 110.951C71.9667 111.357 72.0248 111.938 72.4893 112.17Z" fill="#DCDCDC"/>
</svg>
