<svg width="20" height="20" viewBox="0 0 20 20" fill="none" xmlns="http://www.w3.org/2000/svg">
<path opacity="0.1" d="M13.3849 18.8751H6.61517C5.14952 18.8599 3.74945 18.2652 2.72078 17.2211C1.69211 16.177 1.11843 14.7682 1.12506 13.3024V6.6978C1.11843 5.23207 1.69211 3.82329 2.72078 2.77915C3.74945 1.73501 5.14952 1.14038 6.61517 1.12512H13.3849C14.8506 1.14038 16.2507 1.73501 17.2793 2.77915C18.308 3.82329 18.8817 5.23207 18.8751 6.6978V13.3024C18.8817 14.7682 18.308 16.177 17.2793 17.2211C16.2507 18.2652 14.8506 18.8599 13.3849 18.8751Z" fill="#99A1B7"/>
<path d="M13.4166 18.9583H6.58323C5.10381 18.9429 3.69059 18.3427 2.65227 17.2887C1.61394 16.2348 1.03488 14.8128 1.04156 13.3333V6.66663C1.03488 5.18714 1.61394 3.76513 2.65227 2.71118C3.69059 1.65724 5.10381 1.05702 6.58323 1.04163H13.4166C14.896 1.05702 16.3092 1.65724 17.3475 2.71118C18.3859 3.76513 18.9649 5.18714 18.9582 6.66663V13.3333C18.9649 14.8128 18.3859 16.2348 17.3475 17.2887C16.3092 18.3427 14.896 18.9429 13.4166 18.9583V18.9583ZM6.58323 2.34163C5.44562 2.3548 4.35921 2.81654 3.56022 3.62645C2.76124 4.43636 2.31429 5.52894 2.31656 6.66663V13.3333C2.31429 14.471 2.76124 15.5636 3.56022 16.3735C4.35921 17.1834 5.44562 17.6451 6.58323 17.6583H13.4166C14.5542 17.6451 15.6406 17.1834 16.4396 16.3735C17.2386 15.5636 17.6855 14.471 17.6832 13.3333V6.66663C17.6855 5.52894 17.2386 4.43636 16.4396 3.62645C15.6406 2.81654 14.5542 2.3548 13.4166 2.34163H6.58323ZM5.95823 9.00829C6.04983 8.99501 6.13748 8.96207 6.21516 8.91172C6.29283 8.86138 6.3587 8.79482 6.40823 8.71663L7.81656 6.44163C7.9077 6.2953 7.9378 6.11906 7.90041 5.95077C7.86301 5.78249 7.7611 5.63558 7.61656 5.54163C7.54586 5.49637 7.46677 5.46581 7.384 5.45179C7.30123 5.43776 7.21649 5.44056 7.13482 5.46C7.05316 5.47944 6.97625 5.51514 6.90868 5.56496C6.84112 5.61478 6.78428 5.67769 6.74156 5.74996L5.72489 7.41663L5.14989 6.90829C5.08776 6.85141 5.01476 6.80768 4.93529 6.77972C4.85582 6.75177 4.77153 6.74017 4.68746 6.74561C4.60339 6.75106 4.5213 6.77345 4.4461 6.81143C4.37091 6.84941 4.30417 6.9022 4.24989 6.96663C4.14024 7.09776 4.08515 7.26601 4.09601 7.43661C4.10686 7.6072 4.18284 7.76711 4.30823 7.88329L5.44989 8.89163C5.56578 8.99186 5.71335 9.04794 5.86656 9.04996L5.95823 9.00829ZM15.5999 7.71663C15.6004 7.55256 15.5388 7.39438 15.4275 7.27382C15.3162 7.15326 15.1635 7.07925 14.9999 7.06663H9.99989C9.85669 7.09969 9.72893 7.18032 9.63744 7.29534C9.54595 7.41036 9.49614 7.55299 9.49614 7.69996C9.49614 7.84693 9.54595 7.98956 9.63744 8.10458C9.72893 8.2196 9.85669 8.30023 9.99989 8.33329H14.9999C15.1579 8.32129 15.306 8.252 15.4165 8.13844C15.527 8.02488 15.5922 7.87488 15.5999 7.71663ZM5.93323 13.55C6.02483 13.5367 6.11248 13.5037 6.19016 13.4534C6.26783 13.403 6.3337 13.3365 6.38323 13.2583L7.79156 11C7.88227 10.8549 7.91214 10.68 7.8747 10.513C7.83726 10.3461 7.73552 10.2007 7.59156 10.1083C7.45333 10.0292 7.2901 10.0058 7.13522 10.043C6.98034 10.0801 6.84549 10.175 6.75823 10.3083L5.74156 11.975L5.16656 11.4666C5.10389 11.4102 5.03045 11.3671 4.95067 11.3398C4.87089 11.3126 4.78642 11.3017 4.70234 11.3079C4.61826 11.3142 4.5363 11.3373 4.46141 11.3761C4.38652 11.4148 4.32024 11.4683 4.26656 11.5333C4.15691 11.6644 4.10182 11.8327 4.11267 12.0033C4.12353 12.1739 4.1995 12.3338 4.32489 12.45L5.46656 13.45C5.58042 13.5536 5.72931 13.6101 5.88323 13.6083L5.93323 13.55ZM15.6166 12.2583C15.6044 12.1011 15.5348 11.954 15.4211 11.8449C15.3073 11.7357 15.1574 11.6723 14.9999 11.6666H9.99989C9.8275 11.6666 9.66217 11.7351 9.54027 11.857C9.41838 11.9789 9.34989 12.1442 9.34989 12.3166C9.34989 12.489 9.41838 12.6543 9.54027 12.7762C9.66217 12.8981 9.8275 12.9666 9.99989 12.9666H14.9999C15.0857 12.9635 15.1699 12.9431 15.2477 12.9068C15.3255 12.8705 15.3951 12.819 15.4526 12.7553C15.5101 12.6916 15.5543 12.617 15.5824 12.5359C15.6106 12.4548 15.6222 12.3689 15.6166 12.2833V12.2583Z" fill="#99A1B7"/>
</svg>
