<svg width="84" height="16" viewBox="0 0 84 16" fill="none" xmlns="http://www.w3.org/2000/svg">
<path d="M9.33331 2.13331L10.56 4.28665C10.6053 4.37041 10.668 4.4435 10.7439 4.50099C10.8198 4.55849 10.9071 4.59906 11 4.61998L13.36 5.15998C13.6315 5.22889 13.8809 5.36621 14.0843 5.55885C14.2877 5.75149 14.4384 5.99302 14.5219 6.26042C14.6055 6.52781 14.6191 6.81215 14.5616 7.08633C14.5041 7.36051 14.3773 7.61538 14.1933 7.82665L12.5933 9.69331C12.5305 9.76743 12.4834 9.85348 12.4548 9.94628C12.4261 10.0391 12.4166 10.1367 12.4266 10.2333L12.6666 12.72C12.7011 12.9962 12.662 13.2766 12.5533 13.5329C12.4446 13.7892 12.2701 14.0121 12.0474 14.1793C11.8248 14.3464 11.562 14.4518 11.2856 14.4847C11.0092 14.5176 10.7289 14.4769 10.4733 14.3666L8.25998 13.3666C8.17404 13.328 8.08088 13.308 7.98665 13.308C7.89242 13.308 7.79926 13.328 7.71331 13.3666L5.49998 14.3666C5.2456 14.4705 4.96851 14.5063 4.69609 14.4704C4.42366 14.4345 4.16531 14.3281 3.94654 14.1619C3.72776 13.9956 3.55614 13.7752 3.44859 13.5223C3.34105 13.2694 3.30132 12.9929 3.33331 12.72L3.56665 10.2333C3.57672 10.1367 3.56715 10.0391 3.53851 9.94628C3.50987 9.85348 3.46275 9.76743 3.39998 9.69331L1.79998 7.82665C1.616 7.61538 1.4892 7.36051 1.43167 7.08633C1.37415 6.81215 1.38782 6.52781 1.47138 6.26042C1.55494 5.99302 1.70561 5.75149 1.90901 5.55885C2.11241 5.36621 2.36177 5.22889 2.63331 5.15998L4.99331 4.61998C5.0862 4.59906 5.17354 4.55849 5.24943 4.50099C5.32533 4.4435 5.38803 4.37041 5.43331 4.28665L6.66665 2.13331C6.80319 1.90104 6.99805 1.70847 7.23192 1.57467C7.46578 1.44087 7.73054 1.37048 7.99998 1.37048C8.26942 1.37048 8.53418 1.44087 8.76804 1.57467C9.00191 1.70847 9.19677 1.90104 9.33331 2.13331Z" fill="#F6B100"/>
<path d="M26.3333 2.13331L27.56 4.28665C27.6053 4.37041 27.668 4.4435 27.7439 4.50099C27.8198 4.55849 27.9071 4.59906 28 4.61998L30.36 5.15998C30.6316 5.22889 30.8809 5.36621 31.0843 5.55885C31.2877 5.75149 31.4384 5.99302 31.5219 6.26042C31.6055 6.52781 31.6192 6.81215 31.5617 7.08633C31.5041 7.36051 31.3773 7.61538 31.1933 7.82665L29.5933 9.69331C29.5306 9.76743 29.4835 9.85348 29.4548 9.94628C29.4262 10.0391 29.4166 10.1367 29.4267 10.2333L29.6667 12.72C29.7012 12.9962 29.6621 13.2766 29.5533 13.5329C29.4446 13.7892 29.2701 14.0121 29.0475 14.1793C28.8248 14.3464 28.562 14.4518 28.2856 14.4847C28.0092 14.5176 27.729 14.4769 27.4733 14.3666L25.26 13.3666C25.1741 13.328 25.0809 13.308 24.9867 13.308C24.8924 13.308 24.7993 13.328 24.7133 13.3666L22.5 14.3666C22.2456 14.4705 21.9685 14.5063 21.6961 14.4704C21.4237 14.4345 21.1653 14.3281 20.9466 14.1619C20.7278 13.9956 20.5562 13.7752 20.4486 13.5223C20.3411 13.2694 20.3014 12.9929 20.3333 12.72L20.5667 10.2333C20.5768 10.1367 20.5672 10.0391 20.5385 9.94628C20.5099 9.85348 20.4628 9.76743 20.4 9.69331L18.8 7.82665C18.616 7.61538 18.4892 7.36051 18.4317 7.08633C18.3742 6.81215 18.3879 6.52781 18.4714 6.26042C18.555 5.99302 18.7056 5.75149 18.909 5.55885C19.1124 5.36621 19.3618 5.22889 19.6333 5.15998L21.9933 4.61998C22.0862 4.59906 22.1736 4.55849 22.2495 4.50099C22.3254 4.4435 22.3881 4.37041 22.4333 4.28665L23.6667 2.13331C23.8032 1.90104 23.9981 1.70847 24.2319 1.57467C24.4658 1.44087 24.7306 1.37048 25 1.37048C25.2694 1.37048 25.5342 1.44087 25.7681 1.57467C26.0019 1.70847 26.1968 1.90104 26.3333 2.13331Z" fill="#F6B100"/>
<path d="M43.3333 2.13331L44.56 4.28665C44.6053 4.37041 44.668 4.4435 44.7439 4.50099C44.8198 4.55849 44.9071 4.59906 45 4.61998L47.36 5.15998C47.6316 5.22889 47.8809 5.36621 48.0843 5.55885C48.2877 5.75149 48.4384 5.99302 48.5219 6.26042C48.6055 6.52781 48.6192 6.81215 48.5617 7.08633C48.5041 7.36051 48.3773 7.61538 48.1933 7.82665L46.5933 9.69331C46.5306 9.76743 46.4835 9.85348 46.4548 9.94628C46.4262 10.0391 46.4166 10.1367 46.4267 10.2333L46.6667 12.72C46.7012 12.9962 46.6621 13.2766 46.5533 13.5329C46.4446 13.7892 46.2701 14.0121 46.0475 14.1793C45.8248 14.3464 45.562 14.4518 45.2856 14.4847C45.0092 14.5176 44.729 14.4769 44.4733 14.3666L42.26 13.3666C42.1741 13.328 42.0809 13.308 41.9867 13.308C41.8924 13.308 41.7993 13.328 41.7133 13.3666L39.5 14.3666C39.2456 14.4705 38.9685 14.5063 38.6961 14.4704C38.4237 14.4345 38.1653 14.3281 37.9466 14.1619C37.7278 13.9956 37.5562 13.7752 37.4486 13.5223C37.3411 13.2694 37.3014 12.9929 37.3333 12.72L37.5667 10.2333C37.5768 10.1367 37.5672 10.0391 37.5385 9.94628C37.5099 9.85348 37.4628 9.76743 37.4 9.69331L35.8 7.82665C35.616 7.61538 35.4892 7.36051 35.4317 7.08633C35.3742 6.81215 35.3879 6.52781 35.4714 6.26042C35.555 5.99302 35.7056 5.75149 35.909 5.55885C36.1124 5.36621 36.3618 5.22889 36.6333 5.15998L38.9933 4.61998C39.0862 4.59906 39.1736 4.55849 39.2495 4.50099C39.3254 4.4435 39.3881 4.37041 39.4333 4.28665L40.6667 2.13331C40.8032 1.90104 40.9981 1.70847 41.2319 1.57467C41.4658 1.44087 41.7306 1.37048 42 1.37048C42.2694 1.37048 42.5342 1.44087 42.7681 1.57467C43.0019 1.70847 43.1968 1.90104 43.3333 2.13331Z" fill="#F6B100"/>
<path d="M60.3333 2.13331L61.56 4.28665C61.6053 4.37041 61.668 4.4435 61.7439 4.50099C61.8198 4.55849 61.9071 4.59906 62 4.61998L64.36 5.15998C64.6316 5.22889 64.8809 5.36621 65.0843 5.55885C65.2877 5.75149 65.4384 5.99302 65.5219 6.26042C65.6055 6.52781 65.6192 6.81215 65.5617 7.08633C65.5041 7.36051 65.3773 7.61538 65.1933 7.82665L63.5933 9.69331C63.5306 9.76743 63.4835 9.85348 63.4548 9.94628C63.4262 10.0391 63.4166 10.1367 63.4267 10.2333L63.6667 12.72C63.7012 12.9962 63.6621 13.2766 63.5533 13.5329C63.4446 13.7892 63.2701 14.0121 63.0475 14.1793C62.8248 14.3464 62.562 14.4518 62.2856 14.4847C62.0092 14.5176 61.729 14.4769 61.4733 14.3666L59.26 13.3666C59.1741 13.328 59.0809 13.308 58.9867 13.308C58.8924 13.308 58.7993 13.328 58.7133 13.3666L56.5 14.3666C56.2456 14.4705 55.9685 14.5063 55.6961 14.4704C55.4237 14.4345 55.1653 14.3281 54.9466 14.1619C54.7278 13.9956 54.5562 13.7752 54.4486 13.5223C54.3411 13.2694 54.3014 12.9929 54.3333 12.72L54.5667 10.2333C54.5768 10.1367 54.5672 10.0391 54.5385 9.94628C54.5099 9.85348 54.4628 9.76743 54.4 9.69331L52.8 7.82665C52.616 7.61538 52.4892 7.36051 52.4317 7.08633C52.3742 6.81215 52.3879 6.52781 52.4714 6.26042C52.555 5.99302 52.7056 5.75149 52.909 5.55885C53.1124 5.36621 53.3618 5.22889 53.6333 5.15998L55.9933 4.61998C56.0862 4.59906 56.1736 4.55849 56.2495 4.50099C56.3254 4.4435 56.3881 4.37041 56.4333 4.28665L57.6667 2.13331C57.8032 1.90104 57.9981 1.70847 58.2319 1.57467C58.4658 1.44087 58.7306 1.37048 59 1.37048C59.2694 1.37048 59.5342 1.44087 59.7681 1.57467C60.0019 1.70847 60.1968 1.90104 60.3333 2.13331Z" fill="#F6B100"/>
<path d="M77.3333 2.13331L78.56 4.28665C78.6053 4.37041 78.668 4.4435 78.7439 4.50099C78.8198 4.55849 78.9071 4.59906 79 4.61998L81.36 5.15998C81.6316 5.22889 81.8809 5.36621 82.0843 5.55885C82.2877 5.75149 82.4384 5.99302 82.5219 6.26042C82.6055 6.52781 82.6192 6.81215 82.5617 7.08633C82.5041 7.36051 82.3773 7.61538 82.1933 7.82665L80.5933 9.69331C80.5306 9.76743 80.4835 9.85348 80.4548 9.94628C80.4262 10.0391 80.4166 10.1367 80.4267 10.2333L80.6667 12.72C80.7012 12.9962 80.6621 13.2766 80.5533 13.5329C80.4446 13.7892 80.2701 14.0121 80.0475 14.1793C79.8248 14.3464 79.562 14.4518 79.2856 14.4847C79.0092 14.5176 78.729 14.4769 78.4733 14.3666L76.26 13.3666C76.1741 13.328 76.0809 13.308 75.9867 13.308C75.8924 13.308 75.7993 13.328 75.7133 13.3666L73.5 14.3666C73.2456 14.4705 72.9685 14.5063 72.6961 14.4704C72.4237 14.4345 72.1653 14.3281 71.9466 14.1619C71.7278 13.9956 71.5562 13.7752 71.4486 13.5223C71.3411 13.2694 71.3014 12.9929 71.3333 12.72L71.5667 10.2333C71.5768 10.1367 71.5672 10.0391 71.5385 9.94628C71.5099 9.85348 71.4628 9.76743 71.4 9.69331L69.8 7.82665C69.616 7.61538 69.4892 7.36051 69.4317 7.08633C69.3742 6.81215 69.3879 6.52781 69.4714 6.26042C69.555 5.99302 69.7056 5.75149 69.909 5.55885C70.1124 5.36621 70.3618 5.22889 70.6333 5.15998L72.9933 4.61998C73.0862 4.59906 73.1736 4.55849 73.2495 4.50099C73.3254 4.4435 73.3881 4.37041 73.4333 4.28665L74.6667 2.13331C74.8032 1.90104 74.9981 1.70847 75.2319 1.57467C75.4658 1.44087 75.7306 1.37048 76 1.37048C76.2694 1.37048 76.5342 1.44087 76.7681 1.57467C77.0019 1.70847 77.1968 1.90104 77.3333 2.13331Z" fill="#F6B100"/>
</svg>
