<svg width="20" height="20" viewBox="0 0 20 20" fill="none" xmlns="http://www.w3.org/2000/svg">
<g clip-path="url(#clip0_29760_8858)">
<path opacity="0.1" fill-rule="evenodd" clip-rule="evenodd" d="M17.464 1.09133C17.7791 1.18861 18.0661 1.36039 18.3006 1.59213C18.5351 1.81495 18.711 2.0921 18.8128 2.39906C18.9146 2.70603 18.9393 3.03336 18.8845 3.35211L18.3507 6.07966C18.0201 7.76031 17.1884 9.3015 15.9651 10.5005C15.3131 11.0887 14.622 11.6321 13.8965 12.127C14.5054 15.2549 10.0012 18.6497 9.80103 18.7999C9.69352 18.8754 9.56542 18.9162 9.43402 18.9167C9.35095 18.9154 9.26888 18.8984 9.19213 18.8666C9.09504 18.8247 9.01075 18.7579 8.94777 18.6729C8.88479 18.588 8.84536 18.4879 8.83346 18.3828L8.52484 15.2382C8.23731 15.3299 7.93031 15.3418 7.63654 15.2728C7.34276 15.2037 7.07321 15.0563 6.85661 14.8462L5.12999 13.228C4.95243 13.0597 4.81405 12.8544 4.72468 12.6266C4.63531 12.3989 4.59713 12.1543 4.61284 11.9101H1.61838C1.51096 11.9108 1.40521 11.8835 1.31159 11.8309C1.21796 11.7782 1.1397 11.702 1.08454 11.6098C1.02926 11.5194 1 11.4155 1 11.3095C1 11.2036 1.02926 11.0997 1.08454 11.0093C1.20966 10.7674 4.21247 6.06298 7.45717 6.35492C7.9861 5.50852 8.59202 4.71274 9.2672 3.97769C10.4393 2.81313 11.8981 1.9787 13.4962 1.55876L16.4906 1.03327C16.815 0.97413 17.1489 0.994043 17.464 1.09133ZM13.3927 4.16695C12.9766 4.17678 12.5726 4.30952 12.2318 4.54846C11.891 4.7874 11.6284 5.12186 11.4773 5.50971C11.3261 5.89755 11.2931 6.32145 11.3824 6.72801C11.4717 7.13458 11.6793 7.50563 11.9791 7.79444C12.3866 8.15986 12.9202 8.35257 13.4671 8.33186C14.014 8.31115 14.5315 8.07865 14.9102 7.68346C15.2888 7.28828 15.4991 6.76137 15.4964 6.21405C15.4938 5.66672 15.2785 5.14186 14.8961 4.75034C14.4898 4.36788 13.9506 4.15864 13.3927 4.16695Z" fill="#99A1B7"/>
<path d="M13.4518 3.91908C12.9813 3.93019 12.5245 4.0803 12.1391 4.35049C11.7537 4.62068 11.4568 4.99887 11.2859 5.43744C11.115 5.87601 11.0777 6.35534 11.1787 6.81508C11.2796 7.27481 11.5144 7.69439 11.8533 8.02097C12.3141 8.43418 12.9175 8.6521 13.5359 8.62868C14.1544 8.60527 14.7395 8.34235 15.1677 7.89548C15.5959 7.44862 15.8337 6.8528 15.8307 6.2339C15.8277 5.615 15.5843 5.02149 15.1518 4.57876C14.6924 4.14629 14.0827 3.90968 13.4518 3.91908ZM14.2976 7.07373C14.2003 7.1936 14.0793 7.29201 13.9421 7.36274C13.8049 7.43346 13.6546 7.47497 13.5005 7.48464C13.3465 7.49431 13.1921 7.47193 13.0471 7.41892C12.9022 7.36591 12.7698 7.28341 12.6583 7.17664C12.5468 7.06987 12.4587 6.94115 12.3995 6.7986C12.3403 6.65605 12.3113 6.50278 12.3144 6.34846C12.3174 6.19414 12.3524 6.04213 12.4172 5.90202C12.482 5.76192 12.5751 5.63676 12.6906 5.53446C12.7905 5.42743 12.9108 5.34158 13.0444 5.282C13.1781 5.22243 13.3224 5.19036 13.4687 5.1877C13.7563 5.18734 14.0326 5.29968 14.2384 5.50063C14.3443 5.60086 14.4288 5.72145 14.4869 5.85515C14.5451 5.98886 14.5756 6.13293 14.5767 6.27872C14.5934 6.56885 14.4963 6.85405 14.306 7.07373H14.2976ZM18.4587 1.51714C18.2208 1.28217 17.9298 1.10799 17.6103 1.00935C17.2909 0.910708 16.9523 0.890517 16.6234 0.950485L13.5871 1.48331C11.9668 1.9091 10.4876 2.75518 9.29918 3.93599C8.61458 4.68129 8.00021 5.48818 7.4639 6.34638C4.17392 6.05037 1.12921 10.8204 1.00235 11.0657C0.94629 11.1573 0.916626 11.2627 0.916626 11.3702C0.916626 11.4776 0.94629 11.583 1.00235 11.6746C1.05828 11.7681 1.13763 11.8453 1.23256 11.8987C1.32749 11.9521 1.43471 11.9798 1.54363 11.9791H4.57988C4.56395 12.2267 4.60266 12.4747 4.69328 12.7056C4.7839 12.9366 4.9242 13.1447 5.10425 13.3154L6.85495 14.9561C7.07458 15.1692 7.34789 15.3187 7.64576 15.3887C7.94364 15.4587 8.25492 15.4466 8.54646 15.3536L8.85939 18.5421C8.87145 18.6487 8.91143 18.7501 8.97529 18.8363C9.03915 18.9224 9.12462 18.9902 9.22306 19.0327C9.30089 19.0649 9.3841 19.0821 9.46833 19.0834C9.60156 19.0829 9.73145 19.0416 9.84046 18.965C10.0434 18.8128 14.6105 15.3706 13.9931 12.199C14.7287 11.6972 15.4294 11.1462 16.0906 10.5498C17.3309 9.33408 18.1742 7.77139 18.5094 6.06729L19.0507 3.30168C19.1062 2.97848 19.0812 2.64658 18.978 2.33533C18.8747 2.02408 18.6964 1.74307 18.4587 1.51714ZM4.92664 10.8204H2.6854C3.62418 9.54333 5.15499 7.91948 6.61814 7.58118L5.98383 8.82444C5.60324 9.55179 5.25648 10.2199 4.9943 10.7612L4.92664 10.8204ZM10.0012 17.265L9.78126 14.9984L12.8513 13.1039C12.6314 14.584 11.1345 16.2332 10.0012 17.265ZM17.8751 3.05641L17.3338 5.84739C17.0393 7.29348 16.3244 8.6204 15.2786 9.66173C13.1368 11.4369 10.7985 12.9607 8.30965 14.2034C8.21283 14.252 8.10349 14.27 7.9962 14.2549C7.88892 14.2398 7.78879 14.1923 7.70916 14.1188L5.95846 12.4273C5.88116 12.3539 5.82894 12.2581 5.80921 12.1533C5.78947 12.0486 5.80322 11.9403 5.84851 11.8438L5.90771 11.7169C5.91998 11.7007 5.93128 11.6837 5.94154 11.6662L7.11714 9.36572C7.9608 7.71416 9.00317 6.17192 10.221 4.77328C11.2346 3.76929 12.4902 3.04392 13.8662 2.66736L16.8771 2.13454C17.0091 2.11162 17.1446 2.12037 17.2725 2.16007C17.4005 2.19977 17.5171 2.26928 17.6129 2.36289C17.7063 2.45015 17.7768 2.55907 17.8181 2.68002C17.8594 2.80098 17.8703 2.93025 17.8497 3.05641H17.8751Z" fill="#99A1B7"/>
</g>
<defs>
<clipPath id="clip0_29760_8858">
<rect width="20" height="20" fill="white"/>
</clipPath>
</defs>
</svg>
