<svg width="20" height="20" viewBox="0 0 20 20" fill="none" xmlns="http://www.w3.org/2000/svg">
<path opacity="0.1" d="M10.0129 19.2917C9.15191 19.2924 8.31737 19.0052 7.65186 18.4793L3.53122 15.2385C3.10324 14.9033 2.75857 14.4802 2.52246 14.0002C2.28635 13.5202 2.16477 12.9954 2.16665 12.4643V6.11226C2.16703 5.42601 2.37192 4.75426 2.75701 4.17675C3.14209 3.59924 3.69121 3.14021 4.33918 2.85413L8.45983 1.03925C8.94628 0.821304 9.47636 0.708374 10.0129 0.708374C10.5495 0.708374 11.0796 0.821304 11.566 1.03925L15.6867 2.85413C16.3346 3.14021 16.8838 3.59924 17.2688 4.17675C17.6539 4.75426 17.8588 5.42601 17.8592 6.11226V12.4643C17.8611 12.9954 17.7395 13.5202 17.5034 14.0002C17.2673 14.4802 16.9226 14.9033 16.4946 15.2385L12.374 18.4793C11.7085 19.0052 10.8739 19.2924 10.0129 19.2917Z" fill="#99A1B7"/>
<path d="M10 19.375C9.13131 19.3757 8.28928 19.0859 7.6178 18.5553L3.4602 15.2854C3.02839 14.9473 2.68063 14.5204 2.4424 14.0361C2.20417 13.5517 2.08151 13.0223 2.0834 12.4864V6.07735C2.08378 5.38494 2.29051 4.70717 2.67905 4.12448C3.06759 3.54179 3.62163 3.07864 4.27542 2.79L8.43302 0.958849C8.92384 0.738943 9.45867 0.625 10 0.625C10.5414 0.625 11.0762 0.738943 11.5671 0.958849L15.7247 2.79C16.3784 3.07864 16.9325 3.54179 17.321 4.12448C17.7096 4.70717 17.9163 5.38494 17.9167 6.07735V12.4864C17.9186 13.0223 17.7959 13.5517 17.5577 14.0361C17.3195 14.5204 16.9717 14.9473 16.5399 15.2854L12.3823 18.5553C11.7108 19.0859 10.8688 19.3757 10 19.375V19.375ZM10 1.93546C9.65545 1.9379 9.3155 2.01227 9.00367 2.15346L4.84607 3.97589C4.42811 4.16064 4.0738 4.4567 3.82502 4.82908C3.57623 5.20146 3.44336 5.63461 3.44209 6.07735V12.4864C3.45006 12.8234 3.53541 13.1545 3.69202 13.4561C3.84862 13.7576 4.0726 14.022 4.34788 14.2303L8.50548 17.5003C8.9346 17.8389 9.47234 18.0239 10.0272 18.0239C10.5821 18.0239 11.1198 17.8389 11.5489 17.5003L15.7065 14.2303C15.9818 14.022 16.2058 13.7576 16.3624 13.4561C16.519 13.1545 16.6044 12.8234 16.6123 12.4864V6.07735C16.6111 5.63461 16.4782 5.20146 16.2294 4.82908C15.9806 4.4567 15.6263 4.16064 15.2084 3.97589L10.9964 2.15346C10.6846 2.01227 10.3446 1.9379 10 1.93546V1.93546ZM10 15.3029C7.71744 15.3029 5.93302 14.0559 5.93302 12.4602C5.98574 11.8371 6.24473 11.2467 6.67191 10.7759C7.09909 10.305 7.67192 9.97846 8.3062 9.84429C7.91409 9.58476 7.59365 9.23707 7.37268 8.83137C7.1517 8.42567 7.03685 7.9742 7.03809 7.51611C7.03809 6.75989 7.35015 6.03463 7.90563 5.4999C8.4611 4.96516 9.21448 4.66475 10 4.66475C10.7856 4.66475 11.539 4.96516 12.0945 5.4999C12.6499 6.03463 12.962 6.75989 12.962 7.51611C12.9632 7.9742 12.8484 8.42567 12.6274 8.83137C12.4064 9.23707 12.086 9.58476 11.6939 9.84429C12.3282 9.97846 12.901 10.305 13.3282 10.7759C13.7554 11.2467 14.0143 11.8371 14.0671 12.4602C14.0671 14.0559 12.2826 15.3029 10 15.3029ZM10 10.943C8.55983 10.943 7.28266 11.658 7.28266 12.4689C7.28266 13.2799 8.55077 14.0036 10 14.0036C11.4493 14.0036 12.7174 13.2886 12.7174 12.4689C12.7174 11.6493 11.4403 10.9343 10 10.9343V10.943ZM10 6.01631C9.68513 6.01804 9.3778 6.10951 9.11683 6.27918C8.85586 6.44886 8.65294 6.68914 8.53367 6.96971C8.41439 7.25029 8.38411 7.55858 8.44664 7.8557C8.50918 8.15283 8.66172 8.42546 8.88503 8.63922C9.10834 8.85298 9.39241 8.99828 9.7014 9.05679C10.0104 9.1153 10.3305 9.08441 10.6212 8.968C10.912 8.85159 11.1605 8.65489 11.3352 8.4027C11.51 8.15052 11.6033 7.85415 11.6033 7.55099C11.6045 7.34799 11.5638 7.14677 11.4837 6.95899C11.4036 6.77122 11.2855 6.60062 11.1364 6.45707C10.9873 6.31352 10.8101 6.19988 10.615 6.12272C10.4199 6.04557 10.2109 6.00644 10 6.00759V6.01631Z" fill="#99A1B7"/>
</svg>
