<svg width="180" height="180" viewBox="0 0 180 180" fill="none" xmlns="http://www.w3.org/2000/svg">
<rect width="180" height="180" fill="white"/>
<path d="M75.82 135.659C75.5751 129.722 68.8423 126.264 62.9358 125.591C57.0294 124.948 50.6638 125.713 45.4612 122.775C40.8095 120.144 38.0858 115.002 36.678 109.83C35.2702 104.658 34.8724 99.2718 33.4341 94.0998C31.2612 86.2347 26.7012 78.8593 26.64 70.6881C26.5788 60.7726 34.1991 51.3161 43.9005 49.2657C49.3173 48.1333 55.0707 49.0821 60.4264 47.6131C72.1169 44.3997 78.1458 30.9341 89.1631 25.8539C96.2325 22.5794 104.495 23.1608 112.146 24.7828C115.758 25.5479 119.338 26.5273 122.49 28.4247C127.203 31.2708 130.631 36.198 131.671 41.5842C134.058 53.8868 124.724 65.3326 123.133 77.7882C122.368 83.7865 123.47 89.999 126.285 95.3853C128.55 99.7004 131.824 103.403 134.15 107.688C136.446 111.972 137.7 117.297 135.589 121.674C134.426 124.091 132.314 125.989 130.019 127.397C122.521 132.018 113.156 131.987 104.342 131.803" fill="#F4F6F9"/>
<path d="M106.607 86.9388C106.607 89.1117 106.638 91.4987 108.015 93.1819C109.882 95.5078 113.34 95.5996 116.309 95.4772C123.837 95.1711 131.366 94.8346 138.864 94.3755C142.475 94.1613 143.423 96.3341 145.382 99.2414C147.371 102.179 149.055 105.301 150.432 108.545C151.074 100.894 153.186 92.7535 152.758 85.072C152.084 72.1879 151.38 59.3344 150.707 46.4503C150.615 44.7977 150.493 43.0533 149.483 41.768C147.83 39.6563 144.709 39.6869 142.046 39.9318C136.017 40.452 130.019 40.9417 123.99 41.4619C119.522 41.8292 112.881 41.2783 109.27 44.4611C107.587 45.9607 106.73 48.2253 106.546 50.49C106.271 53.3055 106.883 56.0904 106.822 58.906C106.73 62.0275 106.791 65.1491 106.76 68.24C106.699 74.4832 106.669 80.6957 106.607 86.9388Z" fill="white"/>
<path d="M153.247 85.5004C153.125 82.7767 152.972 80.0224 152.818 77.2987C152.512 71.79 152.237 66.312 151.931 60.8034C151.778 58.0491 151.625 55.2947 151.503 52.571C151.441 51.1938 151.35 49.8167 151.288 48.4395C151.227 47.1848 151.196 45.9606 151.043 44.7059C150.89 43.6348 150.615 42.5024 149.972 41.6149C149.391 40.8192 148.626 40.2684 147.708 39.9011C145.841 39.1667 143.729 39.289 141.771 39.4727C136.293 39.9317 130.845 40.3908 125.367 40.8804C123.378 41.0641 121.389 41.1253 119.369 41.2171C117.41 41.3089 115.421 41.4619 113.493 41.9209C111.687 42.38 109.882 43.1451 108.566 44.5222C107.036 46.1136 106.301 48.2865 106.087 50.4287C105.811 53.0912 106.362 55.7231 106.362 58.3857C106.362 61.1094 106.301 63.8025 106.301 66.5262C106.301 72.0043 106.24 77.4516 106.179 82.9297C106.179 84.2762 106.148 85.6228 106.148 86.9694C106.148 88.7444 106.148 90.5806 106.883 92.2332C107.556 93.7634 108.841 94.8345 110.402 95.4159C111.932 95.9668 113.615 96.028 115.237 96.028C117.38 95.9974 119.491 95.875 121.634 95.7832C126.102 95.5995 130.57 95.3854 135.038 95.1405C136.17 95.0793 137.272 95.0181 138.374 94.9263C139.169 94.8651 139.965 94.8345 140.73 95.0793C141.985 95.4466 142.811 96.4259 143.546 97.4358C146.055 101.047 148.289 104.842 150.003 108.881C150.187 109.341 150.829 109.034 150.86 108.637C151.288 103.465 152.329 98.3845 152.88 93.2431C153.186 90.6112 153.369 88.0405 153.247 85.5004ZM152.298 89.7849C152.023 94.8651 151.043 99.8535 150.37 104.872C150.278 105.515 150.217 106.127 150.156 106.77C149.513 105.393 148.84 104.046 148.075 102.73C147.126 101.047 146.055 99.425 144.984 97.803C144.25 96.7013 143.515 95.5384 142.413 94.7733C141.128 93.8552 139.628 93.8551 138.098 93.9469C133.691 94.2224 129.254 94.4366 124.847 94.6508C122.613 94.7427 120.379 94.8345 118.145 94.9569C116.339 95.0181 114.533 95.1711 112.728 94.9569C111.014 94.7427 109.208 94.1612 108.199 92.6616C107.066 91.009 107.066 88.8668 107.066 86.9388C107.097 81.5831 107.127 76.2582 107.189 70.9025C107.219 68.24 107.219 65.5775 107.219 62.8844C107.219 61.5684 107.25 60.2219 107.28 58.9059C107.311 57.6206 107.219 56.3352 107.097 55.0805C106.913 52.6628 106.76 50.2145 107.586 47.8886C108.26 45.9606 109.606 44.4916 111.443 43.6041C113.126 42.8084 115.023 42.4718 116.859 42.3188C118.757 42.1352 120.685 42.1046 122.582 42.0128C125 41.8903 127.418 41.6455 129.835 41.4313C132.498 41.2171 135.16 40.9723 137.792 40.7581C139.139 40.6356 140.485 40.5438 141.801 40.4214C142.811 40.3296 143.79 40.2684 144.8 40.299C146.698 40.3908 148.656 40.9722 149.544 42.7778C150.034 43.7572 150.125 44.8895 150.187 45.9607C150.278 47.2766 150.34 48.5925 150.401 49.8779C150.554 52.571 150.676 55.2641 150.829 57.9572C151.105 63.3129 151.411 68.699 151.686 74.0546C151.839 76.7172 151.962 79.4103 152.115 82.0728C152.298 84.6741 152.421 87.2142 152.298 89.7849ZM142.995 69.8314C140.761 69.4336 138.465 69.0357 136.476 67.8422C134.732 66.8017 133.385 65.2103 132.957 63.221C132.528 61.293 132.865 59.3038 132.987 57.3452C133.018 56.8249 133.018 56.2741 132.987 55.7538C132.957 55.3253 132.926 54.8969 132.743 54.5297C132.345 53.7952 131.365 53.7645 130.692 54.04C129.223 54.6214 128.581 56.3964 128.519 57.8654C128.427 59.8852 129.101 61.8133 129.223 63.8331C129.284 65.2715 129.131 67.0465 127.938 68.0564C126.591 69.1887 124.724 68.8827 123.102 68.699C121.205 68.4848 119.032 68.5155 117.533 69.8926C116.431 70.9025 116.064 72.7081 117.104 73.8404C118.298 74.6361 119.767 74.9116 121.144 74.5443C121.725 74.3913 121.97 75.2788 121.389 75.4318C119.981 75.7991 118.451 75.6155 117.165 74.9422C116.278 75.9215 116.461 77.5741 117.777 78.1249C117.9 78.1861 117.992 78.278 118.053 78.3698C119.399 78.7676 120.807 78.8901 122.184 78.7064C122.429 78.6758 122.643 78.9513 122.643 79.1655C122.643 79.4409 122.429 79.5939 122.184 79.6246C120.715 79.8082 119.216 79.6857 117.808 79.2573C117.349 80.359 117.777 81.6138 118.787 82.2259C118.879 82.1953 118.971 82.1646 119.093 82.2259C120.715 82.7461 122.429 82.8685 124.082 82.5319C124.663 82.4095 124.908 83.2969 124.327 83.4194C122.766 83.7254 121.174 83.6948 119.675 83.3275C119.185 83.8784 119.614 84.6741 120.134 85.0414C120.838 85.5616 121.787 85.7758 122.613 85.9595C126.01 86.6021 129.131 85.0719 132.406 84.3987C135.711 83.7254 139.139 83.8784 142.352 84.8272C142.934 84.9802 142.689 85.8676 142.107 85.7146C140.087 85.1332 138.006 84.8577 135.895 84.9189C134.089 84.9801 132.314 85.3168 130.6 85.8065C128.856 86.2961 127.142 86.847 125.336 87.0306C123.623 87.1836 121.756 86.9082 120.195 86.1737C119.522 85.837 118.91 85.3168 118.665 84.5823C118.512 84.1539 118.543 83.6642 118.696 83.2357C117.074 82.5012 116.309 80.5732 116.982 78.9512C116.921 78.89 116.859 78.7676 116.859 78.6758C116.278 78.2474 115.849 77.6353 115.727 76.9008C115.574 76.0439 115.819 75.1258 116.4 74.4831C115.176 73.1366 115.421 70.9637 116.584 69.6171C118.083 67.8727 120.532 67.5667 122.705 67.7809C124.235 67.9339 126.499 68.546 127.632 67.1077C128.58 65.8835 128.397 63.9555 128.183 62.5171C127.877 60.4667 127.265 58.3245 127.907 56.274C128.366 54.7133 129.529 53.2137 131.243 53.03C132.069 52.9382 132.957 53.2137 133.477 53.9176C134.028 54.7133 134.028 55.815 133.997 56.7331C133.967 58.7529 133.508 60.834 133.875 62.8538C134.242 64.7818 135.466 66.2508 137.149 67.1995C139.016 68.2706 141.189 68.6378 143.301 69.0051C143.821 69.0357 143.576 69.9232 142.995 69.8314ZM119.614 45.4098C119.308 44.9201 120.103 44.4611 120.409 44.9507C121.542 46.7257 122.949 48.3171 124.541 49.6943C124.724 49.8473 124.694 50.1839 124.541 50.3369C124.357 50.5205 124.082 50.4899 123.898 50.3369C122.246 48.9291 120.807 47.2766 119.614 45.4098ZM136.843 51.2245C138.098 49.5413 139.384 47.8581 140.638 46.1749C140.791 45.9913 141.036 45.8688 141.281 46.0219C141.465 46.1443 141.587 46.4503 141.434 46.6645C140.179 48.3477 138.894 50.0309 137.639 51.7141C137.486 51.8977 137.241 52.0201 136.996 51.8671C136.813 51.7447 136.69 51.4387 136.843 51.2245ZM130.815 48.9904C130.815 47.4908 130.815 45.9913 130.815 44.4917C130.815 43.9102 131.733 43.9102 131.733 44.4917C131.733 45.9913 131.733 47.4908 131.733 48.9904C131.733 49.6025 130.815 49.6025 130.815 48.9904Z" fill="black"/>
<path d="M75.0238 91.254C88.0303 89.6932 101.129 89.0506 114.227 89.2648C116.033 89.2954 117.991 89.3872 119.368 90.5501C121.327 92.2027 121.327 95.1712 121.143 97.7113C120.133 112.187 119.124 126.632 118.114 141.107C117.991 142.79 117.838 144.565 116.736 145.851C115.88 146.83 114.594 147.32 113.339 147.718C105.26 150.258 95.8648 150.962 87.5101 149.554C84.0519 148.972 82.5828 149.431 79.8897 151.88C77.1048 154.42 74.7484 157.419 72.9427 160.755C72.6673 161.244 72.0859 161.826 71.6574 161.458C71.5044 161.305 71.4738 161.091 71.4432 160.877C70.1273 150.288 68.9337 140.097 69.0255 129.447C69.1173 118.307 70.5557 107.229 71.9634 96.1811C72.1165 95.0488 72.2695 93.8553 72.9122 92.9066C73.5549 91.9579 74.3199 91.3458 75.6359 91.3458" fill="white"/>
<path d="M121.633 95.1405C121.572 93.7328 121.297 92.2332 120.44 91.0702C119.491 89.7849 118.053 89.1729 116.523 88.9586C114.717 88.7138 112.85 88.775 111.014 88.775C108.994 88.775 106.974 88.775 104.955 88.8056C96.9058 88.928 88.8876 89.3871 80.9001 90.1521C78.9415 90.3358 76.9829 90.55 75.0242 90.7948C74.9018 90.7948 74.81 90.8561 74.7182 90.9479C73.6165 91.2233 72.7595 91.9884 72.2393 93.0595C71.8414 93.8246 71.6884 94.6509 71.566 95.5078C71.4436 96.4565 71.3212 97.4358 71.1988 98.3845C70.6785 102.363 70.1889 106.341 69.7604 110.32C68.9035 118.307 68.3527 126.326 68.5975 134.374C68.8117 142.27 69.6686 150.135 70.6173 157.97C70.7398 158.949 70.8316 159.959 70.9846 160.938C71.0764 161.673 71.6885 162.254 72.4536 161.887C73.1574 161.52 73.4635 160.693 73.8307 160.051C74.2592 159.286 74.7488 158.551 75.2384 157.817C76.2484 156.378 77.3501 155.001 78.5743 153.746C79.6454 152.614 80.8083 151.451 82.1549 150.625C83.1648 149.982 84.2665 149.737 85.4906 149.768C87.1432 149.829 88.7652 150.227 90.3872 150.41C94.029 150.808 97.7014 150.839 101.313 150.502C104.893 150.196 108.474 149.554 111.963 148.574C113.523 148.146 115.207 147.717 116.492 146.677C117.777 145.636 118.236 144.014 118.42 142.454C118.451 142.086 118.512 141.719 118.542 141.321C118.604 141.229 118.604 141.138 118.573 141.015C118.695 139.577 118.757 138.108 118.848 136.67C119.001 134.65 119.124 132.599 119.277 130.579C119.552 126.57 119.828 122.561 120.134 118.552C120.409 114.482 120.715 110.442 120.991 106.372C121.144 104.352 121.266 102.302 121.419 100.282C121.542 98.5987 121.725 96.8543 121.633 95.1405ZM117.594 141.597C117.471 143.127 117.227 144.779 116.033 145.881C114.839 146.952 113.034 147.35 111.534 147.748C111.228 147.84 110.922 147.901 110.647 147.993C110.616 147.932 110.586 147.87 110.524 147.809C108.78 146.34 108.688 143.555 109.667 141.627C110.677 139.607 113.003 138.292 115.237 138.995C116.278 139.332 117.196 140.128 117.655 141.138C117.624 141.291 117.624 141.444 117.594 141.597ZM117.747 139.638C116.431 138.108 114.289 137.496 112.299 138.169C109.637 139.057 108.045 141.719 108.137 144.473C108.168 145.851 108.658 147.289 109.637 148.268C108.627 148.513 107.586 148.727 106.577 148.911L106.546 148.88C106.423 148.819 106.301 148.758 106.179 148.666C106.117 148.635 106.087 148.605 106.026 148.574L105.995 148.544C105.995 148.544 105.964 148.513 105.934 148.513C105.72 148.329 105.536 148.146 105.352 147.962C105.322 147.932 105.322 147.901 105.291 147.901C105.26 147.84 105.199 147.779 105.169 147.748C105.108 147.626 105.016 147.534 104.955 147.411C104.893 147.289 104.832 147.167 104.771 147.075C104.74 147.014 104.71 146.952 104.679 146.891L104.648 146.83C104.648 146.799 104.618 146.799 104.618 146.769C104.557 146.616 104.434 146.493 104.281 146.432C104.189 146.248 103.975 146.187 103.761 146.218C103.088 146.31 102.414 146.401 101.772 146.493C101.619 146.524 101.466 146.524 101.282 146.554C101.19 146.554 101.129 146.585 101.037 146.585C101.037 146.585 100.976 146.585 100.945 146.585C100.945 146.554 100.945 146.524 100.945 146.493C100.915 146.371 100.945 146.248 100.945 146.157C101.007 145.024 101.068 143.892 101.16 142.729C102.047 143.035 102.996 143.157 103.945 143.066C104.189 143.035 104.404 142.882 104.404 142.607C104.404 142.545 104.373 142.454 104.342 142.392C104.648 140.832 105.291 139.332 106.301 138.077C106.454 137.894 106.485 137.618 106.301 137.435C106.209 137.343 106.056 137.282 105.903 137.312C105.26 136.914 104.618 136.486 103.975 136.088C105.322 135.109 106.638 134.129 107.984 133.181C108.045 133.976 108.351 134.742 108.841 135.384V135.415C108.902 135.629 109.178 135.843 109.392 135.721C110.463 135.292 111.595 135.139 112.728 135.201C112.973 135.231 113.187 134.986 113.187 134.741C113.187 134.588 113.126 134.497 113.034 134.405C113.309 133.456 113.646 132.569 114.105 131.712C114.289 131.865 114.533 131.987 114.778 132.079C115.054 132.171 115.329 132.201 115.605 132.232C115.849 132.263 116.155 132.324 116.308 132.507C116.676 132.905 116.217 133.64 116.002 134.007C115.666 134.619 115.329 135.354 115.605 136.027C115.696 136.241 115.88 136.394 116.125 136.363C116.155 136.394 116.155 136.425 116.186 136.425C116.247 136.455 116.308 136.517 116.37 136.547C116.767 136.853 117.104 137.19 117.41 137.588C117.441 137.618 117.471 137.649 117.471 137.679C117.533 137.771 117.624 137.863 117.747 137.894C117.777 137.894 117.808 137.894 117.839 137.894C117.839 138.475 117.777 139.057 117.747 139.638ZM100.976 146.585C100.976 146.554 100.976 146.554 100.976 146.585C100.976 146.554 101.007 146.554 100.976 146.585ZM120.47 100.619C120.195 104.536 119.92 108.422 119.644 112.34C119.093 120.205 118.542 128.07 117.992 135.935C117.961 136.21 117.961 136.486 117.93 136.731C117.563 136.302 117.135 135.904 116.645 135.568C116.584 135.537 116.492 135.507 116.4 135.507C116.339 134.986 116.737 134.497 116.951 134.038C117.257 133.456 117.471 132.752 117.135 132.11C116.859 131.528 116.217 131.345 115.635 131.253C115.329 131.222 114.533 131.161 114.503 130.732C114.472 130.273 113.891 130.09 113.646 130.488C112.973 131.651 112.452 132.875 112.085 134.191V134.221C111.198 134.221 110.279 134.374 109.423 134.68C108.964 134.007 108.719 133.15 108.841 132.354C108.902 132.018 108.535 131.559 108.168 131.834C106.423 133.119 104.648 134.405 102.904 135.69C102.629 135.904 102.598 136.272 102.904 136.486C103.669 136.976 104.434 137.465 105.23 137.955C104.342 139.21 103.73 140.648 103.424 142.148C102.567 142.148 101.741 141.995 100.945 141.658C100.609 141.505 100.272 141.689 100.242 142.056C100.18 142.851 100.15 143.647 100.088 144.443C100.058 144.841 100.027 145.238 100.027 145.667C99.9967 146.004 99.9661 146.34 100.027 146.677C100.089 146.983 100.242 147.228 100.486 147.381C100.823 147.564 101.251 147.442 101.619 147.381C102.353 147.289 103.057 147.167 103.792 147.075C104.128 147.87 104.618 148.574 105.261 149.125C102.139 149.615 98.9868 149.86 95.8346 149.829C94.1208 149.829 92.3765 149.707 90.6627 149.554C89.0407 149.37 87.4186 149.003 85.7967 148.911C84.6031 148.85 83.4402 149.003 82.3384 149.523C81.0531 150.135 79.9514 151.145 78.9415 152.124C76.4932 154.45 74.3816 157.174 72.729 160.142C72.5453 160.448 72.4229 160.816 72.1169 161.03C72.0557 161.091 71.9944 161.122 71.9332 161.091C71.8414 161.03 71.8415 160.479 71.8109 160.418C71.6884 159.469 71.566 158.52 71.4742 157.572C71.2294 155.644 71.0151 153.716 70.8009 151.757C70.3725 147.962 70.0052 144.167 69.791 140.342C69.638 137.771 69.5462 135.231 69.5156 132.66C72.8208 132.354 75.7587 134.038 78.4212 135.874C76.6768 138.169 74.8406 140.434 72.9738 142.637C72.576 142.576 72.3005 143.157 72.6371 143.463C72.7289 143.617 72.882 143.77 73.0656 143.77C74.5958 144.81 76.126 145.851 77.6562 146.861C78.054 147.136 78.4212 146.677 78.2988 146.31C80.1044 144.014 81.91 141.719 83.7462 139.424C84.2359 139.699 84.7256 139.913 85.2152 140.158C86.929 140.893 89.0406 141.505 90.785 140.587C91.8868 140.005 92.6213 138.628 92.3459 137.435C93.5088 137.618 94.7329 137.251 95.5592 136.394C96.5385 135.354 96.7528 133.732 96.1713 132.446C97.426 132.11 98.7726 131.589 99.4152 130.396C99.8743 129.569 99.9355 128.498 99.4459 127.703C100.119 127.458 100.67 126.907 101.007 126.264C101.496 125.285 101.496 124.183 101.098 123.173C100.976 122.837 100.823 122.531 100.639 122.225C101.741 121.001 101.833 119.042 100.884 117.695C101.129 117.328 101.404 116.961 101.649 116.563C103.118 116.532 104.587 116.502 106.056 116.471C106.24 116.594 106.515 116.594 106.668 116.441C107.831 115.002 109.025 113.594 110.188 112.156C110.341 111.972 110.371 111.728 110.218 111.544C110.402 110.014 110.555 108.453 110.739 106.923C110.739 106.892 110.769 106.862 110.769 106.8C110.769 106.739 110.769 106.647 110.8 106.586V106.556C111.106 106.158 110.524 105.576 110.096 105.974C109.3 106.709 108.504 107.443 107.739 108.208C107.923 106.77 107.984 105.331 107.831 103.893C107.801 103.648 107.648 103.434 107.372 103.434C107.28 103.434 107.189 103.465 107.127 103.526C105.689 103.434 104.251 103.434 102.812 103.526C103.271 102.822 103.73 102.149 104.189 101.445C104.22 101.384 104.251 101.322 104.251 101.292C104.618 101.047 104.373 100.343 103.853 100.466C101.864 100.986 99.8743 101.384 97.8545 101.659C97.6097 101.69 97.426 101.843 97.3954 102.057C96.5079 103.679 95.6204 105.301 94.7635 106.892C94.7023 107.015 94.7023 107.137 94.7329 107.229C94.7329 107.29 94.7023 107.382 94.7329 107.443C95.0695 109.218 95.7122 110.963 96.5997 112.554C96.2019 113.135 95.8346 113.717 95.4368 114.298C95.4062 114.298 95.345 114.268 95.3144 114.268C89.9588 113.717 84.5113 114.268 79.3699 115.951C78.8191 116.135 79.0639 117.022 79.6148 116.838C84.4501 115.278 89.5915 114.696 94.6411 115.125C94.3657 115.737 93.9678 116.257 93.4782 116.716C92.1928 116.379 90.8769 116.196 89.5609 116.135C88.9794 116.104 88.9794 117.022 89.5609 117.053C90.8157 117.083 92.0704 117.297 93.2945 117.604C93.2945 117.604 93.2946 117.604 93.3252 117.634C94.8859 118.613 96.5385 119.44 97.9462 120.603C99.201 121.613 100.792 123.296 100.486 125.071C100.333 125.928 99.7519 126.785 98.895 126.938C97.4566 125.591 95.7122 124.642 93.7842 124.153C93.2027 124 92.9579 124.887 93.5394 125.04C95.2532 125.469 96.8139 126.295 98.0993 127.488C98.0993 127.611 98.1911 127.764 98.3136 127.825C99.1092 128.315 98.9868 129.508 98.4971 130.182C97.7932 131.13 96.4467 131.436 95.3756 131.712C93.9066 130.518 92.3152 129.508 90.6014 128.713C90.3872 128.621 90.1118 128.651 89.9588 128.866C89.8364 129.049 89.8976 129.386 90.1118 129.508C91.948 130.365 93.6618 131.436 95.1919 132.783C95.2531 132.813 95.2837 132.844 95.3449 132.875C95.7428 133.823 95.6204 134.986 94.9165 135.751C94.2432 136.486 93.1721 136.731 92.254 136.486C92.254 136.486 92.254 136.455 92.2234 136.455C90.9074 134.956 89.1937 133.854 87.2963 133.242C86.7454 133.058 86.5006 133.946 87.0514 134.129C88.551 134.619 89.8976 135.445 91.0299 136.547C90.9687 136.7 90.9993 136.853 91.1523 137.006C91.6113 137.465 91.5807 138.138 91.3665 138.72C91.0911 139.424 90.479 139.852 89.7751 140.036C88.0613 140.464 86.1333 139.669 84.6337 138.904C81.3285 137.22 78.6355 134.558 75.2691 132.997C73.4635 132.171 71.5355 131.651 69.5462 131.834C69.5156 126.938 69.6992 122.01 70.097 117.114C70.4031 113.258 70.8316 109.371 71.2906 105.515C71.5354 103.556 71.7802 101.598 72.0251 99.6699C72.1475 98.7212 72.2699 97.7724 72.3923 96.8237C72.5147 95.9668 72.5759 95.0793 72.8513 94.253C73.2798 92.9064 74.2285 91.8353 75.6975 91.8047C75.8199 91.8047 75.9423 91.7435 76.0035 91.6823C83.4708 90.8254 90.9993 90.2439 98.4971 89.9685C102.384 89.8155 106.27 89.7543 110.157 89.7849C111.993 89.7849 113.86 89.7543 115.727 89.8767C117.227 89.9992 118.757 90.3664 119.705 91.6211C120.562 92.7229 120.746 94.1918 120.777 95.569C120.777 97.1909 120.593 98.9047 120.47 100.619ZM79.1557 136.394C79.4923 136.639 79.829 136.884 80.1656 137.098C81.0531 137.741 81.9712 138.353 82.8893 138.934C81.1143 141.199 79.3393 143.433 77.5643 145.698C76.279 144.841 75.0242 143.984 73.7389 143.127C75.6057 140.923 77.4113 138.689 79.1557 136.394ZM97.3342 112.064C96.4773 110.534 95.8959 108.912 95.5592 107.198C96.4161 105.607 97.273 104.016 98.1605 102.455C99.7519 102.241 101.343 101.935 102.935 101.567C101.557 103.618 100.18 105.638 98.8338 107.688C98.6808 107.78 98.5584 107.994 98.6196 108.147C98.6196 108.331 98.8032 108.484 98.9868 108.545C100.701 109.953 102.567 111.177 104.557 112.187C104.801 112.309 105.046 112.187 105.169 112.034C105.199 112.003 105.26 111.972 105.291 111.942C106.76 110.412 108.26 108.912 109.82 107.474C109.667 108.882 109.514 110.259 109.331 111.666C109.331 111.728 109.331 111.758 109.361 111.819C108.321 113.074 107.311 114.329 106.27 115.553C104.74 115.584 103.179 115.614 101.649 115.645C101.588 115.645 101.558 115.645 101.527 115.675C101.374 115.645 101.19 115.706 101.098 115.89C100.211 117.175 99.3541 118.46 98.4666 119.776C97.9463 119.379 97.3954 118.981 96.8139 118.644C96.0794 118.185 95.3449 117.757 94.5799 117.297C94.7023 117.144 94.7941 116.961 94.9165 116.808C95.804 115.461 96.7222 114.084 97.6097 112.738C97.7015 112.432 97.5484 112.187 97.3342 112.064ZM101.741 108.881C101.772 107.657 101.772 106.464 101.802 105.24C101.802 105.117 101.772 105.025 101.71 104.964C101.864 104.75 101.986 104.536 102.139 104.322C102.2 104.352 102.261 104.352 102.323 104.352C103.853 104.23 105.383 104.23 106.913 104.322C107.036 105.852 106.944 107.413 106.638 108.912V108.943C104.985 109.096 103.363 109.035 101.741 108.881ZM105.873 109.953C105.444 110.381 105.046 110.809 104.618 111.238C103.822 110.809 103.026 110.35 102.261 109.861C103.455 109.953 104.679 109.983 105.873 109.953ZM100.854 106.25C100.823 107.107 100.823 107.994 100.792 108.851C100.425 108.576 100.027 108.269 99.6907 107.994C100.089 107.413 100.486 106.831 100.854 106.25ZM99.0786 120.297C99.4765 119.685 99.9049 119.073 100.303 118.491C100.792 119.379 100.701 120.572 100.088 121.398C99.7825 121.001 99.4459 120.664 99.0786 120.297C99.0786 120.327 99.0786 120.297 99.0786 120.297ZM83.4708 105.699C83.6239 105.913 83.5014 106.219 83.3178 106.341C83.1036 106.464 82.8281 106.372 82.6751 106.188C81.757 104.842 80.8389 103.495 79.8902 102.149C78.6966 102.914 77.4725 103.71 76.279 104.475C76.9217 105.729 77.5337 106.984 78.1764 108.239C78.1764 108.269 78.207 108.3 78.207 108.331C79.4617 107.596 80.7165 106.831 81.9712 106.097C82.4915 105.791 82.9505 106.586 82.4303 106.892C81.1143 107.688 79.7984 108.484 78.4518 109.249C78.1458 109.432 77.8398 109.218 77.7785 108.943C77.6255 108.943 77.4419 108.881 77.3807 108.728C76.738 107.474 76.126 106.188 75.4833 104.934C75.0854 104.934 74.8406 104.322 75.2691 104.077C75.2691 104.077 75.2996 104.077 75.2996 104.046C75.3302 103.985 75.3914 103.924 75.4526 103.893C75.5139 103.862 75.5751 103.832 75.6363 103.832C76.9216 103.006 78.207 102.179 79.4924 101.322C79.6454 101.2 79.829 101.231 79.9514 101.322C80.1657 101.2 80.4411 101.292 80.5635 101.475C81.5122 102.883 82.4915 104.291 83.4708 105.699ZM105.046 106.127C105.23 106.433 105.169 106.831 104.924 107.045C104.801 107.137 104.679 107.229 104.526 107.229C104.495 107.229 104.465 107.259 104.434 107.259C104.312 107.29 104.22 107.29 104.098 107.259C104.036 107.259 103.945 107.229 103.883 107.168C103.577 106.984 103.455 106.647 103.516 106.311C103.547 106.188 103.639 106.035 103.73 105.944C103.792 105.882 103.853 105.852 103.914 105.821C103.975 105.791 104.036 105.76 104.128 105.76C104.251 105.729 104.342 105.729 104.465 105.76C104.526 105.76 104.618 105.791 104.679 105.821C104.863 105.882 104.985 106.005 105.046 106.127ZM78.4518 105.117C78.4518 105.087 78.4518 105.056 78.4518 105.025C78.4518 104.995 78.4212 104.995 78.4212 104.964C78.3906 104.842 78.3906 104.689 78.4212 104.566C78.4519 104.444 78.513 104.322 78.6048 104.23C78.6966 104.138 78.7884 104.077 78.9109 104.046C78.9415 104.046 78.9721 104.016 78.9721 104.016C79.0333 104.016 79.0945 103.985 79.1557 103.985C79.2169 103.985 79.2781 103.985 79.3394 104.016C79.37 104.016 79.3699 104.016 79.4005 104.046C79.523 104.107 79.6148 104.138 79.7066 104.23C79.7984 104.322 79.8596 104.413 79.8902 104.536C79.9208 104.628 79.9208 104.689 79.8902 104.781C79.8596 104.872 79.829 104.934 79.7678 104.995C79.7372 105.025 79.7066 105.025 79.676 105.056C79.676 105.087 79.676 105.117 79.676 105.148C79.676 105.209 79.6454 105.27 79.6148 105.332C79.5536 105.423 79.4618 105.515 79.3394 105.546C79.2475 105.576 79.1251 105.576 79.0333 105.576C79.0027 105.576 79.0027 105.607 78.9721 105.607C78.9415 105.607 78.8803 105.607 78.8497 105.638C78.7273 105.638 78.6048 105.576 78.513 105.515C78.4824 105.484 78.4519 105.423 78.4212 105.362C78.4519 105.24 78.4518 105.178 78.4518 105.117Z" fill="black"/>
<path d="M94.09 24.6912C93.6615 18.2339 85.7658 19.2744 80.9304 18.9071C73.8304 18.3869 66.6691 18.295 59.5385 18.6623C51.2143 19.0601 38.5445 18.5399 31.7811 24.2322C28.5984 26.9253 27.1906 31.271 27.0682 35.4637C26.9152 39.6564 27.8639 43.7878 28.5066 47.8887C30.0673 57.8348 30.0674 68.0258 28.4454 77.972C27.9251 81.2159 27.3436 84.8884 29.3328 87.4897C30.557 89.0505 32.4544 89.8767 34.3519 90.4582C42.4006 92.9677 51.0613 92.4168 59.4773 91.8354C64.5881 91.4681 69.9438 90.6112 75.0546 90.6724C79.2167 90.7336 82.8891 93.947 85.521 97.0992C88.1529 100.251 90.0503 103.924 91.9477 107.566C91.0602 105.882 92.9882 99.6699 93.2637 97.6807C93.7227 94.1919 94.1511 90.6725 94.5796 87.1837C95.3753 80.7569 96.018 74.6974 95.7732 68.2706C95.1917 53.7646 95.0693 39.2585 94.09 24.6912Z" fill="white"/>
<path d="M62.2318 74.0546C61.987 73.5343 62.7827 73.0447 63.0275 73.5955C64.1293 75.952 66.9142 76.8089 69.3318 76.1968C72.0862 75.5236 74.1366 73.3814 75.6974 71.1167C76.034 70.627 76.8297 71.0861 76.4931 71.5758C75.6974 72.7081 74.8405 73.8098 73.8306 74.7279C72.0556 76.3193 69.7297 77.4822 67.2814 77.2986C65.2004 77.1456 63.1499 75.9826 62.2318 74.0546ZM30.0369 57.3451C32.6382 57.896 35.2089 58.4774 37.8102 59.0283C38.3917 59.1507 38.6365 58.2632 38.055 58.1408C35.4537 57.5899 32.8831 57.0084 30.2818 56.4576C29.7003 56.3351 29.4555 57.2227 30.0369 57.3451ZM69.6379 42.4106C69.7297 42.5024 69.7603 42.6248 69.7603 42.7472C69.7603 42.8696 69.6991 42.9614 69.6379 43.0838C69.24 43.5735 68.8422 44.0938 68.4137 44.5834C68.2607 44.7977 67.9241 44.7365 67.7711 44.5834C67.6793 44.4916 67.6486 44.3692 67.6486 44.2468C67.6486 44.1244 67.7099 44.0325 67.7711 43.9101C68.1689 43.4205 68.5668 42.9002 68.9952 42.4106C69.1483 42.1963 69.4542 42.2575 69.6379 42.4106ZM66.0573 44.0631C66.2715 44.1549 66.5776 44.1243 66.7 43.9101C66.853 43.5735 67.0366 43.2368 67.2509 42.9308C67.3121 42.8696 67.3427 42.7778 67.4039 42.7166C67.4039 42.686 67.4344 42.686 67.4344 42.6554C67.465 42.6248 67.4957 42.5942 67.5263 42.5636C67.6487 42.4106 67.7711 42.2576 67.9241 42.1352C68.1077 41.9515 68.1077 41.6455 67.9241 41.4925C67.7405 41.3088 67.465 41.3088 67.2814 41.4925C66.6999 42.0739 66.2409 42.7472 65.9043 43.4817C65.843 43.6041 65.8125 43.6959 65.8431 43.8489C65.8737 43.8795 65.9655 44.0019 66.0573 44.0631ZM71.0457 41.064C71.1987 41.2783 71.3211 41.4924 71.4435 41.7067C71.4741 41.8291 71.5353 41.9209 71.5659 42.0433C71.6271 42.2882 71.9026 42.4412 72.1168 42.3494C72.3616 42.2882 72.5146 42.0433 72.4228 41.7985C72.2392 41.1864 71.9332 40.6356 71.5047 40.2071C71.3517 40.0235 71.015 40.0235 70.862 40.2071C70.6784 40.3907 70.6784 40.6661 70.862 40.8498C70.9538 40.911 71.0151 40.9722 71.0457 41.064ZM67.7711 39.3196C68.0465 39.3196 68.3526 39.3502 68.628 39.3808C68.7198 39.3808 68.8116 39.4114 68.8728 39.4114C68.9034 39.4114 68.9646 39.4114 68.9952 39.442C69.0258 39.4726 69.0565 39.5033 69.0871 39.5339C69.3013 39.6563 69.6073 39.5951 69.7297 39.3808C69.8215 39.1972 69.8215 39.0135 69.7297 38.8605C69.6379 38.7381 69.5155 38.6463 69.3625 38.5851C69.2094 38.5545 69.0258 38.5239 68.8728 38.4933C68.5055 38.4321 68.1383 38.4015 67.7711 38.4015C67.5263 38.4015 67.312 38.6157 67.312 38.8605C67.3426 39.136 67.5263 39.3196 67.7711 39.3196ZM60.7935 54.1011C60.7935 54.1623 60.8241 54.2235 60.8547 54.2848C60.8853 54.346 60.9465 54.4071 60.9771 54.4683C61.0383 54.5295 61.0995 54.5907 61.1607 54.6213C61.2219 54.652 61.3137 54.6826 61.3749 54.7132C61.4361 54.7438 61.5279 54.7438 61.6198 54.7438C61.6504 54.7438 61.6503 54.7438 61.6809 54.7438C61.7422 54.7438 61.8034 54.7438 61.8646 54.7132C61.9258 54.6826 62.0176 54.652 62.0788 54.6213C62.2012 54.5601 62.2318 54.499 62.3237 54.3766C62.3849 54.3154 62.3849 54.2541 62.4155 54.1623C62.4461 54.1011 62.446 54.0093 62.446 53.9175C62.446 53.8563 62.446 53.7951 62.446 53.7339C62.446 53.6727 62.4155 53.6114 62.4155 53.5502C62.3849 53.489 62.3849 53.4278 62.3543 53.3972C62.3237 53.336 62.2931 53.3054 62.2625 53.2748C62.2013 53.2136 62.14 53.1524 62.0788 53.1218C62.0176 53.0912 61.987 53.0606 61.9258 53.0606C61.8952 53.0606 61.8952 53.0606 61.8646 53.03C61.8034 52.9994 61.7116 52.9994 61.6198 52.9994C61.4361 52.9994 61.2832 53.0606 61.1301 53.1524C61.0995 53.183 61.0383 53.2136 60.9771 53.2748C60.9465 53.3054 60.8853 53.3666 60.8547 53.4278C60.8547 53.4584 60.8241 53.4584 60.8241 53.489C60.7935 53.5502 60.7628 53.6115 60.7628 53.6727C60.7628 53.7033 60.7628 53.7645 60.7628 53.7951C60.7628 53.8257 60.7322 53.8563 60.7628 53.9175C60.7628 53.9787 60.7629 54.0399 60.7935 54.1011ZM96.2936 72.1878C96.263 75.0952 96.0488 78.0025 95.7733 80.8792C95.4979 83.8477 95.1 86.7857 94.7328 89.7237C94.5491 91.2232 94.3656 92.6922 94.182 94.1917C94.0289 95.5077 93.8759 96.8237 93.6616 98.109C93.3862 99.731 92.9272 101.353 92.6212 102.975C92.4375 103.832 92.2845 104.719 92.2233 105.607C92.1927 106.158 92.1315 106.862 92.3763 107.351C92.6517 107.872 91.8561 108.331 91.5807 107.81C90.7544 106.219 89.9281 104.628 89.0406 103.097C87.2962 100.037 85.2763 97.1297 82.675 94.7426C81.4509 93.6103 80.1043 92.6309 78.5742 91.9577C77.8397 91.621 77.0745 91.4069 76.3095 91.2538C75.422 91.1008 74.5038 91.1314 73.6163 91.162C69.7603 91.2538 65.9043 91.7434 62.0482 92.1107C58.2228 92.4779 54.3667 92.7228 50.5107 92.784C46.7464 92.8758 42.9516 92.7228 39.218 92.0801C37.3818 91.7741 35.5455 91.3456 33.7705 90.7335C32.271 90.2439 30.7714 89.5706 29.6391 88.4383C27.252 86.1124 27.3744 82.593 27.8028 79.5327C28.0477 77.6965 28.3843 75.8908 28.5986 74.0546C28.8434 72.096 28.9964 70.1068 29.1188 68.1175C29.333 64.1697 29.3025 60.2218 29.0576 56.3045C28.7822 52.3567 28.2007 48.4395 27.558 44.5528C26.4563 38.0037 25.6606 30.2916 30.496 24.9665C32.3322 22.9467 34.8723 21.6308 37.4124 20.7127C40.1361 19.764 43.0128 19.2437 45.8896 18.9377C48.8275 18.601 51.7655 18.4786 54.7034 18.3868C57.825 18.295 60.9465 18.1113 64.068 18.0501C68.1383 17.9583 72.2086 17.989 76.2789 18.1726C78.0845 18.2644 79.8595 18.3868 81.6345 18.4786C82.7056 18.5398 83.8073 18.5398 84.8784 18.5704C87.0513 18.6316 89.316 18.7847 91.3358 19.7028C93.3863 20.6515 94.488 22.4571 94.641 24.6911C94.7022 25.4562 94.7328 26.2213 94.794 26.9864C95.1613 33.0153 95.4061 39.0442 95.5897 45.0731C95.7733 51.1326 95.9263 57.1921 96.1406 63.221C96.1406 66.2201 96.3242 69.2193 96.2936 72.1878ZM95.3755 70.2904C95.3449 67.2607 95.1612 64.2309 95.0694 61.2011C94.8858 55.111 94.7022 49.0209 94.5186 42.9614C94.3043 36.8713 94.0595 30.7813 93.6616 24.6911C93.6004 23.6812 93.2945 22.6713 92.6518 21.8756C91.397 20.3148 89.2241 19.8863 87.3267 19.6721C85.2151 19.4273 83.0728 19.5191 80.9612 19.3661C76.9827 19.0907 73.0043 18.9376 69.0258 18.907C65.3534 18.8764 61.7116 19.0601 58.0392 19.1825C52.4387 19.3967 46.7465 19.3661 41.2378 20.5597C38.5753 21.1411 35.974 21.998 33.6482 23.4364C31.1081 25.0584 29.3636 27.4454 28.4149 30.2915C27.3438 33.5661 27.3744 37.0243 27.7723 40.3907C28.2313 44.2161 29.0576 47.9804 29.486 51.8058C30.3735 59.5179 30.3123 67.3524 29.333 75.0645C29.1188 76.8089 28.7822 78.5227 28.5679 80.2671C28.3843 81.7973 28.2925 83.4193 28.6598 84.9188C29.0576 86.5102 29.9757 87.765 31.3529 88.6219C32.73 89.5094 34.352 89.9685 35.9434 90.3969C38.2693 91.009 40.6257 91.4068 43.0128 91.5904C43.0128 91.5598 43.0128 91.5292 43.0128 91.4986C43.0128 88.8055 42.9822 86.1124 42.921 83.4193C42.7374 73.9934 42.2783 64.5981 41.8805 55.1722C38.0244 54.652 34.1684 54.1317 30.3123 53.6115C30.0675 53.5809 29.9451 53.2748 30.0063 53.0606C30.0675 52.7852 30.3123 52.6934 30.5572 52.7546C34.5356 53.3054 38.4835 53.8257 42.462 54.3766C42.6762 54.4072 42.7986 54.652 42.7986 54.805C42.921 57.4981 43.0128 60.1912 43.1353 62.8843C43.2883 66.5261 43.4413 70.1986 43.5637 73.8404L43.5943 73.8098C47.3279 71.1167 51.3982 68.8826 55.6827 67.1688C55.7133 67.1688 55.7439 67.1382 55.7745 67.1382C55.9275 66.3425 56.0499 65.5468 56.2029 64.7511C56.968 60.6197 57.7331 56.4576 58.4982 52.3261C56.1417 51.0101 53.7547 49.6636 51.3982 48.3476C51.0616 48.164 51.1228 47.7356 51.3982 47.552C52.7142 46.5727 54.0301 45.5933 55.346 44.614C57.7943 42.7778 60.212 40.911 62.6603 39.1054C63.8539 38.2179 65.0168 37.2385 66.3327 36.5653C67.0366 36.198 67.7405 35.9226 68.5056 35.739C68.0159 35.4942 67.5263 35.1575 67.0672 34.6679C65.7513 33.3213 65.1392 29.0368 67.8629 26.864C69.2707 30.6588 71.5047 30.8424 74.0754 31.4851C74.8099 31.1791 75.5444 30.9036 76.3095 30.6894C78.2069 30.1385 80.3185 30.261 81.6651 31.883C82.828 33.2907 83.0729 35.1269 82.7668 36.9019C82.4302 38.8606 81.5121 40.6968 80.4409 42.3494C79.9819 43.0533 79.4922 43.7265 78.9719 44.3998C79.7982 44.4304 80.4716 44.92 80.9306 45.5933C81.4203 46.3278 81.512 47.2765 81.4202 48.1334C81.3284 49.0821 81.0837 50.0615 80.7164 50.9184C80.0737 52.4179 78.6965 53.642 77.0134 53.5502C76.9521 53.6726 76.8604 53.7339 76.7379 53.7951C76.5237 54.0705 76.2789 54.346 76.0341 54.5908C76.0341 54.6214 76.0646 54.652 76.0646 54.6826C76.6767 59.1201 77.4418 63.527 78.3293 67.9033C78.4211 67.9033 78.513 67.9339 78.5742 67.9952C81.9406 70.6883 85.1539 73.5956 88.153 76.6865C88.5509 77.115 87.9082 77.7577 87.5104 77.3292C84.6642 74.3913 81.6345 71.637 78.4517 69.0663C77.6254 70.4128 76.1565 71.2085 74.6569 71.7288C72.9125 72.3408 71.0763 72.7693 69.2706 73.1671C67.312 73.565 65.2616 73.8404 63.2724 73.5955C63.1194 73.5649 62.9357 73.5343 62.7827 73.5343C62.7827 73.6568 62.7521 73.7792 62.6603 73.871C61.0689 75.4318 58.4064 75.7991 56.509 74.5749C54.6422 73.3814 53.7546 70.9331 54.4279 68.8214C54.4585 68.7296 54.5197 68.6378 54.5809 68.6072C50.8779 70.1986 47.3585 72.2184 44.0839 74.5749C43.9003 74.6973 43.7473 74.6667 43.6249 74.5749C43.7473 78.0943 43.8391 81.6137 43.9003 85.1331C45.1551 83.7254 47.3585 83.2969 49.0111 84.2762C49.5314 84.5823 49.0723 85.3779 48.5521 85.0719C47.2055 84.2762 45.3081 84.6741 44.4206 85.9594C44.2982 86.1124 44.1145 86.2042 43.9309 86.1736C43.9615 87.5508 43.9615 88.8973 43.9615 90.2745C45.1245 89.2033 46.8688 88.8055 48.3684 89.3564C48.6132 89.4482 48.7663 89.6624 48.6744 89.9072C48.6132 90.1215 48.3379 90.3051 48.1236 90.2133C46.7771 89.7236 45.2163 90.1521 44.2982 91.2538C44.2064 91.3456 44.1146 91.3762 43.9922 91.3762C43.9922 91.4068 43.9922 91.4374 43.9922 91.468C43.9922 91.5293 43.9921 91.5599 43.9615 91.6211C48.7663 91.9577 53.6016 91.6823 58.4064 91.3762C62.2012 91.1314 65.9655 90.6418 69.7603 90.3357C71.6271 90.1827 73.5551 90.0602 75.4525 90.1215C76.9827 90.1827 78.4517 90.6723 79.7983 91.3762C82.675 92.9064 85.0315 95.3853 86.9595 97.956C88.6733 100.221 90.0811 102.7 91.397 105.209C91.4888 104.046 91.7643 102.883 92.0091 101.781C92.3457 100.159 92.8048 98.5068 93.019 96.8542C93.7841 90.8865 94.641 84.9188 95.1306 78.9512C95.253 76.1662 95.4061 73.2284 95.3755 70.2904ZM55.5602 68.3317V68.3012C55.2848 68.4236 55.0094 68.5154 54.7646 68.6378C55.0706 68.6072 55.4073 68.8214 55.2848 69.1887C54.734 70.9025 55.4072 72.9223 56.9374 73.9016C58.437 74.8503 60.518 74.6361 61.8646 73.4425C59.2939 72.7998 56.8763 71.2697 55.7745 68.8214C55.6215 68.7296 55.499 68.546 55.5602 68.3317ZM59.4163 52.2955C59.3245 52.8158 59.2327 53.3666 59.1103 53.8869C58.2228 58.661 57.3352 63.4352 56.4783 68.2399C56.4783 68.2705 56.509 68.2706 56.509 68.3012C57.1823 69.8008 58.3452 70.933 59.753 71.6981C62.8439 73.3813 66.4551 73.0141 69.7909 72.249C71.4435 71.8818 73.0961 71.4839 74.6875 70.8719C75.8198 70.4434 76.9215 69.8007 77.5948 68.7908C77.5336 68.7296 77.4724 68.6684 77.4418 68.546C76.5543 64.2309 75.8198 59.8852 75.1771 55.5089C73.1573 57.3757 70.6478 58.7223 67.9547 59.3343C67.7405 59.6404 67.4344 59.824 67.0672 59.9464C66.6388 60.0994 66.0879 60.1912 65.6288 60.1912C65.1698 60.1912 64.7108 60.0688 64.3435 59.7322C64.1599 59.5486 64.0374 59.3344 63.9762 59.1201C63.8538 59.1813 63.6702 59.2119 63.5478 59.1201C63.3336 58.9977 63.2418 58.6916 63.3948 58.4774C63.8844 57.7429 64.6801 57.2839 65.537 57.1921C66.2715 57.1003 67.0366 57.2839 67.6486 57.743C67.8629 57.896 68.0159 58.1102 68.1077 58.355C70.9844 57.6206 73.6164 56.0292 75.575 53.8257C75.0241 53.6421 74.5345 53.2748 74.1672 52.8158C73.5551 52.0201 73.4021 51.0101 73.5551 50.0308C73.7388 48.9597 74.2896 47.9498 74.9935 47.0623L74.5651 46.9705C72.4534 44.7364 73.5245 42.3493 73.3409 40.3295C73.0961 37.5446 71.7802 37.1161 70.1582 36.5653H70.1276C68.5974 36.5959 67.159 37.1468 65.8737 37.9731C64.6189 38.7687 63.456 39.7175 62.293 40.605C61.0995 41.4925 59.906 42.4105 58.7124 43.298C56.6314 44.8894 54.5198 46.4502 52.4081 48.011C54.6728 49.2964 56.9068 50.5511 59.1715 51.8058C59.3857 51.8976 59.4469 52.1119 59.4163 52.2955ZM79.8901 41.5843C81.4508 39.0442 83.1953 34.9739 80.7776 32.4338C79.4004 31.026 77.4112 31.3933 75.7586 31.9747C75.6668 32.0053 75.575 32.036 75.4832 32.0666C76.4625 32.4338 77.503 32.9541 78.5435 33.8416C80.5328 35.4942 80.6551 38.6157 79.8901 41.5843ZM74.4427 50.4593C74.3509 51.6222 75.0547 52.9076 76.2483 52.9994C76.2789 52.9688 76.3095 52.9382 76.3401 52.9076C76.4931 52.6934 76.7685 52.6628 76.9522 52.7546C78.6048 52.9688 79.7064 51.3162 80.1349 49.9391C80.5021 48.7149 80.9306 46.9399 79.9207 45.8993C78.8496 44.7364 77.4112 45.93 76.5849 46.7563C75.575 47.7662 74.5345 48.9597 74.4427 50.4593ZM67.1284 58.5692C67.159 58.5692 67.1896 58.5692 67.2202 58.5386C67.1896 58.508 67.159 58.4774 67.1284 58.4468C66.9448 58.2938 66.7612 58.202 66.547 58.1408C66.2103 58.0489 65.8737 58.0184 65.537 58.0796C65.537 58.1102 65.537 58.1408 65.537 58.202C65.537 58.4468 65.3228 58.6917 65.078 58.6611C65.0168 58.6611 65.0474 58.6305 65.0168 58.6611C64.9862 58.6611 64.9862 58.6611 64.9556 58.7223C64.8944 58.8141 64.8943 58.8446 64.925 58.9058C64.9556 58.967 65.0168 59.0589 65.1086 59.1201C65.2004 59.1813 65.3228 59.2425 65.4452 59.2425C65.7818 59.3037 66.1185 59.2119 66.4551 59.1507C66.5775 59.1201 66.6999 59.0895 66.8224 59.0589C66.7612 58.8446 66.8224 58.5998 67.1284 58.5692ZM76.8603 48.3171C77.4418 48.6537 78.0233 48.9903 78.6047 49.2964C78.8189 49.4188 79.125 49.3576 79.2474 49.1433C79.3698 48.9291 79.3086 48.6537 79.0944 48.5006C78.5129 48.164 77.9315 47.8274 77.35 47.5213C77.1358 47.3989 76.8297 47.4601 76.7073 47.6744C76.5849 47.9192 76.6461 48.1946 76.8603 48.3171ZM76.1259 49.8166C76.891 50.1838 77.6254 50.5817 78.3905 50.9489C78.6047 51.0713 78.9108 51.0101 79.0332 50.7959C79.1556 50.5817 79.0944 50.2757 78.8802 50.1533C78.1151 49.786 77.3806 49.3882 76.6155 49.021C76.4013 48.8985 76.0953 48.9598 75.9729 49.174C75.8504 49.3882 75.9117 49.6942 76.1259 49.8166ZM38.2081 82.1645C38.1774 84.3986 38.0856 86.6021 37.9632 88.8361C37.9326 89.4176 38.8507 89.4176 38.8813 88.8361C39.2792 81.0628 39.2486 73.2589 38.8201 65.455C38.6977 63.221 38.5447 61.0175 38.3611 58.7835C38.2999 58.202 37.3818 58.202 37.443 58.7835C38.1162 66.5568 38.3611 74.3606 38.2081 82.1645ZM60.8547 90.1827C58.6512 88.5913 56.9069 86.4797 54.8564 84.6741C52.959 82.9909 50.7249 81.6137 48.1542 81.2771C46.777 81.0934 45.3999 81.3077 44.1757 81.9198C43.6555 82.1952 44.1145 82.9602 44.6348 82.7154C46.777 81.6443 49.3171 82.1952 51.3676 83.2969C53.6016 84.4905 55.3154 86.3572 57.0904 88.1322C58.1309 89.1727 59.2021 90.1521 60.3956 91.009C60.8853 91.315 61.3443 90.5194 60.8547 90.1827ZM49.6538 87.2141C47.94 86.1124 45.5835 86.3266 44.0534 87.6732C43.5943 88.071 44.2675 88.7137 44.696 88.3159C45.9201 87.2448 47.8176 87.1529 49.1948 88.0098C49.6844 88.3465 50.1741 87.5508 49.6538 87.2141Z" fill="black"/>
</svg>
