<svg width="180" height="180" viewBox="0 0 180 180" fill="none" xmlns="http://www.w3.org/2000/svg">
<path d="M75.3179 135.989C75.0724 130.036 68.3207 126.568 62.3977 125.893C56.4747 125.248 50.0914 126.016 44.8742 123.069C40.2094 120.43 37.4781 115.274 36.0664 110.088C34.6547 104.901 34.2558 99.5 32.8134 94.3135C30.6345 86.4264 26.0617 79.0303 26.0004 70.8363C25.939 60.893 33.5806 51.4101 43.3091 49.3539C48.7411 48.2184 54.5106 49.1698 59.8812 47.6967C71.6045 44.4744 77.6502 30.9711 88.6983 25.8767C95.7875 22.593 104.074 23.1761 111.746 24.8026C115.367 25.5698 118.958 26.5519 122.119 28.4546C126.845 31.3087 130.282 36.2497 131.326 41.651C133.719 53.988 124.359 65.4658 122.763 77.9563C121.996 83.9714 123.101 90.2013 125.924 95.6025C128.195 99.9297 131.479 103.643 133.811 107.94C136.113 112.236 137.371 117.576 135.254 121.965C134.088 124.389 131.97 126.292 129.668 127.703C122.15 132.337 112.759 132.307 103.92 132.123" fill="#16202C"/>
<path d="M106.192 87.1322C106.192 89.3111 106.223 91.7048 107.604 93.3927C109.476 95.7251 112.943 95.8172 115.92 95.6944C123.47 95.3875 131.019 95.05 138.538 94.5897C142.16 94.3748 143.111 96.5537 145.075 99.4692C147.07 102.415 148.758 105.546 150.139 108.799C150.783 101.126 152.901 92.9631 152.471 85.2601C151.796 72.34 151.09 59.4505 150.415 46.5304C150.323 44.8732 150.2 43.1239 149.187 41.835C147.53 39.7174 144.4 39.7481 141.73 39.9936C135.684 40.5153 129.669 41.0063 123.623 41.5281C119.143 41.8963 112.483 41.3439 108.862 44.5356C107.174 46.0394 106.315 48.3104 106.13 50.5814C105.854 53.4048 106.468 56.1975 106.407 59.0209C106.315 62.1512 106.376 65.2815 106.345 68.3811C106.284 74.6417 106.253 80.8716 106.192 87.1322Z" fill="#111217"/>
<path d="M152.962 85.689C152.839 82.9577 152.686 80.1957 152.532 77.4643C152.226 71.9403 151.949 66.4469 151.642 60.9229C151.489 58.1609 151.336 55.3988 151.213 52.6675C151.151 51.2865 151.059 49.9054 150.998 48.5244C150.937 47.2662 150.906 46.0386 150.752 44.7804C150.599 43.7062 150.323 42.5707 149.678 41.6807C149.095 40.8828 148.328 40.3305 147.407 39.9622C145.535 39.2256 143.418 39.3484 141.454 39.5325C135.96 39.9928 130.498 40.4532 125.004 40.9442C123.009 41.1284 121.015 41.1898 118.989 41.2818C117.025 41.3739 115.03 41.5273 113.097 41.9876C111.286 42.448 109.476 43.2152 108.156 44.5962C106.622 46.192 105.885 48.371 105.67 50.5192C105.394 53.1892 105.946 55.8285 105.946 58.4984C105.946 61.2297 105.885 63.9304 105.885 66.6618C105.885 72.1551 105.824 77.6177 105.762 83.1111C105.762 84.4614 105.731 85.8118 105.731 87.1621C105.731 88.9421 105.732 90.7834 106.468 92.4407C107.143 93.9751 108.432 95.0492 109.997 95.6323C111.532 96.1847 113.22 96.2461 114.846 96.2461C116.994 96.2154 119.112 96.0926 121.26 96.0006C125.741 95.8164 130.221 95.6016 134.702 95.3561C135.838 95.2947 136.942 95.2334 138.047 95.1413C138.845 95.0799 139.643 95.0492 140.41 95.2948C141.668 95.663 142.497 96.6451 143.234 97.6578C145.75 101.279 147.99 105.085 149.709 109.136C149.893 109.596 150.538 109.289 150.568 108.89C150.998 103.704 152.041 98.6092 152.594 93.4534C152.901 90.8141 153.085 88.2362 152.962 85.689ZM152.011 89.9855C151.735 95.0799 150.752 100.082 150.077 105.115C149.985 105.76 149.924 106.374 149.863 107.018C149.218 105.637 148.543 104.287 147.776 102.967C146.824 101.279 145.75 99.6526 144.676 98.0261C143.94 96.9213 143.203 95.7551 142.098 94.9879C140.809 94.0672 139.305 94.0671 137.771 94.1592C133.352 94.4354 128.902 94.6502 124.483 94.8651C122.242 94.9571 120.002 95.0492 117.762 95.172C115.951 95.2333 114.14 95.3868 112.33 95.172C110.611 94.9571 108.8 94.374 107.788 92.8703C106.652 91.2131 106.652 89.0648 106.652 87.1314C106.683 81.7608 106.714 76.4209 106.775 71.0503C106.806 68.3804 106.806 65.7104 106.806 63.0097C106.806 61.6901 106.836 60.3397 106.867 59.0201C106.898 57.7312 106.806 56.4422 106.683 55.184C106.499 52.7595 106.345 50.3044 107.174 47.972C107.849 46.0386 109.199 44.5655 111.041 43.6755C112.729 42.8776 114.631 42.54 116.473 42.3866C118.375 42.2025 120.309 42.1718 122.212 42.0797C124.636 41.957 127.06 41.7115 129.485 41.4966C132.155 41.2818 134.825 41.0363 137.464 40.8215C138.814 40.6987 140.165 40.6066 141.484 40.4839C142.497 40.3918 143.479 40.3305 144.492 40.3612C146.395 40.4532 148.359 41.0363 149.249 42.8469C149.74 43.829 149.832 44.9645 149.893 46.0387C149.985 47.3583 150.047 48.6779 150.108 49.9668C150.261 52.6675 150.384 55.3681 150.538 58.0688C150.814 63.4394 151.121 68.8406 151.397 74.2112C151.55 76.8812 151.673 79.5819 151.827 82.2519C152.011 84.8604 152.134 87.4076 152.011 89.9855ZM142.681 69.9762C140.441 69.5772 138.139 69.1783 136.144 67.9814C134.395 66.938 133.045 65.3421 132.615 63.3473C132.186 61.4139 132.523 59.4191 132.646 57.455C132.677 56.9333 132.677 56.3809 132.646 55.8592C132.615 55.4295 132.585 54.9999 132.4 54.6316C132.001 53.8951 131.019 53.8644 130.344 54.1406C128.871 54.7237 128.227 56.5036 128.165 57.9767C128.073 60.0022 128.748 61.9356 128.871 63.9611C128.933 65.4035 128.779 67.1835 127.582 68.1962C126.232 69.3317 124.36 69.0248 122.733 68.8406C120.831 68.6258 118.652 68.6566 117.148 70.0376C116.043 71.0503 115.675 72.8609 116.718 73.9964C117.915 74.7944 119.388 75.0706 120.769 74.7023C121.352 74.5489 121.598 75.4388 121.015 75.5923C119.603 75.9605 118.069 75.7764 116.78 75.1013C115.89 76.0833 116.074 77.7405 117.393 78.2929C117.516 78.3543 117.608 78.4464 117.67 78.5384C119.02 78.9374 120.432 79.0602 121.813 78.8761C122.058 78.8454 122.273 79.1216 122.273 79.3364C122.273 79.6126 122.058 79.766 121.813 79.7967C120.34 79.9809 118.836 79.8581 117.424 79.4284C116.964 80.5332 117.393 81.7915 118.406 82.4053C118.498 82.3746 118.59 82.3439 118.713 82.4053C120.34 82.927 122.058 83.0498 123.715 82.7122C124.298 82.5894 124.544 83.4794 123.961 83.6022C122.396 83.909 120.8 83.8783 119.296 83.5101C118.805 84.0625 119.235 84.8604 119.756 85.2287C120.462 85.7504 121.414 85.9652 122.242 86.1494C125.649 86.7938 128.779 85.2594 132.063 84.5842C135.377 83.909 138.814 84.0625 142.037 85.0139C142.62 85.1673 142.374 86.0573 141.791 85.9038C139.766 85.3208 137.679 85.0445 135.561 85.1059C133.751 85.1673 131.971 85.5049 130.252 85.9959C128.503 86.487 126.784 87.0394 124.974 87.2235C123.255 87.3769 121.383 87.1007 119.818 86.3642C119.143 86.0266 118.529 85.5049 118.283 84.7684C118.13 84.3387 118.161 83.8476 118.314 83.418C116.688 82.6815 115.92 80.748 116.595 79.1215C116.534 79.0601 116.473 78.9374 116.473 78.8453C115.89 78.4157 115.46 77.8019 115.337 77.0654C115.184 76.2061 115.429 75.2854 116.012 74.6409C114.785 73.2906 115.03 71.1116 116.197 69.7613C117.7 68.012 120.155 67.7051 122.334 67.92C123.869 68.0734 126.14 68.6872 127.275 67.2448C128.227 66.0173 128.042 64.0838 127.828 62.6414C127.521 60.5853 126.907 58.4371 127.551 56.3809C128.012 54.8157 129.178 53.3119 130.897 53.1278C131.725 53.0357 132.615 53.312 133.137 54.0178C133.689 54.8158 133.689 55.9206 133.659 56.8412C133.628 58.8667 133.168 60.9536 133.536 62.9791C133.904 64.9125 135.132 66.3855 136.82 67.3369C138.692 68.411 140.871 68.7793 142.988 69.1475C143.51 69.1782 143.264 70.0683 142.681 69.9762ZM119.235 45.4862C118.928 44.9952 119.726 44.5349 120.033 45.0259C121.168 46.8059 122.58 48.4017 124.176 49.7827C124.36 49.9362 124.329 50.2737 124.176 50.4271C123.992 50.6113 123.715 50.5806 123.531 50.4271C121.874 49.0154 120.432 47.3583 119.235 45.4862ZM136.513 51.3172C137.771 49.6293 139.06 47.9414 140.318 46.2535C140.472 46.0693 140.717 45.9466 140.963 46.1C141.147 46.2228 141.27 46.5296 141.116 46.7444C139.858 48.4323 138.569 50.1203 137.311 51.8082C137.157 51.9923 136.912 52.115 136.666 51.9616C136.482 51.8388 136.359 51.532 136.513 51.3172ZM130.467 49.0769C130.467 47.5731 130.467 46.0693 130.467 44.5656C130.467 43.9825 131.388 43.9825 131.388 44.5656C131.388 46.0693 131.388 47.5731 131.388 49.0769C131.388 49.6906 130.467 49.6906 130.467 49.0769Z" fill="#DCDCDC"/>
<path d="M74.5201 91.4588C87.563 89.8936 100.698 89.2492 113.833 89.464C115.644 89.4947 117.608 89.5867 118.989 90.7529C120.953 92.4101 120.953 95.387 120.769 97.9342C119.756 112.45 118.743 126.935 117.73 141.451C117.608 143.139 117.454 144.919 116.349 146.208C115.49 147.19 114.201 147.681 112.943 148.08C104.841 150.627 95.4194 151.333 87.0413 149.922C83.5734 149.339 82.1003 149.799 79.3996 152.254C76.6069 154.801 74.2439 157.809 72.4332 161.154C72.157 161.645 71.5739 162.228 71.1443 161.86C70.9908 161.706 70.9602 161.491 70.9295 161.277C69.6098 150.658 68.4129 140.439 68.505 129.759C68.5971 118.588 70.0395 107.478 71.4512 96.3997C71.6046 95.2642 71.7581 94.0673 72.4026 93.116C73.047 92.1646 73.8142 91.5508 75.1339 91.5508" fill="#111217"/>
<path d="M121.26 95.3556C121.198 93.9439 120.922 92.4401 120.063 91.274C119.111 89.985 117.669 89.3713 116.134 89.1564C114.324 88.9109 112.452 88.9723 110.61 88.9723C108.585 88.9723 106.559 88.9723 104.534 89.003C96.4627 89.1257 88.4221 89.586 80.4122 90.3533C78.4481 90.5374 76.484 90.7523 74.5199 90.9978C74.3972 90.9978 74.3051 91.0592 74.213 91.1512C73.1082 91.4274 72.2489 92.1946 71.7272 93.2687C71.3282 94.036 71.1748 94.8646 71.052 95.7239C70.9293 96.6752 70.8065 97.6573 70.6838 98.6086C70.162 102.598 69.671 106.588 69.2414 110.577C68.3821 118.587 67.8297 126.628 68.0752 134.699C68.29 142.617 69.1493 150.504 70.1007 158.36C70.2235 159.343 70.3155 160.355 70.469 161.337C70.561 162.074 71.1748 162.657 71.942 162.289C72.6479 161.92 72.9548 161.092 73.3231 160.447C73.7527 159.68 74.2437 158.944 74.7347 158.207C75.7475 156.765 76.8523 155.384 78.0799 154.125C79.154 152.99 80.3202 151.824 81.6705 150.995C82.6832 150.351 83.788 150.105 85.0156 150.136C86.6728 150.197 88.2993 150.596 89.9259 150.78C93.5779 151.179 97.2605 151.21 100.882 150.872C104.472 150.565 108.063 149.921 111.562 148.939C113.127 148.509 114.815 148.08 116.104 147.036C117.393 145.993 117.853 144.366 118.037 142.801C118.068 142.433 118.129 142.065 118.16 141.666C118.221 141.573 118.221 141.481 118.191 141.359C118.313 139.916 118.375 138.443 118.467 137.001C118.62 134.975 118.743 132.919 118.896 130.894C119.173 126.873 119.449 122.853 119.756 118.833C120.032 114.751 120.339 110.7 120.615 106.619C120.768 104.593 120.891 102.537 121.045 100.511C121.167 98.8235 121.352 97.0742 121.26 95.3556ZM117.209 141.942C117.086 143.476 116.84 145.133 115.643 146.238C114.447 147.312 112.636 147.711 111.132 148.11C110.825 148.202 110.518 148.264 110.242 148.356C110.211 148.294 110.181 148.233 110.119 148.172C108.37 146.699 108.278 143.906 109.26 141.972C110.273 139.947 112.605 138.627 114.845 139.333C115.889 139.671 116.81 140.469 117.27 141.481C117.239 141.635 117.239 141.788 117.209 141.942ZM117.362 139.978C116.042 138.443 113.894 137.829 111.899 138.505C109.229 139.395 107.633 142.065 107.726 144.827C107.756 146.208 108.247 147.65 109.229 148.632C108.217 148.877 107.173 149.092 106.16 149.276L106.13 149.246C106.007 149.184 105.884 149.123 105.761 149.031C105.7 149 105.669 148.97 105.608 148.939L105.577 148.908C105.577 148.908 105.547 148.877 105.516 148.877C105.301 148.693 105.117 148.509 104.933 148.325C104.902 148.294 104.902 148.264 104.871 148.264C104.841 148.202 104.779 148.141 104.749 148.11C104.687 147.988 104.595 147.895 104.534 147.773C104.473 147.65 104.411 147.527 104.35 147.435C104.319 147.374 104.288 147.312 104.258 147.251L104.227 147.19C104.227 147.159 104.196 147.159 104.196 147.128C104.135 146.975 104.012 146.852 103.859 146.791C103.767 146.606 103.552 146.545 103.337 146.576C102.662 146.668 101.987 146.76 101.342 146.852C101.189 146.883 101.035 146.883 100.851 146.913C100.759 146.913 100.698 146.944 100.606 146.944C100.606 146.944 100.544 146.944 100.514 146.944C100.514 146.913 100.514 146.883 100.514 146.852C100.483 146.729 100.514 146.607 100.514 146.514C100.575 145.379 100.636 144.243 100.728 143.077C101.618 143.384 102.57 143.507 103.521 143.415C103.767 143.384 103.982 143.231 103.982 142.954C103.982 142.893 103.951 142.801 103.92 142.74C104.227 141.175 104.871 139.671 105.884 138.413C106.038 138.228 106.068 137.952 105.884 137.768C105.792 137.676 105.639 137.615 105.485 137.645C104.841 137.246 104.196 136.817 103.552 136.418C104.902 135.436 106.222 134.454 107.572 133.502C107.633 134.3 107.94 135.067 108.431 135.712V135.743C108.493 135.957 108.769 136.172 108.984 136.049C110.058 135.62 111.193 135.466 112.329 135.528C112.574 135.558 112.789 135.313 112.789 135.067C112.789 134.914 112.728 134.822 112.636 134.73C112.912 133.778 113.25 132.888 113.71 132.029C113.894 132.183 114.14 132.305 114.385 132.397C114.661 132.489 114.938 132.52 115.214 132.551C115.459 132.582 115.766 132.643 115.92 132.827C116.288 133.226 115.827 133.963 115.613 134.331C115.275 134.945 114.938 135.681 115.214 136.356C115.306 136.571 115.49 136.725 115.735 136.694C115.766 136.725 115.766 136.755 115.797 136.755C115.858 136.786 115.92 136.847 115.981 136.878C116.38 137.185 116.718 137.523 117.024 137.921C117.055 137.952 117.086 137.983 117.086 138.014C117.147 138.106 117.239 138.198 117.362 138.228C117.393 138.228 117.423 138.228 117.454 138.228C117.454 138.811 117.393 139.395 117.362 139.978ZM100.544 146.944C100.544 146.913 100.544 146.913 100.544 146.944C100.544 146.913 100.575 146.913 100.544 146.944ZM120.093 100.849C119.817 104.777 119.541 108.675 119.265 112.603C118.712 120.49 118.16 128.377 117.607 136.264C117.577 136.54 117.577 136.817 117.546 137.062C117.178 136.633 116.748 136.234 116.257 135.896C116.196 135.865 116.104 135.835 116.012 135.835C115.95 135.313 116.349 134.822 116.564 134.362C116.871 133.778 117.086 133.073 116.748 132.428C116.472 131.845 115.828 131.661 115.244 131.569C114.938 131.538 114.14 131.477 114.109 131.047C114.078 130.587 113.495 130.403 113.25 130.802C112.574 131.968 112.053 133.195 111.685 134.515V134.546C110.795 134.546 109.874 134.699 109.014 135.006C108.554 134.331 108.309 133.472 108.431 132.674C108.493 132.336 108.125 131.876 107.756 132.152C106.007 133.441 104.227 134.73 102.478 136.019C102.202 136.234 102.171 136.602 102.478 136.817C103.245 137.308 104.012 137.799 104.81 138.29C103.92 139.548 103.306 140.99 102.999 142.494C102.14 142.494 101.312 142.341 100.514 142.003C100.176 141.85 99.8384 142.034 99.8077 142.402C99.7464 143.2 99.7157 143.998 99.6543 144.796C99.6236 145.195 99.5929 145.594 99.5929 146.023C99.5622 146.361 99.5316 146.699 99.5929 147.036C99.6543 147.343 99.8078 147.589 100.053 147.742C100.391 147.926 100.82 147.803 101.189 147.742C101.925 147.65 102.631 147.527 103.368 147.435C103.705 148.233 104.196 148.939 104.841 149.491C101.711 149.982 98.5495 150.228 95.3885 150.197C93.6699 150.197 91.9207 150.074 90.2021 149.921C88.5756 149.737 86.949 149.369 85.3225 149.276C84.1256 149.215 82.9594 149.369 81.8546 149.89C80.5656 150.504 79.4609 151.517 78.4481 152.499C75.993 154.831 73.8754 157.563 72.2182 160.539C72.0341 160.846 71.9113 161.215 71.6044 161.429C71.5431 161.491 71.4817 161.521 71.4203 161.491C71.3282 161.429 71.3282 160.877 71.2975 160.816C71.1748 159.864 71.052 158.913 70.9599 157.962C70.7144 156.028 70.4996 154.095 70.2848 152.131C69.8551 148.325 69.4869 144.52 69.272 140.684C69.1186 138.106 69.0265 135.558 68.9959 132.98C72.3103 132.674 75.2565 134.362 77.9264 136.203C76.1772 138.505 74.3358 140.776 72.4638 142.985C72.0648 142.924 71.7886 143.507 72.1261 143.814C72.2182 143.967 72.3717 144.121 72.5558 144.121C74.0903 145.164 75.6247 146.208 77.1592 147.22C77.5582 147.497 77.9264 147.036 77.8036 146.668C79.6143 144.366 81.425 142.065 83.2663 139.763C83.7573 140.039 84.2484 140.254 84.7394 140.499C86.458 141.236 88.5755 141.85 90.3248 140.929C91.4296 140.346 92.1662 138.965 91.89 137.768C93.0562 137.952 94.2838 137.584 95.1124 136.725C96.0944 135.681 96.3092 134.055 95.7261 132.766C96.9844 132.428 98.3347 131.906 98.9792 130.71C99.4395 129.881 99.5009 128.807 99.0099 128.009C99.685 127.763 100.237 127.211 100.575 126.566C101.066 125.584 101.066 124.48 100.667 123.467C100.544 123.129 100.391 122.822 100.207 122.516C101.312 121.288 101.404 119.324 100.452 117.974C100.698 117.605 100.974 117.237 101.219 116.838C102.693 116.807 104.166 116.777 105.639 116.746C105.823 116.869 106.099 116.869 106.252 116.715C107.419 115.273 108.616 113.861 109.782 112.419C109.935 112.235 109.966 111.989 109.812 111.805C109.997 110.271 110.15 108.705 110.334 107.171C110.334 107.14 110.365 107.11 110.365 107.048C110.365 106.987 110.365 106.895 110.396 106.833V106.803C110.702 106.404 110.119 105.821 109.69 106.22C108.892 106.956 108.094 107.693 107.327 108.46C107.511 107.017 107.572 105.575 107.419 104.133C107.388 103.887 107.235 103.672 106.958 103.672C106.866 103.672 106.774 103.703 106.713 103.764C105.27 103.672 103.828 103.672 102.386 103.764C102.846 103.059 103.306 102.383 103.767 101.678C103.797 101.616 103.828 101.555 103.828 101.524C104.196 101.279 103.951 100.573 103.429 100.696C101.434 101.217 99.4395 101.616 97.4141 101.892C97.1685 101.923 96.9844 102.077 96.9537 102.291C96.0637 103.918 95.1737 105.544 94.3144 107.14C94.253 107.263 94.253 107.386 94.2837 107.478C94.2837 107.539 94.253 107.631 94.2837 107.693C94.6213 109.473 95.2658 111.222 96.1558 112.818C95.7568 113.401 95.3885 113.984 94.9896 114.567C94.9589 114.567 94.8975 114.536 94.8668 114.536C89.4962 113.984 84.0335 114.536 78.8778 116.224C78.3253 116.408 78.5709 117.298 79.1233 117.114C83.9722 115.549 89.128 114.966 94.1917 115.396C93.9155 116.009 93.5165 116.531 93.0255 116.991C91.7365 116.654 90.4169 116.47 89.0973 116.408C88.5142 116.378 88.5142 117.298 89.0973 117.329C90.3555 117.36 91.6138 117.575 92.8413 117.881C92.8413 117.881 92.8414 117.881 92.872 117.912C94.4372 118.894 96.0944 119.723 97.5061 120.889C98.7643 121.902 100.36 123.59 100.053 125.37C99.8998 126.229 99.3167 127.088 98.4575 127.242C97.0151 125.891 95.2658 124.94 93.3324 124.449C92.7493 124.296 92.5038 125.185 93.0869 125.339C94.8054 125.769 96.3706 126.597 97.6595 127.794C97.6595 127.917 97.7516 128.07 97.8744 128.132C98.6723 128.623 98.5495 129.82 98.0585 130.495C97.3526 131.446 96.0023 131.753 94.9282 132.029C93.4551 130.832 91.8593 129.82 90.1407 129.022C89.9258 128.93 89.6497 128.96 89.4962 129.175C89.3735 129.359 89.4349 129.697 89.6497 129.82C91.491 130.679 93.2096 131.753 94.744 133.103C94.8054 133.134 94.8361 133.165 94.8975 133.195C95.2964 134.147 95.1737 135.313 94.4679 136.08C93.7927 136.817 92.7186 137.062 91.7979 136.817C91.7979 136.817 91.7979 136.786 91.7672 136.786C90.4476 135.282 88.729 134.177 86.8263 133.564C86.2739 133.38 86.0284 134.269 86.5808 134.454C88.0845 134.945 89.4349 135.773 90.5704 136.878C90.509 137.032 90.5396 137.185 90.6931 137.338C91.1534 137.799 91.1227 138.474 90.9079 139.057C90.6317 139.763 90.0179 140.192 89.3121 140.377C87.5935 140.806 85.66 140.008 84.1563 139.241C80.8418 137.553 78.1412 134.883 74.7654 133.318C72.9548 132.489 71.0214 131.968 69.0266 132.152C68.9959 127.242 69.18 122.301 69.5789 117.39C69.8858 113.524 70.3155 109.626 70.7758 105.759C71.0214 103.795 71.2668 101.831 71.5124 99.8976C71.6351 98.9463 71.7579 97.9949 71.8806 97.0435C72.0034 96.1842 72.0647 95.2942 72.3409 94.4656C72.7706 93.1153 73.722 92.0412 75.1951 92.0105C75.3178 92.0105 75.4406 91.9491 75.5019 91.8877C82.9901 91.0284 90.5396 90.4453 98.0585 90.1691C101.956 90.0157 105.854 89.9543 109.751 89.985C111.592 89.985 113.464 89.9543 115.336 90.0771C116.84 90.1999 118.375 90.5681 119.326 91.8264C120.185 92.9312 120.37 94.4042 120.4 95.7852C120.4 97.4118 120.216 99.1304 120.093 100.849ZM78.6629 136.725C79.0005 136.97 79.3381 137.216 79.6757 137.43C80.5657 138.075 81.4863 138.689 82.407 139.272C80.627 141.543 78.8471 143.783 77.0671 146.054C75.7782 145.195 74.5199 144.336 73.231 143.476C75.103 141.267 76.9137 139.026 78.6629 136.725ZM96.8923 112.327C96.033 110.792 95.4499 109.166 95.1124 107.447C95.9717 105.851 96.831 104.255 97.7209 102.69C99.3168 102.475 100.913 102.169 102.508 101.8C101.127 103.857 99.7464 105.882 98.3961 107.938C98.2426 108.03 98.1199 108.245 98.1813 108.399C98.1813 108.583 98.3654 108.736 98.5495 108.797C100.268 110.209 102.14 111.437 104.135 112.449C104.38 112.572 104.626 112.449 104.749 112.296C104.779 112.265 104.841 112.235 104.871 112.204C106.345 110.669 107.848 109.166 109.413 107.723C109.26 109.135 109.107 110.516 108.922 111.928C108.922 111.989 108.922 112.02 108.953 112.081C107.91 113.339 106.897 114.598 105.854 115.825C104.319 115.856 102.754 115.887 101.219 115.917C101.158 115.917 101.127 115.917 101.097 115.948C100.943 115.917 100.759 115.979 100.667 116.163C99.7771 117.452 98.9178 118.741 98.0278 120.06C97.5061 119.661 96.9537 119.262 96.3706 118.925C95.634 118.465 94.8975 118.035 94.1303 117.575C94.253 117.421 94.3451 117.237 94.4679 117.084C95.3578 115.733 96.2785 114.352 97.1685 113.002C97.2606 112.695 97.1071 112.45 96.8923 112.327ZM101.312 109.135C101.342 107.907 101.342 106.711 101.373 105.483C101.373 105.36 101.342 105.268 101.281 105.207C101.434 104.992 101.557 104.777 101.711 104.562C101.772 104.593 101.833 104.593 101.895 104.593C103.429 104.47 104.964 104.47 106.498 104.562C106.621 106.097 106.529 107.662 106.222 109.166V109.196C104.565 109.35 102.938 109.288 101.312 109.135ZM105.455 110.209C105.025 110.639 104.626 111.068 104.196 111.498C103.398 111.068 102.6 110.608 101.833 110.117C103.03 110.209 104.258 110.24 105.455 110.209ZM100.422 106.496C100.391 107.355 100.391 108.245 100.36 109.104C99.9919 108.828 99.593 108.521 99.2554 108.245C99.6544 107.662 100.053 107.079 100.422 106.496ZM98.6416 120.582C99.0406 119.968 99.4702 119.355 99.8692 118.771C100.36 119.661 100.268 120.858 99.6543 121.687C99.3474 121.288 99.0099 120.95 98.6416 120.582C98.6416 120.613 98.6416 120.582 98.6416 120.582ZM82.9901 105.943C83.1436 106.158 83.0208 106.465 82.8367 106.588C82.6219 106.711 82.3456 106.619 82.1922 106.434C81.2715 105.084 80.3508 103.734 79.3995 102.383C78.2026 103.151 76.9751 103.949 75.7782 104.716C76.4227 105.974 77.0364 107.232 77.6809 108.491C77.6809 108.521 77.7116 108.552 77.7116 108.583C78.9698 107.846 80.2281 107.079 81.4863 106.342C82.008 106.035 82.4684 106.833 81.9467 107.14C80.627 107.938 79.3074 108.736 77.9571 109.503C77.6502 109.687 77.3433 109.473 77.2819 109.196C77.1285 109.196 76.9443 109.135 76.883 108.982C76.2385 107.723 75.6247 106.434 74.9802 105.176C74.5813 105.176 74.3358 104.562 74.7654 104.317C74.7654 104.317 74.7961 104.317 74.7961 104.286C74.8268 104.225 74.8881 104.163 74.9495 104.133C75.0109 104.102 75.0723 104.071 75.1337 104.071C76.4226 103.243 77.7116 102.414 79.0006 101.555C79.154 101.432 79.3381 101.463 79.4609 101.555C79.6757 101.432 79.9519 101.524 80.0747 101.708C81.026 103.12 82.0081 104.532 82.9901 105.943ZM104.626 106.373C104.81 106.68 104.749 107.079 104.503 107.294C104.38 107.386 104.258 107.478 104.104 107.478C104.074 107.478 104.043 107.508 104.012 107.508C103.889 107.539 103.797 107.539 103.675 107.508C103.613 107.508 103.521 107.478 103.46 107.416C103.153 107.232 103.03 106.895 103.092 106.557C103.122 106.434 103.214 106.281 103.306 106.189C103.368 106.128 103.429 106.097 103.49 106.066C103.552 106.035 103.613 106.005 103.705 106.005C103.828 105.974 103.92 105.974 104.043 106.005C104.104 106.005 104.196 106.035 104.258 106.066C104.442 106.127 104.565 106.25 104.626 106.373ZM77.9571 105.36C77.9571 105.33 77.9571 105.299 77.9571 105.268C77.9571 105.238 77.9264 105.237 77.9264 105.207C77.8957 105.084 77.8957 104.931 77.9264 104.808C77.9571 104.685 78.0185 104.562 78.1105 104.47C78.2026 104.378 78.2947 104.317 78.4174 104.286C78.4481 104.286 78.4788 104.255 78.4788 104.255C78.5402 104.255 78.6016 104.225 78.6629 104.225C78.7243 104.225 78.7857 104.225 78.8471 104.255C78.8778 104.255 78.8778 104.255 78.9085 104.286C79.0312 104.348 79.1233 104.378 79.2154 104.47C79.3074 104.562 79.3688 104.654 79.3995 104.777C79.4301 104.869 79.4301 104.931 79.3995 105.023C79.3688 105.115 79.3381 105.176 79.2767 105.238C79.246 105.268 79.2153 105.268 79.1846 105.299C79.1846 105.33 79.1846 105.36 79.1846 105.391C79.1846 105.452 79.154 105.514 79.1233 105.575C79.0619 105.667 78.9699 105.759 78.8471 105.79C78.755 105.821 78.6323 105.821 78.5402 105.821C78.5095 105.821 78.5095 105.851 78.4788 105.851C78.4481 105.851 78.3867 105.851 78.3561 105.882C78.2333 105.882 78.1105 105.821 78.0184 105.759C77.9878 105.729 77.9571 105.667 77.9264 105.606C77.9571 105.483 77.9571 105.422 77.9571 105.36Z" fill="#DCDCDC"/>
<path d="M93.6388 24.7095C93.2092 18.234 85.2914 19.2774 80.4425 18.9092C73.3226 18.3874 66.1413 18.2954 58.9907 18.6636C50.6433 19.0626 37.938 18.5409 31.1557 24.2491C27.964 26.9498 26.5523 31.3076 26.4296 35.512C26.2761 39.7164 27.2275 43.8594 27.872 47.9718C29.4371 57.9458 29.4371 68.1653 27.8106 78.1392C27.2889 81.3923 26.7057 85.075 28.7005 87.6836C29.9281 89.2488 31.8309 90.0773 33.7336 90.6604C41.8049 93.1769 50.4898 92.6245 58.9294 92.0415C64.0545 91.6732 69.4251 90.8139 74.5502 90.8753C78.7239 90.9366 82.4066 94.159 85.0459 97.32C87.6851 100.481 89.5879 104.164 91.4906 107.816C90.6006 106.128 92.534 99.8979 92.8102 97.9031C93.2706 94.4045 93.7002 90.8753 94.1298 87.3767C94.9277 80.932 95.5723 74.8555 95.3267 68.4108C94.7436 53.8641 94.6209 39.3175 93.6388 24.7095Z" fill="#111217"/>
<path d="M61.6915 74.2114C61.446 73.6897 62.244 73.1987 62.4895 73.7511C63.5943 76.1142 66.387 76.9734 68.8114 76.3597C71.5734 75.6845 73.6296 73.5363 75.1948 71.2653C75.5323 70.7743 76.3303 71.2346 75.9927 71.7257C75.1948 72.8611 74.3355 73.966 73.3228 74.8867C71.5428 76.4825 69.2104 77.6486 66.7552 77.4645C64.6684 77.3111 62.6122 76.1448 61.6915 74.2114ZM29.4065 57.4552C32.0151 58.0076 34.593 58.5907 37.2016 59.1431C37.7847 59.2659 38.0302 58.3758 37.4471 58.2531C34.8385 57.7007 32.2606 57.1176 29.6521 56.5652C29.069 56.4424 28.8234 57.3324 29.4065 57.4552ZM69.1183 42.4789C69.2104 42.5709 69.2411 42.6937 69.2411 42.8165C69.2411 42.9392 69.1797 43.0313 69.1183 43.154C68.7193 43.645 68.3204 44.1668 67.8907 44.6578C67.7373 44.8726 67.3997 44.8113 67.2463 44.6578C67.1542 44.5658 67.1235 44.443 67.1235 44.3202C67.1235 44.1975 67.1849 44.1054 67.2463 43.9826C67.6453 43.4916 68.0442 42.9699 68.4739 42.4789C68.6273 42.264 68.9342 42.3254 69.1183 42.4789ZM65.5277 44.136C65.7425 44.2281 66.0494 44.1974 66.1722 43.9826C66.3256 43.645 66.5098 43.3075 66.7246 43.0006C66.786 42.9392 66.8167 42.8471 66.878 42.7858C66.878 42.7551 66.9087 42.7551 66.9087 42.7244C66.9394 42.6937 66.9701 42.663 67.0008 42.6323C67.1235 42.4789 67.2463 42.3254 67.3997 42.2027C67.5839 42.0186 67.5839 41.7116 67.3997 41.5582C67.2156 41.3741 66.9394 41.3741 66.7552 41.5582C66.1721 42.1413 65.7118 42.8164 65.3742 43.553C65.3128 43.6757 65.2822 43.7678 65.3129 43.9212C65.3435 43.9519 65.4356 44.0747 65.5277 44.136ZM70.53 41.1286C70.6835 41.3434 70.8062 41.5582 70.929 41.773C70.9597 41.8958 71.021 41.9879 71.0517 42.1106C71.1131 42.3561 71.3893 42.5096 71.6041 42.4175C71.8497 42.3561 72.0031 42.1106 71.911 41.8651C71.7269 41.2513 71.42 40.6989 70.9904 40.2693C70.8369 40.0851 70.4993 40.0851 70.3459 40.2693C70.1617 40.4534 70.1617 40.7296 70.3459 40.9137C70.4379 40.9751 70.4993 41.0365 70.53 41.1286ZM67.2463 39.3792C67.5225 39.3792 67.8294 39.41 68.1056 39.4407C68.1977 39.4407 68.2897 39.4713 68.3511 39.4713C68.3817 39.4713 68.4432 39.4713 68.4739 39.502C68.5045 39.5327 68.5353 39.5634 68.5659 39.5941C68.7808 39.7169 69.0876 39.6555 69.2104 39.4407C69.3024 39.2565 69.3024 39.0723 69.2104 38.9189C69.1183 38.7961 68.9956 38.7041 68.8421 38.6427C68.6887 38.612 68.5045 38.5813 68.3511 38.5506C67.9828 38.4893 67.6146 38.4586 67.2463 38.4586C67.0008 38.4586 66.786 38.6734 66.786 38.9189C66.8166 39.1951 67.0008 39.3792 67.2463 39.3792ZM60.2491 54.2021C60.2491 54.2635 60.2798 54.3249 60.3105 54.3863C60.3412 54.4477 60.4026 54.509 60.4333 54.5704C60.4947 54.6317 60.556 54.6931 60.6174 54.7238C60.6788 54.7545 60.7708 54.7852 60.8322 54.8159C60.8936 54.8466 60.9857 54.8466 61.0777 54.8466C61.1084 54.8466 61.1084 54.8466 61.1391 54.8466C61.2005 54.8466 61.2619 54.8466 61.3233 54.8159C61.3846 54.7852 61.4767 54.7545 61.5381 54.7238C61.6608 54.6624 61.6915 54.6011 61.7836 54.4784C61.845 54.417 61.845 54.3555 61.8757 54.2635C61.9064 54.2021 61.9063 54.1101 61.9063 54.018C61.9063 53.9566 61.9063 53.8952 61.9063 53.8339C61.9063 53.7725 61.8757 53.7111 61.8757 53.6497C61.845 53.5883 61.845 53.5269 61.8143 53.4962C61.7836 53.4349 61.7529 53.4042 61.7222 53.3735C61.6609 53.3121 61.5995 53.2508 61.5381 53.2201C61.4767 53.1894 61.446 53.1587 61.3846 53.1587C61.3539 53.1587 61.354 53.1587 61.3233 53.128C61.2619 53.0973 61.1698 53.0973 61.0777 53.0973C60.8936 53.0973 60.7402 53.1587 60.5868 53.2508C60.5561 53.2815 60.4947 53.3121 60.4333 53.3735C60.4026 53.4042 60.3412 53.4656 60.3105 53.527C60.3105 53.5577 60.2799 53.5576 60.2799 53.5883C60.2492 53.6497 60.2184 53.7111 60.2184 53.7725C60.2184 53.8032 60.2184 53.8645 60.2184 53.8952C60.2184 53.9259 60.1877 53.9566 60.2184 54.018C60.2184 54.0794 60.2185 54.1407 60.2491 54.2021ZM95.8486 72.3394C95.8179 75.2549 95.6031 78.1703 95.3269 81.0551C95.0507 84.032 94.6517 86.9782 94.2834 89.9243C94.0993 91.4281 93.9152 92.9011 93.731 94.4049C93.5776 95.7245 93.4241 97.0442 93.2093 98.3331C92.9331 99.9597 92.4728 101.586 92.1659 103.213C91.9817 104.072 91.8283 104.962 91.7669 105.852C91.7362 106.404 91.6748 107.11 91.9203 107.601C92.1965 108.123 91.3987 108.583 91.1225 108.062C90.2939 106.466 89.4652 104.87 88.5753 103.335C86.826 100.267 84.8005 97.3511 82.1919 94.9573C80.9643 93.8218 79.614 92.8397 78.0796 92.1646C77.343 91.827 76.5758 91.6122 75.8085 91.4588C74.9186 91.3054 73.9979 91.336 73.1079 91.3667C69.241 91.4588 65.3743 91.9498 61.5074 92.318C57.6713 92.6863 53.8044 92.9319 49.9376 92.9933C46.1628 93.0853 42.3574 92.9319 38.6133 92.2874C36.7719 91.9805 34.9306 91.5508 33.1506 90.937C31.6468 90.446 30.1431 89.7708 29.0076 88.6353C26.6138 86.303 26.7366 82.7738 27.1662 79.7048C27.4117 77.8635 27.7493 76.0528 27.9642 74.2114C28.2097 72.2473 28.3631 70.2526 28.4859 68.2578C28.7007 64.2989 28.67 60.3399 28.4245 56.4117C28.1483 52.4528 27.5652 48.5246 26.9207 44.6271C25.8159 38.0596 25.018 30.326 29.8669 24.986C31.7082 22.9606 34.2555 21.641 36.8027 20.7203C39.534 19.7689 42.4188 19.2472 45.3035 18.9403C48.2497 18.6027 51.1959 18.4799 54.142 18.3879C57.2723 18.2958 60.4026 18.1116 63.5329 18.0503C67.6145 17.9582 71.6962 17.9889 75.7779 18.1731C77.5886 18.2651 79.3685 18.3879 81.1485 18.48C82.2226 18.5413 83.3274 18.5413 84.4015 18.572C86.5804 18.6334 88.8515 18.7868 90.8769 19.7075C92.9331 20.6589 94.0379 22.4696 94.1914 24.7099C94.2528 25.4771 94.2835 26.2443 94.3448 27.0116C94.7131 33.0573 94.9586 39.103 95.1427 45.1488C95.3268 51.2253 95.4803 57.3017 95.6951 63.3475C95.6951 66.355 95.8793 69.3626 95.8486 72.3394ZM94.9279 70.4367C94.8972 67.3985 94.7131 64.3602 94.621 61.322C94.4369 55.2148 94.2527 49.1077 94.0686 43.0313C93.8538 36.9241 93.6082 30.817 93.2093 24.7099C93.1479 23.6971 92.8411 22.6843 92.1966 21.8864C90.9383 20.3213 88.7594 19.8916 86.8566 19.6768C84.7391 19.4313 82.5908 19.5234 80.4733 19.3699C76.4837 19.0937 72.4941 18.9403 68.5045 18.9096C64.8218 18.8789 61.1698 19.0631 57.4871 19.1858C51.871 19.4006 46.1629 19.37 40.6388 20.5668C37.9688 21.1499 35.3603 22.0092 33.0279 23.4516C30.4807 25.0781 28.7314 27.4718 27.78 30.3259C26.7059 33.6097 26.7366 37.0775 27.1356 40.4533C27.5959 44.2895 28.4245 48.0643 28.8541 51.9004C29.7441 59.6341 29.6827 67.4905 28.7007 75.2242C28.4859 76.9735 28.1483 78.6921 27.9334 80.4413C27.7493 81.9758 27.6573 83.6023 28.0255 85.1061C28.4245 86.7019 29.3452 87.9602 30.7262 88.8195C32.1072 89.7095 33.7337 90.1698 35.3296 90.5995C37.6619 91.2133 40.025 91.6122 42.4187 91.7963C42.4187 91.7656 42.4187 91.7349 42.4187 91.7042C42.4187 89.0036 42.3881 86.303 42.3267 83.6023C42.1426 74.1501 41.6822 64.7285 41.2832 55.2762C37.4164 54.7545 33.5495 54.2328 29.6827 53.7111C29.4372 53.6804 29.3144 53.3735 29.3758 53.1587C29.4372 52.8825 29.6827 52.7904 29.9282 52.8518C33.9178 53.4042 37.8768 53.9259 41.8664 54.4784C42.0812 54.509 42.2039 54.7545 42.2039 54.908C42.3267 57.6086 42.4188 60.3092 42.5415 63.0099C42.695 66.6619 42.8484 70.3446 42.9711 73.9966L43.0019 73.966C46.7459 71.2653 50.8276 69.025 55.1241 67.3064C55.1548 67.3064 55.1855 67.2757 55.2162 67.2757C55.3696 66.4778 55.4923 65.6799 55.6458 64.882C56.413 60.7389 57.1802 56.5652 57.9475 52.4221C55.5844 51.1025 53.1907 49.7522 50.8276 48.4325C50.49 48.2484 50.5514 47.8188 50.8276 47.6347C52.1472 46.6526 53.4668 45.6705 54.7865 44.6885C57.2416 42.8471 59.6661 40.9751 62.1212 39.1644C63.3181 38.2744 64.4843 37.2924 65.8039 36.6172C66.5098 36.2489 67.2156 35.9727 67.9828 35.7886C67.4918 35.5431 67.0008 35.2055 66.5404 34.7145C65.2208 33.3642 64.607 29.0677 67.3384 26.8888C68.7501 30.6942 70.9903 30.8784 73.5682 31.5228C74.3048 31.216 75.0413 30.9397 75.8085 30.7249C77.7113 30.1725 79.8288 30.2953 81.1791 31.9218C82.3453 33.3335 82.5909 35.1748 82.284 36.9548C81.9464 38.9189 81.0257 40.7603 79.9516 42.4175C79.4912 43.1234 79.0002 43.7985 78.4785 44.4737C79.3071 44.5043 79.9823 44.9953 80.4426 45.6705C80.9337 46.407 81.0257 47.3584 80.9336 48.2177C80.8415 49.1691 80.5961 50.1512 80.2278 51.0105C79.5833 52.5142 78.2023 53.7418 76.5144 53.6497C76.453 53.7724 76.361 53.8338 76.2382 53.8952C76.0234 54.1714 75.7779 54.4477 75.5324 54.6932C75.5324 54.7239 75.563 54.7546 75.563 54.7852C76.1768 59.2352 76.9441 63.6544 77.8341 68.0429C77.9261 68.0429 78.0182 68.0737 78.0796 68.135C81.4554 70.8357 84.6777 73.7511 87.6852 76.8507C88.0842 77.2804 87.4398 77.9249 87.0408 77.4952C84.1867 74.5491 81.1484 71.787 77.9568 69.2092C77.1282 70.5595 75.6551 71.3574 74.1514 71.8791C72.4021 72.4929 70.5607 72.9225 68.75 73.3215C66.7859 73.7204 64.7298 73.9966 62.735 73.7511C62.5816 73.7204 62.3974 73.6897 62.2439 73.6897C62.2439 73.8125 62.2133 73.9353 62.1212 74.0273C60.5254 75.5925 57.8554 75.9608 55.9527 74.7332C54.0806 73.5363 53.1906 71.0812 53.8658 68.9636C53.8965 68.8716 53.9579 68.7795 54.0192 68.7488C50.3058 70.3447 46.7766 72.3701 43.4928 74.7332C43.3087 74.856 43.1553 74.8253 43.0325 74.7332C43.1553 78.2625 43.2474 81.7917 43.3087 85.321C44.567 83.9093 46.7766 83.4796 48.4338 84.4617C48.9555 84.7685 48.4952 85.5664 47.9735 85.2595C46.6232 84.4616 44.7204 84.8606 43.8304 86.1496C43.7077 86.303 43.5235 86.3951 43.3394 86.3644C43.3701 87.7454 43.3701 89.0957 43.3701 90.4767C44.5363 89.4026 46.2855 89.0036 47.7893 89.556C48.0348 89.6481 48.1883 89.8629 48.0962 90.1084C48.0348 90.3232 47.7587 90.5074 47.5439 90.4153C46.1935 89.9243 44.6284 90.354 43.7077 91.4588C43.6157 91.5509 43.5236 91.5815 43.4008 91.5815C43.4008 91.6122 43.4008 91.6429 43.4008 91.6736C43.4008 91.735 43.4008 91.7657 43.3701 91.827C48.1883 92.1646 53.0372 91.8884 57.8554 91.5815C61.6608 91.336 65.4356 90.845 69.2411 90.5381C71.1131 90.3847 73.0465 90.2619 74.9492 90.3232C76.4837 90.3846 77.9568 90.8757 79.3071 91.5815C82.1919 93.116 84.555 95.6018 86.4884 98.1797C88.207 100.451 89.6187 102.937 90.9383 105.453C91.0304 104.287 91.3066 103.121 91.5521 102.016C91.8897 100.389 92.35 98.7321 92.5648 97.0749C93.3321 91.0905 94.1913 85.1061 94.6824 79.1217C94.8051 76.329 94.9586 73.3829 94.9279 70.4367ZM55.0013 68.4726V68.4419C54.7251 68.5647 54.4489 68.6567 54.2034 68.7795C54.5103 68.7488 54.8479 68.9636 54.7251 69.3319C54.1727 71.0505 54.8478 73.0759 56.3823 74.058C57.8861 75.0093 59.9729 74.7945 61.3233 73.5976C58.7454 72.9532 56.321 71.4188 55.2162 68.9636C55.0627 68.8716 54.9399 68.6874 55.0013 68.4726ZM58.8681 52.3915C58.7761 52.9132 58.684 53.4656 58.5612 53.9873C57.6713 58.7748 56.7812 63.5623 55.9219 68.3805C55.9219 68.4112 55.9527 68.4112 55.9527 68.4419C56.6278 69.9457 57.794 71.0811 59.2057 71.8484C62.3054 73.5363 65.9266 73.168 69.2717 72.4008C70.9289 72.0325 72.5862 71.6336 74.182 71.0198C75.3175 70.5901 76.4223 69.9456 77.0975 68.9329C77.0361 68.8715 76.9747 68.8101 76.944 68.6874C76.054 64.3602 75.3175 60.0024 74.6731 55.6138C72.6476 57.4859 70.131 58.8362 67.4304 59.45C67.2156 59.7569 66.9087 59.941 66.5404 60.0638C66.1108 60.2172 65.5584 60.3093 65.098 60.3093C64.6377 60.3093 64.1774 60.1865 63.8091 59.849C63.625 59.6648 63.5022 59.45 63.4408 59.2352C63.318 59.2966 63.1339 59.3272 63.0112 59.2352C62.7963 59.1124 62.7043 58.8055 62.8577 58.5907C63.3488 57.8541 64.1467 57.3938 65.006 57.3017C65.7425 57.2097 66.5097 57.3938 67.1235 57.8542C67.3383 58.0076 67.4918 58.2224 67.5838 58.4679C70.4686 57.7314 73.1079 56.1356 75.072 53.9259C74.5196 53.7418 74.0286 53.3735 73.6603 52.9132C73.0465 52.1153 72.8931 51.1025 73.0465 50.1204C73.2306 49.0463 73.783 48.0336 74.4889 47.1436L74.0593 47.0515C71.9417 44.8112 73.0158 42.4175 72.8317 40.392C72.5862 37.5993 71.2666 37.1696 69.6401 36.6172H69.6093C68.0749 36.6479 66.6325 37.2003 65.3436 38.0289C64.0853 38.8269 62.9191 39.7782 61.7529 40.6682C60.556 41.5582 59.3591 42.4788 58.1623 43.3688C56.0754 44.9647 53.9579 46.5298 51.8403 48.095C54.1113 49.3839 56.3516 50.6422 58.6226 51.9004C58.8374 51.9925 58.8988 52.2073 58.8681 52.3915ZM79.3992 41.6503C80.9643 39.1031 82.7136 35.0214 80.2892 32.4742C78.9082 31.0625 76.9133 31.4307 75.2561 32.0138C75.1641 32.0445 75.072 32.0752 74.9799 32.1059C75.962 32.4742 77.0054 32.9959 78.0489 33.8859C80.0437 35.5431 80.1664 38.6734 79.3992 41.6503ZM73.9365 50.5501C73.8445 51.7163 74.5503 53.0053 75.7472 53.0973C75.7779 53.0667 75.8086 53.0359 75.8393 53.0053C75.9927 52.7904 76.2689 52.7597 76.453 52.8518C78.1103 53.0666 79.215 51.4094 79.6447 50.0284C80.013 48.8009 80.4426 47.0208 79.4299 45.9774C78.3558 44.8112 76.9134 46.0081 76.0848 46.8367C75.072 47.8495 74.0286 49.0464 73.9365 50.5501ZM66.6018 58.6828C66.6325 58.6828 66.6632 58.6827 66.6939 58.652C66.6632 58.6213 66.6325 58.5906 66.6018 58.56C66.4177 58.4065 66.2336 58.3144 66.0187 58.2531C65.6811 58.161 65.3435 58.1303 65.006 58.1917C65.006 58.2224 65.006 58.2531 65.006 58.3145C65.006 58.56 64.7911 58.8055 64.5456 58.7748C64.4842 58.7748 64.515 58.7441 64.4843 58.7748C64.4536 58.7748 64.4536 58.7748 64.4229 58.8362C64.3615 58.9283 64.3615 58.9589 64.3922 59.0203C64.4229 59.0817 64.4843 59.1738 64.5763 59.2352C64.6684 59.2966 64.7911 59.3579 64.9139 59.3579C65.2515 59.4193 65.5891 59.3272 65.9266 59.2658C66.0494 59.2351 66.1721 59.2044 66.2949 59.1737C66.2335 58.9589 66.2949 58.7134 66.6018 58.6828ZM76.361 48.4019C76.944 48.7395 77.5271 49.077 78.1102 49.3839C78.325 49.5067 78.632 49.4453 78.7547 49.2305C78.8775 49.0157 78.8161 48.7394 78.6013 48.586C78.0182 48.2484 77.4351 47.9108 76.852 47.6039C76.6372 47.4812 76.3303 47.5426 76.2075 47.7574C76.0848 48.0029 76.1461 48.2791 76.361 48.4019ZM75.6244 49.9056C76.3917 50.2739 77.1282 50.6728 77.8954 51.0411C78.1102 51.1639 78.4172 51.1025 78.5399 50.8877C78.6627 50.6728 78.6013 50.366 78.3865 50.2432C77.6192 49.875 76.8827 49.476 76.1154 49.1078C75.9006 48.985 75.5938 49.0464 75.471 49.2612C75.3482 49.476 75.4096 49.7829 75.6244 49.9056ZM37.6005 82.3441C37.5698 84.5844 37.4778 86.794 37.355 89.0343C37.3243 89.6174 38.245 89.6174 38.2757 89.0343C38.6746 81.2393 38.644 73.4136 38.2143 65.5878C38.0916 63.3475 37.9381 61.1379 37.754 58.8976C37.6926 58.3145 36.7719 58.3145 36.8333 58.8976C37.5085 66.6926 37.754 74.5183 37.6005 82.3441ZM60.3105 90.3847C58.1009 88.7888 56.3517 86.6713 54.2955 84.8606C52.3928 83.1727 50.1524 81.7917 47.5745 81.4541C46.1935 81.27 44.8125 81.4848 43.5849 82.0986C43.0632 82.3748 43.5235 83.142 44.0453 82.8965C46.1935 81.8224 48.7407 82.3748 50.7969 83.4796C53.0372 84.6765 54.7558 86.5485 56.5357 88.3284C57.5792 89.3719 58.6533 90.354 59.8502 91.2133C60.3412 91.5202 60.8015 90.7223 60.3105 90.3847ZM49.0783 87.4078C47.3597 86.303 44.9967 86.5178 43.4622 87.8681C43.0019 88.2671 43.677 88.9116 44.1066 88.5126C45.3342 87.4385 47.237 87.3464 48.618 88.2057C49.109 88.5433 49.6 87.7453 49.0783 87.4078Z" fill="#DCDCDC"/>
</svg>
