<svg width="50" height="51" viewBox="0 0 50 51" fill="none" xmlns="http://www.w3.org/2000/svg">
<path d="M19.25 4.68569C22.8081 2.63141 27.1919 2.63141 30.75 4.68569L40.4006 10.2575C43.9587 12.3118 46.1506 16.1082 46.1506 20.2168V31.3604C46.1506 35.4689 43.9587 39.2654 40.4006 41.3197L30.75 46.8915C27.1919 48.9457 22.8081 48.9457 19.25 46.8915L9.59937 41.3197C6.04125 39.2654 3.84937 35.4689 3.84937 31.3604V20.2168C3.84937 16.1082 6.04125 12.3118 9.59937 10.2575L19.25 4.68569Z" fill="#F9F9F9" stroke="#DBDFE9"/>
<path fill-rule="evenodd" clip-rule="evenodd" d="M22.3107 15.7052C21.196 15.706 20.2937 16.6089 20.2946 17.7215C20.2937 18.834 21.1968 19.7369 22.3116 19.7377H24.3285V17.7223C24.3294 16.6097 23.4263 15.7068 22.3107 15.7052C22.3116 15.7052 22.3116 15.7052 22.3107 15.7052V15.7052ZM22.3107 21.083H16.9337C15.819 21.0838 14.9159 21.9867 14.9168 23.0992C14.9151 24.2118 15.8181 25.1146 16.9329 25.1163H22.3107C23.4255 25.1155 24.3285 24.2126 24.3277 23.1C24.3285 21.9867 23.4255 21.0838 22.3107 21.083Z" fill="#36C5F0"/>
<path fill-rule="evenodd" clip-rule="evenodd" d="M35.0836 23.0992C35.0844 21.9867 34.1814 21.0838 33.0666 21.083C31.9518 21.0838 31.0488 21.9867 31.0496 23.0992V25.1163H33.0666C34.1814 25.1155 35.0844 24.2126 35.0836 23.0992ZM29.7058 23.0992V17.7215C29.7066 16.6097 28.8044 15.7068 27.6896 15.7052C26.5748 15.706 25.6718 16.6089 25.6726 17.7215V23.0992C25.671 24.2118 26.574 25.1146 27.6888 25.1163C28.8036 25.1155 29.7066 24.2126 29.7058 23.0992Z" fill="#2EB67D"/>
<path fill-rule="evenodd" clip-rule="evenodd" d="M27.6886 35.8719C28.8034 35.871 29.7064 34.9682 29.7056 33.8556C29.7064 32.7431 28.8034 31.8402 27.6886 31.8394H25.6716V33.8556C25.6708 34.9673 26.5738 35.8702 27.6886 35.8719ZM27.6886 30.4933H33.0664C34.1812 30.4925 35.0843 29.5896 35.0834 28.477C35.0851 27.3645 34.182 26.4616 33.0673 26.46H27.6894C26.5747 26.4608 25.6716 27.3637 25.6725 28.4762C25.6716 29.5896 26.5738 30.4925 27.6886 30.4933Z" fill="#ECB22E"/>
<path fill-rule="evenodd" clip-rule="evenodd" d="M14.917 28.4771C14.9162 29.5896 15.8192 30.4925 16.934 30.4933C18.0488 30.4925 18.9518 29.5896 18.951 28.4771V26.4608H16.934C15.8192 26.4616 14.9162 27.3645 14.917 28.4771ZM20.2948 28.4771V33.8548C20.2932 34.9674 21.1962 35.8703 22.311 35.8719C23.4258 35.8711 24.3288 34.9682 24.328 33.8556V28.4787C24.3296 27.3662 23.4266 26.4633 22.3118 26.4616C21.1962 26.4616 20.294 27.3645 20.2948 28.4771C20.2948 28.4779 20.2948 28.4771 20.2948 28.4771Z" fill="#E01E5A"/>
</svg>
