<svg width="100" height="101" viewBox="0 0 100 101" fill="none" xmlns="http://www.w3.org/2000/svg">
<path d="M30.8668 11C30.0932 11 29.3391 11.2644 28.8063 11.7806C28.2724 12.2946 28 13.0318 28 13.7806V83.2183C28 83.9672 28.2724 84.6991 28.8063 85.2173C29.3391 85.7356 30.0932 86 30.8668 86H69.1343C69.9057 86 70.6663 85.7356 71.1937 85.2173C71.7287 84.6991 72 83.9672 72 83.2183V13.7806C72 13.0318 71.7276 12.2946 71.1937 11.7806C70.6663 11.2634 69.9057 11 69.1343 11H63.2264C62.7611 11 62.347 11.2697 62.1716 11.6875L61.2912 13.7806C61.0068 14.4649 60.7813 14.8002 60.4217 15.0265C60.0708 15.2582 59.4465 15.4506 58.2207 15.4506H41.7783C40.5535 15.4506 39.9292 15.2571 39.5772 15.0265C39.2198 14.8012 38.9921 14.466 38.7088 13.7806L37.8295 11.6875C37.6573 11.2739 37.2433 11 36.7845 11H30.8668Z" fill="#D0E3F9"/>
<path d="M30.3487 8.63329H69.7198C72.562 8.63329 74.8053 10.8888 74.8053 13.7255V87.3188C74.8053 90.1544 72.5609 92.4122 69.7198 92.4122H30.3487C27.5087 92.4122 25.262 90.1544 25.262 87.3188V13.7255C25.2631 10.89 27.5087 8.63329 30.3487 8.63329ZM30.3487 6.32996C26.2709 6.32996 22.9531 9.64773 22.9531 13.7255V87.3188C22.9531 91.3988 26.2709 94.7144 30.3487 94.7144H69.7198C73.7998 94.7144 77.1209 91.3988 77.1209 87.3188V13.7255C77.1209 9.64773 73.7998 6.32996 69.7198 6.32996H30.3487Z" fill="#ADBCD2"/>
<path d="M46.311 11.1278C45.6676 11.1278 45.1543 11.6411 45.1543 12.2845C45.1543 12.9267 45.6676 13.4423 46.311 13.4423H54.3432C54.9798 13.4423 55.501 12.9267 55.501 12.2845C55.501 11.6411 54.9798 11.1278 54.3432 11.1278H46.311Z" fill="#C4C4D5"/>
</svg>
