<svg width="20" height="20" viewBox="0 0 20 20" fill="none" xmlns="http://www.w3.org/2000/svg">
<path d="M13.3619 15.6052H6.67974C6.0771 15.5986 5.5014 15.3549 5.0776 14.927C4.6538 14.4991 4.41611 13.9215 4.41615 13.3197V6.64684C4.41611 6.04501 4.6538 5.46745 5.0776 5.03956C5.5014 4.61167 6.0771 4.36797 6.67974 4.36138H11.6914C11.9926 4.36028 12.2911 4.41859 12.5698 4.53295C12.8484 4.64731 13.1017 4.81549 13.3151 5.02782C13.5285 5.24015 13.6978 5.49247 13.8134 5.7703C13.9289 6.04813 13.9884 6.34601 13.9884 6.64684V8.24833C13.9905 8.33394 14.0255 8.41546 14.0861 8.47601C14.1468 8.53657 14.2284 8.57152 14.3141 8.57363C14.4896 8.57363 14.6634 8.60815 14.8256 8.67522C14.9877 8.74229 15.135 8.84059 15.2591 8.96452C15.3832 9.08845 15.4817 9.23557 15.5488 9.39749C15.616 9.55941 15.6506 9.73295 15.6506 9.90821V13.3197C15.6506 13.9259 15.4094 14.5072 14.9802 14.9358C14.551 15.3644 13.9689 15.6052 13.3619 15.6052ZM6.67974 5.59586C6.40574 5.60242 6.14532 5.7163 5.95467 5.91293C5.76402 6.10956 5.65843 6.37316 5.66071 6.64684V13.3197C5.6628 13.5905 5.77031 13.8499 5.9605 14.0429C6.15069 14.2359 6.40863 14.3475 6.67974 14.354H13.3619C13.6374 14.354 13.9017 14.2453 14.0973 14.0516C14.2928 13.8579 14.4038 13.5948 14.406 13.3197V9.90821C14.406 9.88387 14.3963 9.86054 14.3791 9.84333C14.3619 9.82612 14.3385 9.81646 14.3141 9.81646C13.8977 9.81646 13.4982 9.65124 13.2037 9.35716C12.9093 9.06308 12.7438 8.66422 12.7438 8.24833V6.64684C12.7438 6.50922 12.7165 6.37295 12.6635 6.2459C12.6106 6.11886 12.5329 6.00355 12.4351 5.90662C12.3372 5.80969 12.2211 5.73307 12.0935 5.68116C11.9659 5.62926 11.8292 5.6031 11.6914 5.6042L6.67974 5.59586ZM8.26675 7.68114H10.0208C10.187 7.68114 10.3463 7.74705 10.4638 7.86437C10.5813 7.98168 10.6473 8.1408 10.6473 8.30672C10.6473 8.47263 10.5813 8.63175 10.4638 8.74907C10.3463 8.86639 10.187 8.9323 10.0208 8.9323H8.28346C8.11731 8.9323 7.95797 8.86639 7.84049 8.74907C7.72301 8.63175 7.65701 8.47263 7.65701 8.30672C7.65701 8.1408 7.72301 7.98168 7.84049 7.86437C7.95797 7.74705 8.11731 7.68114 8.28346 7.68114H8.26675ZM11.6078 12.2604H8.35028C8.26251 12.2706 8.17358 12.2621 8.08932 12.2355C8.00506 12.2089 7.92739 12.1648 7.86141 12.1061C7.79543 12.0475 7.74262 11.9755 7.70646 11.895C7.6703 11.8145 7.65161 11.7272 7.65161 11.639C7.65161 11.5507 7.6703 11.4635 7.70646 11.383C7.74262 11.3025 7.79543 11.2305 7.86141 11.1718C7.92739 11.1131 8.00506 11.0691 8.08932 11.0425C8.17358 11.0159 8.26251 11.0074 8.35028 11.0176H11.6245C11.7123 11.0074 11.8013 11.0159 11.8855 11.0425C11.9698 11.0691 12.0474 11.1131 12.1134 11.1718C12.1794 11.2305 12.2322 11.3025 12.2684 11.383C12.3045 11.4635 12.3232 11.5507 12.3232 11.639C12.3232 11.7272 12.3045 11.8145 12.2684 11.895C12.2322 11.9755 12.1794 12.0475 12.1134 12.1061C12.0474 12.1648 11.9698 12.2089 11.8855 12.2355C11.8013 12.2621 11.7123 12.2706 11.6245 12.2604H11.6078ZM6.67974 18.9583C5.20195 18.9539 3.7857 18.3669 2.73918 17.325C1.69266 16.283 1.10057 14.8705 1.09177 13.3948L1.04165 6.64684C1.03719 5.16898 1.61911 3.74952 2.66009 2.69906C3.70106 1.64859 5.11632 1.05265 6.59621 1.04163H13.3703C14.8481 1.046 16.2643 1.63303 17.3108 2.67497C18.3573 3.71691 18.9494 5.12943 18.9582 6.60514V13.3281C18.9649 14.8081 18.3842 16.2306 17.3433 17.2842C16.3023 18.3378 14.8858 18.9367 13.4037 18.95L6.67974 18.9583ZM13.4204 2.27611H6.64633C6.07242 2.27499 5.50397 2.38746 4.97385 2.60702C4.44373 2.82659 3.96243 3.14889 3.55778 3.5553C3.15313 3.96172 2.83315 4.44418 2.61633 4.97482C2.39951 5.50546 2.29014 6.07375 2.29456 6.64684V13.3781C2.29674 13.9502 2.41202 14.5162 2.63379 15.0437C2.85556 15.5712 3.17944 16.0498 3.58687 16.452C3.99429 16.8542 4.47723 17.1722 5.00798 17.3875C5.53874 17.6029 6.10685 17.7115 6.67974 17.7071V17.7071L13.4538 17.6654C14.0231 17.6632 14.5864 17.5491 15.1115 17.3295C15.6366 17.1099 16.1133 16.7892 16.5143 16.3857C16.9153 15.9822 17.2327 15.5037 17.4486 14.9776C17.6644 14.4516 17.7743 13.8882 17.7722 13.3197V6.58845C17.7677 5.44322 17.3091 4.34639 16.4965 3.53815C15.684 2.7299 14.5839 2.2761 13.4371 2.27611H13.4204Z" fill="#99A1B7"/>
</svg>
