<svg width="18" height="18" viewBox="0 0 18 18" fill="none" xmlns="http://www.w3.org/2000/svg">
<g clip-path="url(#clip0_27158_192098)">
<path d="M5.94077 1.47754C5.94077 1.47754 1.51083 6.65193 6.94721 12.416C6.94721 12.416 2.17536 10.8327 1.6562 7.138C1.6562 7.138 0.888576 3.37151 5.94077 1.47754Z" fill="#6BB94F" stroke="#6BB94E" stroke-miterlimit="10"/>
<path d="M5.49434 9.03188C5.49434 9.03188 6.11659 1.47745 14.0739 2.43997C14.0739 2.43997 10.6192 -0.385446 7.43452 1.2703C7.42414 1.2703 2.90075 3.72284 5.49434 9.03188Z" fill="#EE7541" stroke="#ED7540" stroke-miterlimit="10"/>
<path d="M7.36182 5.68927C7.36182 5.68927 9.302 2.45028 14.2088 3.13315C14.2088 3.13315 17.7673 4.19925 17.1859 10.3768C17.1755 10.3768 15.2041 2.89492 7.36182 5.68927Z" fill="#E9555F" stroke="#E9565F" stroke-miterlimit="10"/>
<path d="M11.366 5.51318C11.366 5.51318 17.4142 11.4119 11.366 17.1034C11.366 17.1034 15.0698 16.1202 16.4701 12.7051C16.4701 12.7051 17.9015 7.62467 11.366 5.51318Z" fill="#EA589F" stroke="#E9589F" stroke-miterlimit="10"/>
<path d="M13.3062 9.54883C13.3062 9.54883 10.6088 17.2068 3.34717 14.9814C3.34717 14.9814 5.51504 17.9304 9.37465 17.1025C9.37391 17.1033 14.2807 16.7311 13.3062 9.54883Z" fill="#32B7E9"/>
<path d="M1.01311 7.37598C1.01311 7.37598 2.69371 14.3097 10.7645 12.7057C10.7645 12.7057 7.9113 16.1726 3.34711 14.4133C3.34711 14.4125 -0.232143 12.6022 1.01311 7.37598Z" fill="#118E9B"/>
</g>
<defs>
<clipPath id="clip0_27158_192098">
<rect width="18" height="18" fill="white"/>
</clipPath>
</defs>
</svg>
