<svg width="20" height="20" viewBox="0 0 20 20" fill="none" xmlns="http://www.w3.org/2000/svg">
<g clip-path="url(#clip0_29760_8997)">
<path opacity="0.1" d="M15.9875 14.5775C15.9943 15.7753 15.5255 16.927 14.6841 17.7795C13.8427 18.6321 12.6973 19.116 11.4995 19.125H5.38798C4.19014 19.116 3.04481 18.6321 2.20338 17.7795C1.36195 16.927 0.893186 15.7753 0.899975 14.5775V8.67848C0.893186 7.48063 1.36195 6.32902 2.20338 5.47643C3.04481 4.62385 4.19014 4.13996 5.38798 4.13097H9.85899C9.90968 4.12301 9.9613 4.12301 10.012 4.13097H10.0715C10.1333 4.16273 10.1905 4.20277 10.2415 4.24997L15.775 9.85148C15.8444 9.92538 15.8946 10.0152 15.9213 10.113C15.948 10.2107 15.9503 10.3136 15.928 10.4125C15.9319 10.4464 15.9319 10.4806 15.928 10.5145L15.9875 14.5775Z" fill="#99A1B7"/>
<path d="M17.1906 15.2742C17.1025 15.2753 17.0153 15.2566 16.9354 15.2196C16.8554 15.1826 16.7848 15.1282 16.7286 15.0603C16.6234 14.9388 16.5706 14.7805 16.5818 14.6202C16.593 14.4598 16.6673 14.3105 16.7885 14.2048C17.1734 13.862 17.4814 13.4416 17.6923 12.9712C17.9031 12.5009 18.012 11.9912 18.0119 11.4758V5.70971C18.0164 4.74916 17.6398 3.82602 16.9646 3.1428C16.2894 2.45958 15.3707 2.07208 14.4102 2.06529H8.68692C7.77951 2.05505 6.90312 2.39519 6.2402 3.01489C6.18444 3.0718 6.11789 3.11701 6.04444 3.14788C5.97099 3.17874 5.89212 3.19464 5.81245 3.19464C5.73278 3.19464 5.65391 3.17874 5.58046 3.14788C5.50701 3.11701 5.44046 3.0718 5.3847 3.01489C5.27582 2.89908 5.21521 2.7461 5.21521 2.58715C5.21521 2.42819 5.27582 2.27521 5.3847 2.1594C6.26716 1.30936 7.44454 0.83412 8.66981 0.833374H14.3931C15.6804 0.840165 16.9123 1.35746 17.8186 2.27171C18.7248 3.18596 19.2312 4.42244 19.2267 5.70971V11.51C19.2211 12.1924 19.0729 12.8662 18.7915 13.4879C18.5101 14.1096 18.1017 14.6656 17.5927 15.1202C17.4811 15.2176 17.3386 15.2721 17.1906 15.2742V15.2742ZM16.0185 14.5898C16.0254 15.7954 15.5536 16.9544 14.7067 17.8125C13.8598 18.6706 12.7071 19.1577 11.5015 19.1667H5.35048C4.14489 19.1577 2.99215 18.6706 2.14528 17.8125C1.29841 16.9544 0.826615 15.7954 0.833447 14.5898V8.65263C0.826615 7.44703 1.29841 6.28797 2.14528 5.42988C2.99215 4.57178 4.14489 4.08476 5.35048 4.07571H9.8504C9.90142 4.0677 9.95337 4.0677 10.0044 4.07571H10.0643C10.1265 4.10768 10.184 4.14797 10.2354 4.19548L15.8047 9.83322C15.8745 9.90759 15.9251 9.99795 15.9519 10.0964C15.9787 10.1948 15.9811 10.2983 15.9587 10.3978C15.9625 10.432 15.9625 10.4664 15.9587 10.5005L16.0185 14.5898ZM10.415 8.01956C10.415 8.47335 10.5953 8.90854 10.9162 9.22942C11.237 9.55029 11.6722 9.73056 12.126 9.73056H13.9397L10.415 6.18024V8.01956ZM14.7866 14.5898V10.9454H12.0918C11.7077 10.9465 11.3271 10.8715 10.9721 10.7248C10.6171 10.5781 10.2947 10.3625 10.0234 10.0904C9.75221 9.8184 9.53754 9.49535 9.39185 9.13991C9.24615 8.78447 9.1723 8.40369 9.17456 8.01956V5.30763H5.35048C4.46935 5.31442 3.62688 5.67037 3.00783 6.29744C2.38879 6.92451 2.0437 7.77149 2.04826 8.65263V14.5898C2.0437 15.4709 2.38879 16.3179 3.00783 16.945C3.62688 17.572 4.46935 17.928 5.35048 17.9348H11.4844C12.3655 17.928 13.208 17.572 13.8271 16.945C14.4461 16.3179 14.7912 15.4709 14.7866 14.5898V14.5898Z" fill="#99A1B7"/>
</g>
<defs>
<clipPath id="clip0_29760_8997">
<rect width="20" height="20" fill="white"/>
</clipPath>
</defs>
</svg>
