<svg width="16" height="16" viewBox="0 0 16 16" fill="none" xmlns="http://www.w3.org/2000/svg">
<g clip-path="url(#clip0_27158_169206)">
<path d="M8 16C12.4183 16 16 12.4183 16 8C16 3.58172 12.4183 0 8 0C3.58172 0 0 3.58172 0 8C0 12.4183 3.58172 16 8 16Z" fill="#D80027"/>
<path d="M7.67264 6.53687L8.32904 7.4414L9.39207 7.09671L8.73464 8.00046L9.39095 8.90496L8.32829 8.55896L7.67089 9.46271L7.67157 8.34518L6.60889 7.99918L7.67195 7.65449L7.67264 6.53687Z" fill="#F0F0F0"/>
<path d="M5.88116 10.2608C4.63254 10.2608 3.62029 9.24854 3.62029 7.99991C3.62029 6.75129 4.63254 5.73904 5.88116 5.73904C6.27047 5.73904 6.63679 5.8375 6.9566 6.01079C6.45488 5.5201 5.76872 5.21729 5.0116 5.21729C3.47479 5.21729 2.229 6.4631 2.229 7.99988C2.229 9.53666 3.47482 10.7825 5.0116 10.7825C5.76879 10.7825 6.45491 10.4796 6.9566 9.98897C6.63679 10.1623 6.27047 10.2608 5.88116 10.2608Z" fill="#F0F0F0"/>
</g>
<defs>
<clipPath id="clip0_27158_169206">
<rect width="16" height="16" fill="white"/>
</clipPath>
</defs>
</svg>
