<svg width="223" height="182" viewBox="0 0 223 182" fill="none" xmlns="http://www.w3.org/2000/svg">
<path d="M77.2432 165.477H168.854C170.651 165.477 172.401 164.903 173.849 163.838C175.297 162.773 176.367 161.274 176.903 159.558L195.446 100.132C195.666 99.4246 195.717 98.6752 195.595 97.9444C195.472 97.2135 195.18 96.5218 194.74 95.9249C194.301 95.3281 193.728 94.8429 193.067 94.5085C192.405 94.1741 191.675 93.9999 190.934 94H99.5464L77.2432 165.477Z" fill="#2B2E3D"/>
<path d="M99.5464 94.0003L77.2432 165.477H168.854C170.651 165.477 172.401 164.903 173.849 163.838C175.297 162.774 176.367 161.274 176.903 159.559L195.446 100.132C195.666 99.4249 195.717 98.6755 195.595 97.9447C195.472 97.2138 195.18 96.5221 194.74 95.9252C194.301 95.3284 193.728 94.8432 193.067 94.5088C192.405 94.1744 191.675 94.0002 190.934 94.0003H99.5464ZM99.5464 92.3203H190.934C191.938 92.3208 192.928 92.5573 193.824 93.0109C194.721 93.4644 195.498 94.1223 196.093 94.9314C196.688 95.7405 197.084 96.6781 197.25 97.6687C197.417 98.6592 197.347 99.675 197.049 100.634L178.506 160.058C177.871 162.119 176.589 163.922 174.851 165.2C173.114 166.478 171.011 167.164 168.854 167.157H77.2432C76.9799 167.157 76.7204 167.095 76.4855 166.976C76.2506 166.857 76.0469 166.685 75.8909 166.473C75.7349 166.261 75.6309 166.015 75.5873 165.755C75.5437 165.496 75.5618 165.229 75.64 164.978L97.9432 93.4987C98.0501 93.1571 98.2632 92.8586 98.5516 92.6467C98.84 92.4347 99.1885 92.3203 99.5464 92.3203Z" fill="#323544"/>
<path d="M76.072 165.477H165.47C166.764 165.477 168.025 165.064 169.068 164.297C170.111 163.53 170.882 162.45 171.268 161.214L191.363 96.8512C191.465 96.5223 191.489 96.174 191.432 95.8343C191.375 95.4946 191.239 95.1731 191.035 94.8956C190.831 94.6182 190.564 94.3926 190.257 94.237C189.95 94.0814 189.61 94.0003 189.266 94H98.0824C97.0269 94.0003 95.9991 94.3378 95.149 94.9634C94.2989 95.589 93.671 96.4699 93.3568 97.4776L73.3096 161.723C73.1744 162.156 73.1431 162.615 73.218 163.063C73.293 163.51 73.4721 163.934 73.741 164.299C74.01 164.664 74.3611 164.961 74.766 165.166C75.1709 165.371 75.6183 165.477 76.072 165.477Z" fill="#111217"/>
<path d="M98.0824 94.0003C97.0269 94.0006 95.9991 94.3382 95.149 94.9638C94.2989 95.5894 93.671 96.4703 93.3568 97.4779L73.3096 161.724C73.1744 162.157 73.1431 162.615 73.218 163.063C73.293 163.51 73.4721 163.934 73.741 164.299C74.01 164.665 74.3611 164.962 74.766 165.166C75.1709 165.371 75.6183 165.477 76.072 165.477H165.47C166.764 165.478 168.025 165.064 169.068 164.298C170.111 163.531 170.882 162.451 171.268 161.215L191.363 96.8515C191.465 96.5226 191.489 96.1743 191.432 95.8346C191.375 95.4949 191.239 95.1734 191.035 94.896C190.831 94.6185 190.564 94.3929 190.257 94.2374C189.95 94.0818 189.61 94.0006 189.266 94.0003H98.0824ZM98.0824 92.3203H189.266C189.874 92.3203 190.475 92.4635 191.018 92.7385C191.561 93.0135 192.032 93.4125 192.392 93.9033C192.753 94.394 192.992 94.9627 193.092 95.5633C193.192 96.1638 193.149 96.7795 192.966 97.3603L172.883 161.721C172.394 163.303 171.409 164.685 170.074 165.664C168.739 166.643 167.125 167.166 165.47 167.157H76.072C75.3548 167.157 74.6475 166.989 74.0075 166.665C73.3674 166.342 72.8124 165.872 72.3875 165.294C71.9625 164.716 71.6794 164.047 71.5611 163.339C71.4428 162.632 71.4926 161.907 71.7064 161.222L91.7536 96.9763C92.1706 95.6247 93.0107 94.4427 94.15 93.6045C95.2894 92.7662 96.6679 92.3161 98.0824 92.3203Z" fill="#323544"/>
<path d="M139.814 134.858H169.814C170.802 134.858 171.851 134.056 172.154 133.065L173.704 127.992C174.006 127.003 173.45 126.201 172.461 126.201H142.461C141.472 126.201 140.426 127.003 140.123 127.992L138.57 133.065C138.268 134.056 138.83 134.858 139.814 134.858Z" fill="#2B2E3D"/>
<path d="M83.716 158.258H165.95C168.251 158.258 170.601 156.468 171.299 154.178L186.743 103.646C187.106 102.446 186.95 101.282 186.311 100.421C185.988 100.001 185.57 99.6648 185.091 99.4402C184.611 99.2155 184.085 99.109 183.556 99.1294H101.236C98.9632 99.1294 96.6424 100.898 95.956 103.157L80.5072 153.691C80.1376 154.891 80.296 156.091 80.9416 156.953C81.2673 157.375 81.6888 157.713 82.1712 157.94C82.6536 158.167 83.1831 158.276 83.716 158.258ZM183.556 100.809C183.822 100.792 184.088 100.838 184.333 100.944C184.577 101.05 184.793 101.213 184.962 101.419C185.284 101.853 185.344 102.47 185.135 103.157L169.686 153.691C169.206 155.256 167.493 156.571 165.942 156.571H83.716C83.4435 156.589 83.1707 156.541 82.9203 156.432C82.6698 156.323 82.449 156.156 82.276 155.945C81.9472 155.501 81.8848 154.872 82.0984 154.173L97.5496 103.646C98.0296 102.108 99.7096 100.809 101.229 100.809H183.556Z" fill="#323544"/>
<path d="M108.71 94H118.175C118.384 95.9485 118.726 97.8802 119.2 99.7816C121.725 109.607 128.86 117.899 137.541 123.374C146.104 128.771 154.168 131.171 164.162 132.753C163.506 135.581 162.339 138.265 160.718 140.673H108.71V94Z" fill="#2B2E3D"/>
<path d="M95.5528 108.16H184.742C184.921 108.16 185.097 108.103 185.241 107.996C185.386 107.889 185.493 107.739 185.546 107.567L186.89 103.173C187.056 102.696 187.107 102.187 187.04 101.686C186.972 101.186 186.788 100.708 186.501 100.293C186.212 99.9171 185.838 99.6161 185.409 99.4148C184.98 99.2136 184.509 99.1179 184.036 99.1359H100.756C98.752 99.1359 96.7072 100.694 96.0976 102.681L94.756 107.075C94.7178 107.201 94.7095 107.333 94.7317 107.462C94.7539 107.592 94.8061 107.714 94.884 107.819C94.9619 107.925 95.0634 108.01 95.1803 108.069C95.2973 108.129 95.4265 108.16 95.5576 108.16H95.5528ZM184.113 106.48H96.6808L97.6936 103.173C98.0848 101.894 99.4816 100.816 100.744 100.816H184.024C184.235 100.802 184.446 100.838 184.64 100.921C184.834 101.005 185.005 101.133 185.14 101.296C185.392 101.639 185.44 102.131 185.27 102.683L184.113 106.48Z" fill="#323544"/>
<path d="M173.434 104.674C173.091 104.275 173.251 103.575 173.792 103.11C174.333 102.646 175.05 102.593 175.393 102.992C175.736 103.391 175.575 104.091 175.034 104.556C174.493 105.021 173.776 105.073 173.434 104.674Z" fill="#323544"/>
<path d="M168.55 104.671C168.208 104.272 168.368 103.572 168.909 103.107C169.45 102.643 170.167 102.59 170.51 102.989C170.852 103.388 170.692 104.089 170.151 104.553C169.61 105.018 168.893 105.071 168.55 104.671Z" fill="#323544"/>
<path d="M141.413 97.1752C141.07 96.776 141.231 96.0757 141.772 95.6112C142.313 95.1466 143.029 95.0937 143.372 95.4929C143.715 95.8922 143.554 96.5924 143.013 97.057C142.472 97.5215 141.756 97.5744 141.413 97.1752Z" fill="#323544"/>
<path d="M178.76 104.675C178.418 104.276 178.578 103.576 179.119 103.111C179.66 102.647 180.377 102.594 180.72 102.993C181.062 103.392 180.902 104.092 180.361 104.557C179.82 105.022 179.103 105.074 178.76 104.675Z" fill="#323544"/>
<path d="M143.824 121.742H173.824C174.813 121.742 175.859 120.94 176.162 119.949L177.71 114.88C178.012 113.891 177.455 113.09 176.466 113.09H146.466C145.478 113.09 144.429 113.891 144.126 114.88L142.576 119.954C142.278 120.94 142.835 121.742 143.824 121.742Z" fill="#2B2E3D"/>
<path d="M135.803 147.974H165.803C166.792 147.974 167.841 147.173 168.143 146.181L169.694 141.108C169.996 140.119 169.439 139.317 168.45 139.317H138.45C137.462 139.317 136.415 140.119 136.113 141.108L134.56 146.181C134.258 147.173 134.814 147.974 135.803 147.974Z" fill="#2B2E3D"/>
<path d="M116.494 147.743C114.873 145.856 115.635 142.544 118.196 140.345C120.756 138.147 124.145 137.895 125.766 139.782C127.387 141.67 126.625 144.982 124.065 147.181C121.504 149.379 118.115 149.631 116.494 147.743Z" fill="#2B2E3D"/>
<path d="M168.875 165.477H4.69122C4.6909 166.041 4.80185 166.6 5.01772 167.122C5.2336 167.644 5.55016 168.118 5.94934 168.518C6.34851 168.917 6.82246 169.234 7.34413 169.45C7.86578 169.666 8.42494 169.777 8.98962 169.777H164.574C165.139 169.777 165.698 169.666 166.219 169.45C166.741 169.234 167.215 168.918 167.614 168.518C168.013 168.119 168.33 167.645 168.546 167.124C168.762 166.602 168.873 166.043 168.873 165.479L168.875 165.477Z" fill="#2B2E3D"/>
<path d="M4.69122 165.477C4.6909 166.042 4.80183 166.601 5.01772 167.123C5.23358 167.644 5.55016 168.118 5.94933 168.518C6.3485 168.917 6.82246 169.234 7.34412 169.45C7.86578 169.666 8.42493 169.778 8.98961 169.778H164.574C165.715 169.778 166.809 169.325 167.616 168.518C168.422 167.711 168.875 166.618 168.875 165.477H4.69122ZM4.69122 163.797H168.875C169.321 163.797 169.748 163.974 170.063 164.289C170.378 164.604 170.555 165.031 170.555 165.477C170.55 167.062 169.918 168.58 168.798 169.7C167.677 170.821 166.159 171.453 164.574 171.458H8.98961C7.40538 171.452 5.88768 170.82 4.76768 169.7C3.64767 168.579 3.01628 167.061 3.01122 165.477C3.01122 165.031 3.18822 164.604 3.50327 164.289C3.81833 163.974 4.24565 163.797 4.69122 163.797Z" fill="#323544"/>
<path d="M162.275 167.734C163.05 167.733 163.811 167.524 164.477 167.126C165.143 166.729 165.689 166.16 166.058 165.478H168.875C168.875 166.618 168.422 167.712 167.616 168.519C166.809 169.325 165.715 169.778 164.574 169.778H8.98961C8.20146 169.778 7.42863 169.561 6.75563 169.15C6.08261 168.74 5.53532 168.153 5.1736 167.453C5.65736 167.637 6.17039 167.732 6.68799 167.734H162.275Z" fill="#2B2E3D"/>
<path d="M91.6168 165.477C91.6168 165.477 91.2616 168.472 95.068 170.8L91.6168 165.477Z" fill="#111217"/>
<path d="M95.068 171.64C95.2515 171.641 95.4301 171.581 95.5766 171.471C95.723 171.36 95.8293 171.205 95.8791 171.028C95.9289 170.851 95.9195 170.663 95.8523 170.493C95.7852 170.322 95.664 170.178 95.5072 170.082C92.2504 168.093 92.4424 165.671 92.452 165.568C92.4772 165.345 92.4128 165.122 92.273 164.946C92.1333 164.771 91.9296 164.658 91.7068 164.633C91.484 164.608 91.2604 164.673 91.0851 164.812C90.9098 164.952 90.7972 165.156 90.772 165.378C90.7552 165.522 90.4 168.938 94.612 171.518C94.7495 171.6 94.9075 171.643 95.068 171.64Z" fill="#323544"/>
<path d="M21.688 130.18C20.3872 130.132 19.144 129.666 17.9272 129.206C16.5904 128.699 15.2536 128.19 13.9576 127.583C12.8488 127.062 9.70239 125.217 9.34479 124.686C8.98719 124.156 8.9464 123.359 9.4168 122.925C10.1368 122.258 11.4352 122.848 12.2368 122.274C13.3168 121.502 12.3112 120.093 11.4136 119.699C10.0768 119.111 8.53359 119.44 7.20159 118.833C6.21999 118.382 5.47839 117.114 6.07359 116.214C6.54159 115.509 7.5736 115.386 8.0968 114.722C8.9032 113.694 7.96479 112.134 6.77919 111.585C5.59359 111.035 4.20879 111.03 3.04239 110.445C1.87599 109.859 1.0408 108.203 1.9456 107.265C3.124 106.041 5.5456 107.536 6.772 106.35C7.732 105.41 6.97839 103.782 6.10239 102.75C5.22639 101.718 4.1824 100.413 4.7488 99.1888C5.2864 98.0248 6.9712 97.9048 8.1088 98.4688C9.2464 99.0328 10.1008 100.077 11.1712 100.782C12.2416 101.488 13.8112 101.783 14.7208 100.878C15.4792 100.122 15.4408 98.8696 16.0408 97.9792C17.128 96.3496 19.8544 96.7792 21.0808 98.32C22.3072 99.8608 22.4128 101.968 22.4248 103.926C22.4248 105.239 22.8808 107.027 24.1912 106.936C25.1032 106.876 25.6312 105.854 26.452 105.458C28.0072 104.714 29.7184 106.658 29.572 108.366C29.4256 110.075 28.2256 111.486 27.304 112.95C25.4728 115.845 24.904 119.37 24.904 122.838C24.9064 126.021 26.572 130.355 21.688 130.18Z" fill="#CB730B"/>
<path d="M21.9688 131.025C23.368 131.025 24.3832 130.667 25.0696 129.935C26.2696 128.666 26.068 126.698 25.8784 124.794C25.8112 124.108 25.7464 123.458 25.7464 122.86C25.7464 118.919 26.4928 115.83 28.0192 113.418C28.1968 113.138 28.384 112.859 28.5736 112.581C29.4112 111.338 30.28 110.054 30.412 108.455C30.4456 107.784 30.3092 107.114 30.0156 106.51C29.7219 105.905 29.2805 105.384 28.732 104.994C28.3556 104.713 27.91 104.539 27.4426 104.491C26.9752 104.443 26.5035 104.522 26.0776 104.721C25.6668 104.938 25.292 105.217 24.9664 105.549C24.6448 105.844 24.3664 106.101 24.1216 106.118C24.0679 106.124 24.0136 106.118 23.9627 106.099C23.9119 106.081 23.8661 106.051 23.8288 106.012C23.4952 105.702 23.2576 104.85 23.2528 103.941C23.2408 101.896 23.1112 99.568 21.7264 97.8184C21.2729 97.2714 20.7001 96.8355 20.0519 96.5443C19.4037 96.2531 18.6974 96.1142 17.9872 96.1384C17.4666 96.1426 16.9548 96.2724 16.4951 96.5169C16.0355 96.7613 15.6417 97.1131 15.3472 97.5424C15.057 98.0179 14.8394 98.534 14.7016 99.0736C14.5456 99.5896 14.4088 100.034 14.1328 100.312C13.5688 100.874 12.4264 100.626 11.6392 100.108C11.2242 99.8211 10.8282 99.5076 10.4536 99.1696C9.86188 98.6143 9.20224 98.1361 8.4904 97.7464C7.56384 97.2797 6.49157 97.1936 5.5024 97.5064C5.17044 97.614 4.86412 97.7886 4.60238 98.0193C4.34065 98.2501 4.12909 98.5322 3.98081 98.848C3.16241 100.622 4.6552 102.366 5.4592 103.305C6.1792 104.138 6.6592 105.275 6.1792 105.748C5.8504 106.072 5.1568 106.014 4.4248 105.957C3.436 105.878 2.2048 105.779 1.336 106.677C1.08625 106.939 0.903147 107.258 0.80208 107.606C0.701014 107.954 0.684942 108.321 0.755205 108.676C0.865177 109.21 1.09314 109.713 1.42243 110.148C1.75171 110.583 2.17399 110.938 2.6584 111.189C3.33667 111.5 4.05092 111.726 4.7848 111.861C5.34557 111.964 5.89412 112.125 6.4216 112.341C6.68361 112.465 6.91702 112.642 7.10705 112.861C7.29708 113.08 7.43961 113.336 7.52561 113.613C7.55876 113.71 7.56755 113.814 7.55123 113.915C7.53491 114.016 7.49397 114.112 7.43201 114.194C7.22307 114.396 6.97911 114.559 6.71201 114.674C6.17885 114.906 5.71555 115.273 5.368 115.739C5.19159 116.011 5.07696 116.317 5.03217 116.638C4.98738 116.959 5.01354 117.285 5.10881 117.594C5.24259 118.029 5.46617 118.431 5.76509 118.774C6.064 119.116 6.43158 119.392 6.844 119.584C7.6456 119.951 8.4592 120.028 9.244 120.1C9.86605 120.122 10.4807 120.242 11.0656 120.455C11.4328 120.616 11.8216 121.074 11.8528 121.382C11.8528 121.439 11.8528 121.49 11.7376 121.581C11.5672 121.703 11.1952 121.708 10.8376 121.713C10.2208 121.713 9.4504 121.732 8.8384 122.296C8.092 122.985 8.008 124.216 8.6392 125.145C9.2032 125.982 12.8992 128.006 13.5928 128.33C14.968 128.985 16.3816 129.52 17.6296 130C18.8296 130.458 20.2048 130.977 21.6568 131.027L21.9688 131.025ZM27.1672 106.154C27.3924 106.162 27.6095 106.24 27.7888 106.377C28.0949 106.597 28.3424 106.889 28.5098 107.227C28.6771 107.565 28.7592 107.939 28.7488 108.316C28.6504 109.478 27.9424 110.529 27.1912 111.64C26.992 111.933 26.7952 112.226 26.608 112.521C24.9064 115.209 24.0784 118.59 24.076 122.858C24.076 123.539 24.148 124.262 24.2176 124.96C24.3688 126.491 24.5248 128.08 23.8552 128.786C23.476 129.191 22.7536 129.376 21.7264 129.34C20.5504 129.297 19.372 128.86 18.2344 128.421C17.0152 127.96 15.6328 127.437 14.3248 126.822C13.168 126.278 10.4368 124.634 10.0408 124.199C9.8896 123.959 9.88721 123.642 9.99761 123.544C10.108 123.446 10.5136 123.41 10.8808 123.405C11.44 123.405 12.136 123.386 12.7336 122.958C13.0156 122.771 13.2405 122.509 13.3836 122.202C13.5267 121.895 13.5825 121.555 13.5448 121.218C13.4368 120.194 12.5464 119.274 11.7616 118.931C11.0126 118.643 10.2211 118.481 9.4192 118.451C8.7829 118.431 8.15438 118.305 7.5592 118.079C7.36857 117.988 7.19816 117.859 7.05802 117.701C6.91788 117.543 6.81084 117.358 6.74321 117.158C6.71289 117.082 6.70077 117.001 6.70786 116.92C6.71495 116.839 6.74104 116.761 6.784 116.692C6.98466 116.473 7.23023 116.299 7.504 116.183C7.98163 115.961 8.40631 115.64 8.74961 115.24C8.96725 114.959 9.11723 114.631 9.18797 114.282C9.25872 113.933 9.24834 113.573 9.15761 113.229C9.01283 112.705 8.75606 112.22 8.40507 111.805C8.05408 111.391 7.61725 111.058 7.1248 110.829C6.49024 110.558 5.82788 110.358 5.1496 110.231C4.55117 110.124 3.9678 109.945 3.41201 109.698C3.16215 109.566 2.9434 109.382 2.77039 109.159C2.59738 108.935 2.47411 108.677 2.40881 108.402C2.38252 108.307 2.38106 108.206 2.40458 108.109C2.42809 108.012 2.4758 107.923 2.54321 107.85C2.83841 107.546 3.4 107.565 4.288 107.637C5.2624 107.714 6.4744 107.812 7.3504 106.958C8.644 105.695 7.972 103.667 6.7336 102.218C5.9608 101.315 5.1664 100.298 5.5048 99.556C5.56008 99.4453 5.63765 99.3472 5.73264 99.2679C5.82763 99.1887 5.93801 99.1299 6.05681 99.0952C6.61547 98.9305 7.21581 98.9837 7.73681 99.244C8.32339 99.5759 8.8667 99.9789 9.35441 100.444C9.78379 100.831 10.2384 101.19 10.7152 101.517C12.0472 102.395 14.056 102.765 15.3184 101.517C15.8944 100.943 16.1152 100.216 16.3096 99.5752C16.4035 99.1945 16.5497 98.8286 16.744 98.488C16.8953 98.2808 17.0942 98.1129 17.3239 97.9985C17.5536 97.884 17.8074 97.8264 18.064 97.8304C18.5099 97.8187 18.9528 97.9073 19.3599 98.0897C19.767 98.272 20.1279 98.5435 20.416 98.884C21.4696 100.216 21.568 102.129 21.58 103.974C21.58 104.507 21.6712 106.319 22.6912 107.267C22.8971 107.462 23.1413 107.611 23.4083 107.707C23.6752 107.802 23.959 107.84 24.2416 107.819C25.0792 107.762 25.6528 107.231 26.1136 106.804C26.3198 106.592 26.554 106.408 26.8096 106.259C26.9188 106.196 27.0413 106.16 27.1672 106.154Z" fill="#323544"/>
<path d="M40.1656 140.559L36.3856 163.657H17.6296L13.3432 140.598C13.1608 139.614 13.804 138.678 14.6656 138.678H38.836C39.6856 138.675 40.324 139.575 40.1656 140.559Z" fill="#111217"/>
<path d="M14.6632 138.676C13.7992 138.676 13.1584 139.602 13.3408 140.596L17.6296 163.645H36.3856L40.1656 140.56C40.324 139.588 39.6856 138.688 38.836 138.688H14.6632V138.676ZM14.6632 137.008H38.836C39.2641 137.011 39.6865 137.107 40.0737 137.289C40.4609 137.472 40.8035 137.737 41.0776 138.066C41.395 138.445 41.6262 138.889 41.7551 139.366C41.8839 139.844 41.9075 140.344 41.824 140.831L38.044 163.929C37.9796 164.322 37.7775 164.68 37.4737 164.938C37.1699 165.196 36.7842 165.338 36.3856 165.337H17.6296C17.2366 165.338 16.856 165.2 16.5539 164.949C16.2518 164.698 16.0473 164.349 15.976 163.962L11.692 140.903C11.5973 140.41 11.6128 139.903 11.7373 139.417C11.8617 138.931 12.0922 138.479 12.412 138.093C12.6858 137.756 13.0307 137.484 13.422 137.297C13.8133 137.109 14.2413 137.01 14.6752 137.008H14.6632Z" fill="#323544"/>
<path d="M29.3752 160.285C30.5963 160.284 31.7773 159.849 32.7072 159.058C33.6371 158.266 34.2553 157.17 34.4512 155.965L37.2808 138.668H38.836C39.6856 138.668 40.324 139.568 40.1656 140.54L36.3856 163.638H17.6296L16.8952 159.694C17.6266 160.076 18.4391 160.276 19.264 160.278L29.3752 160.285Z" fill="#2B2E3D"/>
<path d="M24.0928 138.049C24.1549 138.049 24.2167 138.042 24.2776 138.03C24.3853 138.006 24.4871 137.96 24.5772 137.897C24.6673 137.833 24.744 137.752 24.8028 137.659C24.8617 137.565 24.9015 137.461 24.9201 137.352C24.9387 137.244 24.9357 137.132 24.9112 137.025C23.7928 132.061 22.636 126.928 20.7328 122.077C18.5728 116.586 15.7072 112.18 12.196 108.978C12.0311 108.828 11.8133 108.749 11.5906 108.76C11.3678 108.77 11.1582 108.868 11.008 109.033C10.8578 109.198 10.7792 109.416 10.7896 109.639C10.7999 109.862 10.8983 110.071 11.0632 110.221C14.3824 113.245 17.1088 117.441 19.1704 122.701C21.0256 127.432 22.168 132.501 23.272 137.404C23.3163 137.588 23.4213 137.752 23.5703 137.869C23.7192 137.986 23.9033 138.05 24.0928 138.049Z" fill="#323544"/>
<path d="M23.7184 122.629C25.4128 125.043 28.4848 128.823 31.7416 128.893C34.4032 128.951 36.7408 126.493 38.4928 124.736C41.2551 121.995 43.444 118.732 44.932 115.136C45.0472 114.853 45.1576 114.515 44.9968 114.255C44.6656 113.718 43.8712 114.191 43.2568 114.335C42.2728 114.575 41.308 113.667 41.0968 112.679C40.8856 111.69 41.188 110.67 41.4952 109.705L44.8216 99.2459C45.1216 98.2859 45.4264 97.2827 45.1528 96.3275C44.8792 95.3723 43.7728 94.5899 42.8824 95.0363C41.7688 95.5931 41.5192 97.6595 40.288 97.4627C39.328 97.3091 39.2872 95.9387 39.4768 94.9739C40.5601 89.4536 40.4118 83.7622 39.0424 78.3059C38.8552 77.5643 38.5072 76.6979 37.7536 76.5779C36.8128 76.4243 36.1984 77.5691 36.1216 78.5171C36.0448 79.4651 36.148 80.5571 35.4736 81.2291C34.7176 81.9851 33.3616 81.7091 32.5936 80.9699C31.8256 80.2307 31.4728 79.1675 31.0744 78.1739C30.3184 76.2776 29.3101 74.4919 28.0768 72.8651C27.2344 71.7539 25.8832 70.6163 24.604 71.1683C23.4424 71.6699 23.224 73.2035 23.2696 74.4659C23.38 77.5595 24.0664 80.5979 24.748 83.6171L20.0008 79.7003C19.5208 79.3043 18.9592 78.8843 18.3448 78.9683C17.3848 79.1003 17.0224 80.2979 17.008 81.2651C16.9933 82.8365 17.3203 84.3924 17.9664 85.8249C18.6124 87.2575 19.5621 88.5326 20.7496 89.5619C21.4696 90.1787 22.3 90.7163 22.8208 91.5155C23.3416 92.3147 23.4448 93.5003 22.7416 94.1555L18.9016 91.8683C18.3376 91.5323 17.6656 91.1867 17.0584 91.4339C16.4512 91.6811 16.2256 92.3675 16.3 92.9795C16.3744 93.5915 16.7056 94.1363 17.02 94.6595L23.932 105.759C24.0901 105.969 24.1888 106.218 24.2176 106.479C24.2344 107.231 23.1712 107.516 22.4776 107.231C21.784 106.945 21.2176 106.355 20.4808 106.211C19.2568 105.971 18.1192 107.137 17.9128 108.371C17.7064 109.604 18.1528 110.833 18.6064 111.997C20.0296 115.676 21.4528 119.401 23.7184 122.629Z" fill="#CB730B"/>
<path d="M31.8328 129.733C34.6792 129.733 37.0744 127.333 38.8312 125.586L39.0856 125.332C41.9245 122.508 44.1759 119.15 45.7096 115.451C45.82 115.182 46.1152 114.467 45.7096 113.812C45.1072 112.832 43.9864 113.214 43.4464 113.396C43.3048 113.444 43.1704 113.49 43.0624 113.514C42.9716 113.532 42.878 113.531 42.7876 113.511C42.6972 113.491 42.6118 113.453 42.5368 113.399C42.2196 113.188 41.9941 112.865 41.9056 112.494C41.728 111.7 42.0232 110.773 42.2824 109.957L45.6088 99.498C45.9016 98.5812 46.3 97.326 45.9496 96.0948C45.8298 95.6939 45.6253 95.3233 45.35 95.0083C45.0746 94.6932 44.7348 94.4409 44.3536 94.2684C44.0624 94.1325 43.7445 94.0632 43.4232 94.0657C43.1018 94.0682 42.7851 94.1424 42.496 94.2828C41.8 94.6284 41.4016 95.2788 41.056 95.8524C40.8496 96.1908 40.576 96.6564 40.4152 96.6324C40.3864 96.6324 40.3816 96.6324 40.36 96.5964C40.2232 96.3996 40.1584 95.8356 40.2952 95.1348C41.4009 89.4912 41.2493 83.6732 39.8512 78.0948C39.496 76.6884 38.8336 75.8964 37.8832 75.7428C37.6224 75.6998 37.3554 75.7129 37.1001 75.7812C36.8448 75.8495 36.6069 75.9714 36.4024 76.1388C35.6632 76.7196 35.3392 77.7108 35.2792 78.4476C35.2648 78.6348 35.2576 78.8268 35.248 79.0212C35.2192 79.686 35.1928 80.3148 34.876 80.6316C34.48 81.0252 33.6352 80.8092 33.172 80.3628C32.6248 79.8324 32.3152 79.0476 31.9912 78.2148L31.8496 77.8572C31.0616 75.8909 30.0121 74.0399 28.7296 72.354C27.3376 70.5156 25.6624 69.7836 24.2536 70.3932C23.3608 70.7796 22.3168 71.8044 22.4128 74.4924C22.5321 76.8222 22.8533 79.1373 23.3728 81.4116L20.4928 79.0476C20.0464 78.6804 19.2112 77.994 18.1888 78.1332C16.9624 78.2988 16.1536 79.5228 16.1272 81.2532C16.1097 82.9502 16.4635 84.6306 17.1637 86.1765C17.8639 87.7225 18.8937 89.0967 20.1808 90.2028C20.3632 90.3564 20.548 90.5052 20.7328 90.654C21.2523 91.0207 21.7107 91.467 22.0912 91.9764C22.282 92.2704 22.3806 92.6147 22.3744 92.9652L19.3072 91.1364C18.8056 90.8388 17.7664 90.2196 16.7176 90.6564C15.8368 91.0164 15.3112 92.0124 15.4408 93.0804C15.5392 93.8868 15.9568 94.5612 16.2928 95.1036L23.188 106.216C23.2381 106.293 23.2838 106.373 23.3248 106.456C23.1438 106.524 22.9442 106.524 22.7632 106.456C22.5265 106.348 22.3 106.22 22.0864 106.072C21.6433 105.751 21.142 105.519 20.6104 105.39C20.2535 105.325 19.8872 105.333 19.5334 105.413C19.1795 105.493 18.8455 105.644 18.5512 105.856C17.7593 106.419 17.2213 107.272 17.0536 108.229C16.8136 109.72 17.3512 111.148 17.7928 112.309C19.2016 115.988 20.6728 119.795 23.0008 123.126C26.044 127.46 28.9672 129.688 31.6936 129.748L31.8328 129.733ZM44.0992 114.949C42.6518 118.387 40.5468 121.51 37.9024 124.141L37.6432 124.398C35.992 126.047 33.94 128.104 31.7608 128.053C29.6296 128.008 27.088 125.965 24.4072 122.147C22.1872 118.986 20.7664 115.278 19.3912 111.692C19.0048 110.684 18.568 109.532 18.7432 108.505C18.8353 107.995 19.1207 107.54 19.54 107.236C19.6502 107.152 19.776 107.092 19.9099 107.057C20.0439 107.023 20.1833 107.016 20.32 107.036C20.6411 107.131 20.9426 107.282 21.2104 107.483C21.5139 107.687 21.8352 107.862 22.1704 108.008C22.5259 108.152 22.9106 108.208 23.2923 108.172C23.6739 108.136 24.0414 108.009 24.364 107.802C24.5855 107.657 24.7664 107.458 24.8898 107.224C25.0132 106.989 25.0751 106.728 25.0696 106.463C25.0412 106.051 24.8991 105.654 24.6592 105.318L17.764 94.206C17.4904 93.762 17.2048 93.306 17.152 92.8644C17.1184 92.5836 17.2336 92.2668 17.392 92.1996C17.668 92.0892 18.2632 92.4396 18.4888 92.5788L22.3288 94.866C22.4843 94.9582 22.6653 94.9979 22.845 94.9793C23.0248 94.9607 23.1939 94.8848 23.3272 94.7628C24.3928 93.7836 24.2344 92.1228 23.5408 91.0596C23.0668 90.3952 22.4861 89.8137 21.8224 89.3388C21.6496 89.2028 21.4792 89.0636 21.3112 88.9212C20.2102 87.9777 19.3288 86.8049 18.7289 85.4848C18.129 84.1648 17.8251 82.7295 17.8384 81.2796C17.8384 80.6076 18.0784 79.8516 18.448 79.8012C18.7432 79.7628 19.2064 80.1444 19.456 80.3484L24.2056 84.2628C24.3405 84.3691 24.5047 84.4316 24.6761 84.4417C24.8475 84.4518 25.018 84.4092 25.1644 84.3195C25.3109 84.2298 25.4263 84.0973 25.4952 83.94C25.564 83.7827 25.583 83.6081 25.5496 83.4396C24.8848 80.502 24.1984 77.466 24.0904 74.442C24.0664 73.8108 24.0904 72.2988 24.9184 71.9484C25.6864 71.6148 26.7304 72.51 27.388 73.3884C28.5737 74.9558 29.5425 76.6762 30.268 78.5028L30.4048 78.846C30.7624 79.7676 31.1704 80.8092 31.9816 81.5916C33.04 82.614 34.924 82.9572 36.0424 81.8316C36.82 81.054 36.868 79.974 36.904 79.1076C36.904 78.9324 36.9208 78.7596 36.9328 78.5916C36.953 78.1732 37.1234 77.7761 37.4128 77.4732C37.5064 77.3988 37.5544 77.4084 37.588 77.4132C37.7536 77.4396 38.0008 77.7444 38.1952 78.5172C39.5323 83.8544 39.6781 89.4205 38.6224 94.8204C38.5168 95.3508 38.3392 96.6828 38.956 97.566C39.0897 97.7624 39.2625 97.929 39.4637 98.0554C39.6648 98.1817 39.8899 98.2652 40.1248 98.3004C41.3824 98.502 42.0304 97.4412 42.4624 96.7404C42.7024 96.3396 42.9616 95.9268 43.228 95.7948C43.2963 95.7647 43.3708 95.751 43.4454 95.7548C43.5199 95.7585 43.5926 95.7796 43.6576 95.8164C43.8127 95.889 43.9511 95.9931 44.0639 96.122C44.1767 96.2509 44.2614 96.4018 44.3128 96.5652C44.5096 97.254 44.284 98.0748 43.9888 98.9988L40.6624 109.458C40.3552 110.418 39.9712 111.632 40.2472 112.868C40.4316 113.678 40.9262 114.383 41.6248 114.832C41.8884 115.003 42.1835 115.121 42.493 115.177C42.8024 115.234 43.12 115.228 43.4272 115.16C43.6144 115.115 43.7944 115.055 43.9672 114.997L44.0992 114.949Z" fill="#323544"/>
<path d="M30.004 137.838C30.1811 137.838 30.3535 137.781 30.4966 137.677C30.6397 137.573 30.7462 137.426 30.8008 137.257C35.302 123.324 35.1892 108.31 30.4792 94.4461C30.4467 94.3379 30.3928 94.2374 30.3205 94.1505C30.2483 94.0637 30.1593 93.9923 30.0589 93.9407C29.9584 93.889 29.8486 93.8581 29.736 93.8499C29.6233 93.8417 29.5102 93.8562 29.4033 93.8927C29.2964 93.9292 29.198 93.9869 29.1139 94.0623C29.0298 94.1377 28.9618 94.2293 28.9139 94.3316C28.866 94.4338 28.8393 94.5447 28.8352 94.6576C28.8312 94.7705 28.85 94.883 28.8904 94.9885C33.4854 108.512 33.5957 123.157 29.2048 136.748C29.1645 136.875 29.1545 137.009 29.1755 137.139C29.1966 137.27 29.248 137.394 29.3258 137.501C29.4036 137.609 29.5055 137.696 29.6233 137.757C29.7411 137.817 29.8715 137.849 30.004 137.85V137.838Z" fill="#323544"/>
<path d="M25.9096 144.159H40.5496C40.7724 144.159 40.986 144.071 41.1436 143.913C41.3011 143.756 41.3896 143.542 41.3896 143.319C41.3896 143.097 41.3011 142.883 41.1436 142.726C40.986 142.568 40.7724 142.479 40.5496 142.479H25.9096C25.6868 142.479 25.4732 142.568 25.3156 142.726C25.1581 142.883 25.0696 143.097 25.0696 143.319C25.0696 143.542 25.1581 143.756 25.3156 143.913C25.4732 144.071 25.6868 144.159 25.9096 144.159Z" fill="#323544"/>
<path d="M17.7496 144.159H20.6296C20.8524 144.159 21.066 144.071 21.2236 143.913C21.3811 143.756 21.4696 143.542 21.4696 143.319C21.4696 143.097 21.3811 142.883 21.2236 142.726C21.066 142.568 20.8524 142.479 20.6296 142.479H17.7496C17.5268 142.479 17.3132 142.568 17.1556 142.726C16.9981 142.883 16.9096 143.097 16.9096 143.319C16.9096 143.542 16.9981 143.756 17.1556 143.913C17.3132 144.071 17.5268 144.159 17.7496 144.159Z" fill="#323544"/>
<path d="M68.6872 11.6797H122.572C123.036 11.6794 123.496 11.7705 123.925 11.9479C124.354 12.1252 124.744 12.3854 125.072 12.7134C125.401 13.0415 125.662 13.431 125.84 13.8598C126.018 14.2886 126.109 14.7482 126.11 15.2125V30.9085C126.11 31.3728 126.019 31.8327 125.841 32.2617C125.664 32.6908 125.403 33.0806 125.075 33.409C124.747 33.7373 124.357 33.9977 123.928 34.1752C123.499 34.3528 123.039 34.444 122.574 34.4437H121.055C120.949 34.4437 120.847 34.4859 120.772 34.5611C120.697 34.6362 120.654 34.7382 120.654 34.8445V38.9605C120.655 39.0312 120.637 39.1008 120.602 39.1621C120.566 39.2234 120.516 39.2743 120.454 39.3095C120.393 39.3446 120.323 39.3629 120.253 39.3623C120.182 39.3617 120.113 39.3423 120.052 39.3061L111.933 34.5061C111.871 34.4682 111.801 34.4483 111.729 34.4485H68.6872C68.2223 34.4488 67.762 34.3574 67.3325 34.1796C66.903 34.0018 66.5128 33.741 66.1842 33.4122C65.8556 33.0834 65.5951 32.693 65.4175 32.2634C65.24 31.8338 65.149 31.3733 65.1496 30.9085V15.2125C65.1509 14.2751 65.5241 13.3765 66.1874 12.7141C66.8507 12.0517 67.7498 11.6797 68.6872 11.6797Z" fill="#111217"/>
<path d="M68.6872 11.68C67.7498 11.68 66.8507 12.052 66.1874 12.7144C65.5241 13.3768 65.1509 14.2754 65.1496 15.2128V30.9088C65.1496 31.3732 65.2411 31.8331 65.4189 32.2622C65.5967 32.6913 65.8574 33.0811 66.1859 33.4094C66.5144 33.7377 66.9044 33.9981 67.3336 34.1756C67.7628 34.3531 68.2227 34.4443 68.6872 34.444H111.726C111.798 34.4438 111.869 34.4638 111.93 34.5016L120.05 39.3016C120.111 39.3378 120.18 39.3569 120.251 39.3568C120.357 39.3568 120.459 39.3146 120.535 39.2394C120.61 39.1642 120.652 39.0623 120.652 38.956V34.8448C120.652 34.7385 120.694 34.6366 120.769 34.5614C120.845 34.4862 120.946 34.444 121.053 34.444H122.572C123.037 34.4446 123.497 34.3536 123.926 34.1762C124.355 33.9988 124.745 33.7385 125.074 33.4101C125.403 33.0818 125.663 32.6918 125.841 32.2626C126.019 31.8334 126.11 31.3733 126.11 30.9088V15.2128C126.109 14.7486 126.018 14.2889 125.84 13.8601C125.662 13.4313 125.401 13.0418 125.072 12.7137C124.744 12.3857 124.354 12.1256 123.925 11.9482C123.496 11.7708 123.036 11.6797 122.572 11.68H68.6872ZM68.6872 10H122.572C123.955 10.0013 125.28 10.5507 126.258 11.5279C127.236 12.5051 127.787 13.8302 127.79 15.2128V30.9088C127.788 32.2914 127.238 33.6168 126.26 34.5944C125.282 35.572 123.957 36.1221 122.574 36.124H122.334V38.9608C122.335 39.328 122.238 39.6888 122.054 40.0065C121.87 40.3242 121.605 40.5874 121.286 40.7693C120.967 40.9512 120.605 41.0454 120.238 41.0422C119.871 41.039 119.511 40.9386 119.195 40.7512L111.378 36.124H68.6872C67.3042 36.1227 65.9782 35.5729 65.0001 34.5952C64.0219 33.6175 63.4715 32.2918 63.4696 30.9088V15.2128C63.4721 13.8302 64.0228 12.5051 65.0009 11.5279C65.979 10.5507 67.3046 10.0013 68.6872 10Z" fill="#323544"/>
<path d="M91.9336 26.262H120.398C120.62 26.262 120.834 26.1735 120.992 26.016C121.149 25.8585 121.238 25.6448 121.238 25.422C121.238 25.1992 121.149 24.9856 120.992 24.8281C120.834 24.6705 120.62 24.582 120.398 24.582H91.9336C91.7108 24.582 91.4972 24.6705 91.3396 24.8281C91.1821 24.9856 91.0936 25.1992 91.0936 25.422C91.0936 25.6448 91.1821 25.8585 91.3396 26.016C91.4972 26.1735 91.7108 26.262 91.9336 26.262Z" fill="#323544"/>
<path d="M120.398 21.7599C120.62 21.7615 120.835 21.6745 120.993 21.5181C121.152 21.3617 121.242 21.1487 121.244 20.9259C121.245 20.7031 121.158 20.4889 121.002 20.3302C120.845 20.1715 120.632 20.0815 120.41 20.0799L104.99 19.8399C104.879 19.8384 104.77 19.8585 104.667 19.8993C104.565 19.94 104.471 20.0006 104.392 20.0775C104.313 20.1544 104.25 20.2461 104.206 20.3474C104.162 20.4487 104.139 20.5576 104.138 20.6679C104.136 20.7782 104.156 20.8878 104.197 20.9903C104.238 21.0928 104.298 21.1863 104.375 21.2654C104.452 21.3445 104.544 21.4077 104.645 21.4514C104.746 21.4951 104.855 21.5184 104.966 21.5199L120.383 21.7599H120.398Z" fill="#323544"/>
<path d="M79.9984 24.0851C81.3328 24.0347 85.1872 24.2339 86.092 28.1483C86.1159 28.2587 86.1753 28.3583 86.2613 28.4318C86.3472 28.5052 86.4549 28.5483 86.5678 28.5546C86.6806 28.5609 86.7924 28.5299 86.886 28.4665C86.9795 28.403 87.0497 28.3106 87.0856 28.2035C87.9256 25.6955 88.1512 21.3131 79.9696 20.5595C79.848 20.5506 79.7334 20.4994 79.6457 20.4148C79.558 20.3302 79.5028 20.2174 79.4896 20.0963L79.1824 16.9595C79.1735 16.8675 79.1401 16.7797 79.0856 16.705C79.0312 16.6304 78.9577 16.5718 78.8729 16.5352C78.788 16.4987 78.695 16.4856 78.6033 16.4973C78.5117 16.5091 78.4249 16.5452 78.352 16.6019L71.488 21.9395C71.4279 21.9859 71.3789 22.045 71.3443 22.1126C71.3098 22.1802 71.2905 22.2546 71.288 22.3305C71.2855 22.4063 71.2997 22.4818 71.3297 22.5515C71.3597 22.6213 71.4048 22.6835 71.4616 22.7339L78.316 28.8275C78.3876 28.8918 78.4758 28.9348 78.5705 28.9516C78.6653 28.9685 78.7628 28.9585 78.8522 28.9228C78.9416 28.8871 79.0192 28.8271 79.0763 28.7496C79.1333 28.6721 79.1676 28.5802 79.1752 28.4843L79.504 24.5603C79.5144 24.4344 79.5704 24.3167 79.6614 24.2292C79.7524 24.1417 79.8723 24.0905 79.9984 24.0851Z" fill="#006C8F"/>
<path d="M78.6592 29.7999C78.9998 29.7993 79.3277 29.6711 79.5783 29.4405C79.8289 29.2099 79.984 28.8937 80.0128 28.5543L80.3152 24.9207C81.7552 24.9207 84.5752 25.3167 85.2736 28.3383C85.3387 28.6272 85.4965 28.8868 85.723 29.0775C85.9495 29.2682 86.2322 29.3795 86.5279 29.3945C86.8236 29.4094 87.1161 29.3272 87.3607 29.1603C87.6052 28.9935 87.7885 28.7511 87.8824 28.4703C88.5784 26.3919 88.4416 24.5199 87.4888 23.0583C86.2888 21.2319 83.8888 20.1183 80.3056 19.7487L80.02 16.8687C79.9962 16.6271 79.908 16.3963 79.7646 16.2004C79.6212 16.0046 79.4278 15.8508 79.2047 15.7551C78.9815 15.6595 78.7368 15.6255 78.4961 15.6568C78.2553 15.688 78.0273 15.7833 77.836 15.9327L70.972 21.2799C70.8147 21.4022 70.6863 21.5576 70.5958 21.7351C70.5054 21.9126 70.4552 22.1078 70.4488 22.3069C70.4424 22.5061 70.4799 22.7041 70.5587 22.8871C70.6375 23.0701 70.7557 23.2334 70.9048 23.3655L77.7592 29.4591C78.0072 29.6793 78.3275 29.8006 78.6592 29.7999ZM79.9648 23.2479C79.6339 23.2609 79.3192 23.3944 79.08 23.6235C78.8408 23.8525 78.6937 24.1611 78.6664 24.4911L78.3928 27.7719L72.3088 22.3647L78.4048 17.6247L78.6616 20.1783C78.6937 20.4925 78.8342 20.7857 79.0588 21.0077C79.2834 21.2297 79.5783 21.3667 79.8928 21.3951C83.0728 21.6879 85.1536 22.5567 86.08 23.9775C86.6728 24.8823 86.716 25.9359 86.56 26.8575C85.0888 23.3415 81.208 23.1927 79.9648 23.2407V23.2479Z" fill="#323544"/>
<path d="M99.5872 21.5198H101.987C102.21 21.5198 102.424 21.4313 102.581 21.2738C102.739 21.1163 102.827 20.9026 102.827 20.6798C102.827 20.4571 102.739 20.2434 102.581 20.0859C102.424 19.9283 102.21 19.8398 101.987 19.8398H99.5872C99.3644 19.8398 99.1507 19.9283 98.9932 20.0859C98.8357 20.2434 98.7472 20.4571 98.7472 20.6798C98.7472 20.9026 98.8357 21.1163 98.9932 21.2738C99.1507 21.4313 99.3644 21.5198 99.5872 21.5198Z" fill="#323544"/>
<path d="M75.2752 77.3636C80.9944 70.3868 92.3824 66.5804 100.221 71.042C105.866 74.2556 108.904 80.6684 110.51 86.9612C112.115 93.254 112.65 99.842 114.993 105.9C118.715 115.519 126.825 123.031 136.113 127.5C145.286 131.92 153.59 133.36 163.706 133.747C162.746 143.565 155.567 151.987 146.694 156.547H94.9096C92.52 155.599 90.2397 154.396 88.108 152.959C80.7544 147.948 75.8344 140.03 72.508 131.774C68.7366 122.393 66.7686 112.384 66.7072 102.273C66.652 93.266 69.556 84.338 75.2752 77.3636Z" fill="#006C8F"/>
<path d="M92.5384 69.1224C86.1184 69.1224 79.2952 72.4608 75.2752 77.364C69.556 84.3384 66.652 93.2664 66.7024 102.286C66.7638 112.396 68.7318 122.405 72.5032 131.786C75.8272 140.042 80.7472 147.96 88.1032 152.971C90.2364 154.408 92.5184 155.611 94.9096 156.559H146.694C155.574 151.999 162.75 143.566 163.706 133.759C153.59 133.375 145.286 131.933 136.12 127.519C126.825 123.043 118.715 115.519 115 105.919C112.658 99.8616 112.12 93.2736 110.517 86.9808C108.914 80.688 105.873 74.2752 100.228 71.0616C97.8788 69.764 95.2315 69.1021 92.548 69.1416L92.5384 69.1224ZM92.548 67.4616C95.7016 67.4616 98.5648 68.1816 101.061 69.6024C106.307 72.588 110.037 78.2952 112.146 86.5656C112.754 88.9512 113.214 91.392 113.661 93.7512C114.429 97.812 115.151 101.645 116.57 105.312C119.874 113.849 127.269 121.392 136.859 126.012C144.952 129.91 152.75 131.669 163.778 132.089C164.006 132.098 164.231 132.153 164.437 132.252C164.644 132.35 164.828 132.49 164.979 132.662C165.129 132.835 165.243 133.036 165.313 133.254C165.383 133.472 165.408 133.702 165.386 133.93C164.906 138.905 162.87 143.827 159.508 148.171C156.259 152.298 152.151 155.67 147.47 158.052C147.231 158.175 146.967 158.239 146.699 158.239H94.9096C94.6948 158.239 94.4821 158.198 94.2832 158.117C91.7816 157.123 89.3942 155.863 87.1624 154.358C80.4184 149.765 74.9656 142.382 70.9504 132.415C67.1137 122.833 65.1055 112.617 65.0296 102.295C64.9768 92.6376 68.1496 83.4072 73.984 76.2984C78.3928 70.9176 85.6792 67.4424 92.5456 67.4424L92.548 67.4616Z" fill="#323544"/>
<path d="M89.8696 151.121H132.83C143.26 151.121 152.812 144.984 156.868 135.374C157.149 134.712 157.396 134.035 157.619 133.354C159.592 133.541 161.618 133.668 163.722 133.747C162.762 143.566 155.584 151.987 146.711 156.547H94.9096C88.907 154.201 83.6885 150.208 79.8544 145.027C80.8725 145.927 81.9457 146.762 83.068 147.528C85.1995 148.967 87.4799 150.171 89.8696 151.121Z" fill="#08A4CA"/>
<path d="M88.3096 82.8401C101.51 81.6401 101.51 94.1201 96.9496 98.9201C92.3896 103.72 83.6296 99.0401 76.1896 99.7601C72.1312 100.154 66.8584 97.8401 67.204 95.6417C67.9593 90.7929 69.6237 86.1304 72.1096 81.8993C77.3464 81.6281 78.4888 83.7329 88.3096 82.8401Z" fill="#08A4CA"/>
<path d="M72.988 90.8519C72.0244 90.8519 71.2432 90.0707 71.2432 89.1071C71.2432 88.1435 72.0244 87.3623 72.988 87.3623C73.9516 87.3623 74.7328 88.1435 74.7328 89.1071C74.7328 90.0707 73.9516 90.8519 72.988 90.8519Z" fill="#323544"/>
<path d="M87.8848 91.7152C86.9211 91.7152 86.14 90.934 86.14 89.9704C86.14 89.0068 86.9211 88.2256 87.8848 88.2256C88.8484 88.2256 89.6296 89.0068 89.6296 89.9704C89.6296 90.934 88.8484 91.7152 87.8848 91.7152Z" fill="#323544"/>
<path d="M72.9856 79.4992H73.108L75.1 79.2976C75.4182 79.2658 75.7108 79.1088 75.9134 78.8613C76.1159 78.6137 76.2118 78.2958 76.18 77.9776C76.1482 77.6593 75.9912 77.3668 75.7437 77.1642C75.4961 76.9617 75.1782 76.8658 74.86 76.8976L72.8704 77.0992C72.7128 77.1069 72.5583 77.1456 72.4156 77.213C72.273 77.2805 72.145 77.3754 72.0391 77.4922C71.9331 77.6091 71.8512 77.7458 71.798 77.8943C71.7449 78.0428 71.7215 78.2004 71.7292 78.358C71.7369 78.5156 71.7756 78.6701 71.843 78.8127C71.9105 78.9554 72.0053 79.0833 72.1222 79.1893C72.2391 79.2953 72.3757 79.3772 72.5243 79.4303C72.6728 79.4835 72.8304 79.5069 72.988 79.4992H72.9856Z" fill="#323544"/>
<path d="M90.5728 82.2401C90.8482 82.2398 91.1152 82.1447 91.3288 81.9708C91.5424 81.797 91.6898 81.5549 91.7461 81.2853C91.8024 81.0157 91.7642 80.7349 91.6379 80.4901C91.5117 80.2453 91.3051 80.0514 91.0528 79.9409L89.2192 79.1441C88.9274 79.0168 88.5969 79.0106 88.3005 79.127C88.0041 79.2433 87.7661 79.4726 87.6388 79.7645C87.5115 80.0563 87.5053 80.3868 87.6217 80.6832C87.738 80.9795 87.9674 81.2176 88.2592 81.3449L90.0952 82.1417C90.246 82.2068 90.4085 82.2403 90.5728 82.2401Z" fill="#323544"/>
<path d="M85.7584 63.5321C91.4416 61.8521 98.6752 63.0809 103.871 65.9321C106.144 67.1801 108.246 68.8385 110.757 69.4865C113.267 70.1345 116.435 69.3545 117.407 66.9521C117.981 65.5385 117.647 63.8729 116.822 62.5913C115.996 61.3097 114.736 60.3665 113.414 59.6105C110.072 57.7136 106.234 56.8711 102.405 57.1937C101.373 57.2825 99.976 57.2105 99.7648 56.1977C99.6064 55.4129 100.391 54.7577 101.152 54.5177C101.913 54.2777 102.77 54.2105 103.379 53.6969C104.159 53.0393 104.248 51.7985 103.78 50.8937C103.312 49.9889 102.407 49.3793 101.464 48.9977C97.6456 47.4521 93.0904 49.2209 90.3616 52.3073C87.6328 55.3937 86.416 59.5193 85.6912 63.5729L85.7584 63.5321Z" fill="#006C8F"/>
<path d="M112.485 70.5404C114.863 70.5404 117.285 69.4868 118.187 67.2668C118.826 65.69 118.578 63.7724 117.527 62.138C116.742 60.9188 115.533 59.8532 113.829 58.8812C110.337 56.9029 106.33 56.023 102.33 56.3564C101.253 56.45 100.65 56.2628 100.593 56.03C100.554 55.8356 100.912 55.4708 101.416 55.31C101.606 55.2476 101.814 55.1972 102.033 55.142C102.647 54.9932 103.341 54.8228 103.924 54.3308C104.951 53.4668 105.213 51.8204 104.531 50.4908C104.03 49.5188 103.079 48.7268 101.783 48.2036C97.912 46.634 92.9608 48.0884 89.7376 51.734C86.6176 55.2692 85.4632 60.0884 84.8704 63.4076C84.8416 63.561 84.8563 63.7195 84.9128 63.8651C84.9694 64.0106 85.0654 64.1375 85.1902 64.2313C85.315 64.3252 85.4636 64.3823 85.6191 64.3962C85.7746 64.41 85.9309 64.3802 86.0704 64.31C91.2088 62.8196 98.1904 63.7628 103.473 66.662C104.114 67.0124 104.762 67.4108 105.393 67.7948C106.998 68.7812 108.657 69.8012 110.56 70.2932C111.189 70.4548 111.835 70.5378 112.485 70.5404ZM103.998 57.9644C107.152 57.9669 110.252 58.7855 112.996 60.3404C114.46 61.1756 115.48 62.0612 116.116 63.0476C116.862 64.2044 117.059 65.5796 116.632 66.6476C115.84 68.6036 113.078 69.2276 110.97 68.6852C109.31 68.2556 107.831 67.346 106.264 66.3836C105.621 65.9876 104.956 65.5796 104.277 65.2076C98.9344 62.2748 92.2168 61.2284 86.776 62.4164C87.3976 59.4308 88.5304 55.658 91 52.8644C93.256 50.3108 97.396 48.2564 101.154 49.778C101.795 50.0372 102.642 50.51 103.041 51.2804C103.36 51.8996 103.281 52.6964 102.846 53.0564C102.563 53.2964 102.126 53.3996 101.646 53.5196C101.406 53.5796 101.166 53.6396 100.907 53.7212C99.748 54.098 98.7064 55.1324 98.9584 56.3756C99.1048 57.0956 99.76 58.2788 102.489 58.0436C102.983 57.986 103.492 57.9644 103.998 57.9644Z" fill="#323544"/>
<path d="M45.7744 68.0414C53.3728 70.3574 59.8552 63.2558 61.3048 56.7614C61.5736 55.5614 61.84 54.2918 61.4968 53.1062C61.1536 51.9206 59.9728 50.879 58.768 51.143C57.5632 51.407 56.9632 52.7198 56.44 53.8382C55.9168 54.9566 55 56.1902 53.7856 56.0438C52.4656 55.8878 51.9232 54.2966 51.6688 52.991L50.1016 44.9318C49.8736 43.7582 49.5304 42.4238 48.46 41.8886C47.26 41.291 45.7432 42.1118 45.1144 43.2926C44.4856 44.4734 44.5144 45.8846 44.5744 47.2214C44.6344 48.5582 44.7088 49.9574 44.152 51.1766C43.5974 48.5658 42.5684 46.079 41.116 43.8398C40.5064 42.9038 39.496 41.903 38.4472 42.2822C37.5112 42.6206 37.2688 43.8134 37.2328 44.807C37.1317 47.6135 37.5165 50.4164 38.3704 53.0918C37.8904 51.7838 37.3696 50.423 36.328 49.4918C35.2864 48.5606 33.5512 48.2606 32.5288 49.2062C31.2232 50.4062 31.876 52.5662 32.7088 54.143C34.4381 57.4043 36.563 60.44 39.0352 63.1814C40.9096 65.2598 43.0912 67.223 45.7744 68.0414Z" fill="#006C8F"/>
<path d="M48.7192 69.3282C50.7333 69.3137 52.7067 68.7592 54.4336 67.7226C58.1248 65.5626 61.1536 61.3386 62.1136 56.9346C62.3752 55.7538 62.704 54.2826 62.2912 52.8546C61.852 51.333 60.304 49.9266 58.576 50.3058C56.9776 50.6562 56.26 52.1922 55.696 53.4258L55.6792 53.4642C55.4776 53.8962 54.748 55.2954 53.8864 55.1922C53.0992 55.0986 52.6864 53.8458 52.4944 52.8138L50.9272 44.7522C50.7304 43.7514 50.368 41.8842 48.8344 41.1186C47.1664 40.2882 45.1816 41.3586 44.3728 42.8802C43.7032 44.1426 43.6672 45.5202 43.7248 46.9602C43.1987 45.7055 42.5609 44.5007 41.8192 43.3602C40.7608 41.733 39.3928 41.0274 38.1616 41.4714C37.3984 41.7474 36.4816 42.5394 36.3928 44.7546C36.3458 46.0318 36.3963 47.3107 36.544 48.5802C35.2336 47.6538 33.2392 47.3922 31.96 48.5802C30.6184 49.821 30.6208 51.9882 31.96 54.5274C33.7216 57.8499 35.8868 60.9421 38.4064 63.7338C40.1104 65.6202 42.4576 67.9026 45.5248 68.8386C46.5595 69.159 47.636 69.324 48.7192 69.3282ZM59.1496 51.933C59.8144 51.933 60.4888 52.6194 60.6952 53.3298C60.988 54.3378 60.724 55.5234 60.4888 56.5698C59.6056 60.537 56.8888 64.3458 53.5936 66.2706C51.1792 67.677 48.5536 68.013 46.024 67.2306C43.3504 66.417 41.224 64.3338 39.664 62.6082C37.2353 59.9162 35.1498 56.9335 33.4552 53.7282C33.1 53.0586 32.0272 50.7978 33.1048 49.8018C33.7792 49.1778 35.0536 49.4586 35.7736 50.0994C36.6832 50.9058 37.1632 52.2066 37.588 53.3538C37.6606 53.5645 37.8139 53.7377 38.0142 53.8354C38.2144 53.933 38.4453 53.9471 38.656 53.8746C38.8667 53.802 39.0399 53.6487 39.1376 53.4484C39.2353 53.2481 39.2494 53.0173 39.1768 52.8066C38.3479 50.2244 37.9751 47.5175 38.0752 44.8074C38.0944 44.3442 38.1904 43.2402 38.7376 43.0434C39.232 42.8658 39.9376 43.5234 40.4176 44.2698C41.8173 46.4201 42.8076 48.8107 43.3384 51.321C43.3749 51.4941 43.465 51.6513 43.5961 51.7701C43.7271 51.889 43.8923 51.9634 44.0682 51.9829C44.244 52.0023 44.4215 51.9657 44.5753 51.8783C44.7292 51.7909 44.8515 51.6572 44.9248 51.4962C45.5584 50.1066 45.4864 48.5586 45.424 47.1954V47.1546C45.364 45.8634 45.352 44.625 45.8656 43.6602C46.2952 42.8538 47.3392 42.237 48.0928 42.6138C48.7912 42.9618 49.0792 43.9962 49.2928 45.0642L50.86 53.1234C51.3064 55.425 52.264 56.6802 53.7016 56.8506C55.0792 57.0162 56.3416 56.061 57.2152 54.165L57.2344 54.1266C57.676 53.181 58.1752 52.1058 58.9624 51.9354C59.0246 51.9282 59.0873 51.9274 59.1496 51.933Z" fill="#323544"/>
<path d="M53.9488 56.4443C52.8071 56.4814 51.6907 56.7906 50.6926 57.3463C49.6945 57.9019 48.8435 58.6878 48.2104 59.6387" fill="#006C8F"/>
<path d="M48.208 60.479C48.3481 60.4795 48.4862 60.4449 48.6095 60.3782C48.7327 60.3115 48.8373 60.215 48.9136 60.0974C49.4739 59.2622 50.224 58.5715 51.1025 58.0818C51.981 57.5921 52.9629 57.3173 53.968 57.2798C54.1908 57.2747 54.4024 57.1814 54.5564 57.0202C54.7103 56.8591 54.7939 56.6434 54.7888 56.4206C54.7837 56.1979 54.6903 55.9862 54.5292 55.8323C54.3681 55.6784 54.1524 55.5947 53.9296 55.5998C52.6513 55.6371 51.4007 55.981 50.283 56.6024C49.1654 57.2239 48.2134 58.1048 47.5072 59.171C47.4465 59.2632 47.4045 59.3664 47.3837 59.4748C47.3629 59.5832 47.3637 59.6947 47.386 59.8028C47.4083 59.9109 47.4516 60.0135 47.5136 60.1048C47.5756 60.1962 47.655 60.2744 47.7472 60.335C47.8836 60.4266 48.0437 60.4766 48.208 60.479Z" fill="#323544"/>
<path d="M67.4296 45.6406C67.4296 45.6406 69.8296 55.0006 61.6696 66.5206L67.4296 45.6406Z" fill="#111217"/>
<path d="M61.6696 67.3606C61.8041 67.3607 61.9366 67.3284 62.0561 67.2666C62.1755 67.2048 62.2784 67.1152 62.356 67.0054C70.6456 55.303 68.356 45.8302 68.2432 45.4318C68.1832 45.2215 68.0436 45.0429 67.8539 44.9339C67.6643 44.825 67.4397 44.7943 67.2278 44.8483C67.0159 44.9024 66.8334 45.037 66.7192 45.2235C66.6049 45.41 66.5679 45.6336 66.616 45.847C66.6448 45.967 68.776 55.0222 60.9832 66.0358C60.8943 66.1616 60.8417 66.3094 60.8312 66.463C60.8206 66.6167 60.8525 66.7703 60.9234 66.907C60.9942 67.0438 61.1013 67.1584 61.2329 67.2384C61.3645 67.3184 61.5156 67.3607 61.6696 67.3606Z" fill="#323544"/>
<path d="M209.798 50.3936H142.526C141.354 50.3936 140.231 50.8588 139.403 51.687C138.575 52.5151 138.11 53.6384 138.11 54.8096V74.4056C138.11 75.5767 138.575 76.7 139.403 77.5281C140.231 78.3563 141.354 78.8216 142.526 78.8216H144.422C144.554 78.8222 144.681 78.8753 144.775 78.9693C144.868 79.0633 144.921 79.1905 144.921 79.3232V84.4616C144.921 84.5497 144.944 84.6362 144.988 84.7124C145.033 84.7886 145.096 84.8517 145.173 84.8953C145.249 84.939 145.336 84.9616 145.424 84.9608C145.512 84.9601 145.599 84.9361 145.674 84.8912L155.81 78.8912C155.887 78.8457 155.974 78.8216 156.064 78.8216H209.798C210.969 78.8216 212.092 78.3563 212.92 77.5281C213.748 76.7 214.214 75.5767 214.214 74.4056V54.8096C214.214 53.6384 213.748 52.5151 212.92 51.687C212.092 50.8588 210.969 50.3936 209.798 50.3936Z" fill="#111217"/>
<path d="M142.526 50.3939C141.354 50.3939 140.231 50.8591 139.403 51.6873C138.575 52.5154 138.11 53.6387 138.11 54.8099V74.4059C138.11 75.5771 138.575 76.7003 139.403 77.5285C140.231 78.3566 141.354 78.8219 142.526 78.8219H144.422C144.554 78.8225 144.681 78.8756 144.775 78.9696C144.868 79.0636 144.921 79.1909 144.921 79.3235V84.4619C144.921 84.55 144.944 84.6365 144.988 84.7127C145.033 84.7889 145.096 84.852 145.173 84.8956C145.249 84.9393 145.336 84.9619 145.424 84.9611C145.512 84.9604 145.599 84.9364 145.674 84.8915L155.81 78.8915C155.887 78.846 155.975 78.822 156.064 78.8219H209.798C210.969 78.8219 212.092 78.3566 212.92 77.5285C213.748 76.7003 214.214 75.5771 214.214 74.4059V54.8099C214.214 53.6387 213.748 52.5154 212.92 51.6873C212.092 50.8591 210.969 50.3939 209.798 50.3939H142.526ZM142.526 48.7139H209.798C211.414 48.7158 212.963 49.3586 214.106 50.5015C215.249 51.6443 215.892 53.1937 215.894 54.8099V74.4059C215.892 76.0222 215.25 77.572 214.107 78.715C212.964 79.8579 211.414 80.5006 209.798 80.5019H156.388L146.531 86.3363C146.2 86.5324 145.823 86.6375 145.439 86.6408C145.054 86.6441 144.676 86.5456 144.341 86.3552C144.007 86.1648 143.729 85.8893 143.536 85.5568C143.343 85.2243 143.241 84.8465 143.241 84.4619V80.5019H142.521C140.904 80.5006 139.355 79.8579 138.212 78.715C137.069 77.572 136.426 76.0222 136.425 74.4059V54.8099C136.427 53.1937 137.07 51.6443 138.212 50.5015C139.355 49.3586 140.905 48.7158 142.521 48.7139H142.526Z" fill="#323544"/>
<path d="M214.214 57.7978C210.289 57.7978 207.107 54.6161 207.107 50.6914C207.107 46.7666 210.289 43.585 214.214 43.585C218.138 43.585 221.32 46.7666 221.32 50.6914C221.32 54.6161 218.138 57.7978 214.214 57.7978Z" fill="#111217"/>
<path d="M214.214 43.5853C212.808 43.5853 211.434 44.0021 210.265 44.7829C209.097 45.5638 208.186 46.6736 207.648 47.9722C207.11 49.2707 206.97 50.6996 207.244 52.0781C207.518 53.4566 208.195 54.7228 209.189 55.7167C210.182 56.7105 211.449 57.3873 212.827 57.6615C214.206 57.9357 215.635 57.795 216.933 57.2571C218.232 56.7193 219.341 55.8084 220.122 54.6398C220.903 53.4711 221.32 52.0972 221.32 50.6917C221.32 48.8069 220.571 46.9994 219.239 45.6667C217.906 44.334 216.098 43.5853 214.214 43.5853ZM214.214 41.9053C215.951 41.9053 217.65 42.4206 219.095 43.386C220.54 44.3515 221.666 45.7238 222.331 47.3293C222.996 48.9348 223.17 50.7014 222.831 52.4058C222.492 54.1102 221.655 55.6758 220.427 56.9046C219.198 58.1334 217.632 58.9702 215.928 59.3092C214.223 59.6483 212.457 59.4743 210.851 58.8092C209.246 58.1442 207.873 57.0181 206.908 55.5731C205.943 54.1282 205.427 52.4295 205.427 50.6917C205.43 48.3622 206.356 46.1288 208.003 44.4816C209.651 42.8343 211.884 41.9078 214.214 41.9053Z" fill="#323544"/>
<path d="M160.612 70.5332H149.07C147.924 70.5332 146.994 69.6037 146.994 68.4572V61.6532C146.994 60.5067 147.924 59.5772 149.07 59.5772H160.612C161.759 59.5772 162.688 60.5067 162.688 61.6532V68.4572C162.688 69.6037 161.759 70.5332 160.612 70.5332Z" fill="#006C8F"/>
<path d="M149.07 71.3728H160.612C161.385 71.3715 162.127 71.0635 162.673 70.5165C163.22 69.9694 163.527 69.2278 163.528 68.4544V61.6528C163.527 60.8794 163.22 60.1378 162.673 59.5907C162.127 59.0436 161.385 58.7356 160.612 58.7344H149.07C148.297 58.7356 147.556 59.0436 147.009 59.5907C146.462 60.1378 146.155 60.8794 146.154 61.6528V68.4544C146.155 69.2278 146.462 69.9694 147.009 70.5165C147.556 71.0635 148.297 71.3715 149.07 71.3728ZM160.612 60.4144C160.94 60.415 161.254 60.5458 161.486 60.7779C161.718 61.0101 161.848 61.3247 161.848 61.6528V68.4544C161.848 68.7824 161.718 69.097 161.486 69.3292C161.254 69.5614 160.94 69.6921 160.612 69.6928H149.07C148.742 69.6921 148.428 69.5614 148.196 69.3292C147.965 69.097 147.834 68.7824 147.834 68.4544V61.6528C147.834 61.3247 147.965 61.0101 148.196 60.7779C148.428 60.5458 148.742 60.415 149.07 60.4144H160.612Z" fill="#323544"/>
<path d="M162.338 70.4505C162.508 70.4505 162.674 70.3986 162.815 70.3017C162.955 70.2049 163.062 70.0676 163.123 69.9083C163.183 69.7489 163.194 69.5749 163.153 69.4094C163.112 69.2439 163.022 69.0947 162.894 68.9817L155.25 62.2041C155.097 62.0712 154.901 61.998 154.698 61.998C154.496 61.998 154.3 62.0712 154.146 62.2041L146.61 68.6337C146.441 68.7782 146.335 68.9841 146.318 69.2063C146.3 69.4284 146.371 69.6485 146.516 69.8181C146.66 69.9877 146.866 70.093 147.088 70.1108C147.31 70.1286 147.53 70.0574 147.7 69.9129L154.67 63.9441L161.778 70.2393C161.933 70.3757 162.132 70.4508 162.338 70.4505Z" fill="#323544"/>
<path d="M147.662 60.1289L154.694 66.0905L162.018 60.1289" fill="#006C8F"/>
<path d="M154.694 66.9303C154.886 66.9307 155.073 66.8636 155.222 66.7407L162.549 60.7791C162.722 60.6384 162.831 60.4349 162.854 60.2132C162.877 59.9915 162.811 59.7699 162.67 59.5971C162.529 59.4243 162.326 59.3144 162.104 59.2917C161.882 59.269 161.661 59.3352 161.488 59.4759L154.703 64.9959L148.206 59.4759C148.036 59.3317 147.816 59.261 147.594 59.2792C147.372 59.2974 147.166 59.4031 147.022 59.5731C146.878 59.743 146.807 59.9633 146.825 60.1854C146.844 60.4075 146.949 60.6133 147.119 60.7575L154.149 66.7191C154.299 66.8522 154.493 66.9271 154.694 66.9303Z" fill="#323544"/>
<path d="M168.611 69.2991H204.146C204.368 69.2991 204.582 69.2106 204.74 69.0531C204.897 68.8956 204.986 68.6819 204.986 68.4591C204.986 68.2364 204.897 68.0227 204.74 67.8652C204.582 67.7076 204.368 67.6191 204.146 67.6191H168.611C168.388 67.6191 168.175 67.7076 168.017 67.8652C167.86 68.0227 167.771 68.2364 167.771 68.4591C167.771 68.6819 167.86 68.8956 168.017 69.0531C168.175 69.2106 168.388 69.2991 168.611 69.2991Z" fill="#323544"/>
<path d="M168.611 63.673H168.623L187.871 63.3754C187.981 63.3737 188.09 63.3502 188.192 63.3064C188.293 63.2626 188.385 63.1993 188.461 63.12C188.538 63.0408 188.598 62.9473 188.639 62.8447C188.68 62.7421 188.7 62.6325 188.698 62.5222C188.696 62.4119 188.673 62.303 188.629 62.2018C188.585 62.1005 188.522 62.0089 188.443 61.9321C188.363 61.8553 188.27 61.7949 188.167 61.7543C188.065 61.7137 187.955 61.6937 187.845 61.6954L168.597 61.993C168.374 61.9949 168.161 62.0853 168.005 62.2441C167.849 62.403 167.762 62.6174 167.764 62.8402C167.766 63.063 167.856 63.2759 168.015 63.4321C168.174 63.5883 168.388 63.6749 168.611 63.673Z" fill="#323544"/>
<path d="M214.79 53.9195H214.816C214.952 53.9149 215.085 53.8774 215.203 53.8101C215.322 53.7428 215.422 53.6477 215.495 53.5331L217.655 50.1731C217.722 50.0806 217.769 49.9754 217.794 49.8641C217.818 49.7527 217.82 49.6375 217.799 49.5254C217.778 49.4134 217.734 49.3068 217.67 49.2123C217.606 49.1178 217.524 49.0372 217.428 48.9755C217.332 48.9138 217.224 48.8723 217.112 48.8536C216.999 48.8348 216.884 48.8391 216.774 48.8663C216.663 48.8935 216.559 48.9429 216.468 49.0116C216.377 49.0803 216.301 49.1668 216.244 49.2659L214.742 51.6011L211.382 47.0603C211.318 46.9658 211.237 46.8852 211.141 46.8232C211.046 46.7613 210.939 46.7193 210.827 46.6999C210.715 46.6804 210.6 46.6839 210.49 46.7101C210.379 46.7363 210.275 46.7847 210.184 46.8523C210.092 46.92 210.016 47.0054 209.958 47.1035C209.901 47.2017 209.864 47.3104 209.85 47.4232C209.836 47.536 209.845 47.6504 209.876 47.7597C209.908 47.8689 209.961 47.9706 210.033 48.0587L214.113 53.5787C214.191 53.685 214.293 53.7713 214.41 53.8305C214.528 53.8898 214.658 53.9203 214.79 53.9195Z" fill="#323544"/>
<path d="M190.55 63.2796H193.91C194.132 63.2796 194.346 63.1911 194.504 63.0336C194.661 62.8761 194.75 62.6624 194.75 62.4396C194.75 62.2168 194.661 62.0032 194.504 61.8456C194.346 61.6881 194.132 61.5996 193.91 61.5996H190.55C190.327 61.5996 190.113 61.6881 189.956 61.8456C189.798 62.0032 189.71 62.2168 189.71 62.4396C189.71 62.6624 189.798 62.8761 189.956 63.0336C190.113 63.1911 190.327 63.2796 190.55 63.2796Z" fill="#323544"/>
<path d="M50.1016 124.542H107.39C108.387 124.542 109.344 124.938 110.049 125.643C110.754 126.349 111.15 127.305 111.15 128.303V144.992C111.151 145.486 111.054 145.976 110.865 146.432C110.676 146.889 110.399 147.304 110.05 147.653C109.7 148.003 109.286 148.28 108.829 148.469C108.373 148.658 107.884 148.756 107.39 148.756H105.777C105.664 148.756 105.556 148.8 105.476 148.88C105.396 148.959 105.35 149.068 105.35 149.18V153.558C105.349 153.633 105.329 153.706 105.292 153.771C105.254 153.836 105.2 153.889 105.135 153.926C105.07 153.963 104.996 153.982 104.921 153.982C104.847 153.981 104.773 153.961 104.709 153.923L96.0688 148.813C96.0023 148.775 95.927 148.755 95.8504 148.756H50.1016C49.1039 148.755 48.1474 148.358 47.4422 147.653C46.7369 146.947 46.3408 145.99 46.3408 144.992V128.303C46.3414 127.306 46.7378 126.349 47.443 125.644C48.1481 124.939 49.1044 124.543 50.1016 124.542Z" fill="#111217"/>
<path d="M50.1016 124.542C49.1044 124.543 48.1482 124.939 47.443 125.645C46.7379 126.35 46.3414 127.306 46.3408 128.303V144.993C46.3408 145.99 46.737 146.947 47.4422 147.653C48.1474 148.359 49.1039 148.755 50.1016 148.756H95.8696C95.9462 148.756 96.0215 148.775 96.088 148.814L104.728 153.923C104.792 153.962 104.866 153.983 104.941 153.984C105.016 153.985 105.09 153.966 105.155 153.929C105.221 153.891 105.275 153.838 105.312 153.772C105.35 153.707 105.369 153.633 105.369 153.558V149.181C105.369 149.068 105.415 148.96 105.495 148.88C105.575 148.801 105.683 148.756 105.796 148.756H107.39C107.884 148.756 108.373 148.659 108.829 148.469C109.286 148.28 109.7 148.003 110.05 147.654C110.399 147.304 110.676 146.889 110.865 146.433C111.054 145.976 111.151 145.487 111.15 144.993V128.303C111.15 127.306 110.754 126.349 110.049 125.644C109.344 124.939 108.387 124.542 107.39 124.542H50.1016ZM50.1016 122.862H107.39C108.832 122.864 110.215 123.438 111.235 124.458C112.255 125.478 112.828 126.861 112.83 128.303V144.993C112.829 146.436 112.256 147.819 111.236 148.839C110.216 149.86 108.832 150.434 107.39 150.436H107.03V153.556C107.029 153.927 106.93 154.292 106.744 154.613C106.557 154.934 106.289 155.199 105.966 155.383C105.644 155.567 105.278 155.663 104.907 155.66C104.536 155.657 104.172 155.557 103.852 155.368L95.5144 150.434H50.1016C48.6588 150.432 47.2756 149.857 46.2556 148.837C45.2356 147.817 44.6621 146.433 44.6608 144.99V128.303C44.6627 126.861 45.2365 125.478 46.2565 124.458C47.2764 123.438 48.6592 122.864 50.1016 122.862Z" fill="#323544"/>
<path d="M70.3024 140.689C67.5162 140.689 65.2576 138.431 65.2576 135.644C65.2576 132.858 67.5162 130.6 70.3024 130.6C73.0886 130.6 75.3472 132.858 75.3472 135.644C75.3472 138.431 73.0886 140.689 70.3024 140.689Z" fill="#2B2E3D"/>
<path d="M70.3024 141.52C71.4663 141.52 72.6041 141.174 73.5718 140.528C74.5396 139.881 75.2938 138.962 75.7392 137.887C76.1846 136.812 76.3012 135.628 76.0741 134.487C75.8471 133.345 75.2866 132.297 74.4636 131.474C73.6406 130.651 72.592 130.09 71.4505 129.863C70.3089 129.636 69.1257 129.753 68.0504 130.198C66.9751 130.643 66.056 131.398 65.4094 132.365C64.7627 133.333 64.4176 134.471 64.4176 135.635C64.4195 137.195 65.0401 138.691 66.1433 139.794C67.2465 140.897 68.7422 141.518 70.3024 141.52ZM70.3024 131.44C71.134 131.44 71.947 131.686 72.6385 132.148C73.3299 132.61 73.8689 133.267 74.1871 134.035C74.5054 134.804 74.5886 135.649 74.4264 136.465C74.2642 137.28 73.8637 138.03 73.2756 138.618C72.6876 139.206 71.9384 139.606 71.1227 139.768C70.3071 139.931 69.4616 139.847 68.6933 139.529C67.925 139.211 67.2683 138.672 66.8062 137.98C66.3442 137.289 66.0976 136.476 66.0976 135.644C66.0989 134.53 66.5423 133.461 67.3306 132.673C68.1188 131.884 69.1876 131.441 70.3024 131.44Z" fill="#323544"/>
<path d="M52.7728 134.632H55.9384C55.0264 133.948 54.124 133.192 54.2584 131.858C54.4984 129.336 56.2744 130.596 56.2744 131.858C56.2744 133.622 58.9864 132.866 59.0176 135.64C59.039 135.731 59.0495 135.824 59.0488 135.916V138.796C59.0487 139.109 58.9353 139.411 58.7297 139.646C58.524 139.881 58.24 140.034 57.9304 140.076L54.1096 140.587C53.7823 140.631 53.4494 140.604 53.1333 140.509C52.8172 140.413 52.5252 140.251 52.2767 140.034C52.0283 139.816 51.8293 139.548 51.693 139.247C51.5566 138.947 51.4862 138.62 51.4864 138.29V135.921C51.4861 135.752 51.5191 135.585 51.5836 135.428C51.6481 135.272 51.7428 135.13 51.8623 135.01C51.9818 134.89 52.1237 134.795 52.28 134.731C52.4362 134.666 52.6037 134.632 52.7728 134.632Z" fill="#006C8F"/>
<path d="M55.1416 130.401C54.7408 130.401 54.364 130.792 54.2584 131.858C54.124 133.197 55.0264 133.948 55.9384 134.632H52.7728C52.6035 134.632 52.4357 134.665 52.2792 134.729C52.1227 134.794 51.9805 134.889 51.8608 135.009C51.741 135.128 51.6461 135.271 51.5815 135.427C51.5168 135.584 51.4837 135.751 51.484 135.921V138.29C51.4826 138.62 51.5523 138.948 51.6883 139.249C51.8244 139.551 52.0237 139.819 52.2726 140.037C52.5216 140.255 52.8145 140.417 53.1314 140.511C53.4484 140.606 53.7819 140.632 54.1096 140.586L57.9304 140.08C58.24 140.038 58.524 139.885 58.7297 139.65C58.9353 139.415 59.0487 139.113 59.0488 138.801V135.921C59.0495 135.828 59.039 135.735 59.0176 135.645C58.9864 132.87 56.2744 133.626 56.2744 131.862C56.2744 131.142 55.6864 130.406 55.1416 130.406V130.401ZM55.1416 128.726C55.5502 128.738 55.9507 128.843 56.3128 129.032C56.6749 129.222 56.9893 129.491 57.232 129.82C57.6472 130.339 57.898 130.97 57.952 131.632L58.2064 131.771C58.9912 132.191 60.6064 133.055 60.7 135.477C60.7229 135.625 60.7341 135.775 60.7336 135.926V138.806C60.7321 139.525 60.4706 140.219 59.9972 140.76C59.5239 141.301 58.8708 141.653 58.1584 141.75L54.3328 142.259C54.1562 142.283 53.9782 142.295 53.8 142.295C52.7408 142.293 51.7256 141.871 50.9774 141.122C50.2291 140.372 49.8088 139.356 49.8088 138.297V135.928C49.8093 135.162 50.1054 134.426 50.6353 133.874C51.1651 133.321 51.8879 132.994 52.6528 132.962C52.5665 132.546 52.5455 132.119 52.5904 131.697C52.8736 128.872 54.7696 128.728 55.1464 128.728L55.1416 128.726Z" fill="#323544"/>
<path d="M80.8096 142.017H105.275C105.498 142.017 105.712 141.928 105.869 141.771C106.027 141.613 106.115 141.4 106.115 141.177C106.115 140.954 106.027 140.74 105.869 140.583C105.712 140.425 105.498 140.337 105.275 140.337H80.8096C80.5868 140.337 80.3732 140.425 80.2156 140.583C80.0581 140.74 79.9696 140.954 79.9696 141.177C79.9696 141.4 80.0581 141.613 80.2156 141.771C80.3732 141.928 80.5868 142.017 80.8096 142.017Z" fill="#323544"/>
<path d="M94.4296 136.72C94.6524 136.722 94.8668 136.635 95.0257 136.479C95.1845 136.323 95.2749 136.11 95.2768 135.887C95.2787 135.664 95.192 135.45 95.0358 135.291C94.8797 135.132 94.6668 135.042 94.444 135.04L80.824 134.8C80.6012 134.796 80.3859 134.88 80.2255 135.035C80.065 135.19 79.9725 135.402 79.9684 135.624C79.9642 135.847 80.0488 136.062 80.2034 136.223C80.358 136.383 80.57 136.476 80.7928 136.48L94.4128 136.72H94.4296Z" fill="#323544"/>
<path d="M98.3896 136.48H100.55C100.772 136.48 100.986 136.391 101.144 136.234C101.301 136.076 101.39 135.863 101.39 135.64C101.39 135.417 101.301 135.203 101.144 135.046C100.986 134.888 100.772 134.8 100.55 134.8H98.3896C98.1668 134.8 97.9532 134.888 97.7956 135.046C97.6381 135.203 97.5496 135.417 97.5496 135.64C97.5496 135.863 97.6381 136.076 97.7956 136.234C97.9532 136.391 98.1668 136.48 98.3896 136.48Z" fill="#323544"/>
</svg>
