<svg width="50" height="51" viewBox="0 0 50 51" fill="none" xmlns="http://www.w3.org/2000/svg">
<path d="M19 4.25268C22.7128 2.10908 27.2872 2.10908 31 4.25268L40.6506 9.82447C44.3634 11.9681 46.6506 15.9296 46.6506 20.2168V31.3604C46.6506 35.6476 44.3634 39.6091 40.6506 41.7527L31 47.3245C27.2872 49.4681 22.7128 49.4681 19 47.3245L9.34937 41.7527C5.63655 39.6091 3.34937 35.6476 3.34937 31.3604V20.2168C3.34937 15.9296 5.63655 11.9681 9.34937 9.82447L19 4.25268Z" fill="#FFF5EF"/>
<path d="M19.25 4.68569C22.8081 2.63141 27.1919 2.63141 30.75 4.68569L40.4006 10.2575C43.9587 12.3118 46.1506 16.1082 46.1506 20.2168V31.3604C46.1506 35.4689 43.9587 39.2654 40.4006 41.3197L30.75 46.8915C27.1919 48.9457 22.8081 48.9457 19.25 46.8915L9.59937 41.3197C6.04125 39.2654 3.84937 35.4689 3.84937 31.3604V20.2168C3.84937 16.1082 6.04125 12.3118 9.59937 10.2575L19.25 4.68569Z" stroke="#FF6F1E" stroke-opacity="0.2"/>
<g clip-path="url(#clip0_27158_134496)">
<path opacity="0.1" d="M25.0142 36.0095C24.0671 36.0103 23.1491 35.6944 22.4171 35.1159L17.8843 31.551C17.4136 31.1823 17.0344 30.7169 16.7747 30.1889C16.515 29.6609 16.3813 29.0836 16.3833 28.4994V21.5121C16.3837 20.7573 16.6091 20.0183 17.0327 19.3831C17.4563 18.7478 18.0603 18.2429 18.7731 17.9282L23.3058 15.9318C23.8409 15.6921 24.424 15.5679 25.0142 15.5679C25.6044 15.5679 26.1875 15.6921 26.7226 15.9318L31.2553 17.9282C31.9681 18.2429 32.5721 18.7478 32.9957 19.3831C33.4193 20.0183 33.6447 20.7573 33.6451 21.5121V28.4994C33.6472 29.0836 33.5135 29.6609 33.2537 30.1889C32.994 30.7169 32.6149 31.1823 32.1441 31.551L27.6114 35.1159C26.8793 35.6944 25.9613 36.0103 25.0142 36.0095Z" fill="#FF6F1E"/>
<path d="M25.0001 36.1011C24.0445 36.1018 23.1183 35.7831 22.3796 35.1994L17.8063 31.6025C17.3313 31.2306 16.9487 30.761 16.6867 30.2282C16.4246 29.6955 16.2897 29.1131 16.2918 28.5236V21.4737C16.2922 20.712 16.5196 19.9665 16.947 19.3255C17.3744 18.6845 17.9838 18.1751 18.703 17.8576L23.2764 15.8433C23.8163 15.6014 24.4046 15.4761 25.0001 15.4761C25.5956 15.4761 26.1839 15.6014 26.7238 15.8433L31.2972 17.8576C32.0163 18.1751 32.6258 18.6845 33.0532 19.3255C33.4806 19.9665 33.708 20.712 33.7084 21.4737V28.5236C33.7105 29.1131 33.5755 29.6955 33.3135 30.2282C33.0514 30.761 32.6689 31.2306 32.1939 31.6025L27.6205 35.1994C26.8819 35.7831 25.9557 36.1018 25.0001 36.1011ZM25.0001 16.9176C24.621 16.9203 24.2471 17.0021 23.9041 17.1574L19.3307 19.1621C18.871 19.3653 18.4812 19.6909 18.2076 20.1006C17.9339 20.5102 17.7877 20.9866 17.7863 21.4737V28.5236C17.7951 28.8943 17.889 29.2586 18.0613 29.5902C18.2335 29.9219 18.4799 30.2128 18.7827 30.4419L23.3561 34.0388C23.8281 34.4114 24.4196 34.6149 25.03 34.6149C25.6403 34.6149 26.2318 34.4114 26.7039 34.0388L31.2772 30.4419C31.5801 30.2128 31.8264 29.9219 31.9987 29.5902C32.171 29.2586 32.2648 28.8943 32.2736 28.5236V21.4737C32.2722 20.9866 32.1261 20.5102 31.8524 20.1006C31.5787 19.6909 31.189 19.3653 30.7292 19.1621L26.0961 17.1574C25.7531 17.0021 25.3791 16.9203 25.0001 16.9176ZM25.0001 31.6217C22.4892 31.6217 20.5264 30.2501 20.5264 28.4948C20.5844 27.8094 20.8692 27.16 21.3391 26.642C21.809 26.1241 22.4392 25.7649 23.1369 25.6173C22.7055 25.3318 22.3531 24.9493 22.11 24.5031C21.8669 24.0568 21.7406 23.5602 21.7419 23.0563C21.7419 22.2244 22.0852 21.4267 22.6962 20.8385C23.3072 20.2503 24.136 19.9198 25.0001 19.9198C25.8642 19.9198 26.6929 20.2503 27.3039 20.8385C27.915 21.4267 28.2582 22.2244 28.2582 23.0563C28.2596 23.5602 28.1333 24.0568 27.8902 24.5031C27.6471 24.9493 27.2946 25.3318 26.8633 25.6173C27.561 25.7649 28.1911 26.1241 28.661 26.642C29.1309 27.16 29.4158 27.8094 29.4738 28.4948C29.4738 30.2501 27.5109 31.6217 25.0001 31.6217ZM25.0001 26.8259C23.4158 26.8259 22.011 27.6124 22.011 28.5044C22.011 29.3964 23.4059 30.1926 25.0001 30.1926C26.5943 30.1926 27.9892 29.406 27.9892 28.5044C27.9892 27.6028 26.5843 26.8163 25.0001 26.8163V26.8259ZM25.0001 21.4065C24.6537 21.4084 24.3156 21.509 24.0286 21.6957C23.7415 21.8823 23.5183 22.1466 23.3871 22.4553C23.2559 22.7639 23.2226 23.103 23.2913 23.4298C23.3601 23.7567 23.5279 24.0566 23.7736 24.2917C24.0192 24.5268 24.3317 24.6867 24.6716 24.751C25.0115 24.8154 25.3636 24.7814 25.6834 24.6534C26.0033 24.5253 26.2766 24.3089 26.4688 24.0315C26.6611 23.7541 26.7637 23.4281 26.7637 23.0947C26.765 22.8714 26.7203 22.65 26.6321 22.4435C26.544 22.2369 26.4141 22.0493 26.2501 21.8913C26.086 21.7334 25.8911 21.6084 25.6765 21.5236C25.462 21.4387 25.232 21.3957 25.0001 21.3969V21.4065Z" fill="#FF6F1E"/>
</g>
<defs>
<clipPath id="clip0_27158_134496">
<rect width="22" height="22" fill="white" transform="translate(14 14.7886)"/>
</clipPath>
</defs>
</svg>
