<svg width="19" height="18" viewBox="0 0 19 18" fill="none" xmlns="http://www.w3.org/2000/svg">
<path d="M16.5425 7.8973L15.5 6.8398C15.4274 6.76858 15.3699 6.68331 15.3312 6.58919C15.2926 6.49507 15.2734 6.39405 15.275 6.2923V4.7923C15.2741 4.58681 15.2325 4.38353 15.1527 4.19414C15.0729 4.00476 14.9565 3.833 14.8102 3.68874C14.6638 3.54448 14.4904 3.43055 14.2999 3.35351C14.1094 3.27647 13.9055 3.23783 13.7 3.2398H12.2C12.0983 3.24141 11.9973 3.22228 11.9032 3.1836C11.809 3.14492 11.7238 3.08749 11.6525 3.0148L10.6025 1.9573C10.31 1.66511 9.9135 1.50098 9.50005 1.50098C9.0866 1.50098 8.69006 1.66511 8.39755 1.9573L7.34005 2.9998C7.26883 3.07249 7.18356 3.12992 7.08943 3.1686C6.99531 3.20728 6.8943 3.22641 6.79255 3.2248H5.29255C5.08705 3.22578 4.88377 3.26735 4.69438 3.34713C4.505 3.4269 4.33324 3.54331 4.18898 3.68966C4.04472 3.83602 3.9308 4.00943 3.85375 4.19994C3.77671 4.39046 3.73807 4.59431 3.74005 4.7998V6.2998C3.74165 6.40155 3.72253 6.50257 3.68385 6.59669C3.64516 6.69081 3.58773 6.77608 3.51505 6.8473L2.45755 7.8973C2.16535 8.18981 2.00122 8.58635 2.00122 8.9998C2.00122 9.41325 2.16535 9.80979 2.45755 10.1023L3.50005 11.1598C3.57273 11.231 3.63016 11.3163 3.66885 11.4104C3.70753 11.5045 3.72665 11.6056 3.72505 11.7073V13.2073C3.72603 13.4128 3.7676 13.6161 3.84737 13.8055C3.92715 13.9949 4.04355 14.1666 4.18991 14.3109C4.33626 14.4551 4.50967 14.5691 4.70019 14.6461C4.8907 14.7231 5.09456 14.7618 5.30005 14.7598H6.80005C6.9018 14.7582 7.00281 14.7773 7.09693 14.816C7.19106 14.8547 7.27633 14.9121 7.34755 14.9848L8.40505 16.0423C8.69756 16.3345 9.0941 16.4986 9.50755 16.4986C9.921 16.4986 10.3175 16.3345 10.61 16.0423L11.66 14.9998C11.7313 14.9271 11.8165 14.8697 11.9107 14.831C12.0048 14.7923 12.1058 14.7732 12.2075 14.7748H13.7075C14.1213 14.7748 14.5181 14.6104 14.8106 14.3179C15.1032 14.0253 15.2675 13.6285 15.2675 13.2148V11.7148C15.2659 11.6131 15.2851 11.512 15.3237 11.4179C15.3624 11.3238 15.4199 11.2385 15.4925 11.1673L16.55 10.1098C16.6954 9.96434 16.8105 9.79157 16.8888 9.60146C16.9671 9.41134 17.0071 9.20761 17.0064 9.00199C17.0057 8.79638 16.9644 8.59293 16.8847 8.40334C16.8051 8.21376 16.6888 8.04178 16.5425 7.8973V7.8973ZM12.635 7.6498L8.95255 11.2498C8.90061 11.3024 8.8387 11.3441 8.77044 11.3724C8.70218 11.4007 8.62895 11.4152 8.55505 11.4148C8.48068 11.4138 8.40725 11.398 8.33902 11.3684C8.27079 11.3388 8.20911 11.2959 8.15755 11.2423L6.38005 9.4423C6.32538 9.39026 6.28175 9.32775 6.25175 9.25849C6.22175 9.18923 6.20599 9.11464 6.20542 9.03916C6.20485 8.96369 6.21947 8.88887 6.24842 8.81916C6.27737 8.74946 6.32005 8.68629 6.37393 8.63342C6.4278 8.58056 6.49176 8.53908 6.562 8.51145C6.63224 8.48382 6.70732 8.47061 6.78277 8.4726C6.85822 8.4746 6.9325 8.49176 7.00118 8.52306C7.06986 8.55436 7.13154 8.59917 7.18255 8.6548L8.56255 10.0573L11.8475 6.8473C11.953 6.74197 12.096 6.6828 12.245 6.6828C12.3941 6.6828 12.5371 6.74197 12.6425 6.8473C12.6954 6.90016 12.7371 6.963 12.7653 7.03216C12.7936 7.10132 12.8078 7.17542 12.8071 7.25013C12.8064 7.32483 12.7908 7.39865 12.7613 7.46728C12.7317 7.5359 12.6888 7.59795 12.635 7.6498Z" fill="#1B84FF"/>
</svg>
