<svg width="18" height="18" viewBox="0 0 18 18" fill="none" xmlns="http://www.w3.org/2000/svg">
<g clip-path="url(#clip0_27158_192095)">
<path d="M4.91706 16.2537C4.23412 15.8956 3.6106 15.4451 3.05701 14.9231V12.5281L5.50945 10.356V12.5226L15.3593 3.79736C15.8978 4.44368 16.3333 5.17376 16.6529 5.96193L4.91706 16.2537Z" fill="#FF4B19"/>
<path d="M10.0837 14.1035L17.163 7.87563C17.2142 8.24336 17.25 8.61595 17.25 8.99752C17.25 9.81945 17.1234 10.6118 16.8946 11.3608L10.2456 17.1017C9.79511 17.1751 9.33563 17.2226 8.86389 17.2226C8.44392 17.2226 8.03457 17.1825 7.63123 17.124V0.871077C8.03457 0.812603 8.44392 0.772461 8.86389 0.772461C9.27929 0.772461 9.68438 0.811908 10.0837 0.869118V14.1035Z" fill="#00D2FF"/>
<path d="M7.63128 8.15748L14.0172 2.51776C13.3415 1.99996 12.5831 1.58469 11.7642 1.28809L0.75 11.0433C0.9624 11.8573 1.30154 12.6342 1.75547 13.3467L7.63128 8.15748Z" fill="#556991"/>
<path d="M3.05701 12.1972V12.7774L5.50945 10.6052V1.46143C4.59447 1.85381 3.76689 2.40258 3.05701 3.07185V12.1972Z" fill="#FF4B19"/>
</g>
<defs>
<clipPath id="clip0_27158_192095">
<rect width="18" height="18" fill="white"/>
</clipPath>
</defs>
</svg>
