<svg width="40" height="40" viewBox="0 0 40 40" fill="none" xmlns="http://www.w3.org/2000/svg">
<rect x="0.5" y="0.5" width="39" height="39" rx="19.5" fill="#F9F9F9"/>
<rect x="0.5" y="0.5" width="39" height="39" rx="19.5" stroke="#F1F1F4"/>
<g clip-path="url(#clip0_27158_267884)">
<path d="M28.4776 24.4366H21.0453C20.9254 24.4366 20.8092 24.4769 20.7152 24.552L15.1765 28.9556C15.0334 29.0692 15.1139 29.2982 15.2973 29.2982H28.5626C29.8739 29.2982 31.0529 28.1211 30.9607 26.7051C30.8767 25.4134 29.7764 24.4366 28.4776 24.4366Z" fill="#00C9DB"/>
<path d="M22.4649 19.8398C22.4649 19.8336 22.464 19.8273 22.4631 19.8201C22.4219 19.1564 22.1097 18.5115 21.5426 18.0687L12.9198 11.2134C11.8669 10.3904 10.3436 10.5756 9.51711 11.6257C8.6906 12.6767 8.87486 14.1947 9.92679 15.0176L16.1784 19.9874L9.92679 24.9572C8.87486 25.7792 8.6906 27.2981 9.51711 28.3482C10.3436 29.3984 11.8669 29.5835 12.9198 28.7606L21.5435 21.9043C22.1106 21.4615 22.4228 20.8166 22.464 20.1529C22.4649 20.1466 22.4649 20.1404 22.4658 20.1332C22.4684 20.084 22.4693 20.0357 22.4693 19.9865C22.4693 19.9382 22.4675 19.889 22.4649 19.8398Z" fill="#0D55FF"/>
<path d="M30.9999 26.867C30.9999 28.2096 29.9095 29.2973 28.5624 29.2973C27.2171 29.2973 26.1267 28.2087 26.1267 26.867C26.1267 25.5252 27.2171 24.4366 28.5624 24.4366C29.9095 24.4366 30.9999 25.5252 30.9999 26.867Z" fill="#7000F2"/>
</g>
<defs>
<clipPath id="clip0_27158_267884">
<rect width="22" height="18.5983" fill="white" transform="translate(9 10.7)"/>
</clipPath>
</defs>
</svg>
