<svg width="180" height="181" viewBox="0 0 180 181" fill="none" xmlns="http://www.w3.org/2000/svg">
<path d="M49.2291 102.918C44.7742 99.3965 40.53 95.5135 37.4899 90.7275C34.4497 85.9415 32.6437 80.1923 33.4564 74.5635C34.2691 68.9647 37.9715 63.6068 43.2993 61.7406C46.9114 60.4763 51.0653 60.7774 54.4366 58.9111C57.9282 56.9847 59.8547 53.1017 61.1189 49.3391C62.3831 45.5464 63.1959 41.543 65.3631 38.2018C67.5304 34.8607 71.5638 32.272 75.4167 33.3256C78.186 34.0781 80.2027 36.456 82.7914 37.6901C87.5774 39.9778 93.2062 37.9911 98.5039 38.262C103.501 38.5028 109.009 41.8741 108.919 46.8709C108.889 50.0615 106.631 52.7104 105.367 55.6301C104.103 58.5499 104.464 62.8844 107.504 63.7573C109.882 64.4496 112.14 62.5232 114.096 60.988C119.785 56.4729 127.1 54.095 134.354 54.396C141.608 54.697 148.712 57.7071 153.979 62.7038C156.869 65.443 159.337 69.055 159.337 73.0283C159.337 76.9715 156.99 80.5234 154.732 83.7442C149.826 90.7877 144.167 98.343 135.829 100.36C131.464 101.413 126.738 100.781 122.524 102.346C113.855 105.537 109.942 116.795 101.032 119.263C97.0892 120.347 92.9353 119.474 88.9319 118.571C80.4435 116.674 71.925 114.778 63.4366 112.912C60.0654 112.159 56.664 111.407 53.684 109.631C50.7342 107.855 48.2659 104.905 48.0251 101.473" fill="#F4F6F9"/>
<path d="M146.604 70.7406L146.453 69.958C148.41 65.9546 148.741 61.0783 147.326 56.8642C147.176 56.3826 146.574 55.5398 145.791 54.697C145.821 54.6669 145.821 54.6669 145.851 54.6368C146.152 55.1485 146.604 55.5699 147.146 55.7806C147.898 56.0515 148.831 55.8408 149.283 55.1786C149.494 54.8475 149.584 54.4261 149.644 54.0348C149.855 52.1986 149.313 50.3324 148.41 48.707C147.507 47.0815 146.303 45.6668 145.099 44.252C144.798 43.8908 144.467 43.5296 144.015 43.4092C143.714 43.3189 143.383 43.4092 143.112 43.5597C142.902 43.349 142.661 43.1684 142.39 43.048C141.758 42.7169 140.885 42.747 140.403 43.2888C140.132 43.5898 140.102 44.0413 140.223 44.4025C139.952 44.1316 139.651 43.8607 139.35 43.65C139.019 43.4092 138.657 43.1985 138.266 43.1383C137.483 43.0179 136.671 43.5898 136.37 44.3123C136.129 44.9444 136.189 45.6367 136.4 46.2688C132.667 43.7705 129.115 46.4795 127.821 50.6033C127.008 53.1919 127.189 55.9913 127.52 58.7004C127.851 61.4094 128.303 64.1185 128.002 66.8275L127.249 66.4964C123.426 67.0082 118.701 81.0652 115.45 83.1722C112.199 85.3094 109.881 89.4633 110.995 93.4064C111.326 94.6406 111.988 95.8446 111.868 97.1088C111.717 98.5837 110.543 99.6072 109.64 100.721C108.557 102.075 107.834 103.731 107.503 105.477C106.389 103.611 105.607 101.443 104.674 99.4266C101.483 92.7442 95.6134 87.5067 88.901 85.2793L88.7805 85.1288C86.9745 80.0117 81.6768 65.2322 81.6768 65.2322C85.0782 63.3961 91.9411 59.5733 91.9411 59.5733C86.2822 55.3592 80.0513 50.4227 73.67 45.6367C71.563 44.0413 68.9743 42.8072 66.3255 42.7771L58.9809 45.9678L58.7702 58.3994C56.5427 57.8274 53.9541 58.8208 52.7802 60.8074C51.4858 63.0048 52.0577 66.1352 54.0444 67.7306C55.3086 68.7239 57.0544 69.0249 58.6197 68.6938V68.8443C57.5962 75.7073 56.5427 81.4565 55.2484 87.5067L54.3153 86.9348C33.7565 99.3062 19.85 122.995 20.5423 147.076C20.6627 151.441 22.1376 155.956 25.4186 158.815C29.5123 162.397 35.5926 162.788 40.8603 161.524C43.2382 160.952 45.5861 160.079 48.0242 160.14C50.3119 160.2 52.5092 161.043 54.7668 161.314C57.0544 161.584 59.6732 161.013 60.817 159.026L61.419 158.695C67.1984 157.039 73.0379 155.384 78.1851 152.313C83.3323 149.243 87.8174 144.547 89.2923 138.738C89.4127 138.317 89.202 137.685 88.901 137.594C89.7739 137.323 90.3759 136.39 90.2254 135.487C90.2254 135.487 100.761 129.979 107.082 134.494C113.403 139.009 128.453 144.427 137.363 134.434C141.216 130.099 144.256 124.832 144.798 119.052C145.37 112.942 143.323 106.741 144.226 100.661C144.738 97.1389 146.213 93.8279 147.597 90.5168C148.982 87.2057 150.276 83.8344 150.427 80.2524C150.637 76.7307 149.433 72.938 146.604 70.7406Z" fill="white"/>
<path d="M119.334 19.6899C119.093 19.1782 119.876 18.6966 120.117 19.2384C121.983 23.3622 123.819 27.4559 125.685 31.5797C125.926 32.0914 125.144 32.573 124.903 32.0312C123.036 27.9074 121.17 23.8137 119.334 19.6899ZM118.582 31.8205C120.297 33.2955 121.983 34.7704 123.699 36.2453C124.15 36.6366 124.782 35.9744 124.331 35.6132C122.615 34.1383 120.929 32.6633 119.214 31.1884C118.792 30.8272 118.16 31.4593 118.582 31.8205ZM133.09 21.1047C133.09 24.0545 133.09 27.0044 133.09 29.9543C133.09 30.5262 133.993 30.5262 133.993 29.9543C133.993 27.0044 133.993 24.0545 133.993 21.1047C133.993 20.5327 133.09 20.5327 133.09 21.1047Z" fill="black"/>
<path d="M66.6006 135.879C72.8314 135.216 78.7914 132.297 83.1259 127.782C83.6075 127.3 84.059 126.758 84.6008 126.337C82.554 121.43 80.5372 116.494 78.4904 111.587C77.9185 110.173 77.1358 108.607 75.6308 108.276C74.6977 108.066 73.7345 108.457 72.8616 108.818C69.3398 110.263 65.8481 111.738 62.3263 113.183C60.9718 113.755 59.4668 114.477 59.1056 115.892C58.8648 116.855 59.2259 117.848 59.5871 118.781C61.8447 124.531 64.1624 130.22 66.6006 135.879Z" fill="#9ED5F0"/>
<path d="M76.5625 112.22C76.5625 111.979 76.5023 111.738 76.3819 111.497C76.3217 111.106 76.111 110.715 75.7197 110.534C75.0575 110.203 74.3049 110.474 73.9136 111.076C73.8233 111.196 73.7631 111.347 73.7029 111.497C73.5223 111.858 73.4923 112.31 73.6428 112.671C73.7632 112.972 73.9738 113.273 74.2748 113.424C74.4855 113.514 74.6963 113.574 74.907 113.544C75.0876 113.574 75.2982 113.574 75.4789 113.544C76.0508 113.424 76.5023 112.852 76.5625 112.22ZM74.9973 111.798C75.0274 111.798 75.0274 111.798 74.9973 111.798C74.9973 111.798 75.0274 111.828 74.9973 111.798ZM78.0374 116.885C78.0073 117.096 77.8869 117.307 77.7364 117.457C77.5558 117.638 77.315 117.728 77.0441 117.758C76.8334 117.758 76.5926 117.698 76.412 117.608C76.3217 117.547 76.2314 117.487 76.1712 117.397C76.0809 117.276 76.0207 117.186 75.9605 117.036C75.8702 116.825 75.8702 116.584 75.9605 116.373C76.0508 116.133 76.2013 115.922 76.4421 115.771C76.6528 115.621 76.9538 115.591 77.1946 115.651C77.2247 115.651 77.2548 115.681 77.2849 115.681C77.315 115.681 77.3451 115.681 77.3752 115.681C77.616 115.741 77.8267 115.892 77.9772 116.103C78.0374 116.373 78.0675 116.644 78.0374 116.885Z" fill="black"/>
<path d="M55.37 141.567C55.4302 140.996 56.3332 140.996 56.273 141.567C56.1526 142.862 56.1527 144.186 56.243 145.481C56.6042 150.056 58.3801 154.541 61.2698 158.093C61.631 158.544 60.9988 159.176 60.6376 158.725C59.7647 157.671 59.0122 156.527 58.3199 155.354C56.0022 151.17 54.9486 146.323 55.37 141.567ZM69.4572 54.4561C69.6378 54.2454 69.6077 54.0046 69.4572 53.824C68.9153 53.1317 68.3434 52.4394 67.8016 51.7471C67.6511 51.5665 67.32 51.5665 67.1695 51.7471C66.9889 51.9578 67.019 52.1986 67.1695 52.3792C67.7114 53.0715 68.2833 53.7638 68.8251 54.4561C68.9756 54.6367 69.3066 54.6367 69.4572 54.4561ZM70.1495 50.4226C70.9321 51.2053 71.5642 52.1384 72.0157 53.1317C72.106 53.3725 72.0759 53.6133 71.8652 53.7638C71.6846 53.8842 71.3535 53.824 71.2331 53.6133C71.0224 53.1317 70.7816 52.6802 70.4806 52.2287C70.3301 51.9879 70.2097 51.8374 70.0592 51.6568C69.8786 51.4461 69.6979 51.2655 69.5173 51.0849C69.3367 50.9043 69.3668 50.6333 69.5173 50.4527C69.6678 50.242 69.999 50.242 70.1495 50.4226ZM64.8819 49.64C64.8819 49.64 64.912 49.6099 64.8819 49.64V49.64ZM65.1829 48.6467C65.3635 48.8273 65.3334 49.1283 65.1829 49.2788C65.1227 49.339 65.0624 49.4293 65.0022 49.4895C64.9721 49.5196 64.9421 49.5497 64.912 49.5798C64.912 49.6099 64.8819 49.6099 64.8819 49.64C64.7615 49.7905 64.6712 49.941 64.5809 50.0915C64.5207 50.1818 64.4906 50.2421 64.4605 50.3324C64.4304 50.3625 64.4303 50.4226 64.4002 50.4527C64.4002 50.4828 64.3702 50.5129 64.3702 50.5431C64.3702 50.5129 64.3702 50.5431 64.3702 50.5431C64.3702 50.5732 64.34 50.5731 64.34 50.6032C64.3099 50.6333 64.31 50.6935 64.31 50.7236C64.2799 50.8139 64.2498 50.9043 64.2197 50.9946C64.1595 51.2354 63.9186 51.3558 63.6778 51.2956C63.437 51.2354 63.2865 50.9644 63.3768 50.7537C63.6176 49.941 64.0391 49.2186 64.611 48.6166C64.7013 48.4661 65.0023 48.4962 65.1829 48.6467ZM67.6812 47.4728C67.7414 47.4427 67.7715 47.3825 67.8016 47.3524H67.8317C67.922 47.3223 68.0123 47.3223 68.1026 47.2922C68.1628 47.2922 68.2531 47.2621 68.3133 47.2621C68.3434 47.2621 68.3736 47.2621 68.3736 47.2621C68.4338 47.2621 68.4639 47.2621 68.5241 47.232C68.8853 47.2019 69.2464 47.1718 69.6077 47.1718C69.8485 47.1718 70.0592 46.9611 70.0592 46.7203C70.0592 46.4795 69.8485 46.2688 69.6077 46.2688C69.126 46.2688 68.6144 46.3289 68.1328 46.3891C67.922 46.4192 67.6813 46.4494 67.4706 46.5096C67.32 46.5397 67.1695 46.63 67.0792 46.7504C66.9287 46.931 66.9287 47.1417 67.019 47.3223C67.1695 47.533 67.4705 47.5932 67.6812 47.4728ZM67.8919 47.0815C67.8919 47.0514 67.8919 47.0815 67.8919 47.0815C67.8919 47.0514 67.8919 47.0514 67.8919 47.0815ZM75.5375 71.8543C75.2365 72.7875 74.9054 73.7507 74.2733 74.5333C73.6712 75.3159 72.7382 75.9179 71.7448 75.8878C70.2398 75.8577 69.1261 74.4731 68.6444 73.0584C68.223 71.8242 68.1327 70.4697 67.7414 69.2055C67.5006 68.754 67.3501 68.2121 67.7113 67.8509C67.9521 67.6101 68.3735 67.6101 68.7046 67.7305C69.0357 67.8509 69.2765 68.1219 69.5173 68.3928C70.4505 69.356 71.5943 70.3794 72.9187 70.1386C73.7314 69.9881 74.6345 69.356 75.3268 69.8376C75.8987 70.259 75.7482 71.162 75.5375 71.8543ZM77.1328 97.0486C76.9823 98.0118 77.0425 99.0352 77.9455 99.6071C78.6378 100.059 79.4807 100.239 80.2031 100.691C80.9556 101.142 81.4372 101.835 81.4974 102.708C81.5576 103.58 81.2266 104.453 81.0159 105.296C80.8051 106.169 80.8353 106.952 81.6179 107.494C82.4306 108.065 83.2132 108.487 83.7249 109.36C84.6881 111.015 84.5075 113.122 84.2667 114.958C84.2366 115.199 84.0861 115.41 83.8152 115.41C83.6045 115.41 83.3335 115.199 83.3636 114.958C83.6045 113.122 83.9055 110.684 82.4908 109.239C81.8586 108.577 80.8954 108.306 80.3837 107.524C79.9021 106.831 79.9322 105.958 80.1128 105.176C80.2934 104.393 80.6245 103.611 80.5944 102.798C80.5643 102.015 79.9924 101.564 79.3302 101.263C78.6078 100.932 77.8553 100.721 77.2231 100.209C76.4706 99.6071 76.1696 98.7041 76.1696 97.771C76.1997 96.6874 76.6512 95.6037 76.4706 94.5201C76.3502 93.8278 75.5977 92.8345 74.8151 93.3161C74.3335 93.6171 73.882 92.8345 74.3636 92.5335C75.2967 91.9616 76.4706 92.5034 77.0125 93.3462C77.7349 94.4298 77.3134 95.8446 77.1328 97.0486ZM78.668 97.3496C78.7884 97.6506 79.0292 97.8914 79.3001 98.0419C79.571 98.1924 79.9021 98.2526 80.2031 98.1924C80.5041 98.1322 80.7449 97.9516 80.9255 97.6807C81.2566 97.2292 81.2265 96.5971 80.9556 96.1155C80.8352 95.8747 80.6245 95.664 80.4138 95.5436C80.1128 95.3931 79.7817 95.3629 79.4506 95.4231C79.1195 95.4833 78.8185 95.6639 78.6078 95.9047C78.4874 96.0251 78.3971 96.1456 78.3068 96.2961C78.2165 96.4767 78.1563 96.6573 78.1563 96.868C78.1563 96.9884 78.2165 97.1088 78.2767 97.1991C78.367 97.2894 78.4874 97.3496 78.6078 97.3195C78.6379 97.3496 78.6379 97.3496 78.668 97.3496ZM79.5108 97.0486L79.5409 97.0787L79.5108 97.0486ZM79.9623 96.3262C79.9322 96.3262 79.9623 96.3262 79.9623 96.3262C79.9322 96.3262 79.9623 96.3262 79.9623 96.3262ZM79.4807 96.3864C79.5108 96.3864 79.5108 96.3563 79.5409 96.3563C79.571 96.3262 79.6312 96.3262 79.6914 96.3262H79.7215C79.7215 96.3262 79.7215 96.3262 79.7516 96.3262C79.7817 96.3262 79.8419 96.3262 79.872 96.3262C79.9021 96.3262 79.9021 96.3262 79.9322 96.3262C79.9623 96.3262 79.9623 96.3262 79.9924 96.3563C80.0225 96.3864 80.0526 96.3864 80.0827 96.4165L80.1128 96.4466L80.1429 96.4767C80.173 96.5068 80.173 96.5369 80.2031 96.567C80.2031 96.567 80.2332 96.5971 80.2332 96.6272C80.2332 96.6573 80.2633 96.6874 80.2633 96.7476V96.7777C80.2633 96.8078 80.2633 96.868 80.2633 96.8981C80.2633 96.9282 80.2633 96.9282 80.2633 96.9583V96.9884C80.2633 97.0185 80.2633 97.0185 80.2633 97.0486C80.2633 97.0787 80.2633 97.0787 80.2332 97.1088C80.2332 97.1389 80.2031 97.1389 80.2031 97.169C80.2031 97.169 80.2031 97.169 80.173 97.1991C80.173 97.1991 80.173 97.2292 80.1429 97.2292V97.1991C80.1429 97.2292 80.1128 97.2292 80.1128 97.2292C80.1128 97.2292 80.0827 97.2292 80.0827 97.2593C80.0827 97.2593 80.0526 97.2593 80.0526 97.2894C80.0225 97.2894 80.0225 97.2894 79.9924 97.3195H79.9623H79.9322C79.9021 97.3195 79.8419 97.2894 79.8118 97.2894C79.7817 97.2894 79.7817 97.2593 79.7516 97.2593C79.7215 97.2593 79.7215 97.2292 79.6914 97.2292C79.6914 97.2292 79.6914 97.2292 79.6613 97.2292L79.6312 97.1991C79.6011 97.169 79.6011 97.169 79.571 97.1389C79.571 97.1389 79.571 97.1389 79.5409 97.1088L79.5108 97.0787C79.5108 97.0486 79.4807 97.0486 79.4807 97.0185C79.4807 96.9884 79.4506 96.9282 79.4506 96.9282V96.8981C79.4506 96.868 79.4506 96.8379 79.4807 96.8078C79.5108 96.6874 79.4807 96.567 79.4205 96.4466C79.4506 96.4165 79.4807 96.3864 79.4807 96.3864ZM80.173 97.1991C80.173 97.169 80.2031 97.169 80.2031 97.169C80.2031 97.169 80.2031 97.169 80.173 97.1991C80.2031 97.169 80.173 97.169 80.173 97.1991ZM83.1229 106.35C83.1229 106.35 83.1229 106.35 83.153 106.38C83.153 106.35 83.153 106.35 83.1229 106.35C83.153 106.35 83.153 106.35 83.1229 106.35ZM83.153 105.718C83.153 105.718 83.1229 105.718 83.1229 105.748C83.1229 105.748 83.153 105.748 83.153 105.718ZM83.0025 105.928C83.0025 105.898 83.0025 105.898 83.0326 105.898C83.0025 105.868 83.0025 105.898 83.0025 105.928ZM82.9121 107.253C83.183 107.373 83.5142 107.433 83.8152 107.343C84.0861 107.283 84.3269 107.102 84.5075 106.861C84.8085 106.44 84.8386 105.868 84.6279 105.417C84.4172 104.935 83.8754 104.664 83.3938 104.724C83.0627 104.754 82.7917 104.875 82.5509 105.085C82.3402 105.266 82.1897 105.537 82.1596 105.808C82.1596 105.838 82.1596 105.868 82.1596 105.898V105.928C82.0392 106.5 82.4004 107.042 82.9121 107.253ZM83.6948 105.687C83.6346 105.657 83.6647 105.657 83.6948 105.687V105.687ZM83.6346 105.657C83.5744 105.627 83.6045 105.627 83.6346 105.657V105.657ZM83.0025 105.928C83.0025 105.898 83.0326 105.868 83.0326 105.898L83.0626 105.868C83.0927 105.838 83.1229 105.808 83.153 105.778C83.153 105.778 83.1229 105.778 83.1229 105.808C83.1229 105.808 83.153 105.808 83.153 105.778C83.1831 105.748 83.2132 105.748 83.1831 105.748C83.2132 105.718 83.2433 105.718 83.3035 105.687C83.3336 105.687 83.3335 105.687 83.3636 105.657C83.3937 105.657 83.3938 105.657 83.4239 105.657C83.4841 105.657 83.5443 105.657 83.5744 105.657H83.6045H83.6346C83.6647 105.657 83.6647 105.687 83.6948 105.687L83.7249 105.718C83.6948 105.687 83.7249 105.718 83.7249 105.718L83.755 105.748C83.7249 105.718 83.7249 105.718 83.7249 105.718C83.7249 105.748 83.755 105.748 83.755 105.778C83.755 105.808 83.7851 105.838 83.7851 105.868C83.7851 105.898 83.7851 105.898 83.7851 105.928C83.7851 105.988 83.7851 106.049 83.7851 106.079C83.7851 106.139 83.755 106.169 83.755 106.229C83.755 106.259 83.7249 106.289 83.7249 106.289C83.7249 106.32 83.6948 106.32 83.6948 106.32C83.6647 106.35 83.6647 106.38 83.6346 106.38C83.6346 106.38 83.6647 106.38 83.6647 106.35C83.6647 106.35 83.6346 106.35 83.6346 106.38C83.6045 106.41 83.5744 106.41 83.6045 106.38C83.6045 106.38 83.5744 106.38 83.5744 106.41C83.5443 106.41 83.5142 106.41 83.5142 106.44C83.4841 106.44 83.454 106.44 83.3938 106.44C83.3637 106.44 83.3336 106.44 83.3035 106.41H83.2734C83.2433 106.38 83.1831 106.35 83.153 106.35C83.153 106.35 83.153 106.35 83.1831 106.38L83.153 106.35C83.1229 106.35 83.1229 106.32 83.1229 106.32C83.0928 106.29 83.0627 106.259 83.0326 106.229C83.0326 106.199 83.0025 106.199 83.0025 106.169C83.0025 106.169 83.0025 106.139 82.9724 106.139C82.9724 106.109 82.9724 106.079 82.9423 106.049C82.9423 106.019 82.9423 105.988 82.9423 105.958C82.9724 105.958 82.9724 105.958 83.0025 105.928C83.0025 105.928 82.9724 105.928 83.0025 105.928C83.0025 105.928 82.9724 105.928 83.0025 105.928ZM83.6346 106.44C83.6346 106.44 83.6647 106.44 83.6346 106.44C83.6647 106.41 83.6647 106.41 83.6346 106.44C83.6647 106.44 83.6346 106.44 83.6346 106.44ZM83.755 105.748C83.7249 105.718 83.755 105.748 83.755 105.748C83.7249 105.718 83.7249 105.718 83.755 105.748ZM90.0761 134.042C90.0159 134.012 89.9858 133.952 89.9256 133.922C90.5577 133.199 90.8889 132.176 90.7083 131.213C90.4976 130.129 89.5644 129.286 88.4808 129.076C88.842 128.353 89.1129 127.571 88.9323 126.788C88.7517 125.945 88.0594 125.343 87.2467 125.163C85.1998 124.711 83.8453 126.397 82.5509 127.691C79.7516 130.521 76.3201 132.688 72.5877 134.012C70.5709 134.735 68.4939 135.186 66.3869 135.397C65.6043 133.38 64.8518 131.333 64.0692 129.316C63.9488 129.046 63.5574 128.835 63.3166 129.106C61.932 130.852 62.5641 133.079 62.9855 135.066C63.1962 136.059 63.4371 137.143 63.2565 138.196C63.0458 139.37 62.233 140.243 61.1494 140.725C59.5842 141.417 57.8082 141.176 56.1828 140.965C56.0022 140.935 55.8517 141.026 55.7915 141.176C53.7747 138.106 51.0055 135.487 47.574 134.072C46.099 133.47 44.4736 133.109 42.8782 133.049C43.0288 131.725 42.9385 130.37 42.7579 129.076C42.4268 126.638 41.7947 124.169 42.0054 121.671C42.186 119.745 42.9686 117.728 44.594 116.584C45.0757 116.253 44.6241 115.47 44.1425 115.801C41.1024 117.878 40.8013 121.852 41.2227 125.193C41.5538 127.631 42.2762 130.46 41.9752 133.049C40.1391 133.109 38.303 133.531 36.6474 134.404C35.8046 134.825 34.9919 135.367 34.4501 136.149C33.9684 136.842 33.7879 137.775 34.3598 138.497C34.9016 139.19 35.925 139.43 36.7377 139.491C37.5505 139.521 38.3632 139.31 39.0856 138.979C40.711 138.226 41.8548 136.751 42.4267 135.066C42.5471 134.705 42.6375 134.343 42.6977 133.982C43.8716 134.012 45.0756 134.223 46.1893 134.554C49.9218 135.728 52.962 138.497 55.039 141.718C55.2497 142.049 55.671 141.959 55.8215 141.718C55.8817 141.808 56.0021 141.868 56.1225 141.899C57.6577 142.079 59.2831 142.26 60.7881 141.808C62.0223 141.447 63.1661 140.664 63.738 139.46C64.7012 137.383 63.7681 135.096 63.3768 133.019C63.2263 132.206 63.1661 131.303 63.4671 130.49C64.1595 132.327 64.8518 134.163 65.5742 135.999C65.6344 136.179 65.815 136.36 65.9956 136.33C69.7281 135.999 73.3402 134.915 76.6211 133.139C78.2466 132.266 79.8118 131.213 81.2265 130.009C81.949 129.407 82.6112 128.775 83.2734 128.112C83.9055 127.45 84.5376 126.698 85.3503 126.246C86.0426 125.885 87.036 125.765 87.638 126.367C88.1497 126.878 88.0293 127.601 87.7584 128.263C87.6681 128.323 87.6078 128.383 87.5777 128.504C87.4874 128.714 87.4273 128.925 87.337 129.106C87.3069 129.136 87.2768 129.196 87.2467 129.226C87.2166 129.256 87.2166 129.317 87.1865 129.377C85.0794 133.711 80.1128 135.728 75.8686 137.414C75.3268 137.624 75.5676 138.497 76.1094 138.287C80.6245 136.511 85.6514 134.404 87.939 129.919C88.7818 129.949 89.5945 130.551 89.745 131.424C89.8053 131.755 89.7751 132.116 89.6547 132.447C89.5042 132.417 89.3236 132.477 89.2333 132.658C88.9323 133.109 88.6012 133.531 88.2701 133.982C88.24 134.012 88.2099 134.042 88.2099 134.072C86.1028 136.721 83.4841 138.949 80.5342 140.604C80.0225 140.875 80.474 141.658 80.9857 141.387C84.0259 139.701 86.6748 137.414 88.842 134.705C89.0527 134.644 89.2634 134.584 89.444 134.765C89.6547 134.975 89.7751 135.397 89.7751 135.668C89.8353 136.36 89.3838 136.962 88.7517 137.173C88.6313 137.173 88.5109 137.203 88.3905 137.293C88.1497 137.444 88.1196 137.684 88.2099 137.865C86.735 140.243 84.658 142.2 82.2199 143.554C81.7082 143.825 82.1597 144.608 82.6714 144.337C85.1697 142.952 87.2768 140.965 88.8119 138.588C88.7818 138.738 88.7517 138.889 88.6915 139.039C88.541 139.581 88.3604 140.093 88.1497 140.634C87.7584 141.658 87.2466 142.621 86.6747 143.554C85.5309 145.45 84.056 147.106 82.4306 148.611C78.7583 151.922 74.2432 154.089 69.6378 155.715C66.8685 156.708 64.0391 157.491 61.2096 158.303C60.9989 158.364 60.9086 158.514 60.9086 158.665C60.728 158.574 60.4871 158.604 60.3366 158.845C59.4336 160.38 57.5674 160.922 55.8818 160.982C53.6242 161.043 51.457 160.17 49.2295 159.869C46.8516 159.538 44.5639 160.109 42.2762 160.742C40.2595 161.283 38.2729 161.705 36.1959 161.795C32.343 161.946 28.2795 161.043 25.3898 158.364C22.47 155.655 21.1456 151.591 20.9349 147.708C20.7242 143.885 21.0252 140.002 21.5971 136.24C22.169 132.447 23.1022 128.684 24.3363 125.042C25.5704 121.4 27.1056 117.878 28.9417 114.477C30.7778 111.076 32.8849 107.795 35.2327 104.724C37.5806 101.654 40.1993 98.7643 43.0288 96.1155C45.8281 93.4967 48.8382 91.0886 52.059 88.9515C52.8416 88.4398 53.6543 87.9281 54.467 87.4164C54.9787 87.1154 54.4971 86.3328 54.0155 86.6338C50.6141 88.6806 47.4235 91.0284 44.4435 93.6171C41.4335 96.2058 38.6642 99.0653 36.1357 102.136C33.6073 105.206 31.3196 108.457 29.3329 111.888C27.3463 115.32 25.6306 118.902 24.246 122.604C22.8613 126.306 21.7777 130.159 21.0553 134.042C20.3328 137.925 19.9716 141.868 20.0017 145.842C20.0318 149.875 20.7844 153.999 23.2828 157.31C25.751 160.591 29.5437 162.277 33.547 162.638C35.5638 162.819 37.6107 162.698 39.5973 162.307C41.9151 161.885 44.1425 160.982 46.4903 160.742C47.7245 160.591 48.9285 160.681 50.1325 160.922C51.3366 161.163 52.5105 161.494 53.7145 161.675C55.5807 162.006 57.5975 161.976 59.3132 161.073C60.0959 160.651 60.728 160.049 61.1795 159.297C61.2096 159.237 61.2096 159.206 61.2397 159.146C61.33 159.176 61.4203 159.176 61.5106 159.146C66.9588 157.581 72.4672 156.016 77.4338 153.247C81.678 150.899 85.5309 147.558 87.9089 143.283C88.5711 142.109 89.1129 140.875 89.5042 139.581C89.6848 139.009 89.8654 138.437 89.6547 137.835C89.6547 137.805 89.6246 137.775 89.6246 137.745C90.3771 137.233 90.8286 136.33 90.6781 135.427C90.6781 134.945 90.4975 134.404 90.0761 134.042ZM40.8013 136.48C39.9284 137.715 38.4234 138.678 36.8882 138.648C36.2561 138.648 35.1123 138.437 34.9317 137.684C34.7812 136.902 35.6541 136.179 36.226 135.788C37.9117 134.674 39.8682 134.103 41.8549 134.012C41.6742 134.885 41.3431 135.698 40.8013 136.48ZM61.2096 63.3659C61.0892 63.5465 60.7882 63.6669 60.5775 63.5164C59.1627 62.4629 57.3266 62.1017 55.6108 62.5532C55.0389 62.7037 54.7981 61.8308 55.37 61.6803C57.2965 61.1686 59.4336 61.5599 61.029 62.7338C61.2397 62.8843 61.33 63.1251 61.2096 63.3659ZM54.768 89.5535C54.4971 89.0418 55.2798 88.5903 55.5507 89.102C56.0925 90.1254 56.7848 91.0284 57.6276 91.8111C60.8784 94.791 65.7548 95.1823 69.4873 92.8345C69.9689 92.5335 70.4204 93.3161 69.9388 93.6171C68.795 94.3395 67.5006 94.8512 66.1461 95.092C63.8584 95.5135 61.4805 95.1823 59.3734 94.0987C57.4169 93.1054 55.7914 91.5101 54.768 89.5535ZM91.2801 87.4164C90.7383 88.3495 90.046 89.2224 89.2634 89.9448C86.464 92.5034 82.3703 93.5569 78.698 92.4733C78.1261 92.3228 78.367 91.4499 78.9389 91.6004C79.9021 91.8713 80.8653 92.0218 81.8586 91.9917C85.3503 91.9014 88.7517 90.005 90.4976 86.9649C90.7685 86.4532 91.551 86.9047 91.2801 87.4164ZM150.879 78.326C150.639 75.9179 149.826 73.5399 148.231 71.6737C147.839 71.2222 147.418 70.8008 146.936 70.4396C146.936 70.4396 146.936 70.4396 146.906 70.4396C147.027 70.2891 146.997 70.1386 146.936 69.9881C148.742 66.1051 149.134 61.6201 147.99 57.4963C147.869 57.105 147.749 56.7137 147.568 56.3525C147.869 56.3826 148.17 56.3826 148.471 56.2923C150.157 55.8709 150.277 53.9143 150.127 52.4996C149.946 50.7237 149.224 49.0681 148.261 47.5932C147.779 46.8708 147.267 46.1483 146.696 45.4861C146.154 44.8239 145.642 44.1015 145.04 43.5296C144.528 43.048 143.866 42.8373 143.204 43.048C143.023 42.8975 142.873 42.7771 142.662 42.6868C141.789 42.2353 140.435 42.2654 139.893 43.2286C139.863 43.2888 139.833 43.349 139.802 43.4393C139.2 42.9577 138.508 42.5965 137.725 42.7169C136.943 42.8373 136.281 43.4393 135.98 44.1617C135.799 44.5831 135.769 45.0045 135.799 45.456C134.776 44.9744 133.662 44.7336 132.458 45.0045C130.441 45.456 128.936 47.1718 128.063 48.9477C126.859 51.416 126.739 54.1852 126.949 56.8642C127.19 59.9345 127.853 63.0047 127.672 66.075C127.642 66.1051 127.612 66.1352 127.582 66.1653C127.491 66.075 127.341 66.0148 127.19 66.0449C126.347 66.1653 125.625 66.7673 125.083 67.3693C124.27 68.2122 123.608 69.1754 123.006 70.1386C121.501 72.5466 120.237 75.1052 118.882 77.6036C118.28 78.7173 117.678 79.8009 116.986 80.8544C116.535 81.5467 115.933 82.3595 115.331 82.7809C112.351 84.8277 110.063 88.3194 110.394 92.082C110.484 93.1355 110.846 94.0686 111.177 95.062C111.508 96.0553 111.718 97.0787 111.207 98.072C110.785 98.8847 110.123 99.5469 109.551 100.239C108.949 100.962 108.438 101.744 108.046 102.587C107.805 103.129 107.595 103.701 107.414 104.273C107.113 103.701 106.842 103.129 106.601 102.557C105.789 100.721 105.036 98.8847 104.043 97.169C103.08 95.5436 101.936 93.9783 100.672 92.5636C98.1431 89.7642 95.0428 87.4164 91.6113 85.8512C90.919 85.52 90.1966 85.2491 89.444 84.9782C89.4139 84.7976 89.2935 84.6471 89.1129 84.5869C88.1196 81.7574 87.0961 78.928 86.0727 76.0985C84.9891 73.0885 83.9055 70.0483 82.8219 67.0382C82.6413 66.5265 82.4606 65.9847 82.2499 65.473C85.26 63.8174 88.2701 62.1619 91.2801 60.4763C91.5811 60.2957 91.8821 60.1452 92.1832 59.9646C92.5143 59.784 92.4541 59.3625 92.1832 59.1819C88.9323 56.7438 85.6814 54.2454 82.4606 51.7772C80.7449 50.4527 79.0592 49.1584 77.3435 47.8641C75.7181 46.63 74.1228 45.2754 72.3468 44.2219C71.1428 43.4995 69.8184 42.9276 68.4338 42.6266C69.1863 42.2654 69.9689 41.7537 70.6913 41.0312C72.5275 39.1951 73.4304 33.2352 69.6678 30.2251C66.5675 38.3222 60.9086 34.4392 54.738 39.5864C49.952 43.5597 52.8115 53.6434 56.4537 57.9478C54.7981 58.2488 53.2931 59.212 52.4202 60.6569C51.0055 63.0649 51.6075 66.4362 53.8048 68.1519C54.8282 68.9647 56.0925 69.356 57.3868 69.356C57.6276 69.356 57.8985 69.3259 58.1393 69.2958C57.447 74.0216 56.6042 78.7474 55.671 83.4431C55.4001 84.7675 55.1292 86.0919 54.8583 87.4465C54.768 87.8077 55.1292 88.0485 55.4002 87.9883C59.5541 89.7341 64.009 90.6974 68.5241 90.8178C73.1295 90.9683 77.765 90.2759 82.1296 88.7709C84.4172 87.9883 86.6446 86.9348 88.7216 85.7006C88.7517 85.7006 88.7517 85.7307 88.7818 85.7307C95.7049 88.0485 101.394 93.4064 104.464 99.9985C105.277 101.744 105.939 103.58 106.872 105.266C106.933 105.356 106.993 105.477 107.053 105.567C106.571 108.276 106.932 111.166 108.287 113.544C109.16 115.079 110.876 116.584 112.742 115.862C114.608 115.169 114.608 112.942 113.826 111.407C112.923 109.601 110.936 108.788 109.551 107.403C108.919 106.801 108.407 106.109 107.956 105.356C108.076 104.815 108.227 104.243 108.407 103.731C108.708 102.918 109.1 102.166 109.611 101.473C110.123 100.721 110.785 100.089 111.327 99.3663C111.869 98.674 112.26 97.8613 112.321 96.9884C112.381 95.9349 111.959 94.9114 111.628 93.9181C111.026 92.1723 111.056 90.3963 111.658 88.6505C112.26 86.9649 113.344 85.4598 114.668 84.316C115.15 83.9247 115.692 83.5936 116.143 83.2023C116.444 82.9314 116.715 82.6003 116.986 82.2692C117.678 81.3962 118.25 80.433 118.792 79.4999C120.147 77.152 121.321 74.744 122.675 72.3961C123.307 71.3125 123.939 70.1988 124.692 69.1754C125.204 68.453 125.836 67.7004 126.558 67.2489C126.859 67.0683 127.04 66.978 127.401 66.9178C127.461 66.9178 127.521 66.8877 127.582 66.8576C127.582 67.0382 127.672 67.1586 127.822 67.2188C128.966 69.6871 130.983 71.764 133.451 72.938C136.22 74.2624 139.471 74.3828 142.361 73.3292C143.776 72.8175 145.07 72.0349 146.214 71.0416L146.244 71.0717C148.14 72.5466 149.254 74.7139 149.736 77.0316C150.277 79.6805 149.916 82.4197 149.164 85.0083C147.538 90.607 144.257 95.694 143.685 101.594C143.083 107.554 145.01 113.484 144.348 119.443C143.776 124.651 141.217 129.527 137.756 133.41C134.144 137.474 129.568 140.574 124.752 143.042C124.15 143.343 123.548 143.644 122.946 143.915C122.434 144.156 122.886 144.939 123.398 144.698C128.394 142.32 133.18 139.37 137.093 135.427C140.856 131.634 143.776 126.878 144.889 121.641C145.491 118.751 145.461 115.831 145.19 112.912C144.92 109.871 144.438 106.831 144.468 103.791C144.498 100.751 145.19 97.8613 146.274 95.0017C147.328 92.2024 148.622 89.4933 149.585 86.6338C150.548 83.9849 151.15 81.1253 150.879 78.326ZM76.2298 89.3729C71.805 90.1555 67.2297 90.1254 62.835 89.2826C60.427 88.8311 58.0791 88.1087 55.8215 87.1756C56.7848 82.6003 57.6577 78.025 58.4102 73.4196C58.651 71.9747 58.8617 70.5299 59.0724 69.1152C59.9453 68.8743 60.7581 68.4229 61.4203 67.7907C61.6009 67.6101 61.6009 67.3392 61.4203 67.1586C61.2397 66.978 60.9688 66.978 60.7881 67.1586C59.1326 68.7539 56.1828 68.9044 54.3466 67.4596C52.5406 66.0148 51.9988 63.1251 53.1727 61.1385C54.3467 59.1518 57.146 58.2187 59.2831 59.1217C59.5239 59.212 59.7647 59.1217 59.8851 58.8809C59.9754 58.6401 59.8852 58.3993 59.6444 58.2789C59.4638 58.1886 59.253 58.1284 59.0724 58.0682L60.0959 57.8274C63.0759 54.7571 61.6009 51.416 61.8417 48.6166C62.2029 44.4627 64.3099 44.1015 66.7481 43.2888C70.5709 43.5296 73.581 46.1484 76.5008 48.3758C79.8118 50.9043 83.0927 53.4327 86.3737 55.9612C87.9389 57.1652 89.5042 58.3391 91.0996 59.5432C88.7818 60.8375 86.4339 62.1318 84.1162 63.4262C83.2131 63.9078 82.3403 64.4194 81.4372 64.9011C81.2867 64.9914 81.1663 65.2322 81.2265 65.4128C81.8587 67.1887 82.4908 68.9346 83.1229 70.7105C84.3269 74.0517 85.531 77.423 86.735 80.7942C87.2467 82.209 87.7283 83.5936 88.24 85.0083C84.5677 87.1455 80.474 88.6204 76.2298 89.3729ZM108.438 107.494C109.07 108.246 109.822 108.848 110.605 109.42C111.989 110.443 113.615 111.678 113.494 113.604C113.434 114.417 112.892 115.049 112.08 115.139C111.207 115.229 110.424 114.778 109.852 114.176C108.648 112.882 108.046 110.895 107.836 109.179C107.745 108.366 107.745 107.554 107.805 106.741C108.016 106.982 108.227 107.253 108.438 107.494ZM144.829 44.6132C145.732 45.6668 146.635 46.7203 147.388 47.8942C148.14 49.0079 148.742 50.212 149.043 51.5364C149.194 52.1685 149.284 52.8307 149.254 53.4929C149.224 54.0648 149.194 54.8173 148.712 55.2087C147.9 55.8709 146.966 55.3892 146.394 54.6668C146.575 54.3056 146.665 53.9143 146.756 53.5531C146.876 52.9812 146.966 52.3491 146.966 51.7772C146.996 50.5731 146.756 49.3691 146.364 48.2253C145.973 47.1417 145.431 46.0882 144.829 45.1249C144.588 44.7336 144.318 44.3423 144.047 43.9811C144.378 44.0413 144.619 44.3423 144.829 44.6132ZM141.037 43.4092C141.759 43.0179 142.542 43.5597 143.023 44.1015C143.625 44.7637 144.107 45.5463 144.528 46.329C144.98 47.1417 145.371 47.9845 145.642 48.8574C145.913 49.7604 146.093 50.6935 146.063 51.6568C146.063 52.1384 146.033 52.62 145.913 53.0715C145.853 53.3123 145.792 53.5531 145.732 53.7939C145.672 53.9745 145.612 54.3357 145.431 54.426C145.16 54.5163 144.829 54.0347 144.739 53.8541C144.468 53.4327 144.257 52.9812 144.047 52.5297C143.956 52.3792 143.896 52.2287 143.836 52.0782C143.716 51.2655 143.595 50.4227 143.384 49.6099C143.023 48.0146 142.421 46.4494 141.458 45.1249C141.157 44.7035 140.826 44.3423 140.465 43.9811C140.645 43.8306 140.976 43.4393 141.037 43.4092ZM137.996 43.5898C138.568 43.5296 139.14 43.9811 139.532 44.3423C139.953 44.7035 140.344 45.1249 140.675 45.6065C142.241 47.7738 142.692 50.4528 143.023 53.0414C143.114 53.6434 143.415 54.6668 142.782 55.0582C142.391 55.299 141.97 55.2086 141.608 54.9377C141.639 54.9377 141.639 54.9076 141.669 54.9076C142.271 54.3959 142.813 53.523 142.632 52.7103C142.481 52.0481 141.879 51.5966 141.277 51.3257C140.555 50.9946 139.833 50.844 139.08 50.7537C138.899 49.1584 138.177 47.7136 137.033 46.63C137.033 46.5698 137.003 46.5096 136.973 46.4494C136.552 45.456 136.612 43.7403 137.996 43.5898ZM128.304 50.8741C128.846 49.0681 129.899 47.232 131.615 46.2989C132.368 45.8775 133.24 45.6969 134.083 45.8173C134.685 45.9076 135.227 46.1182 135.739 46.3891C135.739 46.5396 135.829 46.7203 135.95 46.8106C137.154 47.7437 137.966 49.1885 138.177 50.6936C137.786 50.6936 137.394 50.6935 137.003 50.7236C135.919 50.7838 134.866 50.8742 133.843 51.115C133.21 50.4829 132.669 49.7604 132.307 48.9176C132.217 48.7069 131.886 48.6467 131.675 48.7671C131.434 48.8875 131.404 49.1584 131.525 49.3992C131.856 50.1216 132.307 50.814 132.849 51.3859C132.669 51.4461 132.488 51.5063 132.307 51.5665C130.351 52.319 128.906 53.8541 127.732 55.5698C127.732 53.9745 127.852 52.4093 128.304 50.8741ZM146.063 69.7473C146.003 69.8376 146.003 69.958 146.033 70.0483C144.047 72.0048 141.307 73.1185 138.508 73.1486C135.709 73.1787 133.03 72.0349 131.013 70.1085C129.96 69.1152 129.117 67.881 128.575 66.5566C128.876 63.1853 128.033 59.784 127.822 56.3826C128.003 56.4729 128.274 56.4729 128.424 56.2321C129.327 54.8475 130.411 53.5531 131.886 52.7705C133.15 52.0782 134.685 51.7772 136.13 51.6568C137.244 51.5665 138.448 51.4762 139.562 51.6869C140.224 51.8073 140.976 51.9879 141.488 52.4394C141.97 52.8307 141.819 53.4026 141.458 53.8541C141.307 54.0347 141.157 54.1551 141.006 54.3056C140.766 54.2454 140.495 54.3959 140.435 54.6066C139.983 54.7872 139.471 54.8775 138.96 54.9076C137.876 54.9979 136.762 54.9679 135.679 54.998C135.197 54.998 135.107 55.6 135.438 55.8408C136.371 56.503 136.732 57.6769 136.732 58.7605C136.732 60.1753 136.1 61.4997 135.558 62.7338C135.317 63.2455 136.1 63.7271 136.341 63.1853C137.003 61.7104 137.695 60.1753 137.635 58.5197C137.605 57.5565 137.304 56.6234 136.732 55.8709C137.515 55.8709 138.297 55.8408 139.08 55.7806C139.682 55.7204 140.284 55.6 140.856 55.3893C141.247 55.7806 141.759 56.0515 142.361 56.0515C143.053 56.0515 143.746 55.63 143.986 54.9678C144.047 54.7872 144.077 54.6067 144.107 54.396C144.498 54.9378 145.13 55.4494 145.732 55.2688C146.003 55.5698 146.274 55.901 146.515 56.2622C146.816 56.7137 146.906 56.9545 147.057 57.4662C147.629 59.3625 147.839 61.3492 147.719 63.3057C147.598 65.5332 147.027 67.7305 146.063 69.7473Z" fill="black"/>
<path d="M125.143 48.5566C124.361 47.1118 123.036 46.0582 121.441 45.6067C118.19 44.6736 114.759 46.6 113.826 49.881C113.374 51.4764 113.555 53.1319 114.367 54.5767C115.15 56.0216 116.474 57.0751 118.07 57.5266C118.612 57.6771 119.184 57.7674 119.725 57.7674C122.254 57.7674 124.572 56.2021 125.505 53.764L129.026 53.8844C129.869 52.9814 130.742 52.3794 131.103 52.1386L125.896 51.9579C125.986 50.8141 125.715 49.6101 125.143 48.5566ZM118.551 55.8108C117.438 55.4797 116.505 54.7573 115.963 53.7339C115.391 52.7105 115.27 51.5365 115.571 50.3927C116.113 48.4663 117.889 47.172 119.786 47.172C120.177 47.172 120.568 47.2322 120.959 47.3225C122.073 47.6536 123.006 48.376 123.548 49.3994C124.03 50.2422 124.18 51.2055 124.06 52.1386C123.879 52.2891 123.759 52.5299 123.759 52.7707C123.759 52.8911 123.789 52.9814 123.819 53.1018C123.006 55.2389 120.749 56.443 118.551 55.8108ZM160 54.0048C160 54.5165 159.609 54.9078 159.097 54.9078H155.485C155.334 54.9078 155.214 54.8777 155.094 54.8175L150.037 54.6369C150.037 54.6369 150.247 53.6135 150.187 52.8309L152.354 52.9212L152.324 49.3091C152.324 48.7974 152.716 48.4061 153.227 48.4061C153.739 48.4061 154.13 48.7974 154.13 49.3091L154.161 52.9814L155.455 53.0416L155.545 46.5097C155.545 46.0281 155.967 45.6067 156.448 45.6067C156.96 45.6067 157.351 46.0281 157.351 46.5097L157.261 53.0717H159.097C159.609 53.1018 160 53.4931 160 54.0048Z" fill="#FFE945"/>
</svg>
