<svg width="28" height="28" viewBox="0 0 28 28" fill="none" xmlns="http://www.w3.org/2000/svg">
<g clip-path="url(#clip0_27732_79726)">
<path d="M22.9917 27.5226C17.0162 28.1601 10.9899 28.1601 5.01443 27.5226C3.85405 27.4001 2.77073 26.8835 1.94507 26.059C1.11942 25.2345 0.60132 24.1519 0.477154 22.9917C-0.160353 17.0162 -0.160353 10.9899 0.477154 5.01443C0.599692 3.85405 1.11627 2.77073 1.94077 1.94507C2.76526 1.11942 3.84785 0.60132 5.00806 0.477154C10.9835 -0.160353 17.0099 -0.160353 22.9853 0.477154C24.1457 0.599692 25.229 1.11627 26.0547 1.94077C26.8803 2.76526 27.3984 3.84785 27.5226 5.00806C28.1601 10.9835 28.1601 17.0099 27.5226 22.9853C27.4001 24.1457 26.8835 25.229 26.059 26.0547C25.2345 26.8803 24.1519 27.3984 22.9917 27.5226V27.5226Z" fill="#E60000"/>
<path d="M22.3412 9.79052C21.9912 8.71348 20.833 8.0612 19.7671 7.91166C15.9332 7.50438 12.0669 7.50438 8.23298 7.91166C7.16707 8.0612 6.00571 8.70711 5.65889 9.79052C5.11322 12.5709 5.11322 15.4308 5.65889 18.2112C6.00889 19.2867 7.16707 19.9405 8.23298 20.0901C12.0669 20.4973 15.9332 20.4973 19.7671 20.0901C20.833 19.9405 21.9943 19.2946 22.3412 18.2112C22.8868 15.4308 22.8868 12.5709 22.3412 9.79052V9.79052ZM11.9064 17.3537V10.6464L17.3664 14.0001C15.5257 15.1312 13.7391 16.2273 11.9064 17.3537Z" fill="white"/>
</g>
<defs>
<clipPath id="clip0_27732_79726">
<rect width="28" height="28" fill="white"/>
</clipPath>
</defs>
</svg>
