<svg width="180" height="181" viewBox="0 0 180 181" fill="none" xmlns="http://www.w3.org/2000/svg">
<path d="M42.4284 104.247C37.9815 98.0872 33.4687 91.8615 30.57 84.8452C27.6712 77.829 26.4524 69.8245 28.7582 62.6106C31.3276 54.5402 38.4097 48.0839 46.6777 46.2393C50.4329 45.4158 54.8799 45.2181 57.1857 42.1217C58.0421 40.9688 58.4704 39.5524 58.8656 38.136C60.2821 32.9314 61.8962 26.9033 66.8372 24.6963C72.2065 22.2917 78.1687 25.8163 83.472 28.3856C89.533 31.3173 96.1211 33.0961 102.841 33.5902C105.838 33.8208 108.869 33.7878 111.735 34.6443C114.601 35.5007 117.335 37.5101 118.158 40.3759C119.08 43.7029 117.302 47.4251 118.455 50.6533C119.377 53.2226 121.979 54.8696 124.614 55.6931C127.217 56.5166 130.017 56.7801 132.619 57.7025C139.899 60.2718 144.51 67.881 145.334 75.5561C146.157 83.2312 143.786 90.9062 140.623 97.9225C138.91 101.711 136.967 105.4 134.332 108.628C124.549 120.717 106.629 124.143 91.7071 119.729C88.1496 118.675 84.6579 117.226 81.0015 116.666C76.9169 116.04 72.7664 116.534 68.616 116.435C59.3597 116.237 50.2024 112.976 42.8567 107.31" fill="#F4F6F9"/>
<path d="M155.018 120.025C154.557 118.576 153.865 117.225 153.074 115.974C152.218 114.623 151.197 113.272 150.801 111.691C150.34 109.978 150.867 108.233 151.295 106.553C151.724 104.873 151.954 103.259 151.691 101.546C151.131 98.0211 148.858 95.0236 146.618 92.3225C147.211 91.6966 147.54 90.906 147.606 90.0167C147.672 89.0285 147.441 88.0402 147.474 87.052C147.474 86.8873 147.408 86.7556 147.343 86.6568C147.771 84.9768 148.166 83.2968 148.594 81.6169C148.957 80.2005 149.385 78.7511 149.55 77.2688C150.011 77.6311 150.604 77.8617 151.197 77.8617C153.008 77.8617 154.194 75.6547 154.787 74.2053C155.545 72.3936 155.742 70.4172 155.709 68.4737C155.677 67.3538 155.578 66.2667 155.479 65.1468C155.38 64.2903 155.413 63.2692 154.853 62.5445C154.589 62.2151 154.227 61.9845 153.832 61.8527C153.7 61.4245 153.502 61.0292 153.206 60.6669C152.547 59.8763 151.328 59.4481 150.406 60.041C150.044 58.9211 149.352 57.9658 148.067 57.834C146.684 57.7023 145.597 58.6246 145.07 59.8104C144.147 58.427 142.731 57.4717 141.018 57.5046C139.239 57.5376 137.526 58.4599 136.275 59.6787C134.858 61.0622 133.903 62.9068 133.244 64.7515C132.585 66.5632 132.124 68.4737 131.894 70.4172C131.498 73.9418 131.828 77.7958 129.917 80.9252C129.72 81.2546 129.489 81.6169 129.258 81.9463C127.875 83.4615 127.051 85.4709 126.985 87.5132C126.953 88.5673 127.447 89.7861 126.59 90.6425C125.898 91.3343 124.976 91.6966 124.35 92.4542C122.802 94.2989 123.033 96.8024 123.066 99.0423C123.099 100.327 122.967 101.546 122.539 102.732C122.143 103.852 121.55 104.906 121.056 105.993C120.266 107.673 119.772 109.451 119.607 111.263C117.762 107.508 115.325 104.082 112.393 101.085C109.461 98.087 106.134 95.5177 102.643 93.2119C101.325 92.3225 99.9745 91.4331 98.5581 90.6425C98.5581 90.4449 98.4592 90.2802 98.3275 90.1814C97.8334 87.5132 97.3393 84.845 96.8452 82.1769C96.2852 79.1134 95.6923 76.05 95.1323 72.9866C95.0335 72.4924 94.9347 71.9983 94.8359 71.4713C97.7017 69.8572 100.567 68.2432 103.4 66.6291C103.796 66.3985 103.73 65.9373 103.4 65.7068C100.535 63.5986 97.7017 61.4575 94.8359 59.3163C93.3535 58.1964 91.8383 57.0435 90.3231 55.9235C88.8737 54.8365 87.4573 53.6506 85.8761 52.7612C84.855 52.1683 83.7679 51.7071 82.648 51.4436C83.2409 51.1142 83.8338 50.7189 84.3938 50.159C85.9749 48.5449 86.6996 43.3403 83.4385 40.738C80.8033 47.8202 75.8293 44.4932 70.4601 49.006C66.3755 52.4648 68.813 61.0951 72.0082 64.8832C70.5589 65.1797 69.2413 66.0362 68.4837 67.3208C67.2319 69.4949 67.8248 72.4924 69.8013 74.0406C70.6577 74.7324 71.7447 75.0618 72.8317 75.0947C72.1071 80.2993 71.02 85.405 69.9989 90.5437C66.9355 91.5649 63.872 92.6189 61.138 94.3648C58.3051 96.1765 55.7028 98.2847 53.2323 100.558C52.0794 101.612 50.9594 102.666 49.8394 103.753C49.2794 101.085 47.7313 98.5811 45.2937 97.3623C45.4584 97.0659 45.2608 96.7365 44.9972 96.6047C45.2937 95.1224 45.1949 93.6071 44.6349 92.1578C44.009 90.5108 42.9549 89.0943 42.0326 87.645C40.0562 84.5486 40.3527 80.6616 39.8915 77.17C39.628 75.2594 39.1339 73.3489 38.475 71.5372C37.7833 69.6925 36.8281 67.8479 35.3787 66.4973C34.094 65.3115 32.3811 64.3891 30.6024 64.3891C28.8895 64.3891 27.473 65.3444 26.5836 66.7608C26.0566 65.575 24.9696 64.6856 23.5861 64.8174C22.3014 64.9491 21.6426 65.9373 21.2802 67.0573C20.3579 66.4644 19.1391 66.9255 18.4803 67.7161C18.1839 68.0785 17.9862 68.4737 17.8874 68.9349C17.4921 69.0667 17.1298 69.2972 16.8992 69.6266C16.3721 70.3513 16.4051 71.3725 16.3063 72.2289C16.2075 73.3489 16.1086 74.4359 16.1086 75.5559C16.1086 77.4994 16.3392 79.4758 17.1298 81.2875C17.7556 82.7369 18.9744 84.9109 20.7861 84.9109C21.3791 84.9109 21.972 84.6803 22.4332 84.318C22.5979 85.8003 23.059 87.2497 23.4214 88.6661C23.8496 90.3461 24.3108 91.9931 24.739 93.673C23.7178 94.8259 23.619 96.6047 23.8825 98.087C24.0472 99.0093 24.3766 99.9317 24.3766 100.854C24.3766 101.809 23.8496 102.666 23.3555 103.456C22.3673 105.136 21.7414 107.014 22.2355 108.957C22.3343 109.418 22.532 109.847 22.7626 110.242C22.8614 110.44 22.9931 110.637 23.059 110.835C23.1578 111.131 22.9931 111.164 22.7955 111.296C22.0379 111.724 21.412 112.35 20.9508 113.075C20.4897 113.8 20.2262 114.623 20.1273 115.447C20.0285 116.369 20.2262 117.258 20.4897 118.148C20.7861 119.136 21.1814 120.157 21.2473 121.178C21.3132 122.265 21.1155 123.352 20.852 124.439C20.4238 126.317 19.9956 128.161 19.9956 130.105C19.9956 131.818 20.2591 133.564 20.7532 135.211L21.8732 135.145C21.9391 135.375 22.0049 135.573 22.1038 135.804C22.1038 135.804 58.9639 146.279 78.8598 139.789C98.7557 133.267 129.094 115.512 154.491 128.227C155.248 128.59 156.829 125.658 155.018 120.025Z" fill="white"/>
<path d="M62.1919 65.8711L57.8109 70.3181C54.5498 73.645 49.2465 73.678 45.9195 70.4169L42.6913 67.2546C39.3644 63.9935 39.3314 58.6901 42.5925 55.3632L46.9736 50.8833" fill="#FFE945"/>
<path d="M62.2167 65.8646C63.4029 64.6582 60.9571 60.33 56.7539 56.1975C52.5506 52.065 48.1816 49.693 46.9954 50.8995C45.8092 52.1059 48.2551 56.4341 52.4583 60.5666C56.6616 64.6991 61.0306 67.0711 62.2167 65.8646Z" fill="white"/>
<path d="M16.4379 72.9537C17.0638 73.2172 16.8002 74.2713 16.1414 74.0078C14.5274 73.349 12.9462 72.5584 11.4639 71.6032C6.25932 68.2762 2.20769 63.2693 0.0336325 57.4718C-0.196949 56.813 0.824183 56.5495 1.0877 57.1753C1.68063 58.7235 2.40535 60.2058 3.26179 61.6552C6.32524 66.6951 10.9698 70.7467 16.4379 72.9537ZM44.3053 68.8032C43.4818 69.4291 42.6583 70.055 41.736 70.5491C40.6819 71.142 39.562 71.4714 38.3432 71.6032C36.1362 71.8337 33.7644 71.6691 31.8539 72.9867C31.2939 73.3819 31.821 74.3372 32.4139 73.909C34.3245 72.5584 36.8279 72.8878 39.0349 72.5914C41.3737 72.262 43.2512 70.9444 45.0629 69.5279L44.3053 68.8032ZM62.5872 66.2339C63.3448 65.4433 63.1472 63.9281 61.9613 61.8529C60.9072 59.9753 59.1943 57.8341 57.1191 55.7918C53.1333 51.872 48.2582 48.8085 46.5782 50.5214C44.8983 52.2014 48.0605 57.0436 52.0463 60.9635C55.2415 64.1257 59.0626 66.728 61.2696 66.728C61.8296 66.728 62.2578 66.5633 62.5872 66.2339ZM56.3615 56.5824C58.3708 58.5588 60.0178 60.6011 61.006 62.3799C61.9613 64.0928 62.0931 65.1798 61.7966 65.4763C61.0719 66.201 57.2179 64.521 52.8039 60.1729C48.3899 55.8248 46.6441 52.0037 47.3688 51.279C47.4676 51.1802 47.6653 51.1143 47.8958 51.1143C49.2793 51.1143 52.6063 52.8931 56.3615 56.5824ZM51.6181 57.7353C52.9357 59.02 54.2204 60.3047 55.538 61.5893C56.0321 62.0834 56.7897 61.3258 56.2956 60.8317C54.978 59.547 53.6933 58.2624 52.3757 56.9777C51.8816 56.4836 51.124 57.2412 51.6181 57.7353ZM52.8698 55.9236C54.1874 57.2083 55.4721 58.4929 56.7897 59.7776C57.2838 60.2717 58.0414 59.5141 57.5473 59.02C56.2297 57.7353 54.945 56.4507 53.6274 55.166C53.1333 54.6719 52.3757 55.4295 52.8698 55.9236ZM45.3923 55.9895C47.3029 59.2835 49.5099 62.6764 52.9686 64.521C53.5945 64.8504 54.1215 63.9281 53.5286 63.5987C50.2346 61.8529 48.1593 58.5918 46.3476 55.4624C45.9853 54.8366 45.0629 55.3966 45.3923 55.9895Z" fill="black"/>
<path d="M123.197 45.2834L128.863 47.9187C133.079 49.8621 134.924 54.8691 132.981 59.0854L131.07 63.2029C129.127 67.4193 124.12 69.264 119.903 67.3205L114.238 64.6853" fill="#9ED5F0"/>
<path d="M123.197 45.2835C122.176 44.8224 120.364 46.3376 118.552 48.9728L114.237 46.9964C113.743 46.7658 113.15 46.9964 112.92 47.4905L112.524 48.347C112.294 48.8411 112.524 49.434 113.018 49.6646L117.037 51.4763C116.675 52.168 116.279 52.8927 115.95 53.6504C115.917 53.7162 115.884 53.8151 115.851 53.8809L111.404 51.8716C110.91 51.641 110.317 51.8716 110.087 52.3657L109.691 53.2221C109.461 53.7162 109.691 54.3092 110.186 54.5397L114.731 56.615C113.282 60.6996 113.018 64.0595 114.27 64.6195C115.818 65.3442 119.079 61.556 121.55 56.2197C123.987 50.9163 124.745 46.0082 123.197 45.2835Z" fill="white"/>
<path d="M123.428 44.7895C122.44 44.3284 121.056 45.0531 119.508 46.8648C119.146 47.293 118.75 47.7871 118.388 48.3141L114.468 46.5354C114.106 46.3707 113.677 46.3377 113.282 46.5024C112.887 46.6342 112.59 46.9307 112.426 47.293L112.03 48.1494C111.866 48.5118 111.833 48.94 111.997 49.3353C112.129 49.7306 112.426 50.027 112.788 50.1917L116.28 51.7729C116.016 52.234 115.786 52.7281 115.555 53.2222L111.602 51.4435C111.24 51.2788 110.812 51.2458 110.416 51.4105C110.021 51.5423 109.725 51.8388 109.56 52.2011L109.165 53.0575C109 53.4199 108.967 53.8481 109.132 54.2434C109.263 54.6387 109.56 54.9351 109.922 55.0998L114.04 56.9774C113.579 58.3609 113.216 59.6785 113.052 60.8644C112.689 63.2361 113.019 64.7184 114.007 65.1796C114.205 65.2784 114.435 65.3113 114.633 65.3113C116.807 65.3113 119.87 61.095 121.978 56.5163C124.35 51.4435 125.569 45.7777 123.428 44.7895ZM113.019 48.94C112.986 48.8412 112.986 48.7094 113.019 48.5777L113.414 47.7212C113.48 47.5565 113.645 47.4577 113.842 47.4577C113.908 47.4577 113.974 47.4577 114.04 47.4906L120.43 50.3894L119.673 52.0693L113.282 49.1706C113.15 49.1377 113.052 49.0388 113.019 48.94ZM110.153 53.8481C110.12 53.7493 110.12 53.6175 110.153 53.4858L110.548 52.6293C110.614 52.5305 110.68 52.4317 110.812 52.3987C110.878 52.3658 110.911 52.3658 110.976 52.3658C111.042 52.3658 111.108 52.3658 111.174 52.3987L117.564 55.2975L116.807 56.9774L110.416 54.0787C110.285 54.0457 110.186 53.9469 110.153 53.8481ZM121.023 56.0551C118.421 61.6549 115.423 64.6196 114.468 64.1913C114.073 64.0266 113.809 62.9726 114.106 61.0291C114.27 59.9421 114.6 58.7233 115.028 57.4386L117.301 58.4597L118.981 54.8034L116.543 53.6834C116.774 53.1893 117.037 52.6952 117.268 52.234L120.167 53.5516L121.847 49.8953L119.409 48.7753C119.706 48.3471 120.035 47.9518 120.331 47.5895C121.451 46.3048 122.341 45.7777 122.802 45.7777C122.868 45.7777 122.934 45.7777 123 45.8107C123.922 46.206 123.625 50.4223 121.023 56.0551ZM125.272 48.7753C125.272 48.0836 126.359 48.0836 126.359 48.7753C126.392 54.7046 123.988 60.5679 119.771 64.7513C119.277 65.2454 118.52 64.4878 119.014 63.9937C123.032 59.975 125.305 54.441 125.272 48.7753ZM132.19 62.182C131.498 62.182 131.498 61.095 132.19 61.095C133.903 61.095 135.187 62.2808 136.176 63.5325C137.131 64.7513 138.053 66.2666 139.7 66.596C140.392 66.7277 140.096 67.7818 139.404 67.6501C137.79 67.3536 136.703 66.0689 135.78 64.8172C134.891 63.6314 133.837 62.182 132.19 62.182ZM155.413 68.8359C154.721 68.8689 154.721 67.7818 155.413 67.7489C157.389 67.6171 159.333 67.2219 161.21 66.6289C168.095 64.4219 173.728 59.6456 179.064 54.9681C179.591 54.5069 180.349 55.2645 179.822 55.7257C178.207 57.1421 176.626 58.5256 174.946 59.8762C169.347 64.4219 162.824 68.3748 155.413 68.8359Z" fill="black"/>
<path d="M77.1136 160.97C77.1136 163.671 74.9395 165.845 72.2384 165.845C69.5373 165.845 67.3633 163.671 67.3633 160.97C67.3633 158.269 69.5373 156.095 72.2384 156.095C74.9395 156.062 77.1136 158.269 77.1136 160.97ZM85.151 156.062C82.4499 156.062 80.2758 158.236 80.2758 160.937C80.2758 163.638 82.4499 165.812 85.151 165.812C87.8521 165.812 90.0262 163.638 90.0262 160.937C90.0262 158.269 87.8521 156.062 85.151 156.062ZM85.151 156.062C82.4499 156.062 80.2758 158.236 80.2758 160.937C80.2758 163.638 82.4499 165.812 85.151 165.812C87.8521 165.812 90.0262 163.638 90.0262 160.937C90.0262 158.269 87.8521 156.062 85.151 156.062ZM98.953 156.062C96.2519 156.062 94.0778 158.236 94.0778 160.937C94.0778 163.638 96.2519 165.812 98.953 165.812C101.654 165.812 103.828 163.638 103.828 160.937C103.828 158.269 101.654 156.062 98.953 156.062Z" fill="#F4F6F9"/>
<path d="M89.3017 77.5984C89.4993 77.7961 89.4993 78.1584 89.3017 78.356C89.0711 78.5537 88.8735 78.7843 88.6758 79.0148C88.6429 79.0478 88.6428 79.0807 88.6099 79.0807C88.6099 79.0807 88.6099 79.1137 88.577 79.1137C88.5441 79.1795 88.4781 79.2454 88.4452 79.2784C88.3464 79.4101 88.2805 79.5089 88.2146 79.6407C88.0499 79.9042 87.9182 80.1678 87.7864 80.4313C87.7535 80.4642 87.7535 80.4972 87.7535 80.5301C87.7535 80.5301 87.7535 80.5301 87.7535 80.563C87.7206 80.6289 87.6876 80.6948 87.6547 80.7936C87.5888 80.9254 87.5559 81.0571 87.5229 81.2218C87.4241 81.5183 87.1606 81.683 86.8641 81.6171C86.5677 81.5512 86.4029 81.2218 86.4688 80.9583C86.8641 79.6736 87.5558 78.5207 88.544 77.6314C88.7417 77.3678 89.0711 77.3678 89.3017 77.5984ZM22.1694 135.804C23.2894 138.966 25.3646 141.832 28.0657 143.775C28.6257 144.171 28.0987 145.126 27.5058 144.698C24.2776 142.359 21.9389 138.999 20.8189 135.178C20.3248 133.531 20.0613 131.785 20.0613 130.072C20.0613 128.129 20.4895 126.284 20.9177 124.407C21.1812 123.352 21.3789 122.265 21.313 121.145C21.2471 120.091 20.8518 119.103 20.5554 118.115C20.2919 117.226 20.0942 116.336 20.193 115.414C20.2918 114.557 20.5554 113.734 21.0165 113.042C21.4777 112.317 22.1036 111.692 22.8612 111.263C23.0918 111.132 23.2235 111.099 23.1247 110.802C23.0588 110.605 22.9271 110.407 22.8282 110.209C22.5976 109.814 22.433 109.386 22.3012 108.925C21.8071 106.981 22.4 105.104 23.4212 103.424C23.9153 102.633 24.4423 101.81 24.4423 100.821C24.4423 99.866 24.1129 98.9766 23.9482 98.0543C23.6847 96.572 23.7506 94.7932 24.8046 93.6403C24.3764 91.9604 23.9153 90.3134 23.487 88.6334C23.1247 87.217 22.6635 85.7676 22.4988 84.2853C22.0377 84.6476 21.4447 84.8782 20.8518 84.8782C19.0401 84.8782 17.8213 82.7042 17.1955 81.2548C16.4378 79.4431 16.1743 77.4667 16.1743 75.5232C16.1743 74.4032 16.2731 73.3162 16.3719 72.1962C16.4378 71.3398 16.4378 70.3186 16.9649 69.5939C17.2284 69.2645 17.5578 69.0339 17.9531 68.9022C18.0849 68.474 18.2495 68.0457 18.546 67.6834C19.2048 66.8928 20.4236 66.4317 21.3459 67.0246C21.7083 65.9046 22.3671 64.9164 23.6517 64.7846C25.0352 64.6529 26.1223 65.5423 26.6493 66.7281C27.5387 65.3117 28.9551 64.3564 30.668 64.3564C32.4468 64.3564 34.1597 65.2788 35.4444 66.4646C36.8937 67.8152 37.849 69.6598 38.5408 71.5045C39.2325 73.3162 39.7266 75.2267 39.9572 77.1372C40.4183 80.6619 40.1219 84.5159 42.0983 87.6123C43.0206 89.0946 44.0747 90.511 44.7006 92.1251C45.2606 93.5744 45.3264 95.0897 45.0629 96.572C45.3264 96.7038 45.5241 97.0332 45.3594 97.3296C47.8299 98.5484 49.3781 101.052 49.9051 103.72C51.0251 102.633 52.1451 101.546 53.298 100.525C55.7685 98.2849 58.3708 96.1438 61.2036 94.3321C63.9377 92.5862 67.0011 91.5321 70.0646 90.511C71.0528 85.3723 72.1727 80.2666 72.8974 75.062C71.8104 75.0291 70.7234 74.6997 69.8669 74.0079C67.8905 72.4597 67.2976 69.4622 68.5493 67.2881C69.3069 66.0034 70.6245 65.147 72.0739 64.8505C68.9116 61.0624 66.4411 52.4321 70.5257 48.9733C75.8621 44.4605 80.869 47.7875 83.5042 40.7053C86.7982 43.3076 86.0735 48.5122 84.4595 50.1262C83.8995 50.6862 83.3066 51.1144 82.7136 51.4109C83.8336 51.6744 84.9206 52.1356 85.9418 52.7285C87.5229 53.6179 88.9394 54.8038 90.3887 55.8908C91.904 57.0107 93.3863 58.1307 94.9015 59.2836C97.7344 61.4247 100.567 63.5659 103.466 65.674C103.795 65.9046 103.861 66.3987 103.466 66.5964C100.6 68.2104 97.7673 69.8574 94.9015 71.4386C95.0003 71.9327 95.0991 72.4268 95.198 72.9538C95.7579 76.0173 96.3509 79.0807 96.9109 82.1442C97.405 84.8123 97.8991 87.4805 98.3932 90.1487C98.525 90.2475 98.6567 90.4122 98.6238 90.6098C100.007 91.4004 101.358 92.2898 102.708 93.1792C106.2 95.485 109.527 98.0543 112.459 101.052C115.39 104.049 117.828 107.475 119.673 111.23C119.837 109.419 120.331 107.64 121.122 105.96C121.616 104.873 122.209 103.819 122.604 102.699C123.033 101.48 123.164 100.294 123.131 99.0096C123.098 96.7696 122.868 94.2662 124.416 92.4215C125.042 91.6639 125.964 91.3016 126.656 90.6098C127.512 89.7863 127.018 88.5346 127.051 87.4805C127.084 85.4382 127.908 83.4288 129.324 81.9136C129.555 81.5842 129.752 81.2218 129.983 80.8924C131.893 77.7631 131.564 73.9091 131.959 70.3845C132.19 68.474 132.651 66.5305 133.31 64.7188C133.969 62.8741 134.924 61.0295 136.34 59.646C137.592 58.4272 139.305 57.5049 141.084 57.4719C142.797 57.439 144.213 58.3942 145.135 59.7777C145.662 58.5919 146.717 57.6696 148.133 57.8013C149.418 57.9001 150.109 58.8883 150.472 60.0083C151.394 59.4154 152.613 59.8436 153.272 60.6342C153.568 60.9965 153.766 61.3918 153.898 61.82C154.293 61.9188 154.655 62.1494 154.919 62.5118C155.446 63.2365 155.446 64.2576 155.545 65.1141C155.676 66.234 155.775 67.3211 155.775 68.441C155.808 70.3845 155.577 72.3609 154.853 74.1726C154.26 75.622 153.074 77.829 151.262 77.829C150.669 77.829 150.076 77.5984 149.615 77.2361C149.451 78.7184 149.022 80.1678 148.66 81.5842C148.232 83.2641 147.836 84.9441 147.408 86.624C147.507 86.7229 147.573 86.8217 147.54 87.0193C147.507 88.0075 147.738 88.9957 147.672 89.984C147.639 90.8733 147.309 91.6639 146.684 92.2898C148.924 94.9909 151.196 97.9884 151.756 101.513C152.02 103.226 151.789 104.84 151.361 106.52C150.933 108.2 150.406 109.946 150.867 111.659C151.295 113.24 152.283 114.59 153.14 115.941C153.963 117.226 154.622 118.543 155.083 119.993C156.928 125.658 155.676 132.18 151.822 136.726C151.361 137.253 150.603 136.496 151.065 135.969C153.14 133.531 154.392 130.435 154.754 127.272C155.05 124.439 154.688 121.541 153.535 118.938C152.316 116.139 149.78 113.8 149.615 110.605C149.516 108.892 150.076 107.245 150.472 105.598C150.834 103.984 150.933 102.402 150.505 100.821C149.747 97.8896 147.836 95.3862 145.926 93.1133C145.893 93.1133 145.86 93.1462 145.827 93.1462C144.213 93.7062 142.5 93.8709 140.82 93.8709C139.14 93.8709 137.427 93.7721 135.78 93.5415C132.98 93.1792 130.345 92.0262 128.171 90.2475C128.006 90.8404 127.644 91.3674 127.084 91.7957C126.294 92.4215 125.437 92.8168 124.91 93.7062C123.724 95.7485 124.383 98.252 124.218 100.459C124.054 102.864 122.802 104.873 121.88 107.047C120.957 109.155 120.595 111.428 120.727 113.701C120.76 113.8 120.793 113.932 120.76 113.997C120.76 114.162 120.793 114.327 120.793 114.524C120.858 115.216 119.804 115.216 119.706 114.524C119.673 114.327 119.673 114.129 119.64 113.932C119.409 113.372 119.178 112.812 118.915 112.285C116.939 108.035 114.106 104.28 110.746 101.019C107.979 98.3178 104.882 96.012 101.654 93.9038C100.765 93.3109 99.8425 92.7509 98.9202 92.1909C98.7555 92.4215 98.4591 92.4545 98.2285 92.3556C97.965 93.3768 97.7014 94.4309 97.2073 95.3532C96.1862 97.3626 94.111 98.7461 91.9369 99.1413C89.4664 99.6025 86.897 98.8449 84.8877 97.3626C84.69 97.2308 84.6242 97.0332 84.6571 96.8355C84.4924 96.8355 84.3277 96.8685 84.1301 96.8685L84.0971 96.9014C82.1866 98.9437 78.9255 99.1743 76.3232 98.5155C74.775 98.1202 73.7209 97.132 72.8974 95.8144C72.041 94.4638 71.3492 93.0145 70.6904 91.5651C68.9446 92.158 67.1658 92.718 65.4859 93.4427C62.4554 94.7273 59.7543 96.6379 57.2179 98.7131C54.7473 100.722 52.4415 102.929 50.1357 105.169C50.1687 105.861 50.1687 106.553 50.1028 107.245C50.0698 107.772 49.971 108.332 50.1357 108.826C50.2675 109.254 50.531 109.55 50.8274 109.847C51.4863 110.44 52.2439 110.934 52.9027 111.494C53.5615 112.054 54.2203 112.647 54.8133 113.273C55.6697 114.162 56.4602 115.15 57.0861 116.237C57.7449 115.579 58.4696 114.953 59.2602 114.393C59.8202 113.964 60.3801 114.92 59.8202 115.315C59.0296 115.875 58.3049 116.534 57.6461 117.226C58.4367 118.84 58.799 120.618 58.5025 122.496C58.239 124.044 57.2508 125.625 55.5709 125.823C54.8462 125.922 54.0227 125.724 53.4956 125.164C52.9027 124.571 52.7709 123.715 52.8698 122.924C53.0015 122.035 53.4297 121.178 53.8909 120.388C54.3191 119.597 54.8132 118.873 55.3732 118.181C55.6697 117.786 55.9991 117.39 56.3614 117.028C55.2744 115.051 53.5285 113.372 51.8157 111.988C51.1898 111.494 50.531 111.066 49.971 110.506C49.3451 109.913 49.0157 109.188 48.9828 108.365C48.9169 107.574 49.1146 106.816 49.1146 106.026C49.1146 105.729 49.1146 105.433 49.0816 105.136C49.0487 105.038 49.0158 104.939 49.0487 104.84C49.0158 104.544 48.9828 104.28 48.9169 103.984C48.4228 101.546 46.9735 99.2072 44.6018 98.219C43.7783 98.9766 42.8889 99.6354 41.9995 100.294C39.7925 101.842 37.289 103.259 34.5879 103.588C31.4586 103.984 28.2305 103.457 25.3647 102.172C25.3317 102.238 25.3317 102.271 25.2988 102.337C24.9035 103.325 24.2447 104.181 23.7835 105.136C23.3882 105.96 23.2565 106.948 23.2894 107.871C23.3223 108.332 23.4212 108.793 23.5859 109.221C23.7506 109.649 24.047 110.012 24.2117 110.473C24.3435 110.901 24.3435 111.362 24.08 111.725C23.8494 112.054 23.4541 112.186 23.1247 112.416C22.4659 112.877 21.9389 113.536 21.6095 114.294C21.2801 115.019 21.1812 115.842 21.313 116.633C21.4777 117.621 21.873 118.543 22.1365 119.498C22.6965 121.574 22.3012 123.583 21.8071 125.625C21.3789 127.371 21.1483 129.084 21.2142 130.896C21.2471 132.576 21.5765 134.223 22.1694 135.804ZM21.9718 70.2198C22.0047 71.1751 22.1694 72.1303 22.433 73.0527C22.5647 72.9868 22.6965 72.9538 22.8612 72.9209C23.7506 72.6244 24.6729 72.5586 25.6282 72.5586C25.5952 71.7021 25.5952 70.8457 25.6941 69.9892C25.7599 69.4292 25.8258 68.8692 25.9576 68.3093C25.9576 68.2763 25.9246 68.2434 25.9246 68.2104C25.8258 67.4858 25.5623 66.7611 24.9693 66.3328C24.4423 65.9376 23.6188 65.8058 23.0918 66.2011C22.5647 66.5964 22.3671 67.3869 22.2353 67.9799C22.0377 68.7045 21.9718 69.4622 21.9718 70.2198ZM22.4659 81.8477C22.3671 81.8148 22.2683 81.7489 22.2024 81.683C20.1601 80.2666 18.8754 77.9608 18.2496 75.5891C17.8872 74.2385 17.7225 72.8221 17.7225 71.4056C17.7225 71.0762 17.7225 70.7468 17.7225 70.4174C17.4919 70.8457 17.4919 71.4715 17.459 71.8997C17.1625 74.9303 16.9319 78.1913 18.2166 81.0242C18.5131 81.6501 18.8754 82.2759 19.3036 82.803C19.6989 83.2641 20.1601 83.8241 20.8189 83.8241C21.9389 83.8241 22.433 82.8359 22.4659 81.8477ZM23.487 80.6289C23.5859 80.2007 23.52 79.7725 23.4541 79.3442C23.4212 78.949 23.3553 78.5537 23.2894 78.1584C22.433 77.8949 21.6753 77.4666 21.1483 76.742C20.6212 76.0502 20.3248 75.0291 20.8189 74.2385C20.9836 73.975 21.2142 73.7444 21.4777 73.5797C21.0165 72.0644 20.786 70.5163 20.9507 68.9351C20.9836 68.6387 21.0165 68.3422 21.0824 68.0128C20.3907 67.7163 19.8636 68.0128 19.666 68.1775C18.7766 68.8363 18.8095 70.1539 18.8095 71.1751C18.8425 73.3491 19.1389 75.5891 20.1271 77.5325C20.5554 78.389 21.0824 79.1795 21.7412 79.8713C22.0706 80.2336 22.4659 80.596 22.8941 80.8595C23.2235 81.0571 23.3882 81.0242 23.487 80.6289ZM25.7599 93.1792C25.9246 93.245 26.0893 93.3768 26.1223 93.5415C26.7152 93.7062 27.5058 93.5415 28.0657 93.4427C28.7245 93.3439 29.4163 93.2121 30.0751 93.0474C31.3598 92.718 32.6444 92.2898 33.8303 91.7298C36.2679 90.5769 38.4749 88.9957 40.3195 87.0193C40.3525 86.9864 40.3854 86.9534 40.4183 86.9205C39.8254 85.57 39.5619 84.0876 39.3972 82.6053C39.1996 80.8924 39.1007 79.1795 38.9031 77.4666C38.7055 75.7208 38.2443 74.0079 37.6513 72.3609C37.0584 70.648 36.202 68.9022 34.9173 67.5846C33.8303 66.4646 32.315 65.5423 30.701 65.5093C28.9551 65.4764 27.8022 66.6952 27.0775 68.1775C27.0446 68.2434 27.0117 68.3093 26.9787 68.3751C26.6164 69.7257 26.6164 71.1751 26.6493 72.5256C26.6493 72.5585 26.6493 72.5586 26.6493 72.5586C26.9787 72.5915 27.2752 72.5915 27.6046 72.6244C28.8234 72.7233 30.0751 72.9209 31.228 73.2832C31.6892 71.9656 31.8209 70.5492 31.5574 69.1986C31.4915 68.9022 31.6233 68.6057 31.9527 68.5398C32.2162 68.474 32.5786 68.6387 32.6115 68.9351C32.908 70.5163 32.7762 72.1633 32.2492 73.6785C32.5127 73.7773 32.7762 73.9091 33.0068 74.0079C34.9832 74.9961 36.4326 76.7749 37.5525 78.6196C37.9149 79.2125 36.9925 79.7725 36.6302 79.1795C35.5102 77.3678 34.0938 75.6549 32.0845 74.7655C30.6351 74.1397 29.0869 73.8432 27.5387 73.7115C26.2211 73.6126 24.9035 73.4809 23.5859 73.7773C22.96 73.9091 22.1365 74.1397 21.7083 74.6997C21.2801 75.2597 21.9059 76.1161 22.3341 76.4784C23.0918 77.1043 24.1129 77.269 25.0682 77.3349C26.1882 77.4337 27.3081 77.4667 28.461 77.4996C29.021 77.5325 29.1857 78.2243 28.7245 78.5207C27.6705 79.2454 27.2093 80.563 27.1764 81.8148C27.1764 83.4288 27.8352 84.977 28.461 86.4593C28.5599 86.7229 28.3293 87.0523 28.0657 87.1181C27.7693 87.184 27.5058 87.0193 27.4069 86.7229C26.7152 85.0429 25.9576 83.2641 26.0893 81.4195C26.0893 81.2218 26.1223 81.0571 26.1552 80.8595C25.5294 80.8924 24.9364 80.6619 24.5082 80.1677C24.5082 80.3654 24.5082 80.5301 24.4752 80.7277C24.4094 81.1889 24.1788 81.6501 23.7835 81.8806C23.7176 81.9136 23.6188 81.9465 23.5529 81.9795C23.5529 82.0453 23.52 82.1112 23.52 82.1771C23.52 82.3089 23.487 82.4406 23.4541 82.5395C23.3882 83.2312 23.4212 83.9229 23.5529 84.6147C23.8165 86.1299 24.2776 87.6123 24.6729 89.1275C25.0682 90.511 25.4305 91.8286 25.7599 93.1792ZM25.0023 78.8831C25.2658 79.4101 25.6611 80.003 26.3199 79.8054C26.4188 79.7725 26.4846 79.7395 26.5834 79.7066C26.7481 79.3113 26.9458 78.949 27.2093 78.6196V78.5866C26.3858 78.5537 25.5952 78.5207 24.7717 78.4219C24.8705 78.5866 24.9364 78.7513 25.0023 78.8831ZM43.4159 91.9933C42.7241 90.5769 41.7359 89.3251 40.9454 87.9746C39.0019 90.0498 36.6302 91.7298 33.995 92.8827C32.6444 93.4756 31.228 93.9368 29.8116 94.2662C29.0869 94.4309 28.3952 94.5297 27.6705 94.6285C26.9458 94.7273 26.2211 94.7603 25.5294 94.4968C24.4423 95.8473 25.0353 97.8567 25.3317 99.4378C25.4635 99.9978 25.5294 100.558 25.4964 101.118C27.0446 101.842 28.7575 102.337 30.4704 102.534C31.9527 102.699 33.5338 102.732 35.0161 102.468C36.2349 102.238 37.3878 101.744 38.4749 101.184C40.3524 100.195 42.1642 98.9766 43.7453 97.5273C43.7453 97.4943 43.7453 97.4614 43.7453 97.4284C44.3053 95.5838 44.2394 93.7391 43.4159 91.9933ZM56.7897 118.082C56.4603 118.444 56.1638 118.84 55.9003 119.235C55.3732 119.96 54.8791 120.75 54.4509 121.574C54.0885 122.265 53.6603 123.155 53.9238 123.945C54.1215 124.571 54.7803 124.835 55.4062 124.769C56.0979 124.67 56.592 124.209 56.9214 123.616C57.6461 122.331 57.5802 120.651 57.2179 119.268C57.0861 118.84 56.9544 118.444 56.7897 118.082ZM82.5489 96.8026C82.1866 96.7696 81.8242 96.7038 81.4619 96.6049C79.5513 96.1438 77.7396 95.2215 75.9938 94.365C74.7091 93.7391 73.4574 93.0803 72.2386 92.3556C72.6668 93.2121 73.128 94.0685 73.5892 94.925C74.2809 96.1108 75.0715 97.0661 76.455 97.4614C78.3655 97.9884 80.836 97.9555 82.5489 96.8026ZM96.9768 92.7509C96.9438 92.7509 96.9438 92.7839 96.9109 92.7839C96.4827 93.0474 96.0215 93.3109 95.5603 93.5415C94.638 94.0027 93.6827 94.3979 92.7274 94.7273C90.9487 95.3532 89.104 95.9461 87.2923 96.4073C86.7982 96.5391 86.3041 96.6379 85.7771 96.7038C87.9841 98.1531 90.8499 98.7131 93.2875 97.5273C94.4404 97.0002 95.4286 96.1438 96.0544 95.0568C96.5156 94.365 96.7791 93.5744 96.9768 92.7509ZM97.372 91.038C97.3391 90.9722 97.3391 90.8733 97.3062 90.7745C97.2403 90.511 97.2074 90.2145 97.1415 89.951C97.0097 89.2593 96.878 88.5675 96.7462 87.8758C96.0874 84.3841 95.4615 80.8924 94.8027 77.3678C94.4403 75.3914 94.078 73.415 93.6827 71.4386C93.6498 71.208 93.7157 70.9445 93.9463 70.8127C96.6803 69.2975 99.4143 67.7493 102.148 66.2011C100.831 65.2458 99.5132 64.2576 98.2285 63.2694C95.3627 61.1283 92.4969 58.9213 89.6311 56.7802C86.9629 54.7708 84.2289 52.3991 80.7043 52.3662C78.7279 53.025 77.1138 53.5191 76.8502 56.9119C76.6526 59.3824 77.9702 62.2483 75.4009 64.9823L74.808 65.1141C74.9068 65.147 75.0056 65.1799 75.1044 65.2129C75.368 65.3117 75.4997 65.6411 75.4009 65.9376C75.3021 66.2011 74.9727 66.3328 74.6762 66.234C72.8645 65.4764 70.5257 66.267 69.5375 67.9799C68.5493 69.6598 69.0434 72.0974 70.5587 73.3162C72.1069 74.502 74.5774 74.3703 75.9609 72.9868C76.1585 72.7891 76.5209 72.7891 76.7185 72.9868C76.9162 73.1844 76.9162 73.5468 76.7185 73.7444C75.9938 74.4691 75.0056 74.9302 74.0174 75.095C74.0174 75.1279 74.0174 75.1938 74.0174 75.2267C73.3256 80.3654 72.2386 85.4053 71.2504 90.4781C71.2833 90.4781 71.2834 90.4781 71.3163 90.511C73.3586 91.7627 75.4997 92.9156 77.6738 93.9368C79.5184 94.7932 81.4948 95.7485 83.5701 95.8144C85.6782 95.8803 87.7205 95.2214 89.6969 94.6285C91.5416 94.0685 93.3534 93.4756 95.0992 92.6192C95.9227 92.1909 96.6474 91.6639 97.405 91.1698C97.3721 91.1039 97.372 91.071 97.372 91.038ZM149.714 74.6338C149.615 74.6997 149.549 74.7656 149.451 74.7985C149.516 75.7867 150.011 76.7749 151.163 76.7749C151.822 76.7749 152.283 76.2149 152.646 75.7538C153.074 75.1938 153.436 74.5679 153.7 73.942C154.952 71.0762 154.655 67.8152 154.326 64.7846C154.293 64.3564 154.26 63.7306 154.029 63.3023C154.029 63.6317 154.029 63.9611 154.029 64.2905C154.029 65.707 153.898 67.1234 153.535 68.474C152.975 70.8786 151.723 73.1844 149.714 74.6338ZM150.34 66.5305C150.604 66.6952 150.834 66.9258 150.999 67.1893C151.526 67.9799 151.229 69.001 150.735 69.7257C150.208 70.4504 149.451 70.9115 148.594 71.1751C148.528 71.5703 148.495 71.9656 148.462 72.3609C148.429 72.7891 148.364 73.2174 148.462 73.6456C148.561 74.0409 148.726 74.0738 149.055 73.8432C149.483 73.5797 149.846 73.2174 150.175 72.855C150.834 72.1633 151.361 71.3727 151.756 70.5163C152.712 68.5398 153.008 66.2999 153.008 64.1258C153.008 63.1047 153.008 61.7871 152.119 61.1612C151.888 60.9965 151.361 60.733 150.702 61.0295C150.768 61.3589 150.801 61.6553 150.834 61.9518L150.34 66.5305ZM145.794 61.3259C145.926 61.8859 146.025 62.4459 146.091 63.0059C146.189 63.8623 146.222 64.7188 146.189 65.5752C147.112 65.5423 148.034 65.6082 148.957 65.9046C149.088 65.9376 149.22 66.0034 149.385 66.0364C149.615 65.1141 149.78 64.1588 149.813 63.2035C149.813 62.4459 149.747 61.6883 149.582 60.9636C149.418 60.3707 149.22 59.5801 148.693 59.1848C148.133 58.7895 147.309 58.9213 146.815 59.3166C146.222 59.7777 145.992 60.5024 145.893 61.2271C145.794 61.26 145.794 61.293 145.794 61.3259ZM130.675 81.8477C131.597 82.77 132.552 83.6265 133.639 84.3512C135.715 85.8005 138.02 86.9205 140.458 87.6123C142.204 88.1064 144.773 88.4358 146.091 86.8217C146.124 86.7887 146.157 86.7558 146.189 86.7229C146.189 86.6899 146.189 86.657 146.189 86.657C146.552 85.1417 146.947 83.6265 147.309 82.1442C147.672 80.6619 148.133 79.1466 148.364 77.6314C148.462 76.9396 148.495 76.2479 148.429 75.5561C148.396 75.4244 148.397 75.2926 148.364 75.1938C148.364 75.1279 148.331 75.062 148.331 74.9961C148.265 74.9632 148.166 74.9302 148.1 74.8973C147.672 74.6667 147.474 74.2056 147.375 73.7444C147.342 73.5468 147.342 73.3821 147.342 73.1844C146.914 73.6785 146.321 73.942 145.695 73.9091C145.728 74.1067 145.761 74.2714 145.761 74.4691C145.926 76.3137 145.201 78.1255 144.542 79.8054C144.444 80.0689 144.18 80.2666 143.884 80.2007C143.62 80.1348 143.39 79.8054 143.488 79.5419C144.081 78.0596 144.74 76.5114 144.707 74.8973C144.674 73.6456 144.213 72.328 143.126 71.6362C142.665 71.3398 142.83 70.648 143.39 70.6151C144.51 70.5492 145.63 70.4833 146.782 70.3845C147.738 70.2857 148.759 70.121 149.484 69.4951C149.912 69.1328 150.538 68.2763 150.076 67.7163C149.648 67.1893 148.825 66.9587 148.199 66.8269C146.914 66.5305 145.564 66.6952 144.246 66.794C142.698 66.9587 141.15 67.2552 139.7 67.914C137.724 68.8034 136.307 70.5492 135.22 72.3939C134.858 72.9868 133.903 72.4597 134.265 71.8668C135.385 69.9892 136.802 68.2104 138.745 67.1893C139.009 67.0575 139.239 66.9587 139.503 66.8269C138.976 65.3117 138.811 63.6976 139.074 62.0835C139.107 61.7871 139.47 61.6224 139.733 61.6883C140.03 61.7541 140.161 62.0506 140.129 62.3471C139.898 63.7306 140.063 65.147 140.524 66.4317C141.71 66.0693 142.928 65.8387 144.147 65.707C144.477 65.674 144.773 65.6411 145.102 65.6082V65.5752C145.135 64.2247 145.102 62.7753 144.74 61.4247C144.707 61.3589 144.674 61.293 144.641 61.2271C143.917 59.7448 142.731 58.5589 140.985 58.5919C139.371 58.6248 137.856 59.5801 136.802 60.733C135.55 62.0835 134.726 63.8294 134.133 65.5423C133.573 67.1893 133.145 68.9351 132.948 70.681C132.75 72.3939 132.717 74.1067 132.519 75.8196C132.355 77.4008 132.091 79.0148 131.399 80.4642C131.202 80.9583 130.938 81.4195 130.675 81.8477ZM144.674 71.6362C144.938 71.9986 145.135 72.3609 145.3 72.7233C145.366 72.7562 145.465 72.7891 145.564 72.8221C146.255 72.9868 146.618 72.3938 146.881 71.8668C146.947 71.735 147.046 71.5703 147.112 71.4386C146.288 71.5374 145.465 71.6033 144.674 71.6362ZM146.486 89.6545C146.486 89.1275 146.42 88.6005 146.387 88.0734C145.63 88.7322 144.575 89.0287 143.587 89.0946C141.051 89.2922 138.481 88.2711 136.242 87.184C133.969 86.0641 131.861 84.6147 130.082 82.803C129.555 83.5935 129.061 84.3841 128.665 85.2405L128.534 85.2735C128.501 85.3394 128.501 85.4053 128.468 85.4711C128.105 86.624 128.105 87.6781 128.204 88.864C128.237 88.8969 128.27 88.8969 128.336 88.9628C130.444 90.9392 133.211 92.1251 136.077 92.4874C137.625 92.685 139.239 92.7509 140.82 92.7509C142.368 92.7509 143.917 92.5862 145.399 92.1251C145.432 92.0262 145.465 91.9274 145.531 91.8615C146.189 91.2686 146.519 90.5769 146.486 89.6545ZM81.7254 112.219C81.1325 112.285 80.5396 112.614 80.3749 113.24C80.309 113.503 80.4737 113.833 80.7701 113.899C80.8031 113.899 80.869 113.899 80.9019 113.899C80.9678 114.393 81.2313 114.821 81.6266 115.084C81.956 115.315 82.3842 115.381 82.7466 115.183C83.043 115.019 83.2077 114.689 83.2736 114.393C83.4383 113.899 83.3724 113.273 83.076 112.844C82.7795 112.449 82.2854 112.186 81.7254 112.219ZM82.2195 114.195C82.1536 114.327 82.1866 114.261 82.2195 114.195V114.195ZM82.2525 114.129C82.2525 114.162 82.2525 114.162 82.2195 114.195C82.2525 114.195 82.2525 114.195 82.2195 114.195C82.2195 114.195 82.2195 114.195 82.1866 114.195C82.1866 114.195 82.1537 114.195 82.1537 114.162C82.1537 114.162 82.1537 114.162 82.1866 114.162C82.1537 114.129 82.1207 114.096 82.1207 114.063V114.096C82.1207 114.096 82.1207 114.096 82.1207 114.063C82.0877 113.997 82.1207 114.03 82.1207 114.063L82.0878 114.03C82.0548 113.997 82.0548 113.964 82.0219 113.932V113.899C82.0219 113.866 82.0219 113.866 82.0219 113.833C82.0219 113.767 82.0219 113.668 82.0219 113.602C82.0219 113.503 81.9889 113.404 81.9231 113.306H81.956H81.9231H81.956H81.989C81.989 113.306 81.989 113.306 82.0219 113.339C82.0548 113.372 82.0878 113.404 82.0548 113.372C82.0878 113.404 82.0877 113.404 82.1207 113.437C82.1207 113.437 82.1207 113.437 82.1207 113.404C82.1207 113.404 82.1207 113.437 82.1537 113.437C82.1866 113.503 82.1866 113.503 82.1866 113.47C82.1866 113.503 82.2195 113.503 82.2195 113.536C82.2195 113.536 82.2195 113.569 82.2525 113.569C82.2525 113.602 82.2524 113.602 82.2854 113.635C82.2854 113.668 82.2854 113.701 82.3184 113.734C82.3184 113.8 82.3184 113.899 82.3184 113.964C82.2525 114.03 82.2525 114.096 82.2525 114.129ZM82.3184 114.261C82.2854 114.261 82.2854 114.228 82.2854 114.228C82.2854 114.228 82.2854 114.228 82.3184 114.261ZM85.9418 117.588C85.7441 116.699 85.81 115.842 85.8759 114.953C85.9418 114.096 85.9747 113.174 85.7441 112.35C85.6453 111.988 85.4806 111.626 85.25 111.329C85.0194 111 84.5583 110.703 84.4924 110.275C84.3936 109.847 84.4924 109.353 84.5253 108.925C84.5583 108.43 84.6242 107.969 84.723 107.475C84.9206 106.52 85.3818 105.828 85.9088 105.038C86.4359 104.214 86.5676 103.358 86.1724 102.468C85.843 101.777 85.1841 101.151 85.2171 100.327C85.25 99.6354 84.163 99.6354 84.1301 100.327C84.0971 101.085 84.4924 101.711 84.8877 102.337C85.3159 103.061 85.5465 103.588 85.0853 104.379C84.6241 105.136 84.0971 105.795 83.8336 106.685C83.5701 107.574 83.4712 108.529 83.4383 109.452C83.4054 109.88 83.3724 110.308 83.5042 110.703C83.6689 111.165 83.9983 111.461 84.2948 111.823C84.8218 112.482 84.8877 113.306 84.8877 114.096C84.8547 114.953 84.7559 115.809 84.7889 116.666C84.8218 117.654 85.1183 118.576 85.4806 119.498C86.2712 121.475 87.6217 123.649 86.93 125.856C86.6994 126.515 87.7535 126.811 87.9841 126.152C88.6099 124.209 87.8853 122.265 87.0947 120.487C86.6006 119.498 86.1394 118.576 85.9418 117.588ZM76.2903 69.0998C74.8409 68.0457 72.9304 67.7493 71.2175 68.2104C70.5587 68.4081 70.8222 69.4292 71.5139 69.2645C72.9633 68.8692 74.5115 69.1657 75.7303 70.0551C75.9609 70.2198 76.3232 70.088 76.4879 69.8575C76.6526 69.5939 76.5538 69.2975 76.2903 69.0998ZM82.1207 104.576C82.4501 104.445 82.7466 104.214 82.9442 103.918C83.1089 103.621 83.2077 103.292 83.2407 102.962C83.2736 102.633 83.2077 102.337 83.076 102.04C82.9113 101.678 82.5489 101.48 82.1537 101.447C81.7913 101.414 81.3631 101.579 81.1325 101.875C80.9348 102.073 80.836 102.337 80.7701 102.567C80.7372 102.6 80.7372 102.6 80.7043 102.633C80.5725 102.765 80.5066 102.897 80.4407 103.094C80.3419 103.358 80.3749 103.687 80.4737 103.951C80.7372 104.544 81.4948 104.807 82.1207 104.576ZM81.4619 103.457C81.4948 103.424 81.5607 103.391 81.5937 103.358C81.6266 103.292 81.6595 103.259 81.6925 103.193C81.6925 103.16 81.7254 103.16 81.7254 103.127C81.7913 103.028 81.8242 102.897 81.7913 102.798C81.7913 102.765 81.7913 102.765 81.8243 102.732C81.8243 102.699 81.8572 102.666 81.8572 102.633C81.8572 102.633 81.8572 102.6 81.8901 102.6L81.9231 102.567C81.956 102.567 81.956 102.534 81.989 102.534C82.0219 102.534 82.0219 102.534 82.0548 102.501H82.0878C82.1207 102.567 82.1207 102.6 82.1207 102.666C82.1207 102.765 82.1207 102.831 82.1207 102.929C82.0877 103.028 82.0878 103.094 82.0548 103.193C82.0219 103.226 82.0219 103.259 81.989 103.292C81.956 103.325 81.956 103.358 81.9231 103.391C81.9231 103.391 81.923 103.358 81.956 103.358C81.956 103.358 81.956 103.358 81.9231 103.391C81.8901 103.424 81.8901 103.424 81.8572 103.457C81.8242 103.489 81.7913 103.489 81.7584 103.489C81.7254 103.489 81.6925 103.522 81.6266 103.522C81.5936 103.522 81.5607 103.522 81.5278 103.522C81.4949 103.522 81.4948 103.522 81.4619 103.489H81.4289C81.4619 103.489 81.4619 103.489 81.4619 103.457ZM84.2289 54.9355C84.4924 54.8696 84.6901 54.5402 84.6242 54.2767C84.5254 53.9802 84.2618 53.8485 83.9654 53.8814C83.8666 53.9144 83.7677 53.9144 83.6689 53.9473C83.603 53.9473 83.5701 53.9802 83.5042 53.9802C83.5042 53.9802 83.4712 53.9802 83.4383 53.9802C83.2407 54.0132 83.043 54.0132 82.8454 54.0461C82.4501 54.0791 82.0219 54.0461 81.6266 54.0132C81.3301 53.9802 81.0666 54.2767 81.0995 54.5402C81.0995 54.8696 81.3301 55.0673 81.6266 55.0673C82.483 55.1661 83.3724 55.1002 84.2289 54.9355ZM82.2525 58.0648C82.0878 57.8343 81.7913 57.7025 81.4949 57.8672C81.2643 57.999 81.0995 58.3613 81.2972 58.6248C82.0219 59.5801 82.7466 60.5024 83.4383 61.4577C83.603 61.6883 83.8995 61.82 84.1959 61.6553C84.4265 61.5236 84.5912 61.1612 84.3936 60.8977C83.7018 59.9424 82.9771 59.0201 82.2525 58.0648ZM86.6665 58.9542C85.9418 58.1307 85.2171 57.3072 84.4595 56.5166C84.2618 56.319 83.8665 56.319 83.7018 56.5166C83.5042 56.7472 83.5042 57.0437 83.7018 57.2743C84.4265 58.0978 85.1512 58.9213 85.9088 59.7119C86.1065 59.9095 86.5018 59.9095 86.6665 59.7119C86.8641 59.4813 86.8641 59.1848 86.6665 58.9542ZM79.5514 55.0343C79.2549 55.1332 79.1231 55.3967 79.1561 55.6931C79.2549 56.3849 79.3867 57.1096 79.222 57.7684C79.0902 58.2954 78.8267 58.6907 78.3326 58.9213C78.069 59.053 78.0032 59.4154 78.1349 59.6789C78.2996 59.9424 78.5961 60.0083 78.8926 59.8766C79.5843 59.5471 80.0455 58.8554 80.2431 58.1307C80.4737 57.2413 80.3419 56.319 80.2102 55.4296C80.1443 55.1002 79.782 54.9355 79.5514 55.0343Z" fill="black"/>
<path d="M68.6153 29.2749C68.78 29.5055 68.6483 29.9008 68.4177 30.0325C68.1542 30.1973 67.8578 30.0655 67.6601 29.8349C66.2107 27.9573 67.4954 25.0586 69.0436 23.6421C69.8342 22.9175 70.9541 22.3245 72.0741 22.6869C72.6011 22.8516 72.9635 23.2469 73.3588 23.6092C73.8199 24.0374 74.2152 24.1362 74.7752 23.8068C75.6316 23.3127 76.2575 22.4563 77.1139 21.9292C78.0033 21.3693 78.9915 21.0399 80.0456 20.9081C82.0221 20.6446 84.0643 21.3034 85.4149 22.7857C86.6337 24.1692 87.2925 26.1127 86.8313 27.9573C86.3372 29.9996 84.5914 31.5149 82.6809 32.2066C81.5609 32.6019 80.3091 32.7666 79.1233 32.7007C78.5304 32.6678 77.9375 32.536 77.3775 32.569C76.7846 32.6019 76.4881 32.9642 76.2246 33.4254C75.6975 34.3148 75.2693 35.2371 74.5776 36.0277C73.8858 36.8182 72.9635 37.3782 71.9423 37.5429C70.8224 37.7076 69.7024 37.3782 68.7142 36.9171C68.1213 36.6535 67.5942 36.3241 67.0342 35.9618C66.606 35.6983 66.1778 35.4348 65.8154 35.0724C64.9919 34.2489 65.0578 33.2278 65.5519 32.2066C66.1119 31.0537 66.8366 29.9996 67.6271 28.9785C67.7918 28.7479 68.0883 28.6161 68.3848 28.7808C68.6154 28.9126 68.7471 29.2749 68.5824 29.5384C67.8248 30.5267 67.1331 31.5807 66.5401 32.7007C66.2766 33.1948 66.0789 33.6889 66.4742 34.183C66.7707 34.5783 67.2319 34.8089 67.6601 35.0724C68.6483 35.6983 69.7353 36.3241 70.9212 36.4888C72.0082 36.6206 72.9635 36.1924 73.6882 35.4348C74.2811 34.8089 74.7093 34.0183 75.1375 33.2607C75.5658 32.4372 76.1257 31.6466 77.1139 31.5149C77.641 31.449 78.168 31.5478 78.728 31.5807C79.2551 31.6137 79.7821 31.6137 80.3091 31.5807C81.2973 31.5149 82.3185 31.2843 83.2079 30.7902C84.7561 29.9667 85.9748 28.4844 85.9748 26.6726C85.9748 25.0586 85.0525 23.4774 83.702 22.6539C82.1867 21.6987 80.2762 21.7316 78.6621 22.3904C77.8386 22.7528 77.1469 23.2798 76.4881 23.8727C75.8622 24.4656 75.1046 25.1245 74.1823 25.0915C73.7211 25.0915 73.3258 24.8939 72.9635 24.6303C72.6341 24.3668 72.3706 23.9715 71.9753 23.7739C71.2176 23.3786 70.3283 23.9715 69.8012 24.4986C68.5824 25.6186 67.4954 27.8256 68.6153 29.2749ZM102.149 39.157C103.367 38.3994 104.883 39.3546 105.08 40.6723C105.179 41.4628 104.916 42.1546 104.487 42.7804C104.092 43.3734 104.092 44.0651 104.685 44.4933C105.146 44.8227 105.904 44.8557 106.134 45.4815C106.365 46.0745 106.134 46.7662 105.772 47.2274C105.014 48.1826 103.598 48.6109 102.478 48.1497C101.062 47.5897 100.271 45.9098 100.469 44.4274C100.501 44.131 100.337 43.7028 99.9416 43.7357C99.2828 43.8016 98.591 43.8016 97.9322 43.7028C97.5039 43.6369 96.5816 43.571 96.351 43.1098C96.1534 42.7145 96.2851 41.9569 96.351 41.5287C96.4498 41.0017 96.5816 40.4417 96.8451 39.9476C97.3063 39.0582 98.031 38.3335 99.0192 38.1359C99.9086 37.9382 100.831 38.1688 101.424 38.8935C101.852 39.4205 102.643 38.6629 102.182 38.1359C101.391 37.1476 100.04 36.8512 98.8215 37.0818C97.471 37.3453 96.384 38.3335 95.824 39.5523C95.5276 40.2111 95.3299 40.9028 95.2311 41.6275C95.1652 42.2863 95.0664 43.1428 95.4288 43.7357C95.824 44.3945 96.6146 44.5921 97.3063 44.7239C98.1628 44.8886 99.0521 44.9545 99.9086 44.8557C99.7439 44.6251 99.5463 44.3945 99.3816 44.1639C99.151 45.9098 99.8098 47.6885 101.259 48.7426C102.643 49.7308 104.553 49.5991 105.871 48.6109C107.09 47.6885 107.979 45.4815 106.53 44.2957C106.233 44.0651 105.871 43.9333 105.541 43.7686C105.476 43.7357 105.245 43.6039 105.245 43.6039C105.212 43.4722 105.541 43.1098 105.607 43.011C106.068 42.2534 106.233 41.2981 106.101 40.4087C105.739 38.3994 103.4 37.1476 101.589 38.2347C100.996 38.597 101.556 39.5193 102.149 39.157ZM70.8553 32.536C70.7565 32.536 70.6906 32.536 70.5918 32.536C70.5259 32.536 70.46 32.536 70.3941 32.569C70.3282 32.6019 70.2624 32.6348 70.2294 32.6678C70.1635 32.7007 70.1306 32.7666 70.1306 32.8325C70.0977 32.8984 70.0647 32.9642 70.0977 33.0301C70.0977 33.0631 70.0977 33.1289 70.1306 33.1619C70.1636 33.2607 70.1965 33.3266 70.2624 33.3925C70.2953 33.4254 70.3283 33.4583 70.3612 33.4913C70.46 33.5242 70.5259 33.5572 70.6247 33.5572C70.7236 33.5572 70.7894 33.5572 70.8882 33.5572C70.9541 33.5572 71.02 33.5572 71.0859 33.5242C71.1517 33.4913 71.2176 33.4583 71.2506 33.4254C71.3164 33.3925 71.3494 33.3266 71.3494 33.2607C71.3823 33.1948 71.4153 33.1289 71.3823 33.0631C71.3823 33.0301 71.3823 32.9642 71.3494 32.9313C71.3165 32.8325 71.2835 32.7666 71.2176 32.7007C71.1847 32.6678 71.1518 32.6348 71.1188 32.6019C71.053 32.5689 70.9541 32.536 70.8553 32.536ZM79.6833 25.2233C79.5845 25.3221 79.5186 25.388 79.4198 25.4868C79.3539 25.5197 79.3209 25.5856 79.3209 25.6515C79.288 25.7174 79.2551 25.7833 79.288 25.8491C79.288 25.915 79.288 25.9809 79.3209 26.0468C79.3539 26.1127 79.3868 26.1785 79.4198 26.2115C79.4527 26.2444 79.4857 26.2774 79.5186 26.3103C79.6174 26.3432 79.6833 26.3762 79.7821 26.3762C79.815 26.3762 79.8809 26.3762 79.9139 26.3432C80.0127 26.3103 80.0786 26.2774 80.1444 26.2115C80.2433 26.1127 80.3092 26.0468 80.408 25.948C80.4739 25.915 80.5068 25.8491 80.5068 25.7833C80.5397 25.7174 80.5727 25.6515 80.5397 25.5856C80.5397 25.5197 80.5397 25.4539 80.5068 25.388C80.4739 25.3221 80.4409 25.2562 80.408 25.2233C80.375 25.1903 80.3421 25.1574 80.3091 25.1245C80.2103 25.0915 80.1445 25.0586 80.0456 25.0586C80.0127 25.0586 79.9468 25.0586 79.9139 25.0915C79.815 25.1245 79.7492 25.1574 79.6833 25.2233ZM74.7093 27.9903C74.8081 27.8914 74.874 27.8256 74.9728 27.7267C75.0387 27.6938 75.0717 27.6279 75.0717 27.562C75.1046 27.4961 75.1375 27.4303 75.1046 27.3644C75.1046 27.2985 75.1046 27.2326 75.0717 27.1667C75.0387 27.1009 75.0058 27.035 74.9728 27.002C74.9399 26.9691 74.9069 26.9362 74.874 26.9032C74.7752 26.8703 74.7093 26.8373 74.6105 26.8373C74.5776 26.8373 74.5117 26.8373 74.4787 26.8703C74.3799 26.9032 74.314 26.9362 74.2482 27.002C74.1493 27.1009 74.0834 27.1667 73.9846 27.2656C73.9187 27.2985 73.8858 27.3644 73.8858 27.4303C73.8528 27.4962 73.8199 27.562 73.8529 27.6279C73.8529 27.6938 73.8528 27.7597 73.8858 27.8256C73.9187 27.8914 73.9517 27.9573 73.9846 27.9903C74.0176 28.0232 74.0505 28.0561 74.0835 28.0891C74.1823 28.122 74.2481 28.155 74.347 28.155C74.3799 28.155 74.4458 28.155 74.4787 28.122C74.5775 28.122 74.6434 28.0561 74.7093 27.9903ZM104.026 54.046C104.125 53.9472 104.191 53.8813 104.29 53.7825C104.356 53.7495 104.388 53.6837 104.388 53.6178C104.421 53.5519 104.454 53.486 104.421 53.4201C104.421 53.3543 104.421 53.2884 104.388 53.2225C104.356 53.1566 104.323 53.0907 104.29 53.0578C104.257 53.0249 104.224 52.9919 104.191 52.959C104.092 52.926 104.026 52.8931 103.927 52.8931C103.894 52.8931 103.828 52.8931 103.796 52.926C103.697 52.959 103.631 52.9919 103.565 53.0578C103.466 53.1566 103.4 53.2225 103.301 53.3213C103.236 53.3542 103.203 53.4201 103.203 53.486C103.17 53.5519 103.137 53.6178 103.17 53.6837C103.17 53.7495 103.17 53.8154 103.203 53.8813C103.236 53.9472 103.269 54.0131 103.301 54.046C103.334 54.0789 103.367 54.1119 103.4 54.1448C103.499 54.1778 103.565 54.2107 103.664 54.2107C103.697 54.2107 103.763 54.2107 103.796 54.1778C103.894 54.1778 103.96 54.1119 104.026 54.046ZM71.8435 17.1529C71.9423 17.0541 72.0082 16.9882 72.107 16.8894C72.1729 16.8564 72.2058 16.7906 72.2058 16.7247C72.2388 16.6588 72.2717 16.5929 72.2388 16.527C72.2388 16.4612 72.2388 16.3953 72.2058 16.3294C72.1729 16.2635 72.14 16.1976 72.107 16.1647C72.0741 16.1318 72.0411 16.0988 72.0082 16.0659C71.9094 16.0329 71.8435 16 71.7447 16C71.7117 16 71.6459 16 71.6129 16.0329C71.5141 16.0659 71.4482 16.0988 71.3823 16.1647C71.2835 16.2635 71.2177 16.3294 71.1188 16.4282C71.053 16.4612 71.02 16.527 71.02 16.5929C70.9871 16.6588 70.9541 16.7247 70.9871 16.7906C70.9871 16.8564 70.9871 16.9223 71.02 16.9882C71.0529 17.0541 71.0859 17.12 71.1188 17.1529C71.1518 17.1858 71.1847 17.2188 71.2176 17.2517C71.3165 17.2847 71.3824 17.3176 71.4812 17.3176C71.5141 17.3176 71.58 17.3176 71.6129 17.2847C71.6788 17.2517 71.7776 17.2188 71.8435 17.1529ZM100.996 40.4087C100.996 40.3758 100.996 40.3758 100.996 40.3428C100.996 40.3758 100.996 40.4417 101.029 40.4746C100.996 40.4417 100.996 40.4417 100.996 40.4087C100.996 40.4417 100.996 40.4746 100.996 40.5405C100.996 40.5076 100.996 40.4746 100.996 40.4087C100.996 40.4746 100.963 40.5076 100.963 40.5734C100.963 40.5405 100.996 40.5075 101.029 40.4746C100.996 40.5075 100.963 40.5405 100.93 40.5734C100.963 40.5405 100.963 40.5405 100.996 40.5076C100.963 40.5405 100.93 40.5734 100.897 40.6064C100.93 40.5734 100.963 40.5734 100.963 40.5734C100.93 40.6064 100.864 40.6064 100.831 40.6393H100.864C100.93 40.6064 100.996 40.6064 101.061 40.5405C101.127 40.5076 101.16 40.4417 101.193 40.3758C101.226 40.3099 101.259 40.244 101.259 40.1781C101.259 40.1123 101.259 40.0464 101.259 39.9476C101.226 39.9146 101.226 39.8487 101.193 39.8158C101.16 39.7499 101.094 39.684 100.996 39.6182C100.963 39.5852 100.897 39.5852 100.864 39.5523C100.765 39.5193 100.666 39.5193 100.567 39.5523C100.502 39.5852 100.436 39.5852 100.37 39.6511C100.37 39.6511 100.337 39.6511 100.337 39.684C100.304 39.717 100.238 39.7499 100.205 39.7829C100.172 39.8158 100.172 39.8158 100.139 39.8487C100.106 39.9146 100.04 39.9476 100.007 40.0134C99.9745 40.0793 99.9745 40.1123 99.9416 40.1781V40.2111C99.9086 40.277 99.9086 40.3429 99.9086 40.4417C99.9086 40.4746 99.9086 40.5076 99.9086 40.5076C99.9086 40.5734 99.9086 40.6393 99.9416 40.6723V40.7052C99.9745 40.7711 99.9745 40.837 100.04 40.9028C100.073 40.9687 100.139 41.0017 100.205 41.0346C100.271 41.0675 100.337 41.1005 100.403 41.1005C100.469 41.1005 100.534 41.1005 100.633 41.1005C100.666 41.0675 100.732 41.0675 100.765 41.0346C100.831 41.0017 100.897 40.9358 100.963 40.837C100.996 40.804 100.996 40.7381 101.029 40.7052C101.029 40.6064 101.029 40.5076 100.996 40.4087ZM108.44 36.8512C108.539 36.8512 108.605 36.8512 108.704 36.8512C108.77 36.8512 108.835 36.8512 108.901 36.8182C108.967 36.7853 109.033 36.7524 109.066 36.7194C109.132 36.6865 109.165 36.6206 109.165 36.5547C109.198 36.4888 109.231 36.423 109.198 36.3571C109.198 36.3241 109.198 36.2583 109.165 36.2253C109.132 36.1265 109.099 36.0606 109.033 35.9947C109 35.9618 108.967 35.9289 108.934 35.8959C108.835 35.863 108.77 35.83 108.671 35.83C108.572 35.83 108.506 35.83 108.407 35.83C108.341 35.83 108.275 35.83 108.21 35.863C108.144 35.8959 108.078 35.9289 108.045 35.9618C107.979 35.9947 107.946 36.0606 107.946 36.1265C107.913 36.1924 107.88 36.2583 107.913 36.3241C107.913 36.3571 107.913 36.423 107.946 36.4559C107.979 36.5547 108.012 36.6206 108.078 36.6865C108.111 36.7194 108.144 36.7524 108.177 36.7853C108.243 36.8512 108.341 36.8512 108.44 36.8512Z" fill="black"/>
</svg>
