<svg width="51" height="50" viewBox="0 0 51 50" fill="none" xmlns="http://www.w3.org/2000/svg">
<path d="M42.3654 39.8134C23.3267 48.8165 11.5111 41.2839 3.94758 36.7087C3.47955 36.4204 2.68407 36.7761 3.37426 37.5638C5.89405 40.5997 14.1519 47.9169 24.9309 47.9169C35.7173 47.9169 42.1342 42.0689 42.9369 41.0487C43.7342 40.0372 43.171 39.4792 42.3652 39.8134H42.3654ZM47.7123 36.8793C47.2011 36.2178 44.6035 36.0944 42.9687 36.294C41.3314 36.4878 38.8739 37.482 39.0875 38.079C39.1972 38.3027 39.421 38.2024 40.5457 38.1019C41.6736 37.9901 44.8331 37.5939 45.4914 38.449C46.1528 39.3101 44.4837 43.4119 44.1789 44.0734C43.8843 44.7349 44.2914 44.9055 44.8446 44.4649C45.3903 44.0245 46.3781 42.8839 47.041 41.2698C47.6993 39.6469 48.1008 37.383 47.7122 36.8793H47.7123Z" fill="#FF9900"/>
<path fill-rule="evenodd" clip-rule="evenodd" d="M29.564 21.4421C29.564 23.8043 29.624 25.7744 28.4224 27.8722C27.4525 29.578 25.9162 30.6269 24.1996 30.6269C21.8564 30.6269 20.4918 28.853 20.4918 26.2349C20.4918 21.0667 25.1522 20.1287 29.564 20.1287V21.4421ZM35.7178 36.2215C35.3144 36.5796 34.7307 36.6053 34.2759 36.3664C32.2504 34.6949 31.8898 33.9189 30.7741 32.324C27.4268 35.7183 25.0579 36.7331 20.715 36.7331C15.5824 36.7331 11.5828 33.5862 11.5828 27.2838C11.5828 22.3632 14.2694 19.0115 18.0885 17.3742C21.4016 15.9242 26.0278 15.6684 29.564 15.2677V14.4831C29.564 13.0417 29.6754 11.3361 28.8258 10.0911C28.079 8.97387 26.6543 8.51332 25.4011 8.51332C23.0752 8.51332 20.9982 9.69868 20.4918 12.1548C20.3886 12.7007 19.9854 13.238 19.4361 13.2636L13.5139 12.6326C13.0162 12.5215 12.4669 12.1208 12.6042 11.3617C13.9689 4.23226 20.4487 2.08301 26.2507 2.08301C29.2204 2.08301 33.0998 2.86767 35.443 5.10213C38.4127 7.85664 38.1294 11.5323 38.1294 15.532V24.9813C38.1294 27.8212 39.3139 29.0662 40.4296 30.6014C40.8243 31.1471 40.9103 31.804 40.4124 32.2131C39.1679 33.245 36.9535 35.1639 35.7348 36.2386L35.7176 36.2215" fill="black"/>
<path d="M42.3654 39.8134C23.3267 48.8165 11.5111 41.2839 3.94758 36.7087C3.47955 36.4204 2.68407 36.7761 3.37426 37.5638C5.89405 40.5997 14.1519 47.9169 24.9309 47.9169C35.7173 47.9169 42.1342 42.0689 42.9369 41.0487C43.7342 40.0372 43.171 39.4792 42.3652 39.8134H42.3654ZM47.7123 36.8793C47.2011 36.2178 44.6035 36.0944 42.9687 36.294C41.3314 36.4878 38.8739 37.482 39.0875 38.079C39.1972 38.3027 39.421 38.2024 40.5457 38.1019C41.6736 37.9901 44.8331 37.5939 45.4914 38.449C46.1528 39.3101 44.4837 43.4119 44.1789 44.0734C43.8843 44.7349 44.2914 44.9055 44.8446 44.4649C45.3903 44.0245 46.3781 42.8839 47.041 41.2698C47.6993 39.6469 48.1008 37.383 47.7122 36.8793H47.7123Z" fill="#FF9900"/>
<path fill-rule="evenodd" clip-rule="evenodd" d="M29.564 21.4421C29.564 23.8043 29.624 25.7744 28.4224 27.8722C27.4525 29.578 25.9162 30.6269 24.1996 30.6269C21.8564 30.6269 20.4918 28.853 20.4918 26.2349C20.4918 21.0667 25.1522 20.1287 29.564 20.1287V21.4421ZM35.7178 36.2215C35.3144 36.5796 34.7307 36.6053 34.2759 36.3664C32.2504 34.6949 31.8898 33.9189 30.7741 32.324C27.4268 35.7183 25.0579 36.7331 20.715 36.7331C15.5824 36.7331 11.5828 33.5862 11.5828 27.2838C11.5828 22.3632 14.2694 19.0115 18.0885 17.3742C21.4016 15.9242 26.0278 15.6684 29.564 15.2677V14.4831C29.564 13.0417 29.6754 11.3361 28.8258 10.0911C28.079 8.97387 26.6543 8.51332 25.4011 8.51332C23.0752 8.51332 20.9982 9.69868 20.4918 12.1548C20.3886 12.7007 19.9854 13.238 19.4361 13.2636L13.5139 12.6326C13.0162 12.5215 12.4669 12.1208 12.6042 11.3617C13.9689 4.23226 20.4487 2.08301 26.2507 2.08301C29.2204 2.08301 33.0998 2.86767 35.443 5.10213C38.4127 7.85664 38.1294 11.5323 38.1294 15.532V24.9813C38.1294 27.8212 39.3139 29.0662 40.4296 30.6014C40.8243 31.1471 40.9103 31.804 40.4124 32.2131C39.1679 33.245 36.9535 35.1639 35.7348 36.2386L35.7176 36.2215" fill="black"/>
</svg>
