<svg width="200" height="201" viewBox="0 0 200 201" fill="none" xmlns="http://www.w3.org/2000/svg">
<g clip-path="url(#clip0_27158_87545)">
<path d="M48.9154 86.8319C41.0355 71.6497 33.1557 56.5088 25.3171 41.3267C38.849 44.0083 52.3396 46.69 65.8715 49.3716C68.1818 49.8254 70.781 50.2379 72.72 48.9177C74.1227 47.9689 74.824 46.3187 75.5666 44.8335C78.4545 39.0576 82.7452 34.0244 87.9846 30.2701C92.2752 27.2172 97.9685 24.9894 102.672 27.2584C104.404 28.0836 105.848 29.4863 107.54 30.3939C113.316 33.6119 120.494 31.1778 126.518 28.5374C132.582 25.897 139.431 23.0503 145.536 25.6082C147.682 26.5158 149.497 28.0011 151.436 29.28C159.563 34.6845 170.001 36.7061 176.685 43.8434C182.172 49.6604 184.152 58.4892 181.718 66.1215C177.551 79.1583 162.163 87.0794 160.471 100.653C160.141 103.21 160.347 105.81 159.976 108.367C158.738 116.289 151.601 122.353 143.845 124.375C136.089 126.396 127.838 125.035 120.123 122.807C97.556 116.247 77.2581 102.097 63.3549 83.1189" fill="#16202C"/>
<path d="M170.991 123.96C170.909 120.618 170.331 117.194 169.589 113.934C166.494 100.402 158.78 87.9432 147.971 79.2382L147.682 79.6096C147.723 75.1127 147.888 70.8633 148.259 65.7889V65.7064C149.332 66.2014 150.611 66.2839 151.642 65.7476C153.334 64.9224 154.241 62.8184 153.664 61.0444C153.128 59.3942 151.312 58.239 149.58 58.404L151.601 47.1L146.898 46.1099C145 45.6973 142.979 46.1923 141.246 46.9762C135.965 49.369 130.726 51.8856 126.064 53.9897C126.064 53.9897 130.354 57.7852 132.458 59.6417C132.458 59.6417 128.25 69.7082 126.476 74.04C115.667 71.9772 104.899 69.9556 94.0905 67.8928C88.7272 66.8615 83.2815 65.8301 77.877 66.3664C75.0303 66.6139 72.1424 67.3565 69.5845 68.6355C69.0069 68.1817 68.4294 67.6453 67.9756 67.0677L68.2643 68.0991C67.3155 67.0265 65.5827 66.8202 64.2626 67.3978C64.0563 67.4803 63.8912 67.6041 63.685 67.6866C63.3962 67.109 62.8599 66.6139 62.1998 66.4489C61.2921 66.2014 60.3432 66.4902 59.6006 67.0265C58.4455 66.0777 56.7127 65.9126 55.31 66.5315C55.0625 66.6553 54.815 66.779 54.5674 66.944C53.8661 66.1602 52.5459 66.0364 51.597 66.5727C50.6894 67.0678 50.1531 68.0579 49.9055 69.0893L21.1503 62.4471C17.8498 61.7045 15.1681 65.1287 16.7359 68.1404L47.2651 127.054C44.171 128.374 41.1593 129.818 38.1476 131.262V131.674C39.6741 138.152 41.0768 142.153 43.4284 148.383L43.0983 148.919C48.0903 148.837 53.041 148.383 57.9504 147.682L61.9935 155.479C63.4787 158.367 67.6043 158.326 69.0895 155.438L74.7828 144.051C78.2483 143.061 81.6312 141.906 84.9729 140.586C87.6133 151.725 92.1927 162.369 98.5461 171.857C106.137 170.537 113.398 167.484 119.628 162.946C119.463 162.369 119.256 161.832 119.091 161.255L138.605 176.272C140.256 177.551 142.566 177.303 143.969 175.777L158.945 159.274C160.471 157.583 160.265 154.984 158.532 153.54L132.623 132.046C133.696 131.674 134.769 131.221 135.8 130.767C137.533 132.417 139.884 133.407 142.236 133.531C143.927 133.613 145.784 133.283 147.269 134.108C148.259 134.686 148.919 135.717 149.703 136.543C151.354 138.317 153.746 139.389 156.139 139.637C158.573 139.926 161.007 139.472 163.318 138.564C165.834 137.574 168.227 136.006 169.671 133.737C171.528 130.932 171.074 127.219 170.991 123.96Z" fill="#111217"/>
<path d="M171.486 127.095C171.404 122.557 170.95 118.142 169.919 113.728C168.227 106.302 165.092 99.1647 160.884 92.8113C157.377 87.5306 153.045 82.7449 148.094 78.7843C148.177 74.7 148.301 70.6569 148.589 66.6139C149.002 66.7376 149.414 66.7788 149.827 66.7788C150.487 66.7788 151.106 66.6551 151.725 66.3663C153.664 65.4174 154.737 62.9833 154.035 60.9205C153.623 59.7241 152.715 58.7752 151.56 58.2389C154.778 55.5985 158.12 49.1214 155.438 45.6559C151.849 41.0352 147.228 42.8917 146.279 36.6621C143.144 38.2298 142.814 42.603 143.845 44.2119C144.175 44.707 144.505 45.0783 144.876 45.4083C143.721 45.4496 142.566 45.7384 141.493 46.1509C139.637 46.8935 137.822 47.8012 136.006 48.6263C132.5 50.2353 128.993 51.9268 125.486 53.4945C125.115 53.6595 125.074 54.2371 125.362 54.4846C127.384 56.2999 129.405 58.0739 131.468 59.8891C129.818 63.8084 128.209 67.7278 126.6 71.6471C126.353 72.2246 126.146 72.8022 125.899 73.3798C125.857 73.3385 125.775 73.2973 125.692 73.2973C116.41 71.5233 108.778 70.1618 99.495 68.4291C94.9156 67.5627 90.3362 66.5725 85.6743 66.0362C81.4662 65.5412 77.1756 65.5412 73.05 66.6551C71.6061 67.0676 70.2034 67.604 68.8832 68.2641C68.7594 68.1403 68.6356 68.0578 68.5531 67.934C68.5119 67.8928 68.5119 67.8103 68.4294 67.769C67.3567 66.6139 65.5827 66.2838 64.0975 66.7788C63.9325 66.8201 63.7675 66.9026 63.6024 66.9851C63.3136 66.6138 62.9424 66.3251 62.5298 66.1188C61.4984 65.665 60.302 65.8713 59.3531 66.4076C57.8679 65.4587 55.9289 65.4587 54.3612 66.3251C53.5361 65.7475 52.4634 65.5824 51.5145 65.9537C50.4006 66.3663 49.6168 67.3565 49.2042 68.4704L20.9852 61.9519C19.2112 61.5394 17.4372 62.1995 16.3233 63.6022C15.2094 65.0461 15.0444 66.9026 15.8695 68.5116L46.11 126.847C45.2024 127.219 44.2948 127.631 43.4284 128.044C41.4481 128.951 39.5091 129.859 37.5288 130.849C37.405 130.89 37.3225 131.014 37.2813 131.138C33.8158 127.012 28.9476 124.042 23.6669 122.846C26.2247 132.169 28.7826 141.452 31.2992 150.776C33.6508 151.353 36.0436 151.972 38.3952 151.683C40.0454 151.477 41.6544 150.817 42.8096 149.703C47.6365 149.579 52.4634 149.208 57.2491 148.548L61.0858 155.933C61.8697 157.459 63.4374 158.408 65.1702 158.408H65.2114C66.9442 158.408 68.5119 157.418 69.2958 155.891L74.8653 144.752C77.4644 144.01 80.0223 143.143 82.5389 142.236C83.0752 142.029 83.6528 141.823 84.1891 141.617C84.8079 144.175 85.5506 146.733 86.3757 149.249C88.8098 156.51 92.069 163.482 96.112 169.96C96.6071 170.785 97.1434 171.569 97.6798 172.394C97.8448 172.641 98.0923 172.724 98.3811 172.682C98.6286 172.641 98.8762 172.6 99.165 172.559C97.1847 177.221 96.112 182.295 96.0708 187.328C96.0708 187.741 96.112 188.236 96.4833 188.483C96.8959 188.772 97.4735 188.442 97.886 188.153C105.395 182.666 112.903 177.221 120.412 171.734C120.824 171.404 121.278 171.115 121.567 170.661C122.557 169.093 121.196 167.113 119.917 165.793C119.504 165.339 119.05 164.926 118.596 164.473C118.968 164.225 119.298 163.978 119.669 163.73C119.834 163.606 119.958 163.4 119.958 163.194L137.945 177.014C138.771 177.633 139.761 177.963 140.751 177.963C142.03 177.963 143.267 177.468 144.175 176.478L159.151 159.976C160.017 159.027 160.43 157.83 160.347 156.552C160.265 155.273 159.687 154.159 158.697 153.334L133.614 132.499C134.232 132.252 134.851 132.004 135.47 131.716C136.501 132.623 137.739 133.325 139.059 133.778C139.967 134.108 140.916 134.273 141.906 134.356C142.896 134.438 143.928 134.315 144.918 134.397C145.949 134.48 146.857 134.81 147.599 135.552C148.301 136.254 148.878 137.079 149.621 137.78C151.065 139.1 152.921 139.967 154.819 140.379C158.903 141.204 163.524 139.967 166.907 137.574C168.475 136.46 169.877 134.975 170.661 133.201C171.404 131.097 171.528 129.075 171.486 127.095ZM136.13 49.9053C137.863 49.0801 139.596 48.2963 141.328 47.5124C142.937 46.8111 144.753 46.3573 146.527 46.7286C146.65 46.7698 146.733 46.7286 146.815 46.7286C148.177 47.5537 149.291 48.2962 148.961 50.9779C148.672 52.9994 147.145 55.1447 148.754 57.8264L148.961 57.9088C148.631 57.9914 148.383 58.2801 148.466 58.6102C148.548 58.9402 148.837 59.1878 149.167 59.1053C150.693 58.8165 152.385 59.8479 152.88 61.2918C153.375 62.777 152.591 64.5923 151.189 65.2524C149.786 65.9125 147.888 65.4174 147.022 64.0972C146.815 63.8084 146.444 63.726 146.155 63.9322C145.867 64.1385 145.784 64.5098 145.99 64.7985C146.362 65.3349 146.857 65.7888 147.393 66.1188C147.063 70.6157 146.898 75.1538 146.857 79.6919C146.774 79.5269 146.609 79.4444 146.362 79.4444C142.607 79.5681 138.812 79.4032 135.058 78.9906C132.17 78.6606 128.044 78.248 126.889 74.9888C126.848 74.865 126.765 74.7412 126.641 74.6999C128.457 70.2443 130.313 65.7888 132.17 61.3744C132.376 60.8793 132.582 60.3429 132.788 59.8479C132.871 59.6416 132.788 59.394 132.623 59.229C130.726 57.5375 128.828 55.8873 126.889 54.1958C130.024 52.7519 133.077 51.308 136.13 49.9053ZM67.5217 68.4704C67.563 68.5116 67.563 68.5529 67.6043 68.5942C68.4706 69.6256 69.6258 70.2857 70.9047 70.657C72.3074 71.0283 73.8339 71.1107 75.2366 71.5233C75.8554 71.7295 76.7218 72.1834 76.6806 72.9672C76.6806 73.6273 75.938 73.9986 75.4016 74.2049C73.9577 74.7412 72.3487 74.7825 70.9047 74.3287C70.1621 74.0811 69.5021 73.6686 68.8007 73.3386C68.1406 73.0498 67.4392 72.926 66.8204 73.3386C66.2428 73.7511 65.9953 74.4524 65.624 75.03C65.2114 75.6901 64.6751 76.309 64.0975 76.8453C63.2724 77.6292 61.3746 78.7018 60.7971 77.0516C60.5908 76.474 60.632 75.8552 60.6733 75.2776C60.7558 74.4525 60.8796 73.6685 61.0446 72.8434C61.3746 71.1932 62.0348 69.4605 63.4375 68.4291C64.6751 67.5215 66.4491 67.3565 67.5217 68.4704ZM61.3747 66.9851C61.8697 66.9851 62.3235 67.1914 62.6123 67.5215C61.7872 68.1816 61.1271 69.0892 60.6733 70.0793C59.9307 71.7708 59.5594 73.7098 59.4769 75.5251C59.4769 75.8138 59.4769 76.1027 59.5182 76.3915C59.2294 76.804 58.8993 77.1753 58.4042 77.4229C57.6204 77.8354 56.7952 77.5467 56.3414 76.8453C55.8051 76.0202 55.8876 74.9887 56.1351 74.0811C56.4239 73.0497 56.8365 72.0184 57.2903 71.0282C57.7029 70.1206 58.1567 69.2129 58.7755 68.4291C59.3944 67.6865 60.302 66.9851 61.3747 66.9851ZM58.363 67.1089C57.7029 67.769 57.2078 68.5942 56.754 69.4193C56.0526 70.7395 55.4338 72.1009 55.0213 73.5449C54.65 74.7825 54.5262 76.1027 55.1037 77.2579C54.4437 77.3816 53.7836 76.9278 53.4123 76.3915C52.8759 75.6076 52.6284 74.5762 52.5047 73.6273C52.2159 71.6883 52.5872 69.543 53.9899 68.099C55.1038 66.9026 56.919 66.4076 58.363 67.1089ZM51.432 67.2739C51.927 66.8613 52.7109 66.7376 53.3298 66.9851C51.6383 68.5528 50.9782 70.9457 51.1844 73.256C51.1844 73.4623 51.2257 73.7098 51.267 73.9161C51.102 74.0399 50.9782 74.0811 50.8544 73.9986C50.5244 73.7098 50.4831 72.9672 50.4006 72.5547C50.2768 71.8121 50.1531 71.1107 50.1531 70.3681C50.1943 69.2542 50.5243 67.9752 51.432 67.2739ZM54.1961 147.558C50.7307 147.97 47.2651 148.177 43.7997 148.3C43.7997 148.177 43.7172 148.012 43.6759 147.888C43.3459 147.021 43.0158 146.155 42.6858 145.289C42.1082 143.762 41.5719 142.194 41.0355 140.627C40.5405 139.1 40.0454 137.533 39.6328 136.006C39.3853 135.14 39.179 134.315 38.9727 133.448C38.849 132.871 38.6427 132.293 38.5602 131.716C41.2418 130.395 43.9647 129.116 46.7289 127.92L56.754 147.269C55.9289 147.31 55.0625 147.434 54.1961 147.558ZM75.7316 143.061L79.0321 136.501C79.4859 135.594 80.3111 134.975 81.2599 134.727C81.7963 134.603 82.3738 134.603 82.9102 134.768C83.2402 136.584 83.5703 138.399 83.9828 140.214C81.3012 141.246 78.537 142.195 75.7316 143.061ZM118.679 162.699C112.697 166.948 105.848 169.836 98.6286 171.156C94.5855 165.05 91.2438 158.449 88.7272 151.601C86.7882 146.361 85.3443 140.957 84.3129 135.47L118.308 161.626C118.473 161.997 118.555 162.369 118.679 162.699ZM159.11 156.386C159.192 157.294 158.862 158.202 158.243 158.862L143.267 175.364C142.112 176.643 140.132 176.808 138.729 175.777L84.8079 134.315C83.9828 133.696 83.034 133.366 82.0026 133.366C81.6725 133.366 81.3012 133.407 80.9712 133.489C79.651 133.778 78.4958 134.686 77.877 135.924L68.2644 155.19C67.6868 156.345 66.5729 157.047 65.294 157.047C65.294 157.047 65.2939 157.047 65.2527 157.047C63.9737 157.047 62.8598 156.387 62.2823 155.231L17.0247 67.8927C16.4058 66.7376 16.5296 65.3349 17.3547 64.3035C18.1798 63.2721 19.4588 62.7771 20.7377 63.1071L48.9566 69.6256C48.8741 70.4919 48.9154 71.317 49.0392 72.1834C49.1629 72.9673 49.2455 73.7923 49.6168 74.4937C49.9881 75.1125 50.6481 75.5251 51.3907 75.3188C51.432 75.3188 51.4733 75.2776 51.5145 75.2776C52.0096 77.0516 53.0822 78.7843 55.1037 78.578C55.3925 78.5368 55.6401 78.4543 55.8876 78.3718C56.4239 78.8256 57.084 79.0731 57.7854 78.9906C58.5692 78.9081 59.3118 78.5368 59.8482 77.9592C60.1782 78.578 60.6733 79.0318 61.4572 79.1556C63.2312 79.4856 64.8401 78.0004 65.8715 76.7627C66.1603 76.4327 66.4078 76.0614 66.6554 75.6901C66.8617 75.3188 67.0267 74.9475 67.2742 74.6175C67.8105 73.9161 68.8832 74.9063 69.4608 75.1538C71.0698 75.8964 72.9263 76.1026 74.659 75.7313C74.7828 75.6901 74.9478 75.6489 75.0716 75.6077L119.669 85.8803C120.989 86.1691 121.979 87.2005 122.227 88.5619C122.474 89.9234 121.897 91.2023 120.783 91.9449L104.9 102.465C103.662 103.29 102.919 104.569 102.837 106.054C102.754 107.54 103.373 108.901 104.487 109.85L157.831 154.117C158.615 154.654 159.068 155.479 159.11 156.386ZM105.725 109.107C106.962 109.107 108.2 109.066 109.396 109.066C112.367 109.066 115.378 109.107 118.349 109.231C118.555 109.85 118.968 110.386 119.463 110.799C118.679 111.541 118.308 112.697 118.555 113.769C118.844 114.924 119.834 115.75 120.948 115.997C120.907 116.286 120.948 116.616 121.072 116.905C121.361 117.647 121.979 118.06 122.681 118.349C123.547 118.679 124.455 118.926 125.321 119.133C126.229 119.38 127.178 119.586 128.085 119.751C129.199 119.916 130.396 119.999 131.592 119.875C131.014 123.506 131.963 127.425 134.274 130.272C134.356 130.354 134.397 130.437 134.48 130.519C133.82 130.808 133.16 131.055 132.458 131.303L105.725 109.107ZM121.856 105.889C122.268 105.931 122.557 105.477 122.433 105.106C122.227 104.28 122.639 103.331 123.423 102.96C123.877 102.713 124.413 102.754 124.867 102.919C124.909 103.043 124.991 103.166 125.032 103.29C125.197 103.579 125.486 103.62 125.734 103.538C125.857 103.662 126.022 103.703 126.146 103.703C126.6 103.95 127.054 104.198 127.549 104.445C127.714 104.528 127.838 104.569 128.044 104.528C128.168 104.487 128.333 104.363 128.415 104.239C128.539 103.95 128.498 103.538 128.209 103.373C127.508 103.043 126.889 102.713 126.229 102.3C126.146 102.218 126.064 102.176 125.94 102.135C125.94 101.392 126.724 100.691 127.466 100.609C128.869 100.402 130.354 101.31 131.468 102.053C133.779 103.538 135.841 105.642 137.038 108.158C138.152 110.469 138.358 113.315 137.079 115.584C135.759 117.895 133.077 118.844 130.561 118.844C128.787 118.844 127.054 118.431 125.362 117.977C124.62 117.771 123.795 117.606 123.052 117.276C122.64 117.111 121.773 116.492 122.268 115.956C122.598 115.584 122.392 114.842 121.814 114.883C120.907 114.966 119.958 114.429 119.71 113.48C119.504 112.614 120.04 111.748 120.824 111.376C121.361 111.129 121.113 110.428 120.659 110.263C119.71 109.85 119.133 108.695 119.339 107.705C119.669 106.508 120.783 105.807 121.856 105.889ZM170.249 128.456C170.166 130.354 169.795 132.252 168.681 133.82C166.453 136.955 162.286 138.77 158.532 139.1C156.552 139.265 154.53 139.018 152.715 138.151C151.849 137.739 151.065 137.244 150.363 136.584C149.662 135.924 149.126 135.14 148.466 134.48C147.764 133.778 146.98 133.283 145.99 133.077C145.041 132.871 144.051 132.912 143.102 132.912C141.163 132.953 139.389 132.582 137.698 131.633C134.439 129.735 132.706 126.022 132.623 122.392C132.582 121.525 132.665 120.618 132.83 119.751C134.48 119.421 136.006 118.72 137.203 117.4C138.853 115.584 139.431 113.15 139.142 110.799C142.69 109.437 146.774 109.52 150.322 110.881C150.487 111.5 150.652 112.078 150.776 112.697C151.106 113.934 151.477 115.296 152.426 116.203C153.251 116.946 154.448 117.193 155.479 116.781C156.552 116.327 157.088 115.213 156.634 114.141C156.139 112.903 154.819 112.036 153.746 111.335C152.962 110.84 152.137 110.386 151.312 110.015C150.652 107.416 149.992 104.817 149.291 102.218C149.084 101.434 147.888 101.764 148.094 102.548C148.672 104.858 149.291 107.168 149.868 109.479C148.713 109.107 147.475 108.819 146.279 108.695C143.762 108.406 141.205 108.736 138.853 109.602C138.771 109.19 138.647 108.819 138.482 108.406C137.244 105.229 134.727 102.589 131.84 100.774C130.313 99.8248 128.25 98.7522 126.435 99.536C125.569 99.9073 124.909 100.732 124.744 101.599C124.083 101.475 123.382 101.558 122.763 101.888C121.732 102.424 121.154 103.538 121.154 104.652C119.71 104.858 118.431 105.931 118.143 107.416C118.101 107.622 118.101 107.787 118.101 107.993C115.997 107.911 113.935 107.87 111.83 107.87C109.396 107.87 107.004 107.87 104.569 107.952C104.239 107.416 104.116 106.756 104.116 106.096C104.157 105.023 104.734 104.074 105.601 103.497L121.484 92.9763C123.052 91.9449 123.795 90.1709 123.465 88.3144C123.135 86.4991 121.814 85.0964 119.999 84.6426L76.9281 74.6999C77.5882 74.2049 78.042 73.5035 77.877 72.5547C77.4644 70.3681 74.8653 70.1619 73.1326 69.8318C72.0187 69.6256 70.9873 69.4192 70.0384 68.9241C74.494 66.8613 79.8572 66.5314 84.6429 67.0264C89.2223 67.4802 93.7192 68.4703 98.2161 69.3367C102.713 70.2031 107.251 71.0695 111.748 71.8946C116.822 72.8435 120.247 73.4211 125.321 74.37C125.362 74.37 125.362 74.37 125.404 74.37C125.321 74.535 125.28 74.7 125.197 74.865C124.991 75.3188 125.404 75.6077 125.816 75.6077C127.219 78.8256 130.849 79.6507 134.026 80.022C138.11 80.5583 142.236 80.7233 146.32 80.5995C146.733 80.5995 146.939 80.2696 146.898 79.9395C147.104 80.187 147.517 80.2695 147.764 80.0632C151.56 83.1986 154.984 86.788 157.954 90.7485C162.286 96.6068 165.628 103.208 167.691 110.18C168.887 114.182 169.754 118.349 170.042 122.515C170.207 124.537 170.331 126.517 170.249 128.456ZM151.807 111.541C153.128 112.243 156.717 114.347 155.397 115.461C154.736 115.997 153.746 115.75 153.251 115.172C152.467 114.347 152.261 113.15 151.972 112.078C151.89 111.871 151.849 111.706 151.807 111.541ZM147.104 60.8792C148.589 60.2192 150.24 60.2604 151.684 61.003C151.972 61.1681 152.055 61.5807 151.89 61.8694C151.725 62.1582 151.312 62.2407 151.023 62.0757C150.528 61.8282 149.91 61.6632 149.373 61.6632C149.208 61.6632 149.043 61.6632 148.878 61.6632C148.837 61.6632 148.754 61.6632 148.713 61.6632L148.548 61.7044C148.383 61.7456 148.259 61.7869 148.094 61.8281C148.012 61.8694 147.929 61.8694 147.847 61.9106C147.806 61.9106 147.764 61.9519 147.723 61.9519C147.764 61.9107 147.764 61.9519 147.682 61.9519C147.352 62.0757 147.022 62.0344 146.815 61.7457C146.733 61.4569 146.815 61.003 147.104 60.8792ZM146.238 51.0191C146.073 50.7304 146.197 50.359 146.444 50.1527C146.568 50.0702 146.774 50.029 146.939 50.0702C147.104 50.1115 147.228 50.2352 147.31 50.359C147.641 50.9366 147.847 51.5554 147.888 52.2155C147.888 52.3806 147.806 52.5456 147.723 52.6694C147.599 52.7931 147.434 52.8344 147.269 52.8344C147.104 52.8344 146.939 52.7519 146.815 52.6694C146.692 52.5456 146.65 52.3806 146.65 52.2155C146.65 52.1743 146.65 52.1331 146.65 52.0918C146.609 51.8443 146.527 51.5968 146.444 51.3492C146.362 51.2667 146.32 51.1429 146.238 51.0191ZM143.226 48.6676C143.144 48.5438 143.144 48.3376 143.144 48.1725C143.185 48.0075 143.309 47.8837 143.432 47.8012C143.556 47.7187 143.762 47.7187 143.928 47.7187C144.258 47.8012 144.588 47.8837 144.876 48.0075C145.083 48.09 145.289 48.1725 145.454 48.255C145.578 48.2963 145.701 48.42 145.784 48.5438C145.867 48.6676 145.867 48.8326 145.867 48.9564C145.867 49.1214 145.784 49.2039 145.701 49.3276C145.619 49.4514 145.413 49.4927 145.248 49.4927C145.083 49.4927 144.918 49.4101 144.794 49.3276C144.753 49.2864 144.753 49.2864 144.711 49.2451C144.34 49.0801 143.927 48.9564 143.556 48.8739C143.432 48.9151 143.309 48.7914 143.226 48.6676ZM139.183 53.3295C139.183 53.3708 139.183 53.4533 139.183 53.3295V53.3295ZM138.977 53.0406C138.894 52.9581 138.977 52.9994 138.977 53.0406V53.0406ZM138.688 52.7519C138.605 52.6694 138.647 52.7106 138.688 52.7519V52.7519ZM137.368 52.3806C137.492 52.3806 137.615 52.3394 137.739 52.3806C137.739 52.3806 137.78 52.3806 137.822 52.3806C137.822 52.3806 137.822 52.3806 137.863 52.3806C137.904 52.3806 137.904 52.3806 137.945 52.3806C138.069 52.4219 138.193 52.4631 138.275 52.5044C138.275 52.5044 138.317 52.5043 138.317 52.5456C138.358 52.5869 138.44 52.5868 138.482 52.6281C138.523 52.6693 138.564 52.6694 138.605 52.7107C138.647 52.7107 138.647 52.7519 138.688 52.7519C138.77 52.8344 138.853 52.9169 138.936 52.9994C138.936 53.0407 138.977 53.0407 138.977 53.0819C139.018 53.1232 139.018 53.1645 139.059 53.2057C139.101 53.247 139.101 53.2882 139.142 53.3707C139.142 53.3707 139.142 53.3708 139.142 53.3295C139.142 53.3708 139.183 53.412 139.183 53.412C139.307 53.7008 139.596 53.9483 139.926 53.8246C140.214 53.7421 140.462 53.3707 140.338 53.0819C140.091 52.4631 139.678 51.9268 139.101 51.5555C138.564 51.2254 137.904 51.0604 137.327 51.1429C137.162 51.1842 136.997 51.1842 136.873 51.3079C136.749 51.4317 136.666 51.5968 136.708 51.7618C136.708 51.9268 136.749 52.0918 136.873 52.2155C137.038 52.298 137.203 52.3806 137.368 52.3806ZM143.309 55.4748C143.309 55.5161 143.309 55.5161 143.309 55.4748C143.267 55.4335 143.267 55.4335 143.309 55.4748C143.309 55.4748 143.267 55.4748 143.309 55.4748ZM141.741 54.5259C141.741 54.1958 142.03 53.9071 142.36 53.9071C143.804 53.8658 145.083 55.1035 145.124 56.5062C145.124 56.8362 144.835 57.125 144.505 57.125C144.175 57.125 143.886 56.8362 143.886 56.5062C143.886 56.4649 143.886 56.4237 143.886 56.4237C143.886 56.3412 143.845 56.2586 143.845 56.1761C143.845 56.1349 143.845 56.1349 143.804 56.0936C143.804 56.0524 143.762 56.0524 143.762 56.0111C143.721 55.9286 143.68 55.8461 143.597 55.7636L143.556 55.7223C143.515 55.681 143.474 55.6398 143.432 55.5986C143.391 55.5573 143.35 55.5161 143.309 55.4748L143.267 55.4335C143.267 55.4335 143.267 55.4335 143.309 55.4335C143.226 55.3922 143.144 55.3098 143.061 55.2685C143.02 55.2273 142.814 55.186 143.02 55.2685C142.979 55.2685 142.937 55.2272 142.896 55.2272C142.814 55.186 142.731 55.186 142.649 55.186C142.566 55.186 142.484 55.186 142.401 55.186C141.988 55.1448 141.741 54.8559 141.741 54.5259ZM140.462 63.1896C140.503 63.1484 140.545 63.1071 140.586 63.0246C140.751 62.7771 140.957 62.5295 141.081 62.282C141.246 61.9932 141.617 61.9107 141.947 62.0757C142.236 62.2407 142.319 62.6532 142.153 62.942C141.988 63.2308 141.823 63.4784 141.658 63.726C141.452 64.0147 141.205 64.3448 140.916 64.5511C140.503 64.8399 139.967 64.7573 139.637 64.386C139.348 64.0559 139.266 63.6435 139.266 63.2309C139.266 62.9009 139.554 62.6121 139.884 62.6121C140.173 62.5296 140.462 62.8596 140.462 63.1896ZM141.411 82.4561C140.627 83.8175 139.266 84.6839 137.739 84.8489C136.378 84.9727 134.975 84.4364 134.026 83.4463C133.614 83.0337 133.284 82.3323 132.747 82.0848C132.17 81.8373 131.592 82.456 131.138 82.7448C128.704 84.2713 125.362 82.7449 124.95 79.8982C124.826 79.1144 126.022 78.7843 126.146 79.5681C126.394 81.0946 127.631 82.2498 129.24 82.126C130.684 82.0022 131.757 80.2696 133.283 80.9709C133.902 81.2597 134.315 81.8372 134.727 82.3323C135.223 82.9098 135.841 83.3224 136.584 83.4874C138.11 83.8587 139.637 83.1162 140.38 81.796C140.751 81.1359 141.823 81.7547 141.411 82.4561Z" fill="#DCDCDC"/>
<path d="M139.513 200.531C136.625 198.633 133.696 196.736 130.808 194.838C130.148 194.384 130.767 193.353 131.427 193.765C134.315 195.663 137.244 197.561 140.132 199.458C140.792 199.912 140.173 200.985 139.513 200.531ZM127.343 191.909C129.282 192.527 131.345 192.775 133.366 192.651C134.15 192.61 134.15 191.372 133.366 191.414C130.973 191.537 128.58 191.125 126.353 190.258C125.94 190.093 125.404 190.588 125.61 191.001C126.683 193.6 128.127 195.993 129.901 198.138C130.107 198.386 130.561 198.344 130.767 198.138C131.014 197.891 130.973 197.519 130.767 197.272C129.405 195.663 128.25 193.848 127.343 191.909ZM104.858 55.7231C102.713 54.4442 100.568 53.2065 98.4224 51.9276C97.721 51.515 97.1022 52.5877 97.8035 53.0003C99.9488 54.2792 102.094 55.5169 104.239 56.7958C104.941 57.2084 105.56 56.1357 104.858 55.7231ZM93.843 49.741C96.6484 50.1948 99.4538 50.3187 102.259 50.0299C103.043 49.9474 103.043 48.7097 102.259 48.7922C99.1237 49.1223 95.9058 48.9572 92.8116 48.3384C92.2753 48.2146 91.8627 48.7509 92.1103 49.246C93.678 52.0926 95.2457 54.898 96.7721 57.7447C97.1434 58.446 98.2161 57.8272 97.8448 57.1259C96.5246 54.6505 95.2044 52.2164 93.843 49.741ZM177.799 26.0602C182.543 29.4432 187.329 32.7849 192.073 36.1679C192.733 36.6217 193.352 35.549 192.692 35.0952C187.947 31.7122 183.162 28.3705 178.417 24.9875C177.757 24.5337 177.138 25.6064 177.799 26.0602ZM172.6 21.2333C172.353 20.4907 171.156 20.7795 171.404 21.5634C172.6 25.4414 174.539 29.0306 177.097 32.1248C177.592 32.7436 178.459 31.8773 177.964 31.2585C175.529 28.3293 173.714 24.9051 172.6 21.2333ZM179.366 21.9759C179.366 21.6046 179.077 21.3984 178.747 21.3571C176.025 21.0683 173.384 20.1193 171.115 18.5929C170.455 18.1391 169.836 19.2118 170.496 19.6656C172.972 21.3158 175.818 22.2647 178.747 22.5948C179.077 22.636 179.366 22.306 179.366 21.9759ZM196.116 95.865C193.476 94.1735 190.835 92.4408 188.154 90.7493C187.494 90.3368 186.875 91.3681 187.535 91.8219C190.175 93.5134 192.816 95.2462 195.497 96.9377C196.157 97.3915 196.776 96.3188 196.116 95.865ZM181.388 88.5628C184.647 89.3879 187.906 90.1717 191.165 90.9968C191.949 91.2031 192.279 90.0067 191.495 89.8004C187.7 88.8516 183.904 87.9027 180.109 86.9538C179.614 86.8301 179.077 87.4076 179.408 87.8614C181.264 90.6256 183.121 93.3485 185.018 96.1126C185.472 96.7727 186.545 96.1539 186.091 95.4938C184.523 93.1834 182.955 90.8731 181.388 88.5628ZM21.4803 35.3428C17.4785 32.5374 13.4767 29.7732 9.47488 26.9678C8.81479 26.514 8.19595 27.5867 8.85605 28.0405C12.8579 30.8459 16.8597 33.6101 20.8615 36.4155C21.4803 36.8693 22.0991 35.7966 21.4803 35.3428ZM5.47309 25.1526C8.89732 26.1428 12.3628 27.1742 15.787 28.1643C16.5709 28.3706 16.8597 27.1741 16.1171 26.9678C12.239 25.8127 8.31974 24.6987 4.4417 23.5436C3.90537 23.3786 3.49278 23.9975 3.74032 24.4513C5.47306 27.8755 7.20579 31.2584 8.93854 34.6826C9.30984 35.384 10.3825 34.7652 10.0112 34.0638C8.48476 31.0934 6.99956 28.123 5.47309 25.1526ZM92.3165 6.42242C94.7919 7.94888 97.2259 9.43409 99.7013 10.9606C100.361 11.3731 101.021 10.3005 100.32 9.88797C97.8448 8.3615 95.4107 6.87629 92.9354 5.34983C92.234 4.93727 91.6152 6.00986 92.3165 6.42242ZM85.9219 2.75069C88.3972 3.82334 91.0789 4.31845 93.7605 4.23594C94.5444 4.19469 94.5444 2.95701 93.7605 2.99827C90.5425 3.12204 87.4071 2.33818 84.6429 0.7292C84.1066 0.399153 83.4878 1.05919 83.7766 1.59551C85.4681 4.44216 87.1183 7.28879 88.8098 10.1354C89.2224 10.8368 90.295 10.218 89.8824 9.51661C88.5623 7.20628 87.2421 4.97851 85.9219 2.75069Z" fill="#DCDCDC"/>
</g>
<defs>
<clipPath id="clip0_27158_87545">
<rect width="200" height="200" fill="white" transform="translate(0 0.640625)"/>
</clipPath>
</defs>
</svg>
