<svg width="50" height="51" viewBox="0 0 50 51" fill="none" xmlns="http://www.w3.org/2000/svg">
<path d="M19.25 4.30617C22.8081 2.2519 27.1919 2.25189 30.75 4.30617L40.4006 9.87797C43.9587 11.9322 46.1506 15.7287 46.1506 19.8373V30.9809C46.1506 35.0894 43.9587 38.8859 40.4006 40.9401L30.75 46.5119C27.1919 48.5662 22.8081 48.5662 19.25 46.5119L9.59937 40.9401C6.04125 38.8859 3.84937 35.0894 3.84937 30.9809V19.8373C3.84937 15.7287 6.04125 11.9322 9.59937 9.87797L19.25 4.30617Z" fill="#F9F9F9" stroke="#DBDFE9"/>
<path opacity="0.1" d="M24.9756 35.6758C24.0371 35.6782 23.1273 35.3614 22.403 34.7802L17.9131 31.2072C17.4558 30.8331 17.0895 30.3646 16.8408 29.8356C16.5921 29.3067 16.4672 28.7305 16.4752 28.1488V21.1458C16.4713 20.3944 16.6873 19.6574 17.0978 19.0212C17.5084 18.3851 18.0966 17.876 18.7935 17.5538L23.3225 15.5529C23.8508 15.3128 24.4268 15.1884 25.0098 15.1884C25.5929 15.1884 26.1688 15.3128 26.6972 15.5529L31.1479 17.5538C31.8557 17.8678 32.4561 18.3732 32.8775 19.01C33.2989 19.6468 33.5236 20.3882 33.5249 21.1458V28.1488C33.5248 28.734 33.3914 29.3119 33.1343 29.8408C32.8772 30.3697 32.5028 30.8364 32.038 31.2072L27.5384 34.7802C26.8179 35.3614 25.9111 35.6783 24.9756 35.6758Z" fill="#99A1B7"/>
<path d="M25.0001 35.7216C24.0445 35.7223 23.1183 35.4036 22.3796 34.8199L17.8063 31.223C17.3313 30.851 16.9487 30.3815 16.6867 29.8487C16.4246 29.316 16.2897 28.7335 16.2918 28.1441V21.0941C16.2922 20.3325 16.5196 19.5869 16.947 18.946C17.3744 18.305 17.9838 17.7956 18.703 17.4781L23.2764 15.4638C23.8163 15.2219 24.4046 15.0966 25.0001 15.0966C25.5956 15.0966 26.1839 15.2219 26.7238 15.4638L31.2972 17.4781C32.0163 17.7956 32.6258 18.305 33.0532 18.946C33.4806 19.5869 33.708 20.3325 33.7084 21.0941V28.1441C33.7105 28.7335 33.5755 29.316 33.3135 29.8487C33.0514 30.3815 32.6689 30.851 32.1939 31.223L27.6205 34.8199C26.8819 35.4036 25.9557 35.7223 25.0001 35.7216ZM25.0001 16.5381C24.621 16.5407 24.2471 16.6226 23.9041 16.7779L19.3307 18.7825C18.871 18.9858 18.4812 19.3114 18.2076 19.721C17.9339 20.1307 17.7877 20.6071 17.7863 21.0941V28.1441C17.7951 28.5148 17.889 28.8791 18.0613 29.2107C18.2335 29.5424 18.4799 29.8332 18.7827 30.0624L23.3561 33.6593C23.8289 34.0301 24.4201 34.2326 25.03 34.2326C25.6398 34.2326 26.231 34.0301 26.7039 33.6593L31.2772 30.0624C31.5801 29.8332 31.8264 29.5424 31.9987 29.2107C32.171 28.8791 32.2648 28.5148 32.2736 28.1441V21.0941C32.2722 20.6071 32.1261 20.1307 31.8524 19.721C31.5787 19.3114 31.189 18.9858 30.7292 18.7825L26.0961 16.7779C25.7531 16.6226 25.3791 16.5407 25.0001 16.5381ZM24.203 27.8755L28.3678 23.9717C28.5078 23.8368 28.5864 23.6539 28.5864 23.4633C28.5864 23.2727 28.5078 23.0898 28.3678 22.9549C28.2277 22.8202 28.0378 22.7446 27.8397 22.7446C27.6417 22.7446 27.4518 22.8202 27.3117 22.9549L23.6948 26.3696L22.6985 25.4104C22.6405 25.32 22.5625 25.2431 22.47 25.1852C22.3775 25.1273 22.2728 25.0898 22.1634 25.0755C22.0541 25.0611 21.9428 25.0703 21.8376 25.1023C21.7324 25.1342 21.6358 25.1882 21.5548 25.2604C21.4739 25.3326 21.4105 25.4211 21.3693 25.5197C21.3281 25.6182 21.3101 25.7243 21.3166 25.8304C21.323 25.9364 21.3538 26.0398 21.4067 26.133C21.4595 26.2262 21.5332 26.307 21.6224 26.3696L23.1468 27.8755C23.2168 27.9448 23.3005 28 23.3928 28.0378C23.4852 28.0757 23.5845 28.0955 23.6849 28.0961C23.7821 28.094 23.8779 28.0735 23.9668 28.0356C24.0557 27.9978 24.136 27.9434 24.203 27.8755Z" fill="#99A1B7"/>
</svg>
