<svg width="41" height="41" viewBox="0 0 41 41" fill="none" xmlns="http://www.w3.org/2000/svg">
<path d="M9.66786 2.57629H16.1778L9.41979 22.6113C9.38523 22.7136 9.33495 22.8099 9.27073 22.8968C9.20665 22.9837 9.12937 23.0599 9.04164 23.1228C8.95391 23.1858 8.85711 23.2348 8.75425 23.2678C8.65139 23.3008 8.54414 23.3178 8.43633 23.3178H3.36996C3.2055 23.3178 3.04324 23.2788 2.89693 23.2034C2.75047 23.1283 2.62404 23.0193 2.52813 22.8855C2.43217 22.7517 2.36939 22.597 2.34497 22.4342C2.3205 22.2714 2.33535 22.105 2.38787 21.9491L8.68412 3.28226C8.7185 3.17996 8.76883 3.0837 8.83318 2.9968C8.89726 2.90989 8.97481 2.83371 9.06227 2.77073C9.15 2.70775 9.24681 2.6588 9.34966 2.6258C9.45252 2.5928 9.55978 2.57574 9.66758 2.57574V2.57602L9.66786 2.57629Z" fill="url(#paint0_linear_27158_134246)"/>
<path d="M21.6684 23.3178H15.8229C15.7577 23.3178 15.6926 23.3117 15.6282 23.2994C15.5641 23.2873 15.5012 23.2691 15.4404 23.2452C15.3796 23.2213 15.3213 23.1916 15.266 23.1569C15.2108 23.122 15.159 23.0821 15.1112 23.0376L8.47776 16.8425C8.4076 16.777 8.35874 16.6919 8.3375 16.5983C8.31629 16.5047 8.32375 16.4068 8.35892 16.3175C8.39409 16.2282 8.45534 16.1515 8.53469 16.0975C8.61417 16.0436 8.70795 16.0147 8.80393 16.0147H19.127L21.6679 23.3181L21.6684 23.3178Z" fill="#0078D4"/>
<path d="M16.2013 2.57631L11.6442 16.0161L19.0901 16.0145L21.6441 23.3178H15.8207C15.7604 23.3173 15.7002 23.3118 15.6408 23.3011C15.5814 23.2903 15.5231 23.2747 15.4664 23.2538C15.3528 23.2124 15.2472 23.1518 15.154 23.0747L10.6762 18.8956L9.42265 22.5923C9.3902 22.6847 9.34565 22.7725 9.2901 22.8531C9.17875 23.0152 9.02645 23.1449 8.84869 23.229C8.76019 23.2709 8.6665 23.3007 8.5701 23.3178H3.3731C3.20699 23.3184 3.04308 23.2788 2.89539 23.2023C2.74769 23.1259 2.62054 23.0151 2.52471 22.8792C2.42888 22.7433 2.36717 22.5863 2.34481 22.4216C2.32253 22.2567 2.34017 22.0889 2.39624 21.9323L8.68231 3.2963C8.71503 3.19207 8.76426 3.09389 8.82807 3.00533C8.8916 2.91678 8.96915 2.83867 9.05716 2.77432C9.14516 2.70997 9.24307 2.65991 9.34675 2.62636C9.45043 2.59281 9.55906 2.57576 9.66824 2.57631H16.2016H16.2013Z" fill="url(#paint1_linear_27158_134246)"/>
<path d="M24.2791 21.9491C24.3317 22.1051 24.3465 22.2713 24.3223 22.4342C24.2978 22.597 24.2352 22.7516 24.1394 22.8855C24.0435 23.0192 23.9171 23.1282 23.7707 23.2033C23.6243 23.2785 23.4621 23.3178 23.2976 23.3178H16.0421C16.2065 23.3178 16.3688 23.2785 16.5154 23.2034C16.6617 23.1283 16.7882 23.0192 16.8842 22.8855C16.9801 22.7518 17.0429 22.597 17.0673 22.4342C17.0918 22.2714 17.077 22.105 17.0244 21.9491L10.7279 3.28171C10.6586 3.07608 10.5265 2.89736 10.3503 2.77073C10.2629 2.70775 10.166 2.65907 10.0635 2.62607C9.96088 2.59307 9.85363 2.57629 9.74609 2.57629H17.0013C17.1091 2.57629 17.2161 2.59307 17.319 2.62607C17.4216 2.65907 17.5184 2.70803 17.6061 2.77073C17.6935 2.83371 17.7708 2.90989 17.8349 2.99652C17.899 3.08315 17.949 3.17941 17.9837 3.28171L24.2802 21.9491H24.2791Z" fill="url(#paint2_linear_27158_134246)"/>
<defs>
<linearGradient id="paint0_linear_27158_134246" x1="12.0437" y1="4.11364" x2="5.27831" y2="24.0991" gradientUnits="userSpaceOnUse">
<stop stop-color="#114A8B"/>
<stop offset="1" stop-color="#0669BC"/>
</linearGradient>
<linearGradient id="paint1_linear_27158_134246" x1="14.1532" y1="13.4257" x2="12.5884" y2="13.9565" gradientUnits="userSpaceOnUse">
<stop stop-opacity="0.3"/>
<stop offset="0.1" stop-opacity="0.2"/>
<stop offset="0.3" stop-opacity="0.1"/>
<stop offset="0.6" stop-opacity="0.1"/>
<stop offset="1" stop-opacity="0"/>
</linearGradient>
<linearGradient id="paint2_linear_27158_134246" x1="13.2897" y1="3.5306" x2="20.7152" y2="23.3126" gradientUnits="userSpaceOnUse">
<stop stop-color="#3CCBF4"/>
<stop offset="1" stop-color="#2892DF"/>
</linearGradient>
</defs>
</svg>
