<svg width="21" height="22" viewBox="0 0 21 22" fill="none" xmlns="http://www.w3.org/2000/svg">
<g clip-path="url(#clip0_27158_192605)">
<path d="M13.1254 3.36153L7.88161 0.334873C7.62934 0.189226 7.34318 0.112549 7.05189 0.112549C6.76059 0.112549 6.47443 0.189226 6.22216 0.334873L0.978353 3.36153C0.726427 3.50743 0.517299 3.71702 0.371954 3.96926C0.226608 4.22151 0.150156 4.50754 0.150269 4.79866V10.8525C0.150156 11.1439 0.226786 11.4301 0.372444 11.6823C0.518102 11.9346 0.727649 12.1441 0.979992 12.2897L3.27416 13.6148V17.977L13.1254 12.2897C13.3778 12.1441 13.5873 11.9346 13.733 11.6823C13.8786 11.4301 13.9553 11.1439 13.9551 10.8525V4.79866C13.9551 4.50738 13.8784 4.22124 13.7327 3.96898C13.5871 3.71672 13.3776 3.50722 13.1254 3.36153Z" fill="#EF4645"/>
<path d="M20.027 7.34677L15.023 4.45776C15.0374 4.57081 15.0447 4.68465 15.0449 4.79861V10.8525C15.0444 11.3349 14.9173 11.8087 14.6763 12.2266C14.4353 12.6446 14.0889 12.9919 13.6716 13.234L8.1427 16.4251L17.7323 21.9617V17.5995L20.0265 16.2749C20.2788 16.1292 20.4883 15.9196 20.6339 15.6672C20.7796 15.4149 20.8562 15.1286 20.8562 14.8372V8.78391C20.8563 8.49259 20.7797 8.20638 20.634 7.95409C20.4884 7.7018 20.2788 7.49234 20.0265 7.34677" fill="#EF4645"/>
</g>
<defs>
<clipPath id="clip0_27158_192605">
<rect width="20.7064" height="22" fill="white" transform="translate(0.150024)"/>
</clipPath>
</defs>
</svg>
