<svg width="30" height="30" viewBox="0 0 30 30" fill="none" xmlns="http://www.w3.org/2000/svg">
<path d="M22.5361 2.25571C21.8667 1.8674 21.1684 1.53117 20.4474 1.25C20.4474 1.25 18.6953 2.20333 17.7577 2.7756C16.7022 3.42119 14.9998 4.68881 14.9998 4.68881C14.9998 4.68881 13.2974 3.42119 12.2341 2.7756C11.2965 2.20333 9.54564 1.25 9.54564 1.25C8.8224 1.53086 8.12191 1.8671 7.4504 2.25571C6.683 2.68733 5.97402 3.21543 5.34076 3.82714C5.34076 3.82714 8.50719 6.36238 10.1729 7.84083C11.8386 9.31929 14.9998 12.2565 14.9998 12.2565C14.9998 12.2565 18.1427 9.32452 19.8136 7.84476C21.4846 6.365 24.6444 3.83107 24.6444 3.83107C24.0121 3.2178 23.3035 2.68834 22.5361 2.25571Z" fill="#F42C27"/>
<path d="M7.45699 27.7368C8.12834 28.1261 8.82885 28.4628 9.55223 28.7439C9.55223 28.7439 11.3031 27.7892 12.2407 27.2169C13.2975 26.5727 14.9999 25.3037 14.9999 25.3037C14.9999 25.3037 16.7022 26.5727 17.7616 27.2169C18.6953 27.7892 20.4475 28.7504 20.4475 28.7504C21.1709 28.4694 21.8714 28.1327 22.5427 27.7434C23.3102 27.3125 24.0188 26.7843 24.651 26.1719C24.651 26.1719 21.4859 23.6367 19.8202 22.1583C18.1545 20.6798 14.9999 17.7373 14.9999 17.7373C14.9999 17.7373 11.8439 20.6693 10.1795 22.1478C8.51509 23.6262 5.34735 26.1615 5.34735 26.1615C5.98022 26.7736 6.68926 27.3018 7.45699 27.7329V27.7368Z" fill="#1AD346"/>
<path d="M27.7363 22.5456C28.1256 21.8743 28.4623 21.1738 28.7433 20.4504C28.7433 20.4504 27.7887 18.6982 27.2164 17.7606C26.5721 16.7038 25.3032 15.0001 25.3032 15.0001C25.3032 15.0001 26.5721 13.2978 27.2164 12.2501C27.7887 11.3073 28.7498 9.55513 28.7498 9.55513C28.4688 8.83175 28.1321 8.13124 27.7428 7.4599C27.3119 6.69242 26.7838 5.98378 26.1714 5.35156C26.1714 5.35156 23.6362 8.51668 22.1577 10.1824C20.6793 11.8481 17.7368 15.0001 17.7368 15.0001C17.7368 15.0001 20.6688 18.1522 22.1472 19.8179C23.6257 21.4836 26.1609 24.65 26.1609 24.65C26.7731 24.0172 27.3012 23.3081 27.7323 22.5404L27.7363 22.5456Z" fill="#19A8F7"/>
<path d="M2.25559 7.46609C1.86728 8.13549 1.53105 8.83378 1.24988 9.55478C1.24988 9.55478 2.20321 11.3069 2.77547 12.2498C3.42107 13.3066 4.68869 15.0116 4.68869 15.0116C4.68869 15.0116 3.42107 16.7139 2.77547 17.772C2.20321 18.7044 1.24988 20.4566 1.24988 20.4566C1.53074 21.1798 1.86697 21.8803 2.25559 22.5518C2.687 23.3189 3.21513 24.0275 3.82702 24.6601C3.82702 24.6601 6.36226 21.495 7.84071 19.8293C9.31916 18.1636 12.2564 14.9998 12.2564 14.9998C12.2564 14.9998 9.3244 11.8569 7.84464 10.1886C6.36488 8.52026 3.83095 5.35645 3.83095 5.35645C3.21786 5.98947 2.68843 6.69846 2.25559 7.46609Z" fill="#232323"/>
</svg>
