<svg width="50" height="51" viewBox="0 0 50 51" fill="none" xmlns="http://www.w3.org/2000/svg">
<path d="M19 4.02074C22.7128 1.87715 27.2872 1.87715 31 4.02074L40.6506 9.59254C44.3634 11.7361 46.6506 15.6977 46.6506 19.9848V31.1284C46.6506 35.4156 44.3634 39.3771 40.6506 41.5207L31 47.0925C27.2872 49.2361 22.7128 49.2361 19 47.0925L9.34937 41.5207C5.63655 39.3771 3.34937 35.4156 3.34937 31.1284V19.9848C3.34937 15.6977 5.63655 11.7361 9.34937 9.59254L19 4.02074Z" fill="#FFF5EF"/>
<path d="M19.25 4.45376C22.8081 2.39948 27.1919 2.39948 30.75 4.45375L40.4006 10.0256C43.9587 12.0798 46.1506 15.8763 46.1506 19.9848V31.1284C46.1506 35.237 43.9587 39.0335 40.4006 41.0877L30.75 46.6595C27.1919 48.7138 22.8081 48.7138 19.25 46.6595L9.59937 41.0877C6.04125 39.0335 3.84937 35.237 3.84937 31.1284V19.9848C3.84937 15.8763 6.04125 12.0798 9.59937 10.0256L19.25 4.45376Z" stroke="#FF6F1E" stroke-opacity="0.2"/>
<path opacity="0.1" d="M28.628 17.2339H28.9336L30.261 17.4432C31.4875 17.7956 32.566 18.5353 33.3341 19.551C34.1022 20.5667 34.5184 21.8035 34.5201 23.0751V29.9629C34.5151 31.5139 33.895 33.0002 32.795 34.0978C31.6949 35.1955 30.2041 35.8156 28.6471 35.8232H21.3321C19.7685 35.8257 18.2679 35.21 17.1596 34.1113C16.0513 33.0125 15.426 31.5205 15.4209 29.9629V23.0751C15.4226 21.8035 15.8388 20.5667 16.607 19.551C17.3751 18.5353 18.4535 17.7956 19.68 17.4432L21.0074 17.2148H21.313H24.4835L25.8204 17.2339H28.628Z" fill="#FF6F1E"/>
<path d="M30.3323 17.344V15.9153C30.3126 15.7524 30.2337 15.6022 30.1104 15.4933C29.9871 15.3844 29.8281 15.3242 29.6633 15.3242C29.4985 15.3242 29.3395 15.3844 29.2162 15.4933C29.093 15.6022 29.014 15.7524 28.9944 15.9153V17.1331H28.6864H25.8566V15.9153C25.8566 15.7373 25.7856 15.5666 25.6593 15.4407C25.5329 15.3149 25.3616 15.2441 25.1829 15.2441C25.0042 15.2441 24.8328 15.3149 24.7065 15.4407C24.5801 15.5666 24.5091 15.7373 24.5091 15.9153V17.1139H21.3136H21.0056V15.9153C20.986 15.7524 20.907 15.6022 20.7838 15.4933C20.6605 15.3844 20.5015 15.3242 20.3367 15.3242C20.1719 15.3242 20.0129 15.3844 19.8896 15.4933C19.7663 15.6022 19.6874 15.7524 19.6677 15.9153V17.344C18.4316 17.6993 17.3446 18.4448 16.5704 19.4685C15.7962 20.4922 15.3767 21.7387 15.375 23.0205V29.9626C15.3801 31.5325 16.0104 33.0363 17.1274 34.1437C18.2444 35.2511 19.757 35.8717 21.3329 35.8691H28.7056C30.2749 35.8616 31.7775 35.2365 32.8862 34.1302C33.995 33.0239 34.6199 31.5259 34.625 29.9626V23.0205C34.6233 21.7387 34.2038 20.4922 33.4296 19.4685C32.6554 18.4448 31.5684 17.6993 30.3323 17.344ZM19.6677 18.7536V19.5302C19.6874 19.6932 19.7663 19.8433 19.8896 19.9523C20.0129 20.0612 20.1719 20.1213 20.3367 20.1213C20.5015 20.1213 20.6605 20.0612 20.7838 19.9523C20.907 19.8433 20.986 19.6932 21.0056 19.5302V18.4755C21.1115 18.4755 21.2077 18.4755 21.3136 18.4755H24.5091V19.5302C24.5091 19.7082 24.5801 19.879 24.7065 20.0048C24.8328 20.1307 25.0042 20.2014 25.1829 20.2014C25.3616 20.2014 25.5329 20.1307 25.6593 20.0048C25.7856 19.879 25.8566 19.7082 25.8566 19.5302V18.4467H28.6864C28.7922 18.4467 28.8885 18.4467 28.9944 18.4467V19.5015C29.014 19.6644 29.093 19.8146 29.2162 19.9235C29.3395 20.0324 29.4985 20.0926 29.6633 20.0926C29.8281 20.0926 29.9871 20.0324 30.1104 19.9235C30.2337 19.8146 30.3126 19.6644 30.3323 19.5015V18.7536C31.0887 19.0467 31.754 19.5335 32.261 20.1649C32.768 20.7962 33.0987 21.5498 33.2198 22.3493H16.761C16.8838 21.5476 17.2174 20.7927 17.7279 20.1611C18.2385 19.5296 18.9077 19.0439 19.6677 18.7536ZM28.6864 34.5363H21.3136C20.0925 34.5389 18.9203 34.0587 18.0542 33.2013C17.188 32.3438 16.6987 31.179 16.6936 29.9626V23.6437H33.3064V29.9242C33.3089 30.5298 33.1912 31.1299 32.9601 31.69C32.7289 32.2501 32.3888 32.7591 31.9595 33.1877C31.5301 33.6164 31.0198 33.9562 30.4581 34.1876C29.8964 34.4191 29.2943 34.5376 28.6864 34.5363ZM22.6804 27.3257C22.6861 27.4918 22.6419 27.6558 22.5535 27.7968C22.4651 27.9377 22.3364 28.0491 22.184 28.1166C22.0315 28.1842 21.8623 28.2049 21.6981 28.176C21.5338 28.1472 21.3819 28.0701 21.2619 27.9546C21.1418 27.8392 21.0592 27.6907 21.0245 27.5281C20.9897 27.3656 21.0045 27.1964 21.067 27.0423C21.1294 26.8881 21.2367 26.7561 21.3749 26.6631C21.5132 26.5701 21.6762 26.5204 21.843 26.5203C22.0602 26.5202 22.2689 26.6041 22.4251 26.7544C22.5814 26.9046 22.6729 27.1095 22.6804 27.3257ZM25.8181 27.3257C25.8258 27.4952 25.7819 27.6631 25.6923 27.8074C25.6028 27.9518 25.4716 28.0658 25.3159 28.1347C25.1602 28.2036 24.9873 28.2242 24.8198 28.1937C24.6522 28.1632 24.4978 28.0831 24.3766 27.9638C24.2555 27.8445 24.1732 27.6916 24.1406 27.5251C24.108 27.3585 24.1266 27.186 24.1939 27.0302C24.2612 26.8743 24.3742 26.7422 24.518 26.6513C24.6618 26.5603 24.8298 26.5147 25 26.5203C25.2138 26.5251 25.4177 26.6112 25.5698 26.7609C25.722 26.9107 25.8108 27.1128 25.8181 27.3257ZM28.9751 27.3257C28.9789 27.4938 28.9323 27.6591 28.8412 27.8006C28.75 27.9421 28.6185 28.0532 28.4636 28.1197C28.3086 28.1863 28.1372 28.2052 27.9714 28.174C27.8056 28.1429 27.6529 28.0631 27.5329 27.9449C27.4129 27.8268 27.3311 27.6756 27.2979 27.5108C27.2647 27.3459 27.2817 27.175 27.3467 27.0199C27.4117 26.8647 27.5217 26.7325 27.6626 26.6401C27.8036 26.5476 27.969 26.4992 28.1377 26.5011C28.3582 26.5011 28.5697 26.5877 28.7265 26.742C28.8833 26.8964 28.9726 27.1061 28.9751 27.3257ZM22.6707 30.4228C22.6695 30.5311 22.6468 30.6381 22.6041 30.7377C22.5613 30.8372 22.4993 30.9274 22.4215 31.0031C22.3438 31.0788 22.2518 31.1385 22.1509 31.1788C22.05 31.219 21.9421 31.2391 21.8334 31.2379C21.6697 31.236 21.5102 31.1857 21.3752 31.0935C21.2401 31.0014 21.1356 30.8714 21.0747 30.72C21.0138 30.5686 20.9993 30.4026 21.0331 30.243C21.067 30.0834 21.1475 29.9374 21.2646 29.8235C21.3817 29.7095 21.5301 29.6327 21.691 29.6027C21.8519 29.5728 22.0182 29.591 22.1687 29.6552C22.3192 29.7193 22.4472 29.8265 22.5366 29.9631C22.626 30.0998 22.6726 30.2598 22.6707 30.4228ZM25.8085 30.4228C25.8123 30.5905 25.7659 30.7555 25.6752 30.8967C25.5845 31.038 25.4536 31.1491 25.2992 31.2159C25.1448 31.2827 24.9739 31.3022 24.8084 31.2719C24.6428 31.2415 24.4901 31.1627 24.3697 31.0455C24.2493 30.9283 24.1667 30.778 24.1325 30.6138C24.0982 30.4496 24.1138 30.279 24.1773 30.1237C24.2408 29.9684 24.3493 29.8355 24.489 29.7419C24.6287 29.6483 24.7932 29.5983 24.9615 29.5982C25.0718 29.5957 25.1815 29.6151 25.2842 29.6554C25.3868 29.6957 25.4804 29.756 25.5593 29.8329C25.6382 29.9097 25.7009 30.0015 25.7437 30.1028C25.7865 30.2041 25.8085 30.3129 25.8085 30.4228ZM28.9655 30.4228C28.9693 30.5905 28.9229 30.7555 28.8322 30.8967C28.7415 31.038 28.6106 31.1491 28.4562 31.2159C28.3018 31.2827 28.1309 31.3022 27.9654 31.2719C27.7998 31.2415 27.6471 31.1627 27.5267 31.0455C27.4063 30.9283 27.3237 30.778 27.2895 30.6138C27.2552 30.4496 27.2708 30.279 27.3343 30.1237C27.3978 29.9684 27.5063 29.8355 27.646 29.7419C27.7857 29.6483 27.9502 29.5983 28.1185 29.5982C28.2288 29.5957 28.3385 29.6151 28.4412 29.6554C28.5438 29.6957 28.6374 29.756 28.7163 29.8329C28.7952 29.9097 28.8579 30.0015 28.9007 30.1028C28.9435 30.2041 28.9655 30.3129 28.9655 30.4228Z" fill="#FF6F1E"/>
</svg>
