<svg width="61" height="20" viewBox="0 0 61 20" fill="none" xmlns="http://www.w3.org/2000/svg">
<rect width="80" height="20" transform="translate(-9.47266)" fill="#272A34" fill-opacity="0.2"/>
<g opacity="0.8">
<path d="M35.1941 5.64585H34.7508C34.6149 5.64749 34.4814 5.61053 34.3658 5.53928C34.2501 5.46803 34.1571 5.36541 34.0974 5.24335L33.5724 4.19918C33.4402 3.93185 33.2357 3.70701 32.982 3.55025C32.7283 3.39349 32.4356 3.31112 32.1374 3.31252H28.9174C28.6192 3.31112 28.3266 3.39349 28.0729 3.55025C27.8192 3.70701 27.6146 3.93185 27.4824 4.19918L26.9574 5.24335C26.8978 5.36541 26.8047 5.46803 26.6891 5.53928C26.5734 5.61053 26.4399 5.64749 26.3041 5.64585H25.8608C25.4353 5.64585 25.0273 5.81486 24.7264 6.1157C24.4256 6.41654 24.2566 6.82457 24.2566 7.25002V13.0834C24.2566 13.5088 24.4256 13.9168 24.7264 14.2177C25.0273 14.5185 25.4353 14.6875 25.8608 14.6875H35.1941C35.6195 14.6875 36.0276 14.5185 36.3284 14.2177C36.6292 13.9168 36.7983 13.5088 36.7983 13.0834V7.25002C36.7983 6.82457 36.6292 6.41654 36.3284 6.1157C36.0276 5.81486 35.6195 5.64585 35.1941 5.64585ZM30.5274 12.6459C29.9217 12.6459 29.3296 12.4662 28.826 12.1297C28.3224 11.7932 27.9298 11.3149 27.698 10.7553C27.4663 10.1957 27.4056 9.57995 27.5238 8.98589C27.6419 8.39182 27.9336 7.84613 28.3619 7.41784C28.7902 6.98954 29.3359 6.69786 29.93 6.5797C30.524 6.46153 31.1398 6.52218 31.6994 6.75397C32.259 6.98576 32.7373 7.37829 33.0738 7.88192C33.4103 8.38554 33.5899 8.97765 33.5899 9.58335C33.5884 10.3951 33.2652 11.1732 32.6912 11.7472C32.1172 12.3212 31.3392 12.6443 30.5274 12.6459Z" fill="white"/>
<path d="M30.5273 11.771C31.7355 11.771 32.7148 10.7916 32.7148 9.5835C32.7148 8.37537 31.7355 7.396 30.5273 7.396C29.3192 7.396 28.3398 8.37537 28.3398 9.5835C28.3398 10.7916 29.3192 11.771 30.5273 11.771Z" fill="white"/>
</g>
</svg>
