<svg width="180" height="181" viewBox="0 0 180 181" fill="none" xmlns="http://www.w3.org/2000/svg">
<rect width="180" height="180" transform="translate(0 0.5)" fill="white"/>
<path d="M61.8499 128.067C55.8687 131.379 49.0514 134.145 42.3627 132.826C35.674 131.508 29.7247 124.594 31.7828 118.098C33.0691 114.046 37.0567 110.83 36.8638 106.586C36.6708 102.437 32.6833 99.7362 29.5962 96.9707C22.3608 90.4427 18.7591 80.1202 20.367 70.5373C21.5889 63.0768 27.4738 55.2948 35.0307 56.0665C37.8927 56.356 40.4653 57.8352 43.2309 58.5426C57.3801 62.08 69.8571 45.0687 84.3601 46.5801C88.1868 46.966 91.8528 48.6703 95.6795 48.4774C102.786 48.1237 107.996 41.6279 114.781 39.5055C119.797 37.8977 125.586 38.9588 129.734 42.2067C133.882 45.4546 136.262 50.8249 135.908 56.0987C135.555 61.5333 132.532 66.3569 130.667 71.4377C128.802 76.5508 128.384 82.9822 132.339 86.7125C134.365 88.6098 137.163 89.478 139.285 91.2788C143.305 94.7197 143.819 100.99 141.922 105.91C140.024 110.863 136.23 114.786 132.532 118.548" fill="#F4F6F9"/>
<path d="M170.028 115.333C168.838 109.223 169.385 102.373 165.526 97.5176C161.506 92.4689 153.049 91.858 148.354 96.2635L147.518 96.1992L146.682 91.5364C146.264 89.0603 145.846 86.4877 145.428 83.7543V83.7222C145.621 83.7543 145.846 83.7865 146.039 83.8186C146.071 83.8186 146.103 83.8186 146.135 83.8186C146.328 83.8508 146.489 83.8508 146.682 83.8508C146.714 83.8508 146.746 83.8508 146.778 83.8508C146.971 83.8508 147.164 83.8508 147.389 83.8186C147.389 83.8186 147.389 83.8186 147.421 83.8186C147.646 83.7865 147.839 83.7543 148.064 83.7222H148.097C148.29 83.69 148.45 83.6257 148.643 83.5614C148.708 83.5292 148.74 83.5292 148.804 83.4971C148.933 83.4649 149.061 83.4006 149.19 83.3363C149.254 83.3041 149.319 83.272 149.383 83.2398C149.512 83.1755 149.64 83.1112 149.769 83.0468C149.833 83.0147 149.865 82.9825 149.93 82.9504C150.09 82.8539 150.251 82.7253 150.412 82.5967C152.406 81.0209 153.113 78.0625 152.181 75.6828C152.084 75.4256 151.956 75.1683 151.827 74.911C151.73 74.7824 151.666 74.6216 151.57 74.493C151.537 74.4608 151.505 74.3965 151.473 74.3644C151.409 74.2679 151.344 74.2036 151.248 74.1071C151.216 74.075 151.152 74.0106 151.119 73.9785C151.055 73.9142 150.991 73.8177 150.894 73.7534C150.862 73.7212 150.798 73.6569 150.766 73.6247C150.701 73.5604 150.605 73.4961 150.508 73.4318C150.476 73.3997 150.412 73.3675 150.38 73.3353C150.251 73.2389 150.123 73.1424 149.994 73.0781C149.93 73.0459 149.897 73.0138 149.833 72.9816C149.737 72.9173 149.672 72.8851 149.576 72.8208C149.512 72.7887 149.447 72.7565 149.351 72.7243C149.286 72.6922 149.222 72.66 149.126 72.6279C149.029 72.5957 148.965 72.5635 148.868 72.5314C148.804 72.4992 148.74 72.4671 148.675 72.4671C148.579 72.4349 148.483 72.4028 148.418 72.3706C148.354 72.3706 148.322 72.3385 148.257 72.3385C147.904 72.242 147.55 72.1777 147.164 72.1455C147.132 72.1455 147.1 72.1455 147.068 72.1455C146.939 72.1455 146.843 72.1455 146.714 72.1133C146.682 72.1133 146.617 72.1133 146.585 72.1133C146.457 72.1133 146.36 72.1133 146.232 72.1133C146.199 72.1133 146.167 72.1133 146.135 72.1133C146.006 72.1133 145.878 72.1455 145.781 72.1455L146.199 57.8998L137.131 54.6519C134.205 54.6841 131.343 56.0668 128.995 57.8033C121.921 63.1093 115.007 68.576 108.768 73.2389C108.768 73.2389 108.768 73.2389 108.8 73.271C108.672 73.3675 108.543 73.464 108.382 73.5604C108.382 73.5604 116.004 77.8052 119.734 79.8311C119.734 79.8311 117.226 86.8093 114.942 93.2407C111.791 90.3787 107.482 88.6101 103.109 88.7708C98.7352 88.9316 94.3939 91.1183 92.1751 94.6878C90.7923 96.9067 90.2135 99.4793 89.1201 101.827C88.0268 104.174 86.1295 106.49 83.4604 106.94L82.4957 106.297C82.3671 106.168 82.2384 106.039 82.1419 105.911C82.1098 105.879 82.0777 105.846 82.0455 105.782C81.949 105.686 81.8846 105.589 81.7882 105.493C81.756 105.428 81.6917 105.396 81.6596 105.332C81.5953 105.235 81.4989 105.171 81.4346 105.075C81.4024 105.01 81.338 104.946 81.3058 104.914C81.2415 104.817 81.1773 104.753 81.113 104.657C81.0808 104.592 81.0164 104.528 80.9842 104.464C80.9199 104.367 80.8557 104.271 80.7914 104.174C80.7593 104.11 80.727 104.046 80.6948 103.981C80.6305 103.885 80.5662 103.756 80.5341 103.66C80.5019 103.595 80.4698 103.563 80.4377 103.499C80.3412 103.338 80.2768 103.177 80.2125 103.017C79.8909 102.277 79.7302 101.505 79.6659 100.701C79.6338 100.508 79.6337 100.315 79.6337 100.09C79.6337 99.8973 79.6337 99.7044 79.6015 99.4793C79.6015 97.6784 79.8909 95.8133 79.9231 93.9803C79.9231 93.7874 79.9231 93.5623 79.9231 93.3694C79.8588 90.636 78.894 87.9669 77.3183 85.7159C74.9387 82.3072 71.1442 79.8311 66.9638 79.4131C66.7387 79.3809 66.4813 79.3809 66.224 79.3809C65.6452 79.3809 65.0664 79.4452 64.5198 79.5739C63.3943 79.8633 62.3974 80.4421 61.9794 81.5033C61.8829 81.7284 61.8507 81.9535 61.8186 82.1786C61.0146 81.5676 60.0498 81.0853 59.1172 80.6994C55.3227 79.0593 51.5925 77.1942 47.798 75.4899C45.9328 74.6538 44.0355 73.7855 42.0739 73.1424C41.2378 72.853 40.4338 72.7243 39.6621 72.7243C34.0988 70.3769 29.4683 65.4246 27.5388 64.7815C25.6094 64.1383 24.3231 65.4246 25.6094 68.9619C26.6063 71.7275 29.9828 73.1102 31.3977 73.5926C30.7546 73.7534 30.1114 73.9463 29.5005 74.2036C26.4134 75.3934 23.6799 77.355 21.0108 79.2844C20.2712 79.8311 19.4994 80.3778 18.9528 81.1174C18.4061 81.857 18.1168 82.8539 18.4062 83.7222C18.6313 84.3653 19.2421 84.912 19.8853 85.0085C19.628 85.4587 19.4352 85.941 19.3709 86.4555C19.2744 87.2916 19.6603 88.2563 20.4642 88.5458C21.0752 88.7709 21.7504 88.5779 22.3293 88.3207C24.6446 87.3559 26.2525 85.941 27.5388 83.8508C27.7961 83.4327 28.1176 83.079 28.4392 82.7574C27.185 84.719 26.3169 86.8414 25.9632 88.9638C25.8345 89.7356 25.8023 90.7003 26.4133 91.2148C27.0886 91.7936 28.1819 91.5042 28.9537 91.0219C32.1373 89.0603 31.9444 85.2657 34.7742 83.0468C35.4174 82.5645 36.1891 82.1143 36.9931 82.2429C38.1507 82.4359 40.6591 83.5614 40.7555 84.7512C40.8842 86.359 39.7586 88.0312 38.4723 88.8673C36.4464 90.1858 34.2597 88.9638 32.2016 90.1536C31.2048 90.7325 30.433 91.9544 30.7868 93.0478C31.2048 94.4306 32.8448 94.9129 34.2597 95.1058C38.408 95.6525 42.6849 95.3953 46.7689 94.3662C49.3414 93.7231 51.3996 93.2729 53.94 94.2054C54.1973 94.3019 54.4223 94.3984 54.6152 94.4949C54.5831 94.527 54.551 94.527 54.5188 94.5592C54.4223 94.6235 54.3259 94.6878 54.2294 94.7843C54.1651 94.8164 54.1008 94.8808 54.0686 94.9129C53.9722 94.9772 53.8757 95.0737 53.7793 95.1702C53.7149 95.2345 53.6828 95.2666 53.6185 95.331C53.522 95.4274 53.4576 95.5239 53.3611 95.6204C53.329 95.6847 53.2647 95.749 53.2325 95.7812C53.1682 95.8776 53.0717 95.9741 53.0074 96.0706C52.9752 96.1349 52.9109 96.1992 52.8787 96.2635C52.8144 96.36 52.7501 96.4886 52.6858 96.5851C52.6536 96.6494 52.6215 96.7137 52.5894 96.778C52.5251 96.8745 52.4607 97.0031 52.4286 97.0996C52.3964 97.1639 52.3643 97.2282 52.3322 97.3247C52.2679 97.4533 52.2356 97.5498 52.2034 97.6784C52.1713 97.7427 52.1392 97.8392 52.1392 97.9035C52.107 98.0322 52.0749 98.1286 52.0106 98.2573C51.9784 98.3216 51.9784 98.4181 51.9462 98.4824C51.9141 98.611 51.882 98.7075 51.8498 98.8361C51.8177 98.9326 51.8176 98.9969 51.7854 99.0934C51.7533 99.222 51.7532 99.3185 51.7211 99.4471C51.7211 99.5436 51.689 99.64 51.689 99.7365C51.689 99.8651 51.6568 99.9616 51.6568 100.09C51.6568 100.187 51.6568 100.283 51.6246 100.38C51.6246 100.476 51.5925 100.605 51.5925 100.701C51.5925 100.798 51.5925 100.926 51.5925 101.023C51.5925 101.119 51.5925 101.248 51.5925 101.344C51.5925 101.473 51.5925 101.569 51.5925 101.698C51.5925 101.795 51.5925 101.891 51.5925 101.988C51.5925 102.116 51.6246 102.245 51.6246 102.373C51.6246 102.47 51.6247 102.534 51.6568 102.631C51.689 102.791 51.6889 102.984 51.7211 103.145C51.7211 103.177 51.7211 103.209 51.7211 103.242C51.8175 103.885 51.9462 104.496 52.107 105.107C52.1713 105.3 52.2035 105.525 52.2678 105.718C52.718 107.358 53.2647 108.998 53.6185 110.638C53.6506 110.831 53.7149 111.056 53.7471 111.249C53.8757 111.86 53.9399 112.503 54.0043 113.146C54.4223 119.16 50.8851 124.626 49.1164 130.415C49.0521 130.64 48.9878 130.865 48.9235 131.122C48.5376 132.505 48.2803 133.92 48.2159 135.367C48.1195 137.843 48.6662 140.287 49.7596 142.506C50.2098 143.406 50.7242 144.242 51.3031 145.046C52.9753 147.329 55.2263 149.194 57.7989 150.352C58.0562 150.481 58.3134 150.577 58.6029 150.674C58.7636 150.738 58.9243 150.802 59.1172 150.867C59.4388 150.963 59.7604 151.092 60.1142 151.156C60.6608 151.285 61.2075 151.413 61.7542 151.478C62.0115 151.51 62.2365 151.542 62.4938 151.574L65.6453 148.294C70.0187 144.242 78.4117 138.261 87.4801 141.123C100.665 145.303 131.214 141.766 145.363 131.154C159.513 120.542 179.418 131.701 179.418 131.701C174.626 127.488 171.282 121.636 170.028 115.333Z" fill="white"/>
<path d="M142.469 77.6764C142.34 77.4192 142.436 77.1619 142.629 77.0011C144.398 75.6827 146.746 75.2646 148.9 75.8435C149.511 76.0042 149.254 76.9368 148.643 76.776C146.746 76.2615 144.72 76.6795 143.144 77.8372C142.919 78.0301 142.597 77.9015 142.469 77.6764ZM139.028 63.5272C139.028 63.5593 139.06 63.5593 139.06 63.5915C139.092 63.6237 139.092 63.688 139.124 63.7201C139.156 63.8166 139.189 63.9131 139.221 64.0417C139.285 64.299 139.575 64.4598 139.8 64.3633C140.057 64.299 140.218 64.0417 140.121 63.7845C139.864 62.9162 139.382 62.0801 138.771 61.437C138.61 61.244 138.256 61.244 138.095 61.437C137.902 61.6299 137.902 61.9193 138.095 62.1123C138.16 62.1766 138.224 62.2731 138.288 62.3374C138.32 62.3695 138.352 62.4017 138.385 62.4338L138.417 62.466C138.417 62.466 138.417 62.466 138.417 62.4982C138.545 62.6589 138.642 62.8197 138.738 63.0127C138.835 63.1735 138.931 63.3342 139.028 63.5272ZM134.462 59.8291H134.558C134.654 59.8291 134.719 59.8613 134.815 59.8613C134.912 59.8613 135.008 59.8934 135.105 59.8934C135.137 59.8934 135.137 59.8934 135.169 59.8934C135.201 59.9577 135.265 59.9899 135.33 60.022C135.555 60.1507 135.876 60.0864 136.005 59.8613C136.101 59.6683 136.101 59.4754 136.005 59.2824C135.909 59.1216 135.748 59.0252 135.555 58.993C135.298 58.9287 135.04 58.8965 134.783 58.8644C134.236 58.8001 133.722 58.7357 133.175 58.7357C132.918 58.7357 132.693 58.9608 132.693 59.2181C132.693 59.4754 132.918 59.7005 133.175 59.7005C133.561 59.7005 133.979 59.7326 134.365 59.7648C134.365 59.8291 134.397 59.8291 134.462 59.8291ZM127.901 64.3311C127.966 64.3311 127.998 64.3311 128.062 64.3311C128.159 64.3311 128.255 64.3311 128.352 64.3311C128.352 64.3311 128.416 64.3311 128.448 64.3311C128.48 64.3311 128.512 64.3311 128.577 64.3633C128.673 64.3954 128.77 64.3954 128.866 64.4276C129.059 64.4919 129.123 64.5241 129.316 64.6205C129.413 64.6527 129.477 64.717 129.574 64.7813C129.606 64.7813 129.606 64.8135 129.606 64.8135C129.606 64.8135 129.606 64.8135 129.638 64.8456C129.67 64.8778 129.702 64.91 129.734 64.9421C130.024 65.1994 130.185 65.4566 130.281 65.8104C130.442 66.4214 131.374 66.1641 131.214 65.5531C130.635 63.5272 127.901 62.7232 126.294 64.0739C126.101 64.2346 126.133 64.5884 126.294 64.7492C126.487 64.9421 126.776 64.91 126.969 64.7492C127.001 64.717 127.001 64.717 127.001 64.717C127.001 64.717 127.001 64.717 127.033 64.717C127.065 64.6848 127.097 64.6527 127.162 64.6527C127.194 64.6205 127.258 64.6205 127.29 64.5884C127.322 64.5884 127.419 64.5241 127.419 64.5241C127.516 64.4919 127.805 64.3954 127.869 64.3954C127.741 64.3633 127.869 64.3311 127.901 64.3311ZM134.558 67.5468C135.072 67.0323 135.876 66.8394 136.552 67.0645C137.195 67.2574 137.709 67.8363 137.902 68.4794C138.063 69.0904 138.996 68.8332 138.835 68.2222C138.578 67.2253 137.806 66.4214 136.809 66.1319C135.78 65.8104 134.622 66.1319 133.883 66.8716C133.432 67.2896 134.108 67.997 134.558 67.5468ZM125.65 86.1016C125.007 86.7769 124.139 87.1628 123.206 87.0664C122.949 87.0342 122.724 87.2915 122.724 87.5487C122.724 87.8381 122.949 87.9989 123.206 88.0311C124.396 88.1597 125.586 87.613 126.39 86.7448C127.226 85.8444 127.644 84.6546 127.451 83.4004C127.419 83.1432 127.097 83.0145 126.872 83.0789C126.583 83.1432 126.486 83.4004 126.551 83.6577C126.615 84.0757 126.551 84.5259 126.39 84.9761C126.229 85.3942 125.94 85.8122 125.65 86.1016ZM124.171 116.619C123.046 116.555 121.952 116.844 120.827 116.844C119.766 116.844 118.737 116.683 117.708 116.362C116.775 116.072 115.714 115.59 115.264 114.657C114.878 113.886 115.006 112.824 115.907 112.535C116.711 112.278 117.611 112.664 118.158 113.275C118.865 114.079 119.122 115.14 119.412 116.137C119.573 116.748 120.505 116.49 120.344 115.879C119.862 114.143 119.187 112.117 117.225 111.602C116.453 111.409 115.553 111.474 114.91 111.988C114.202 112.567 113.977 113.5 114.138 114.368C114.556 116.426 116.936 117.294 118.737 117.616C119.83 117.809 120.923 117.841 122.017 117.712C123.046 117.584 124.268 117.326 125.232 117.841C126.004 118.259 126.486 119.063 125.94 119.899C125.361 120.799 124.203 120.96 123.206 121.025C121.727 121.153 119.605 121.185 119.058 119.481C118.769 118.645 118.511 117.841 117.611 117.519C116.871 117.262 116.003 117.423 115.392 117.841C114.62 118.355 114.267 119.288 114.202 120.188C114.138 121.25 114.588 122.118 114.846 123.115C115.135 124.208 114.46 124.883 113.591 125.398C112.723 125.912 111.823 126.33 111.051 126.974C109.443 128.356 108.607 130.833 110.118 132.601C110.536 133.084 111.212 132.376 110.794 131.926C109.507 130.414 110.729 128.389 112.048 127.424C113.302 126.523 115.199 126.041 115.778 124.465C116.132 123.501 115.682 122.6 115.392 121.668C115.135 120.864 115.071 119.931 115.489 119.159C115.842 118.548 116.646 118.163 117.322 118.42C118.093 118.709 118.093 119.77 118.415 120.414C119.187 121.796 120.988 122.086 122.435 122.054C124.139 122.021 126.358 121.732 127.033 119.867C127.741 118.002 125.811 116.715 124.171 116.619ZM116.968 120.349C118.897 123.597 118.865 127.81 116.871 131.025C116.55 131.54 117.386 132.022 117.708 131.508C119.894 128.035 119.926 123.404 117.804 119.867C117.482 119.32 116.646 119.803 116.968 120.349ZM179.064 132.087C175.719 129.096 173.05 125.334 171.314 121.185C170.542 119.352 169.963 117.423 169.577 115.493C169.191 113.564 168.998 111.602 168.773 109.673C168.355 105.878 167.873 101.859 165.686 98.5787C162.02 93.1441 153.499 92.1472 148.675 96.6171C148.353 96.9065 147.967 96.6814 147.871 96.392C148.386 99.061 148.9 101.73 149.479 104.399C149.608 105.01 148.675 105.267 148.546 104.656C148.225 103.177 147.935 101.73 147.646 100.251C146.585 94.8806 145.652 89.5103 144.848 84.0757C143.884 83.7863 142.983 83.304 142.243 82.5965C142.051 82.4036 142.051 82.1141 142.243 81.9212C142.436 81.7282 142.726 81.7282 142.919 81.9212C144.784 83.722 148.032 83.8828 150.058 82.2749C152.084 80.6671 152.663 77.4513 151.344 75.2325C150.026 73.0136 146.906 71.9846 144.559 73.0136C144.302 73.1101 144.044 73.0136 143.916 72.7563C143.819 72.4991 143.916 72.2418 144.173 72.1132C144.398 72.0167 144.623 71.9524 144.848 71.8881L143.691 71.6308C140.411 68.2222 142.019 64.5241 141.729 61.437C141.311 56.8063 138.964 56.4526 136.23 55.52C134.076 55.6808 132.05 56.5169 130.249 57.6424C128.319 58.8644 126.519 60.3436 124.718 61.7264C122.885 63.1413 121.02 64.5562 119.187 65.9711C115.907 68.5116 112.594 71.052 109.282 73.5281C109.411 73.5924 109.507 73.6567 109.636 73.7211C113.077 75.6505 116.55 77.5478 120.023 79.4451C120.184 79.5415 120.312 79.7988 120.248 79.9917C119.991 80.6992 119.733 81.3745 119.508 82.082C118.319 85.4263 117.096 88.7707 115.907 92.0829C115.778 92.4688 115.649 92.8225 115.489 93.2084C115.489 93.3371 115.457 93.4657 115.36 93.5621C114.363 96.3598 113.334 99.1897 112.337 101.987C112.337 102.02 112.305 102.02 112.305 102.052C112.466 102.052 112.627 102.116 112.723 102.277C114.106 104.946 116.132 107.293 118.544 109.094C122.885 112.342 128.416 113.821 133.786 112.921C139.189 111.988 144.173 108.901 147.26 104.367C147.614 103.852 148.45 104.335 148.096 104.849C146.295 107.518 143.851 109.737 141.022 111.345C136.037 114.175 130.024 114.947 124.525 113.242C119.155 111.57 114.492 107.776 111.887 102.791C111.791 102.631 111.823 102.47 111.887 102.341C111.598 102.341 111.276 102.116 111.405 101.762C111.983 100.09 112.594 98.4179 113.173 96.7457C113.559 95.6202 113.977 94.4947 114.363 93.4014C112.08 91.4076 109.282 90.0248 106.292 89.4782C101.243 88.5778 95.4546 90.4107 92.5926 94.8806C91.0169 97.3245 90.5346 100.251 89.1518 102.791C88.0585 104.785 86.3541 106.618 84.1353 107.261C84.6819 107.808 85.2286 108.387 85.7431 108.998C86.5471 109.962 87.158 111.024 87.6082 112.213C89.4733 117.069 87.9297 122.6 86.4505 127.36C86.2576 127.938 85.325 127.713 85.518 127.102C85.8717 125.912 86.2255 124.723 86.5471 123.501C87.1581 121.057 87.6082 118.548 87.4474 116.04C87.2866 113.596 86.4505 111.281 84.8426 109.416C83.3312 107.647 81.4018 106.2 80.212 104.142C78.8293 101.73 79.0544 98.9646 79.2795 96.2955C79.376 95.0092 79.4725 93.6908 79.3439 92.4045C79.2152 91.3111 78.9578 90.2178 78.572 89.1888C77.8002 87.1628 76.5461 85.2977 74.9704 83.7863C73.3947 82.2749 71.4973 81.1172 69.4071 80.4741C67.542 79.8953 65.0659 79.4772 63.3294 80.6349C62.7506 81.0208 62.4611 81.5031 62.3325 82.082C62.236 82.4679 62.2361 82.9181 62.2361 83.3361C62.2361 83.4326 62.2361 83.5612 62.2683 83.6577C62.3648 84.8797 62.429 86.0052 62.2039 87.2271C61.7537 89.4138 60.5318 91.4398 58.8596 92.8868C58.0235 93.6265 57.0588 94.2053 55.9976 94.5912C55.9011 94.6233 55.7725 94.6555 55.676 94.7198C55.3866 94.8163 55.0972 94.9449 54.8399 95.0735C54.7756 95.1057 54.7112 95.17 54.6469 95.2022C54.6148 95.2343 54.5826 95.2665 54.5183 95.2986C54.1324 95.5881 53.7786 95.9739 53.4892 96.3598C52.2673 98.0642 51.9457 100.315 52.1065 102.373C52.2995 105.074 53.3928 107.647 54.036 110.252C54.647 112.792 54.7112 115.333 54.1646 117.905C53.1355 122.761 50.5308 127.102 49.3088 131.894C48.7299 134.145 48.537 136.492 49.0194 138.808C49.4696 140.93 50.37 142.956 51.6242 144.724C54.1324 148.262 58.1521 150.834 62.5255 151.22C63.1365 151.285 63.1365 152.249 62.5255 152.185C61.4 152.089 60.3067 151.863 59.2455 151.542C54.9364 150.159 51.3026 146.847 49.341 142.795C48.3762 140.769 47.7974 138.518 47.7653 136.267C47.7331 133.759 48.3763 131.283 49.2124 128.935C50.8846 124.208 53.5536 119.545 53.5858 114.432C53.5858 111.538 52.589 108.805 51.8493 106.071C51.2062 103.692 50.8523 101.28 51.399 98.8681C51.7206 97.4532 52.4603 95.8453 53.618 94.8163C52.8141 94.5269 51.9779 94.3661 51.1096 94.3661C49.3731 94.3339 47.701 94.8806 45.9966 95.2343C42.4593 96.0061 38.7934 96.2312 35.1917 95.8775C33.8733 95.7488 32.394 95.5881 31.3007 94.752C30.2073 93.8837 29.9501 92.4688 30.6575 91.2468C31.4615 89.8319 33.0372 89.3174 34.5808 89.2852C35.3847 89.2531 36.1886 89.3174 36.9604 89.1566C37.7322 88.9958 38.4075 88.6099 38.9542 88.0632C39.4687 87.5487 39.9188 86.9377 40.1439 86.2303C40.3047 85.7158 40.4977 85.0404 40.1439 84.5581C39.8224 84.1079 39.2758 83.8185 38.7934 83.5612C38.2789 83.304 37.7322 83.0788 37.1856 82.9502C35.8349 82.6286 34.5807 83.8828 33.8733 84.9118C33.1336 85.9408 32.6834 87.1307 32.1046 88.2562C31.5258 89.4138 30.7862 90.475 29.7572 91.2468C28.7281 92.0186 26.9917 92.7904 25.9627 91.5684C25.0623 90.5072 25.5445 88.8029 25.8661 87.613C25.9626 87.2593 26.0591 86.9056 26.1877 86.584C25.1265 87.613 23.8724 88.417 22.4896 88.9636C21.6857 89.2852 20.7531 89.5103 19.9492 88.9958C19.306 88.6099 18.9845 87.8703 18.8881 87.1628C18.8237 86.584 18.9524 86.0052 19.2096 85.4585C18.8237 85.2655 18.5022 85.0083 18.2449 84.6546C17.6661 83.8185 17.7303 82.7251 18.1162 81.8247C18.502 80.9243 19.2096 80.249 19.9492 79.638C20.7531 79.027 21.5893 78.416 22.4254 77.8372C24.0975 76.6474 25.834 75.4897 27.6991 74.6215C28.3744 74.2999 29.0819 73.9783 29.8216 73.7532H29.7894C28.3744 73.0136 27.1203 71.8881 26.1235 70.634C25.0623 69.3155 23.5187 67.0002 24.8372 65.3602C25.6733 64.3311 27.1525 64.1382 28.3423 64.6527C29.7251 65.2637 30.6575 66.55 31.783 67.5147C35.0952 70.3124 39.34 71.663 43.3919 73.2709C43.8421 73.4317 44.2923 73.6246 44.7103 73.7854C48.5371 75.3932 52.2994 77.2262 56.0618 78.9627C57.734 79.7345 59.5027 80.3776 61.1106 81.278C61.2714 81.3745 61.4322 81.471 61.5929 81.5675C62.2682 79.831 64.2299 79.0913 66.1272 79.0592C68.346 79.027 70.6292 79.7666 72.5586 80.86C74.5524 81.9855 76.2888 83.5612 77.6394 85.3942C78.9579 87.2271 79.9227 89.3495 80.2764 91.5684C80.7266 94.2696 80.1156 96.9708 80.1478 99.672C80.18 101.055 80.405 102.405 81.0803 103.627C81.6592 104.689 82.4631 105.589 83.3313 106.425C83.3635 106.457 83.4278 106.522 83.4599 106.554C86.4827 106.007 88.2514 103.209 89.3126 100.54C90.3738 97.8391 91.1778 95.0092 93.1715 92.8225C94.9402 90.9252 97.2875 89.5746 99.7958 88.8993C105.037 87.4522 110.729 89.0601 114.846 92.501C115.649 90.2178 116.486 87.9668 117.29 85.6836C117.965 83.8506 118.608 81.9855 119.283 80.1525C118.415 79.6702 117.547 79.22 116.711 78.7376C113.881 77.1941 111.083 75.6184 108.285 74.0748C107.932 73.8819 107.996 73.4316 108.285 73.2387C110.279 71.7595 112.241 70.2802 114.202 68.7688C117.933 65.9068 121.631 63.0448 125.393 60.1828C127.162 58.8322 128.93 57.353 130.892 56.2918C132.082 55.6486 133.336 55.1663 134.622 54.8447C133.786 54.4267 132.918 53.88 132.114 53.076C130.056 51.0501 129.091 44.4257 133.239 41.0814C136.68 50.0533 142.951 45.7442 149.8 51.436C155.106 55.8416 151.923 67.0323 147.903 71.7916C149.736 72.1132 151.408 73.1744 152.373 74.7822C153.949 77.4513 153.274 81.1494 150.83 83.0789C149.704 83.9793 148.289 84.3973 146.874 84.3973C146.585 84.3973 146.295 84.3651 146.006 84.333C146.231 85.7801 146.456 87.2271 146.681 88.6421C147.099 91.2147 147.549 93.7551 148.032 96.2955C148.032 96.1669 148.064 96.0704 148.193 95.9739C150.99 93.4014 154.946 92.4688 158.644 93.0798C161.988 93.6265 164.979 95.4916 166.844 98.3536C169.031 101.73 169.481 105.814 169.931 109.705C170.156 111.699 170.349 113.693 170.767 115.654C171.185 117.68 171.828 119.674 172.697 121.571C174.401 125.334 176.845 128.71 179.932 131.476C180.221 131.829 179.514 132.505 179.064 132.087ZM30.5611 72.9171C30.7862 73.0136 31.0113 73.0779 31.2364 73.1422C32.2333 73.3673 33.2944 73.2387 34.3556 73.2709C35.6098 72.8207 36.9282 72.4669 38.2467 72.3061C35.8992 71.245 33.6161 70.0551 31.5902 68.4794C31.0435 68.0614 30.5289 67.6112 30.0466 67.161C29.532 66.6786 29.0497 66.1319 28.4709 65.746C27.5705 65.1351 26.1234 64.8778 25.4159 65.939C24.9979 66.6143 25.3195 67.5147 25.6411 68.1578C26.0913 69.0261 26.7022 69.83 27.3454 70.5696C28.2779 71.5022 29.3391 72.3383 30.5611 72.9171ZM19.5954 84.4616C20.0456 83.7542 20.5923 83.111 21.0747 82.5322C22.168 81.1816 23.3579 79.9596 24.6764 78.8341C27.1847 76.6795 30.0466 74.9431 33.1337 73.7532C32.4906 73.8497 31.8796 73.9783 31.2686 74.1391C28.4388 74.9109 25.8339 76.4544 23.4221 78.1266C22.6825 78.6411 21.9429 79.1878 21.2033 79.7345C20.528 80.249 19.7884 80.7635 19.2739 81.471C18.8558 82.082 18.5343 82.9181 18.8237 83.6577C18.9523 83.9793 19.2417 84.3008 19.5954 84.4616ZM61.2714 82.4035C60.2423 81.6639 58.9881 81.1816 57.8305 80.6671C55.9653 79.831 54.1647 78.9949 52.3317 78.1266C50.563 77.2905 48.7944 76.4866 46.9935 75.6827C46.8971 75.6827 46.8006 75.6827 46.7042 75.6184C44.839 74.6536 42.7488 74.0105 40.7229 73.303C39.0185 73.0136 37.3141 73.3995 35.6741 73.8818C34.0662 74.3642 32.5227 74.9752 31.0113 75.7148C28.085 77.1941 25.4159 79.1878 23.1649 81.5675C22.5861 82.1784 22.0072 82.8216 21.4927 83.4969C21.2354 83.8185 20.9782 84.1722 20.7209 84.5259C20.4958 84.8475 20.3029 85.1691 20.11 85.5228C20.11 85.555 20.0778 85.555 20.0778 85.5871C19.7562 86.2624 19.5954 87.0985 20.0456 87.7417C20.5923 88.5135 21.5571 88.1597 22.2324 87.8381C23.6473 87.2271 24.9015 86.3589 25.9305 85.2012C26.445 84.6224 26.8308 83.9471 27.281 83.3039C27.5061 83.0145 27.7313 82.7573 27.9885 82.5C30.6576 78.2874 35.1597 74.9109 40.2727 74.943C40.8837 74.943 40.8837 75.9078 40.2727 75.9078C39.6295 75.9078 38.9863 75.9399 38.3753 76.0685C36.3815 76.4223 34.5486 77.2905 32.9407 78.4803C31.2364 79.7345 29.7894 81.3745 28.6639 83.1753C28.0207 84.2044 27.5062 85.2977 27.0882 86.4232C26.8631 87.0342 26.6701 87.6773 26.5414 88.2883C26.4128 88.8993 26.2198 89.6068 26.3485 90.2178C26.67 91.9221 28.7925 90.5715 29.5 89.9284C31.333 88.224 31.7831 85.6193 33.3267 83.6898C34.1949 82.6286 35.5777 81.5353 37.057 81.7604C38.1181 81.9212 39.2437 82.4679 40.1119 83.111C40.53 83.4326 40.9479 83.8185 41.1087 84.333C41.3016 84.9118 41.2052 85.6193 41.0122 86.166C40.5942 87.5487 39.5652 88.835 38.2789 89.4782C36.7996 90.2178 35.256 89.8641 33.7125 90.0892C32.4583 90.2821 30.7862 91.3433 31.1721 92.8547C31.4936 94.0445 32.9728 94.3982 34.034 94.5912C35.7705 94.8806 37.5393 94.9127 39.2758 94.8806C41.0444 94.8484 42.8131 94.6555 44.5496 94.3339C46.2217 94.0124 47.8618 93.4978 49.5661 93.2727C50.8846 93.1119 52.1709 93.1763 53.425 93.53C53.7466 93.6265 54.0682 93.7229 54.3897 93.8837C54.454 93.9159 54.4862 93.9159 54.5183 93.948C54.7113 93.8516 54.872 93.7872 55.0971 93.7229C57.2838 93.0476 59.1489 91.4398 60.2423 89.446C60.789 88.4491 61.1749 87.3558 61.3036 86.2303C61.5287 84.9761 61.1427 83.6898 61.2714 82.4035Z" fill="black"/>
<path d="M14.0659 110.445L21.6549 114.143C21.0761 114.914 20.1758 115.461 19.2111 115.622C17.5711 115.847 15.8666 114.979 14.9341 113.596C14.3231 112.663 14.0338 111.538 14.0659 110.445ZM34.4215 86.1658C33.8426 85.9729 33.296 86.4552 32.878 86.8733C30.2732 89.6067 27.8614 92.4687 25.5782 95.4914C25.128 95.3307 24.6456 95.202 24.1311 95.1699C22.073 94.9769 19.9507 95.8452 18.5036 97.3244C16.6063 99.2217 15.6095 102.084 13.262 103.402C11.8149 104.238 9.72459 104.592 9.30654 106.2L8.79199 106.039C10.9787 107.583 13.4228 108.74 15.8346 109.866C19.9186 111.795 24.0346 113.757 28.1186 115.686C28.6653 113.564 27.7648 113.564 27.2825 111.345C26.8644 109.383 28.2472 106.939 28.6331 104.978C29.0512 102.888 29.6299 100.669 28.8903 98.6429C28.5366 97.7103 27.9256 96.9385 27.1539 96.3275C29.5978 93.8836 31.9453 91.3431 34.1963 88.7384C34.5179 88.3525 34.8717 87.9345 34.9682 87.42C35.0647 86.9054 34.9038 86.3588 34.4215 86.1658Z" fill="#FFE945"/>
<path d="M8.14805 99.8973C8.05158 100.122 7.69797 100.187 7.47287 100.058C7.21561 99.9295 7.18346 99.6401 7.31208 99.3828C8.40543 96.8424 10.5277 94.8165 13.1324 93.8518C13.3897 93.7553 13.647 93.9482 13.7114 94.1733C13.7757 94.4306 13.6149 94.6878 13.3898 94.7522C11.0423 95.6847 9.14493 97.582 8.14805 99.8973ZM0.944837 98.9648C2.64918 94.8486 5.83285 91.4078 9.72389 89.2532C10.8494 88.6422 12.007 88.1599 13.229 87.774C13.8078 87.5811 13.5826 86.6485 12.9717 86.8414C8.46962 88.2564 4.5143 91.247 1.90956 95.1702C1.16994 96.2635 0.559012 97.4534 0.0444946 98.6754C-0.212764 99.2863 0.719736 99.5436 0.944837 98.9648ZM32.5556 104.785C33.0701 107.036 33.0057 109.352 32.2982 111.538C32.1053 112.117 33.0378 112.374 33.2308 111.796C33.9704 109.448 34.0348 106.94 33.4881 104.528C33.3595 103.917 32.427 104.174 32.5556 104.785ZM38.7941 100.508C40.9808 104.399 41.431 109.159 40.0804 113.403C39.8874 113.982 40.82 114.239 41.0129 113.661C42.46 109.159 41.9455 104.142 39.6302 100.026C39.3408 99.4793 38.5047 99.9938 38.7941 100.508Z" fill="black"/>
<path d="M94.716 31.981C94.523 31.788 94.5552 31.4986 94.716 31.3057C94.9089 31.1128 95.1984 31.1449 95.3913 31.3057L95.4235 31.3378C95.4557 31.37 95.4556 31.37 95.3913 31.3057C95.4235 31.3057 95.4555 31.3378 95.4555 31.3378C95.4877 31.37 95.5199 31.37 95.5521 31.37C95.5843 31.4022 95.6164 31.37 95.5199 31.37C95.5842 31.37 95.6486 31.4022 95.7129 31.4343C95.745 31.4343 95.7771 31.4343 95.8093 31.4665C95.7128 31.4343 95.745 31.4665 95.8093 31.4665C95.8736 31.4665 95.9379 31.4665 95.9701 31.4665C96.0022 31.4665 96.0344 31.4665 96.0987 31.4665C95.9701 31.4665 96.0344 31.4665 96.0987 31.4665C96.163 31.4665 96.2273 31.4343 96.2595 31.4343C96.2916 31.4343 96.3239 31.4022 96.356 31.4022C96.2596 31.4022 96.2917 31.4343 96.3238 31.4022C96.3882 31.37 96.4203 31.3379 96.4846 31.3057C96.5168 31.3057 96.549 31.2735 96.549 31.2414C96.549 31.2414 96.4525 31.3057 96.5168 31.2735C96.549 31.2414 96.6133 31.2092 96.6454 31.1449C96.6454 31.1449 96.7098 31.0484 96.6776 31.1127C96.6455 31.1771 96.6776 31.1127 96.6776 31.0806C96.7098 31.0484 96.7097 31.0163 96.7418 30.9841C96.7418 30.952 96.774 30.952 96.774 30.9198C96.774 30.952 96.7418 30.952 96.7418 30.9841C96.7418 30.952 96.774 30.8877 96.774 30.8233C96.774 30.8233 96.774 30.7268 96.8062 30.7268C96.8062 30.7912 96.8062 30.8233 96.8062 30.759V30.7268C96.8062 30.6625 96.8062 30.6304 96.8062 30.5661C96.8062 30.5017 96.8062 30.5339 96.8062 30.5982C96.8062 30.5661 96.8062 30.5661 96.8062 30.5339C96.8062 30.5018 96.8062 30.5018 96.8062 30.4696L96.7418 30.2767C96.7418 30.2767 96.8061 30.3731 96.7418 30.2767C96.7418 30.2445 96.7098 30.2445 96.7098 30.2123C96.6776 30.148 96.6454 30.1159 96.6132 30.0516C96.5489 29.9551 96.6775 30.1159 96.6132 30.0516C96.5811 30.0194 96.5812 30.0194 96.549 29.9872C96.5169 29.9551 96.4203 29.8586 96.4203 29.8586C96.4203 29.8586 96.5168 29.9229 96.4524 29.8908C96.4203 29.8586 96.3882 29.8586 96.3882 29.8264C96.3561 29.8264 96.3238 29.7943 96.2917 29.7943C96.2595 29.7943 96.2596 29.7621 96.2274 29.7621H96.2595C96.2916 29.7621 96.2916 29.7943 96.2595 29.7621C96.2273 29.7621 96.2274 29.7621 96.1952 29.73C96.1631 29.73 96.1308 29.6978 96.0987 29.6978C96.0665 29.6978 96.0666 29.6978 96.0345 29.6978C96.0666 29.6978 96.0665 29.6978 96.0987 29.6978H96.0345C96.0023 29.6978 95.9701 29.6978 95.9379 29.6978C95.9057 29.6978 95.9058 29.6978 95.8737 29.6978C95.9058 29.6978 95.9057 29.6978 95.9379 29.6978C95.9057 29.73 95.8414 29.73 95.7771 29.73C95.745 29.73 95.745 29.73 95.7129 29.7621C95.6807 29.7943 95.6808 29.7621 95.7451 29.7621C95.7451 29.7943 95.6807 29.7943 95.6485 29.7943C95.6164 29.8265 95.5521 29.8586 95.5199 29.8586C95.4234 29.9229 95.5199 29.8908 95.5199 29.8586L95.4555 29.9229C95.4234 29.9551 95.3913 29.9872 95.3591 30.0194L95.3269 30.0516C95.3591 29.9872 95.3913 29.9872 95.3591 30.0194C95.3591 30.0516 95.3269 30.0515 95.3269 30.0837C95.2948 30.148 95.2627 30.1802 95.2305 30.2445C95.2305 30.2766 95.1983 30.2767 95.1983 30.3088C95.1983 30.2767 95.2305 30.2766 95.2305 30.2445L95.1983 30.3088C95.1662 30.3731 95.1661 30.4374 95.134 30.4696C95.134 30.5018 95.134 30.5018 95.134 30.5339C95.134 30.4696 95.134 30.4374 95.134 30.4696C95.134 30.5018 95.134 30.5339 95.134 30.5339C95.134 30.5982 95.134 30.6625 95.134 30.7268C95.134 30.8233 95.134 30.6947 95.134 30.6947C95.134 30.6947 95.134 30.759 95.1661 30.7912C95.1661 30.8233 95.2627 31.0163 95.1983 30.8876C95.2948 31.1449 95.2627 31.4022 95.0376 31.563C94.8446 31.6916 94.4908 31.6273 94.3622 31.4022C94.2014 31.0163 94.1372 30.6304 94.2658 30.2123C94.3623 29.8586 94.5552 29.5049 94.8446 29.2798C95.3913 28.7653 96.1631 28.6688 96.8384 29.0225C97.4494 29.3441 97.8674 30.0837 97.8031 30.759C97.7388 31.4986 97.2563 32.0453 96.581 32.2704C95.9057 32.5598 95.1983 32.4312 94.716 31.981ZM53.9405 38.8305C54.6158 39.4093 55.3233 40.0203 55.9986 40.5992C56.1915 40.7599 56.481 40.7921 56.6739 40.5992C56.8347 40.4062 56.8669 40.0846 56.6739 39.9239C55.9986 39.345 55.291 38.734 54.6157 38.1552C54.4228 37.9944 54.1335 37.9623 53.9405 38.1552C53.7798 38.316 53.7476 38.6376 53.9405 38.8305ZM85.5833 65.0066C85.4869 67.0647 85.3904 69.1227 85.2939 71.213C85.2618 71.8239 86.2265 71.8239 86.2587 71.213C86.3551 69.1549 86.4516 67.0968 86.548 65.0066C86.5802 64.3956 85.6155 64.3956 85.5833 65.0066Z" fill="black"/>
</svg>
