<svg width="50" height="50" viewBox="0 0 50 50" fill="none" xmlns="http://www.w3.org/2000/svg">
<path d="M19 3.4641C22.7128 1.32051 27.2872 1.32051 31 3.4641L40.6506 9.0359C44.3634 11.1795 46.6506 15.141 46.6506 19.4282V30.5718C46.6506 34.859 44.3634 38.8205 40.6506 40.9641L31 46.5359C27.2872 48.6795 22.7128 48.6795 19 46.5359L9.34937 40.9641C5.63655 38.8205 3.34937 34.859 3.34937 30.5718V19.4282C3.34937 15.141 5.63655 11.1795 9.34937 9.0359L19 3.4641Z" fill="#FFF5EF"/>
<path d="M19.25 3.89711C22.8081 1.84284 27.1919 1.84284 30.75 3.89711L40.4006 9.46891C43.9587 11.5232 46.1506 15.3196 46.1506 19.4282V30.5718C46.1506 34.6804 43.9587 38.4768 40.4006 40.5311L30.75 46.1029C27.1919 48.1572 22.8081 48.1572 19.25 46.1029L9.59937 40.5311C6.04125 38.4768 3.84937 34.6803 3.84937 30.5718V19.4282C3.84937 15.3196 6.04125 11.5232 9.59937 9.46891L19.25 3.89711Z" stroke="#FF6F1E" stroke-opacity="0.2"/>
<path opacity="0.1" d="M26 14.75C23.775 14.75 21.5999 15.4098 19.7498 16.646C17.8998 17.8821 16.4578 19.6391 15.6064 21.6948C14.7549 23.7505 14.5321 26.0125 14.9662 28.1948C15.4003 30.377 16.4717 32.3816 18.0451 33.9549C19.6184 35.5283 21.623 36.5997 23.8052 37.0338C25.9875 37.4679 28.2495 37.2451 30.3052 36.3936C32.3609 35.5422 34.1179 34.1002 35.354 32.2502C36.5902 30.4001 37.25 28.225 37.25 26C37.2472 23.0172 36.0611 20.1573 33.9519 18.0481C31.8427 15.9389 28.9828 14.7528 26 14.75Z" fill="#FF6F1E"/>
<path d="M30.0291 19.5116L22.4314 22.4314L19.5116 30.0291C19.399 30.3166 19.3584 30.6273 19.3934 30.9341C19.4283 31.2409 19.5377 31.5345 19.7121 31.7894C19.8865 32.0442 20.1205 32.2526 20.3938 32.3963C20.6671 32.54 20.9714 32.6147 21.2802 32.6139C21.5161 32.6138 21.7501 32.5713 21.9709 32.4884L29.5686 29.5686L32.4884 21.9709C32.6197 21.6274 32.6488 21.2532 32.5721 20.8935C32.4954 20.5337 32.3162 20.2039 32.0561 19.9439C31.7961 19.6838 31.4663 19.5046 31.1065 19.4279C30.7468 19.3512 30.3726 19.3803 30.0291 19.5116ZM21.4163 31.0233C21.3549 31.0488 21.2872 31.0555 21.222 31.0424C21.1567 31.0294 21.0969 30.9972 21.05 30.95C21.005 30.9017 20.9744 30.8419 20.9614 30.7772C20.9485 30.7126 20.9538 30.6456 20.9767 30.5837L23.3419 24.4512L27.5279 28.6372L21.4163 31.0233ZM31.0233 21.4058L28.6581 27.5488L24.4721 23.3628L30.5942 20.9767C30.654 20.9521 30.7199 20.9458 30.7833 20.9589C30.8467 20.972 30.9048 21.0037 30.95 21.05C30.9941 21.0966 31.0243 21.1546 31.0372 21.2175C31.0501 21.2803 31.0453 21.3456 31.0233 21.4058ZM26 14.75C23.775 14.75 21.5999 15.4098 19.7498 16.646C17.8998 17.8821 16.4578 19.6391 15.6064 21.6948C14.7549 23.7505 14.5321 26.0125 14.9662 28.1948C15.4003 30.377 16.4717 32.3816 18.0451 33.9549C19.6184 35.5283 21.623 36.5997 23.8052 37.0338C25.9875 37.4679 28.2495 37.2451 30.3052 36.3936C32.3609 35.5422 34.1179 34.1002 35.354 32.2502C36.5902 30.4001 37.25 28.225 37.25 26C37.2472 23.0172 36.0611 20.1573 33.9519 18.0481C31.8427 15.9389 28.9828 14.7528 26 14.75ZM26 35.6802C24.0854 35.6802 22.2139 35.1125 20.622 34.0488C19.03 32.9851 17.7893 31.4733 17.0566 29.7045C16.324 27.9356 16.1323 25.9893 16.5058 24.1115C16.8793 22.2337 17.8012 20.5088 19.155 19.155C20.5089 17.8012 22.2337 16.8793 24.1115 16.5058C25.9893 16.1323 27.9356 16.324 29.7045 17.0566C31.4733 17.7893 32.9851 19.03 34.0488 20.6219C35.1125 22.2139 35.6802 24.0854 35.6802 26C35.6775 28.5665 34.6567 31.0271 32.8419 32.8419C31.0271 34.6567 28.5665 35.6775 26 35.6802Z" fill="#FF6F1E"/>
</svg>
