<svg width="300" height="300" viewBox="0 0 300 300" fill="none" xmlns="http://www.w3.org/2000/svg">
<rect width="300" height="300" fill="white"/>
<path d="M122.267 182.541C115.856 185.7 107.936 184.333 101.855 180.703C95.7265 177.073 91.1067 171.369 86.9111 165.618C84.5069 162.271 82.1969 158.829 80.8298 154.964C76.4457 142.471 82.857 128.518 92.0967 118.995C101.289 109.472 113.122 102.92 123.021 94.1046C127.217 90.3804 131.035 86.279 135.514 82.932C146.78 74.3995 161.818 71.0525 175.678 74.0224C183.126 75.6252 190.386 79.1136 195.524 84.7234C199.531 89.0604 202.124 94.4816 205.33 99.4314C208.441 104.24 212.118 108.671 216.314 112.584C220.038 116.072 224.139 119.184 227.533 123.002C238.988 135.966 239.554 157.227 228.853 170.803C221.782 179.76 211.034 184.993 200.286 188.623C191.612 191.592 195.807 165.476 186.662 164.581C180.015 163.921 157.481 174.575 150.834 185.323C148.006 189.895 142.868 189.895 137.541 189.565C130.894 189.188 124.341 187.067 118.684 183.531" fill="#F4F6F9"/>
<path d="M103.034 236.706C103.317 234.396 105.438 232.652 106.004 230.389C106.24 229.447 106.192 228.409 106.145 227.419C105.768 220.443 105.768 213.419 106.145 206.442C106.287 203.472 106.522 200.408 108.078 197.862C109.257 195.929 111.142 194.326 111.378 192.064C111.519 190.697 111.001 189.377 111.001 188.01C111.001 186.642 111.802 185.04 113.169 185.04L112.556 184.757C113.028 181.928 111.237 179.194 109.068 177.309C106.9 175.423 104.26 174.103 102.185 172.17C99.7812 169.954 98.1784 167.079 96.6699 164.203C93.8886 158.971 91.2487 153.502 90.7773 147.61C90.6358 145.865 90.7301 144.074 91.3429 142.471C92.7572 138.841 96.5284 136.861 100.017 135.164L100.158 134.316C101.29 130.733 105.202 128.659 108.927 128.47C112.651 128.282 116.281 129.602 119.816 130.922C125.662 133.09 131.837 135.541 135.278 140.727C138.626 145.724 138.013 151.098 138.296 156.755C138.531 161.092 139.898 164.722 139.521 169.247C139.38 170.756 139.191 172.264 139.38 173.726C139.804 176.648 141.831 179.383 141.501 182.305L141.124 180.797C144.283 186.548 146.262 192.912 146.922 199.465C147.158 201.586 147.252 203.849 148.337 205.687C149.421 207.526 151.354 208.704 152.862 210.26C157.576 215.257 156.916 223.13 155.785 229.965" fill="white"/>
<path d="M154.653 211.439C153.711 210.072 152.485 208.987 151.212 207.856C149.892 206.678 148.761 205.452 148.242 203.708C147.724 201.916 147.724 200.078 147.488 198.239C147.252 196.307 146.875 194.421 146.451 192.535C145.508 188.67 144.047 184.946 142.208 181.41C142.114 178.864 140.652 176.601 140.134 174.15C139.804 172.642 140.04 171.039 140.181 169.53C140.322 167.975 140.275 166.419 140.087 164.911C139.757 162.035 139.05 159.159 138.955 156.236C138.814 153.408 138.908 150.532 138.484 147.704C138.107 144.876 137.117 142.141 135.42 139.831C133.911 137.757 131.931 136.107 129.763 134.74C127.547 133.373 125.096 132.289 122.692 131.346C119.91 130.262 117.082 129.13 114.206 128.423C111.189 127.669 107.936 127.528 105.014 128.706C102.468 129.743 100.347 131.582 99.4982 134.222C99.4511 134.41 99.451 134.599 99.5453 134.74C96.434 136.249 93.1341 137.993 91.3428 141.057C89.2214 144.687 90.0228 149.401 91.1071 153.219C92.2856 157.415 94.3127 161.375 96.3398 165.193C97.3297 167.032 98.3197 168.823 99.5925 170.426C100.865 172.076 102.374 173.443 104.071 174.622C105.957 175.941 107.937 177.12 109.539 178.77C111.001 180.326 112.226 182.4 111.849 184.616C111.849 184.71 111.849 184.757 111.849 184.804C111.095 185.275 110.576 186.171 110.388 187.067C110.011 188.858 111.001 190.602 110.623 192.394C110.293 193.997 109.068 195.269 108.125 196.542C107.088 197.956 106.381 199.559 106.004 201.303C105.627 203.095 105.485 204.933 105.438 206.772C105.344 208.846 105.249 210.967 105.249 213.089C105.155 217.331 105.249 221.574 105.391 225.817C105.438 226.901 105.532 228.033 105.485 229.164C105.438 230.107 105.155 230.955 104.684 231.804C103.835 233.359 102.609 234.774 102.374 236.565C102.327 236.942 102.468 237.319 102.845 237.414C103.175 237.508 103.647 237.319 103.694 236.942C103.929 235.434 104.825 234.255 105.627 232.982C106.522 231.474 106.946 229.965 106.852 228.221C106.711 224.214 106.522 220.207 106.569 216.153C106.569 212.193 106.616 208.186 106.994 204.226C107.135 202.482 107.465 200.691 108.219 199.135C108.926 197.674 110.011 196.495 110.906 195.175C111.378 194.468 111.755 193.714 111.991 192.912C112.226 191.97 112.132 190.98 111.991 190.037C111.849 189.094 111.613 188.151 111.849 187.208C111.991 186.784 112.226 186.313 112.603 186.03C116.94 187.02 121.325 188.057 125.803 187.727C129.574 187.444 133.298 186.265 136.504 184.285C137.965 183.39 139.332 182.4 140.558 181.221C140.652 181.41 140.747 181.599 140.841 181.787C140.841 181.976 140.841 182.164 140.794 182.353C140.747 182.824 141.124 183.06 141.454 183.013C142.821 185.794 143.952 188.67 144.754 191.64C145.225 193.431 145.649 195.269 145.932 197.108C146.215 198.946 146.309 200.832 146.592 202.671C146.875 204.415 147.488 205.97 148.666 207.29C149.751 208.563 151.165 209.506 152.296 210.685C154.418 212.9 155.455 215.87 155.785 218.887C156.162 222.517 155.738 226.147 155.125 229.73C154.983 230.625 156.35 231.002 156.492 230.107C157.482 224.073 158.33 216.86 154.653 211.439ZM131.46 185.04C127.783 186.313 123.964 186.548 120.099 186.077C117.978 185.794 115.856 185.323 113.782 184.851C113.735 184.616 113.546 184.427 113.263 184.427C113.546 180.703 110.812 177.733 107.936 175.612C106.286 174.386 104.495 173.349 102.94 171.982C101.384 170.615 100.205 169.012 99.1211 167.268C98.0368 165.523 97.094 163.638 96.1511 161.799C95.1612 159.866 94.2184 157.934 93.4641 155.907C92.7099 153.927 92.097 151.852 91.7199 149.778C91.3899 147.751 91.1542 145.488 91.7199 143.461C92.8042 139.549 96.764 137.522 100.111 135.919C100.252 136.154 100.535 136.343 100.865 136.296C101.62 136.154 102.468 136.013 103.222 136.201C104.118 136.437 104.448 137.097 104.589 137.993C104.825 139.501 104.589 141.151 103.929 142.518C103.694 142.99 103.411 143.414 103.128 143.838C102.751 143.886 102.515 144.168 102.515 144.546C101.95 145.064 101.337 145.488 100.582 145.771C98.744 146.478 96.3869 146.667 94.4541 146.196C93.5584 145.96 93.1813 147.327 94.077 147.563C95.9626 148.034 98.0368 147.94 99.9224 147.468C100.912 147.233 101.808 146.855 102.609 146.29C102.987 148.223 104.165 149.967 105.862 150.957C105.909 151.004 105.957 151.004 106.004 151.004C106.192 151.711 106.428 152.371 106.711 153.031C107.559 154.964 109.162 157.368 111.566 157.132C111.755 157.132 111.896 157.038 112.038 156.944C112.981 158.028 114.206 158.924 115.573 159.442C113.358 161.516 112.321 164.722 113.075 167.692C113.311 168.587 114.678 168.21 114.442 167.315C113.782 164.628 114.866 161.563 117.129 159.914L117.176 159.866C117.27 159.866 117.365 159.914 117.459 159.914C119.392 160.196 121.372 159.961 123.21 159.254C124.86 158.594 126.604 157.509 127.264 155.765C127.689 154.634 127.453 153.549 126.84 152.701C126.887 152.654 126.934 152.654 126.982 152.607C127.123 152.512 127.264 152.465 127.406 152.371C127.453 152.371 127.5 152.324 127.5 152.324C127.594 152.277 127.641 152.277 127.736 152.229C127.877 152.182 128.019 152.135 128.207 152.135C128.254 152.135 128.301 152.135 128.349 152.135C128.443 152.135 128.49 152.135 128.584 152.135C128.679 152.135 128.773 152.135 128.82 152.135C128.867 152.135 128.914 152.135 128.914 152.135C128.961 152.135 128.961 152.135 129.009 152.135C128.961 152.135 128.961 152.135 128.914 152.135C128.961 152.135 129.103 152.182 129.15 152.182C129.244 152.182 129.339 152.229 129.433 152.229C129.81 152.324 130.234 152.088 130.281 151.758C130.376 151.381 130.187 151.004 129.81 150.91C128.443 150.485 126.887 150.815 125.803 151.711C125.567 151.57 125.379 151.428 125.096 151.334C124.624 151.145 124.153 151.004 123.682 150.957C123.729 150.957 123.729 150.91 123.776 150.91C124.247 150.532 124.624 150.061 124.954 149.542C125.756 148.364 126.51 147.185 127.312 146.054C127.547 145.724 127.359 145.253 127.076 145.064C126.746 144.875 126.321 145.017 126.086 145.3C125.379 146.337 124.672 147.374 124.012 148.411C123.729 148.835 123.493 149.212 123.163 149.542C123.116 149.59 122.974 149.731 122.927 149.778C122.974 149.731 122.833 149.872 122.833 149.872C122.786 149.92 122.739 149.92 122.692 149.967C122.692 149.967 122.644 149.967 122.644 150.014C122.597 150.014 122.55 150.061 122.503 150.061C122.503 150.061 122.267 150.061 122.409 150.061C122.032 150.014 121.655 150.155 121.56 150.532C121.513 150.721 121.56 150.957 121.702 151.145C121.607 151.145 121.56 151.192 121.466 151.192C121.513 151.098 121.56 151.004 121.56 150.862C121.513 148.93 120.052 147.091 118.119 146.761C117.742 146.714 117.318 146.855 117.27 147.233C117.176 147.563 117.365 148.034 117.742 148.081C117.93 148.128 118.119 148.175 118.307 148.222C118.355 148.222 118.402 148.27 118.449 148.27C118.355 148.223 118.355 148.222 118.402 148.222C118.402 148.222 118.449 148.223 118.449 148.27C118.543 148.317 118.638 148.364 118.685 148.411C118.779 148.458 118.826 148.505 118.92 148.553C118.967 148.6 119.015 148.6 119.015 148.647C118.873 148.553 118.967 148.647 119.015 148.647C119.156 148.788 119.298 148.93 119.439 149.071C119.486 149.118 119.533 149.165 119.533 149.165L119.486 149.118C119.486 149.165 119.533 149.165 119.533 149.212C119.58 149.307 119.628 149.354 119.675 149.448C119.722 149.542 119.769 149.637 119.816 149.684C119.816 149.731 119.863 149.778 119.863 149.825C119.91 150.014 120.005 150.155 120.005 150.344C120.005 150.391 120.005 150.438 120.052 150.485C120.052 150.58 120.052 150.674 120.052 150.768C120.052 151.004 120.193 151.287 120.429 151.381C119.816 151.617 119.203 151.9 118.637 152.182C117.836 152.56 118.543 153.785 119.345 153.408C120.806 152.701 122.597 151.852 124.247 152.418C124.624 152.56 124.954 152.701 125.19 152.937C125.237 152.984 125.237 153.031 125.284 153.078C125.332 153.125 125.379 153.125 125.426 153.172C125.992 153.785 126.227 154.587 125.803 155.435C125.096 156.802 123.446 157.604 122.079 158.075C120.523 158.594 118.779 158.735 117.176 158.358C114.159 157.651 111.943 155.388 111.284 152.371C110.954 150.768 110.906 149.071 111.048 147.468C111.189 145.96 111.708 144.404 112.792 143.32C114.018 142.094 115.762 141.529 117.365 141.01C119.439 140.35 121.513 139.69 123.587 139.03C124.436 138.747 124.059 137.38 123.21 137.663C121.042 138.37 118.826 139.03 116.658 139.737C114.96 140.303 113.169 140.963 111.849 142.236C110.529 143.508 109.916 145.3 109.681 147.091C109.445 149.024 109.492 151.051 109.964 152.937C110.199 153.879 110.576 154.775 111.095 155.577C109.539 155.435 108.549 153.644 107.984 152.324C107.229 150.627 106.946 148.741 106.899 146.903C106.852 145.017 107.088 143.037 107.606 141.198C107.842 140.209 108.266 139.36 109.021 138.653C109.681 138.04 110.576 137.569 111.378 137.144C113.122 136.296 114.866 136.814 116.705 136.862C117.6 136.909 117.6 135.494 116.705 135.447C114.866 135.353 113.075 134.882 111.284 135.636C109.256 136.484 107.324 137.804 106.522 139.926C105.768 141.953 105.532 144.31 105.485 146.478C105.485 147.233 105.532 147.987 105.627 148.741C104.589 147.751 103.977 146.337 103.882 144.876C103.93 144.781 104.024 144.734 104.071 144.64C105.014 143.461 105.674 142.047 105.909 140.539C106.145 139.03 106.239 137.097 105.297 135.824C104.872 135.212 104.307 134.882 103.647 134.693C103.694 134.599 103.741 134.504 103.741 134.41C103.741 134.222 103.788 134.033 103.882 133.797C103.93 133.656 103.929 133.609 103.977 133.562C104.024 133.467 104.071 133.326 104.165 133.232C104.401 132.855 104.778 132.477 105.061 132.242C106.004 131.535 107.088 131.252 108.219 131.016C108.596 130.922 108.832 130.497 108.691 130.168C108.596 129.79 108.219 129.602 107.842 129.696C106.475 129.979 105.155 130.403 104.071 131.252C103.081 132.053 102.421 133.184 102.327 134.457C102.327 134.504 102.327 134.552 102.327 134.599C101.714 134.599 101.101 134.693 100.535 134.787C100.535 134.787 100.535 134.74 100.488 134.74C100.582 134.646 100.677 134.552 100.724 134.41C101.431 132.242 103.269 130.686 105.344 129.837C107.842 128.847 110.482 128.895 113.075 129.46C115.903 130.073 118.637 131.157 121.372 132.194C123.729 133.09 126.039 134.08 128.207 135.306C130.328 136.532 132.308 138.04 133.817 139.926C135.514 142.047 136.504 144.546 136.975 147.233C137.4 149.872 137.353 152.56 137.447 155.247C137.541 158.028 138.013 160.762 138.484 163.496C138.72 165.052 138.861 166.655 138.814 168.257C138.767 170.002 138.39 171.746 138.625 173.49C138.861 175.423 139.851 177.261 140.417 179.147C137.918 181.881 134.854 183.861 131.46 185.04ZM127.453 152.371C127.453 152.371 127.5 152.371 127.453 152.371V152.371ZM122.503 150.014C122.456 150.014 122.456 150.014 122.503 150.014V150.014ZM144.895 195.694C142.538 196.778 140.181 197.862 137.777 198.758C133.44 200.361 129.009 201.068 124.436 200.313C119.863 199.606 115.573 197.674 111.378 195.835C110.529 195.458 111.283 194.232 112.085 194.609C114.348 195.599 116.658 196.637 119.015 197.438C123.163 198.899 127.547 199.653 131.931 198.899C136.268 198.145 140.275 196.307 144.188 194.468C144.989 194.091 145.697 195.317 144.895 195.694ZM136.551 191.781C136.834 192.111 137.211 192.347 137.635 192.488C138.437 192.771 139.427 192.535 139.992 191.875C140.511 191.215 140.747 190.272 140.417 189.471C140.228 189 139.992 188.67 139.568 188.387C139.238 188.151 138.767 188.057 138.39 188.057C137.918 188.057 137.447 188.198 137.07 188.434C136.598 188.717 136.315 189.094 136.127 189.612C136.08 189.754 136.08 189.942 136.174 190.084C136.08 190.225 135.985 190.367 136.033 190.508C136.08 190.98 136.221 191.404 136.551 191.781ZM138.248 191.215C138.248 191.215 138.295 191.215 138.342 191.215C138.295 191.215 138.248 191.215 138.248 191.215ZM138.767 191.168C138.767 191.121 138.767 191.121 138.767 191.168V191.168ZM138.955 191.027C138.955 191.027 139.003 190.98 139.003 190.932C139.003 190.98 138.955 190.98 138.955 191.027ZM139.097 190.791L139.144 190.697C139.097 190.744 139.097 190.791 139.097 190.791ZM139.191 190.461C139.191 190.414 139.191 190.414 139.191 190.414C139.191 190.414 139.191 190.414 139.191 190.461ZM139.144 189.942C139.144 189.942 139.144 189.942 139.144 189.895C139.144 189.942 139.144 189.942 139.144 189.942ZM139.05 189.801C139.05 189.801 139.003 189.754 139.003 189.707C139.05 189.754 139.05 189.801 139.05 189.801ZM137.965 189.565C137.918 189.565 137.918 189.565 137.918 189.565C137.918 189.565 137.918 189.565 137.965 189.565ZM137.588 189.848C137.635 189.801 137.683 189.754 137.683 189.707C137.683 189.707 137.73 189.707 137.73 189.66C137.777 189.612 137.824 189.613 137.871 189.565C137.871 189.565 137.918 189.565 137.918 189.518C137.965 189.518 138.06 189.471 138.107 189.471C138.154 189.471 138.154 189.471 138.201 189.471C138.248 189.471 138.295 189.471 138.39 189.471C138.437 189.471 138.437 189.471 138.484 189.471C138.531 189.471 138.625 189.518 138.625 189.518C138.673 189.518 138.673 189.518 138.72 189.565C138.767 189.613 138.814 189.612 138.861 189.66L138.908 189.707L138.955 189.754C138.955 189.754 138.955 189.801 139.003 189.801C139.003 189.848 139.05 189.848 139.05 189.895C139.05 189.895 139.05 189.895 139.097 189.942C139.097 189.99 139.144 190.084 139.144 190.131V190.178C139.144 190.225 139.144 190.32 139.144 190.367C139.144 190.414 139.144 190.461 139.144 190.461C139.144 190.508 139.097 190.602 139.097 190.602C139.097 190.602 139.097 190.65 139.097 190.697V190.744C139.097 190.791 139.05 190.791 139.05 190.838C139.05 190.838 139.003 190.885 139.003 190.932C139.003 190.932 139.002 190.98 138.955 190.98C138.908 191.027 138.908 191.027 138.861 191.074L138.814 191.121C138.767 191.168 138.72 191.168 138.672 191.215H138.625C138.578 191.215 138.578 191.215 138.531 191.215C138.484 191.215 138.437 191.215 138.342 191.215C138.342 191.215 138.343 191.215 138.295 191.215H138.248C138.154 191.215 138.107 191.168 138.013 191.168C138.013 191.168 137.965 191.168 137.965 191.121C137.918 191.074 137.824 191.027 137.777 190.98C137.73 190.932 137.73 190.932 137.683 190.885C137.635 190.838 137.635 190.838 137.588 190.791L137.541 190.744C137.541 190.697 137.494 190.697 137.494 190.65C137.494 190.65 137.494 190.65 137.494 190.602V190.555C137.494 190.508 137.447 190.461 137.447 190.414V190.367C137.447 190.272 137.4 190.225 137.4 190.178C137.447 190.131 137.494 190.084 137.494 189.99C137.494 189.942 137.541 189.942 137.541 189.895C137.541 189.895 137.541 189.848 137.588 189.848Z" fill="black"/>
<path d="M169.079 268.196C166.816 262.257 170.493 255.893 173.369 250.188C177.376 242.174 179.968 233.406 180.864 224.497C181.336 219.782 181.618 214.55 185.107 211.344V211.391C187.228 194.043 185.248 175.894 191.188 159.442C191.99 157.273 192.932 155.058 194.677 153.502C196.232 152.041 198.306 151.239 200.333 150.532C203.916 149.354 207.64 148.411 211.412 147.845C214.712 147.326 218.153 147.044 221.311 148.034C223.715 148.788 226.167 150.391 227.345 152.7C227.77 153.549 227.722 154.68 228.524 155.105C229.372 155.529 230.975 154.822 232.059 155.435C233.049 156 233.804 156.896 234.558 157.792C235.595 159.065 236.585 160.385 237.481 161.752C238.046 162.553 238.565 163.402 238.753 164.344C238.942 165.24 238.801 166.136 238.659 167.031C237.198 175.658 232.719 183.719 226.12 189.471C224.281 191.073 222.254 192.535 220.227 193.902C218.247 195.222 215.419 196.353 213.722 198.05C212.402 199.37 212.307 201.68 211.93 203.472C211.365 206.206 210.94 208.987 210.657 211.768L211.412 212.523C214.287 213.418 215.372 217.001 215.089 219.971C214.806 222.941 213.627 225.816 213.627 228.833C213.674 233.406 216.456 237.413 218.719 241.42C223.48 249.906 225.931 259.664 225.743 269.375" fill="white"/>
<path d="M238.235 161.563C237.386 160.291 236.444 159.018 235.501 157.792C234.652 156.708 233.804 155.624 232.625 154.917C232.106 154.634 231.588 154.492 230.975 154.445C230.362 154.445 229.797 154.587 229.184 154.492C228.712 154.445 228.571 154.115 228.43 153.691C228.241 153.125 228.099 152.56 227.769 151.994C227.157 150.862 226.214 149.967 225.224 149.165C220.415 145.535 213.957 146.526 208.442 147.61C205.425 148.223 202.408 149.024 199.485 150.061C196.939 150.957 194.535 152.182 192.885 154.398C191.235 156.661 190.339 159.442 189.538 162.082C188.642 164.958 187.982 167.88 187.464 170.85C185.437 182.73 185.861 194.845 184.824 206.866C184.683 208.233 184.541 209.6 184.4 210.967C181.901 213.372 181.005 216.813 180.581 220.113C180.346 221.904 180.204 223.743 179.968 225.534C179.733 227.655 179.356 229.73 178.931 231.804C178.036 235.999 176.81 240.101 175.254 244.061C173.699 247.973 171.624 251.603 169.927 255.422C168.136 259.476 166.722 264.001 168.325 268.338C168.655 269.187 170.022 268.81 169.692 267.961C168.277 264.19 169.362 260.23 170.87 256.694C172.473 252.97 174.5 249.482 176.103 245.758C177.706 241.939 178.978 238.026 179.921 234.019C180.817 230.107 181.335 226.194 181.76 222.187C182.137 218.699 182.655 214.88 185.154 212.24C185.154 212.24 185.154 212.24 185.201 212.24C192.744 214.692 201.088 217.332 208.96 214.55C209.856 214.22 210.846 213.937 211.6 213.277C214.476 214.503 214.759 218.51 214.287 221.197C213.91 223.271 213.297 225.298 213.061 227.373C212.873 229.353 213.156 231.285 213.769 233.171C215.041 236.942 217.446 240.195 219.237 243.731C221.123 247.455 222.537 251.415 223.527 255.469C224.611 259.994 225.13 264.661 225.082 269.328C225.082 270.224 226.497 270.224 226.497 269.328C226.638 260.796 224.8 252.263 221.17 244.532C220.274 242.646 219.237 240.808 218.2 238.969C217.163 237.225 216.126 235.434 215.371 233.501C214.617 231.568 214.24 229.588 214.429 227.561C214.617 225.393 215.324 223.271 215.701 221.15C216.22 217.85 215.56 213.607 212.307 212.052C212.354 211.675 212.26 211.345 211.93 211.015C211.789 210.873 211.694 210.826 211.553 210.826C211.742 209.129 212.024 207.479 212.307 205.782C212.354 205.688 212.354 205.593 212.354 205.452C212.543 204.509 212.684 203.566 212.826 202.624C213.014 201.492 213.156 200.266 213.721 199.229C214.287 198.145 215.419 197.485 216.409 196.872C217.54 196.165 218.718 195.599 219.85 194.939C221.076 194.185 222.301 193.337 223.432 192.488C225.695 190.838 227.817 189 229.702 186.878C233.238 182.966 235.972 178.393 237.716 173.443C238.141 172.217 238.518 170.992 238.801 169.719C239.131 168.399 239.461 166.985 239.508 165.618C239.696 164.156 239.083 162.836 238.235 161.563ZM224.234 171.275C224.092 171.275 223.951 171.275 223.81 171.275H223.715C225.035 169.908 225.978 168.069 226.591 166.183C226.779 166.655 227.015 167.126 227.251 167.503C227.015 168.635 226.638 169.766 225.79 170.52C225.46 170.85 224.988 171.086 224.517 171.18C224.47 171.18 224.422 171.18 224.375 171.227C224.375 171.275 224.234 171.275 224.234 171.275ZM208.583 213.23C207.593 213.56 206.603 213.843 205.613 214.032C203.492 214.409 201.276 214.456 199.108 214.267C194.582 213.89 190.198 212.429 185.861 211.015C186.238 207.62 186.521 204.226 186.71 200.832C192.272 204.792 199.108 206.913 205.943 206.819C207.546 206.819 209.149 206.63 210.752 206.395C210.704 206.725 210.657 207.008 210.61 207.338C210.374 208.799 210.186 210.308 210.044 211.816C209.997 212.193 210.233 212.382 210.516 212.476C210.422 212.523 210.28 212.617 210.186 212.665C209.667 212.853 209.149 213.042 208.583 213.23ZM237.905 167.503C237.669 168.776 237.386 170.002 237.009 171.275C235.548 176.177 233.144 180.75 229.891 184.663C226.402 188.858 221.971 192.205 217.21 194.845C215.183 195.977 212.92 197.155 212.119 199.512C211.741 200.644 211.6 201.822 211.364 203.001C211.223 203.661 211.129 204.273 210.987 204.933C204.529 206.112 197.693 205.169 191.754 202.246C190.009 201.398 188.36 200.408 186.851 199.229L186.804 199.182C187.181 191.498 187.322 183.814 188.218 176.177C188.878 170.426 190.057 164.675 192.084 159.206C193.026 156.708 194.299 154.398 196.609 152.937C199.013 151.475 201.936 150.721 204.623 150.014C207.546 149.26 210.516 148.6 213.486 148.27C216.314 147.94 219.284 147.94 222.018 148.977C224.14 149.825 226.072 151.334 226.921 153.455C226.45 153.502 226.025 153.974 226.355 154.492C226.779 155.152 226.921 155.907 226.968 156.708C225.648 158.688 225.365 161.234 225.837 163.591C225.742 164.015 225.648 164.439 225.507 164.863C224.705 167.739 223.197 170.897 220.227 171.935C220.274 171.84 220.368 171.746 220.416 171.652C221.453 169.908 222.065 167.928 222.725 166.042C223.48 163.873 224.14 161.705 224.47 159.442C224.847 156.944 224.752 154.445 223.998 152.088C223.715 151.24 222.348 151.617 222.631 152.465C223.904 156.331 223.102 160.385 221.877 164.156C221.311 165.995 220.651 167.833 219.897 169.577C219.19 171.133 218.294 172.595 216.738 173.396C215.324 174.103 213.674 174.15 212.213 173.632C213.109 172.925 214.004 172.217 214.759 171.369C215.796 170.237 216.456 168.87 216.927 167.409C217.446 165.806 217.964 164.203 218.294 162.601C219.048 159.301 219.096 155.671 217.116 152.795C216.597 152.041 215.371 152.748 215.89 153.502C217.351 155.577 217.587 158.216 217.257 160.715C217.069 162.082 216.691 163.402 216.314 164.769C215.937 165.995 215.607 167.268 215.089 168.399C214.523 169.625 213.721 170.568 212.731 171.416C211.789 172.217 210.799 173.066 209.762 173.726C208.017 174.857 204.812 175.942 203.869 173.255C203.397 171.887 203.822 170.426 204.388 169.106C204.765 168.163 205.425 166.796 206.603 166.796C207.075 166.796 207.404 166.325 207.263 165.9C206.697 164.015 206.839 162.035 207.734 160.244C207.829 160.055 207.829 159.819 207.782 159.678C208.63 158.735 209.337 157.651 209.903 156.519C210.044 156.189 209.997 155.718 209.667 155.529C209.337 155.341 208.866 155.435 208.677 155.765C208.347 156.472 207.923 157.179 207.452 157.839C207.405 157.887 207.357 157.981 207.31 158.028L207.263 158.075C207.216 158.122 207.216 158.122 207.169 158.169C207.027 158.311 206.933 158.499 206.792 158.641C206.697 158.735 206.603 158.829 206.509 158.924C204.482 158.122 204.01 155.529 203.68 153.597C203.633 153.22 203.162 153.031 202.832 153.125C202.455 153.22 202.266 153.597 202.36 153.974C202.596 155.341 202.832 156.755 203.539 157.981C204.057 158.877 204.812 159.631 205.755 160.102C205.755 160.244 205.849 160.432 205.943 160.526C205.99 160.574 206.037 160.621 206.132 160.621C205.613 162.176 205.472 163.826 205.802 165.429C204.906 165.712 204.246 166.466 203.727 167.268C202.973 168.54 202.408 170.096 202.36 171.605C202.313 172.877 202.69 174.292 203.633 175.187C204.717 176.224 206.226 176.366 207.593 176.083C208.819 175.847 209.997 175.235 211.034 174.48C212.637 175.329 214.523 175.517 216.267 175.046C217.493 174.716 218.53 174.009 219.378 173.113C219.52 173.349 219.803 173.49 220.133 173.396C221.075 173.16 221.924 172.783 222.678 172.265C224.045 172.924 225.648 172.595 226.827 171.652C227.722 170.898 228.288 169.86 228.618 168.729C228.665 168.776 228.76 168.823 228.807 168.87C230.457 169.86 232.484 169.625 234.228 170.332C235.076 170.662 235.453 169.295 234.605 168.965C233.144 168.352 231.447 168.493 229.985 167.88C228.477 167.221 227.911 165.382 227.534 163.921C226.779 161.045 227.204 157.557 229.891 155.859C230.221 155.859 230.504 155.812 230.834 155.812C231.494 155.812 231.965 155.954 232.484 156.331C233.568 157.179 234.416 158.405 235.265 159.489C236.161 160.668 237.056 161.846 237.763 163.119C238.376 164.581 238.188 165.948 237.905 167.503ZM191.329 206.819C191.377 207.149 191.377 207.526 191.188 207.809C190.999 208.092 190.764 208.28 190.434 208.375C189.868 208.516 189.302 208.328 188.878 207.95C188.689 207.762 188.501 207.526 188.454 207.29C188.359 207.008 188.407 206.725 188.501 206.442C188.501 206.395 188.548 206.348 188.548 206.301C188.689 205.971 189.019 205.735 189.349 205.688C189.491 205.641 189.632 205.64 189.774 205.64C189.915 205.64 190.104 205.688 190.245 205.735C190.528 205.829 190.764 205.971 190.952 206.159C191.094 206.301 191.282 206.583 191.329 206.819ZM213.25 178.817C215.371 181.74 215.607 185.841 213.863 189.047C213.439 189.848 212.213 189.141 212.637 188.34C214.146 185.558 213.863 182.117 212.024 179.571C211.506 178.77 212.732 178.063 213.25 178.817Z" fill="black"/>
<path d="M146.215 190.084C146.828 184.663 149.279 179.524 153.05 175.612C153.522 175.093 154.087 174.527 154.135 173.82C154.182 173.019 153.522 172.312 153.239 171.557C152.485 169.719 153.663 167.645 153.852 165.665C154.04 163.543 153.003 161.516 153.05 159.395C153.05 155.812 156.539 152.607 160.121 152.842L158.99 151.711C162.856 140.821 153.38 131.77 149.043 122.531C147.535 119.325 146.168 115.884 146.545 112.395C146.922 108.907 149.703 105.418 153.239 105.466C152.673 101.741 156.633 98.0643 160.31 98.96C161.3 97.3101 162.337 95.5188 164.034 94.6702C165.731 93.8217 168.277 94.2459 168.984 96.0373C170.21 94.6702 171.765 93.3975 173.604 93.3975C175.348 93.3975 176.904 94.6231 177.799 96.0845C178.695 97.5459 179.072 99.29 179.449 100.987C182.325 99.0543 186.568 100.657 188.453 103.58C190.339 106.503 190.386 110.227 189.82 113.668C189.208 117.345 187.982 120.928 186.191 124.181C184.211 127.716 181.194 131.157 180.062 135.07C178.742 139.501 180.392 144.546 181.712 148.788L181.571 147.751C183.692 151.051 184.729 155.011 184.494 158.876C184.446 159.536 184.399 160.291 184.682 160.904C185.012 161.611 185.766 162.035 186.332 162.601C186.898 163.166 187.275 164.109 186.709 164.722" fill="white"/>
<path d="M186.143 125.689C188.312 122.106 189.82 118.099 190.527 113.951C191.14 110.226 191.187 105.937 188.783 102.778C186.803 100.185 183.079 98.6297 179.968 99.9497C179.355 97.3569 178.412 94.5755 175.866 93.3027C173.604 92.1242 171.388 92.9727 169.597 94.4812C169.361 94.2455 168.984 94.2927 168.701 94.5284C167.617 93.5856 166.061 93.3499 164.6 93.727C162.431 94.3399 161.064 96.3198 159.98 98.1583C159.933 98.1583 159.886 98.2055 159.838 98.2055C156.114 97.7812 152.626 100.987 152.484 104.664C152.39 104.711 152.296 104.758 152.202 104.805C152.154 104.805 152.154 104.852 152.107 104.852C149.279 105.371 147.063 107.822 146.215 110.556C144.942 114.469 146.497 118.712 148.147 122.247C151.023 128.517 155.69 133.844 158 140.35C159.32 143.979 159.556 147.798 158.283 151.475C158.188 151.805 158.283 152.041 158.518 152.229C156.444 152.606 154.559 153.926 153.427 155.718C152.72 156.802 152.296 158.122 152.296 159.395C152.296 161.092 152.909 162.742 153.097 164.392C153.239 165.994 152.673 167.409 152.39 168.964C152.249 169.671 152.201 170.331 152.343 171.039C152.484 171.84 152.956 172.453 153.286 173.207C153.569 173.867 153.239 174.338 152.814 174.857C152.296 175.423 151.777 175.988 151.259 176.554C150.269 177.733 149.373 179.005 148.619 180.373C146.922 183.39 145.885 186.689 145.507 190.084C145.413 190.979 146.827 190.979 146.922 190.084C147.252 187.208 148.147 184.332 149.467 181.787C150.127 180.514 150.929 179.241 151.824 178.11C152.249 177.591 152.673 177.073 153.144 176.554C153.616 176.035 154.229 175.517 154.559 174.857C154.889 174.291 154.936 173.631 154.7 172.971C154.511 172.358 154.04 171.84 153.804 171.18C153.286 169.766 154.04 168.21 154.323 166.796C154.653 165.287 154.464 163.826 154.134 162.317C153.851 160.903 153.474 159.489 153.852 158.075C154.559 155.388 157.246 153.361 160.027 153.502C160.263 153.502 160.404 153.455 160.498 153.313C164.647 154.162 168.937 154.209 173.085 153.408C175.065 153.031 177.092 152.512 178.931 151.711C180.015 151.239 181.052 150.532 181.712 149.589C182.843 151.852 183.55 154.303 183.692 156.849C183.739 157.603 183.739 158.31 183.692 159.065C183.645 159.866 183.645 160.667 184.069 161.375C184.399 161.94 184.87 162.317 185.389 162.695C185.672 162.93 186.52 163.684 186.143 164.156C185.578 164.863 186.567 165.853 187.133 165.146C188.17 163.826 187.227 162.412 186.143 161.516C185.483 160.998 185.059 160.526 185.059 159.63C185.059 158.735 185.153 157.886 185.106 156.99C184.965 153.549 183.88 150.202 182.042 147.327C181.995 147.232 181.9 147.138 181.806 147.091C180.722 143.555 179.638 139.831 180.345 136.154C181.288 132.289 184.069 129.036 186.143 125.689ZM175.489 94.6699C177.422 95.8484 178.129 98.1112 178.601 100.233C178.176 100.28 177.705 100.374 177.328 100.468C176.621 100.61 175.866 100.893 175.254 101.27C173.886 102.165 173.368 103.721 173.698 105.324C174.169 107.775 176.338 109.331 178.695 109.896C178.601 110.085 178.601 110.321 178.695 110.509C178.648 110.556 178.601 110.651 178.553 110.745C178.459 111.122 178.318 111.499 178.223 111.876C178.176 112.065 178.129 112.253 178.035 112.442C177.988 112.583 177.988 112.725 177.894 112.819C177.752 112.961 177.469 113.008 177.281 113.055C176.998 113.102 176.715 113.149 176.432 113.149C175.395 113.196 174.405 112.913 173.556 112.395C173.556 112.253 173.604 112.159 173.604 112.018C173.698 110.085 173.038 108.152 172.849 106.219C172.661 104.334 172.425 102.448 171.954 100.563C171.529 98.9126 170.964 97.2626 170.304 95.707C171.718 94.4341 173.556 93.4913 175.489 94.6699ZM164.647 95.1884C165.825 94.6698 167.805 94.8585 168.371 96.2255C168.512 96.5555 168.842 96.7912 169.172 96.744C169.785 98.2054 170.257 99.714 170.634 101.27C171.105 103.297 171.294 105.324 171.529 107.351C171.718 109.001 172.331 110.698 172.142 112.348L172.095 112.395C172.001 112.583 171.954 112.772 172.048 112.913C172.048 112.961 172.001 113.055 172.001 113.102C171.812 113.809 171.388 114.516 170.634 114.799C169.927 115.082 169.172 114.988 168.701 114.375C168.56 114.186 168.371 114.139 168.182 114.139C167.617 110.321 166.297 106.502 164.505 103.108C163.657 101.505 162.761 99.7611 161.3 98.6297C162.148 97.3097 163.138 95.8012 164.647 95.1884ZM160.168 99.6668C160.216 99.6668 160.216 99.6668 160.263 99.6668C161.441 100.515 162.195 101.835 162.903 103.108C163.751 104.664 164.505 106.267 165.118 107.916C165.731 109.614 166.203 111.358 166.58 113.102C166.862 114.375 167.24 115.978 166.721 117.298C166.391 118.146 165.637 118.335 164.788 118.288C163.94 118.24 163.138 118.099 162.337 117.863C162.196 116.685 161.63 115.412 161.3 114.422C160.451 112.018 159.508 109.472 158.236 107.257C157.34 105.701 155.69 104.239 153.899 104.287C154.229 101.411 157.34 99.0068 160.168 99.6668ZM180.911 148.505C180.345 149.636 179.119 150.296 177.988 150.721C176.196 151.428 174.311 151.899 172.425 152.229C168.56 152.889 164.6 152.795 160.781 151.993C160.498 151.946 160.31 152.041 160.168 152.182C159.98 152.182 159.791 152.182 159.603 152.182C159.65 152.135 159.697 152.041 159.744 151.946C160.546 149.684 160.781 147.327 160.593 145.017C160.687 145.111 160.875 145.205 161.064 145.205C167.334 145.394 173.651 143.791 179.025 140.538C179.261 143.225 180.109 145.912 180.911 148.505ZM179.166 135.777C178.931 136.814 178.883 137.851 178.883 138.935C173.556 142.282 167.287 143.979 161.017 143.744C160.734 143.744 160.546 143.885 160.451 144.027C160.357 143.414 160.263 142.801 160.121 142.188C159.32 138.983 157.811 136.013 156.161 133.184C154.464 130.261 152.579 127.48 150.976 124.557C149.184 121.257 147.299 117.486 147.299 113.668C147.299 110.274 149.514 106.172 153.333 106.172C153.663 106.172 153.899 105.984 153.993 105.701C155.313 105.607 156.539 106.927 157.151 108.058C158.141 109.849 158.943 111.829 159.65 113.762C160.027 114.799 160.357 115.789 160.687 116.826C160.828 117.25 161.017 117.816 161.064 118.288C161.064 118.335 161.064 118.382 161.064 118.429C161.064 118.759 160.97 119.042 160.687 119.278C159.461 120.315 157.34 119.325 156.256 118.523C154.464 117.203 153.38 115.082 152.39 113.149C151.966 112.348 150.74 113.055 151.164 113.856C151.589 114.705 152.013 115.506 152.532 116.308C152.437 116.355 152.343 116.355 152.202 116.402C152.013 116.449 151.824 116.496 151.636 116.496C151.494 116.543 151.447 116.543 151.212 116.543C150.457 116.59 149.797 116.59 149.137 116.402C148.76 116.308 148.336 116.496 148.289 116.873C148.195 117.25 148.383 117.675 148.76 117.722C150.269 118.052 151.872 117.958 153.333 117.439C153.899 118.24 154.606 118.948 155.36 119.56C156.916 120.739 159.367 121.635 161.205 120.55C161.771 120.22 162.101 119.749 162.29 119.23C163.893 119.702 165.92 119.985 167.192 118.995C168.135 118.24 168.418 117.062 168.418 115.883C169.361 116.449 170.634 116.402 171.577 115.883C172.378 115.412 172.944 114.658 173.226 113.809C174.311 114.375 175.536 114.611 176.762 114.516C177.469 114.469 178.412 114.328 178.931 113.715C179.261 113.338 179.355 112.913 179.496 112.442C179.543 112.253 179.638 112.018 179.685 111.829C180.628 112.866 181.901 113.573 183.315 113.856C183.692 113.903 184.116 113.762 184.163 113.385C184.257 113.055 184.069 112.583 183.692 112.536C183.503 112.489 183.268 112.442 183.079 112.395C182.985 112.348 182.89 112.348 182.796 112.301C182.749 112.301 182.655 112.254 182.608 112.254C182.231 112.065 181.853 111.876 181.476 111.641C181.429 111.594 181.429 111.594 181.382 111.546L181.335 111.499C181.24 111.452 181.193 111.358 181.099 111.311C180.958 111.169 180.816 111.028 180.675 110.886C180.628 110.792 180.533 110.745 180.486 110.651L180.439 110.604C180.392 110.556 180.392 110.556 180.345 110.509C180.251 110.415 180.203 110.321 180.156 110.179C180.392 110.179 180.628 110.226 180.863 110.179C182.985 110.132 185.012 109.331 186.803 108.341C187.605 107.917 186.897 106.691 186.096 107.115C183.22 108.718 179.213 109.755 176.479 107.304C175.395 106.361 174.546 104.617 175.395 103.202C175.772 102.59 176.385 102.26 177.045 102.071C177.422 101.93 177.799 101.882 178.176 101.788C178.553 101.741 178.931 101.6 179.261 101.694C179.449 101.788 179.638 101.741 179.779 101.694C179.826 101.694 179.873 101.647 179.92 101.647C182.513 99.9968 186.049 101.364 187.746 103.721C189.962 106.785 189.726 111.028 189.019 114.563C188.217 118.57 186.662 122.342 184.493 125.783C182.466 128.894 179.921 132.006 179.166 135.777ZM170.257 134.08C164.93 132.43 163.94 125.594 164.741 120.88C164.882 119.985 166.25 120.362 166.108 121.257C165.401 125.17 166.108 131.346 170.634 132.713C171.529 132.996 171.152 134.363 170.257 134.08Z" fill="black"/>
<path d="M77.2474 62.5199C76.7288 61.7656 77.9544 61.0585 78.473 61.8128C82.5742 67.7526 87.2884 73.1738 92.6153 78.0293C93.2753 78.6421 92.2854 79.6321 91.6254 79.0193C86.2042 74.1166 81.3958 68.554 77.2474 62.5199ZM225.176 53.893C219.802 61.7185 214.758 69.7325 209.997 77.935C208.63 80.2921 207.31 82.6492 205.99 85.0062C205.566 85.8076 206.791 86.5147 207.216 85.7133C211.788 77.4165 216.691 69.2611 221.876 61.3414C223.338 59.0786 224.846 56.8158 226.402 54.6002C226.921 53.8459 225.695 53.1388 225.176 53.893ZM178.554 30.3225C176.432 33.4809 178.129 38.195 181.665 39.4678C182.466 39.7506 182.796 38.6193 182.231 38.195C179.449 36.1679 175.16 37.6293 173.981 40.7878C173.651 41.6363 175.018 42.0135 175.348 41.1649C176.621 37.9122 174.452 33.8581 171.058 33.0567C171.011 33.5281 170.917 33.9994 170.87 34.4237C173.698 34.7537 176.527 33.8109 178.648 31.9252C179.308 31.3124 178.318 30.3225 177.658 30.9353C175.82 32.5853 173.321 33.2923 170.87 33.0095C170.068 32.9152 169.927 34.2351 170.681 34.3765C173.368 35.0365 174.971 38.1478 173.981 40.7406C174.452 40.882 174.877 40.9763 175.348 41.1177C176.244 38.7607 179.544 37.9122 181.524 39.3735C181.712 38.9493 181.901 38.525 182.089 38.1008C179.355 37.1579 178.224 33.4338 179.826 31.0296C180.298 30.2753 179.072 29.5682 178.554 30.3225ZM60.3708 95.4243C60.7951 96.2729 61.5965 96.7444 62.3979 97.1687C63.1522 97.5929 63.7649 98.0643 64.0949 98.8657C64.7077 100.28 64.4249 102.071 63.2463 103.108C63.6706 103.297 64.0478 103.438 64.4721 103.627C64.6135 102.118 66.3106 101.176 67.6777 101.128C69.6576 101.034 71.4489 102.166 73.0517 103.156C73.2403 102.731 73.4288 102.307 73.6174 101.883C71.8732 101.176 70.6476 99.3843 70.6476 97.4986C70.6476 95.5658 71.8732 93.8687 73.5703 93.1145C74.2774 92.7845 73.8531 91.8416 73.1932 91.7945C71.9675 91.7002 70.9776 92.4545 70.1762 93.2559C69.3276 94.0573 68.5733 94.7644 67.489 95.0944C65.4148 95.7072 63.105 95.0473 61.785 93.3502C61.2193 92.6431 60.2293 93.6331 60.795 94.3402C62.3035 96.1787 64.802 96.98 67.1591 96.6029C68.2905 96.4143 69.3747 95.9429 70.2233 95.1886C71.1189 94.4344 71.9675 93.1144 73.2874 93.2087C73.146 92.7845 73.0517 92.313 72.9103 91.8888C70.6946 92.8787 69.1862 95.2358 69.2804 97.6871C69.3747 100.186 71.0247 102.354 73.2874 103.25C74.0417 103.533 74.5131 102.354 73.8531 101.977C71.826 100.751 69.5633 99.4314 67.112 99.8557C65.1321 100.186 63.3406 101.6 63.1521 103.674C63.1049 104.334 63.9535 104.523 64.3778 104.193C65.8392 102.92 66.2635 100.751 65.6978 98.9599C65.4149 98.0642 64.8964 97.2629 64.1421 96.6501C63.3407 96.0372 62.1622 95.7544 61.6908 94.8116C61.2194 93.8688 59.9937 94.5758 60.3708 95.4243ZM140.652 38.1478C140.417 46.0675 141.029 53.9873 142.491 61.7656C142.679 62.6613 143.999 62.2841 143.858 61.3884C142.443 53.7044 141.831 45.9261 142.066 38.1478C142.114 37.2521 140.699 37.2521 140.652 38.1478ZM224.516 106.408C225.223 107.068 226.355 106.88 226.968 106.173C227.298 105.748 227.486 105.277 227.486 104.711C227.486 104.193 227.345 103.674 227.203 103.203C227.109 102.873 226.826 102.684 226.543 102.684C225.742 102.637 224.941 102.637 224.186 102.59C223.809 102.59 223.479 102.92 223.479 103.297C223.479 103.674 223.809 104.004 224.186 104.004C224.988 104.051 225.789 104.051 226.543 104.098C226.308 103.91 226.072 103.768 225.883 103.58C225.93 103.768 225.978 103.957 226.025 104.145C226.025 104.24 226.072 104.334 226.072 104.428V104.476C226.072 104.381 226.072 104.334 226.072 104.381C226.072 104.428 226.072 104.475 226.072 104.523C226.072 104.617 226.072 104.711 226.072 104.806V104.853C226.072 104.947 226.072 104.9 226.072 104.806C226.072 104.806 226.072 104.9 226.025 104.947C226.025 104.994 226.025 105.041 225.978 105.088V105.135C225.931 105.23 225.978 105.183 226.025 105.088C225.978 105.135 225.978 105.183 225.931 105.23C226.025 105.088 226.025 105.136 225.978 105.183C225.978 105.23 225.931 105.23 225.931 105.23C225.931 105.23 225.883 105.277 225.836 105.277C225.978 105.135 225.93 105.183 225.883 105.23C225.836 105.277 225.789 105.277 225.695 105.324C225.601 105.371 225.836 105.277 225.742 105.324C225.695 105.324 225.695 105.324 225.648 105.371C225.601 105.371 225.601 105.371 225.553 105.371C225.412 105.418 225.742 105.371 225.601 105.371C225.553 105.371 225.553 105.371 225.506 105.371C225.365 105.371 225.553 105.371 225.601 105.371C225.601 105.371 225.506 105.371 225.506 105.324C225.365 105.277 225.601 105.371 225.553 105.371C225.553 105.371 225.506 105.324 225.459 105.324C225.412 105.324 225.601 105.465 225.506 105.324C225.223 105.041 224.752 105.041 224.516 105.324C224.281 105.701 224.233 106.173 224.516 106.408ZM131.46 55.3073C132.45 58.56 133.44 61.8599 134.429 65.1127C134.712 65.9612 136.08 65.6312 135.797 64.7355C134.807 61.4828 133.817 58.1829 132.827 54.9301C132.591 54.0816 131.224 54.4587 131.46 55.3073ZM90.5882 69.9681C91.9082 71.2881 93.181 72.5609 94.501 73.8809C94.7838 74.1637 95.2553 74.1637 95.491 73.8809C95.7267 73.598 95.7738 73.1738 95.491 72.891C94.171 71.571 92.8982 70.2982 91.5782 68.9782C91.2954 68.6954 90.8239 68.6954 90.5882 68.9782C90.3525 69.2139 90.3054 69.6853 90.5882 69.9681ZM207.828 67.1396C206.273 69.4967 204.764 71.8538 203.209 74.2108C202.69 74.9651 203.916 75.6722 204.434 74.9179C205.99 72.5609 207.498 70.2038 209.054 67.8468C209.573 67.0925 208.347 66.3382 207.828 67.1396Z" fill="black"/>
</svg>
