<svg width="200" height="201" viewBox="0 0 200 201" fill="none" xmlns="http://www.w3.org/2000/svg">
<path d="M93.5314 136.628C88.4461 135.015 83.058 133.199 79.7244 129.035C76.8807 125.481 76.0031 120.783 75.3262 116.279C74.9089 113.513 74.5302 110.74 74.19 107.962C73.6015 103.119 73.1389 98.1658 74.1458 93.39C75.1527 88.6142 77.8501 83.9744 82.1872 81.7362C87.1603 79.1748 93.477 80.0796 98.2052 77.0998C103.988 73.4635 105.124 65.7521 107.73 59.4558C109.68 54.8572 112.62 50.7453 116.341 47.4133C120.063 44.0813 124.473 41.6112 129.258 40.179C141.919 36.4917 156.471 41.0566 165.131 50.9892C167.87 54.1255 170.115 57.8945 170.486 62.0376C171.53 73.6914 158.114 82.2668 157.352 93.9377C156.842 101.761 162.203 109.041 161.859 116.871C161.652 121.572 159.345 126.011 156.148 129.457C152.95 132.903 148.906 135.468 144.729 137.638C131.896 144.291 117.592 147.598 103.141 147.251" fill="#16202C"/>
<path d="M170.728 116.761L170.418 116.621C170.357 110.624 170.418 104.984 170.758 98.2527L170.792 98.12C171.71 98.5574 172.737 98.7122 173.742 98.5647C174.748 98.4172 175.687 97.974 176.44 97.2915C177.193 96.609 177.727 95.718 177.972 94.7317C178.218 93.7454 178.165 92.7083 177.82 91.7523C177.452 90.8067 176.825 89.9844 176.01 89.3802C175.195 88.7759 174.226 88.4143 173.214 88.3371L176.459 75.1117L168.408 72.0503C165.897 71.574 163.203 72.2612 160.9 73.3667C153.944 76.7002 147.076 80.2039 140.916 83.1292C140.916 83.1292 146.699 88.0581 149.583 90.4597C149.583 90.4597 144.801 99.5113 142.243 104.066C133.487 107.284 125.435 112.264 118.255 118.223C114.343 121.469 110.567 125.176 108.73 129.915C108.033 131.734 107.696 133.671 107.737 135.619C106.615 135.034 105.456 134.521 104.267 134.085C99.9712 132.449 95.2022 131.044 92.4775 127.34C91.2393 125.659 90.0317 123.316 87.9466 123.465C86.4295 123.577 85.5212 124.962 84.6879 126.326C83.8747 125.302 83.1477 124.212 82.5142 123.067C84.0586 123.193 85.5008 122.309 86.7016 121.329C88.7426 119.659 90.5488 117.458 90.9128 114.846C91.2767 112.233 89.763 109.243 87.171 108.692C86.9031 108.624 86.6225 108.624 86.3546 108.692C85.5859 108.917 85.3342 109.913 85.4906 110.699C85.6471 111.485 86.0553 112.216 86.0893 113.016C86.1675 114.829 84.1538 116.189 82.3476 116.043C80.5413 115.897 78.9936 114.682 77.7146 113.4C76.1839 111.852 74.7892 109.917 74.8437 107.743C74.8316 107.309 74.9501 106.881 75.1838 106.515C76.6125 104.539 80.5413 108.11 81.9292 106.107C82.5108 105.267 82.004 104.1 81.3441 103.318C79.9727 101.697 78.0372 100.658 75.9288 100.409C74.8743 100.29 73.6837 100.43 72.983 101.222C72.4422 101.831 72.3027 102.695 72.2517 103.508C72.119 105.468 72.3027 107.437 72.7959 109.338C71.4972 105.421 69.6915 101.691 67.4248 98.2425C67.0064 97.6132 66.4724 96.9295 65.724 96.8819C64.8804 96.824 64.1831 97.6438 64.0674 98.4806C63.9518 99.3174 64.2647 100.151 64.5845 100.933C65.8933 104.152 67.429 107.273 69.18 110.274L64.9144 103.253C64.4926 102.573 63.894 101.773 63.0776 101.892C61.8802 102.062 61.9142 103.807 62.3088 104.954C62.9687 106.865 63.7035 108.751 64.5131 110.611L62.4721 106.189C62.2408 105.682 61.9142 105.11 61.3598 105.049C60.6352 104.974 60.1794 105.831 60.1046 106.556C59.9107 108.457 60.8359 110.277 61.7442 111.958C65.3861 118.718 69.1812 125.393 73.1293 131.983C69.5678 133.49 71.9149 139.249 73.9423 141.524C76.4322 144.32 79.8848 146.089 82.504 148.763C85.2763 151.59 86.9805 155.277 89.3412 158.457C94.4674 165.359 99.4882 173.608 108.087 173.764C108.087 173.764 117.952 156.416 138.361 155.736C158.771 155.056 156.39 143.49 165.574 137.368C174.758 131.245 183.847 136.663 183.847 136.663C181.497 128.897 176.938 121.982 170.728 116.761Z" fill="#111217"/>
<path d="M18.4434 120.41L25.0493 115.246L25.1003 115.317C26.7694 117.649 28.8103 117.945 31.2232 116.205C31.4137 116.069 31.6143 115.906 31.8354 115.715C34.5295 113.464 35.55 111.019 34.8969 108.382C33.8764 106.909 33.2301 105.984 32.958 105.606C31.799 103.917 30.2431 102.539 28.4271 101.592C26.6129 100.685 25.1026 100.665 23.8961 101.531L23.4709 101.834C22.2373 103.04 20.8767 105.544 19.389 109.344L12.926 110.766L0 90.5607L17.1542 75.7536L22.3926 82.0908L10.1469 91.3975L15.9296 101.993C18.093 97.9116 20.0807 95.2221 21.8926 93.9249C22.2552 93.6626 22.6671 93.4763 23.1036 93.3773C25.7682 92.0756 28.2252 91.952 30.4748 93.0065C33.1235 94.1698 35.5693 96.3151 37.812 99.4423C38.6657 100.626 39.4516 101.857 40.1659 103.13C44.1934 109.144 43.3305 114.942 37.5773 120.525C36.9125 121.172 36.202 121.77 35.4513 122.315C30.2514 126.04 24.5821 125.405 18.4434 120.41ZM61.9123 54.276C62.36 57.2998 62.5399 60.3573 62.4497 63.4127C62.3568 66.5155 61.9545 69.6013 61.249 72.6242C59.9087 78.4885 57.8032 82.389 54.9322 84.3256C52.2767 86.1974 49.1022 87.1917 45.8534 87.1694L45.3329 87.1524C42.5796 87.1058 39.8587 86.5487 37.3086 85.5094C34.7642 84.4753 32.958 81.61 31.8899 76.9136C31.2696 74.0983 31.009 71.2157 31.1143 68.3348C31.1934 66.0986 31.4379 63.8712 31.8457 61.6711C32.8865 56.2059 33.9864 52.0854 35.1452 49.3097C36.304 46.534 40.5072 43.569 47.7549 40.4146C50.688 40.6418 53.5527 41.416 56.201 42.697C59.1082 44.0486 61.012 47.9083 61.9123 54.276ZM50.3469 49.1737C43.927 50.7384 40.3689 53.4064 39.6727 57.1776C39.3193 59.1645 39.1112 61.1744 39.0502 63.1916C38.9892 65.1511 39.0585 67.1124 39.2577 69.0627C39.65 73.1855 40.3303 76.0292 41.2987 77.5939C41.9586 78.7278 44.2841 79.3514 48.2753 79.4648C48.7992 79.4672 49.3184 79.3655 49.8026 79.1654C51.6168 78.5849 53.1725 76.0711 54.4696 71.6241C55.2375 69.1437 55.6834 66.5749 55.7962 63.9808C55.847 62.5376 55.7467 61.0932 55.4969 59.6709C54.8801 56.0925 53.1634 52.5956 50.3469 49.1805V49.1737Z" fill="#006C8F"/>
<path d="M95.8076 78.0905L85.4764 76.1552C84.3592 75.9459 83.284 76.6819 83.0747 77.799L82.5899 80.3868C82.3807 81.504 83.1166 82.5793 84.2338 82.7885L94.565 84.7238C95.6821 84.9331 96.7574 84.1971 96.9667 83.08L97.4514 80.4922C97.6607 79.375 96.9247 78.2997 95.8076 78.0905Z" fill="#DCDCDC"/>
<path d="M96.0004 77.0867L85.6698 75.1512C85.4813 75.1162 85.2901 75.098 85.0984 75.0967C84.3802 75.0972 83.6849 75.3488 83.1327 75.8079C82.5804 76.2669 82.2061 76.9046 82.0743 77.6105L81.5913 80.1991C81.5146 80.5967 81.5176 81.0055 81.5999 81.4019C81.6823 81.7983 81.8425 82.1744 82.0712 82.5085C82.3 82.8425 82.5927 83.1279 82.9325 83.3481C83.2722 83.5683 83.6523 83.7189 84.0507 83.7912L94.3813 85.7267C94.5687 85.7607 94.7589 85.7778 94.9494 85.7777C95.6679 85.7807 96.3645 85.5308 96.9174 85.0719C97.4702 84.6129 97.844 83.9741 97.9734 83.2673L98.4598 80.6787C98.6081 79.8765 98.4326 79.0482 97.9717 78.375C97.5108 77.7018 96.802 77.2386 96.0004 77.0867ZM97.4563 80.4882L96.9699 83.0769C96.8856 83.5513 96.6361 83.9806 96.2657 84.2887C95.8953 84.5969 95.4278 84.7641 94.9459 84.7606C94.8182 84.761 94.6907 84.7496 94.565 84.7266L84.2344 82.7911C83.9678 82.7434 83.7134 82.643 83.486 82.496C83.2586 82.3489 83.0627 82.1581 82.9098 81.9346C82.7568 81.711 82.6499 81.4593 82.5953 81.1941C82.5406 80.9288 82.5393 80.6554 82.5914 80.3896L83.0744 77.801C83.1222 77.5344 83.2225 77.28 83.3696 77.0526C83.5166 76.8252 83.7075 76.6293 83.931 76.4764C84.1545 76.3235 84.4062 76.2166 84.6715 76.1619C84.9367 76.1073 85.2102 76.1059 85.4759 76.158L95.8065 78.0935C96.0731 78.1409 96.3275 78.2409 96.5551 78.3875C96.7826 78.5342 96.9787 78.7247 97.1319 78.9478C97.2851 79.171 97.3924 79.4224 97.4475 79.6875C97.5026 79.9525 97.5045 80.2259 97.4529 80.4916L97.4563 80.4882ZM86.9828 99.9147L84.9045 111C84.8227 111.437 84.5711 111.822 84.205 112.073C83.8389 112.324 83.3881 112.419 82.952 112.337L81.9043 112.143C81.4679 112.061 81.082 111.809 80.8314 111.442C80.5808 111.075 80.4858 110.624 80.5674 110.187L82.6424 99.1017C82.7249 98.6653 82.9772 98.2795 83.3439 98.0288C83.7106 97.7782 84.1617 97.6833 84.5983 97.7649L84.8875 97.8193C85.0099 96.3136 85.1913 94.8112 85.4317 93.3122C85.4143 93.2869 85.395 93.2631 85.3739 93.2408C85.3212 93.228 85.2708 93.2074 85.2242 93.1796C84.8841 93.0129 84.5711 92.768 84.2548 92.5673C83.6561 92.1863 83.0608 91.8019 82.4689 91.4073C81.2398 90.591 80.03 89.7485 78.8394 88.88C78.7566 88.8214 78.6913 88.7414 78.6505 88.6485C78.6098 88.5556 78.5951 88.4533 78.6081 88.3527C78.4553 85.1323 78.7914 81.9072 79.6048 78.7875C79.6404 78.6566 79.7266 78.5453 79.8443 78.478C79.962 78.4107 80.1016 78.393 80.2324 78.4286C80.3632 78.4642 80.4745 78.5504 80.5418 78.6681C80.6091 78.7858 80.6269 78.9254 80.5913 79.0562C79.8161 82.0344 79.4893 85.1115 79.6218 88.186C80.6865 88.9548 81.758 89.7065 82.8499 90.4345C83.4372 90.8291 84.0314 91.218 84.6323 91.6012C85.1324 91.9176 85.8433 92.2135 86.2175 92.6727C86.3379 92.7969 86.4235 92.9506 86.4658 93.1183C86.4609 93.4631 86.4129 93.8059 86.3229 94.1388C86.2095 94.8668 86.1143 95.5981 86.0372 96.3328C85.976 96.8941 85.9283 97.4588 85.8841 98.0336C86.2613 98.1657 86.5789 98.4281 86.7797 98.7736C86.9805 99.1192 87.0513 99.525 86.9794 99.9181L86.9828 99.9147ZM82.2002 78.8759C82.265 78.8935 82.3256 78.9238 82.3787 78.9649C82.4318 79.0059 82.4763 79.0571 82.5096 79.1154C82.5429 79.1736 82.5645 79.2379 82.5729 79.3045C82.5814 79.3711 82.5767 79.4387 82.5591 79.5035C82.5414 79.5683 82.5112 79.6289 82.4701 79.682C82.429 79.7351 82.3779 79.7796 82.3196 79.8129C82.2613 79.8462 82.1971 79.8677 82.1305 79.8762C82.0639 79.8847 81.9963 79.88 81.9315 79.8624L80.2511 79.5222C80.1203 79.4861 80.0092 79.3995 79.9422 79.2815C79.8752 79.1635 79.8578 79.0237 79.8939 78.8929C79.93 78.7621 80.0166 78.651 80.1346 78.584C80.2526 78.517 80.3924 78.4997 80.5232 78.5357L82.2002 78.8759Z" fill="#DCDCDC"/>
<path d="M87.1145 76.4615C86.9641 76.9059 86.8938 77.3736 86.907 77.8426C86.924 78.6998 87.1077 79.5434 87.0261 80.404C86.9411 81.3326 86.5533 82.2748 86.3628 83.1865L88.9208 83.6661C89.9182 84.3278 90.6796 85.2893 91.0953 86.4117C91.511 87.5341 91.5595 88.7596 91.2339 89.9114C91.0842 90.4488 90.8767 91.0849 91.2339 91.5067C91.3635 91.6399 91.5309 91.73 91.7135 91.7647C91.8961 91.7994 92.0849 91.777 92.2543 91.7006C92.5914 91.5428 92.8589 91.2669 93.0061 90.9251C93.4823 89.925 93.1898 88.7481 92.9313 87.6732C92.6727 86.5982 92.4856 85.3703 93.1115 84.4587L93.0163 84.4348L93.8973 84.5981C93.9279 84.4927 93.9585 84.3838 93.9857 84.2784C94.5122 82.2509 94.8807 80.1856 95.0879 78.1011C95.0879 78.0535 95.0879 78.0058 95.0879 77.9582L87.1145 76.4615Z" fill="#006C8F"/>
<path d="M169.199 91.6058C170.099 91.1807 171.084 90.9643 172.08 90.9725C173.076 90.9807 174.057 91.2135 174.951 91.6534C175.539 91.9459 175.022 92.827 174.434 92.5344C173.7 92.1784 172.896 91.9894 172.08 91.9812C171.264 91.973 170.457 92.1456 169.716 92.4868C169.6 92.5463 169.466 92.5604 169.34 92.5264C169.214 92.4925 169.106 92.4129 169.035 92.3031C168.966 92.1887 168.944 92.0515 168.974 91.921C169.005 91.7905 169.085 91.6773 169.199 91.6058ZM164.872 79.9043L162.892 81.5711C162.797 81.6672 162.744 81.7967 162.744 81.9317C162.744 82.0666 162.797 82.1961 162.892 82.2922C162.99 82.3846 163.119 82.4361 163.253 82.4361C163.387 82.4361 163.516 82.3846 163.613 82.2922L165.593 80.6255C165.688 80.5294 165.741 80.3998 165.741 80.2649C165.741 80.13 165.688 80.0004 165.593 79.9043C165.496 79.812 165.367 79.7605 165.232 79.7605C165.098 79.7605 164.969 79.812 164.872 79.9043ZM163.035 79.3431H163.055L163.11 79.3022L163.185 79.2478C163.29 79.1696 163.396 79.0947 163.504 79.0233C163.565 78.9885 163.618 78.9421 163.66 78.8866C163.702 78.8311 163.733 78.7678 163.75 78.7003C163.768 78.6329 163.771 78.5626 163.761 78.4937C163.751 78.4247 163.728 78.3584 163.692 78.2988C163.622 78.1833 163.51 78.0997 163.38 78.0659C163.249 78.0322 163.111 78.0511 162.994 78.1185C162.061 78.7429 161.254 79.5367 160.613 80.4588C160.55 80.5736 160.534 80.7084 160.567 80.835C160.601 80.9617 160.682 81.0705 160.793 81.1391C160.911 81.2046 161.05 81.2221 161.181 81.1879C161.311 81.1537 161.424 81.0704 161.494 80.9554C161.562 80.8568 161.634 80.7513 161.712 80.6595V80.6391L161.759 80.5812L161.879 80.4384C162.043 80.2424 162.218 80.0551 162.402 79.8771C162.579 79.7036 162.766 79.537 162.957 79.3771C162.984 79.3675 163.01 79.3562 163.035 79.3431ZM162.906 73.6284C162.771 73.6293 162.641 73.6833 162.546 73.7788C162.451 73.8743 162.396 74.0036 162.396 74.1386C162.399 74.2729 162.454 74.4007 162.549 74.4956C162.644 74.5906 162.772 74.6454 162.906 74.6489H162.987L163.154 74.6795C163.27 74.7067 163.382 74.7373 163.494 74.7747C163.55 74.7906 163.605 74.8111 163.658 74.836L163.743 74.8768C163.849 74.9279 163.953 74.9859 164.052 75.0503C164.102 75.0777 164.149 75.1083 164.195 75.1421L164.27 75.1965C164.362 75.2705 164.449 75.35 164.532 75.4346C164.613 75.5033 164.686 75.5809 164.749 75.6659C164.755 75.6782 164.761 75.6897 164.77 75.7C164.79 75.7238 164.807 75.751 164.824 75.7748C164.841 75.7986 164.896 75.8803 164.926 75.9347C164.96 75.9925 165.005 76.0431 165.059 76.0836C165.112 76.124 165.173 76.1535 165.238 76.1704C165.303 76.1873 165.371 76.1913 165.437 76.1821C165.504 76.1728 165.568 76.1506 165.625 76.1167C165.683 76.0827 165.734 76.0377 165.774 75.9842C165.815 75.9307 165.844 75.8697 165.861 75.8048C165.878 75.7399 165.882 75.6723 165.873 75.6059C165.864 75.5394 165.841 75.4755 165.807 75.4176C165.494 74.9158 165.07 74.4932 164.566 74.1828C164.063 73.8724 163.495 73.6826 162.906 73.6284ZM167.886 79.2308C168.01 79.4081 168.118 79.5959 168.209 79.7921L168.239 79.8771L168.291 80.0302C168.322 80.142 168.347 80.2556 168.365 80.3703C168.402 80.5009 168.489 80.6116 168.606 80.6785C168.724 80.7455 168.864 80.763 168.995 80.7275C169.12 80.686 169.225 80.5981 169.289 80.4819C169.352 80.3656 169.368 80.2296 169.335 80.1016C169.243 79.5739 169.028 79.0752 168.707 78.6456C168.387 78.2161 167.971 77.8678 167.491 77.6287C167.375 77.5692 167.241 77.5551 167.115 77.589C166.99 77.623 166.881 77.7026 166.811 77.8124C166.744 77.9299 166.725 78.0692 166.759 78.2003C166.794 78.3313 166.878 78.4436 166.995 78.5131C167.097 78.5608 167.196 78.6153 167.29 78.6764L167.437 78.775L167.481 78.8124C167.567 78.8842 167.649 78.9615 167.726 79.0437C167.763 79.0845 167.801 79.122 167.835 79.1628L167.882 79.224L167.886 79.2308ZM152.83 97.0653L152.732 97.1299C152.667 97.1708 152.596 97.2116 152.528 97.2456L152.46 97.2762L152.388 97.3034L152.164 97.3715C152.092 97.3885 152.021 97.4021 151.946 97.4123H151.905H151.786C151.633 97.4202 151.479 97.4145 151.327 97.3953H151.31L151.17 97.3681C151.092 97.3513 151.015 97.3297 150.939 97.3034L150.851 97.2762L150.772 97.2422L150.606 97.164C150.538 97.1265 150.47 97.0857 150.405 97.0415L150.334 96.9905L150.286 96.9497C150.228 96.8986 150.17 96.8442 150.116 96.7864L150.038 96.7014V96.6843L150.017 96.6537C149.946 96.5403 149.834 96.4581 149.705 96.424C149.575 96.3899 149.438 96.4064 149.32 96.4701C149.204 96.5389 149.119 96.6506 149.085 96.7811C149.051 96.9115 149.069 97.0503 149.136 97.1674C149.387 97.5034 149.702 97.7858 150.064 97.9979C150.426 98.21 150.826 98.3476 151.242 98.4024C151.657 98.4573 152.08 98.4283 152.484 98.3173C152.888 98.2062 153.266 98.0153 153.596 97.7559C153.691 97.6602 153.745 97.5305 153.745 97.3953C153.745 97.2601 153.691 97.1304 153.596 97.0347C153.545 96.9832 153.484 96.9429 153.417 96.9164C153.35 96.8898 153.278 96.8776 153.206 96.8805C153.134 96.8834 153.063 96.9013 152.999 96.9331C152.934 96.965 152.877 97.01 152.83 97.0653ZM183.006 136.466C182.503 134.788 181.89 133.145 181.172 131.547C179.043 126.821 176.051 122.535 172.349 118.907C170.85 120.678 169.476 122.551 168.236 124.513C163.574 131.91 160.861 140.367 160.351 149.096C160.381 149.139 160.406 149.184 160.426 149.232C160.448 149.315 160.449 149.403 160.429 149.486C160.408 149.57 160.368 149.648 160.31 149.712C160.296 149.817 160.25 149.915 160.179 149.994C160.107 150.073 160.014 150.128 159.91 150.152C159.807 150.177 159.699 150.17 159.6 150.132C159.5 150.094 159.415 150.027 159.355 149.94C158.526 149.974 157.703 149.784 156.973 149.389C156.916 149.357 156.866 149.313 156.827 149.259C156.765 149.259 156.704 149.246 156.647 149.221C156.59 149.195 156.539 149.158 156.498 149.112C156.456 149.066 156.424 149.012 156.405 148.953C156.386 148.894 156.379 148.831 156.385 148.769C156.528 146.156 156.861 143.556 157.382 140.99C159.128 132.326 163.007 124.234 168.668 117.448C166.37 118.242 163.956 118.648 161.525 118.648C156.868 118.66 152.333 117.162 148.599 114.379C145.428 111.993 142.956 108.801 141.438 105.134C141.309 105.131 141.186 105.083 141.088 104.999C140.991 104.914 140.926 104.798 140.904 104.671C140.598 104.79 140.292 104.909 139.986 105.035C140.039 105.109 140.068 105.198 140.068 105.289C140.068 105.38 140.039 105.468 139.986 105.542C138.415 107.915 137.015 110.398 135.799 112.971C133.651 117.557 132.084 122.393 131.132 127.367C130.176 132.337 129.852 137.408 130.166 142.459C130.2 142.99 129.546 143.089 129.268 142.769L126.005 141.908C125.726 142.228 125.073 142.126 125.111 141.599C125.304 138.822 125.638 136.056 126.111 133.313C127.711 124.054 130.902 115.143 135.543 106.974C130.387 109.508 125.503 112.563 120.968 116.09C118.431 117.991 116.043 120.082 113.824 122.346C111.739 124.533 109.885 127.037 108.824 129.891C108.215 131.523 107.903 133.251 107.902 134.993C108.375 135.252 108.841 135.524 109.297 135.823C111.576 137.33 113.583 139.415 114.28 142.126C114.457 142.806 114.573 143.613 114.151 144.239C113.971 144.493 113.723 144.691 113.435 144.811C113.148 144.931 112.832 144.969 112.525 144.919C111.123 144.756 110.052 143.592 109.242 142.538C107.769 140.517 106.946 138.095 106.885 135.595C105.803 135.044 104.69 134.556 103.552 134.132C100.919 133.139 98.2076 132.255 95.7721 130.816C94.5625 130.124 93.463 129.254 92.51 128.237C91.612 127.258 90.9759 126.091 90.1289 125.071C89.4077 124.196 88.4281 123.346 87.2103 123.71C86.0674 124.05 85.3769 125.275 84.7986 126.22C84.1135 127.44 83.2294 128.537 82.1828 129.465C81.0058 130.448 79.5738 131.299 78.0464 131.557C76.4511 131.83 74.7605 131.513 73.206 132.023C72.8105 132.144 72.4524 132.363 72.1655 132.661C71.8786 132.959 71.6724 133.325 71.5664 133.724C71.0664 135.53 71.927 137.636 72.8012 139.187C74.0972 141.49 76.281 143.085 78.3628 144.63C79.6313 145.54 80.8465 146.522 82.0025 147.572C83.1216 148.654 84.1259 149.849 84.9993 151.137C85.9007 152.426 86.7001 153.773 87.5573 155.1C88.4145 156.426 89.2581 157.624 90.1527 158.842C91.7548 161.032 93.3196 163.264 95.0578 165.339C96.7007 167.308 98.5138 169.203 100.667 170.618C102.758 172.032 105.208 172.824 107.732 172.9C108.389 172.917 108.389 173.938 107.732 173.921C106.419 173.897 105.117 173.686 103.864 173.291C98.5886 171.608 94.9115 167.005 91.7344 162.726C89.9282 160.291 88.0981 157.862 86.4824 155.294C85.5912 153.885 84.7238 152.457 83.7611 151.106C82.7782 149.749 81.6362 148.515 80.3595 147.429C77.9512 145.388 75.0905 143.776 73.0699 141.306C71.6988 139.665 70.8057 137.679 70.4881 135.564C70.3295 134.606 70.4586 133.623 70.8589 132.738C71.093 132.304 71.4152 131.924 71.8047 131.623C72.1943 131.321 72.6426 131.104 73.1209 130.986C72.359 129.911 71.597 128.84 70.8487 127.758C68.9619 125.05 67.1013 122.329 65.2667 119.594C64.3596 118.22 63.4525 116.842 62.5454 115.461C61.7018 114.175 60.7868 112.9 60.1439 111.498C59.6132 110.338 59.1234 108.818 59.569 107.552C59.6436 107.29 59.7775 107.048 59.9603 106.845C60.1431 106.642 60.37 106.484 60.6235 106.382C60.8667 106.311 61.1253 106.311 61.3685 106.382C61.2866 106.151 61.2251 105.913 61.1848 105.671C61.0011 104.532 61.314 103.011 62.7563 103.008C63.1227 103.018 63.4779 103.136 63.7768 103.348C63.5059 102.845 63.2606 102.328 63.042 101.8C62.6679 100.875 62.5182 99.8342 63.042 98.9328C63.2496 98.5221 63.5952 98.1976 64.0183 98.0166C64.4414 97.8355 64.9147 97.8095 65.3551 97.9429C66.2906 98.2661 66.8824 99.1641 67.4539 99.9158C68.9262 101.866 70.2454 103.926 71.3997 106.08C71.3759 105.835 71.3453 105.586 71.3283 105.338C71.2433 104.008 71.1854 102.379 72.2706 101.406C73.2434 100.535 74.6517 100.423 75.9 100.566C77.3116 100.724 78.6653 101.216 79.8493 102.001C80.9174 102.715 82.0977 103.746 82.3256 105.079C82.424 105.571 82.3332 106.081 82.0714 106.508C81.8097 106.935 81.3963 107.247 80.914 107.382C80.0874 107.607 79.1894 107.399 78.373 107.233C77.6383 107.08 76.7674 106.804 76.0157 107.001C74.8558 107.301 75.2401 108.937 75.5327 109.753C75.9919 111.036 76.9341 112.107 77.9138 113.019C79.6724 114.628 82.7338 116.737 85.0129 114.696C85.4531 114.33 85.7495 113.82 85.8497 113.257C85.9381 112.597 85.6184 111.971 85.3701 111.383C84.9279 110.342 84.6625 108.865 85.7442 108.097C86.7205 107.416 88.2682 107.995 89.1458 108.593C90.114 109.271 90.8634 110.217 91.3024 111.315C92.3501 113.828 91.6222 116.577 90.1595 118.764C89.3769 119.928 88.4384 120.978 87.3702 121.887C86.5493 122.629 85.5607 123.161 84.489 123.438C84.6523 123.666 84.8292 123.88 84.9959 124.118C85.7714 123.179 86.6967 122.506 88.0573 122.625C89.4179 122.744 90.3228 123.645 91.0847 124.639C91.9589 125.758 92.6631 126.986 93.6835 127.986C95.8095 130.064 98.6499 131.224 101.392 132.255C103.245 132.952 105.116 133.615 106.892 134.483C107.029 131.601 107.901 128.802 109.426 126.353C110.977 123.885 112.87 121.65 115.049 119.713C114.918 119.744 114.781 119.727 114.662 119.664C114.543 119.602 114.451 119.498 114.403 119.373C113.409 116.897 112.389 114.43 111.341 111.974C107.586 103.246 103.465 94.6865 98.9798 86.2959C98.6703 85.7176 99.5513 85.204 99.8608 85.7823C101.14 88.177 102.387 90.5864 103.603 93.0106C107.895 101.544 111.824 110.246 115.389 119.118C115.424 119.2 115.433 119.292 115.416 119.38L115.736 119.091C118.273 116.847 120.938 114.752 123.716 112.815C129.228 108.905 135.218 105.718 141.54 103.331C141.994 102.508 142.448 101.684 142.901 100.858C144.822 97.3363 146.718 93.7998 148.589 90.2485L146.619 88.592C144.476 86.7778 142.338 84.9636 140.204 83.1494C140.149 83.0938 140.108 83.0264 140.083 82.9524C140.058 82.8784 140.05 82.7997 140.061 82.7223C140.071 82.6449 140.098 82.5709 140.141 82.5058C140.184 82.4407 140.242 82.3863 140.309 82.3467C142.271 81.4146 144.228 80.4667 146.18 79.5029C149.881 77.6865 153.568 75.8462 157.273 74.0434C159.025 73.1896 160.77 72.2372 162.634 71.6623C163.727 71.3147 164.862 71.1168 166.008 71.0738C165.327 70.5496 164.737 69.9176 164.26 69.2029C162.855 67.1076 163.144 61.2874 167.273 59.1206C168.675 67.3933 174.801 64.7911 179.689 70.8289C183.455 75.4857 178.907 84.459 174.645 87.8981C175.404 88.1918 176.093 88.6428 176.667 89.2213C177.24 89.7999 177.685 90.4931 177.971 91.2554C178.394 92.5547 178.347 93.9608 177.841 95.2296C177.335 96.4984 176.4 97.5499 175.199 98.2015C174.427 98.5915 173.574 98.7921 172.709 98.7865C172.099 98.7853 171.492 98.6924 170.91 98.511C170.627 104.328 170.536 110.144 170.57 115.968C170.63 115.989 170.685 116.021 170.733 116.063C171.321 116.556 171.896 117.084 172.457 117.597C172.596 117.653 172.709 117.758 172.774 117.893C173.411 118.503 174.027 119.133 174.621 119.781C178.926 124.48 182.122 130.085 183.972 136.184C184.179 136.806 183.193 137.078 183.006 136.466ZM84.3598 124.969C83.9346 124.431 83.523 123.883 83.142 123.315C83.0976 123.238 83.0742 123.15 83.0742 123.061C83.0741 122.971 83.0974 122.883 83.1417 122.806C83.186 122.728 83.2499 122.663 83.3269 122.618C83.4039 122.572 83.4914 122.548 83.5808 122.547C84.2357 122.528 84.8755 122.346 85.4415 122.016C86.5694 121.334 87.5669 120.456 88.3873 119.424C89.2696 118.429 89.9542 117.274 90.4044 116.022C91.1357 113.852 90.7718 111.359 88.9996 109.787C88.6062 109.433 88.1426 109.165 87.6389 109.001C87.2001 108.859 86.4824 108.661 86.1558 109.097C85.4755 110.053 86.5946 111.447 86.7885 112.389C87.2784 114.808 84.8054 116.692 82.5637 116.556C81.2191 116.428 79.9371 115.926 78.8628 115.107C77.7923 114.364 76.8237 113.483 75.9817 112.488C75.1325 111.529 74.5465 110.367 74.2809 109.114C74.0938 108.063 74.1584 106.804 75.1789 106.202C76.5804 105.375 78.3934 106.328 79.8629 106.416C80.516 106.457 81.2848 106.297 81.312 105.488C81.3528 104.246 79.8867 103.192 78.9513 102.63C77.8124 101.941 76.5161 101.555 75.1857 101.508C73.9986 101.47 72.7128 101.797 72.3896 103.09C72.2605 103.77 72.2329 104.466 72.308 105.154C72.3468 105.88 72.4321 106.603 72.5631 107.318C72.7418 108.273 72.9966 109.213 73.325 110.127C73.5518 110.654 73.7673 111.185 73.9713 111.723C74.1788 112.264 73.291 112.634 73.0359 112.114C72.7808 111.593 72.5529 110.988 72.3556 110.413C70.8991 106.984 69.0413 103.741 66.8212 100.749C66.3552 100.127 65.8007 99.1199 65.0014 98.8648C64.202 98.6096 63.702 99.5111 63.6986 100.181C63.6986 101.202 64.3312 102.161 64.7803 103.021C65.2701 103.958 65.7792 104.882 66.3076 105.794C67.3643 107.608 68.4982 109.385 69.7092 111.124C70.0867 111.665 69.2057 112.162 68.8247 111.638L65.3823 106.875C64.8993 106.195 64.4299 105.515 63.9299 104.875C63.6407 104.498 63.0897 103.8 62.5284 104.025C61.6712 104.365 62.2801 106.025 62.5284 106.58C63.3686 108.481 64.2938 110.342 65.2837 112.172L67.1103 115.393C67.1789 115.51 67.1983 115.649 67.1641 115.78C67.13 115.911 67.0452 116.024 66.9284 116.092C66.8115 116.161 66.6722 116.18 66.5412 116.146C66.4101 116.112 66.2979 116.027 66.2293 115.91C65.549 114.776 64.8925 113.617 64.2598 112.434L63.5965 111.294L62.3005 109.008C62.093 108.644 61.8991 108.27 61.6746 107.916C61.5419 107.702 61.3345 107.393 61.0827 107.345C60.6405 107.263 60.4636 107.964 60.4296 108.284C60.3886 108.916 60.4777 109.551 60.6916 110.148C61.1167 111.485 61.9331 112.668 62.6917 113.839C64.3426 116.374 66.015 118.896 67.709 121.404C69.8384 124.556 72.0064 127.684 74.2129 130.789C75.6041 130.642 77.0294 130.819 78.39 130.448C79.9579 129.962 81.361 129.052 82.4447 127.819C83.1284 127.054 83.7067 125.952 84.3734 124.955L84.3598 124.969ZM107.926 136.194C107.973 136.714 108.052 137.231 108.161 137.741C108.427 139.021 108.92 140.242 109.617 141.347C110.246 142.33 111.181 143.551 112.358 143.871C114.059 144.327 113.171 141.902 112.824 141.15C112.278 140.003 111.509 138.976 110.562 138.129C109.759 137.388 108.88 136.733 107.94 136.177L107.926 136.194ZM138.761 105.511C138.408 105.661 138.057 105.814 137.71 105.971C137.486 106.069 137.268 106.178 137.03 106.28C137.033 106.372 137.008 106.462 136.959 106.539C135.579 108.88 134.322 111.292 133.193 113.764C129.287 122.331 126.911 131.515 126.172 140.902L129.097 141.664C128.968 139.035 129.01 136.401 129.223 133.779C129.649 128.668 130.703 123.63 132.363 118.778C133.955 114.115 136.103 109.66 138.761 105.511ZM169.25 116.121C169.352 116.082 169.464 116.082 169.566 116.121C169.512 110.11 169.607 104.1 169.906 98.0926C169.124 97.6918 168.449 97.1084 167.94 96.3918C167.898 96.3371 167.867 96.2743 167.85 96.2073C167.832 96.1403 167.829 96.0704 167.839 96.002C167.85 95.9335 167.874 95.8679 167.91 95.8092C167.947 95.7504 167.995 95.6998 168.052 95.6602C168.109 95.6207 168.173 95.5932 168.241 95.5793C168.309 95.5654 168.379 95.5655 168.447 95.5795C168.515 95.5936 168.579 95.6212 168.636 95.6609C168.692 95.7005 168.74 95.7513 168.777 95.8101C169.257 96.503 169.916 97.0528 170.684 97.4011C171.451 97.7493 172.299 97.8829 173.137 97.7877C173.974 97.6925 174.771 97.372 175.441 96.8604C176.111 96.3487 176.629 95.6651 176.942 94.8821C177.254 94.0991 177.348 93.2461 177.215 92.4138C177.081 91.5814 176.724 90.801 176.182 90.1553C175.64 89.5097 174.933 89.023 174.136 88.7472C173.34 88.4713 172.483 88.4165 171.658 88.5886C171.525 88.6161 171.387 88.5898 171.274 88.5155C171.161 88.4412 171.082 88.3249 171.054 88.1923C171.027 88.0597 171.053 87.9216 171.127 87.8083C171.202 87.6951 171.318 87.616 171.451 87.5885C171.607 87.5545 171.76 87.5341 171.917 87.5137L171.141 87.1735C168.906 83.6903 170.917 80.8091 171.216 78.0913C171.634 74.1897 169.825 73.3903 167.722 72.2031C165.756 71.897 163.746 72.3018 161.909 73.0127C160.072 73.7236 158.29 74.7135 156.511 75.5741C154.732 76.4347 152.898 77.3497 151.096 78.2409C147.901 79.8193 144.704 81.3976 141.489 82.9351L141.687 83.1018C144.317 85.3355 146.951 87.5636 149.589 89.7859C149.668 89.8656 149.718 89.9689 149.733 90.08C149.748 90.1912 149.726 90.3041 149.67 90.4016L148.953 91.7622C146.833 95.7557 144.721 99.7662 142.49 103.709C142.491 103.795 142.471 103.881 142.431 103.958C142.392 104.036 142.333 104.102 142.262 104.151L142.19 104.277C142.96 106.317 144.051 108.221 145.422 109.917C148.038 113.177 151.58 115.569 155.582 116.778C160.083 118.089 164.893 117.861 169.25 116.131V116.121ZM171.631 118.162C171.158 117.723 170.678 117.295 170.185 116.876C170.206 116.957 170.207 117.042 170.187 117.124C170.166 117.205 170.126 117.28 170.07 117.342C168.434 119.21 166.941 121.197 165.603 123.288C160.791 130.851 157.982 139.513 157.439 148.46C157.46 148.464 157.481 148.469 157.501 148.477C157.603 148.535 157.708 148.582 157.814 148.633L157.888 148.661L158.042 148.718C158.248 148.786 158.46 148.837 158.674 148.871H158.715H158.746H158.933C159.042 148.871 159.15 148.871 159.273 148.871H159.375C159.508 146.575 159.793 144.29 160.229 142.031C161.938 133.245 165.856 125.039 171.614 118.186L171.631 118.162ZM147.139 115.308C146.902 115.149 146.635 115.041 146.353 114.992C146.072 114.943 145.784 114.953 145.507 115.022C145.4 115.054 145.306 115.118 145.238 115.207C145.171 115.296 145.134 115.404 145.133 115.516L145.071 117.342C145.071 117.477 145.125 117.607 145.221 117.703C145.316 117.799 145.446 117.852 145.582 117.852C145.717 117.852 145.847 117.799 145.942 117.703C146.038 117.607 146.092 117.477 146.092 117.342C146.109 116.89 146.122 116.437 146.136 115.982C146.206 115.995 146.275 116.012 146.343 116.033C146.391 116.05 146.446 116.08 146.367 116.033L146.49 116.094C146.53 116.116 146.568 116.139 146.605 116.165L146.65 116.196C146.715 116.246 146.775 116.302 146.83 116.363L146.908 116.451C146.83 116.359 146.908 116.451 146.929 116.492L146.99 116.59C146.998 116.608 147.007 116.625 147.017 116.641C147.041 116.72 147.065 116.795 147.085 116.873C147.085 116.92 147.085 116.965 147.085 117.009C147.083 117.035 147.083 117.061 147.085 117.087L147.068 117.141L147.037 117.25L147.02 117.291C146.983 117.359 146.929 117.427 146.898 117.499C146.867 117.537 146.833 117.574 146.796 117.607L146.714 117.686L146.694 117.703C146.619 117.747 146.551 117.795 146.476 117.835L146.425 117.863C146.384 117.863 146.347 117.893 146.306 117.903L146.16 117.941H146.129C146.061 117.941 145.908 117.978 145.854 117.941C145.854 117.941 145.959 117.968 145.898 117.941C145.868 117.932 145.837 117.925 145.806 117.92C145.758 117.909 145.71 117.894 145.663 117.876C145.535 117.84 145.398 117.855 145.281 117.919C145.164 117.983 145.077 118.089 145.037 118.216C145.004 118.344 145.02 118.48 145.083 118.597C145.147 118.713 145.252 118.801 145.377 118.842C145.843 118.982 146.342 118.959 146.793 118.778C147.244 118.597 147.621 118.268 147.861 117.846C147.987 117.629 148.068 117.388 148.099 117.139C148.13 116.89 148.11 116.638 148.041 116.397C147.861 115.954 147.544 115.581 147.136 115.332L147.139 115.308ZM144.228 128.914C144.366 129.256 144.402 129.63 144.333 129.993C144.264 130.355 144.091 130.689 143.837 130.955C143.695 131.093 143.525 131.2 143.34 131.269C143.154 131.337 142.956 131.366 142.758 131.353C142.361 131.313 141.988 131.14 141.7 130.863C141.431 130.615 141.246 130.29 141.17 129.931C141.163 129.857 141.163 129.782 141.17 129.707C141.128 129.83 141.041 129.933 140.927 129.996C140.814 130.059 140.681 130.077 140.554 130.047C140.424 130.009 140.315 129.922 140.248 129.805C140.182 129.687 140.163 129.549 140.197 129.418C140.347 128.95 140.632 128.537 141.015 128.231C141.399 127.924 141.864 127.737 142.353 127.693C142.767 127.658 143.18 127.762 143.527 127.989C143.849 128.227 144.092 128.557 144.224 128.935L144.228 128.914ZM142.323 128.707C142.347 128.72 142.384 128.714 142.319 128.727L142.323 128.707ZM143.343 129.789C143.342 129.775 143.342 129.761 143.343 129.748C143.342 129.758 143.342 129.768 143.343 129.778C143.347 129.717 143.347 129.656 143.343 129.595C143.343 129.567 143.343 129.537 143.343 129.51C143.343 129.448 143.316 129.387 143.299 129.329L143.268 129.234C143.241 129.186 143.221 129.139 143.19 129.091L143.136 129.01C143.095 128.965 143.058 128.921 143.013 128.88L142.942 128.833C142.918 128.818 142.893 128.804 142.867 128.792C142.789 128.768 142.717 128.748 142.639 128.731H142.544C142.47 128.736 142.396 128.736 142.323 128.731H142.262L142.173 128.751L142.197 128.772C142.291 128.868 142.343 128.997 142.343 129.132C142.343 129.267 142.291 129.396 142.197 129.493C142.184 129.511 142.172 129.53 142.163 129.55C142.163 129.55 142.163 129.567 142.163 129.574C142.163 129.581 142.163 129.591 142.163 129.608C142.163 129.625 142.163 129.642 142.163 129.653C142.163 129.663 142.163 129.69 142.163 129.71C142.163 129.731 142.163 129.727 142.163 129.734C142.163 129.741 142.183 129.802 142.194 129.836C142.206 129.866 142.221 129.894 142.238 129.921L142.289 130.003V130.023C142.333 130.073 142.379 130.121 142.428 130.166L142.455 130.19L142.513 130.231C142.55 130.253 142.587 130.274 142.626 130.292L142.66 130.309H142.643L142.721 130.329H142.758H142.867L142.956 130.302L143.024 130.265L143.051 130.248C143.066 130.235 143.081 130.221 143.095 130.207C143.115 130.19 143.132 130.166 143.153 130.146L143.19 130.091L143.234 130.006C143.234 129.952 143.268 129.901 143.282 129.846V129.792C143.282 129.792 143.33 129.836 143.333 129.809L143.343 129.789ZM142.663 130.289H142.68C142.622 130.292 142.619 130.295 142.639 130.309L142.663 130.289ZM143.343 129.802V129.778C143.334 129.791 143.329 129.807 143.33 129.823L143.343 129.802ZM104.365 92.9052L123.104 82.7004L128.233 79.9043C129.907 84.0293 131.649 88.126 133.458 92.1943C127.621 95.2511 121.785 98.3126 115.95 101.379L110.902 104.022C110.321 104.328 110.838 105.209 111.419 104.903L129.268 95.5482L133.873 93.1331C134.125 93.6943 134.373 94.259 134.628 94.8339C135.921 97.6912 137.248 100.533 138.608 103.358C138.894 103.95 139.775 103.433 139.489 102.845C137.115 97.901 134.839 92.912 132.662 87.8776C130.485 82.8433 128.411 77.7579 126.441 72.6215C125.325 69.7166 124.245 66.8003 123.199 63.8727C122.978 63.2604 121.992 63.5325 122.216 64.1448C123.996 69.1338 125.874 74.0751 127.849 78.9689L109.205 89.1226L103.851 92.0412C103.273 92.3371 103.79 93.2181 104.365 92.9052Z" fill="#DCDCDC"/>
<path d="M50.8992 144.486C50.8992 144.544 50.9162 144.414 50.9196 144.397C50.923 144.38 50.9502 144.271 50.9672 144.21C50.9955 144.111 51.0354 144.015 51.0862 143.925C51.1821 143.731 51.3098 143.555 51.4638 143.404C51.777 143.084 52.167 142.85 52.5965 142.724C53.023 142.583 53.4824 142.576 53.913 142.703C54.3034 142.826 54.642 143.075 54.8756 143.411C55.1114 143.766 55.2563 144.174 55.2974 144.598C55.3382 145.025 55.274 145.456 55.1103 145.853C54.9432 146.262 54.6372 146.598 54.2463 146.802C54.058 146.895 53.8576 146.96 53.651 146.996C53.4352 147.021 53.2172 147.021 53.0013 146.996C52.9646 146.994 52.9281 146.988 52.8925 146.979L52.6748 146.932C52.5417 146.897 52.411 146.854 52.2836 146.802C52.2495 146.783 52.2143 146.766 52.1781 146.751L52.0081 146.663C51.906 146.602 51.7598 146.506 51.6951 146.455C51.2982 146.159 51.0226 145.729 50.9196 145.244C50.9033 145.178 50.8739 145.116 50.8331 145.061C50.7923 145.006 50.7409 144.96 50.682 144.926C50.6231 144.891 50.5579 144.869 50.4902 144.86C50.4225 144.851 50.3537 144.856 50.2879 144.874C50.2221 144.892 50.1606 144.924 50.1071 144.966C50.0536 145.008 50.0091 145.061 49.9764 145.121C49.9436 145.181 49.9232 145.247 49.9163 145.315C49.9095 145.383 49.9163 145.451 49.9365 145.516C50.0961 146.116 50.4187 146.659 50.8684 147.086C51.3182 147.513 51.8775 147.807 52.4843 147.935C53.0994 148.099 53.7504 148.067 54.3467 147.844C54.943 147.621 55.4548 147.218 55.811 146.69C56.1293 146.161 56.3066 145.56 56.3263 144.943C56.346 144.326 56.2072 143.714 55.9233 143.166C55.6211 142.601 55.145 142.148 54.5656 141.874C53.9861 141.6 53.3339 141.52 52.7054 141.645C51.9938 141.759 51.3365 142.095 50.8285 142.607C50.3205 143.118 49.9879 143.777 49.8787 144.489C49.8413 144.761 50.1406 144.999 50.3889 144.999C50.5232 144.996 50.6509 144.941 50.7459 144.846C50.8408 144.751 50.8957 144.623 50.8992 144.489V144.486Z" fill="#DCDCDC"/>
<path d="M118.404 30.0593L117.003 27.253C116.935 27.1362 116.823 27.0513 116.692 27.0168C116.561 26.9824 116.422 27.0013 116.305 27.0693C116.195 27.139 116.115 27.2476 116.081 27.3736C116.047 27.4996 116.062 27.6338 116.122 27.7496L117.523 30.5593C117.592 30.6761 117.704 30.7609 117.835 30.7951C117.966 30.8292 118.105 30.8099 118.222 30.7413C118.339 30.6727 118.424 30.5606 118.458 30.4295C118.492 30.2984 118.473 30.1591 118.404 30.0423V30.0593Z" fill="#DCDCDC"/>
<path d="M16.1994 61.231L12.4577 58.4247C12.3403 58.3565 12.2007 58.3375 12.0694 58.372C11.9381 58.4064 11.8258 58.4914 11.757 58.6084C11.6975 58.7243 11.6834 58.8582 11.7173 58.984C11.7513 59.1098 11.8309 59.2184 11.9407 59.2887L15.6824 62.095C15.7993 62.163 15.9383 62.1819 16.0691 62.1474C16.1998 62.113 16.3116 62.0281 16.3797 61.9113C16.4392 61.7954 16.4533 61.6614 16.4194 61.5356C16.3854 61.4098 16.3058 61.3012 16.196 61.231H16.1994Z" fill="#DCDCDC"/>
<path d="M75.6546 79.4927C74.3166 76.2499 73.7554 73.1386 73.9708 70.1588C74.0615 68.7864 74.2964 67.4273 74.6715 66.1041C75.3644 63.7293 76.359 61.4532 77.6309 59.3315C79.8465 55.5104 81.8568 53.5375 83.6619 53.4128C84.1561 53.3373 84.6604 53.3615 85.145 53.4842C88.8119 54.5069 90.8223 55.6124 91.176 56.8007C91.7135 58.4675 91.6953 61.2523 91.1216 65.155C90.8614 67.0048 90.4796 68.8354 89.9787 70.635C89.4638 72.4887 88.8135 74.3021 88.033 76.0605C87.8234 76.5218 87.5621 76.9577 87.254 77.3599L93.2544 81.5031C93.5639 80.9622 93.8701 80.3975 94.1694 79.8023C95.5186 77.1699 96.6034 74.4101 97.4077 71.5636C98.1953 68.759 98.7348 65.8907 99.0201 62.9916C99.6596 56.896 98.7888 52.8878 96.4077 50.967C94.2569 49.1738 91.7905 47.7976 89.1351 46.9089C81.7038 48.1584 77.1331 49.9295 75.4233 52.2222C73.7134 54.5149 71.7462 58.0707 69.5215 62.8896C68.6343 64.8292 67.8941 66.8327 67.3071 68.8832C66.5434 71.5218 66.1182 74.2467 66.0417 76.9926C65.9623 80.6935 66.6041 83.4034 67.967 85.1223C71.1033 84.7618 73.7871 83.2141 75.6546 79.4927Z" fill="#006C8F"/>
</svg>
