<svg width="30" height="30" viewBox="0 0 30 30" fill="none" xmlns="http://www.w3.org/2000/svg">
<g clip-path="url(#clip0_27158_61761)">
<path d="M10.4227 28.7497C12.9527 28.7497 15.006 26.6964 15.006 24.1664V19.583H10.4227C7.89269 19.583 5.83936 21.6363 5.83936 24.1664C5.83936 26.6964 7.89269 28.7497 10.4227 28.7497Z" fill="#0ACF83"/>
<path d="M5.83936 15.0003C5.83936 12.4703 7.89269 10.417 10.4227 10.417H15.006V19.5836H10.4227C7.89269 19.5836 5.83936 17.5303 5.83936 15.0003Z" fill="#A259FF"/>
<path d="M5.83936 5.83333C5.83936 3.30333 7.89269 1.25 10.4227 1.25H15.006V10.4167H10.4227C7.89269 10.4167 5.83936 8.36333 5.83936 5.83333Z" fill="#F24E1E"/>
<path d="M15.006 1.25H19.5893C22.1193 1.25 24.1727 3.30333 24.1727 5.83333C24.1727 8.36333 22.1193 10.4167 19.5893 10.4167H15.006V1.25Z" fill="#FF7262"/>
<path d="M24.1727 15.0003C24.1727 17.5303 22.1193 19.5836 19.5893 19.5836C17.0593 19.5836 15.006 17.5303 15.006 15.0003C15.006 12.4703 17.0593 10.417 19.5893 10.417C22.1193 10.417 24.1727 12.4703 24.1727 15.0003Z" fill="#1ABCFE"/>
</g>
<defs>
<clipPath id="clip0_27158_61761">
<rect width="18.337" height="27.5" fill="white" transform="translate(5.83749 1.25)"/>
</clipPath>
</defs>
</svg>
