<svg width="21" height="20" viewBox="0 0 21 20" fill="none" xmlns="http://www.w3.org/2000/svg">
<path d="M10.5 17.4406C6.39065 17.4406 3.05936 14.1093 3.05936 9.99992C3.05936 5.89053 6.39065 2.55923 10.5001 2.55923C14.6094 2.55923 17.9407 5.89053 17.9407 9.99992C17.9407 14.1093 14.6094 17.4406 10.5 17.4406ZM10.5 0.833252C5.43746 0.833252 1.33337 4.93734 1.33337 9.99992C1.33337 15.0625 5.43746 19.1666 10.5 19.1666C15.5626 19.1666 19.6667 15.0625 19.6667 9.99992C19.6667 4.93734 15.5626 0.833252 10.5 0.833252ZM11.4258 9.2186C11.6505 8.65457 11.8317 8.06912 12.1031 7.52879C12.3888 6.95995 12.7593 6.5897 13.4574 6.61112C14.1257 6.6316 14.6454 7.05957 14.8782 7.62145C15.246 8.50969 15.5146 9.39019 15.8148 10.3051C16.0065 10.8892 16.1937 11.526 16.7597 11.8251C17.283 12.1731 17.0766 12.5018 16.9409 12.7362C16.6778 13.0625 16.2473 12.9517 16.2095 12.9468C15.7675 12.8888 15.0988 12.1776 14.8993 11.6733C14.4906 10.6409 14.4015 10.0468 14.0152 9.00541C13.9756 8.89856 13.8688 8.49866 13.8099 8.38472C13.6895 8.1519 13.3589 8.13866 13.2228 8.36252C13.1833 8.42762 13.1507 8.48942 13.1256 8.55416C12.8372 9.29709 12.2239 11.0769 12.1629 11.2103C11.3729 12.935 10.2193 13.145 8.8688 11.6996C8.63956 11.4543 8.42866 11.1229 8.2058 10.8735C7.80568 10.4257 7.45871 10.3876 7.10071 10.8629C6.83609 11.2143 6.5583 11.5504 6.30751 11.9128C5.94349 12.4388 5.46425 12.8788 4.81692 12.9468C4.45026 12.9853 4.076 12.8282 3.97502 12.4311C3.88027 12.0587 4.13465 11.745 4.46486 11.6581C4.96423 11.5266 5.03685 11.4391 5.28528 11.0418C5.31865 10.9885 5.56816 10.5905 5.60103 10.5367C6.80236 8.57078 8.27791 8.59183 9.62111 10.4444C9.71679 10.5765 9.87427 10.7951 10.0166 10.9929C10.1619 11.1949 10.469 11.1729 10.5838 10.9522C11.0368 10.4104 11.2582 9.63955 11.4258 9.21867" fill="#298EEA"/>
</svg>
