<svg width="41" height="41" viewBox="0 0 41 41" fill="none" xmlns="http://www.w3.org/2000/svg">
<g clip-path="url(#clip0_27158_106999)">
<path d="M20.5001 39.6774C31.2123 39.6774 39.8962 30.9935 39.8962 20.2813C39.8962 9.56918 31.2123 0.885254 20.5001 0.885254C9.78793 0.885254 1.104 9.56918 1.104 20.2813C1.104 30.9935 9.78793 39.6774 20.5001 39.6774Z" fill="#FF7B05"/>
<path d="M29.1776 2.93115C34.3271 6.41834 37.7117 12.3151 37.7117 19.0026C37.7117 29.7147 29.0278 38.3987 18.3155 38.3987C15.196 38.3987 12.2491 37.6611 9.63794 36.3526C12.737 38.4513 16.4753 39.6773 20.5 39.6773C31.2122 39.6773 39.8962 30.9934 39.8962 20.2812C39.8962 12.6885 35.5329 6.11592 29.1776 2.93115Z" fill="#FF6500"/>
<path d="M34.9536 7.3483L7.55152 34.7213C7.89145 35.0263 8.24207 35.3197 8.60309 35.6004L35.8319 8.40127C35.5514 8.03986 35.2584 7.68877 34.9536 7.3483ZM31.4769 4.28955L4.44629 31.1691C5.06262 32.076 5.75379 32.9278 6.5109 33.716L34.0075 6.36353C33.2249 5.60385 32.3785 4.90963 31.4769 4.28955Z" fill="#FF9416"/>
<path d="M20.5 33.7296C27.9273 33.7296 33.9484 27.7086 33.9484 20.2812C33.9484 12.8538 27.9273 6.83276 20.5 6.83276C13.0726 6.83276 7.05151 12.8538 7.05151 20.2812C7.05151 27.7086 13.0726 33.7296 20.5 33.7296Z" fill="#FFE92F"/>
<path d="M8.24355 21.4743C8.24355 14.0471 14.2646 8.02605 21.6918 8.02605C25.1047 8.02605 28.22 9.29809 30.5914 11.3929C28.127 8.59723 24.5198 6.83301 20.5 6.83301C13.0728 6.83301 7.05176 12.854 7.05176 20.2813C7.05176 24.2957 8.81129 27.8986 11.6005 30.3627C9.51152 27.9928 8.24355 24.8818 8.24355 21.4743Z" fill="#FFF634"/>
<path d="M31.5845 12.6527C31.3233 12.2741 31.0433 11.9096 30.7456 11.5605L11.7773 30.5087C12.126 30.8066 12.4902 31.0869 12.8684 31.3484L31.5845 12.6527Z" fill="#FFF80B"/>
<path d="M27.1603 8.59082L8.78174 26.8666C9.32455 27.8311 9.98244 28.722 10.7375 29.5203L29.7996 10.5582C29.0063 9.79996 28.1202 9.13809 27.1603 8.59082Z" fill="#FFF80B"/>
<path d="M21.5339 13.864L22.7462 16.3204C22.9142 16.6607 23.2389 16.8965 23.6144 16.9512L26.3252 17.3451C27.271 17.4825 27.6486 18.6447 26.9643 19.3119L25.0027 21.2239C24.7309 21.4888 24.6069 21.8705 24.6711 22.2445L25.1341 24.9444C25.2957 25.8863 24.307 26.6046 23.4611 26.1599L21.0364 24.8852C20.7005 24.7087 20.2993 24.7087 19.9633 24.8852L17.5387 26.1599C16.6928 26.6046 15.7041 25.8863 15.8657 24.9444L16.3287 22.2445C16.3929 21.8705 16.2689 21.4888 15.9971 21.2239L14.0355 19.3119C13.3511 18.6447 13.7288 17.4825 14.6746 17.3451L17.3854 16.9512C17.7609 16.8965 18.0856 16.6607 18.2536 16.3204L19.4659 13.864C19.8889 13.0069 21.1109 13.0069 21.5339 13.864Z" fill="#FF7A00"/>
<path d="M34.6421 6.13914C30.8647 2.36156 25.8422 0.28125 20.5 0.28125C15.1578 0.28125 10.1353 2.36156 6.35789 6.13914C2.58047 9.91672 0.5 14.9391 0.5 20.2812C0.5 25.6234 2.58039 30.6459 6.35789 34.4234C10.1354 38.2009 15.1578 40.2812 20.5 40.2812C21.6664 40.2812 22.8356 40.18 23.9751 39.9803C24.3036 39.9227 24.5232 39.6098 24.4656 39.2813C24.408 38.9528 24.0955 38.7331 23.7666 38.7908C22.6958 38.9784 21.5968 39.0736 20.5 39.0736C15.4804 39.0736 10.7612 37.1188 7.2118 33.5695C3.66242 30.02 1.70773 25.3009 1.70773 20.2812C1.70773 15.2616 3.66242 10.5425 7.2118 6.99305C10.7612 3.44367 15.4804 1.48898 20.5 1.48898C25.5196 1.48898 30.2388 3.44375 33.7882 6.99313C37.3376 10.5425 39.2923 15.2617 39.2923 20.2813C39.2923 24.3667 38.0041 28.2511 35.5668 31.5147C33.2098 34.6708 29.8523 37.0526 26.113 38.2212C25.7948 38.3208 25.6173 38.6595 25.7169 38.9777C25.8163 39.2961 26.1554 39.4733 26.4734 39.374C30.4534 38.13 34.0266 35.5955 36.5345 32.2373C39.1287 28.7634 40.5 24.6291 40.5 20.2812C40.5 14.9391 38.4196 9.91664 34.6421 6.13914Z" fill="black"/>
<path d="M12.3109 10.3857C12.5677 10.1729 12.6034 9.79222 12.3907 9.53542C12.1778 9.27862 11.7971 9.24292 11.5404 9.45565C8.30409 12.1371 6.448 16.0828 6.448 20.2814C6.448 28.0297 12.7517 34.3335 20.5001 34.3335C28.2485 34.3335 34.5522 28.0297 34.5522 20.2814C34.5522 12.533 28.2485 6.22925 20.5001 6.22925C18.0603 6.22925 15.6567 6.8644 13.5494 8.06604C13.2596 8.2312 13.1587 8.60003 13.3239 8.88972C13.4893 9.17956 13.8582 9.28034 14.1476 9.11518C16.0731 8.01729 18.2698 7.43698 20.5001 7.43698C27.5825 7.43698 33.3445 13.1989 33.3445 20.2814C33.3445 27.3638 27.5825 33.1257 20.5001 33.1257C13.4177 33.1257 7.65573 27.3638 7.65573 20.2814C7.65573 16.4436 9.35245 12.8368 12.3109 10.3857Z" fill="black"/>
<path d="M14.7614 17.9425L17.4722 17.5486C18.0446 17.4655 18.5391 17.1062 18.795 16.5875L20.0073 14.1311C20.1475 13.847 20.4197 13.8249 20.4998 13.8249C20.5799 13.8249 20.8522 13.847 20.9923 14.1311L22.2046 16.5874C22.4605 17.1061 22.955 17.4654 23.5274 17.5486L23.6785 17.5761C24.0088 17.624 24.315 17.3954 24.3629 17.0654C24.4109 16.7354 24.1822 16.4289 23.8522 16.3809L23.7011 16.3534C23.5222 16.3274 23.3676 16.2152 23.2875 16.053L22.0753 13.5966C21.7772 12.9925 21.1734 12.6172 20.4997 12.6172C19.8261 12.6172 19.2224 12.9925 18.9242 13.5966L17.7119 16.053C17.6318 16.2151 17.4773 16.3273 17.2984 16.3534L14.5876 16.7473C13.921 16.8441 13.3775 17.3023 13.1693 17.943C12.9611 18.5838 13.1315 19.2739 13.6139 19.7441L15.5754 21.6563C15.7049 21.7824 15.7639 21.9641 15.7334 22.1423L15.2704 24.8422C15.1565 25.5062 15.4243 26.1646 15.9692 26.5605C16.5143 26.9566 17.2232 27.0078 17.8195 26.6943L20.2442 25.4195C20.4041 25.3354 20.5951 25.3354 20.7552 25.4196L23.1798 26.6943C23.4392 26.8306 23.7198 26.898 23.999 26.898C24.3618 26.898 24.7222 26.7843 25.0301 26.5605C25.5751 26.1645 25.8429 25.5061 25.729 24.8422L25.2659 22.1423C25.2354 21.9641 25.2944 21.7824 25.424 21.6562L27.3854 19.7441C27.8678 19.2739 28.0382 18.5838 27.83 17.943C27.6218 17.3023 27.0784 16.8442 26.4117 16.7473C26.0821 16.6991 25.7752 16.928 25.7273 17.2581C25.6793 17.5881 25.908 17.8945 26.2381 17.9425C26.5515 17.988 26.6566 18.2401 26.6814 18.3163C26.7061 18.3924 26.7692 18.6581 26.5424 18.8793L24.581 20.7913C24.1668 21.195 23.9779 21.7763 24.0757 22.3464L24.5387 25.0463C24.5922 25.3585 24.385 25.5364 24.3202 25.5834C24.2555 25.6305 24.0222 25.7726 23.7418 25.6252L21.3173 24.3505C20.8054 24.0814 20.194 24.0814 19.6821 24.3505L17.2577 25.6253C16.9772 25.7727 16.744 25.6305 16.6793 25.5835C16.6146 25.5364 16.4073 25.3586 16.4608 25.0463L16.9239 22.3465C17.0217 21.7764 16.8328 21.195 16.4186 20.7914L14.4572 18.8794C14.2303 18.6582 14.2934 18.3925 14.3182 18.3163C14.3429 18.2402 14.448 17.9881 14.7614 17.9425Z" fill="black"/>
</g>
<defs>
<clipPath id="clip0_27158_106999">
<rect width="40" height="40" fill="white" transform="translate(0.5 0.28125)"/>
</clipPath>
</defs>
</svg>
