<svg width="46" height="46" viewBox="0 0 46 46" fill="none" xmlns="http://www.w3.org/2000/svg">
<path d="M22.9996 44.0643L30.7637 18.1475H15.2354L22.9995 44.0643H22.9996Z" fill="#E24329"/>
<path d="M22.9998 44.0643L15.2355 18.1475H4.35449L22.9998 44.0643Z" fill="#FC6D26"/>
<path d="M4.35505 18.1475L1.99568 26.0235C1.89078 26.3737 1.89076 26.7508 1.99564 27.101C2.10052 27.4511 2.3049 27.7563 2.57951 27.9727L23.0004 44.0645L4.35488 18.1476L4.35505 18.1475Z" fill="#FCA326"/>
<path d="M4.35449 18.1475H15.2355L10.5595 2.5379C10.3188 1.73467 9.27118 1.73485 9.0307 2.5379L4.35449 18.1475Z" fill="#E24329"/>
<path d="M23.0002 44.0643L30.7643 18.1475H41.6455L23 44.0643H23.0002Z" fill="#FC6D26"/>
<path d="M41.6453 18.1475L44.0047 26.0235C44.1096 26.3737 44.1095 26.7509 44.0046 27.101C43.8997 27.4512 43.6953 27.7563 43.4207 27.9727L23 44.0645L41.6453 18.1476V18.1475Z" fill="#FCA326"/>
<path d="M41.6459 18.1475H30.7646L35.4409 2.5379C35.6815 1.73467 36.7292 1.73485 36.9696 2.5379L41.6459 18.1475Z" fill="#E24329"/>
</svg>
