<svg width="20" height="20" viewBox="0 0 20 20" fill="none" xmlns="http://www.w3.org/2000/svg">
<path opacity="0.1" d="M17.3328 2.55505C17.6415 2.69599 17.9176 2.89936 18.1438 3.15232C18.3673 3.4137 18.536 3.71724 18.6401 4.04499C18.7442 4.37274 18.7815 4.71805 18.7498 5.06047L18.2257 12.3409C18.1921 12.9695 17.9185 13.5613 17.4614 13.994C17.0042 14.4268 16.3984 14.6676 15.7688 14.6667H6.02339C5.68271 14.6626 5.34661 14.5877 5.03644 14.4467C4.72627 14.3057 4.44882 14.1017 4.22171 13.8478C3.99555 13.5906 3.82322 13.2906 3.71491 12.9657C3.60661 12.6408 3.56451 12.2975 3.59112 11.956L4.11525 4.67556C4.15421 4.14874 4.35759 3.64745 4.6967 3.2424L5.2968 2.83808L5.8596 2.48078C6.08325 2.39813 6.31775 2.34847 6.55571 2.33337H16.3503C16.6896 2.33862 17.0241 2.4141 17.3328 2.55505Z" fill="#99A1B7"/>
<path d="M18.3221 3.02866C18.0915 2.77077 17.81 2.56345 17.4953 2.41976C17.1806 2.27606 16.8396 2.19912 16.4937 2.19377H6.50844C6.26585 2.20916 6.02679 2.25979 5.79879 2.34405L5.22271 1.39228C5.16438 1.28609 5.07859 1.19752 4.97431 1.13584C4.87003 1.07415 4.7511 1.04162 4.62994 1.04163H1.69114C1.51727 1.06057 1.35651 1.14306 1.23973 1.27326C1.12294 1.40346 1.05835 1.5722 1.05835 1.74711C1.05835 1.92201 1.12294 2.09075 1.23973 2.22095C1.35651 2.35115 1.51727 2.43364 1.69114 2.45258H4.23755L4.61325 3.12049C4.26754 3.53342 4.0602 4.04447 4.02048 4.58155L3.48615 12.0037C3.45903 12.3518 3.50194 12.7018 3.61235 13.0331C3.72277 13.3643 3.89845 13.6701 4.12901 13.9323C4.36055 14.1912 4.6434 14.3991 4.9596 14.5428C5.27581 14.6866 5.61845 14.763 5.96576 14.7672H15.9009C16.5427 14.7681 17.1603 14.5226 17.6264 14.0814C18.0924 13.6402 18.3713 13.0369 18.4056 12.3961L18.9399 4.97394C18.9722 4.62486 18.9342 4.27284 18.8281 3.9387C18.722 3.60457 18.5499 3.29512 18.3221 3.02866ZM16.4937 3.62977C16.6503 3.62735 16.8056 3.65808 16.9495 3.71995C17.0934 3.78182 17.2226 3.87344 17.3286 3.98878C17.4303 4.10157 17.5085 4.23349 17.5586 4.37683C17.6088 4.52017 17.6299 4.67207 17.6208 4.82366L17.5039 6.49344H5.26446L5.39804 4.68173C5.41499 4.39818 5.53917 4.1317 5.74538 3.93635C5.95159 3.74099 6.22439 3.63139 6.50844 3.62977H16.4937ZM15.9176 13.3562H5.98246C5.8253 13.3571 5.66973 13.3248 5.52588 13.2615C5.38203 13.1982 5.25313 13.1053 5.14757 12.9889C4.94377 12.76 4.83873 12.4599 4.85536 12.154L5.15592 7.97953H17.3453L17.0364 12.346C17.0057 12.6221 16.875 12.8774 16.6688 13.0635C16.4626 13.2497 16.1954 13.3538 15.9176 13.3562ZM8.98805 17.5306C8.98312 17.8168 8.89374 18.0952 8.73115 18.3308C8.56855 18.5664 8.33998 18.7486 8.07414 18.8548C7.8083 18.9609 7.51703 18.9861 7.2369 18.9273C6.95677 18.8684 6.70027 18.7281 6.49961 18.524C6.29894 18.3199 6.16305 18.061 6.109 17.7799C6.05495 17.4988 6.08514 17.208 6.19579 16.944C6.30644 16.68 6.49261 16.4546 6.73094 16.2961C6.96926 16.1375 7.24911 16.0529 7.53535 16.0529C7.72793 16.054 7.91839 16.0931 8.09578 16.1681C8.27318 16.243 8.434 16.3523 8.56901 16.4897C8.70401 16.627 8.81054 16.7897 8.88245 16.9683C8.95437 17.147 8.99026 17.3381 8.98805 17.5306ZM15.5002 17.5306C15.4936 17.8148 15.4033 18.0907 15.2407 18.3238C15.078 18.5569 14.8502 18.7368 14.5858 18.841C14.3214 18.9452 14.0321 18.9691 13.7541 18.9097C13.4762 18.8502 13.222 18.7101 13.0233 18.5068C12.8246 18.3036 12.6903 18.0462 12.6373 17.767C12.5842 17.4877 12.6147 17.1991 12.7249 16.9371C12.8351 16.6751 13.0202 16.4515 13.257 16.2942C13.4937 16.1369 13.7716 16.053 14.0558 16.0529C14.2477 16.0551 14.4372 16.095 14.6137 16.1705C14.7901 16.2459 14.9499 16.3554 15.0841 16.4926C15.2182 16.6298 15.324 16.7921 15.3954 16.9702C15.4668 17.1483 15.5024 17.3388 15.5002 17.5306Z" fill="#99A1B7"/>
</svg>
