<svg width="44" height="44" viewBox="0 0 44 44" fill="none" xmlns="http://www.w3.org/2000/svg">
<path d="M18 2.3094C20.4752 0.880338 23.5248 0.880339 26 2.3094L37.0526 8.6906C39.5278 10.1197 41.0526 12.7607 41.0526 15.6188V28.3812C41.0526 31.2393 39.5278 33.8803 37.0526 35.3094L26 41.6906C23.5248 43.1197 20.4752 43.1197 18 41.6906L6.94744 35.3094C4.47223 33.8803 2.94744 31.2393 2.94744 28.3812V15.6188C2.94744 12.7607 4.47223 10.1197 6.94744 8.6906L18 2.3094Z" fill="white"/>
<path d="M18.25 2.74241C20.5705 1.40267 23.4295 1.40267 25.75 2.74241L36.8026 9.12361C39.1231 10.4634 40.5526 12.9393 40.5526 15.6188V28.3812C40.5526 31.0607 39.1231 33.5366 36.8026 34.8764L25.75 41.2576C23.4295 42.5973 20.5705 42.5973 18.25 41.2576L7.19744 34.8764C4.87693 33.5366 3.44744 31.0607 3.44744 28.3812V15.6188C3.44744 12.9393 4.87693 10.4634 7.19744 9.12361L18.25 2.74241Z" stroke="#FF6F1E" stroke-opacity="0.2"/>
<g clip-path="url(#clip0_27158_133562)">
<path opacity="0.1" d="M25.1202 14.125H18.9551C17.625 14.1406 16.355 14.6754 15.4221 15.6127C14.4892 16.55 13.9691 17.8137 13.9751 19.1285V25.0586C13.975 25.6933 14.0971 26.3222 14.3351 26.9117C14.4184 27.1244 14.5187 27.3301 14.6351 27.527L14.7101 27.6604C14.8076 27.8161 14.9051 27.9569 15.0101 28.0977L15.1376 28.2608C15.2501 28.3942 15.3701 28.5202 15.4901 28.6388L15.7076 28.839L15.9926 29.0614C16.0976 29.1429 16.2101 29.217 16.3226 29.2912C16.4351 29.3653 16.5551 29.432 16.6676 29.4913L16.9076 29.6099C17.0651 29.6766 17.2226 29.7433 17.3877 29.7952L17.5452 29.8471C17.7273 29.9004 17.9127 29.9425 18.1001 29.9731H18.2801C18.5012 30.0051 18.7242 30.0225 18.9476 30.025H25.1127C26.4376 30.0114 27.7039 29.4826 28.6373 28.5531C29.5707 27.6236 30.0963 26.3682 30.1002 25.0586V19.1285C30.1062 17.8137 29.5861 16.55 28.6532 15.6127C27.7203 14.6754 26.4503 14.1406 25.1202 14.125Z" fill="#FF6F1E"/>
<path d="M25.0826 13.9375H18.9176C17.5874 13.9533 16.3174 14.4944 15.3845 15.4427C14.4516 16.3911 13.9315 17.6697 13.9376 19V25C13.9374 25.6422 14.0595 26.2785 14.2976 26.875C14.3808 27.0902 14.4811 27.2983 14.5976 27.4975L14.6726 27.6325C14.7701 27.79 14.8676 27.9325 14.9726 28.075L15.1001 28.24C15.2126 28.375 15.3326 28.5025 15.4526 28.6225L15.6701 28.825L15.9551 29.05C16.0601 29.1325 16.1726 29.2075 16.2851 29.2825C16.3976 29.3575 16.5176 29.425 16.6301 29.485L16.8701 29.605C17.0276 29.6725 17.1851 29.74 17.3501 29.7925L17.5076 29.845C17.6897 29.899 17.8751 29.9415 18.0626 29.9725H18.2426C18.4636 30.0049 18.6866 30.0224 18.9101 30.025H25.0751C26.4 30.0112 27.6663 29.4762 28.5997 28.5357C29.5331 27.5953 30.0587 26.325 30.0626 25V19C30.0686 17.6697 29.5485 16.3911 28.6156 15.4427C27.6827 14.4944 26.4127 13.9533 25.0826 13.9375ZM28.9376 25C28.9425 25.5112 28.8467 26.0183 28.6557 26.4925C28.4646 26.9666 28.182 27.3985 27.824 27.7635C27.4661 28.1284 27.0397 28.4192 26.5693 28.6194C26.0989 28.8196 25.5937 28.9251 25.0826 28.93H18.9176C18.6936 28.9252 18.4704 28.9026 18.2501 28.8625H18.0926C17.6403 28.7584 17.2108 28.5729 16.8251 28.315L16.7501 28.225C16.5707 28.097 16.4026 27.954 16.2476 27.7975C16.065 27.6294 15.8969 27.4463 15.7451 27.25L15.6701 27.1225C15.6176 27.04 15.5726 26.9425 15.5276 26.8525L17.7776 25.03C18.1091 24.758 18.5278 24.615 18.9564 24.6274C19.3851 24.6398 19.7948 24.8068 20.1101 25.0975C20.3294 25.2984 20.5865 25.4538 20.8664 25.5548C21.1462 25.6557 21.4433 25.7001 21.7404 25.6854C22.0375 25.6708 22.3288 25.5974 22.5974 25.4694C22.866 25.3415 23.1065 25.1615 23.3051 24.94L24.8051 23.305C24.9685 23.1231 25.1675 22.9766 25.3897 22.8745C25.6119 22.7723 25.8526 22.7167 26.0971 22.7111C26.3416 22.7055 26.5846 22.75 26.8113 22.8418C27.0379 22.9336 27.2434 23.0708 27.4151 23.245L28.9601 24.8125L28.9376 25ZM28.9376 23.1775L28.1876 22.4275C27.9092 22.1447 27.576 21.9218 27.2085 21.7722C26.841 21.6226 26.4468 21.5495 26.0501 21.5575C25.6534 21.5655 25.2626 21.6556 24.9025 21.8221C24.5423 21.9886 24.2206 22.228 23.9576 22.525L22.4576 24.1525C22.3578 24.2649 22.2366 24.3563 22.1012 24.4213C21.9657 24.4864 21.8187 24.5239 21.6686 24.5316C21.5185 24.5392 21.3684 24.517 21.227 24.4661C21.0856 24.4151 20.9558 24.3366 20.8451 24.235C20.3351 23.7741 19.6778 23.5097 18.9907 23.4891C18.3037 23.4685 17.6317 23.693 17.0951 24.1225L15.1301 25.69C15.0849 25.4628 15.0623 25.2317 15.0626 25V19C15.0566 17.9702 15.4589 16.98 16.1814 16.2462C16.9039 15.5125 17.8878 15.0949 18.9176 15.085H25.0826C26.1123 15.0949 27.0962 15.5125 27.8187 16.2462C28.5412 16.98 28.9436 17.9702 28.9376 19V23.1775ZM18.8426 16.99C18.4257 16.9826 18.0161 17.0994 17.6658 17.3255C17.3156 17.5517 17.0406 17.877 16.8759 18.26C16.7112 18.6431 16.6642 19.0664 16.7409 19.4762C16.8177 19.886 17.0147 20.2637 17.3068 20.5612C17.599 20.8586 17.973 21.0624 18.3814 21.1465C18.7897 21.2306 19.2139 21.1913 19.5998 21.0335C19.9857 20.8757 20.3159 20.6066 20.5484 20.2605C20.7808 19.9144 20.905 19.5069 20.9051 19.09C20.908 18.8165 20.857 18.5452 20.7548 18.2915C20.6527 18.0378 20.5015 17.8068 20.3099 17.6117C20.1182 17.4166 19.89 17.2613 19.6382 17.1546C19.3864 17.0479 19.116 16.992 18.8426 16.99ZM18.8426 20.05C18.6508 20.0605 18.4603 20.0133 18.2957 19.9143C18.131 19.8154 17.9999 19.6694 17.9191 19.4952C17.8383 19.321 17.8117 19.1265 17.8426 18.937C17.8735 18.7474 17.9605 18.5715 18.0924 18.432C18.2243 18.2924 18.3951 18.1956 18.5826 18.1541C18.7701 18.1126 18.9658 18.1283 19.1443 18.1992C19.3228 18.27 19.4759 18.3928 19.5839 18.5516C19.6919 18.7104 19.7498 18.898 19.7501 19.09C19.7523 19.3363 19.659 19.5739 19.4898 19.7529C19.3206 19.9319 19.0886 20.0384 18.8426 20.05Z" fill="#FF6F1E"/>
</g>
<defs>
<clipPath id="clip0_27158_133562">
<rect width="18" height="18" fill="white" transform="translate(13 13)"/>
</clipPath>
</defs>
</svg>
