<svg width="120" height="45" viewBox="0 0 120 45" fill="none" xmlns="http://www.w3.org/2000/svg">
<g clip-path="url(#clip0_27158_133543)">
<path d="M41.8287 17.543H43.7229V36.743H41.8287V27.7738H31.5429V36.743H29.6572V17.543H31.5515V25.9635H41.8372L41.8287 17.543Z" fill="#3B3D3C"/>
<path d="M48.8674 34.9327H58.068V36.743H46.9714V17.543H57.9292V19.3533H48.8674V26.1555H57.2571V27.9658H48.8674V34.9327Z" fill="#3B3D3C"/>
<path d="M73.2205 36.743H71.0553L65.9125 28.5418L60.7696 36.743H58.6096L64.8325 26.8413L59.0142 17.543H61.1519L65.9142 25.1133L70.6765 17.543H72.8142L66.9976 26.8413L73.2205 36.743Z" fill="#3B3D3C"/>
<path d="M80.0897 33.7258H87.804V36.743H76.9714V17.543H80.0829L80.0897 33.7258Z" fill="#3B3D3C"/>
<path d="M101.899 36.743L100.572 32.8755H92.5148L91.1828 36.743H87.8005L94.6731 17.543H98.4L105.257 36.743H101.899ZM93.5365 29.9133H99.5365L96.54 21.2458L93.5365 29.9133Z" fill="#3B3D3C"/>
<path d="M117.348 26.7861C118.151 27.2001 118.825 27.8262 119.297 28.5964C119.775 29.4003 120.018 30.3219 120 31.257C120.018 31.9904 119.881 32.7194 119.596 33.3956C119.312 34.0718 118.886 34.6798 118.349 35.1792C117.813 35.6921 117.181 36.0941 116.489 36.3624C115.797 36.6306 115.059 36.7599 114.317 36.7427H106.2V17.5427H113.722C114.447 17.5249 115.169 17.6502 115.845 17.9114C116.522 18.1726 117.14 18.5646 117.665 19.065C118.186 19.5474 118.598 20.135 118.875 20.7887C119.151 21.4424 119.286 22.1473 119.27 22.857C119.27 24.5255 118.629 25.8352 117.348 26.7861ZM113.722 20.505H109.311V25.5518H113.722C114.046 25.5586 114.367 25.4974 114.665 25.3722C114.963 25.247 115.232 25.0606 115.454 24.825C115.908 24.3359 116.161 23.6928 116.161 23.025C116.161 22.3571 115.908 21.714 115.454 21.225C115.231 20.991 114.962 20.806 114.664 20.682C114.366 20.5581 114.045 20.4977 113.722 20.505ZM114.317 33.7804C114.66 33.7864 115 33.7199 115.314 33.5851C115.629 33.4504 115.912 33.2505 116.145 32.9987C116.623 32.479 116.888 31.7986 116.888 31.0924C116.888 30.3862 116.623 29.7057 116.145 29.1861C115.912 28.9342 115.629 28.7344 115.314 28.5996C115 28.4649 114.66 28.3984 114.317 28.4044H109.311V33.7804H114.317Z" fill="#3B3D3C"/>
<path d="M5.14282 34.403V26.7402L12.3428 22.7407L19.5428 26.7402V34.403L12.3428 38.4024L5.14282 34.403Z" fill="#FF480D"/>
<path d="M16.6286 19.2383V13.2571H18.8571V10H5.82857V13.2571H8.05714V19.2383L0 23.7143V37.4286L12.3429 44.2857L24.6857 37.4286V23.7143L16.6286 19.2383ZM6.85714 12.2286V11.0286H17.8286V12.2286H6.85714ZM23.6571 36.8234L12.3429 43.1097L1.02857 36.8234V24.3194L8.556 20.1366L9.08571 19.8434V13.2571H15.6V19.8434L16.1297 20.1366L23.6571 24.3194V36.8234Z" fill="#3B3D3C"/>
<path d="M12.0858 20.1144C12.7958 20.1144 13.3715 19.5388 13.3715 18.8287C13.3715 18.1186 12.7958 17.543 12.0858 17.543C11.3757 17.543 10.8 18.1186 10.8 18.8287C10.8 19.5388 11.3757 20.1144 12.0858 20.1144Z" fill="#FF480D"/>
<path d="M10.7143 15.6571C11.1403 15.6571 11.4857 15.3117 11.4857 14.8857C11.4857 14.4596 11.1403 14.1143 10.7143 14.1143C10.2883 14.1143 9.94287 14.4596 9.94287 14.8857C9.94287 15.3117 10.2883 15.6571 10.7143 15.6571Z" fill="#FF480D"/>
<path d="M13.7571 15.6572C13.9701 15.6572 14.1428 15.4845 14.1428 15.2715C14.1428 15.0584 13.9701 14.8857 13.7571 14.8857C13.544 14.8857 13.3713 15.0584 13.3713 15.2715C13.3713 15.4845 13.544 15.6572 13.7571 15.6572Z" fill="#FF480D"/>
<path d="M15.6 23.0286C15.884 23.0286 16.1143 22.7983 16.1143 22.5143C16.1143 22.2303 15.884 22 15.6 22C15.3159 22 15.0857 22.2303 15.0857 22.5143C15.0857 22.7983 15.3159 23.0286 15.6 23.0286Z" fill="#FF480D"/>
<path d="M7.71424 24.4002C7.99827 24.4002 8.22852 24.1699 8.22852 23.8859C8.22852 23.6018 7.99827 23.3716 7.71424 23.3716C7.4302 23.3716 7.19995 23.6018 7.19995 23.8859C7.19995 24.1699 7.4302 24.4002 7.71424 24.4002Z" fill="#FF480D"/>
</g>
<defs>
<clipPath id="clip0_27158_133543">
<rect width="120" height="34.2857" fill="white" transform="translate(0 10)"/>
</clipPath>
</defs>
</svg>
