<svg width="16" height="16" viewBox="0 0 16 16" fill="none" xmlns="http://www.w3.org/2000/svg">
<g clip-path="url(#clip0_27158_169185)">
<path d="M8 16C12.4183 16 16 12.4183 16 8C16 3.58172 12.4183 0 8 0C3.58172 0 0 3.58172 0 8C0 12.4183 3.58172 16 8 16Z" fill="#F0F0F0"/>
<path d="M8.0002 0C4.82832 0 2.0877 1.84687 0.793945 4.52187H15.2064C13.9127 1.84687 11.1721 0 8.0002 0Z" fill="#FF9811"/>
<path d="M8.0002 16C11.1721 16 13.9127 14.1531 15.2064 11.4781H0.793945C2.0877 14.1531 4.82832 16 8.0002 16Z" fill="#6DA544"/>
</g>
<defs>
<clipPath id="clip0_27158_169185">
<rect width="16" height="16" fill="white"/>
</clipPath>
</defs>
</svg>
