<svg width="36" height="36" viewBox="0 0 36 36" fill="none" xmlns="http://www.w3.org/2000/svg">
<g clip-path="url(#clip0_27158_99521)">
<path d="M33.1987 17.0874L19.1672 3.05591L17.8076 1.69629L7.24503 12.2588L2.41502 17.0874C2.17376 17.3299 2.03833 17.658 2.03833 18.0001C2.03833 18.3422 2.17376 18.6703 2.41502 18.9128L12.0648 28.5627L17.8076 34.3039L28.3687 23.7414L28.5332 23.5783L33.1987 18.9201C33.3196 18.8001 33.4155 18.6573 33.481 18.5001C33.5465 18.3428 33.5802 18.1741 33.5802 18.0038C33.5802 17.8334 33.5465 17.6647 33.481 17.5074C33.4155 17.3502 33.3196 17.2074 33.1987 17.0874ZM17.8076 22.8214L12.9863 18.0001L17.8076 13.1788L22.6274 18.0001L17.8076 22.8214Z" fill="#2684FF"/>
<path d="M17.8075 13.1786C16.2912 11.6627 15.4365 9.60828 15.4299 7.46418C15.4234 5.32008 16.2656 3.26052 17.7726 1.73535L7.22314 12.2804L12.9644 18.0217L17.8075 13.1786Z" fill="url(#paint0_linear_27158_99521)"/>
<path d="M22.6405 17.9873L17.8076 22.8217C19.3296 24.3441 20.1847 26.4087 20.1847 28.5615C20.1847 30.7143 19.3296 32.7789 17.8076 34.3013L28.3862 23.7286L22.6405 17.9873Z" fill="url(#paint1_linear_27158_99521)"/>
</g>
<defs>
<linearGradient id="paint0_linear_27158_99521" x1="16.9443" y1="8.30055" x2="10.2117" y2="15.0317" gradientUnits="userSpaceOnUse">
<stop offset="0.18" stop-color="#0052CC"/>
<stop offset="1" stop-color="#2684FF"/>
</linearGradient>
<linearGradient id="paint1_linear_27158_99521" x1="18.7276" y1="27.6415" x2="25.4471" y2="20.9235" gradientUnits="userSpaceOnUse">
<stop offset="0.18" stop-color="#0052CC"/>
<stop offset="1" stop-color="#2684FF"/>
</linearGradient>
<clipPath id="clip0_27158_99521">
<rect width="31.1652" height="33" fill="white" transform="translate(2.41504 1.5)"/>
</clipPath>
</defs>
</svg>
