<svg width="70" height="71" viewBox="0 0 70 71" fill="none" xmlns="http://www.w3.org/2000/svg">
<g clip-path="url(#clip0_27158_127706)">
<path d="M22.8691 28.0981C21.8469 25.9743 21.3912 23.6224 21.5462 21.2705C21.7011 18.9186 22.4615 16.6468 23.7535 14.6755C25.0455 12.7042 26.8252 11.1004 28.9199 10.0198C31.0146 8.9392 33.353 8.41852 35.7083 8.50829C38.0635 8.59806 40.3556 9.29524 42.3619 10.5321C44.3683 11.769 46.0207 13.5036 47.1589 15.5676C48.2971 17.6315 48.8824 19.9547 48.8578 22.3115C48.8333 24.6683 48.1999 26.9788 47.0191 29.0186L35.9871 48.1566L39.2946 53.8861L51.9926 31.8921C54.4988 27.4404 55.148 22.1797 53.799 17.2522C52.4501 12.3248 49.2121 8.12821 44.7878 5.57368C40.3636 3.01914 35.1103 2.31281 30.1685 3.60802C25.2266 4.90324 20.9951 8.09545 18.3926 12.4916C17.0104 14.8535 16.1498 17.4838 15.8684 20.2058C15.5871 22.9278 15.8917 25.6785 16.7616 28.2731C17.6463 28.1624 18.537 28.1063 19.4286 28.1051L22.8691 28.0981Z" fill="url(#paint0_linear_27158_127706)"/>
<path d="M67.3715 39.2282C66.0005 36.8211 64.1241 34.7396 61.8717 33.127C59.6192 31.5144 57.0441 30.4089 54.3235 29.8867C53.9783 30.7121 53.582 31.5151 53.137 32.2912L51.408 35.2837C53.7677 35.4287 56.0495 36.1831 58.0306 37.4733C60.0116 38.7635 61.6242 40.5454 62.7109 42.645C63.7976 44.7446 64.3213 47.0902 64.2307 49.4526C64.1402 51.815 63.4386 54.1136 62.1943 56.1238C60.9501 58.1341 59.2058 59.7873 57.1319 60.9221C55.0578 62.0569 52.725 62.6345 50.3611 62.5984C47.9973 62.5623 45.6831 61.9138 43.6447 60.7163C41.6063 59.5187 39.9133 57.813 38.731 55.7657L27.7165 36.6907H21.105L33.768 58.6287C34.2035 59.3774 34.6863 60.0976 35.2135 60.7847L35.3185 60.9212C37.122 63.2427 39.4354 65.1181 42.0798 66.4023C44.7241 67.6865 47.6284 68.3452 50.568 68.3272C53.9732 68.3268 57.3182 67.4302 60.267 65.7274C63.2159 64.0247 65.6646 61.5758 67.3671 58.6268C69.0697 55.6779 69.966 52.3328 69.9662 48.9277C69.9664 45.5225 69.0703 42.1773 67.368 39.2282H67.3715Z" fill="url(#paint1_linear_27158_127706)"/>
<path d="M30.8525 56.4376C29.5719 58.3872 27.8135 59.9767 25.7449 61.0546C23.6762 62.1325 21.3661 62.663 19.0344 62.5957C16.7027 62.5283 14.4271 61.8653 12.4241 60.6697C10.4212 59.4742 8.75751 57.7859 7.59153 55.7656C6.39201 53.6872 5.76052 51.3298 5.7605 48.9302C5.76049 46.5305 6.39194 44.1731 7.59143 42.0948C8.79092 40.0164 10.5162 38.2903 12.594 37.0898C14.6718 35.8893 17.0289 35.2567 19.4285 35.2556H41.503L44.8 29.5296H19.4285C16.8591 29.4951 14.3085 29.9713 11.9246 30.9307C9.54082 31.8901 7.37134 33.3135 5.54217 35.1183C3.713 36.9231 2.26059 39.0732 1.26926 41.4439C0.277938 43.8147 -0.232544 46.3587 -0.232544 48.9283C-0.232544 51.498 0.277938 54.042 1.26926 56.4127C2.26059 58.7834 3.713 60.9336 5.54217 62.7384C7.37134 64.5431 9.54082 65.9665 11.9246 66.9259C14.3085 67.8853 16.8591 68.3616 19.4285 68.3271C22.2077 68.3434 24.9571 67.7552 27.4863 66.6033C30.0155 65.4514 32.2641 63.7634 34.076 61.6561C33.5099 60.9248 32.9931 60.1566 32.529 59.3566L30.8525 56.4376Z" fill="url(#paint2_linear_27158_127706)"/>
</g>
<defs>
<linearGradient id="paint0_linear_27158_127706" x1="22.6416" y1="5.81013" x2="50.9671" y2="40.4636" gradientUnits="userSpaceOnUse">
<stop stop-color="#B03B83"/>
<stop offset="0.56" stop-color="#E72E6C"/>
<stop offset="1" stop-color="#FFC400"/>
</linearGradient>
<linearGradient id="paint1_linear_27158_127706" x1="35.2275" y1="32.2982" x2="65.765" y2="65.3977" gradientUnits="userSpaceOnUse">
<stop stop-color="#D83B83"/>
<stop offset="1" stop-color="#6F4A9E"/>
</linearGradient>
<linearGradient id="paint2_linear_27158_127706" x1="3.19203" y1="56.1296" x2="44.016" y2="38.0241" gradientUnits="userSpaceOnUse">
<stop stop-color="#9C2383"/>
<stop offset="1" stop-color="#E72E6C"/>
</linearGradient>
<clipPath id="clip0_27158_127706">
<rect width="70" height="70" fill="white" transform="translate(0 0.556641)"/>
</clipPath>
</defs>
</svg>
