<svg width="28" height="28" viewBox="0 0 28 28" fill="none" xmlns="http://www.w3.org/2000/svg">
<g clip-path="url(#clip0_27732_79718)">
<path d="M22.9917 27.5226C17.0162 28.1601 10.9899 28.1601 5.01443 27.5226C3.85405 27.4001 2.77073 26.8835 1.94507 26.059C1.11942 25.2345 0.60132 24.1519 0.477154 22.9917C-0.160353 17.0162 -0.160353 10.9899 0.477154 5.01443C0.599692 3.85405 1.11627 2.77073 1.94077 1.94507C2.76526 1.11942 3.84785 0.60132 5.00806 0.477154C10.9835 -0.160353 17.0099 -0.160353 22.9853 0.477154C24.1457 0.599692 25.229 1.11627 26.0547 1.94077C26.8803 2.76526 27.3984 3.84785 27.5226 5.00806C28.1601 10.9835 28.1601 17.0099 27.5226 22.9853C27.4001 24.1457 26.8835 25.229 26.059 26.0547C25.2345 26.8803 24.1519 27.3984 22.9917 27.5226V27.5226Z" fill="#0B66C3"/>
<path d="M10.0863 7.63636C10.0863 8.10834 9.94637 8.56972 9.68415 8.96216C9.42193 9.35459 9.04924 9.66046 8.61318 9.84108C8.17713 10.0217 7.69732 10.069 7.23441 9.97687C6.7715 9.8848 6.34629 9.65752 6.01255 9.32378C5.67881 8.99004 5.45153 8.56483 5.35945 8.10192C5.26737 7.63901 5.31463 7.15919 5.49525 6.72314C5.67587 6.28709 5.98174 5.91439 6.37417 5.65217C6.76661 5.38996 7.22799 5.25 7.69996 5.25C8.33287 5.25 8.93985 5.50142 9.38738 5.94895C9.83491 6.39648 10.0863 7.00346 10.0863 7.63636Z" fill="white"/>
<path d="M9.54542 11.6135V22.1565C9.54584 22.2343 9.53088 22.3114 9.50141 22.3833C9.47193 22.4553 9.42852 22.5208 9.37368 22.5759C9.31883 22.6311 9.25362 22.6748 9.1818 22.7047C9.10998 22.7345 9.03297 22.7499 8.95519 22.7499H6.43997C6.36219 22.7501 6.28514 22.735 6.21324 22.7053C6.14134 22.6756 6.07602 22.632 6.02102 22.577C5.96602 22.522 5.92244 22.4567 5.89277 22.3848C5.8631 22.3129 5.84794 22.2359 5.84815 22.1581V11.6135C5.84815 11.4566 5.9105 11.3061 6.02149 11.1951C6.13247 11.0841 6.28301 11.0217 6.43997 11.0217H8.95519C9.11188 11.0221 9.262 11.0847 9.37264 11.1956C9.48329 11.3066 9.54542 11.4569 9.54542 11.6135V11.6135Z" fill="white"/>
<path d="M22.6927 17.1024V22.206C22.6929 22.2775 22.6789 22.3484 22.6517 22.4145C22.6244 22.4806 22.5843 22.5406 22.5338 22.5912C22.4832 22.6418 22.4231 22.6818 22.357 22.7091C22.2909 22.7364 22.2201 22.7503 22.1486 22.7501H19.444C19.3725 22.7503 19.3017 22.7364 19.2356 22.7091C19.1694 22.6818 19.1094 22.6418 19.0588 22.5912C19.0083 22.5406 18.9682 22.4806 18.9409 22.4145C18.9136 22.3484 18.8997 22.2775 18.8999 22.206V17.2599C18.8999 16.5217 19.1163 14.0272 16.9702 14.0272C15.3077 14.0272 14.9688 15.7342 14.902 16.501V22.206C14.902 22.349 14.8458 22.4862 14.7454 22.588C14.6451 22.6898 14.5088 22.748 14.3658 22.7501H11.7536C11.6822 22.7501 11.6115 22.736 11.5456 22.7087C11.4797 22.6813 11.4198 22.6412 11.3694 22.5906C11.319 22.5401 11.2791 22.4801 11.2519 22.4141C11.2247 22.3481 11.2109 22.2774 11.2111 22.206V11.5676C11.2109 11.4962 11.2247 11.4255 11.2519 11.3595C11.2791 11.2935 11.319 11.2335 11.3694 11.183C11.4198 11.1324 11.4797 11.0923 11.5456 11.065C11.6115 11.0376 11.6822 11.0235 11.7536 11.0235H14.3658C14.5101 11.0235 14.6485 11.0808 14.7506 11.1829C14.8526 11.2849 14.9099 11.4233 14.9099 11.5676V12.4872C15.5272 11.5612 16.442 10.8469 18.394 10.8469C22.7181 10.8469 22.6927 14.8847 22.6927 17.1024V17.1024Z" fill="white"/>
</g>
<defs>
<clipPath id="clip0_27732_79718">
<rect width="28" height="28" fill="white"/>
</clipPath>
</defs>
</svg>
