<svg width="20" height="20" viewBox="0 0 20 20" fill="none" xmlns="http://www.w3.org/2000/svg">
<path opacity="0.1" d="M16.5 9.29154C16.5 13.3186 13.2354 16.5832 9.20829 16.5832C5.18122 16.5832 1.91663 13.3186 1.91663 9.29154C1.91663 5.26447 5.18122 1.99988 9.20829 1.99988C13.2354 1.99988 16.5 5.26447 16.5 9.29154Z" fill="#99A1B7"/>
<path fill-rule="evenodd" clip-rule="evenodd" d="M15.0056 14.0038C16.0796 12.7062 16.725 11.041 16.725 9.22498C16.725 5.08284 13.3671 1.72498 9.22498 1.72498C5.08284 1.72498 1.72498 5.08284 1.72498 9.22498C1.72498 13.3671 5.08284 16.725 9.22498 16.725C11.041 16.725 12.7062 16.0795 14.0039 15.0056L17.0575 18.0592C17.3341 18.3358 17.7826 18.3358 18.0592 18.0592C18.3358 17.7825 18.3358 17.334 18.0592 17.0574L15.0056 14.0038ZM9.22498 15.3349C5.85053 15.3349 3.11501 12.5994 3.11501 9.22498C3.11501 5.85053 5.85053 3.11501 9.22498 3.11501C12.5994 3.11501 15.3349 5.85053 15.3349 9.22498C15.3349 12.5994 12.5994 15.3349 9.22498 15.3349Z" fill="#99A1B7"/>
</svg>
