<svg width="1226" height="308" viewBox="0 0 1226 308" fill="none" xmlns="http://www.w3.org/2000/svg">
<mask id="mask0_27158_107726" style="mask-type:luminance" maskUnits="userSpaceOnUse" x="0" y="0" width="1231" height="308">
<path d="M0.671875 0.28125H1230.32V307.694H0.671875V0.28125Z" fill="url(#paint0_radial_27158_107726)"/>
</mask>
<g mask="url(#mask0_27158_107726)">
<path d="M151.751 0.28125L169.586 10.5779V31.1729L151.751 41.4688L133.916 31.1729V10.5779L151.751 0.28125ZM187.585 0.28125L205.42 10.5779V31.1729L187.585 41.4688L169.75 31.1729V10.5779L187.585 0.28125Z" stroke="#DDDDDD" stroke-width="0.296556"/>
<path d="M223.418 0.28125L241.253 10.5779V31.1729L223.418 41.4696L205.583 31.1729V10.5779L223.418 0.28125Z" fill="#DDDDDD" fill-opacity="0.74902" stroke="#DDDDDD" stroke-width="0.296556"/>
<path d="M259.251 0.28125L277.086 10.5779V31.1729L259.251 41.4696L241.416 31.1729V10.5779L259.251 0.28125ZM295.085 0.28125L312.92 10.5779V31.1729L295.085 41.4696L277.25 31.1729V10.5779L295.085 0.28125ZM438.418 0.28125L456.253 10.5779V31.1729L438.418 41.4696L420.583 31.1729V10.5779L438.418 0.28125ZM545.918 0.28125L563.753 10.5779V31.1729L545.918 41.4696L528.083 31.1729V10.5779L545.918 0.28125ZM581.751 0.28125L599.586 10.5779V31.1729L581.751 41.4696L563.916 31.1729V10.5779L581.751 0.28125Z" stroke="#DDDDDD" stroke-width="0.296556"/>
<path d="M653.418 0.28125L671.253 10.5779V31.1729L653.418 41.4696L635.583 31.1729V10.5779L653.418 0.28125Z" fill="#DDDDDD" fill-opacity="0.0196078" stroke="#DDDDDD" stroke-width="0.296556"/>
<path d="M689.251 0.28125L707.086 10.5779V31.1729L689.251 41.4696L671.416 31.1729V10.5779L689.251 0.28125ZM796.751 0.28125L814.586 10.5779V31.1729L796.751 41.4696L778.916 31.1729V10.5779L796.751 0.28125Z" stroke="#DDDDDD" stroke-width="0.296556"/>
<path d="M868.418 0.28125L886.253 10.5779V31.1729L868.418 41.4696L850.583 31.1729V10.5779L868.418 0.28125Z" fill="#DDDDDD" fill-opacity="0.494118" stroke="#DDDDDD" stroke-width="0.296556"/>
<path d="M940.085 0.28125L957.92 10.5779V31.1729L940.085 41.4696L922.25 31.1729V10.5779L940.085 0.28125ZM1083.42 0.28125L1101.25 10.5779V31.1729L1083.42 41.4696L1065.58 31.1729V10.5779L1083.42 0.28125ZM1119.25 0.28125L1137.09 10.5779V31.1729L1119.25 41.4696L1101.42 31.1729V10.5779L1119.25 0.28125ZM169.668 31.1721L187.503 41.4688V62.0629L169.668 72.3596L151.833 62.0629V41.4688L169.668 31.1721ZM241.335 31.1721L259.17 41.4688V62.0629L241.335 72.3596L223.5 62.0629V41.4688L241.335 31.1721ZM277.168 31.1721L295.003 41.4688V62.0629L277.168 72.3596L259.333 62.0629V41.4688L277.168 31.1721ZM420.502 31.1721L438.337 41.4688V62.0629L420.502 72.3596L402.667 62.0629V41.4688L420.502 31.1721ZM456.335 31.1721L474.17 41.4688V62.0629L456.335 72.3596L438.5 62.0629V41.4688L456.335 31.1721Z" stroke="#DDDDDD" stroke-width="0.296556"/>
<path d="M492.168 31.1719L510.003 41.4685V62.0627L492.168 72.3594L474.333 62.0627V41.4685L492.168 31.1719Z" fill="#DDDDDD" stroke="#DDDDDD" stroke-width="0.296556"/>
<path d="M528.001 31.1719L545.836 41.4685V62.0627L528.001 72.3594L510.166 62.0627V41.4685L528.001 31.1719Z" fill="#DDDDDD" fill-opacity="0.211765" stroke="#DDDDDD" stroke-width="0.296556"/>
<path d="M563.835 31.1719L581.67 41.4685V62.0627L563.835 72.3594L546 62.0627V41.4685L563.835 31.1719Z" fill="#DDDDDD" fill-opacity="0.576471" stroke="#DDDDDD" stroke-width="0.296556"/>
<path d="M743.001 31.1719L760.836 41.4685V62.0627L743.001 72.3594L725.166 62.0627V41.4685L743.001 31.1719ZM778.835 31.1719L796.67 41.4685V62.0627L778.835 72.3594L761 62.0627V41.4685L778.835 31.1719ZM814.668 31.1719L832.503 41.4685V62.0627L814.668 72.3594L796.833 62.0627V41.4685L814.668 31.1719ZM850.501 31.1719L868.336 41.4685V62.0627L850.501 72.3594L832.666 62.0627V41.4685L850.501 31.1719ZM886.335 31.1719L904.17 41.4685V62.0627L886.335 72.3594L868.5 62.0627V41.4685L886.335 31.1719Z" stroke="#DDDDDD" stroke-width="0.296556"/>
<path d="M958.001 31.1719L975.836 41.4685V62.0627L958.001 72.3594L940.166 62.0627V41.4685L958.001 31.1719Z" fill="#DDDDDD" fill-opacity="0.905882" stroke="#DDDDDD" stroke-width="0.296556"/>
<path d="M1065.5 31.1719L1083.34 41.4685V62.0627L1065.5 72.3594L1047.67 62.0627V41.4685L1065.5 31.1719ZM187.585 62.0627L205.42 72.3594V92.9535L187.585 103.25L169.75 92.9535V72.3594L187.585 62.0627ZM223.418 62.0627L241.253 72.3594V92.9535L223.418 103.25L205.583 92.9535V72.3594L223.418 62.0627ZM259.251 62.0627L277.086 72.3594V92.9535L259.251 103.25L241.416 92.9535V72.3594L259.251 62.0627Z" stroke="#DDDDDD" stroke-width="0.296556"/>
<path d="M295.085 62.0625L312.92 72.3592V92.9533L295.085 103.25L277.25 92.9533V72.3592L295.085 62.0625Z" fill="#DDDDDD" fill-opacity="0.0470588" stroke="#DDDDDD" stroke-width="0.296556"/>
<path d="M330.918 62.0625L348.753 72.3592V92.9533L330.918 103.25L313.083 92.9533V72.3592L330.918 62.0625Z" fill="#DDDDDD" fill-opacity="0.811765" stroke="#DDDDDD" stroke-width="0.296556"/>
<path d="M366.751 62.0625L384.586 72.3592V92.9533L366.751 103.25L348.916 92.9533V72.3592L366.751 62.0625ZM402.585 62.0625L420.42 72.3592V92.9533L402.585 103.25L384.75 92.9533V72.3592L402.585 62.0625Z" stroke="#DDDDDD" stroke-width="0.296556"/>
<path d="M474.251 62.0625L492.086 72.3592V92.9533L474.251 103.25L456.416 92.9533V72.3592L474.251 62.0625Z" fill="#DDDDDD" fill-opacity="0.737255" stroke="#DDDDDD" stroke-width="0.296556"/>
<path d="M581.751 62.0625L599.586 72.3592V92.9533L581.751 103.25L563.916 92.9533V72.3592L581.751 62.0625ZM653.418 62.0625L671.253 72.3592V92.9533L653.418 103.25L635.583 92.9533V72.3592L653.418 62.0625Z" stroke="#DDDDDD" stroke-width="0.296556"/>
<path d="M689.251 62.0625L707.086 72.3592V92.9533L689.251 103.25L671.416 92.9533V72.3592L689.251 62.0625Z" fill="#DDDDDD" fill-opacity="0.839216" stroke="#DDDDDD" stroke-width="0.296556"/>
<path d="M725.085 62.0625L742.92 72.3592V92.9533L725.085 103.25L707.25 92.9533V72.3592L725.085 62.0625ZM760.918 62.0625L778.753 72.3592V92.9533L760.918 103.25L743.083 92.9533V72.3592L760.918 62.0625Z" stroke="#DDDDDD" stroke-width="0.296556"/>
<path d="M832.585 62.0625L850.42 72.3592V92.9533L832.585 103.25L814.75 92.9533V72.3592L832.585 62.0625Z" fill="#DDDDDD" fill-opacity="0.760784" stroke="#DDDDDD" stroke-width="0.296556"/>
<path d="M868.418 62.0625L886.253 72.3592V92.9533L868.418 103.25L850.583 92.9533V72.3592L868.418 62.0625ZM940.085 62.0625L957.92 72.3592V92.9533L940.085 103.25L922.25 92.9533V72.3592L940.085 62.0625Z" stroke="#DDDDDD" stroke-width="0.296556"/>
<path d="M1011.75 62.0625L1029.59 72.3592V92.9533L1011.75 103.25L993.916 92.9533V72.3592L1011.75 62.0625Z" fill="#DDDDDD" fill-opacity="0.968627" stroke="#DDDDDD" stroke-width="0.296556"/>
<path d="M1047.58 62.0625L1065.42 72.3592V92.9533L1047.58 103.25L1029.75 92.9533V72.3592L1047.58 62.0625Z" stroke="#DDDDDD" stroke-width="0.296556"/>
<path d="M1083.42 62.0625L1101.25 72.3592V92.9533L1083.42 103.25L1065.58 92.9533V72.3592L1083.42 62.0625Z" fill="#DDDDDD" fill-opacity="0.443137" stroke="#DDDDDD" stroke-width="0.296556"/>
<path d="M1119.25 62.0625L1137.09 72.3592V92.9533L1119.25 103.25L1101.42 92.9533V72.3592L1119.25 62.0625Z" stroke="#DDDDDD" stroke-width="0.296556"/>
<path d="M205.501 92.9531L223.336 103.25V123.844L205.501 134.141L187.666 123.844V103.25L205.501 92.9531Z" fill="#DDDDDD" fill-opacity="0.898039" stroke="#DDDDDD" stroke-width="0.296556"/>
<path d="M277.168 92.9531L295.003 103.25V123.844L277.168 134.141L259.333 123.844V103.25L277.168 92.9531ZM348.835 92.9531L366.67 103.25V123.844L348.835 134.141L331 123.844V103.25L348.835 92.9531ZM456.335 92.9531L474.17 103.25V123.844L456.335 134.141L438.5 123.844V103.25L456.335 92.9531Z" stroke="#DDDDDD" stroke-width="0.296556"/>
<path d="M492.168 92.9531L510.003 103.25V123.844L492.168 134.141L474.333 123.844V103.25L492.168 92.9531Z" fill="#DDDDDD" fill-opacity="0.886275" stroke="#DDDDDD" stroke-width="0.296556"/>
<path d="M563.835 92.9531L581.67 103.25V123.844L563.835 134.141L546 123.844V103.25L563.835 92.9531Z" fill="#DDDDDD" fill-opacity="0.309804" stroke="#DDDDDD" stroke-width="0.296556"/>
<path d="M599.668 92.9531L617.503 103.25V123.844L599.668 134.141L581.833 123.844V103.25L599.668 92.9531ZM635.501 92.9531L653.336 103.25V123.844L635.501 134.141L617.666 123.844V103.25L635.501 92.9531ZM778.835 92.9531L796.67 103.25V123.844L778.835 134.141L761 123.844V103.25L778.835 92.9531ZM814.668 92.9531L832.503 103.25V123.844L814.668 134.141L796.833 123.844V103.25L814.668 92.9531ZM850.501 92.9531L868.336 103.25V123.844L850.501 134.141L832.666 123.844V103.25L850.501 92.9531ZM886.335 92.9531L904.17 103.25V123.844L886.335 134.141L868.5 123.844V103.25L886.335 92.9531ZM922.168 92.9531L940.003 103.25V123.844L922.168 134.141L904.333 123.844V103.25L922.168 92.9531ZM958.001 92.9531L975.836 103.25V123.844L958.001 134.141L940.166 123.844V103.25L958.001 92.9531ZM1065.5 92.9531L1083.34 103.25V123.844L1065.5 134.141L1047.67 123.844V103.25L1065.5 92.9531ZM1101.33 92.9531L1119.17 103.25V123.844L1101.33 134.141L1083.5 123.844V103.25L1101.33 92.9531ZM151.751 123.844L169.586 134.141V154.735L151.751 165.031L133.916 154.735V134.141L151.751 123.844ZM223.418 123.844L241.253 134.141V154.735L223.418 165.031L205.583 154.735V134.141L223.418 123.844ZM259.251 123.844L277.086 134.141V154.735L259.251 165.031L241.416 154.735V134.141L259.251 123.844Z" stroke="#DDDDDD" stroke-width="0.296556"/>
<path d="M295.085 123.844L312.92 134.14V154.735L295.085 165.03L277.25 154.735V134.14L295.085 123.844Z" fill="#DDDDDD" fill-opacity="0.184314" stroke="#DDDDDD" stroke-width="0.296556"/>
<path d="M402.585 123.844L420.42 134.14V154.735L402.585 165.03L384.75 154.735V134.14L402.585 123.844Z" fill="#DDDDDD" fill-opacity="0.0470588" stroke="#DDDDDD" stroke-width="0.296556"/>
<path d="M438.418 123.844L456.253 134.14V154.735L438.418 165.03L420.583 154.735V134.14L438.418 123.844ZM510.085 123.844L527.92 134.14V154.735L510.085 165.03L492.25 154.735V134.14L510.085 123.844ZM545.918 123.844L563.753 134.14V154.735L545.918 165.03L528.083 154.735V134.14L545.918 123.844Z" stroke="#DDDDDD" stroke-width="0.296556"/>
<path d="M617.585 123.844L635.42 134.14V154.735L617.585 165.03L599.75 154.735V134.14L617.585 123.844Z" fill="#DDDDDD" fill-opacity="0.403922" stroke="#DDDDDD" stroke-width="0.296556"/>
<path d="M653.418 123.844L671.253 134.14V154.735L653.418 165.03L635.583 154.735V134.14L653.418 123.844ZM689.252 123.844L707.087 134.14V154.735L689.252 165.03L671.417 154.735V134.14L689.252 123.844Z" stroke="#DDDDDD" stroke-width="0.296556"/>
<path d="M725.085 123.844L742.92 134.14V154.735L725.085 165.03L707.25 154.735V134.14L725.085 123.844Z" fill="#DDDDDD" fill-opacity="0.427451" stroke="#DDDDDD" stroke-width="0.296556"/>
<path d="M796.751 123.844L814.586 134.14V154.735L796.751 165.03L778.916 154.735V134.14L796.751 123.844Z" fill="#DDDDDD" fill-opacity="0.403922" stroke="#DDDDDD" stroke-width="0.296556"/>
<path d="M832.585 123.844L850.42 134.14V154.735L832.585 165.03L814.75 154.735V134.14L832.585 123.844ZM940.085 123.844L957.92 134.14V154.735L940.085 165.03L922.25 154.735V134.14L940.085 123.844ZM1047.58 123.844L1065.42 134.14V154.735L1047.58 165.031L1029.75 154.735V134.14L1047.58 123.844ZM1083.42 123.844L1101.25 134.14V154.735L1083.42 165.031L1065.58 154.735V134.14L1083.42 123.844Z" stroke="#DDDDDD" stroke-width="0.296556"/>
<path d="M133.835 154.736L151.67 165.032V185.626L133.835 195.924L116 185.627V165.032L133.835 154.736Z" fill="#DDDDDD" fill-opacity="0.223529" stroke="#DDDDDD" stroke-width="0.296556"/>
<path d="M169.668 154.736L187.503 165.032V185.626L169.668 195.924L151.833 185.627V165.032L169.668 154.736ZM205.502 154.736L223.337 165.033V185.627L205.502 195.924L187.667 185.627V165.032L205.502 154.736ZM277.168 154.736L295.003 165.033V185.627L277.168 195.924L259.333 185.627V165.032L277.168 154.736ZM420.502 154.736L438.337 165.033V185.627L420.502 195.924L402.667 185.627V165.032L420.502 154.736Z" stroke="#DDDDDD" stroke-width="0.296556"/>
<path d="M456.335 154.736L474.17 165.033V185.627L456.335 195.924L438.5 185.627V165.032L456.335 154.736Z" fill="#DDDDDD" fill-opacity="0.623529" stroke="#DDDDDD" stroke-width="0.296556"/>
<path d="M528.001 154.736L545.836 165.033V185.627L528.001 195.924L510.166 185.627V165.032L528.001 154.736ZM599.668 154.736L617.503 165.033V185.627L599.668 195.924L581.833 185.627V165.032L599.668 154.736ZM671.335 154.736L689.17 165.033V185.627L671.335 195.924L653.5 185.627V165.032L671.335 154.736ZM707.168 154.736L725.003 165.033V185.627L707.168 195.924L689.333 185.627V165.032L707.168 154.736Z" stroke="#DDDDDD" stroke-width="0.296556"/>
<path d="M778.835 154.736L796.67 165.033V185.627L778.835 195.924L761 185.627V165.032L778.835 154.736Z" fill="#DDDDDD" fill-opacity="0.270588" stroke="#DDDDDD" stroke-width="0.296556"/>
<path d="M814.668 154.736L832.503 165.033V185.627L814.668 195.924L796.833 185.627V165.032L814.668 154.736Z" fill="#DDDDDD" fill-opacity="0.596078" stroke="#DDDDDD" stroke-width="0.296556"/>
<path d="M850.501 154.736L868.336 165.033V185.627L850.501 195.924L832.666 185.627V165.032L850.501 154.736Z" fill="#DDDDDD" fill-opacity="0.772549" stroke="#DDDDDD" stroke-width="0.296556"/>
<path d="M922.168 154.736L940.003 165.033V185.627L922.168 195.924L904.333 185.627V165.032L922.168 154.736Z" fill="#DDDDDD" fill-opacity="0.141176" stroke="#DDDDDD" stroke-width="0.296556"/>
<path d="M958.001 154.736L975.836 165.033V185.627L958.001 195.924L940.166 185.627V165.032L958.001 154.736ZM993.835 154.736L1011.67 165.033V185.627L993.835 195.924L976 185.627V165.032L993.835 154.736ZM1029.67 154.736L1047.5 165.033V185.627L1029.67 195.924L1011.83 185.627V165.032L1029.67 154.736ZM1065.5 154.736L1083.34 165.033V185.627L1065.5 195.924L1047.67 185.627V165.032L1065.5 154.736ZM187.585 185.627L205.42 195.924V216.518L187.585 226.815L169.75 216.518V195.924L187.585 185.627ZM223.418 185.627L241.253 195.924V216.518L223.418 226.815L205.583 216.518V195.924L223.418 185.627ZM295.085 185.627L312.92 195.924V216.518L295.085 226.815L277.25 216.518V195.924L295.085 185.627ZM330.918 185.627L348.753 195.924V216.518L330.918 226.815L313.083 216.518V195.924L330.918 185.627ZM366.751 185.627L384.586 195.924V216.518L366.751 226.815L348.916 216.518V195.924L366.751 185.627ZM402.585 185.627L420.42 195.924V216.518L402.585 226.815L384.75 216.518V195.924L402.585 185.627ZM438.418 185.627L456.253 195.924V216.518L438.418 226.815L420.583 216.518V195.924L438.418 185.627ZM474.251 185.627L492.086 195.924V216.518L474.251 226.815L456.416 216.518V195.924L474.251 185.627ZM510.085 185.627L527.92 195.924V216.518L510.085 226.815L492.25 216.518V195.924L510.085 185.627ZM653.418 185.627L671.253 195.924V216.518L653.418 226.815L635.583 216.518V195.924L653.418 185.627ZM689.251 185.627L707.086 195.924V216.518L689.251 226.815L671.416 216.518V195.924L689.251 185.627ZM725.085 185.627L742.92 195.924V216.518L725.085 226.815L707.25 216.518V195.924L725.085 185.627Z" stroke="#DDDDDD" stroke-width="0.296556"/>
<path d="M832.585 185.627L850.42 195.924V216.518L832.585 226.814L814.75 216.518V195.924L832.585 185.627Z" fill="#DDDDDD" fill-opacity="0.607843" stroke="#DDDDDD" stroke-width="0.296556"/>
<path d="M868.418 185.627L886.253 195.924V216.518L868.418 226.814L850.583 216.518V195.924L868.418 185.627Z" fill="#DDDDDD" fill-opacity="0.478431" stroke="#DDDDDD" stroke-width="0.296556"/>
<path d="M904.251 185.627L922.086 195.924V216.518L904.251 226.814L886.416 216.518V195.924L904.251 185.627Z" stroke="#DDDDDD" stroke-width="0.296556"/>
<path d="M1011.75 185.627L1029.59 195.924V216.518L1011.75 226.814L993.916 216.518V195.924L1011.75 185.627Z" fill="#DDDDDD" fill-opacity="0.419608" stroke="#DDDDDD" stroke-width="0.296556"/>
<path d="M1083.42 185.627L1101.25 195.924V216.518L1083.42 226.814L1065.58 216.518V195.924L1083.42 185.627Z" stroke="#DDDDDD" stroke-width="0.296556"/>
<path d="M1119.25 185.627L1137.09 195.924V216.518L1119.25 226.814L1101.42 216.518V195.924L1119.25 185.627Z" fill="#DDDDDD" fill-opacity="0.921569" stroke="#DDDDDD" stroke-width="0.296556"/>
<path d="M133.835 216.518L151.67 226.814V247.408L133.835 257.705L116 247.408V226.814L133.835 216.518Z" fill="#DDDDDD" fill-opacity="0.678431" stroke="#DDDDDD" stroke-width="0.296556"/>
<path d="M169.668 216.518L187.503 226.814V247.408L169.668 257.705L151.833 247.408V226.814L169.668 216.518Z" fill="#DDDDDD" fill-opacity="0.792157" stroke="#DDDDDD" stroke-width="0.296556"/>
<path d="M348.835 216.518L366.67 226.814V247.408L348.835 257.705L331 247.408V226.814L348.835 216.518Z" fill="#DDDDDD" fill-opacity="0.713726" stroke="#DDDDDD" stroke-width="0.296556"/>
<path d="M384.668 216.518L402.503 226.814V247.408L384.668 257.705L366.833 247.408V226.814L384.668 216.518ZM420.502 216.518L438.337 226.814V247.408L420.502 257.705L402.667 247.408V226.814L420.502 216.518ZM456.335 216.518L474.17 226.814V247.408L456.335 257.705L438.5 247.408V226.814L456.335 216.518ZM528.002 216.518L545.837 226.814V247.408L528.002 257.705L510.167 247.408V226.814L528.002 216.518Z" stroke="#DDDDDD" stroke-width="0.296556"/>
<path d="M599.668 216.518L617.503 226.814V247.408L599.668 257.705L581.833 247.408V226.814L599.668 216.518Z" fill="#DDDDDD" fill-opacity="0.313726" stroke="#DDDDDD" stroke-width="0.296556"/>
<path d="M635.501 216.518L653.336 226.814V247.408L635.501 257.705L617.666 247.408V226.814L635.501 216.518ZM671.335 216.518L689.17 226.814V247.408L671.335 257.705L653.5 247.408V226.814L671.335 216.518ZM707.168 216.518L725.003 226.814V247.408L707.168 257.705L689.333 247.408V226.814L707.168 216.518Z" stroke="#DDDDDD" stroke-width="0.296556"/>
<path d="M743.001 216.518L760.836 226.814V247.408L743.001 257.705L725.166 247.408V226.814L743.001 216.518Z" fill="#DDDDDD" fill-opacity="0.976471" stroke="#DDDDDD" stroke-width="0.296556"/>
<path d="M778.835 216.518L796.67 226.814V247.408L778.835 257.705L761 247.408V226.814L778.835 216.518ZM814.668 216.518L832.503 226.814V247.408L814.668 257.705L796.833 247.408V226.814L814.668 216.518ZM886.335 216.518L904.17 226.814V247.408L886.335 257.705L868.5 247.408V226.814L886.335 216.518Z" stroke="#DDDDDD" stroke-width="0.296556"/>
<path d="M993.835 216.518L1011.67 226.814V247.408L993.835 257.705L976 247.408V226.814L993.835 216.518Z" fill="#DDDDDD" fill-opacity="0.690196" stroke="#DDDDDD" stroke-width="0.296556"/>
<path d="M1029.67 216.518L1047.5 226.814V247.408L1029.67 257.705L1011.83 247.408V226.814L1029.67 216.518Z" fill="#DDDDDD" fill-opacity="0.462745" stroke="#DDDDDD" stroke-width="0.296556"/>
<path d="M1065.5 216.518L1083.34 226.814V247.408L1065.5 257.705L1047.67 247.408V226.814L1065.5 216.518Z" fill="#DDDDDD" fill-opacity="0.568627" stroke="#DDDDDD" stroke-width="0.296556"/>
<path d="M1101.33 216.518L1119.17 226.814V247.408L1101.33 257.705L1083.5 247.408V226.814L1101.33 216.518ZM187.585 247.408L205.42 257.705V278.299L187.585 288.596L169.75 278.299V257.705L187.585 247.408ZM223.418 247.408L241.253 257.705V278.299L223.418 288.596L205.583 278.299V257.705L223.418 247.408ZM259.251 247.408L277.086 257.705V278.299L259.251 288.596L241.416 278.299V257.705L259.251 247.408Z" stroke="#DDDDDD" stroke-width="0.296556"/>
<path d="M330.918 247.408L348.753 257.705V278.299L330.918 288.596L313.083 278.299V257.705L330.918 247.408Z" fill="#DDDDDD" fill-opacity="0.6" stroke="#DDDDDD" stroke-width="0.296556"/>
<path d="M366.751 247.408L384.586 257.705V278.299L366.751 288.596L348.916 278.299V257.705L366.751 247.408Z" stroke="#DDDDDD" stroke-width="0.296556"/>
<path d="M474.251 247.408L492.086 257.705V278.299L474.251 288.596L456.416 278.299V257.705L474.251 247.408Z" fill="#DDDDDD" fill-opacity="0.862745" stroke="#DDDDDD" stroke-width="0.296556"/>
<path d="M510.085 247.408L527.92 257.705V278.299L510.085 288.596L492.25 278.299V257.705L510.085 247.408ZM725.085 247.408L742.92 257.705V278.299L725.085 288.596L707.25 278.299V257.705L725.085 247.408ZM760.918 247.408L778.753 257.705V278.299L760.918 288.596L743.083 278.299V257.705L760.918 247.408Z" stroke="#DDDDDD" stroke-width="0.296556"/>
<path d="M796.751 247.408L814.586 257.705V278.299L796.751 288.596L778.916 278.299V257.705L796.751 247.408Z" fill="#DDDDDD" fill-opacity="0.0745098" stroke="#DDDDDD" stroke-width="0.296556"/>
<path d="M832.585 247.408L850.42 257.705V278.299L832.585 288.596L814.75 278.299V257.705L832.585 247.408Z" fill="#DDDDDD" fill-opacity="0.517647" stroke="#DDDDDD" stroke-width="0.296556"/>
<path d="M868.418 247.408L886.253 257.705V278.299L868.418 288.596L850.583 278.299V257.705L868.418 247.408Z" stroke="#DDDDDD" stroke-width="0.296556"/>
<path d="M940.085 247.408L957.92 257.705V278.299L940.085 288.596L922.25 278.299V257.705L940.085 247.408Z" fill="#DDDDDD" fill-opacity="0.176471" stroke="#DDDDDD" stroke-width="0.296556"/>
<path d="M975.918 247.408L993.753 257.705V278.299L975.918 288.596L958.083 278.299V257.705L975.918 247.408Z" fill="#DDDDDD" fill-opacity="0.121569" stroke="#DDDDDD" stroke-width="0.296556"/>
<path d="M1011.75 247.408L1029.59 257.705V278.299L1011.75 288.596L993.917 278.299V257.705L1011.75 247.408ZM1047.58 247.408L1065.42 257.705V278.299L1047.58 288.596L1029.75 278.299V257.705L1047.58 247.408ZM277.168 278.298L295.003 288.596V309.19L277.168 319.487L259.333 309.19V288.596L277.168 278.298ZM313.002 278.298L330.837 288.596V309.19L313.002 319.487L295.167 309.19V288.596L313.002 278.298ZM384.668 278.298L402.503 288.596V309.19L384.668 319.487L366.833 309.19V288.596L384.668 278.298ZM420.502 278.298L438.337 288.596V309.19L420.502 319.487L402.667 309.19V288.596L420.502 278.298ZM492.168 278.298L510.003 288.596V309.19L492.168 319.487L474.333 309.19V288.596L492.168 278.298ZM528.002 278.298L545.837 288.596V309.19L528.002 319.487L510.167 309.19V288.596L528.002 278.298ZM563.835 278.298L581.67 288.596V309.19L563.835 319.487L546 309.19V288.596L563.835 278.298ZM599.668 278.298L617.503 288.596V309.19L599.668 319.487L581.833 309.19V288.596L599.668 278.298ZM635.502 278.298L653.337 288.596V309.19L635.502 319.487L617.667 309.19V288.596L635.502 278.298Z" stroke="#DDDDDD" stroke-width="0.296556"/>
<path d="M707.168 278.299L725.003 288.596V309.191L707.168 319.487L689.333 309.191V288.596L707.168 278.299Z" fill="#DDDDDD" fill-opacity="0.141176" stroke="#DDDDDD" stroke-width="0.296556"/>
<path d="M743.001 278.299L760.836 288.596V309.191L743.001 319.487L725.166 309.191V288.596L743.001 278.299Z" fill="#DDDDDD" fill-opacity="0.596078" stroke="#DDDDDD" stroke-width="0.296556"/>
<path d="M778.835 278.299L796.67 288.596V309.191L778.835 319.487L761 309.191V288.596L778.835 278.299ZM814.668 278.299L832.503 288.596V309.191L814.668 319.487L796.833 309.191V288.596L814.668 278.299Z" stroke="#DDDDDD" stroke-width="0.296556"/>
<path d="M850.501 278.299L868.336 288.596V309.191L850.501 319.487L832.666 309.191V288.596L850.501 278.299Z" fill="#DDDDDD" fill-opacity="0.0431373" stroke="#DDDDDD" stroke-width="0.296556"/>
<path d="M958.001 278.299L975.836 288.596V309.191L958.001 319.487L940.166 309.191V288.596L958.001 278.299Z" fill="#DDDDDD" fill-opacity="0.266667" stroke="#DDDDDD" stroke-width="0.296556"/>
<path d="M993.835 278.299L1011.67 288.596V309.191L993.835 319.487L976 309.191V288.596L993.835 278.299Z" stroke="#DDDDDD" stroke-width="0.296556"/>
<path d="M1065.5 278.299L1083.34 288.596V309.191L1065.5 319.487L1047.67 309.191V288.596L1065.5 278.299Z" fill="#DDDDDD" fill-opacity="0.745098" stroke="#DDDDDD" stroke-width="0.296556"/>
<path d="M1101.33 278.299L1119.17 288.596V309.191L1101.33 319.487L1083.5 309.191V288.596L1101.33 278.299ZM151.751 309.191L169.586 319.487V340.081L151.751 350.378L133.916 340.081V319.487L151.751 309.191ZM187.585 309.191L205.42 319.487V340.081L187.585 350.378L169.75 340.081V319.487L187.585 309.191ZM295.085 309.191L312.92 319.487V340.081L295.085 350.378L277.25 340.081V319.487L295.085 309.191Z" stroke="#DDDDDD" stroke-width="0.296556"/>
</g>
<defs>
<radialGradient id="paint0_radial_27158_107726" cx="0" cy="0" r="1" gradientUnits="userSpaceOnUse" gradientTransform="translate(615.498 153.988) scale(614.826 153.706)">
<stop stop-color="white"/>
<stop offset="1" stop-color="white" stop-opacity="0"/>
</radialGradient>
</defs>
</svg>
