<svg width="160" height="152" viewBox="0 0 160 152" fill="none" xmlns="http://www.w3.org/2000/svg">
<path d="M36.3225 118.194C47.7945 86.5571 -1.42204 83.9718 28.5668 61.254C33.511 57.7639 39.1662 54.1446 40.7497 48.3278C42.2362 42.8342 39.651 37.1143 39.6187 31.3945C43.9166 0.403881 80.9825 7.31941 101.018 19.6962C109.129 23.768 118.275 29.2616 119.212 38.2777C119.567 41.8001 118.565 45.4517 119.729 48.8125C125.998 61.2217 145.064 55.4695 148.231 78.3812C150.009 103.878 124.738 100.808 118.501 116.772" fill="#F4F6F9"/>
<path d="M125.707 112.474C118.63 102.973 109.097 94.0867 102.795 89.6918C99.6285 87.462 96.4293 85.814 93.2624 84.586C91.7112 80.1264 90.257 75.7638 88.8028 70.9488C90.257 70.8519 91.6789 70.2702 92.6807 69.2361C96.5586 65.0997 92.81 58.9921 88.0273 59.3475C88.7382 53.8216 89.9016 48.2633 86.7023 43.3837C73.5822 28.9063 59.1695 54.5648 49.9919 61.4804C49.9919 61.4804 58.0062 64.615 61.9487 66.1338C61.9487 66.1338 61.2377 80.7404 61.0115 87.2035C52.9003 91.6631 46.1786 98.514 41.8484 105.817H3.97458C1.58324 105.817 -0.0971866 108.564 0.64607 111.246L9.43596 143.045C9.92069 144.757 11.2456 145.921 12.7644 145.921H14.1863C15.0588 148.635 17.6117 150.639 20.6171 150.639H74.3578C78.2034 150.671 81.1441 147.472 81.1441 143.723C83.5677 146.212 97.4634 150.639 107.255 150.639C113.718 150.639 129.23 149.282 131.492 148.054C139.021 143.982 137.793 126.338 125.707 112.474ZM60.5914 141.623C60.5914 141.235 60.5267 140.88 60.4298 140.492L58.2324 132.575C58.9757 132.348 59.6866 132.154 60.3975 131.993C60.753 132.284 61.27 132.542 62.0133 132.639C64.8894 132.93 68.0563 131.767 70.6415 133.641C72.1604 134.74 72.839 136.614 73.8731 138.165C74.9395 139.684 76.426 140.88 78.1064 141.623C75.2304 141.623 68.5733 141.623 60.5914 141.623ZM81.1441 142.56C81.1118 142.592 81.1118 142.592 81.0795 142.625C81.0471 142.56 81.0472 142.528 81.0148 142.463C81.0795 142.463 81.1441 142.495 81.241 142.495C81.1764 142.528 81.1764 142.528 81.1441 142.56Z" fill="white"/>
<path d="M29.7947 57.764L14.9618 62.2235C12.5058 62.9668 9.9529 61.5772 9.20964 59.1212C8.33712 55.2434 4.00687 47.7138 10.0499 45.8395L24.8827 41.38C27.3386 40.6367 29.8916 42.0263 30.6348 44.4823C31.5074 48.3601 35.8377 55.8897 29.7947 57.764Z" fill="#FFE945"/>
<path d="M8.11099 49.7823C11.4395 51.6889 14.8326 53.5309 18.258 55.2436C18.6781 55.4698 19.0983 55.6637 19.5184 55.8576C19.8739 56.0515 20.2616 56.2777 20.6494 56.3747C21.2634 56.5039 21.9097 56.3747 22.3622 55.9545C22.6207 55.696 22.7499 55.4052 22.8792 55.082C23.0731 54.6296 23.2993 54.1772 23.5255 53.7248C23.9456 52.8199 24.3657 51.9474 24.7858 51.0426C25.723 49.0067 26.6924 47.0031 27.6295 44.9673C27.8881 44.4179 27.0479 43.9009 26.7894 44.4825C25.2059 47.8434 23.6547 51.1719 22.0713 54.5327C21.8128 55.0497 21.6189 55.6314 20.908 55.4698C20.5848 55.4052 20.294 55.179 20.0031 55.0497C19.583 54.8558 19.1629 54.6296 18.7428 54.4357C17.127 53.6278 15.5112 52.7876 13.8954 51.9151C12.1181 50.9456 10.3408 49.9762 8.59572 48.9421C8.04635 48.6512 7.56162 49.4914 8.11099 49.7823Z" fill="black"/>
<path d="M73.7115 11.2943C73.4853 25.2869 52.6741 25.2869 52.4156 11.2943C52.6418 -2.69835 73.453 -2.69835 73.7115 11.2943Z" fill="#FEAABC"/>
<path d="M66.7637 8.57965C65.8911 6.99619 63.6614 6.83461 62.4011 8.0626C61.7871 8.67659 61.5608 9.5168 61.6578 10.3247C61.3993 10.0015 61.0438 9.743 60.6237 9.61374C59.9774 9.41985 59.2018 9.54911 58.6524 9.9369C58.0707 10.357 57.6506 11.0033 57.683 11.7466C57.7153 12.716 58.4263 13.427 59.2019 13.944C59.7835 14.3318 60.4622 14.5903 61.1408 14.8165C62.0779 15.1397 63.015 15.3336 63.9845 15.4952C64.3076 15.5598 64.5985 15.5921 64.9217 15.6244C65.1802 15.6567 65.4064 15.3659 65.4064 15.1397C65.4064 15.0427 65.3741 14.9781 65.3418 14.9135C65.4387 13.8148 66.1173 12.8776 66.5697 11.9081C67.1191 10.874 67.3776 9.67837 66.7637 8.57965ZM65.6003 11.7789C65.1478 12.6837 64.5985 13.5886 64.4046 14.6226C63.629 14.4934 62.8211 14.3318 62.0456 14.1379C61.6901 14.041 61.3023 13.9117 60.9469 13.7824C60.8822 13.7501 60.7853 13.7178 60.7207 13.6855H60.6883C60.656 13.6532 60.5914 13.6532 60.5591 13.6209C60.4298 13.5562 60.3006 13.4916 60.1713 13.427C59.9451 13.2977 59.7189 13.1684 59.4927 13.0069C59.4927 13.0069 59.3957 12.9422 59.4603 12.9746C59.5249 13.0392 59.4604 12.9746 59.428 12.9422C59.3957 12.9099 59.331 12.8776 59.2987 12.8453C59.2341 12.7807 59.1372 12.716 59.0725 12.6191C59.0402 12.5868 59.0079 12.5545 58.9756 12.5221L58.9433 12.4898C58.911 12.4252 58.8463 12.3606 58.814 12.2636C58.7817 12.2313 58.7817 12.199 58.7494 12.1667C58.7171 12.102 58.6848 12.0374 58.6848 11.9405C58.6848 11.9081 58.6848 11.9081 58.6848 11.8758C58.6848 11.8758 58.6848 11.8758 58.6848 11.8435C58.6848 11.7789 58.6848 11.7143 58.6848 11.6496V11.6819V11.6496C58.6848 11.585 58.6848 11.6173 58.6848 11.6496C58.6848 11.6173 58.6848 11.6173 58.6848 11.585C58.6848 11.5204 58.7171 11.4557 58.7494 11.3911C58.7494 11.3588 58.7817 11.3265 58.7817 11.3265C58.814 11.2618 58.8464 11.1972 58.8787 11.1649C58.911 11.1326 58.911 11.1326 58.9433 11.1003C58.9756 11.0356 59.0402 11.0033 59.0725 10.971C59.1049 10.9387 59.1048 10.9387 59.1372 10.9064C59.2018 10.874 59.2341 10.8417 59.2987 10.8094C59.3634 10.7771 59.3957 10.7448 59.4603 10.7125C59.4926 10.7125 59.525 10.6802 59.5573 10.6802C59.6219 10.6478 59.6866 10.6478 59.7512 10.6155C59.7835 10.6155 59.7835 10.6155 59.8158 10.6155C59.8158 10.6155 59.8158 10.6155 59.8482 10.6155C59.9128 10.6155 59.9774 10.6155 60.042 10.6155C60.0743 10.6155 60.1067 10.6155 60.139 10.6155C60.2036 10.6155 60.2683 10.6478 60.3329 10.6478C60.3652 10.6478 60.3975 10.6802 60.4298 10.6802C60.4944 10.7125 60.5591 10.7448 60.6237 10.7771C60.656 10.7771 60.656 10.8094 60.6883 10.8094C60.6883 10.8094 60.7207 10.8094 60.7207 10.8417C60.7853 10.9064 60.8499 10.9387 60.8822 11.0033L60.9145 11.0356C60.9145 11.0679 60.9469 11.1003 60.9792 11.1003C61.0438 11.1649 61.0761 11.2618 61.1084 11.3265C61.1408 11.3588 61.1407 11.3911 61.1731 11.4234C61.1731 11.4557 61.1731 11.4557 61.2054 11.488C61.2377 11.585 61.27 11.6819 61.3024 11.8112C61.367 12.0697 61.6578 12.2313 61.884 12.1344C62.1425 12.0697 62.3041 11.7789 62.2071 11.5527C62.1748 11.4557 62.1426 11.3588 62.1102 11.2618C62.4334 11.3265 62.8211 11.0679 62.6919 10.6802C62.6272 10.4863 62.5949 10.3247 62.5626 10.1308C62.5626 9.9369 62.5627 9.77532 62.595 9.64606C62.6596 9.35522 62.7889 9.06438 62.9828 8.9028C63.4029 8.45038 63.9522 8.22418 64.5662 8.25649C64.8247 8.25649 65.0833 8.35344 65.3418 8.51501C65.6003 8.67659 65.7942 8.9028 65.9558 9.19364C66.4082 10.0338 66.0204 10.971 65.6003 11.7789Z" fill="black"/>
<path d="M58.9433 12.4575C58.9756 12.4575 58.9756 12.4575 58.9433 12.4575C58.9756 12.4898 58.9756 12.4898 58.9756 12.4898C59.0079 12.4898 58.9756 12.4575 58.9433 12.4575Z" fill="black"/>
<path d="M114.074 34.7229C114.688 34.626 114.946 35.5631 114.332 35.6601C113.04 35.8863 111.715 35.854 110.422 35.7247C109.097 35.5955 107.74 35.3693 106.447 34.9815C105.316 34.626 104.185 34.1736 103.28 33.398C102.537 32.7517 102.052 31.8792 102.182 30.8774C102.375 29.5525 103.41 28.486 104.411 27.6782C104.379 27.8074 104.314 27.9044 104.282 28.0336C104.25 27.3227 104.024 26.741 103.636 26.1593C103.345 25.7392 103.022 25.3191 102.925 24.8021C102.828 24.1881 103.086 23.6387 103.474 23.154C103.765 22.7985 104.088 22.4754 104.444 22.1522C104.508 22.0876 104.637 22.0229 104.702 21.926C104.767 21.8614 104.767 21.6352 104.767 21.5382C104.831 21.312 104.896 21.0858 104.961 20.8596C105.381 19.47 106.156 18.1128 107.449 17.4018C110.131 15.9476 113.363 17.6927 115.528 19.3084C115.302 19.5023 115.043 19.6639 114.817 19.8578C114.558 18.2743 114.881 16.5616 115.528 15.0751C116.045 13.8471 116.982 12.5222 118.404 12.296C118.759 12.2313 119.115 12.2637 119.47 12.3283C119.89 12.4252 120.117 12.5868 120.375 12.9423C120.698 13.427 120.828 14.0733 120.828 14.655C120.828 16.0769 120.311 17.4341 120.311 18.856C120.278 20.9242 121.345 22.5723 122.863 23.9296C123.348 24.3497 122.637 25.0283 122.185 24.6082C120.569 23.1863 119.438 21.4089 119.341 19.2438C119.276 17.8542 119.697 16.5293 119.826 15.1721C119.858 14.7196 119.89 14.2026 119.729 13.7502C119.664 13.6209 119.567 13.4916 119.503 13.3624C119.47 13.2978 119.373 13.2654 119.535 13.3624C119.47 13.3301 119.373 13.3301 119.276 13.2978C119.05 13.2331 118.792 13.2331 118.566 13.2978C117.402 13.524 116.691 14.8166 116.336 15.8507C115.916 17.014 115.625 18.4036 115.819 19.6316C115.883 19.9871 115.496 20.4718 115.108 20.181C113.007 18.5975 109.291 16.5293 107.061 19.0499C106.609 19.567 106.286 20.2456 106.059 20.8919C105.898 21.3443 105.801 21.7644 105.704 22.2168C105.607 22.6693 105.058 22.9601 104.734 23.3156C104.379 23.671 103.927 24.1558 103.959 24.6405C103.959 24.7375 104.056 24.9313 104.153 25.0606C104.25 25.2545 104.379 25.4161 104.508 25.61C104.831 26.0947 105.09 26.6117 105.219 27.1611C105.284 27.5166 105.445 28.0659 105.187 28.3568C104.961 28.6153 104.637 28.8092 104.411 29.0677C104.024 29.4555 103.636 29.9079 103.409 30.425C103.248 30.7481 103.183 31.1682 103.216 31.4268C103.345 32.17 103.959 32.7194 104.637 33.1395C105.542 33.6888 106.609 34.012 107.643 34.2705C109.614 34.7876 112.005 35.0784 114.074 34.7229ZM119.826 37.5344C120.246 35.24 120.731 32.9456 121.571 30.7481C121.991 29.6494 122.54 28.5507 123.316 27.6782C123.639 27.3227 123.994 26.9672 124.447 26.741C124.641 26.6441 124.835 26.5471 125.029 26.4825C125.287 26.4179 125.546 26.5148 125.772 26.6441C126.806 27.2257 126.935 28.6799 126.871 29.714C126.806 30.3927 126.709 31.0067 126.58 31.7176C126.192 33.6888 125.643 35.6924 124.738 37.4698C124.35 38.2453 123.833 39.1179 123.122 39.5703C122.799 39.7642 122.573 39.8611 122.217 39.8288C121.926 39.7965 121.539 39.6349 121.215 39.3764C120.731 38.9886 120.052 39.6672 120.537 40.055C124.576 43.2542 126.741 35.24 127.323 32.6548C127.743 30.7158 128.357 28.2598 127.065 26.5148C126.644 25.9654 126.095 25.5777 125.416 25.4484C124.835 25.3514 124.221 25.6423 123.736 25.9654C122.702 26.6441 121.959 27.6782 121.377 28.7769C120.02 31.3944 119.406 34.3352 118.856 37.2112C118.792 37.8899 119.729 38.1484 119.826 37.5344Z" fill="black"/>
<path d="M154.759 92.2771L135.951 95.3794C132.461 95.961 129.133 93.5697 128.551 90.0796C127.743 84.7476 124.932 76.7333 132.623 75.1822L151.43 72.0799C154.92 71.4982 158.249 73.8895 158.83 77.3796C159.638 82.7117 162.45 90.7259 154.759 92.2771Z" fill="#9ED5F0"/>
<path d="M138.924 79.7708C139.474 81.4835 139.861 83.2285 140.217 84.9736C140.411 86.0723 140.572 87.171 140.895 88.2374C141.089 88.8837 141.445 89.5947 142.188 89.724C143.028 89.8532 143.869 89.2392 144.515 88.8191C146.292 87.6235 147.908 86.2339 149.556 84.8766C149.75 84.715 149.718 84.3596 149.556 84.198C147.326 81.839 144.386 80.1262 141.219 79.383C140.605 79.2537 140.346 80.1909 140.96 80.3201C143.998 81.0311 146.745 82.6145 148.877 84.8766C148.877 84.6504 148.877 84.4242 148.877 84.198C147.456 85.3614 146.001 86.557 144.515 87.6558C144.095 87.9789 143.642 88.2698 143.19 88.5283C143.093 88.5606 143.028 88.6252 142.931 88.6575C142.867 88.6899 142.899 88.6899 142.77 88.7222C142.705 88.7545 142.641 88.7545 142.576 88.7868C142.544 88.7868 142.511 88.7868 142.479 88.8191C142.544 88.8191 142.576 88.8191 142.479 88.8191C142.447 88.8191 142.285 88.8191 142.35 88.8191C142.414 88.8191 142.285 88.7868 142.253 88.7868C142.382 88.8514 142.253 88.7868 142.22 88.7545C142.35 88.8514 142.22 88.7222 142.156 88.6899C142.091 88.6252 142.188 88.7545 142.156 88.6899C142.123 88.6575 142.123 88.6252 142.091 88.6252C142.059 88.5606 142.027 88.496 141.994 88.4313C141.93 88.3021 141.994 88.4313 141.93 88.3021C141.897 88.2051 141.865 88.1405 141.833 88.0435C141.542 87.0741 141.412 86.04 141.219 85.0382C140.863 83.1962 140.443 81.3542 139.894 79.5446C139.667 78.9306 138.73 79.1891 138.924 79.7708Z" fill="black"/>
<path d="M47.8914 38.504C47.7299 38.2777 47.8591 37.9869 48.053 37.8253C48.2792 37.6637 48.57 37.793 48.7316 37.9869C48.7639 38.0515 48.7963 38.1162 48.8609 38.1485C48.764 38.0515 48.8932 38.1808 48.9255 38.2131C48.9901 38.3101 49.0548 38.3747 49.1517 38.4393C49.184 38.4716 49.2486 38.504 49.2809 38.5363C49.2163 38.4716 49.2486 38.504 49.2809 38.5363L49.3133 38.5686C49.3779 38.6332 49.4749 38.6655 49.5718 38.6978C49.6041 38.6978 49.6041 38.7302 49.6364 38.7302C49.7334 38.7625 49.5071 38.6978 49.6041 38.7302C49.6364 38.7302 49.6687 38.7625 49.7011 38.7625C49.7657 38.7948 49.8627 38.7948 49.9596 38.8271C49.8627 38.7948 49.8626 38.8271 49.9272 38.8271C49.9596 38.8271 49.9596 38.8271 49.9919 38.8271C50.0243 38.8271 50.0565 38.8271 50.1212 38.8271C50.1535 38.8271 50.1858 38.8271 50.2181 38.8271C50.2505 38.8271 50.3474 38.8271 50.2504 38.8271C50.1535 38.8271 50.2181 38.8271 50.2504 38.8271C50.315 38.8271 50.3797 38.7948 50.4443 38.7625C50.4766 38.7625 50.509 38.7302 50.5413 38.7302H50.5736C50.6382 38.6978 50.5089 38.7625 50.5089 38.7625C50.5736 38.7302 50.6382 38.6978 50.7029 38.6655C50.7675 38.6332 50.8321 38.6009 50.8644 38.5686C50.9291 38.5363 50.7675 38.6332 50.8321 38.6009L50.8644 38.5686C50.8968 38.5363 50.9291 38.5363 50.9614 38.504C50.9937 38.4716 51.0583 38.407 51.0906 38.3747C51.123 38.3424 51.1553 38.3101 51.1876 38.2777C51.123 38.3747 51.2199 38.2131 51.1876 38.2777C51.2199 38.2131 51.2523 38.1485 51.2846 38.1162C51.3169 38.0515 51.3491 37.9869 51.3815 37.9223C51.4138 37.8576 51.3492 37.9869 51.3492 37.9869C51.3492 37.9546 51.3815 37.9546 51.3815 37.9223C51.3815 37.89 51.4138 37.8576 51.4138 37.8253C51.4461 37.7607 51.4461 37.6961 51.4784 37.5991C51.4784 37.4375 51.4784 37.5345 51.4784 37.5991C51.4784 37.5668 51.4784 37.5345 51.4784 37.5022C51.4784 37.4375 51.4784 37.3729 51.4784 37.276C51.4784 37.2436 51.4784 37.2113 51.4784 37.179C51.4784 37.1144 51.5107 37.3083 51.4784 37.2436V37.2113C51.4784 37.1467 51.4461 37.0498 51.4138 36.9851C51.3492 36.8559 51.4138 36.9528 51.4138 36.9851C51.3815 36.9528 51.3815 36.9205 51.3492 36.8882C51.3169 36.8235 51.2845 36.7589 51.2199 36.6943L51.1876 36.662C51.123 36.5973 51.2522 36.7266 51.2199 36.6943C51.1876 36.662 51.1553 36.6297 51.1553 36.5973C51.0906 36.5327 51.026 36.4681 50.9614 36.4034C50.9291 36.4034 50.929 36.3711 50.8967 36.3711C50.8967 36.3711 50.9937 36.4358 50.9291 36.4034C50.8967 36.3711 50.8321 36.3388 50.7998 36.3065C50.7029 36.2419 50.6059 36.2095 50.5089 36.1449C50.4766 36.1126 50.412 36.1126 50.3797 36.0803C50.3474 36.0803 50.3151 36.048 50.3151 36.048C50.3474 36.048 50.412 36.0803 50.3151 36.048C50.2828 36.048 50.2827 36.048 50.2504 36.048C50.2827 36.048 50.2828 36.048 50.3151 36.048C50.2828 36.048 50.2505 36.048 50.2181 36.048C50.1535 36.048 50.1212 36.048 50.0566 36.048C50.0242 36.048 49.9919 36.048 49.9596 36.048C49.9596 36.048 50.0889 36.0157 49.9919 36.048C49.9273 36.048 49.8627 36.0803 49.8304 36.0803C49.7657 36.0803 49.7011 36.1126 49.6688 36.1449C49.5718 36.1772 49.7334 36.1126 49.6688 36.1449C49.6365 36.1449 49.6041 36.1772 49.5718 36.1772C49.4749 36.2419 49.3779 36.2742 49.2809 36.3388C49.184 36.4034 49.3456 36.2742 49.2487 36.3388C49.2164 36.3711 49.184 36.3711 49.1517 36.4034C49.1194 36.4358 49.0871 36.4681 49.0547 36.5004C49.0224 36.5327 48.9578 36.5973 48.9255 36.6297C48.8609 36.7266 48.9578 36.565 48.9255 36.6297C48.8932 36.662 48.8932 36.6943 48.8609 36.6943C48.7963 36.7912 48.6993 36.9205 48.6993 37.0174C48.7316 36.9205 48.7316 36.9851 48.6993 36.9851C48.6993 37.0174 48.667 37.0498 48.667 37.0821C48.6347 37.1467 48.6346 37.179 48.6346 37.2436C48.6346 37.276 48.6347 37.3083 48.6024 37.3406C48.57 37.4699 48.6024 37.2436 48.6024 37.3406C48.6024 37.3729 48.6024 37.4375 48.6024 37.4699C48.6024 37.5022 48.6347 37.6314 48.6024 37.6637C48.6024 37.6314 48.57 37.5668 48.6024 37.6314C48.6024 37.6637 48.6023 37.6961 48.6346 37.7284C48.6993 37.9869 48.57 38.2454 48.3115 38.3101C48.0853 38.3747 47.7622 38.2131 47.7299 37.9869C47.4067 36.565 48.5377 35.1755 49.9272 35.0139C50.0565 35.0139 50.1858 34.9816 50.3151 35.0139C50.509 35.0462 50.6706 35.0785 50.8644 35.1755C51.0583 35.2724 51.2523 35.3693 51.4461 35.4986C51.8339 35.7894 52.1248 36.1449 52.3186 36.5973C52.6095 37.276 52.4479 38.1162 52.0278 38.6978C51.5753 39.3442 50.8967 39.7643 50.1212 39.7966C49.184 39.8935 48.4085 39.2472 47.8914 38.504ZM150.687 123.203C151.204 123.914 151.947 124.463 152.852 124.399C153.628 124.334 154.306 123.914 154.759 123.3C155.179 122.718 155.34 121.91 155.114 121.232C154.985 120.844 154.727 120.456 154.403 120.198C154.177 120.004 153.951 119.842 153.692 119.745C153.466 119.648 153.208 119.616 152.949 119.616C151.786 119.616 150.59 120.456 150.429 121.652C150.396 121.91 150.493 122.169 150.752 122.233C150.978 122.298 151.301 122.169 151.333 121.91C151.333 121.813 151.366 121.716 151.398 121.619C151.398 121.587 151.398 121.587 151.43 121.555C151.43 121.523 151.43 121.523 151.43 121.587C151.43 121.555 151.495 121.49 151.495 121.426C151.527 121.393 151.527 121.361 151.56 121.296C151.56 121.264 151.592 121.264 151.592 121.232C151.657 121.167 151.592 121.232 151.592 121.264C151.624 121.167 151.753 121.07 151.818 121.038C151.818 121.038 151.947 120.941 151.883 120.973C151.818 121.038 151.915 120.941 151.915 120.941C151.947 120.941 151.947 120.909 151.98 120.909C152.077 120.844 152.174 120.812 152.238 120.747C152.271 120.747 152.271 120.715 152.303 120.715C152.206 120.747 152.238 120.747 152.271 120.715C152.335 120.682 152.368 120.682 152.432 120.65C152.497 120.65 152.529 120.618 152.594 120.618C152.626 120.618 152.626 120.618 152.658 120.618C152.691 120.618 152.788 120.585 152.691 120.618C152.626 120.65 152.723 120.618 152.723 120.618C152.755 120.618 152.755 120.618 152.788 120.618C152.82 120.618 152.885 120.618 152.917 120.618C152.949 120.618 153.014 120.618 153.046 120.618C152.981 120.585 153.143 120.618 153.046 120.618C153.078 120.618 153.111 120.618 153.143 120.618C153.208 120.618 153.24 120.65 153.305 120.65C153.337 120.65 153.466 120.715 153.402 120.682C153.337 120.65 153.434 120.715 153.434 120.715C153.466 120.715 153.466 120.747 153.499 120.747C153.531 120.779 153.596 120.812 153.628 120.844C153.66 120.876 153.692 120.876 153.595 120.844C153.628 120.844 153.628 120.876 153.66 120.876C153.692 120.909 153.725 120.941 153.757 120.973C153.822 121.038 153.886 121.102 153.951 121.167L153.983 121.199C154.016 121.232 153.919 121.102 153.951 121.167C153.983 121.199 153.983 121.232 154.016 121.264C154.048 121.329 154.08 121.393 154.145 121.458C154.113 121.393 154.209 121.555 154.145 121.458C154.145 121.49 154.177 121.523 154.177 121.555C154.209 121.619 154.209 121.684 154.242 121.781C154.242 121.652 154.274 121.878 154.242 121.781C154.242 121.813 154.242 121.846 154.242 121.878C154.242 121.943 154.242 122.007 154.242 122.104C154.242 122.233 154.274 122.007 154.242 122.104C154.242 122.137 154.242 122.169 154.21 122.201C154.21 122.266 154.177 122.33 154.145 122.427C154.145 122.46 154.113 122.492 154.113 122.524C154.08 122.589 154.177 122.427 154.113 122.524C154.08 122.589 154.048 122.654 154.016 122.718C153.983 122.783 153.951 122.847 153.886 122.912C153.854 122.977 153.951 122.815 153.886 122.912C153.854 122.944 153.822 122.977 153.822 123.009C153.789 123.074 153.725 123.106 153.692 123.138C153.66 123.171 153.66 123.171 153.628 123.203C153.531 123.3 153.692 123.171 153.628 123.203C153.499 123.268 153.402 123.332 153.272 123.397C153.208 123.429 153.402 123.365 153.272 123.397C153.24 123.397 153.208 123.429 153.175 123.429C153.111 123.461 153.046 123.461 152.949 123.494H152.917C152.852 123.526 153.014 123.494 152.949 123.494C152.917 123.494 152.885 123.494 152.82 123.494C152.755 123.494 152.658 123.494 152.594 123.494C152.497 123.494 152.723 123.526 152.594 123.494C152.561 123.494 152.529 123.494 152.464 123.461C152.432 123.461 152.368 123.429 152.335 123.429C152.303 123.429 152.303 123.429 152.303 123.397C152.206 123.365 152.303 123.429 152.335 123.397C152.303 123.397 152.141 123.3 152.109 123.268C152.077 123.235 152.044 123.203 151.98 123.203C151.947 123.171 151.947 123.171 152.012 123.235C152.012 123.203 151.947 123.203 151.947 123.171C151.883 123.106 151.786 123.041 151.721 122.944C151.689 122.912 151.657 122.88 151.624 122.815C151.56 122.718 151.592 122.783 151.624 122.815C151.592 122.783 151.592 122.751 151.56 122.718C151.398 122.524 151.14 122.395 150.881 122.557C150.655 122.686 150.525 123.009 150.687 123.203ZM129.488 65.9075C129.488 65.8429 129.456 65.8106 129.456 65.7459C129.488 65.8752 129.456 65.8106 129.456 65.7782C129.456 65.7459 129.456 65.7459 129.456 65.7136C129.456 65.6813 129.456 65.6167 129.456 65.5844C129.456 65.552 129.488 65.4551 129.456 65.6167C129.456 65.5844 129.456 65.552 129.456 65.5197C129.456 65.4874 129.488 65.4228 129.488 65.3905C129.488 65.3582 129.585 65.1966 129.488 65.3258C129.553 65.2289 129.585 65.1319 129.65 65.0673L129.682 65.035C129.714 65.0027 129.779 64.9704 129.682 65.035C129.714 65.0027 129.747 64.9704 129.779 64.9057C129.811 64.8734 129.844 64.8411 129.876 64.8088C129.908 64.7765 129.908 64.7765 129.941 64.7442C129.876 64.7765 130.037 64.6472 129.941 64.7442C130.005 64.6795 130.102 64.6472 130.167 64.5826C130.199 64.5826 130.231 64.5503 130.231 64.5503C130.231 64.5503 130.102 64.5826 130.199 64.5826C130.264 64.5503 130.296 64.5503 130.361 64.5179C130.393 64.5179 130.458 64.4856 130.49 64.4856C130.587 64.4533 130.361 64.4856 130.458 64.4856C130.49 64.4856 130.522 64.4856 130.522 64.4856C130.555 64.4856 130.619 64.4856 130.651 64.4856C130.684 64.4856 130.716 64.4856 130.716 64.4856C130.619 64.4856 130.619 64.4856 130.651 64.4856C130.684 64.4856 130.684 64.4856 130.716 64.4856C130.684 64.4856 130.684 64.4533 130.651 64.4533C130.651 64.4533 130.684 64.4533 130.684 64.4856C130.716 64.4856 130.716 64.5179 130.748 64.5179C130.781 64.5503 130.813 64.5503 130.878 64.5826C130.942 64.6149 131.039 64.6795 131.104 64.7442C131.136 64.7442 131.136 64.7765 131.169 64.7765C131.039 64.6795 131.104 64.7442 131.136 64.7442C131.168 64.7765 131.201 64.7765 131.201 64.8088C131.265 64.8734 131.298 64.9057 131.362 64.9704L131.395 65.0027C131.298 64.8734 131.33 64.938 131.362 64.9704C131.395 65.0027 131.395 65.0027 131.427 65.035C131.459 65.0996 131.492 65.1643 131.524 65.1966C131.556 65.2612 131.459 65.0673 131.492 65.1319C131.492 65.1319 131.492 65.1643 131.524 65.1643C131.524 65.1966 131.556 65.2289 131.556 65.2289C131.556 65.2612 131.556 65.2935 131.589 65.3258C131.589 65.3905 131.589 65.4874 131.589 65.2935C131.589 65.3581 131.589 65.3905 131.589 65.4551C131.589 65.4874 131.589 65.5197 131.589 65.552V65.5844C131.589 65.6813 131.589 65.5197 131.589 65.5197C131.556 65.552 131.556 65.649 131.556 65.6813C131.556 65.7459 131.524 65.8106 131.492 65.8429C131.459 65.9075 131.556 65.7136 131.524 65.7782C131.524 65.7782 131.524 65.8106 131.492 65.8106C131.492 65.8429 131.459 65.8752 131.459 65.8752C131.427 65.9398 131.395 65.9721 131.362 66.0368C131.362 66.0691 131.33 66.0691 131.33 66.1014C131.362 66.0368 131.427 65.9398 131.33 66.1014C131.298 66.1337 131.233 66.1983 131.201 66.2307C131.168 66.263 131.007 66.3922 131.169 66.263C131.104 66.2953 131.072 66.3276 131.007 66.3599C130.975 66.3923 130.91 66.4246 130.845 66.4246C130.748 66.4892 130.942 66.3922 130.878 66.4246C130.845 66.4246 130.813 66.4569 130.781 66.4569C130.716 66.4892 130.684 66.4892 130.619 66.4892C130.555 66.4892 130.458 66.4892 130.651 66.4892C130.619 66.4892 130.587 66.4892 130.554 66.4892C130.49 66.4892 130.425 66.4892 130.361 66.4892C130.328 66.4892 130.264 66.4569 130.425 66.4892H130.393C130.361 66.4892 130.328 66.4892 130.296 66.4569C130.264 66.4569 130.231 66.4246 130.199 66.4246C130.199 66.4246 130.167 66.4246 130.167 66.3922C130.07 66.3599 130.264 66.4569 130.199 66.4246C130.134 66.3922 130.07 66.3599 130.005 66.3276C129.973 66.2953 129.94 66.2953 129.908 66.263C130.07 66.3599 129.941 66.263 129.876 66.2307C129.811 66.166 129.747 66.1014 129.682 66.0368L129.65 66.0045C129.585 65.9075 129.714 66.0691 129.65 66.0045C129.617 65.9721 129.585 65.9075 129.553 65.8752C129.488 65.7783 129.456 65.6813 129.391 65.5844C129.262 65.3581 128.939 65.2612 128.713 65.4228C128.486 65.5844 128.422 65.8429 128.551 66.1014C128.906 66.8123 129.52 67.394 130.361 67.4263C130.975 67.4587 131.621 67.1355 132.009 66.6831C132.429 66.166 132.655 65.4874 132.429 64.8411C132.3 64.4856 132.106 64.1625 131.815 63.9363C131.653 63.807 131.459 63.6777 131.265 63.5485C131.201 63.5162 131.136 63.4838 131.072 63.4515C130.975 63.4192 130.878 63.3869 130.748 63.3869C130.651 63.3869 130.522 63.3869 130.425 63.3869C129.908 63.4515 129.391 63.7101 129.036 64.0978C128.68 64.4856 128.454 65.0027 128.486 65.552C128.486 65.6813 128.519 65.8429 128.551 65.9721C128.616 66.2307 128.906 66.3922 129.133 66.2953C129.391 66.4246 129.553 66.166 129.488 65.9075ZM0.77539 70.1732C1.38938 70.5286 2.13263 70.6256 2.77894 70.3024C3.26367 70.0439 3.61911 69.4945 3.71606 68.9452C3.813 68.3312 3.68377 67.7172 3.26367 67.2648C3.03746 67.0386 2.74659 66.877 2.42343 66.78C2.22954 66.7154 2.03571 66.7154 1.84182 66.6831C1.58329 66.6831 1.35707 66.7477 1.09855 66.8447C0.12908 67.2971 -0.323369 68.6867 0.25831 69.5915C0.387572 69.8177 0.710759 69.9146 0.936968 69.7531C1.16318 69.6238 1.26012 69.333 1.09855 69.0744C1.06623 69.0421 1.06625 69.0098 1.03393 68.9775C1.00161 68.9129 1.03393 69.0098 1.03393 69.0098C1.03393 69.0098 1.00158 68.9775 1.00158 68.9452C1.00158 68.9129 0.969236 68.8482 0.969236 68.8159C0.969236 68.7836 0.969236 68.7836 0.969236 68.7513C0.969236 68.6866 0.969236 68.8482 0.969236 68.7836C0.969236 68.6867 0.969236 68.622 0.969236 68.5251V68.4604C1.00155 68.5251 0.93692 68.5574 0.969236 68.4928C0.969236 68.4281 1.00158 68.3958 1.00158 68.3312C1.00158 68.2989 1.03393 68.2665 1.03393 68.2019L1.0662 68.1373C1.0662 68.1373 1.03388 68.2342 1.0662 68.1696C1.09851 68.0727 1.16319 68.008 1.19551 67.9434L1.22778 67.8788C1.22778 67.8788 1.16319 67.9757 1.19551 67.9111C1.22782 67.8788 1.26008 67.8464 1.29239 67.8141C1.32471 67.7818 1.35704 67.7495 1.38935 67.7172C1.45398 67.6525 1.35709 67.7495 1.35709 67.7495C1.35709 67.7495 1.4217 67.7172 1.4217 67.6849C1.45402 67.6525 1.48635 67.6526 1.51866 67.6202C1.55098 67.6202 1.55096 67.5879 1.58328 67.5879C1.64791 67.5556 1.55093 67.6202 1.55093 67.5879C1.55093 67.5879 1.64792 67.5556 1.68024 67.5556C1.71256 67.5556 1.71254 67.5556 1.74486 67.5556C1.64791 67.5556 1.8418 67.5233 1.74486 67.5556C1.80949 67.5556 1.90642 67.5556 1.97105 67.5556C2.00336 67.5556 2.00335 67.5556 2.03566 67.5556C2.03566 67.5556 1.90642 67.5233 1.97105 67.5556C2.00336 67.5556 2.0357 67.5556 2.06801 67.5879C2.13264 67.5879 2.19723 67.6202 2.26186 67.6526C2.29417 67.6526 2.3265 67.6849 2.35882 67.6849C2.35882 67.6849 2.22957 67.6202 2.2942 67.6526C2.2942 67.6526 2.32655 67.6525 2.32655 67.6849C2.39118 67.7172 2.4235 67.7495 2.48813 67.7818C2.52044 67.7818 2.52043 67.8141 2.55274 67.8141C2.55274 67.8141 2.45581 67.7172 2.48813 67.7818L2.5204 67.8141C2.55271 67.8464 2.58504 67.8788 2.61736 67.9111C2.61736 67.9111 2.68199 68.008 2.61736 67.9111C2.55273 67.8464 2.61739 67.9111 2.64971 67.9434C2.68202 67.9757 2.71432 68.0403 2.71432 68.0727C2.71432 68.105 2.77895 68.1696 2.71432 68.0727C2.68201 67.9757 2.71432 68.0727 2.71432 68.105C2.74664 68.1373 2.74659 68.2019 2.74659 68.2665C2.74659 68.2989 2.74659 68.2989 2.74659 68.3312C2.7789 68.4281 2.74659 68.2019 2.74659 68.2989C2.74659 68.3958 2.74659 68.4928 2.74659 68.5897C2.74659 68.6866 2.7789 68.4928 2.74659 68.5574C2.74659 68.5897 2.74659 68.5897 2.74659 68.622C2.74659 68.6867 2.71432 68.719 2.71432 68.7836C2.71432 68.8159 2.68202 68.8805 2.64971 68.9129C2.71434 68.719 2.64967 68.9129 2.61736 68.9452C2.58504 68.9775 2.58506 69.0421 2.55274 69.0744C2.55274 69.1068 2.5204 69.1067 2.5204 69.1391C2.55271 69.0744 2.61734 69.0098 2.5204 69.1391C2.48808 69.1714 2.45575 69.2037 2.42343 69.236C2.39112 69.236 2.39113 69.2683 2.35882 69.2683C2.3265 69.3006 2.42343 69.236 2.42343 69.236L2.39117 69.2683C2.35885 69.3006 2.29417 69.333 2.26186 69.3653C2.19723 69.3976 2.13263 69.3976 2.2942 69.3653C2.26189 69.3653 2.22956 69.3976 2.19724 69.3976C2.13261 69.4299 2.10029 69.4299 2.03566 69.4299C1.97103 69.4622 2.10028 69.4299 2.10028 69.4299C2.06796 69.4299 2.06798 69.4299 2.03566 69.4299C2.00335 69.4299 1.97102 69.4299 1.9387 69.4299C1.87407 69.4299 1.80949 69.4299 1.74486 69.4299C1.77717 69.4299 1.90643 69.4299 1.74486 69.4299C1.71254 69.4299 1.68021 69.4299 1.64789 69.3976C1.58326 69.3653 1.48633 69.333 1.4217 69.333C1.58328 69.3653 1.42167 69.333 1.38935 69.3006C1.35704 69.2683 1.29244 69.2683 1.26012 69.236C1.03391 69.1068 0.710727 69.1714 0.581465 69.3976C0.484519 69.7531 0.549181 70.0439 0.77539 70.1732Z" fill="black"/>
<path d="M84.3433 64.8084C85.8945 63.2896 88.1243 62.514 90.2894 62.8048C90.548 62.8371 90.7742 62.9987 90.7742 63.2896C90.7742 63.5158 90.548 63.8066 90.2894 63.7743C88.3828 63.5158 86.4116 64.1621 85.022 65.5193C84.6019 65.9394 83.9232 65.2608 84.3433 64.8084ZM74.778 71.3038L74.7457 71.2715C74.7457 71.2715 74.7457 71.3038 74.778 71.3038ZM71.6757 52.173C71.8049 52.3992 72.1281 52.4962 72.3543 52.3346C72.5805 52.173 72.6452 51.9145 72.5159 51.656C72.2897 51.2359 72.0635 50.8158 71.8372 50.3957C71.708 50.1695 71.3849 50.0725 71.1587 50.2341C70.9325 50.3957 70.8678 50.6542 70.9971 50.9127C71.2233 51.3328 71.4495 51.7529 71.6757 52.173ZM71.2556 73.4043C71.2556 73.4366 71.2556 73.4366 71.2556 73.4043C71.2556 73.4366 71.2556 73.4366 71.2556 73.4043C71.2556 73.4366 71.2556 73.4043 71.2556 73.4043ZM71.2556 73.4043C71.2556 73.4366 71.2556 73.4366 71.2556 73.4043V73.4043ZM81.3057 143.077C81.338 143.077 81.338 143.077 81.3057 143.077C81.3057 143.077 81.338 143.077 81.3057 143.077ZM76.8139 96.9947C77.0724 98.0288 76.7169 99.1275 75.8767 99.7738C74.9072 100.485 73.4207 100.388 72.5482 99.5476C71.7403 98.8043 71.5464 97.544 71.9342 96.5422C72.3543 95.3789 73.3884 94.6679 74.6164 94.7003C74.9396 94.7003 75.1011 94.9911 75.0688 95.2496C75.3273 95.3143 75.5859 95.4112 75.8444 95.5728C76.3292 95.8959 76.6523 96.413 76.8139 96.9947ZM75.0365 99.1275C75.0365 99.1275 75.1012 99.0952 75.0365 99.1275V99.1275ZM75.909 97.7379C75.909 97.641 75.909 97.544 75.909 97.4794C75.909 97.4471 75.909 97.4471 75.909 97.4471V97.4148C75.909 97.3824 75.8767 97.3178 75.8767 97.2855C75.8444 97.1885 75.812 97.0916 75.7797 97.027C75.7797 96.9947 75.7475 96.9947 75.7475 96.9623C75.7151 96.93 75.7152 96.8654 75.6828 96.8331C75.6505 96.8008 75.6505 96.7685 75.6181 96.7361L75.5859 96.7038C75.5213 96.6392 75.4566 96.5422 75.3597 96.4776L75.3273 96.4453C75.295 96.413 75.2627 96.413 75.2304 96.3807C75.1981 96.3483 75.1334 96.316 75.0688 96.316C75.0365 96.316 75.0365 96.316 75.0042 96.2837C74.9072 96.2514 74.8103 96.2191 74.681 96.2191C74.6487 96.2191 74.6487 96.2191 74.6164 96.2191C74.5518 96.2191 74.4871 96.2191 74.4225 96.2191C74.3579 96.2191 74.2933 96.2191 74.2286 96.2191C74.1963 96.2191 74.0347 96.2514 74.0993 96.2191C73.8731 96.2514 73.6469 96.1544 73.55 95.9606C73.4854 95.9929 73.453 96.0252 73.3884 96.0575C73.3884 96.0575 73.3884 96.0575 73.3561 96.0575L73.3238 96.0898C73.2269 96.1545 73.1622 96.2514 73.0653 96.3483C73.0653 96.3807 73.0329 96.3807 73.0329 96.413C73.0006 96.4776 72.9683 96.5099 72.936 96.5746C72.9037 96.6069 72.8713 96.6715 72.8713 96.7038L72.8391 96.7684V96.8008C72.8067 96.8977 72.7744 97.027 72.7421 97.1239C72.7421 97.1885 72.7098 97.2209 72.7098 97.2855C72.7098 97.3178 72.7098 97.3178 72.7098 97.3501C72.7098 97.4471 72.7098 97.544 72.7098 97.6733C72.7098 97.7379 72.7098 97.8025 72.7098 97.8349V97.8672C72.7098 97.8672 72.7098 97.8672 72.7098 97.8995C72.7421 97.9964 72.7421 98.0934 72.7745 98.1903C72.8068 98.255 72.8067 98.2873 72.8391 98.3519C72.8391 98.3842 72.8713 98.3842 72.8713 98.4165C72.9036 98.5135 72.9683 98.5781 73.0329 98.6751L73.0653 98.7397C73.0976 98.772 73.1299 98.8043 73.1622 98.869C73.1945 98.9013 73.2268 98.9336 73.2915 98.9659L73.3238 98.9982C73.3238 98.9982 73.3238 98.9982 73.3561 98.9982C73.453 99.0629 73.55 99.1275 73.6469 99.1598C73.6793 99.1598 73.7116 99.1921 73.7116 99.1921C73.7762 99.2244 73.8408 99.2244 73.8731 99.2567C73.9378 99.2891 74.0024 99.2891 74.0671 99.2891H74.0993C74.1317 99.2891 74.164 99.2891 74.164 99.2891C74.2932 99.2891 74.3902 99.2891 74.5195 99.2891C74.5195 99.2891 74.5195 99.2891 74.5518 99.2891C74.5841 99.2891 74.6164 99.2891 74.6487 99.2567C74.7133 99.2567 74.7456 99.2244 74.8103 99.2244C74.8749 99.2244 74.9072 99.1921 74.9718 99.1598C75.0042 99.1598 75.0042 99.1275 75.0365 99.1275C75.1335 99.0952 75.1981 99.0305 75.2627 98.9982C75.295 98.9982 75.3273 98.9659 75.3273 98.9336C75.3597 98.9013 75.392 98.869 75.4243 98.8366C75.4566 98.8043 75.489 98.772 75.5213 98.7397L75.5535 98.7074C75.6182 98.6104 75.6505 98.5458 75.6828 98.4489C75.6828 98.4489 75.6828 98.4165 75.7151 98.4165C75.7151 98.4165 75.7151 98.4165 75.7151 98.3842C75.7151 98.3519 75.7475 98.2873 75.7475 98.255C75.7798 98.158 75.7798 98.0934 75.8121 97.9964C75.8121 97.9641 75.8121 97.9641 75.8121 97.9641C75.8121 97.9641 75.8121 97.9641 75.8121 97.9318C75.909 97.8349 75.909 97.7702 75.909 97.7379ZM94.5551 106.237C94.7813 107.465 93.7795 108.305 92.7454 108.758C93.1978 109.436 93.521 110.179 93.5533 110.987C93.5856 111.537 93.3917 112.151 92.9393 112.506C92.5192 112.862 91.9375 112.959 91.4205 112.797C90.2571 112.441 89.8047 111.213 89.7401 110.05C89.4169 110.212 89.0291 110.276 88.6413 110.244C87.4456 110.179 86.25 109.21 86.3792 107.917C86.4762 107.142 86.9286 106.495 87.7042 106.269C88.1889 106.14 88.6737 106.172 89.0938 106.398C88.8999 105.688 88.8352 104.944 89.1261 104.266C89.5785 103.232 90.9034 103.005 91.7436 103.749C92.1314 104.104 92.293 104.524 92.293 104.944C93.2948 104.686 94.3612 105.17 94.5551 106.237ZM93.1978 105.881C93.1655 105.881 93.1978 105.881 93.1978 105.881V105.881ZM90.0309 104.718C90.0632 104.686 90.0632 104.686 90.0309 104.718V104.718ZM92.0022 111.924C92.0668 111.924 92.0668 111.924 92.0022 111.924V111.924ZM92.4222 111.698C92.3899 111.731 92.3899 111.731 92.4222 111.698V111.698ZM93.618 106.625C93.618 106.592 93.618 106.528 93.618 106.495C93.618 106.495 93.618 106.495 93.618 106.463C93.618 106.431 93.5856 106.398 93.5856 106.334L93.5533 106.269C93.5533 106.237 93.521 106.205 93.521 106.205C93.4887 106.172 93.4887 106.14 93.4564 106.108C93.4887 106.14 93.4887 106.14 93.424 106.075C93.3917 106.043 93.3594 106.011 93.3271 105.978C93.2948 105.946 93.2624 105.946 93.2301 105.914C93.2301 105.914 93.2302 105.914 93.1978 105.914C93.1655 105.914 93.1009 105.881 93.0685 105.881C93.0362 105.881 93.0039 105.881 93.0039 105.881C92.9716 105.881 92.9393 105.881 92.907 105.881C92.907 105.881 92.8424 105.881 92.8101 105.881C92.7778 105.881 92.7131 105.881 92.7131 105.914C92.6808 105.914 92.6161 105.946 92.5838 105.946C92.5838 105.946 92.5515 105.946 92.5515 105.978C92.5192 106.011 92.4545 106.043 92.4222 106.043C92.3899 106.043 92.293 106.14 92.293 106.14C92.2607 106.172 92.1961 106.205 92.1638 106.237C92.0991 106.269 92.0668 106.334 92.0345 106.398C91.8406 106.819 91.5497 107.206 91.2912 107.53C91.1296 107.723 90.8388 107.691 90.6449 107.562C90.451 107.4 90.4187 107.142 90.5156 106.948C90.7095 106.56 90.9358 106.14 91.2589 105.784C91.2912 105.752 91.2912 105.688 91.2912 105.688C91.3235 105.623 91.3236 105.526 91.3559 105.461C91.3559 105.429 91.3558 105.397 91.3881 105.364C91.3881 105.3 91.3881 105.235 91.3881 105.17C91.3881 105.106 91.3558 104.944 91.3881 105.074C91.3881 105.041 91.3559 104.977 91.3559 104.944C91.3559 104.912 91.3235 104.88 91.3235 104.815C91.3235 104.815 91.3235 104.783 91.2912 104.783C91.2589 104.75 91.2266 104.686 91.2266 104.653L91.1943 104.621C91.162 104.589 91.1296 104.556 91.0973 104.524C91.065 104.492 91.0003 104.46 90.968 104.46H90.9358C90.8711 104.46 90.8065 104.427 90.7418 104.395H90.7096C90.6772 104.395 90.6449 104.395 90.5803 104.395C90.5479 104.395 90.5157 104.427 90.451 104.427H90.4187C90.3864 104.46 90.354 104.46 90.3217 104.492C90.3217 104.492 90.3218 104.492 90.2894 104.524C90.2571 104.556 90.2248 104.589 90.1925 104.621L90.1601 104.653C90.1601 104.653 90.1602 104.621 90.1925 104.621L90.1601 104.653C90.1601 104.653 90.1601 104.653 90.1601 104.621V104.653C90.1278 104.686 90.1278 104.718 90.0955 104.75C90.0955 104.75 90.0633 104.783 90.0633 104.815C90.0309 104.88 90.0309 104.912 89.9986 104.977C89.9986 105.009 89.9663 105.074 89.9663 105.106C89.9663 105.138 89.9663 105.203 89.9663 105.235C89.9663 105.397 89.9663 105.526 89.9663 105.688C89.9663 105.72 89.9663 105.72 89.9663 105.72C89.9663 105.72 89.9663 105.72 89.9663 105.752C89.9663 105.784 89.9662 105.849 89.9986 105.881C90.0309 105.978 90.0309 106.043 90.0633 106.14C90.1279 106.334 90.1925 106.528 90.2571 106.722C90.354 106.98 90.1602 107.239 89.9339 107.303C89.9016 107.303 89.8693 107.303 89.837 107.303C89.8047 107.433 89.7077 107.53 89.6108 107.594C89.3523 107.723 89.0938 107.626 88.9322 107.433C88.706 107.109 88.1243 107.142 87.7688 107.368C87.6072 107.465 87.5103 107.594 87.4457 107.788C87.4134 107.853 87.4133 107.917 87.4133 107.982C87.381 108.079 87.4133 107.982 87.4133 108.047C87.4133 108.111 87.4133 108.144 87.4133 108.208C87.4133 108.24 87.4133 108.273 87.4133 108.273C87.4133 108.337 87.4457 108.37 87.4457 108.434L87.478 108.499C87.5103 108.596 87.5749 108.661 87.6072 108.758C87.6072 108.79 87.6396 108.79 87.6396 108.822C87.6719 108.854 87.7042 108.887 87.7365 108.919C87.8011 108.984 87.8011 108.984 87.898 109.048C88.2212 109.275 88.5444 109.339 88.9645 109.307C89.0291 109.307 88.9645 109.307 89.0614 109.307C89.1261 109.307 89.1907 109.275 89.223 109.275C89.3523 109.242 89.3523 109.242 89.4492 109.178C89.6431 109.081 89.7724 108.984 89.9339 108.79C90.1925 108.467 90.8065 108.725 90.7742 109.145C90.7419 109.565 90.7095 110.115 90.7742 110.438C90.8065 110.632 90.8388 110.793 90.9034 110.987C90.9034 111.02 90.9357 111.084 90.968 111.117C91.0003 111.181 91.0327 111.246 91.065 111.31C91.0973 111.375 91.1297 111.44 91.1943 111.504C91.1943 111.537 91.2266 111.537 91.2266 111.537C91.2266 111.537 91.2266 111.537 91.2589 111.569C91.3235 111.634 91.3881 111.698 91.4528 111.763C91.4851 111.795 91.5174 111.827 91.5497 111.827C91.582 111.86 91.6467 111.86 91.679 111.892H91.7113C91.7436 111.892 91.8083 111.924 91.8406 111.924H91.8729C91.8729 111.924 91.8729 111.924 91.9052 111.924C91.9375 111.924 92.0021 111.924 92.0345 111.924H92.0668C92.0991 111.924 92.1637 111.892 92.196 111.892H92.2284C92.2607 111.86 92.293 111.86 92.3576 111.827C92.3576 111.827 92.39 111.827 92.39 111.795C92.4223 111.763 92.4546 111.731 92.4869 111.698L92.5192 111.666C92.5192 111.666 92.5192 111.666 92.5192 111.634C92.5515 111.601 92.5515 111.569 92.5838 111.504C92.5838 111.504 92.5838 111.504 92.5838 111.472C92.5838 111.472 92.5838 111.472 92.5838 111.44C92.5838 111.407 92.6161 111.343 92.6161 111.31C92.6161 111.278 92.6485 111.149 92.6485 111.181C92.6485 111.149 92.6485 111.084 92.6485 111.052C92.6485 110.987 92.6485 110.923 92.6485 110.858C92.6485 110.826 92.6485 110.793 92.6485 110.761C92.5192 109.985 92.1314 109.339 91.6467 108.693C91.4528 108.434 91.679 108.047 91.9375 107.982C92.3253 107.885 92.6485 107.756 92.9716 107.53C93.1332 107.433 93.1332 107.4 93.2625 107.303C93.2948 107.271 93.3594 107.206 93.3917 107.174L93.424 107.142L93.4564 107.109C93.4887 107.045 93.521 107.012 93.5533 106.948L93.5856 106.883C93.6179 106.819 93.6179 106.722 93.6502 106.657C93.6179 106.657 93.618 106.625 93.618 106.625ZM92.5838 110.826C92.5838 110.858 92.5838 110.89 92.5838 110.826V110.826ZM136.63 139.037C136.436 141.687 135.757 144.434 134.077 146.567C133.431 147.375 132.59 148.15 131.621 148.57C130.781 148.958 129.844 149.12 128.939 149.281C125.772 149.863 122.54 150.186 119.309 150.477C115.916 150.768 112.523 151.026 109.097 151.123C105.575 151.22 102.052 150.897 98.5945 150.283C94.8782 149.637 91.1943 148.667 87.6072 147.439C86.2177 146.954 84.8281 146.405 83.5032 145.759C82.6953 145.371 81.8874 144.951 81.1765 144.369C80.8856 147.827 78.0742 150.671 74.4548 150.671H74.4225H20.6818C17.6764 150.671 15.1235 148.699 14.251 145.953H12.8292C11.3103 145.953 9.95306 144.789 9.50064 143.077L0.710834 111.278C-0.0324228 108.596 1.64792 105.849 4.03927 105.849H41.3314C42.7533 103.425 44.4014 101.131 46.1788 98.9659C48.9256 95.6374 52.0925 92.6644 55.5825 90.1438C57.166 88.9804 58.8464 87.914 60.5592 86.9768C60.5915 85.7812 60.6561 84.5532 60.6884 83.3575C60.85 79.6089 61.0116 75.8603 61.2055 72.1117C61.3024 70.2374 61.3671 68.3954 61.464 66.5211C60.5592 66.1656 59.6543 65.8102 58.7495 65.4547C55.7764 64.3237 52.8357 63.1603 49.8627 61.9969C49.4426 61.8354 49.4103 61.3829 49.7335 61.1244C50.0243 60.8982 50.3151 60.672 50.606 60.4135C53.7729 57.699 56.4551 54.4351 59.2342 51.3651C61.6579 48.7153 64.1462 46.0331 66.9577 43.7387C67.5393 39.57 74.7457 33.8824 79.3668 37.2433C91.7759 32.5252 101.471 48.1982 96.8818 58.4746C96.2032 60.1873 95.363 61.8354 94.3935 63.4188C95.0075 65.2285 94.8459 67.329 93.3271 69.2033C95.7831 72.758 101.018 74.0506 104.799 71.6593C105.316 71.3361 106.092 71.0453 106.415 71.53C104.864 77.056 98.336 80.9015 92.8423 82.0326C93.1009 82.7758 93.3594 83.5191 93.618 84.2623C93.7795 84.327 93.9088 84.3593 94.0703 84.4239C98.5945 86.2659 102.699 88.8835 106.512 91.9211C110.26 94.9265 113.75 98.2226 117.079 101.68C120.278 105.009 123.316 108.531 126.095 112.248C127.452 113.831 128.745 115.511 129.908 117.256C132.235 120.779 134.077 124.657 135.273 128.696C136.307 132.025 136.888 135.547 136.63 139.037ZM69.349 41.8644C70.3508 41.1534 71.3849 40.5071 72.5159 39.9901C71.3525 40.4102 70.2538 41.0565 69.349 41.8644ZM62.1103 65.6486C62.3042 65.7132 62.4658 65.8748 62.4658 66.101C62.4334 66.812 62.4011 67.5229 62.3688 68.2338C62.2072 71.627 62.0457 74.9878 61.9164 78.3809C61.7871 81.6125 61.6256 84.844 61.5286 88.0756C63.6291 88.8188 65.7943 89.4005 67.9917 89.7883C76.5554 91.3071 85.5714 90.0145 93.3594 86.1366C92.907 84.8763 92.4546 83.616 92.0345 82.3557C90.7741 78.7364 89.6108 75.0847 88.4797 71.4331H88.4475C87.1225 71.4331 85.8299 71.0453 84.7635 70.2697C84.5373 70.1081 84.5049 69.8173 84.6665 69.5911C84.8281 69.3649 85.1189 69.3326 85.3452 69.4941C87.381 71.013 90.6126 70.7221 92.39 68.8801C94.5551 66.5857 94.0704 63.7097 92.6485 61.9C91.1943 60.0903 88.512 58.9593 85.7975 60.5427C85.5713 60.672 85.2805 60.6074 85.1512 60.3812C85.022 60.155 85.0866 59.8641 85.3128 59.7025C85.5713 59.541 85.8299 59.4117 86.0884 59.3148C85.7976 57.699 85.5391 56.0832 85.2805 54.4674C75.8121 54.6613 70.9001 48.7799 74.875 40.0547C72.419 40.8626 70.1892 42.3814 68.2179 43.9326C64.6632 46.8086 61.5933 50.2018 58.5556 53.5949C56.1643 56.2448 53.8052 59.0562 51.0261 61.3183C51.0907 61.3506 51.1876 61.3829 51.2523 61.4153C54.8393 62.8371 58.491 64.259 62.1103 65.6486ZM57.1014 144.951C57.8124 144.951 58.4587 144.595 58.9434 143.949C59.5897 143.077 59.8159 141.849 59.5251 140.718L50.7352 108.919C50.3797 107.626 49.4103 106.754 48.3439 106.754H4.07162C3.36068 106.754 2.71438 107.109 2.22965 107.756C1.58334 108.628 1.35711 109.856 1.64795 110.987L10.4378 142.786C10.7932 144.078 11.7627 144.951 12.8292 144.951H57.1014ZM56.5197 121.845C56.3581 121.845 56.1966 121.878 56.035 121.845C55.5826 121.781 55.2917 121.587 55.0978 121.328L58.0709 132.122C58.5556 131.992 59.008 131.863 59.4927 131.734C59.3635 131.508 59.2988 131.217 59.2988 130.926C59.2342 129.439 60.8177 128.632 62.1103 128.535C63.0152 128.47 63.9523 128.664 64.8571 128.341C65.2449 128.211 65.5681 127.953 65.6327 127.533C65.6973 127.242 65.6973 126.951 65.6327 126.66C65.4065 125.626 64.0816 125.4 63.1444 125.303C61.8518 125.174 60.4945 125.271 59.2019 125.012C57.7477 124.721 56.3905 123.364 56.5197 121.845ZM58.3617 133.026L60.4299 140.491C60.5268 140.879 60.5914 141.267 60.5914 141.622C67.7009 141.622 73.7439 141.622 77.0401 141.622C75.6505 140.847 74.3902 139.78 73.4854 138.455C72.2574 136.71 71.5464 134.448 69.4782 133.511C67.4423 132.606 65.1157 133.188 62.9828 133.156C62.1426 133.156 61.0762 132.994 60.3006 132.477C59.6543 132.671 59.008 132.833 58.3617 133.026ZM80.207 143.238V143.206V143.174C80.207 143.012 80.1424 142.883 80.0454 142.786C79.8192 142.721 79.593 142.689 79.3668 142.624C77.848 142.624 70.1245 142.624 60.5268 142.624C60.2037 144.466 58.8464 145.953 57.0691 145.953H15.2528C16.093 148.15 18.1935 149.701 20.6495 149.701H74.3902H74.4225C76.0383 149.701 77.5248 149.055 78.6235 147.859C79.7869 146.599 80.3363 144.919 80.207 143.238ZM81.7581 141.138C82.3721 140.33 82.8892 139.457 83.3416 138.585C84.2464 136.807 84.8927 134.836 85.0866 132.865C85.1512 131.992 85.1835 131.12 84.9897 130.247C84.925 129.956 84.8604 129.666 84.7635 129.342C83.9233 128.147 83.0508 127.016 82.1136 125.949C79.9808 123.461 77.6217 121.102 75.0042 119.131C72.6128 117.321 69.9307 115.705 67.0223 114.994C64.4693 114.38 61.8195 114.671 59.6543 116.19C59.4281 116.352 59.1696 116.546 58.9434 116.739C62.3042 115.77 65.9235 116.028 69.1228 117.515C69.7045 117.774 69.1874 118.614 68.638 118.355C65.2449 116.772 61.1408 116.707 57.7154 118.226C57.5861 118.291 57.4892 118.291 57.3922 118.258C57.2953 118.291 57.1984 118.355 57.1014 118.388C56.8106 118.581 56.5197 118.808 56.3258 119.098C56.035 119.519 55.7441 120.133 55.9057 120.617C55.938 120.747 56.035 120.876 56.1642 120.908C56.4551 121.005 56.7459 120.908 57.0367 120.811C57.069 120.811 57.0691 120.811 57.1014 120.811C59.9452 117.353 64.8571 119.228 67.8948 121.328C68.4118 121.684 67.9271 122.524 67.41 122.168C64.7279 120.326 60.3006 118.388 57.78 121.49C57.7477 121.554 57.6831 121.587 57.6508 121.587C57.6508 121.587 57.6508 121.587 57.6508 121.619C57.2307 122.589 58.1678 123.623 59.008 123.978C59.5574 124.204 60.2037 124.204 60.8177 124.237C62.2073 124.301 63.7261 124.237 65.051 124.721C66.2467 125.174 66.893 126.143 66.7637 127.436C66.6991 127.888 66.6345 128.276 66.279 128.632C65.9882 128.955 65.6327 129.149 65.2449 129.278C64.3724 129.569 63.4352 129.536 62.5304 129.504C61.8841 129.504 61.1732 129.633 60.7207 130.118C60.4299 130.441 60.3006 130.861 60.4622 131.217C60.7207 131.831 61.4963 132.089 62.1103 132.154C63.1444 132.316 64.2431 132.186 65.2772 132.122C67.41 131.992 69.6075 132.089 71.3203 133.544C72.9037 134.901 73.5177 137.001 74.8426 138.552C76.0706 140.039 77.751 141.073 79.593 141.622C79.6899 141.622 79.7223 141.622 79.7223 141.622C80.0131 141.622 80.304 141.719 80.5302 141.849C80.7241 141.881 80.9179 141.913 81.1118 141.946C81.3057 141.719 81.5319 141.428 81.7581 141.138ZM135.499 134.093C135.014 130.409 133.883 126.79 132.3 123.429C130.458 119.454 128.034 115.802 125.126 112.506C124.996 112.345 124.964 112.183 125.029 112.021L124.705 111.924C123.962 110.923 123.187 109.953 122.379 109.016C119.083 105.009 115.463 101.196 111.682 97.641C108.548 94.7326 105.284 91.9211 101.729 89.5298C99.3054 87.914 96.7525 86.5244 94.0703 85.4257C94.1673 85.7165 94.2642 86.0074 94.3612 86.2982C94.4258 86.4921 94.3612 86.6537 94.2643 86.7506C94.2966 86.8476 94.3289 86.9445 94.2965 87.0415C93.9411 88.7865 93.1332 90.37 92.0022 91.7272C90.0309 94.0216 87.1548 95.4435 84.1818 95.7667C81.1118 96.0898 78.0095 95.1527 75.7151 93.0845C75.2627 92.6644 75.9414 91.9857 76.3938 92.4058C77.5894 93.4723 79.0113 94.2155 80.5624 94.6033C85.9268 95.8959 91.8729 92.6321 93.2625 87.2677C91.2912 88.2371 89.223 89.0127 87.0902 89.659C78.4619 92.212 68.9935 91.9534 60.5268 88.8188C60.2683 88.7219 60.1713 88.4957 60.2037 88.2695C57.166 90.0468 54.3223 92.1473 51.737 94.5064C48.667 97.3178 45.9525 100.485 43.6258 103.91C43.2057 104.556 42.7856 105.203 42.3979 105.849H48.2147C49.7335 105.849 51.0907 107.012 51.5431 108.725L54.7424 120.359C54.7424 119.777 54.9685 119.131 55.2594 118.678C55.5179 118.323 55.8088 118.032 56.132 117.774C56.2935 117.644 56.4874 117.547 56.6813 117.45C56.7136 117.418 56.7782 117.418 56.8105 117.386C56.8428 117.386 56.9075 117.321 56.9398 117.321C56.9722 117.289 57.0368 117.192 57.0691 117.16C57.5861 116.546 58.2001 115.996 58.8464 115.511C61.2055 113.766 64.1785 113.411 66.9899 114.057C70.1568 114.768 73.0652 116.546 75.6181 118.484C78.3973 120.617 80.9179 123.106 83.1477 125.82C83.6647 126.434 84.1818 127.08 84.6665 127.759C84.925 126.983 85.6036 126.434 86.2823 125.982C87.2517 125.368 88.2212 124.818 89.3846 124.592C91.6467 124.172 93.9087 124.818 96.1385 125.238C96.3001 125.271 96.4294 125.303 96.591 125.335C96.6556 125.335 96.7202 125.368 96.7848 125.368C96.8494 125.368 96.9465 125.335 97.0111 125.335C97.2373 125.271 97.4312 125.238 97.6251 125.174C98.1098 125.012 98.6269 124.851 99.1116 124.657C100.34 124.204 101.568 123.687 102.763 123.17C105.51 122.039 108.289 120.876 111.198 120.133C112.135 119.906 113.169 119.68 114.203 119.583C114.106 119.389 113.977 119.228 113.88 119.066C113.783 118.937 113.686 118.808 113.524 118.678C113.492 118.646 113.492 118.646 113.524 118.678C113.492 118.646 113.46 118.614 113.395 118.581C113.33 118.517 113.266 118.42 113.201 118.323C113.104 118.194 113.007 118.064 112.91 117.967C112.07 116.998 111.036 116.287 109.873 115.738C108.031 114.897 105.769 114.639 104.25 113.217C102.085 111.213 102.989 107.562 103.636 105.138C103.797 104.524 104.734 104.783 104.573 105.397C104.153 106.948 103.765 108.628 103.927 110.244C104.024 111.213 104.347 112.021 105.025 112.635C105.639 113.185 106.544 113.508 107.352 113.799C109.582 114.574 111.779 115.318 113.427 117.127C113.557 117.256 113.654 117.386 113.783 117.547C113.88 117.677 114.074 117.838 114.106 118C114.138 118 114.138 118.032 114.171 118.032C114.203 118.064 114.235 118.097 114.268 118.097C114.332 118.161 114.397 118.226 114.461 118.291C114.785 118.678 115.043 119.131 115.302 119.583V119.616C116.336 119.648 117.37 119.874 118.242 120.391C119.212 120.973 119.858 121.942 120.181 123.009C120.278 123.299 120.343 123.623 120.375 123.946C120.407 124.204 120.44 124.366 120.311 124.592C120.246 124.721 120.149 124.883 120.052 125.012C119.729 125.432 119.341 125.82 118.792 125.885C117.725 126.014 116.982 124.915 116.497 124.14C115.786 123.009 115.269 121.781 114.688 120.585C114.494 120.585 114.3 120.585 114.138 120.617C111.424 120.844 108.742 121.813 106.221 122.815C103.765 123.784 101.374 124.883 98.8853 125.788C98.4329 125.949 98.0128 126.111 97.5281 126.208C97.3342 126.273 97.1403 126.305 96.9787 126.337C96.5263 126.434 95.977 126.24 95.5569 126.143C93.4241 125.723 91.162 125.077 88.9968 125.691C88.0274 125.982 87.0578 126.531 86.2823 127.177C85.7329 127.63 85.4421 128.147 85.5391 128.858C85.6037 129.278 85.7653 129.698 85.8299 130.086C85.9268 130.506 85.9592 130.926 85.9915 131.346C86.0238 132.251 85.9591 133.188 85.7975 134.093C85.4421 135.999 84.7635 137.874 83.8263 139.587C83.3739 140.427 82.8569 141.202 82.2752 141.946C81.9843 142.301 81.6935 142.656 81.3703 142.947C81.2088 143.077 81.3703 142.947 81.2734 143.044C81.2734 143.044 81.2734 143.044 81.2411 143.044V143.077C81.2734 143.109 81.2734 143.141 81.3057 143.206C81.3057 143.238 81.3381 143.238 81.3381 143.27C81.3381 143.27 81.338 143.27 81.3703 143.303C81.4026 143.367 81.4673 143.4 81.5319 143.464C81.5965 143.529 81.6612 143.594 81.7258 143.626C81.7905 143.691 81.8551 143.723 81.8874 143.755C82.7276 144.369 83.697 144.854 84.6665 145.274C87.6395 146.599 90.8388 147.536 94.0057 148.312C97.6574 149.217 101.374 149.895 105.122 150.121C108.128 150.283 111.198 150.089 114.203 149.895C117.628 149.669 121.054 149.378 124.479 148.958C125.837 148.796 127.226 148.603 128.583 148.344C129.1 148.247 129.617 148.15 130.135 148.021C130.328 147.956 130.522 147.924 130.716 147.859C130.813 147.827 130.878 147.795 130.975 147.762C131.007 147.762 131.104 147.698 131.136 147.698C133.075 146.825 134.303 144.757 134.917 142.818C135.854 140.039 135.854 137.001 135.499 134.093ZM96.8172 125.335H96.8495C96.7849 125.335 96.7525 125.335 96.8172 125.335ZM119.535 124.075C119.535 124.043 119.535 124.043 119.535 124.01C119.503 123.881 119.47 123.72 119.438 123.558C119.373 123.299 119.309 123.009 119.179 122.75C118.565 121.296 117.305 120.714 115.883 120.553C116.271 121.361 116.659 122.168 117.079 122.944C117.338 123.429 117.596 123.881 117.951 124.301C118.081 124.463 118.242 124.624 118.372 124.689C118.404 124.721 118.469 124.754 118.501 124.754C118.566 124.786 118.533 124.754 118.533 124.786C118.565 124.786 118.598 124.818 118.662 124.818C118.662 124.818 118.662 124.818 118.695 124.818C118.727 124.818 118.759 124.818 118.759 124.818C118.792 124.818 118.824 124.818 118.856 124.786C118.856 124.786 118.921 124.754 119.018 124.689C119.115 124.624 119.309 124.366 119.438 124.204C119.47 124.204 119.503 124.14 119.535 124.075ZM119.535 124.075C119.535 124.14 119.567 124.14 119.535 124.075V124.075ZM32.8001 123.396C33.608 124.721 33.7696 126.563 32.9617 127.953C32.1538 129.407 30.2795 130.118 28.7606 129.342C27.4357 128.664 26.7894 127.048 26.7894 125.626C26.7894 124.495 27.1772 123.429 27.9528 122.718C27.9851 122.589 28.0498 122.492 28.179 122.395C28.9869 121.845 29.9887 121.554 30.9258 121.813C31.7014 122.071 32.38 122.685 32.8001 123.396ZM31.766 123.59C31.4105 123.138 30.9905 122.847 30.4411 122.718C30.2472 122.685 29.8918 122.685 29.6332 122.75C29.6009 122.75 29.6008 122.75 29.5685 122.782C29.5039 122.847 29.4393 122.879 29.3747 122.912C28.0821 123.396 27.5973 124.818 27.7589 126.111C27.8235 126.628 28.0175 127.21 28.3406 127.694C28.5991 128.115 29.0192 128.47 29.4716 128.599C29.9887 128.761 30.6027 128.696 31.152 128.438C31.7014 128.147 32.1215 127.597 32.3154 127.048C32.7355 125.917 32.5093 124.527 31.766 123.59ZM73.8408 92.6644C74.0993 92.115 73.2592 91.598 73.0006 92.1796C71.9989 94.2802 69.9953 95.6051 67.7332 95.9606C65.7296 96.2837 63.4675 95.7344 62.1426 94.1186C61.3024 93.1168 61.0116 91.8242 61.0439 90.5316C61.0439 89.9176 60.0744 89.9176 60.0744 90.5316C60.0421 91.8565 60.3329 93.2137 61.1085 94.3448C61.7871 95.3466 62.7566 96.0575 63.8877 96.5099C66.1498 97.4148 68.8319 97.0593 70.9001 95.8313C72.1928 95.088 73.2268 93.9893 73.8408 92.6644ZM71.2556 73.2751V73.3074V73.2751ZM64.5663 59.0562C64.8571 59.1209 65.051 58.9593 65.148 58.7331C65.5357 57.7636 65.9558 56.7618 66.3436 55.7924C66.4406 55.5662 66.2467 55.243 66.0205 55.2107C65.7296 55.1461 65.5357 55.3076 65.4388 55.5338C65.051 56.5033 64.6309 57.5051 64.2431 58.4746C64.1462 58.7008 64.34 58.9916 64.5663 59.0562ZM70.4477 73.9214C69.9953 73.1781 70.5446 72.2087 71.2556 71.8532C71.4818 71.7239 71.7403 71.6593 71.9988 71.627C72.0635 70.6898 73.0976 70.0435 73.9701 69.9789C74.4872 69.9466 75.0365 70.1405 75.392 70.4959C75.5535 70.6575 75.6828 70.8837 75.7797 71.1099C76.3937 70.3667 76.8785 69.4941 77.1693 68.557C77.3632 67.9753 78.3004 68.2338 78.1065 68.8155C77.7834 69.8496 77.2339 70.8191 76.5876 71.6593C76.6846 71.7239 76.7492 71.8209 76.7815 71.9178C77.0401 72.6934 77.1047 73.5336 76.9755 74.3415C76.7816 75.4079 76.0706 76.5389 74.9072 76.7328C73.5823 76.959 72.5805 75.9573 71.9342 74.9232C70.9001 75.2463 69.8014 75.4079 68.6703 75.3433C68.0563 75.3109 68.0563 74.3415 68.6703 74.3738C69.3813 74.4061 70.0599 74.3415 70.7386 74.2122C70.6093 74.1476 70.5123 74.0506 70.4477 73.9214ZM71.2556 73.4366C71.2879 73.469 71.3202 73.5013 71.2556 73.4366V73.4366ZM75.3597 72.9519C74.6164 73.6305 73.7439 74.1799 72.8067 74.5677C72.936 74.7616 73.0652 74.9232 73.1945 75.0847C73.3238 75.214 73.4207 75.3109 73.55 75.4402C73.55 75.4402 73.55 75.4402 73.5823 75.4725C73.6147 75.5048 73.6469 75.5048 73.6469 75.5371C73.7116 75.5695 73.7762 75.6341 73.8408 75.6664C73.8731 75.6987 73.9054 75.6987 73.9378 75.731C73.9378 75.731 73.9701 75.731 73.9701 75.7634C74.0024 75.7634 74.067 75.7957 74.0993 75.7957C74.164 75.7957 74.1963 75.828 74.2609 75.828C74.2609 75.828 74.3579 75.828 74.3579 75.8603C74.3902 75.8603 74.4548 75.8603 74.4871 75.8603C74.5194 75.8603 74.5841 75.8603 74.6164 75.8603H74.6487C74.681 75.8603 74.7457 75.828 74.778 75.828C74.8103 75.828 74.9072 75.7957 74.9072 75.7957C74.9395 75.7957 74.9719 75.7634 75.0042 75.7634C75.0365 75.731 75.1011 75.731 75.1334 75.6987C75.1334 75.6987 75.1981 75.6664 75.1981 75.6341L75.2304 75.6018C75.2627 75.5695 75.2627 75.5695 75.295 75.5371C75.3273 75.5048 75.3596 75.4725 75.392 75.4402C75.4243 75.4079 75.4566 75.3756 75.4566 75.3433C75.4566 75.3433 75.5213 75.2786 75.5213 75.2463C75.5859 75.1494 75.6505 75.0201 75.7151 74.9232C75.7151 74.8908 75.7474 74.8262 75.7797 74.8262C75.812 74.7939 75.8121 74.7293 75.8444 74.6969C75.8767 74.5677 75.909 74.4384 75.9413 74.3092C75.9736 74.1799 75.9737 74.0829 76.006 74.0183C76.0383 73.5659 76.0059 73.1781 75.9413 72.7903C75.8767 72.9519 75.6828 73.0812 75.4889 73.0812C75.4566 72.9842 75.4243 72.9842 75.3597 72.9519ZM72.936 71.7562C72.936 71.7885 72.936 71.8209 72.936 71.8532C73.3561 72.0794 73.7116 72.4349 73.9701 72.8226C74.3256 72.5641 74.681 72.2733 75.0042 71.9824C74.9719 71.8532 74.9395 71.6916 74.9072 71.5623V71.53C74.9072 71.4977 74.875 71.4977 74.875 71.4654C74.8426 71.4008 74.8103 71.3684 74.778 71.3038C74.7457 71.2715 74.7457 71.2715 74.7457 71.2715L74.7134 71.2392C74.6811 71.2069 74.6487 71.1745 74.5841 71.1422C74.5518 71.1422 74.5518 71.1099 74.5195 71.1099C74.4871 71.0776 74.4549 71.0776 74.3902 71.0453H74.3579C74.3256 71.0453 74.261 71.013 74.2286 71.013H74.1963C74.164 71.013 74.0994 71.013 74.0671 71.013C74.0348 71.013 73.9701 71.013 73.9378 71.013H73.9055C73.8085 71.0453 73.7116 71.0453 73.6469 71.0776C73.6146 71.0776 73.6147 71.0776 73.5823 71.1099C73.55 71.1422 73.5177 71.1422 73.4854 71.1746C73.4207 71.2069 73.3238 71.2715 73.2592 71.3038L73.2268 71.3361C73.1945 71.3684 73.1622 71.4008 73.1299 71.4331C73.1299 71.4331 73.0976 71.4654 73.0653 71.4977C73.0653 71.53 73.0329 71.53 73.0329 71.5623C73.0006 71.5947 73.0006 71.627 72.9683 71.6593V71.6916C72.9683 71.6593 72.936 71.6916 72.936 71.7562ZM71.9988 72.6287C72.0311 72.6287 72.0312 72.6287 72.0312 72.6287H71.9988ZM71.2233 73.3074V73.3397V73.372C71.191 73.3397 71.2233 73.3397 71.2233 73.372V73.4043C71.2233 73.4043 71.2233 73.4043 71.2233 73.372C71.2556 73.4043 71.2556 73.4043 71.2879 73.4366C71.3202 73.469 71.3525 73.4689 71.3849 73.5013C71.4818 73.5336 71.5465 73.5336 71.6434 73.5659C71.6757 73.5659 71.708 73.5659 71.7403 73.5659C71.8049 73.5659 71.8372 73.5659 71.9019 73.5659C72.0311 73.5659 72.1604 73.6305 72.225 73.6952C72.5159 73.5659 72.7744 73.4366 73.0653 73.3074C72.7421 73.1135 72.4189 72.8873 72.225 72.5641C72.225 72.5641 72.2251 72.5641 72.1928 72.5641C72.1604 72.5641 72.1281 72.5641 72.0958 72.5641C72.0635 72.5641 72.0311 72.5641 71.9988 72.5641H71.9666C71.9342 72.5641 71.7726 72.5964 71.7403 72.6287C71.7403 72.6287 71.8373 72.5641 71.7726 72.5964C71.7726 72.5964 71.7403 72.5964 71.7403 72.6287C71.708 72.6287 71.6757 72.6611 71.6434 72.6934C71.6111 72.7257 71.5788 72.7257 71.5464 72.758C71.4818 72.7903 71.4494 72.855 71.4171 72.8873C71.4171 72.8873 71.4172 72.8873 71.3849 72.9196C71.3849 72.9519 71.3525 72.9519 71.3525 72.9842C71.3202 73.0165 71.3203 73.0489 71.3203 73.0812C71.3203 73.1135 71.2879 73.1458 71.2879 73.1781C71.2556 73.2427 71.2233 73.2427 71.2233 73.3074ZM67.2485 59.5086C67.5393 59.5733 67.7332 59.4117 67.8302 59.1855C68.1856 58.2807 68.5088 57.3758 68.8642 56.5033C68.9612 56.2771 68.7673 55.9539 68.5411 55.9216C68.2502 55.857 68.0563 56.0186 67.9594 56.2448C67.6039 57.1496 67.2808 58.0544 66.9253 58.927C66.8284 59.1209 67.0223 59.444 67.2485 59.5086ZM67.9594 48.5214C68.2179 48.5214 68.4441 48.5214 68.7027 48.5214C68.8319 48.5214 68.9612 48.4567 69.0582 48.3921C69.1551 48.2952 69.2197 48.1659 69.1874 48.0366C69.1874 47.9074 69.1551 47.7781 69.0582 47.6812C68.9612 47.5842 68.8319 47.5519 68.7027 47.5519C68.4441 47.5519 68.2179 47.5519 67.9594 47.5519C67.8301 47.5519 67.7009 47.6165 67.604 47.6812C67.507 47.7781 67.4423 47.9074 67.4747 48.0366C67.4747 48.1659 67.507 48.2952 67.604 48.3921C67.7009 48.4891 67.8301 48.5214 67.9594 48.5214Z" fill="black"/>
</svg>
