<svg width="90" height="91" viewBox="0 0 90 91" fill="none" xmlns="http://www.w3.org/2000/svg">
<path d="M35 6.2735C41.188 2.70085 48.812 2.70085 55 6.2735L73.9711 17.2265C80.1592 20.7992 83.9711 27.4017 83.9711 34.547V56.453C83.9711 63.5983 80.1592 70.2008 73.9711 73.7735L55 84.7265C48.812 88.2992 41.188 88.2992 35 84.7265L16.0289 73.7735C9.84084 70.2008 6.02886 63.5983 6.02886 56.453V34.547C6.02886 27.4017 9.84084 20.7992 16.0289 17.2265L35 6.2735Z" fill="white"/>
<path d="M35.5 7.13953C41.3786 3.7455 48.6214 3.7455 54.5 7.13953L73.4711 18.0925C79.3498 21.4865 82.9711 27.759 82.9711 34.547V56.453C82.9711 63.241 79.3498 69.5135 73.4711 72.9075L54.5 83.8605C48.6214 87.2545 41.3786 87.2545 35.5 83.8605L16.5289 72.9075C10.6502 69.5135 7.02886 63.241 7.02886 56.453V34.547C7.02886 27.759 10.6502 21.4865 16.5289 18.0925L35.5 7.13953Z" stroke="#FF6F1E" stroke-opacity="0.2" stroke-width="2"/>
<path opacity="0.1" fill-rule="evenodd" clip-rule="evenodd" d="M58.4352 29.4642C59.0024 29.6393 59.5189 29.9485 59.9412 30.3656C60.3632 30.7667 60.6798 31.2656 60.8631 31.8181C61.0464 32.3707 61.0907 32.9598 60.9922 33.5336L60.0313 38.4432C59.4362 41.4684 57.9392 44.2425 55.7373 46.4006C54.5636 47.4595 53.3196 48.4376 52.0138 49.3284C53.1098 54.9586 45.0022 61.0694 44.6419 61.3396C44.4484 61.4756 44.2178 61.549 43.9813 61.5498C43.8318 61.5475 43.684 61.5169 43.5459 61.4597C43.3711 61.3843 43.2194 61.264 43.106 61.1111C42.9927 60.9582 42.9217 60.778 42.9003 60.5889L42.3448 54.9286C41.8272 55.0936 41.2746 55.1151 40.7458 54.9908C40.217 54.8666 39.7318 54.6012 39.3419 54.2229L36.234 51.3102C35.9144 51.0073 35.6653 50.6377 35.5045 50.2278C35.3436 49.8178 35.2749 49.3775 35.3032 48.938H29.9131C29.7198 48.9393 29.5294 48.8901 29.3609 48.7953C29.1924 48.7006 29.0515 48.5634 28.9522 48.3975C28.8527 48.2348 28.8 48.0477 28.8 47.857C28.8 47.6663 28.8527 47.4792 28.9522 47.3165C29.1774 46.8811 34.5825 38.4132 40.423 38.9387C41.375 37.4151 42.4657 35.9827 43.681 34.6597C45.7908 32.5634 48.4167 31.0615 51.2931 30.3056L56.6832 29.3597C57.2671 29.2532 57.8681 29.2891 58.4352 29.4642ZM51.1069 35.0003C50.3579 35.018 49.6308 35.2569 49.0173 35.687C48.4038 36.1171 47.9312 36.7192 47.6592 37.4173C47.3871 38.1154 47.3277 38.8784 47.4885 39.6102C47.6492 40.342 48.0229 41.0099 48.5624 41.5298C49.2959 42.1875 50.2563 42.5344 51.2408 42.4972C52.2253 42.4599 53.1567 42.0414 53.8384 41.33C54.52 40.6187 54.8984 39.6703 54.8936 38.6851C54.8889 37.6999 54.5014 36.7552 53.813 36.0504C53.0817 35.362 52.1111 34.9854 51.1069 35.0003Z" fill="#FF6F1E"/>
<path d="M51.2134 34.5541C50.3664 34.5741 49.5442 34.8443 48.8505 35.3306C48.1567 35.817 47.6224 36.4977 47.3147 37.2872C47.0071 38.0766 46.9399 38.9394 47.1217 39.7669C47.3034 40.5944 47.726 41.3497 48.3361 41.9375C49.1655 42.6813 50.2515 43.0735 51.3648 43.0314C52.478 42.9892 53.5313 42.516 54.302 41.7116C55.0728 40.9073 55.5007 39.8348 55.4953 38.7208C55.49 37.6067 55.0518 36.5384 54.2733 35.7415C53.4464 34.9631 52.3489 34.5372 51.2134 34.5541ZM52.7357 40.2325C52.5607 40.4482 52.3428 40.6254 52.0959 40.7527C51.849 40.88 51.5783 40.9547 51.301 40.9721C51.0237 40.9895 50.7458 40.9492 50.4849 40.8538C50.224 40.7584 49.9857 40.6099 49.785 40.4177C49.5844 40.2255 49.4258 39.9938 49.3193 39.7372C49.2127 39.4807 49.1605 39.2048 49.166 38.927C49.1715 38.6492 49.2345 38.3756 49.351 38.1234C49.4676 37.8712 49.6352 37.6459 49.8433 37.4618C50.0229 37.2691 50.2395 37.1146 50.4801 37.0074C50.7207 36.9001 50.9804 36.8424 51.2438 36.8376C51.7615 36.837 52.2588 37.0392 52.6292 37.4009C52.8197 37.5813 52.9719 37.7984 53.0766 38.039C53.1812 38.2797 53.2362 38.539 53.2381 38.8015C53.2682 39.3237 53.0934 39.8371 52.751 40.2325H52.7357ZM60.2257 30.2306C59.7975 29.8077 59.2738 29.4941 58.6987 29.3166C58.1237 29.139 57.5143 29.1027 56.9222 29.2106L51.457 30.1697C48.5404 30.9361 45.8779 32.4591 43.7386 34.5845C42.5063 35.9261 41.4005 37.3785 40.4351 38.9232C34.5132 38.3904 29.0327 46.9765 28.8043 47.418C28.7034 47.583 28.65 47.7726 28.65 47.966C28.65 48.1594 28.7034 48.3491 28.8043 48.5141C28.905 48.6823 29.0478 48.8214 29.2187 48.9175C29.3896 49.0136 29.5826 49.0635 29.7786 49.0621H35.2439C35.2152 49.5077 35.2849 49.9542 35.448 50.3699C35.6111 50.7855 35.8637 51.1603 36.1877 51.4674L39.339 54.4208C39.7343 54.8043 40.2263 55.0734 40.7625 55.1994C41.2986 55.3254 41.859 55.3036 42.3837 55.1363L42.947 60.8756C42.9687 61.0674 43.0407 61.25 43.1556 61.4051C43.2706 61.5601 43.4244 61.682 43.6016 61.7586C43.7417 61.8166 43.8915 61.8476 44.0431 61.8499C44.2829 61.849 44.5167 61.7747 44.7129 61.6368C45.0783 61.3627 53.299 55.1668 52.1877 49.4579C53.5117 48.5548 54.7731 47.563 55.9631 46.4893C58.1957 44.3011 59.7136 41.4883 60.3171 38.4209L61.2914 33.4428C61.3913 32.861 61.3463 32.2636 61.1604 31.7034C60.9746 31.1431 60.6535 30.6373 60.2257 30.2306ZM35.868 46.9765H31.8338C33.5236 44.6777 36.2791 41.7548 38.9128 41.1459L37.771 43.3837C37.0859 44.693 36.4618 45.8956 35.9898 46.8699L35.868 46.9765ZM45.0022 58.5768L44.6064 54.4969L50.1325 51.0869C49.7367 53.751 47.0421 56.7196 45.0022 58.5768ZM59.1753 33.0013L58.201 38.0251C57.6709 40.628 56.384 43.0165 54.5017 44.8909C50.6463 48.0862 46.4374 50.8291 41.9575 53.0659C41.7832 53.1534 41.5864 53.1858 41.3933 53.1586C41.2001 53.1314 41.0199 53.0459 40.8766 52.9137L37.7253 49.869C37.5862 49.7369 37.4922 49.5643 37.4567 49.3757C37.4211 49.1872 37.4459 48.9922 37.5274 48.8185L37.634 48.5902C37.6561 48.561 37.6764 48.5305 37.6949 48.4989L39.8109 44.3581C41.3295 41.3852 43.2058 38.6092 45.398 36.0917C47.2224 34.2845 49.4824 32.9788 51.9593 32.301L57.3789 31.3419C57.6164 31.3007 57.8604 31.3164 58.0907 31.3879C58.3209 31.4593 58.5309 31.5845 58.7034 31.753C58.8715 31.91 58.9983 32.1061 59.0727 32.3238C59.147 32.5415 59.1666 32.7742 59.1296 33.0013H59.1753Z" fill="#FF6F1E"/>
</svg>
