<svg width="41" height="41" viewBox="0 0 41 41" fill="none" xmlns="http://www.w3.org/2000/svg">
<g clip-path="url(#clip0_27158_106994)">
<path d="M31.7638 5.36961C26.3861 0.432178 20.6524 0.902257 20.5201 0.902101C20.5135 0.902101 20.507 0.901866 20.5005 0.901866C20.5002 0.901866 20.5001 0.901866 20.4999 0.901866C20.4996 0.901866 20.4995 0.901866 20.4992 0.901866C20.3117 0.901944 19.6711 0.922569 19.6711 0.922569C15.7938 1.11452 12.0671 2.70406 9.23593 5.36961C7.77897 6.91813 4.06396 11.1252 4.06396 17.3378C4.06396 22.0556 6.05233 26.3084 9.23601 29.3059C10.7113 27.9169 12.4434 26.7976 14.3534 26.0267C16.252 25.2603 18.3266 24.8382 20.4999 24.8382C22.6731 24.8382 24.7477 25.2604 26.6464 26.0267C28.5564 26.7976 30.2884 27.9169 31.7637 29.3059C34.9474 26.3084 36.9357 22.0556 36.9357 17.3378C36.9359 11.1249 32.9692 6.40633 31.7638 5.36961Z" fill="#49D5FF"/>
<path d="M13.2595 17.3379H4.06396C4.06396 22.0557 6.05233 26.3085 9.23601 29.306C10.7113 27.917 12.4434 26.7978 14.3534 26.0268C13.6604 23.5059 13.2595 20.5284 13.2595 17.3379Z" fill="#2BB7FF"/>
<path d="M14.3535 8.64885C12.4435 7.87792 10.7115 6.75862 9.23616 5.36963C7.77897 6.91815 4.06396 11.1252 4.06396 17.3378H13.2595C13.2595 14.1473 13.6604 11.1698 14.3535 8.64885Z" fill="#49D5FF"/>
<path d="M36.936 17.3379H27.7405C27.7405 20.5284 27.3395 23.5059 26.6465 26.0268C28.5565 26.7978 30.2885 27.9171 31.7638 29.306C34.9475 26.3086 36.936 22.0557 36.936 17.3379Z" fill="#2B84E9"/>
<path d="M26.6465 8.64885C27.3395 11.1698 27.7405 14.1473 27.7405 17.3378H36.936C36.936 11.125 32.9692 6.40635 31.7639 5.36963C30.2885 6.75869 28.5565 7.87792 26.6465 8.64885Z" fill="#2B96F5"/>
<path d="M26.6464 8.64883C28.5564 7.8779 30.2885 6.7586 31.7638 5.36961C26.3861 0.432178 20.6524 0.902257 20.5201 0.902101C20.5135 0.902101 20.5071 0.901866 20.5005 0.901866C23.0936 0.902335 25.3678 3.99773 26.6464 8.64883Z" fill="#2BB7FF"/>
<path d="M19.6713 0.922695C15.794 1.11465 12.0673 2.70418 9.23608 5.36974C10.7203 6.76716 12.4629 7.88583 14.3534 8.64896C15.2059 5.54833 18.0644 0.964414 20.2824 0.90918" fill="#5FE8FF"/>
<path d="M14.3535 26.0268C16.2522 25.2604 18.3267 24.8383 20.5 24.8383C22.6733 24.8383 24.7478 25.2605 26.6465 26.0268C27.3395 23.5059 27.7405 20.5284 27.7405 17.3379H13.2595C13.2595 20.5284 13.6604 23.5059 14.3535 26.0268Z" fill="#2B96F5"/>
<path d="M20.5 9.83744C18.3267 9.83744 16.2522 9.41526 14.3535 8.64893C13.6605 11.1699 13.2595 14.1474 13.2595 17.3378H27.7405C27.7405 14.1474 27.3396 11.1699 26.6465 8.64893C24.7478 9.41526 22.6733 9.83744 20.5 9.83744Z" fill="#2BB7FF"/>
<path d="M26.6464 8.6489C25.3677 3.9978 23.0936 0.902324 20.5005 0.901855C20.5002 0.901855 20.5001 0.901855 20.4998 0.901855C20.4996 0.901855 20.4995 0.901855 20.4992 0.901855C17.9062 0.902324 15.6319 3.9978 14.3533 8.6489C16.2519 9.41531 18.3265 9.83742 20.4998 9.83742C22.6731 9.83742 24.7477 9.41531 26.6464 8.6489Z" fill="#49D5FF"/>
<path d="M24.9287 22.4807H16.0715L16.7088 24.3785L20.0308 26.251L24.0254 25.0023L24.9287 22.4807Z" fill="#363C44"/>
<path d="M20.5 34.0678H24.928C25.788 34.0678 26.6013 34.4591 27.1378 35.1312L30.6626 39.5457C30.7649 39.6739 30.9451 39.7086 31.0877 39.6276C33.0546 38.5107 34.0299 36.2149 33.4684 34.0238L31.4078 25.9827C31.0245 24.4866 29.9338 23.2726 28.4872 22.7317L26.755 22.0841C26.1211 21.847 25.4071 22.002 24.9286 22.4806L23.2016 24.2077C22.8865 24.5227 22.4592 24.6998 22.0135 24.6998H20.5H18.9865C18.5409 24.6998 18.1135 24.5227 17.7984 24.2077L16.0714 22.4806C15.5928 22.002 14.8789 21.847 14.245 22.0841L12.5128 22.7317C11.0662 23.2726 9.97553 24.4867 9.59217 25.9827L7.53162 34.0238C6.97014 36.2149 7.94545 38.5106 9.91233 39.6276C10.0549 39.7086 10.2351 39.6739 10.3374 39.5457L13.8622 35.1312C14.3987 34.4592 15.212 34.0678 16.072 34.0678H20.5Z" fill="#555E6B"/>
<path d="M11.4087 35.1311L8.64038 38.5983C8.99788 39.0008 9.42452 39.3504 9.91241 39.6275C10.055 39.7084 10.2352 39.6737 10.3375 39.5456L13.8623 35.1311C14.3989 34.459 15.2121 34.0676 16.0721 34.0676H13.6186C12.7586 34.0677 11.9454 34.459 11.4087 35.1311Z" fill="#414954"/>
<path d="M33.4684 34.0238L31.4079 25.9828C31.0245 24.4867 29.9338 23.2726 28.4873 22.7317L26.7551 22.0841C26.1751 21.8672 25.5288 21.9794 25.0564 22.3663L26.0337 22.7318C27.4803 23.2727 28.571 24.4868 28.9544 25.9828L31.0148 34.0239C31.437 35.6715 30.9901 37.3782 29.9062 38.5984L30.6626 39.5458C30.7648 39.6739 30.9451 39.7086 31.0877 39.6276C33.0546 38.5106 34.0299 36.2149 33.4684 34.0238Z" fill="#414954"/>
<path d="M13.9375 27.8039C14.7673 27.8039 15.4399 27.1313 15.4399 26.3015C15.4399 25.4717 14.7673 24.7991 13.9375 24.7991C13.1077 24.7991 12.4351 25.4717 12.4351 26.3015C12.4351 27.1313 13.1077 27.8039 13.9375 27.8039Z" fill="#414954"/>
<path d="M24.3118 31.9555C25.1415 31.9555 25.8142 31.2829 25.8142 30.4531C25.8142 29.6233 25.1415 28.9507 24.3118 28.9507C23.482 28.9507 22.8093 29.6233 22.8093 30.4531C22.8093 31.2829 23.482 31.9555 24.3118 31.9555Z" fill="#414954"/>
<path d="M24.1382 31.0624C24.6284 31.0624 25.0257 30.665 25.0257 30.1749C25.0257 29.6847 24.6284 29.2874 24.1382 29.2874C23.6481 29.2874 23.2507 29.6847 23.2507 30.1749C23.2507 30.665 23.6481 31.0624 24.1382 31.0624Z" fill="#414954"/>
<path d="M27.3485 25.6015C27.6967 25.6015 27.979 25.3192 27.979 24.971C27.979 24.6228 27.6967 24.3406 27.3485 24.3406C27.0003 24.3406 26.718 24.6228 26.718 24.971C26.718 25.3192 27.0003 25.6015 27.3485 25.6015Z" fill="#414954"/>
<path d="M27.3485 28.9506C27.6967 28.9506 27.979 28.6684 27.979 28.3202C27.979 27.972 27.6967 27.6897 27.3485 27.6897C27.0003 27.6897 26.718 27.972 26.718 28.3202C26.718 28.6684 27.0003 28.9506 27.3485 28.9506Z" fill="#414954"/>
<path d="M25.547 27.3015C25.8952 27.3015 26.1774 27.0192 26.1774 26.671C26.1774 26.3228 25.8952 26.0405 25.547 26.0405C25.1988 26.0405 24.9165 26.3228 24.9165 26.671C24.9165 27.0192 25.1988 27.3015 25.547 27.3015Z" fill="#414954"/>
<path d="M29.15 27.3015C29.4982 27.3015 29.7805 27.0192 29.7805 26.671C29.7805 26.3228 29.4982 26.0405 29.15 26.0405C28.8018 26.0405 28.5195 26.3228 28.5195 26.671C28.5195 27.0192 28.8018 27.3015 29.15 27.3015Z" fill="#414954"/>
<path d="M18.7666 29.8227H17.8949V28.951C17.8949 28.6027 17.6125 28.3203 17.2642 28.3203C16.916 28.3203 16.6335 28.6027 16.6335 28.951V29.8227H15.7618C15.4134 29.8227 15.1311 30.1052 15.1311 30.4534C15.1311 30.8018 15.4135 31.0841 15.7618 31.0841H16.6335V31.9558C16.6335 32.3041 16.916 32.5865 17.2642 32.5865C17.6125 32.5865 17.8949 32.3041 17.8949 31.9558V31.0841H18.7666C19.1149 31.0841 19.3973 30.8017 19.3973 30.4534C19.3974 30.1051 19.1149 29.8227 18.7666 29.8227Z" fill="#414954"/>
<path d="M13.9375 27.3838C14.7673 27.3838 15.4399 26.7111 15.4399 25.8813C15.4399 25.0516 14.7673 24.3789 13.9375 24.3789C13.1077 24.3789 12.4351 25.0516 12.4351 25.8813C12.4351 26.7111 13.1077 27.3838 13.9375 27.3838Z" fill="#FFD82F"/>
<path d="M24.3118 31.5354C25.1415 31.5354 25.8142 30.8627 25.8142 30.0329C25.8142 29.2032 25.1415 28.5305 24.3118 28.5305C23.482 28.5305 22.8093 29.2032 22.8093 30.0329C22.8093 30.8627 23.482 31.5354 24.3118 31.5354Z" fill="#2E343A"/>
<path d="M24.1382 30.6422C24.6284 30.6422 25.0257 30.2448 25.0257 29.7547C25.0257 29.2645 24.6284 28.8672 24.1382 28.8672C23.6481 28.8672 23.2507 29.2645 23.2507 29.7547C23.2507 30.2448 23.6481 30.6422 24.1382 30.6422Z" fill="#6E7A89"/>
<path d="M18.7666 29.4023H17.8949V28.5306C17.8949 28.1822 17.6125 27.8999 17.2642 27.8999C16.916 27.8999 16.6335 28.1823 16.6335 28.5306V29.4023H15.7618C15.4134 29.4023 15.1311 29.6847 15.1311 30.033C15.1311 30.3814 15.4135 30.6637 15.7618 30.6637H16.6335V31.5354C16.6335 31.8837 16.916 32.1661 17.2642 32.1661C17.6125 32.1661 17.8949 31.8837 17.8949 31.5354V30.6637H18.7666C19.1149 30.6637 19.3973 30.3813 19.3973 30.033C19.3974 29.6847 19.1149 29.4023 18.7666 29.4023Z" fill="#49BC6E"/>
<path d="M32.2445 4.98438C32.2328 4.96938 32.2205 4.95462 32.2072 4.94056C32.1752 4.90665 32.1401 4.87767 32.1031 4.85282C29.058 2.01821 24.9783 0.28125 20.5 0.28125C16.0216 0.28125 11.9418 2.01821 8.89681 4.85274C8.85978 4.87767 8.82462 4.90665 8.79275 4.94048C8.77946 4.95462 8.7672 4.96931 8.75556 4.98423C5.49211 8.09127 3.45508 12.4753 3.45508 17.3261C3.45508 20.8117 4.50016 24.1633 6.47727 27.0185C6.59548 27.1893 6.7854 27.2808 6.97844 27.2808C7.09798 27.2808 7.21884 27.2456 7.32454 27.1725C7.60102 26.981 7.66993 26.6017 7.47852 26.3252C5.75852 23.8413 4.79844 20.9522 4.68446 17.935H12.6556C12.677 19.2908 12.771 20.6279 12.934 21.9241L12.2994 22.1614C10.6673 22.7717 9.4347 24.1437 9.0022 25.8317L6.94173 33.8727C6.31368 36.3235 7.41157 38.9077 9.61157 40.1571C9.759 40.2409 9.91962 40.2813 10.0784 40.2813C10.3562 40.2813 10.6281 40.1575 10.8132 39.9256L14.338 35.5111C14.7614 34.9809 15.3935 34.6767 16.072 34.6767H20.5H24.9279C25.6065 34.6767 26.2386 34.9809 26.662 35.5111L30.1868 39.9255C30.3719 40.1574 30.6438 40.2813 30.9216 40.2813C31.0803 40.2813 31.241 40.2408 31.3883 40.1571C33.5883 38.9078 34.6862 36.3235 34.0582 33.8727L31.9976 25.8318C31.5651 24.1439 30.3326 22.7718 28.7004 22.1614L28.0658 21.9241C28.2288 20.628 28.3229 19.2908 28.3443 17.9351H36.3154C36.2015 20.9507 35.2423 23.8386 33.5238 26.3217C33.3324 26.5982 33.4015 26.9775 33.678 27.1689C33.9544 27.3602 34.3338 27.2912 34.5251 27.0147C36.5005 24.1603 37.5447 20.8101 37.5447 17.3262C37.5448 12.4753 35.508 8.09134 32.2445 4.98438ZM36.3141 16.7172H28.344C28.3008 13.9688 27.9657 11.3327 27.3718 8.99174C28.9493 8.29627 30.4232 7.35853 31.7431 6.19837C34.4419 8.92486 36.1584 12.6244 36.3141 16.7172ZM16.2014 8.62603C15.83 8.52142 15.4632 8.40127 15.1006 8.26931C16.315 4.2061 18.3033 1.49906 20.5 1.49906C22.697 1.49906 24.6855 4.2068 25.8997 8.2708C24.1875 8.89174 22.3646 9.21674 20.5 9.21674C20.005 9.21674 19.5057 9.19369 19.0158 9.14806C18.6807 9.11783 18.3842 9.36299 18.3531 9.69799C18.3219 10.0328 18.5682 10.3295 18.903 10.3606C19.4302 10.4096 19.9675 10.4346 20.5 10.4346C22.4738 10.4346 24.404 10.0961 26.2205 9.44947C26.7562 11.6178 27.0818 14.0977 27.1258 16.7171H13.8741C13.9181 14.0973 14.2438 11.6169 14.7797 9.44838C15.1396 9.57689 15.5034 9.69455 15.8712 9.79814C15.9264 9.81369 15.9819 9.82111 16.0366 9.82111C16.3024 9.82111 16.5467 9.64557 16.6224 9.37713C16.7135 9.05346 16.5251 8.71713 16.2014 8.62603ZM13.9597 7.80423C12.5849 7.17814 11.2985 6.35314 10.1507 5.36095C12.1182 3.65688 14.5091 2.42993 17.1416 1.85883C16.2788 2.72547 15.4939 3.93532 14.8229 5.4586C14.5013 6.18892 14.2133 6.97423 13.9597 7.80423ZM26.177 5.45868C25.506 3.9354 24.7211 2.72547 23.8583 1.85891C26.4912 2.43008 28.8825 3.65727 30.8501 5.36181C29.6926 6.36415 28.4101 7.18431 27.041 7.80619C26.7872 6.97548 26.499 6.18947 26.177 5.45868ZM9.25681 6.19829C10.5644 7.34603 12.0444 8.28853 13.6288 8.98892C13.0345 11.3306 12.6991 13.9678 12.6559 16.7172H4.68578C4.84149 12.6244 6.55805 8.92486 9.25681 6.19829ZM30.8179 26.134L32.8785 34.1749C33.351 36.0188 32.5765 37.9591 30.9876 38.977L27.6136 34.7512C26.9578 33.9299 25.9789 33.4589 24.9279 33.4589H20.5H16.072C15.021 33.4589 14.0421 33.9299 13.3863 34.7512L10.0122 38.977C8.42345 37.9592 7.64891 36.0189 8.12142 34.1749L10.1819 26.134C10.5156 24.8317 11.4667 23.773 12.726 23.3021L14.4581 22.6544C14.8675 22.5013 15.3317 22.6022 15.6408 22.9112L17.3678 24.6382C17.8 25.0706 18.375 25.3087 18.9864 25.3087H20.5H22.0135C22.625 25.3087 23.1998 25.0706 23.6321 24.6383L25.3591 22.9112C25.6682 22.602 26.1323 22.5011 26.5417 22.6544L28.2739 23.302C29.5333 23.773 30.4843 24.8318 30.8179 26.134ZM26.8927 21.4886C26.142 21.2372 25.3154 21.3856 24.7005 21.8718H21.0614C20.7251 21.8718 20.4525 22.1443 20.4525 22.4807C20.4525 22.817 20.7252 23.0896 21.0614 23.0896H23.4584L22.7708 23.7772C22.5686 23.9795 22.2995 24.0909 22.0134 24.0909H20.5H18.9864C18.7003 24.0909 18.4313 23.9795 18.2289 23.7771L17.5414 23.0896H18.3282C18.6645 23.0896 18.9371 22.817 18.9371 22.4807C18.9371 22.1443 18.6644 21.8718 18.3282 21.8718H16.2993C15.6846 21.3856 14.858 21.2369 14.1074 21.4885C13.9719 20.3312 13.8931 19.1411 13.8734 17.935H27.1265C27.1068 19.141 27.0283 20.3314 26.8927 21.4886Z" fill="black"/>
<path d="M16.0486 25.8809C16.0486 24.7167 15.1015 23.7695 13.9373 23.7695C12.773 23.7695 11.8259 24.7166 11.8259 25.8809C11.8259 27.0451 12.773 27.9923 13.9373 27.9923C15.1015 27.9923 16.0486 27.0451 16.0486 25.8809ZM13.9372 26.7744C13.4445 26.7744 13.0437 26.3735 13.0437 25.8809C13.0437 25.3882 13.4445 24.9874 13.9372 24.9874C14.4298 24.9874 14.8307 25.3882 14.8307 25.8809C14.8307 26.3735 14.4298 26.7744 13.9372 26.7744Z" fill="black"/>
<path d="M24.3113 27.9216C23.1471 27.9216 22.2 28.8687 22.2 30.033C22.2 31.1972 23.1471 32.1444 24.3113 32.1444C25.4755 32.1444 26.4226 31.1973 26.4226 30.033C26.4226 28.8688 25.4756 27.9216 24.3113 27.9216ZM24.3113 30.9265C23.8186 30.9265 23.4178 30.5257 23.4178 30.033C23.4178 29.5404 23.8186 29.1395 24.3113 29.1395C24.8039 29.1395 25.2048 29.5404 25.2048 30.033C25.2048 30.5257 24.804 30.9265 24.3113 30.9265Z" fill="black"/>
<path d="M27.3485 25.1806C27.6967 25.1806 27.979 24.8983 27.979 24.5501C27.979 24.2019 27.6967 23.9197 27.3485 23.9197C27.0003 23.9197 26.718 24.2019 26.718 24.5501C26.718 24.8983 27.0003 25.1806 27.3485 25.1806Z" fill="black"/>
<path d="M27.3485 28.5305C27.6967 28.5305 27.979 28.2482 27.979 27.9C27.979 27.5518 27.6967 27.2695 27.3485 27.2695C27.0003 27.2695 26.718 27.5518 26.718 27.9C26.718 28.2482 27.0003 28.5305 27.3485 28.5305Z" fill="black"/>
<path d="M25.547 26.8813C25.8952 26.8813 26.1774 26.599 26.1774 26.2508C26.1774 25.9026 25.8952 25.6204 25.547 25.6204C25.1988 25.6204 24.9165 25.9026 24.9165 26.2508C24.9165 26.599 25.1988 26.8813 25.547 26.8813Z" fill="black"/>
<path d="M29.15 26.8813C29.4982 26.8813 29.7805 26.599 29.7805 26.2508C29.7805 25.9026 29.4982 25.6204 29.15 25.6204C28.8018 25.6204 28.5195 25.9026 28.5195 26.2508C28.5195 26.599 28.8018 26.8813 29.15 26.8813Z" fill="black"/>
<path d="M18.7666 29.4243H17.8731V28.5308C17.8731 28.1945 17.6004 27.9219 17.2642 27.9219C16.9279 27.9219 16.6553 28.1945 16.6553 28.5308V29.4243H15.7617C15.4254 29.4243 15.1528 29.6969 15.1528 30.0332C15.1528 30.3695 15.4255 30.6421 15.7617 30.6421H16.6553V31.5356C16.6553 31.8719 16.9279 32.1445 17.2642 32.1445C17.6004 32.1445 17.8731 31.8719 17.8731 31.5356V30.6421H18.7666C19.1029 30.6421 19.3755 30.3695 19.3755 30.0332C19.3755 29.6969 19.1029 29.4243 18.7666 29.4243Z" fill="black"/>
</g>
<defs>
<clipPath id="clip0_27158_106994">
<rect width="40" height="40" fill="white" transform="translate(0.5 0.28125)"/>
</clipPath>
</defs>
</svg>
