<svg width="107" height="41" viewBox="0 0 107 41" fill="none" xmlns="http://www.w3.org/2000/svg">
<g clip-path="url(#clip0_27158_134258)">
<path d="M31.0728 15.2023C28.0572 13.3247 23.8468 12.1583 19.2381 12.1583C9.96382 12.1583 2.45337 16.7955 2.45337 22.5136C2.45337 27.7482 8.71208 32.044 16.82 32.7836V29.7681C11.3578 29.0853 7.2612 26.0982 7.2612 22.5136C7.2612 18.4455 12.6096 15.117 19.2381 15.117C22.5381 15.117 25.5253 15.942 27.6874 17.2791L24.6149 19.1852H34.2021V13.2678L31.0728 15.2023Z" fill="#CCCCCC"/>
<path d="M16.8198 7.03755V29.7681V32.7836L21.6277 29.7681V3.93665L16.8198 7.03755Z" fill="#FF6200"/>
<path d="M37.5953 20.8891C37.8992 19.8256 38.3929 18.9141 39.0386 18.1165C39.7222 17.3189 40.5198 16.6732 41.5073 16.2175C42.4948 15.7237 43.6342 15.4958 44.9256 15.4958C46.2549 15.4958 47.3943 15.7237 48.3818 16.2175C49.3313 16.6732 50.1669 17.3189 50.8126 18.1165C51.4582 18.9141 51.952 19.8256 52.2558 20.8891C52.5977 21.9146 52.7496 23.016 52.7496 24.1554C52.7496 25.2948 52.5977 26.3963 52.2558 27.4597C51.952 28.4852 51.4582 29.3968 50.8126 30.1943C50.1669 30.9919 49.3313 31.6376 48.3818 32.0934C47.3943 32.5871 46.2549 32.815 44.9256 32.815C43.6342 32.815 42.4948 32.5871 41.5073 32.0934C40.5198 31.6376 39.7222 30.9919 39.0386 30.1943C38.3929 29.3968 37.8992 28.4852 37.5953 27.4597C37.2535 26.3963 37.1016 25.2948 37.1016 24.1554C37.1016 23.016 37.2535 21.9146 37.5953 20.8891ZM39.0386 26.852C39.2665 27.7256 39.6463 28.4852 40.178 29.2068C40.6717 29.8905 41.3174 30.4222 42.115 30.878C42.9126 31.2958 43.8241 31.4857 44.9256 31.4857C46.027 31.4857 46.9765 31.2958 47.7741 30.878C48.5717 30.4222 49.1794 29.8905 49.7111 29.2068C50.2049 28.4852 50.5847 27.7256 50.8126 26.852C51.0405 25.9785 51.1924 25.067 51.1924 24.1554C51.1924 23.2439 51.0405 22.3703 50.8126 21.4968C50.5847 20.6232 50.2049 19.8256 49.7111 19.142C49.1794 18.4583 48.5717 17.8886 47.7741 17.4708C46.9765 17.0531 46.027 16.8632 44.9256 16.8632C43.8241 16.8632 42.9126 17.0531 42.115 17.4708C41.3174 17.8886 40.6717 18.4583 40.178 19.142C39.6463 19.8256 39.2665 20.6232 39.0386 21.4968C38.8107 22.3703 38.6967 23.2439 38.6967 24.1554C38.6967 25.067 38.8107 25.9785 39.0386 26.852Z" fill="#FF6200"/>
<path d="M55.1044 20.4713V22.7502H55.1423C55.4842 21.9146 56.0539 21.2689 56.8135 20.8132C57.5731 20.3574 58.4467 20.1295 59.4342 20.1295C60.3457 20.1295 61.1433 20.2814 61.8269 20.6233C62.5106 20.9651 63.0803 21.4209 63.5361 22.0285C63.9538 22.5983 64.2957 23.2819 64.5236 24.0415C64.7514 24.8011 64.8654 25.6367 64.8654 26.4723C64.8654 27.3458 64.7514 28.1434 64.5236 28.903C64.2957 29.6627 63.9538 30.3463 63.5361 30.916C63.0803 31.5237 62.5106 31.9795 61.8269 32.3213C61.1433 32.6251 60.3457 32.815 59.4342 32.815C58.9784 32.815 58.5606 32.7391 58.1048 32.6631C57.687 32.5492 57.2693 32.3593 56.9274 32.1694C56.5476 31.9415 56.2058 31.6756 55.902 31.3338C55.6361 31.03 55.4082 30.6501 55.2563 30.1944H55.2183V36.879H53.7371V20.4713H55.1044ZM63.1563 24.6492C63.0043 24.0035 62.7764 23.4718 62.4726 22.9781C62.1308 22.5223 61.713 22.1045 61.2192 21.8007C60.7255 21.4968 60.1558 21.3829 59.4342 21.3829C58.6366 21.3829 57.9529 21.4968 57.4212 21.8007C56.8515 22.0665 56.4337 22.4463 56.0919 22.9021C55.788 23.3579 55.5601 23.9276 55.4082 24.5353C55.2943 25.143 55.2183 25.7886 55.2183 26.4723C55.2183 27.1179 55.2943 27.7256 55.4462 28.3333C55.5981 28.941 55.826 29.5107 56.1678 29.9665C56.5096 30.4602 56.9274 30.8401 57.4592 31.1439C57.9909 31.4477 58.6745 31.5997 59.4342 31.5997C60.1558 31.5997 60.7255 31.4477 61.2192 31.1439C61.713 30.8401 62.1308 30.4602 62.4726 29.9665C62.7764 29.5107 63.0043 28.941 63.1563 28.3333C63.3082 27.7256 63.3841 27.1179 63.3841 26.4723C63.3841 25.8646 63.3082 25.2569 63.1563 24.6492Z" fill="#FF6200"/>
<path d="M67.3342 28.5232C67.4862 29.0929 67.714 29.5867 68.0559 30.0425C68.3597 30.4982 68.7775 30.878 69.2712 31.1439C69.765 31.4477 70.3727 31.5997 71.0563 31.5997C72.1198 31.5997 72.9554 31.3338 73.5631 30.7641C74.1707 30.1944 74.5885 29.4727 74.8164 28.5232H76.2977C75.9938 29.8905 75.4241 30.954 74.5885 31.6756C73.753 32.4352 72.5756 32.815 71.0563 32.815C70.1068 32.815 69.3092 32.6251 68.6256 32.3213C67.9039 31.9795 67.3722 31.5237 66.9164 30.916C66.4987 30.3463 66.1568 29.6626 65.9669 28.903C65.739 28.1434 65.6631 27.3458 65.6631 26.4723C65.6631 25.6747 65.739 24.9151 65.9669 24.1555C66.1568 23.3958 66.4987 22.7122 66.9164 22.1045C67.3722 21.4968 67.9039 21.0411 68.6256 20.6612C69.3092 20.3194 70.1068 20.1295 71.0563 20.1295C72.0059 20.1295 72.8414 20.3194 73.5251 20.6992C74.2087 21.079 74.7784 21.6108 75.1962 22.2185C75.614 22.8641 75.9179 23.5858 76.1078 24.3833C76.2977 25.1809 76.3736 26.0165 76.3356 26.8521H67.1063C67.1063 27.3838 67.1823 27.9535 67.3342 28.5232ZM74.5885 24.0415C74.3986 23.5098 74.1328 23.054 73.8289 22.6742C73.4871 22.2944 73.1073 21.9526 72.6515 21.7247C72.1578 21.4968 71.664 21.3829 71.0563 21.3829C70.4486 21.3829 69.9169 21.4968 69.4611 21.7247C69.0054 21.9526 68.5876 22.2944 68.2837 22.6742C67.9419 23.054 67.6761 23.5098 67.4862 24.0415C67.2963 24.5353 67.1823 25.067 67.1063 25.6367H74.8544C74.8544 25.067 74.7405 24.5353 74.5885 24.0415Z" fill="#FF6200"/>
<path d="M78.5385 20.4713V22.5223H78.5765C78.8803 21.8007 79.3741 21.231 80.0957 20.7752C80.7793 20.3574 81.5769 20.1295 82.4505 20.1295C83.2861 20.1295 83.9697 20.2435 84.5394 20.4334C85.1091 20.6612 85.5649 20.9651 85.9067 21.3829C86.2486 21.7627 86.4764 22.2564 86.6284 22.8261C86.7803 23.3959 86.8183 24.0415 86.8183 24.7632V32.4732H85.375V24.991C85.375 24.4593 85.337 24.0035 85.2231 23.5478C85.1471 23.13 84.9572 22.7502 84.7293 22.4084C84.5014 22.0665 84.1976 21.8386 83.7798 21.6487C83.4 21.4588 82.9063 21.3829 82.3365 21.3829C81.7289 21.3829 81.1971 21.4588 80.7414 21.6867C80.2856 21.8766 79.9058 22.1805 79.6019 22.5223C79.2601 22.9021 79.0322 23.3199 78.8423 23.8516C78.6524 24.3454 78.5765 24.8771 78.5385 25.4848V32.4732H77.0952V20.4713H78.5385Z" fill="#FF6200"/>
<path d="M89.6289 15.8757V32.4732H88.0717V15.8757H89.6289Z" fill="#FF6200"/>
<path d="M96.5793 15.8757C99.124 15.9137 101.023 16.6353 102.314 18.0026C103.568 19.3699 104.213 21.4208 104.213 24.1554C104.213 26.928 103.568 28.979 102.314 30.3463C101.023 31.7136 99.124 32.3972 96.5793 32.4732H90.8442V15.8757H96.5793ZM95.8197 31.1059C96.9971 31.1059 98.0226 30.992 98.8961 30.7261C99.7317 30.4602 100.453 30.0804 101.023 29.5107C101.555 28.941 101.973 28.2194 102.238 27.3458C102.504 26.4723 102.618 25.4088 102.618 24.1554C102.618 22.9401 102.504 21.8766 102.238 21.0031C101.973 20.0915 101.555 19.3699 101.023 18.8382C100.453 18.2685 99.7317 17.8507 98.8961 17.6228C98.0226 17.3569 96.9971 17.205 95.8197 17.205H92.4394V31.1059H95.8197Z" fill="#FF6200"/>
</g>
<defs>
<clipPath id="clip0_27158_134258">
<rect width="106.4" height="40.431" fill="white" transform="translate(0.133301 0.193542)"/>
</clipPath>
</defs>
</svg>
