<svg width="36" height="36" viewBox="0 0 36 36" fill="none" xmlns="http://www.w3.org/2000/svg">
<g clip-path="url(#clip0_27158_99529)">
<path d="M18 34.5C27.1127 34.5 34.5 27.1127 34.5 18C34.5 8.8873 27.1127 1.5 18 1.5C8.8873 1.5 1.5 8.8873 1.5 18C1.5 27.1127 8.8873 34.5 18 34.5Z" fill="#FCEE21" stroke="black" stroke-width="91.8807" stroke-miterlimit="10"/>
<path d="M10.2534 27.1506V12.4234C10.2534 10.8076 10.6874 9.20097 11.6107 7.8806C12.7741 6.20936 14.8978 4.59352 18.7481 4.76896C26.458 5.11982 27.012 10.826 27.012 10.826H23.0785C23.0785 10.826 21.5458 8.19453 18.3141 8.66543C18.1479 8.69313 17.9817 8.72083 17.8248 8.75777C15.9135 9.19173 14.5746 10.9276 14.5746 12.8943L14.5377 23.5311C14.5377 23.5311 14.1037 27.2706 10.2534 27.1506Z" fill="black"/>
<path d="M15.5256 15.3222V20.2251C15.5256 20.2251 19.3021 22.4319 23.5125 19.8281C23.5125 19.8281 26.698 17.6675 27.0119 14.5928H23.1524C23.1524 14.5928 21.3426 17.3905 18.4341 17.0304C18.4341 17.0396 16.1535 16.6333 15.5256 15.3222Z" fill="black"/>
</g>
<defs>
<clipPath id="clip0_27158_99529">
<rect width="36" height="36" rx="12" fill="white"/>
</clipPath>
</defs>
</svg>
