<svg width="200" height="200" viewBox="0 0 200 200" fill="none" xmlns="http://www.w3.org/2000/svg">
<path d="M91.6942 151.211C93.1844 146.578 76.6483 137.115 54.7599 130.075C32.8716 123.034 13.9196 121.083 12.4295 125.716C10.9394 130.348 27.4755 139.811 49.3638 146.851C71.2522 153.892 90.2041 155.843 91.6942 151.211Z" fill="#2B2E3D"/>
<path d="M7.86908 124.746C7.79658 124.746 7.7245 124.735 7.65576 124.712C7.56847 124.684 7.48753 124.639 7.4176 124.58C7.34767 124.521 7.29012 124.448 7.24825 124.367C7.20639 124.285 7.18104 124.196 7.17365 124.105C7.16626 124.014 7.17699 123.922 7.20521 123.835C8.21596 120.687 12.6756 118.93 20.0917 118.763C20.1834 118.761 20.2745 118.777 20.36 118.81C20.4454 118.843 20.5235 118.893 20.5898 118.956C20.6561 119.019 20.7092 119.095 20.7462 119.179C20.7832 119.263 20.8033 119.353 20.8054 119.445C20.8075 119.536 20.7916 119.627 20.7584 119.713C20.7253 119.798 20.6757 119.876 20.6123 119.943C20.549 120.009 20.4733 120.062 20.3894 120.099C20.3056 120.136 20.2153 120.156 20.1236 120.158C13.4511 120.31 9.33436 121.769 8.53294 124.261C8.48806 124.402 8.39953 124.525 8.28018 124.612C8.16082 124.699 8.01683 124.746 7.86908 124.746Z" fill="#2B2E3D"/>
<path d="M21.7087 140.101C21.5667 140.103 21.4276 140.061 21.31 139.981L18.7323 138.227C18.587 138.12 18.4889 137.961 18.4586 137.783C18.4283 137.605 18.4682 137.422 18.5699 137.273C18.6716 137.123 18.8272 137.019 19.004 136.982C19.1807 136.946 19.3649 136.979 19.5177 137.075L22.0954 138.827C22.2189 138.911 22.312 139.033 22.3611 139.174C22.4101 139.316 22.4124 139.469 22.3678 139.612C22.3231 139.754 22.2338 139.879 22.113 139.967C21.9922 140.055 21.8462 140.102 21.6967 140.101H21.7087Z" fill="#2B2E3D"/>
<path d="M15.8794 136.157C15.7359 136.155 15.5967 136.108 15.4807 136.024C9.01553 131.337 6.15673 127.12 7.21532 123.835C7.24074 123.745 7.28409 123.66 7.34278 123.587C7.40147 123.514 7.4743 123.454 7.55691 123.409C7.63953 123.365 7.73023 123.338 7.82361 123.329C7.91699 123.321 8.01113 123.331 8.1004 123.36C8.18967 123.388 8.27224 123.435 8.34319 123.496C8.41413 123.557 8.47199 123.632 8.51331 123.716C8.55462 123.801 8.57855 123.892 8.58366 123.986C8.58877 124.08 8.57496 124.173 8.54305 124.261C7.71372 126.853 10.5366 130.719 16.3001 134.895C16.4192 134.982 16.5078 135.104 16.5533 135.244C16.5987 135.384 16.5986 135.535 16.553 135.675C16.5074 135.815 16.4187 135.937 16.2995 136.024C16.1803 136.111 16.0367 136.157 15.8894 136.157H15.8794Z" fill="#2B2E3D"/>
<path d="M79.3368 158.031H79.285C70.4096 157.381 59.4927 155.083 48.546 151.562C48.4587 151.534 48.3777 151.489 48.3078 151.43C48.2378 151.37 48.1802 151.298 48.1383 151.216C48.0964 151.135 48.0709 151.046 48.0634 150.954C48.0559 150.863 48.0664 150.771 48.0944 150.684C48.1224 150.596 48.1674 150.515 48.2267 150.445C48.286 150.376 48.3584 150.318 48.44 150.276C48.5215 150.234 48.6105 150.209 48.7019 150.201C48.7933 150.194 48.8853 150.204 48.9726 150.232C59.8177 153.721 70.6189 155.998 79.3867 156.639C79.4783 156.643 79.5684 156.664 79.6518 156.702C79.7352 156.74 79.8103 156.794 79.8728 156.861C79.9353 156.929 79.9839 157.007 80.0159 157.093C80.048 157.179 80.0628 157.271 80.0595 157.362C80.0562 157.454 80.035 157.544 79.9969 157.627C79.9588 157.711 79.9046 157.786 79.8375 157.848C79.7704 157.911 79.6917 157.959 79.6058 157.991C79.5199 158.023 79.4285 158.038 79.3368 158.035V158.031Z" fill="#2B2E3D"/>
<path d="M84.1974 158.221H83.4139C83.2289 158.218 83.0524 158.143 82.9232 158.01C82.794 157.878 82.7228 157.699 82.7252 157.514C82.7275 157.329 82.8033 157.152 82.9359 157.023C83.0684 156.894 83.2468 156.823 83.4319 156.825C85.0008 156.847 86.4741 156.803 87.8178 156.696C88.0028 156.681 88.1863 156.74 88.3278 156.86C88.4693 156.98 88.5573 157.152 88.5723 157.337C88.5874 157.522 88.5283 157.705 88.4081 157.847C88.2879 157.988 88.1165 158.076 87.9314 158.091C86.7691 158.173 85.5192 158.221 84.1974 158.221Z" fill="#2B2E3D"/>
<path d="M156.175 153.793C177.065 144.558 192.415 133.486 190.461 129.064C188.506 124.643 169.986 128.545 149.096 137.781C128.205 147.016 112.855 158.087 114.81 162.509C116.765 166.931 135.285 163.029 156.175 153.793Z" fill="#2B2E3D"/>
<path d="M118.563 168.271H118.535C113.998 168.072 111.193 166.826 110.198 164.575C108.591 160.943 112.243 155.419 120.481 149.025C120.627 148.912 120.812 148.861 120.996 148.884C121.18 148.907 121.347 149.002 121.461 149.148C121.574 149.294 121.625 149.48 121.602 149.663C121.579 149.847 121.484 150.014 121.338 150.128C113.878 155.923 110.192 161.117 111.474 164.019C112.227 165.722 114.689 166.711 118.597 166.884C118.782 166.888 118.958 166.965 119.086 167.099C119.214 167.233 119.284 167.412 119.28 167.597C119.276 167.782 119.198 167.958 119.065 168.086C118.931 168.214 118.752 168.283 118.567 168.279L118.563 168.271Z" fill="#2B2E3D"/>
<path d="M125.038 147.256C124.889 147.256 124.744 147.209 124.623 147.121C124.503 147.033 124.414 146.909 124.37 146.767C124.325 146.624 124.327 146.472 124.376 146.331C124.424 146.19 124.517 146.068 124.639 145.984C126.619 144.624 128.766 143.253 131.019 141.907C131.176 141.825 131.359 141.807 131.53 141.856C131.701 141.905 131.847 142.017 131.938 142.169C132.029 142.322 132.058 142.503 132.02 142.677C131.982 142.85 131.879 143.003 131.732 143.103C129.5 144.433 127.376 145.786 125.423 147.13C125.309 147.209 125.176 147.252 125.038 147.256Z" fill="#2B2E3D"/>
<path d="M139.138 164.937C138.97 164.938 138.807 164.878 138.679 164.768C138.552 164.658 138.468 164.506 138.444 164.34C138.42 164.173 138.456 164.003 138.547 163.862C138.638 163.72 138.777 163.616 138.939 163.569C145.46 161.649 151.845 159.297 158.053 156.528C164.254 153.81 170.267 150.684 176.053 147.17C176.132 147.122 176.219 147.09 176.31 147.076C176.401 147.062 176.494 147.066 176.583 147.088C176.672 147.109 176.756 147.149 176.831 147.203C176.905 147.257 176.968 147.326 177.015 147.404C177.063 147.483 177.095 147.57 177.109 147.661C177.123 147.752 177.119 147.844 177.097 147.934C177.076 148.023 177.037 148.107 176.982 148.181C176.928 148.255 176.86 148.318 176.781 148.366C170.943 151.91 164.877 155.064 158.622 157.806C152.357 160.599 145.914 162.972 139.334 164.909C139.27 164.928 139.204 164.937 139.138 164.937Z" fill="#2B2E3D"/>
<path d="M172.262 118.424C174.551 118.424 176.407 116.568 176.407 114.279C176.407 111.99 174.551 110.134 172.262 110.134C169.973 110.134 168.118 111.99 168.118 114.279C168.118 116.568 169.973 118.424 172.262 118.424Z" fill="#2B2E3D"/>
<path d="M37.6253 156.947C38.5237 156.947 39.2521 156.219 39.2521 155.32C39.2521 154.422 38.5237 153.693 37.6253 153.693C36.7269 153.693 35.9985 154.422 35.9985 155.32C35.9985 156.219 36.7269 156.947 37.6253 156.947Z" fill="#2B2E3D"/>
<path d="M184.196 123.72C185.193 123.72 186.002 122.912 186.002 121.914C186.002 120.917 185.193 120.108 184.196 120.108C183.198 120.108 182.39 120.917 182.39 121.914C182.39 122.912 183.198 123.72 184.196 123.72Z" fill="#2B2E3D"/>
<path d="M17.6412 108.383C19.0527 108.383 20.197 107.239 20.197 105.827C20.197 104.416 19.0527 103.271 17.6412 103.271C16.2297 103.271 15.0854 104.416 15.0854 105.827C15.0854 107.239 16.2297 108.383 17.6412 108.383Z" fill="#2B2E3D"/>
<path d="M179.098 146.778C178.947 146.779 178.8 146.73 178.679 146.64C178.558 146.55 178.47 146.424 178.427 146.279C178.384 146.134 178.389 145.98 178.441 145.838C178.494 145.697 178.59 145.576 178.717 145.495C180.278 144.48 181.771 143.453 183.155 142.442C183.304 142.333 183.491 142.288 183.674 142.316C183.857 142.345 184.021 142.445 184.131 142.595C184.24 142.744 184.285 142.931 184.257 143.114C184.228 143.297 184.128 143.462 183.978 143.571C182.583 144.595 181.06 145.636 179.477 146.665C179.364 146.738 179.232 146.778 179.098 146.778Z" fill="#2B2E3D"/>
<path d="M60.7466 122.73C60.7466 124.749 61.5485 126.685 62.9759 128.112C64.4034 129.54 66.3394 130.342 68.3581 130.342H150.033C152.052 130.342 153.988 129.54 155.415 128.112C156.843 126.685 157.645 124.749 157.645 122.73V68.5327H60.7565L60.7466 122.73Z" fill="#111217"/>
<path d="M87.8686 130.339H150.032C152.051 130.339 153.987 129.537 155.415 128.11C156.842 126.683 157.644 124.747 157.644 122.728V68.5303H60.7559V122.728C60.7559 124.747 61.5578 126.683 62.9852 128.11C64.4127 129.537 66.3487 130.339 68.3674 130.339" fill="#111217"/>
<path d="M150.032 131.04H87.8686C87.6835 131.04 87.5061 130.967 87.3752 130.836C87.2443 130.705 87.1708 130.527 87.1708 130.342C87.1708 130.157 87.2443 129.98 87.3752 129.849C87.5061 129.718 87.6835 129.645 87.8686 129.645H150.032C151.866 129.642 153.623 128.913 154.92 127.617C156.216 126.32 156.945 124.562 156.946 122.729V69.229H61.4536V122.729C61.4552 124.562 62.1841 126.32 63.4802 127.617C64.7764 128.913 66.534 129.642 68.3674 129.645C68.5524 129.645 68.7299 129.718 68.8607 129.849C68.9916 129.98 69.0651 130.157 69.0651 130.342C69.0651 130.527 68.9916 130.705 68.8607 130.836C68.7299 130.967 68.5524 131.04 68.3674 131.04C66.1641 131.037 64.0518 130.161 62.494 128.603C60.9363 127.045 60.0602 124.932 60.0581 122.729V68.5313C60.0581 68.3462 60.1316 68.1687 60.2625 68.0379C60.3933 67.907 60.5708 67.8335 60.7559 67.8335H157.644C157.829 67.8335 158.007 67.907 158.137 68.0379C158.268 68.1687 158.342 68.3462 158.342 68.5313V122.729C158.34 124.932 157.464 127.045 155.906 128.603C154.348 130.161 152.236 131.037 150.032 131.04Z" fill="#323544"/>
<path d="M83.3442 131.042L78.8228 130.99C78.6377 130.99 78.4602 130.916 78.3294 130.785C78.1985 130.655 78.125 130.477 78.125 130.292C78.125 130.107 78.1985 129.929 78.3294 129.799C78.4602 129.668 78.6377 129.594 78.8228 129.594L83.3442 129.646C83.5293 129.646 83.7067 129.72 83.8376 129.85C83.9684 129.981 84.042 130.159 84.042 130.344C84.042 130.529 83.9684 130.706 83.8376 130.837C83.7067 130.968 83.5293 131.042 83.3442 131.042Z" fill="#323544"/>
<path d="M150.033 58.5396H68.3576C66.3389 58.5396 64.4029 59.3415 62.9754 60.7689C61.548 62.1963 60.7461 64.1324 60.7461 66.151V68.5314H157.634V66.151C157.634 64.1341 156.834 62.1996 155.408 60.7724C153.983 59.3453 152.05 58.5422 150.033 58.5396Z" fill="#111217"/>
<path d="M157.643 69.2301H60.7544C60.5693 69.2301 60.3919 69.1566 60.261 69.0258C60.1302 68.8949 60.0566 68.7174 60.0566 68.5324V66.152C60.0593 63.9491 60.9356 61.8371 62.4933 60.2794C64.051 58.7217 66.163 57.8454 68.3659 57.8428H150.033C152.236 57.8454 154.348 58.7217 155.906 60.2794C157.463 61.8371 158.34 63.9491 158.342 66.152V68.5324C158.343 68.6242 158.325 68.7152 158.289 68.8002C158.254 68.8851 158.203 68.9622 158.138 69.027C158.073 69.0919 157.995 69.1433 157.91 69.1781C157.825 69.213 157.734 69.2306 157.643 69.2301ZM61.4442 67.8346H156.937V66.152C156.935 64.3208 156.207 62.565 154.913 61.2691C153.619 59.9733 151.864 59.243 150.033 59.2383H68.3579C66.5249 59.2404 64.7676 59.9695 63.4715 61.2656C62.1754 62.5617 61.4463 64.319 61.4442 66.152V67.8346Z" fill="#323544"/>
<path d="M138.124 66.21H134.408C134.223 66.21 134.045 66.1364 133.914 66.0056C133.783 65.8747 133.71 65.6973 133.71 65.5122C133.71 65.3272 133.783 65.1497 133.914 65.0188C134.045 64.888 134.223 64.8145 134.408 64.8145H138.124C138.309 64.8145 138.486 64.888 138.617 65.0188C138.748 65.1497 138.822 65.3272 138.822 65.5122C138.822 65.6973 138.748 65.8747 138.617 66.0056C138.486 66.1364 138.309 66.21 138.124 66.21Z" fill="#323544"/>
<path d="M145.095 61.7925H141.377V65.5105H145.095V61.7925Z" fill="#CB730B"/>
<path d="M145.095 66.2092H141.377C141.192 66.2092 141.014 66.1357 140.884 66.0049C140.753 65.874 140.679 65.6965 140.679 65.5115V61.7935C140.679 61.6084 140.753 61.4309 140.884 61.3001C141.014 61.1692 141.192 61.0957 141.377 61.0957H145.095C145.28 61.0957 145.458 61.1692 145.588 61.3001C145.719 61.4309 145.793 61.6084 145.793 61.7935V65.5035C145.794 65.5958 145.777 65.6874 145.742 65.773C145.707 65.8586 145.656 65.9364 145.591 66.0021C145.526 66.0677 145.449 66.1198 145.364 66.1554C145.279 66.1909 145.187 66.2092 145.095 66.2092ZM142.075 64.8137H144.397V62.4912H142.075V64.8137Z" fill="#323544"/>
<path d="M152.298 66.2097C152.207 66.2107 152.116 66.1936 152.032 66.1594C151.947 66.1251 151.871 66.0745 151.806 66.0104L148.088 62.2943C147.957 62.1622 147.884 61.9834 147.885 61.7974C147.886 61.6114 147.96 61.4334 148.093 61.3025C148.225 61.1717 148.404 61.0987 148.59 61.0996C148.776 61.1006 148.954 61.1753 149.084 61.3075L152.803 65.0236C152.901 65.1213 152.968 65.2461 152.995 65.3821C153.023 65.518 153.009 65.6591 152.956 65.7873C152.903 65.9154 152.813 66.025 152.698 66.102C152.582 66.179 152.447 66.22 152.308 66.2197L152.298 66.2097Z" fill="#323544"/>
<path d="M148.58 66.2097C148.489 66.2107 148.398 66.1936 148.314 66.1594C148.229 66.1251 148.152 66.0745 148.088 66.0104C148.023 65.9457 147.971 65.8688 147.936 65.7842C147.9 65.6995 147.882 65.6087 147.882 65.517C147.882 65.4253 147.9 65.3345 147.936 65.2498C147.971 65.1651 148.023 65.0882 148.088 65.0236L151.806 61.3075C151.87 61.2421 151.947 61.19 152.032 61.1544C152.117 61.1187 152.208 61.1001 152.3 61.0996C152.393 61.0992 152.484 61.1168 152.569 61.1517C152.654 61.1865 152.732 61.2377 152.797 61.3025C152.863 61.3673 152.915 61.4444 152.951 61.5293C152.986 61.6142 153.005 61.7053 153.005 61.7974C153.006 61.8895 152.988 61.9808 152.953 62.0661C152.918 62.1513 152.867 62.2289 152.802 62.2943L149.084 66.0104C149.018 66.0759 148.939 66.1273 148.853 66.1616C148.766 66.1958 148.673 66.2122 148.58 66.2097Z" fill="#323544"/>
<path d="M83.6134 77.3618H71.1077C69.1071 77.3618 67.4854 78.9836 67.4854 80.9842V93.4899C67.4854 95.4905 69.1071 97.1122 71.1077 97.1122H83.6134C85.614 97.1122 87.2358 95.4905 87.2358 93.4899V80.9842C87.2358 78.9836 85.614 77.3618 83.6134 77.3618Z" fill="#2B2E3D"/>
<path d="M150.775 119.071H114.785C113.109 119.071 111.75 120.43 111.75 122.106V122.544C111.75 124.22 113.109 125.578 114.785 125.578H150.775C152.451 125.578 153.809 124.22 153.809 122.544V122.106C153.809 120.43 152.451 119.071 150.775 119.071Z" fill="#2B2E3D"/>
<path d="M150.775 107.686H114.785C113.109 107.686 111.75 109.045 111.75 110.72V111.159C111.75 112.835 113.109 114.193 114.785 114.193H150.775C152.451 114.193 153.809 112.835 153.809 111.159V110.72C153.809 109.045 152.451 107.686 150.775 107.686Z" fill="#2B2E3D"/>
<path d="M150.775 96.3008H114.785C113.109 96.3008 111.75 97.6593 111.75 99.335V99.7736C111.75 101.449 113.109 102.808 114.785 102.808H150.775C152.451 102.808 153.809 101.449 153.809 99.7736V99.335C153.809 97.6593 152.451 96.3008 150.775 96.3008Z" fill="#2B2E3D"/>
<path d="M47.8187 46.4037C47.8187 46.4037 45.7693 42.59 49.5571 39.5338C53.3449 36.4777 59.3556 38.5749 59.3556 38.5749C59.3556 38.5749 59.7902 43.3037 56.6921 44.2088C56.6921 44.2088 55.9784 42.7136 54.6148 43.5948C53.2512 44.4759 55.1172 45.3491 55.1172 45.3491C55.1172 45.3491 52.6192 48.6764 47.8187 46.4037Z" fill="#111217"/>
<path d="M51.0148 47.892C49.8011 47.871 48.6075 47.5781 47.522 47.0347C47.3866 46.9713 47.2754 46.8657 47.205 46.7337C47.1811 46.6899 44.9383 42.3718 49.1229 38.9926C53.1599 35.7291 59.33 37.8264 59.5912 37.9161C59.7176 37.9611 59.8284 38.0414 59.9107 38.1473C59.993 38.2533 60.0433 38.3806 60.0557 38.5142C60.0756 38.7295 60.5002 43.8291 56.8919 44.8817C56.7329 44.9281 56.5626 44.9166 56.4114 44.849C56.2602 44.7814 56.1379 44.6623 56.0665 44.5129C55.9588 44.2979 55.7788 44.1278 55.5582 44.0324C55.4594 44.018 55.3587 44.024 55.2623 44.0501C55.166 44.0761 55.076 44.1217 54.998 44.1839C54.943 44.2187 54.8916 44.2587 54.8445 44.3035C55.0081 44.4762 55.202 44.6174 55.4166 44.7202C55.5104 44.7644 55.5931 44.8288 55.6589 44.9089C55.7247 44.9889 55.7719 45.0826 55.7971 45.1832C55.8223 45.2837 55.8248 45.3885 55.8045 45.4902C55.7842 45.5918 55.7416 45.6877 55.6798 45.7708C55.1011 46.4398 54.3846 46.9757 53.5794 47.3419C52.7742 47.708 51.8993 47.8957 51.0148 47.892ZM48.3434 45.8765C51.268 47.1663 53.1659 46.1616 54.0291 45.4578C53.6961 45.1872 53.4816 44.7975 53.431 44.3713C53.4051 44.0065 53.5267 43.4762 54.2444 43.0117C54.4867 42.8362 54.7647 42.7163 55.0586 42.6604C55.3525 42.6046 55.6551 42.6143 55.9449 42.6887C56.3402 42.8083 56.6921 43.0404 56.9577 43.3566C58.5346 42.5213 58.6941 40.117 58.6861 39.1003C57.2786 38.7135 52.8688 37.7626 50.004 40.0771C47.1393 42.3917 48.0224 45.1149 48.3434 45.8765Z" fill="#323544"/>
<path d="M44.7512 51.6542C44.6724 51.6538 44.5943 51.6403 44.5199 51.6143C44.3455 51.5529 44.2025 51.4248 44.1222 51.2582C44.0418 51.0916 44.0307 50.8999 44.0913 50.7252C44.2109 50.3843 47.1136 42.3302 54.9663 39.8841C55.1409 39.8358 55.3274 39.8574 55.4864 39.9442C55.6454 40.031 55.7645 40.1762 55.8183 40.3492C55.8722 40.5222 55.8567 40.7093 55.775 40.871C55.6934 41.0327 55.5521 41.1564 55.381 41.2158C48.2041 43.4506 45.437 51.1099 45.4131 51.1837C45.3654 51.3212 45.276 51.4404 45.1574 51.5248C45.0387 51.6091 44.8967 51.6543 44.7512 51.6542Z" fill="#111217"/>
<path d="M129.268 34.5348C127.356 36.1436 128.072 39.4808 130.02 41.0478C131.968 42.6147 134.617 42.8958 137.105 43.1191L140.779 43.4461C138.279 41.6638 138.493 37.864 136.85 35.2724C135.416 33.0077 132.428 31.8554 129.844 32.5751" fill="#111217"/>
<path d="M140.781 44.1428H140.717L137.043 43.8159C134.69 43.6065 131.76 43.3454 129.581 41.593C128.934 41.0531 128.409 40.3818 128.041 39.6235C127.673 38.8653 127.471 38.0376 127.448 37.1952C127.434 35.8973 127.92 34.765 128.819 34.0054C128.961 33.8862 129.144 33.8282 129.329 33.844C129.513 33.8599 129.684 33.9485 129.803 34.0902C129.922 34.2319 129.98 34.4151 129.964 34.5996C129.948 34.7841 129.86 34.9548 129.718 35.074C129.424 35.3364 129.193 35.6614 129.042 36.0251C128.89 36.3888 128.822 36.7818 128.843 37.1752C128.861 37.8134 129.013 38.4405 129.291 39.0151C129.569 39.5898 129.966 40.0988 130.456 40.5085C132.306 41.9957 135.001 42.2349 137.166 42.4283L139.012 42.5918C138.299 41.5153 137.922 40.2254 137.553 38.9635C137.214 37.8052 136.865 36.6091 136.259 35.6521C134.993 33.6586 132.316 32.6179 130.031 33.2598C129.942 33.2885 129.847 33.2988 129.754 33.2901C129.66 33.2814 129.57 33.2539 129.487 33.2093C129.404 33.1646 129.331 33.1038 129.273 33.0303C129.214 32.9569 129.171 32.8724 129.146 32.7819C129.121 32.6913 129.114 32.5967 129.127 32.5036C129.139 32.4105 129.17 32.3208 129.218 32.2399C129.266 32.1591 129.329 32.0888 129.405 32.0331C129.481 31.9775 129.567 31.9377 129.658 31.9162C131.104 31.5362 132.633 31.6205 134.028 32.1572C135.424 32.6938 136.615 33.6556 137.433 34.9065C138.143 36.0289 138.522 37.3208 138.887 38.5707C139.395 40.3111 139.884 41.9598 141.177 42.8829C141.297 42.9684 141.387 43.0897 141.434 43.2294C141.481 43.3692 141.482 43.5201 141.438 43.6607C141.394 43.8012 141.306 43.9242 141.188 44.0118C141.069 44.0995 140.926 44.1475 140.779 44.1488L140.781 44.1428Z" fill="#323544"/>
<path d="M135.171 40.3347C135.04 40.3352 134.911 40.2978 134.801 40.2271C133.158 39.1772 131.745 37.8058 130.647 36.1956C129.548 34.5853 128.787 32.7694 128.409 30.8572C128.388 30.7656 128.385 30.6706 128.401 30.5779C128.417 30.4852 128.452 30.3967 128.503 30.3178C128.554 30.2388 128.621 30.1711 128.699 30.1186C128.777 30.0661 128.865 30.03 128.958 30.0123C129.05 29.9947 129.145 29.996 129.237 30.016C129.329 30.0361 129.416 30.0746 129.493 30.1291C129.569 30.1836 129.634 30.2531 129.683 30.3333C129.733 30.4136 129.765 30.503 129.779 30.5961C130.121 32.3197 130.807 33.9565 131.798 35.4081C132.788 36.8596 134.062 38.096 135.542 39.0429C135.67 39.1235 135.768 39.2435 135.822 39.3847C135.876 39.5259 135.882 39.6808 135.84 39.826C135.798 39.9712 135.711 40.099 135.59 40.19C135.469 40.281 135.322 40.3304 135.171 40.3307V40.3347Z" fill="#111217"/>
<path d="M117.277 91.7872L113.438 92.5527C109.497 93.3338 105.408 92.5197 102.068 90.2891C98.7269 88.0585 96.4077 84.5937 95.6189 80.655L93.0631 67.8343C92.2819 63.8946 93.0955 59.806 95.3253 56.4655C97.555 53.125 101.019 50.8054 104.957 50.0156L108.794 49.2501C112.734 48.469 116.823 49.2825 120.163 51.5123C123.504 53.742 125.823 57.2059 126.613 61.1438L129.171 73.9645C129.953 77.9048 129.14 81.9944 126.91 85.3359C124.68 88.6773 121.216 90.9975 117.277 91.7872ZM106.009 55.3046C103.472 55.8128 101.239 57.3072 99.8027 59.4598C98.3659 61.6124 97.842 64.2472 98.3461 66.7857L100.904 79.6064C101.412 82.144 102.906 84.3763 105.059 85.8131C107.212 87.2499 109.846 87.7738 112.385 87.2697L116.223 86.5042C118.76 85.996 120.992 84.5016 122.429 82.349C123.866 80.1964 124.39 77.5616 123.886 75.0231L121.326 62.2024C120.818 59.6656 119.324 57.434 117.172 55.9973C115.021 54.5606 112.387 54.0362 109.849 54.5391L106.009 55.3046Z" fill="#CB730B"/>
<path d="M110.471 93.5449C106.807 93.5383 103.258 92.2641 100.426 89.9385C97.5941 87.6129 95.6541 84.3791 94.9353 80.786L92.3795 67.9752C91.5619 63.8542 92.4126 59.5772 94.7448 56.0827C97.0769 52.5881 100.7 50.1615 104.819 49.3352L108.659 48.5697C112.781 47.7509 117.06 48.6012 120.556 50.9338C124.053 53.2664 126.48 56.8909 127.307 61.0116L129.863 73.8324C130.68 77.9536 129.829 82.2306 127.496 85.725C125.164 89.2195 121.54 91.6461 117.421 92.4724L113.583 93.2359C112.559 93.4419 111.516 93.5454 110.471 93.5449ZM111.757 49.6582C110.807 49.6586 109.858 49.7527 108.926 49.9393L105.087 50.7048C101.332 51.4594 98.0306 53.6717 95.905 56.8568C93.7794 60.0418 93.0034 63.9398 93.7471 67.6961L96.3029 80.5168C97.0565 84.2735 99.2695 87.5778 102.456 89.7048C105.643 91.8318 109.544 92.6077 113.302 91.8623L117.14 91.1028L117.277 91.7866L117.14 91.1028C120.897 90.3501 124.201 88.1376 126.328 84.9509C128.455 81.7641 129.231 77.8636 128.485 74.1055L125.929 61.2847C125.272 58.0091 123.501 55.0618 120.918 52.9427C118.335 50.8236 115.098 49.6632 111.757 49.6582ZM110.461 88.1582C108.046 88.1505 105.707 87.3085 103.84 85.7748C101.974 84.2411 100.694 82.1098 100.218 79.7413L97.6625 66.9206C97.1231 64.2006 97.6848 61.3777 99.2243 59.0713C100.764 56.765 103.155 55.1635 105.874 54.6182L109.712 53.8527C112.432 53.3139 115.254 53.8758 117.56 55.4151C119.867 56.9545 121.468 59.3457 122.014 62.0642L124.572 74.885C125.111 77.605 124.55 80.4278 123.01 82.7342C121.471 85.0406 119.079 86.6421 116.36 87.1874L112.521 87.9529C111.843 88.0892 111.153 88.158 110.461 88.1582ZM106.147 55.9878C103.791 56.4599 101.719 57.8474 100.384 59.8459C99.05 61.8443 98.5629 64.2904 99.0301 66.6475L101.59 79.4682C102.062 81.8243 103.449 83.8969 105.448 85.2311C107.446 86.5654 109.892 87.0524 112.25 86.5853L116.089 85.8198C118.445 85.3467 120.517 83.9586 121.851 81.9599C123.185 79.9612 123.671 77.5151 123.204 75.1581L120.648 62.3374C120.176 59.9812 118.788 57.9088 116.789 56.5749C114.79 55.241 112.344 54.7545 109.987 55.2223L106.147 55.9878Z" fill="#323544"/>
<path d="M127.218 69.7457L96.5976 75.8532C93.0895 76.5529 90.8128 79.964 91.5126 83.4722L96.2501 107.224C96.9498 110.732 100.361 113.009 103.869 112.309L134.489 106.202C137.998 105.502 140.274 102.091 139.574 98.583L134.837 74.8308C134.137 71.3227 130.726 69.046 127.218 69.7457Z" fill="#111217"/>
<path d="M128.49 69.6265C129.987 69.6284 131.437 70.1485 132.594 71.0985C133.75 72.0485 134.542 73.3698 134.835 74.8377L139.572 98.5972C139.906 100.282 139.558 102.03 138.604 103.458C137.649 104.885 136.167 105.876 134.483 106.211L103.867 112.317C103.447 112.4 103.021 112.442 102.593 112.443C101.096 112.441 99.6463 111.921 98.4895 110.971C97.3327 110.021 96.5405 108.699 96.2476 107.231L91.5109 83.4779C91.1779 81.7936 91.5274 80.0461 92.4826 78.6195C93.4377 77.1929 94.9204 76.2041 96.6045 75.8704L127.226 69.764C127.645 69.6796 128.071 69.6368 128.498 69.6364L128.49 69.6265ZM128.498 68.2409C127.979 68.2412 127.461 68.2927 126.953 68.3944L96.3313 74.5008C94.2841 74.9098 92.4831 76.115 91.3243 77.8515C90.1654 79.5879 89.7434 81.7135 90.1512 83.761L94.888 107.515C95.0893 108.529 95.4887 109.493 96.0632 110.353C96.6378 111.213 97.3763 111.951 98.2364 112.525C99.0965 113.099 100.061 113.498 101.076 113.699C102.09 113.899 103.134 113.898 104.148 113.695L134.77 107.588C136.816 107.177 138.615 105.972 139.774 104.236C140.932 102.5 141.355 100.375 140.95 98.3281L136.205 74.5666C135.847 72.7848 134.885 71.1812 133.482 70.0269C132.078 68.8725 130.319 68.2381 128.502 68.231L128.498 68.2409Z" fill="#323544"/>
<path d="M105.849 108.13C105.015 108.297 104.156 108.297 103.322 108.132C102.488 107.966 101.694 107.638 100.986 107.166C100.279 106.693 99.6712 106.086 99.1983 105.379C98.7253 104.672 98.3963 103.879 98.23 103.045L93.4932 79.2931C93.3783 78.7132 93.3428 78.1203 93.3876 77.5308C92.5988 78.2834 92.0132 79.2233 91.6852 80.2631C91.3573 81.3028 91.2975 82.4086 91.5116 83.4776L96.2484 107.231C96.5848 108.915 97.5761 110.397 99.0045 111.351C100.433 112.304 102.181 112.652 103.866 112.317L134.483 106.21C135.867 105.932 137.122 105.209 138.058 104.152C138.994 103.095 139.558 101.761 139.667 100.353C138.784 101.202 137.677 101.782 136.477 102.024L105.849 108.13Z" fill="#323544"/>
<path d="M117.826 88.2943L116.853 83.416L111.889 84.4128L112.867 89.321C112.172 90.0194 111.721 90.9232 111.58 91.8984C111.438 92.8736 111.615 93.8684 112.083 94.7353C112.552 95.6022 113.287 96.2952 114.18 96.7115C115.073 97.1278 116.077 97.2453 117.042 97.0466C118.007 96.8479 118.883 96.3436 119.539 95.6083C120.195 94.8731 120.597 93.9461 120.684 92.9646C120.772 91.9832 120.542 90.9995 120.027 90.1594C119.512 89.3193 118.74 88.6674 117.826 88.3003V88.2943Z" fill="#323544"/>
<path d="M116.852 83.4156L117.825 88.2939C118.737 88.6649 119.505 89.3193 120.016 90.1605C120.527 91.0017 120.754 91.985 120.663 92.965C120.572 93.945 120.168 94.8697 119.511 95.6025C118.854 96.3352 117.978 96.8371 117.014 97.0338C116.717 97.0923 116.415 97.1217 116.113 97.1215C115.21 97.1182 114.328 96.8483 113.578 96.3457C112.828 95.8431 112.243 95.1303 111.896 94.2965C111.549 93.4627 111.457 92.5452 111.63 91.6589C111.802 90.7727 112.233 89.9572 112.867 89.3147L111.888 84.4065L116.852 83.4097V83.4156ZM116.852 82.0142C116.76 82.0147 116.668 82.024 116.577 82.0421L111.613 83.0389C111.251 83.1115 110.932 83.3251 110.727 83.6328C110.521 83.9404 110.447 84.3169 110.519 84.6796L111.358 88.9199C110.619 89.8879 110.192 91.0586 110.136 92.2755C110.08 93.4923 110.397 94.6973 111.044 95.7291C111.692 96.761 112.639 97.5707 113.759 98.0497C114.879 98.5287 116.118 98.6544 117.312 98.4097C118.505 98.1651 119.595 97.562 120.436 96.681C121.278 95.7999 121.83 94.683 122.019 93.4797C122.208 92.2763 122.025 91.0439 121.495 89.9472C120.965 88.8505 120.112 87.942 119.051 87.343L118.214 83.1445C118.151 82.8278 117.981 82.5427 117.731 82.3377C117.482 82.1327 117.169 82.0204 116.846 82.0201L116.852 82.0142Z" fill="#323544"/>
<path d="M114.387 85.2147L102.234 87.6387L104.236 97.678L116.389 95.254L114.387 85.2147Z" fill="#111217"/>
<path d="M104.233 98.3809C104.072 98.3809 103.916 98.325 103.791 98.2229C103.666 98.1208 103.581 97.9787 103.549 97.8207L101.556 87.7811C101.52 87.5997 101.558 87.4116 101.66 87.258C101.763 87.1044 101.923 86.9978 102.104 86.9617L114.265 84.5375C114.355 84.5195 114.447 84.5194 114.537 84.5372C114.627 84.555 114.713 84.5904 114.789 84.6413C114.865 84.6922 114.931 84.7577 114.982 84.834C115.033 84.9102 115.068 84.9958 115.086 85.0857L117.08 95.1234C117.098 95.2134 117.098 95.306 117.08 95.3959C117.062 95.4859 117.027 95.5715 116.976 95.6478C116.925 95.7241 116.859 95.7896 116.783 95.8405C116.707 95.8915 116.621 95.9269 116.531 95.9448L104.381 98.369C104.332 98.3773 104.282 98.3813 104.233 98.3809ZM103.053 88.1937L104.779 96.8638L115.563 94.7127L113.836 86.0367L103.053 88.1937Z" fill="#323544"/>
<path d="M96.624 106.339C102.46 105.175 106.2 99.2636 104.978 93.136C103.756 87.0084 98.0341 82.9846 92.198 84.1487C86.3619 85.3127 82.6216 91.2238 83.8438 97.3514C85.066 103.479 90.7879 107.503 96.624 106.339Z" fill="#111217"/>
<path d="M94.612 107.239C89.2054 107.239 84.3071 103.232 83.1628 97.4905C82.5278 94.4025 83.1098 91.1885 84.7876 88.5194C85.5914 87.225 86.652 86.1092 87.9039 85.2407C89.1557 84.3721 90.5723 83.7694 92.0662 83.4696C98.2682 82.2316 104.371 86.5099 105.666 93.005C106.301 96.0932 105.718 99.3073 104.04 101.976C103.236 103.271 102.176 104.386 100.925 105.255C99.6731 106.124 98.2567 106.726 96.7631 107.026C96.0549 107.168 95.3343 107.24 94.612 107.239ZM94.2133 84.6498C93.582 84.6497 92.9523 84.7118 92.3333 84.8353C91.0254 85.0994 89.7854 85.6288 88.6899 86.3907C87.5944 87.1525 86.6667 88.1307 85.9638 89.265C84.4766 91.6311 83.9623 94.4807 84.5284 97.2174C85.5392 102.295 89.8553 105.844 94.608 105.844C95.2385 105.844 95.8676 105.782 96.4859 105.658C97.7955 105.396 99.0373 104.867 100.135 104.105C101.232 103.344 102.161 102.365 102.865 101.23C104.351 98.8632 104.866 96.0134 104.301 93.2761C103.278 88.1984 98.964 84.6498 94.2133 84.6498Z" fill="#323544"/>
<path d="M90.604 98.8369C92.0915 98.8369 93.2973 97.631 93.2973 96.1435C93.2973 94.656 92.0915 93.4502 90.604 93.4502C89.1165 93.4502 87.9106 94.656 87.9106 96.1435C87.9106 97.631 89.1165 98.8369 90.604 98.8369Z" fill="#111217"/>
<path d="M90.5962 99.5374C89.955 99.5354 89.3275 99.3515 88.7866 99.0071C88.2457 98.6627 87.8136 98.1719 87.5405 97.5917C87.2674 97.0115 87.1645 96.3658 87.2438 95.7294C87.323 95.0931 87.5812 94.4923 87.9883 93.9969C88.3954 93.5014 88.9346 93.1316 89.5435 92.9304C90.1524 92.7292 90.8058 92.7049 91.428 92.8602C92.0501 93.0156 92.6154 93.3443 93.0582 93.8081C93.501 94.2719 93.8031 94.8518 93.9295 95.4805C94.0166 95.9172 94.0168 96.3668 93.9301 96.8036C93.8434 97.2403 93.6714 97.6557 93.424 98.026C93.1767 98.3963 92.8588 98.7142 92.4885 98.9616C92.1182 99.209 91.7028 99.3809 91.2661 99.4677C91.0457 99.5136 90.8213 99.5369 90.5962 99.5374ZM90.6082 94.1548C90.4743 94.1549 90.3408 94.1683 90.2095 94.1946C89.8886 94.2595 89.5886 94.4023 89.336 94.6106C89.0834 94.8188 88.886 95.0861 88.7612 95.3887C88.6364 95.6914 88.5881 96.0201 88.6204 96.3459C88.6528 96.6716 88.7649 96.9844 88.9468 97.2566C89.1287 97.5287 89.3749 97.7519 89.6635 97.9064C89.9521 98.0609 90.2744 98.1419 90.6017 98.1423C90.9291 98.1427 91.2515 98.0625 91.5405 97.9088C91.8296 97.755 92.0763 97.5325 92.2589 97.2608C92.4056 97.0432 92.5074 96.7985 92.5584 96.5411C92.6094 96.2837 92.6086 96.0187 92.5559 95.7616C92.4665 95.3094 92.2232 94.9022 91.8673 94.6093C91.5115 94.3163 91.0651 94.1557 90.6042 94.1548H90.6082Z" fill="#323544"/>
<path d="M104.817 93.0467C104.644 93.0459 104.478 92.9811 104.35 92.8648C104.223 92.7485 104.143 92.589 104.126 92.4171C104.109 92.2452 104.157 92.0732 104.259 91.9343C104.362 91.7954 104.512 91.6995 104.682 91.6652L115.247 89.5579C115.339 89.5363 115.433 89.5332 115.526 89.549C115.618 89.5647 115.706 89.5989 115.785 89.6495C115.864 89.7001 115.932 89.7661 115.985 89.8435C116.038 89.921 116.075 90.0082 116.093 90.1002C116.111 90.1921 116.111 90.2868 116.092 90.3786C116.073 90.4704 116.035 90.5574 115.982 90.6344C115.929 90.7114 115.86 90.7769 115.781 90.8269C115.702 90.877 115.613 90.9105 115.521 90.9255L104.955 93.0328C104.909 93.0421 104.863 93.0468 104.817 93.0467Z" fill="#323544"/>
<path d="M85.7625 109.198C83.9942 106.232 83.9863 104.057 85.8642 102.927C87.7422 101.796 90.6947 106.027 90.6947 106.027C90.6947 106.027 93.7269 105.379 95.4274 100.758C95.4274 100.758 98.97 97.3286 99.5721 103.15C99.5721 103.15 102.844 102.041 102.08 106.212C102.08 106.212 105.344 105.568 104.339 110.199C103.334 114.83 93.4538 122.107 85.7625 109.198Z" fill="#006C8F"/>
<path d="M95.8084 117.165C93.0553 117.165 88.9206 115.873 85.1567 109.557C82.4793 105.06 84.2217 103.098 85.4996 102.329C87.5231 101.111 90.041 104.019 90.9481 105.201C91.7555 104.853 93.5796 103.742 94.7678 100.516C94.8036 100.418 94.8616 100.33 94.9372 100.257C95.1127 100.088 96.6896 98.6186 98.2446 99.1848C99.2414 99.5476 99.8674 100.58 100.16 102.327C100.496 102.285 100.836 102.311 101.161 102.404C101.486 102.496 101.789 102.653 102.052 102.865C102.686 103.411 102.959 104.3 102.87 105.51C103.451 105.573 103.994 105.831 104.411 106.242C105.222 107.069 105.425 108.451 105.009 110.347C104.411 113.054 101.267 116.389 97.198 117.053C96.7385 117.127 96.2738 117.165 95.8084 117.165ZM86.3569 108.842C90.2025 115.295 94.2554 116.12 96.9787 115.676C100.368 115.123 103.159 112.322 103.651 110.052C103.946 108.69 103.864 107.685 103.42 107.227C102.975 106.768 102.212 106.896 102.202 106.898C102.091 106.918 101.976 106.91 101.869 106.876C101.761 106.842 101.663 106.783 101.583 106.703C101.503 106.623 101.443 106.525 101.409 106.418C101.375 106.31 101.367 106.196 101.386 106.085C101.586 105.002 101.5 104.235 101.143 103.922C100.693 103.523 99.7956 103.808 99.7876 103.812C99.6879 103.844 99.5822 103.854 99.4782 103.84C99.3743 103.826 99.2747 103.789 99.1869 103.732C99.0992 103.674 99.0254 103.598 98.971 103.509C98.9166 103.419 98.8829 103.318 98.8726 103.214C98.7131 101.679 98.3104 100.686 97.7661 100.489C97.2219 100.291 96.3607 100.863 96.0158 101.154C94.1896 105.939 90.972 106.671 90.8324 106.701C90.6982 106.729 90.5587 106.717 90.4311 106.667C90.3035 106.617 90.1935 106.53 90.1148 106.417C89.0721 104.928 87.1124 102.977 86.2173 103.515C84.7361 104.408 84.7839 106.198 86.3549 108.834L86.3569 108.842Z" fill="#323544"/>
<path d="M99.5722 103.151C99.5722 103.151 99.7556 106.176 97.4092 107.537L99.5722 103.151Z" fill="#006C8F"/>
<path d="M97.4035 108.228C97.2498 108.229 97.1003 108.178 96.9781 108.085C96.856 107.992 96.7681 107.861 96.7281 107.712C96.6881 107.564 96.6983 107.406 96.7569 107.264C96.8156 107.122 96.9195 107.003 97.0526 106.926C98.9864 105.808 98.8708 103.216 98.8688 103.191C98.8579 103.005 98.921 102.824 99.0442 102.685C99.1674 102.547 99.3406 102.463 99.5256 102.452C99.7107 102.441 99.8925 102.504 100.031 102.627C100.17 102.751 100.253 102.924 100.264 103.109C100.264 103.248 100.442 106.58 97.7543 108.135C97.6477 108.196 97.5266 108.228 97.4035 108.228Z" fill="#323544"/>
<path d="M102.079 106.212C102.079 106.212 102.033 109.003 99.687 110.588L102.079 106.212Z" fill="#006C8F"/>
<path d="M99.6834 111.286C99.5333 111.287 99.3867 111.241 99.2653 111.153C99.1438 111.064 99.0541 110.939 99.0093 110.796C98.9645 110.653 98.9671 110.499 99.0168 110.357C99.0664 110.216 99.1603 110.094 99.2847 110.01C101.31 108.64 101.372 106.222 101.374 106.2C101.377 106.015 101.453 105.839 101.586 105.71C101.719 105.581 101.898 105.51 102.083 105.513C102.268 105.516 102.444 105.592 102.573 105.725C102.702 105.858 102.772 106.037 102.769 106.222C102.769 106.352 102.688 109.394 100.066 111.166C99.9533 111.243 99.8201 111.285 99.6834 111.286Z" fill="#323544"/>
<path d="M134.926 92.9586C134.764 92.9586 134.607 92.9018 134.482 92.798C134.357 92.6943 134.272 92.5501 134.243 92.3905L131.452 77.5183C131.419 77.3369 131.459 77.1498 131.563 76.998C131.668 76.8461 131.828 76.7417 132.01 76.7078C132.191 76.6738 132.378 76.7129 132.531 76.8166C132.683 76.9203 132.788 77.0801 132.823 77.2612L135.614 92.1333C135.648 92.3152 135.608 92.503 135.504 92.6556C135.399 92.8081 135.238 92.9128 135.056 92.9467C135.013 92.9556 134.97 92.9596 134.926 92.9586Z" fill="#323544"/>
<path d="M135.973 98.6525C135.808 98.6524 135.648 98.5939 135.522 98.4873C135.396 98.3808 135.312 98.233 135.285 98.0703L134.82 95.2793C134.802 95.1874 134.801 95.0927 134.82 95.0007C134.839 94.9088 134.876 94.8215 134.929 94.7442C134.982 94.6669 135.05 94.601 135.129 94.5506C135.208 94.5002 135.297 94.4663 135.389 94.4509C135.482 94.4355 135.576 94.4389 135.668 94.4609C135.759 94.4829 135.845 94.5231 135.92 94.579C135.995 94.6349 136.059 94.7055 136.106 94.7864C136.153 94.8674 136.184 94.957 136.196 95.0501L136.66 97.8411C136.69 98.0226 136.646 98.2084 136.539 98.3579C136.432 98.5073 136.27 98.6082 136.088 98.6385C136.05 98.6471 136.012 98.6517 135.973 98.6525Z" fill="#323544"/>
<path d="M71.686 90.2815C68.8192 87.1037 64.6925 85.5567 60.6255 85.0982C54.1767 84.3905 47.6955 86.1105 42.4461 89.9226C36.3497 94.3444 32.1293 101.374 30.0041 108.969C29.0003 112.633 28.3986 116.395 28.2099 120.189C28.0412 123.502 28.1078 126.823 28.4093 130.127C34.6233 134.071 44.5932 138.52 56.1699 142.244C60.9984 143.797 65.6733 145.085 70.0153 146.088C67.5214 141.042 67.7227 134.898 69.0185 129.302C69.1401 128.786 69.2677 128.273 69.4053 127.769C71.1297 121.431 73.9905 115.488 75.2923 109.029C76.5942 102.57 76.008 95.076 71.686 90.2815Z" fill="#006C8F"/>
<path d="M57.7547 84.9268C58.712 84.9265 59.6685 84.9811 60.6195 85.0903C64.6864 85.5568 68.8131 87.1038 71.6799 90.2736C76.0079 95.0682 76.5941 102.55 75.2962 109.013C73.9984 115.476 71.1336 121.417 69.4092 127.753C69.2716 128.257 69.144 128.77 69.0224 129.286C67.7206 134.882 67.5193 141.026 70.0192 146.072C65.6772 145.075 61.0023 143.781 56.1738 142.228C44.5971 138.504 34.6272 134.055 28.4132 130.111C28.1117 126.808 28.0451 123.487 28.2138 120.173C28.4025 116.379 29.0042 112.617 30.008 108.953C32.1332 101.358 36.3536 94.3286 42.45 89.9068C46.905 86.6788 52.2631 84.935 57.7647 84.9229L57.7547 84.9268ZM57.7647 83.5273C51.9693 83.5481 46.3264 85.386 41.6306 88.7824C35.6239 93.1384 31.0188 100.17 28.6723 108.583C27.6431 112.344 27.0267 116.207 26.8342 120.102C26.6622 123.481 26.7288 126.867 27.0336 130.237C27.0525 130.451 27.1204 130.657 27.2321 130.841C27.3437 131.024 27.4962 131.179 27.6775 131.294C34.2444 135.462 44.4814 139.934 55.7591 143.562C60.5158 145.091 65.2127 146.395 69.7142 147.438C69.9718 147.497 70.2411 147.482 70.4906 147.395C70.7402 147.308 70.9598 147.151 71.1237 146.944C71.2877 146.736 71.3894 146.486 71.4169 146.223C71.4444 145.96 71.3967 145.695 71.2792 145.458C68.7094 140.261 69.3813 133.969 70.396 129.607C70.5156 129.097 70.6412 128.598 70.7708 128.124C71.4845 125.5 72.4215 122.879 73.3286 120.349C74.5965 116.798 75.9103 113.128 76.6798 109.294C77.4035 105.684 77.5111 102.058 76.9888 98.8042C76.3768 94.9805 74.9434 91.7987 72.7285 89.3466C69.172 85.4053 64.2737 84.1035 60.7929 83.7048C59.789 83.589 58.7792 83.5311 57.7687 83.5313L57.7647 83.5273Z" fill="#323544"/>
<path d="M41.4751 131.391C38.7699 130.113 36.5046 128.061 34.9659 125.495C33.4271 122.929 32.6842 119.964 32.8309 116.975V116.878C33.0176 113.083 33.6192 109.321 34.6252 105.658C36.4991 98.9592 40.0078 92.6994 44.9918 88.2876C44.1142 88.7809 43.2655 89.3241 42.45 89.9144C36.3536 94.3361 32.1332 101.365 30.008 108.961C29.0042 112.625 28.4025 116.387 28.2138 120.181C28.0451 123.494 28.1117 126.815 28.4132 130.119C34.6272 134.062 44.5971 138.512 56.1738 142.236C61.0023 143.789 65.6772 145.077 70.0192 146.08C69.2687 144.537 68.7392 142.897 68.4463 141.207C65.9603 140.527 63.4045 139.77 60.8009 138.933C53.5443 136.602 46.9355 133.986 41.4751 131.391Z" fill="#08A4CA"/>
<path d="M170.587 128.702C170.392 127.893 170.155 127.094 169.876 126.31C168.432 122.265 165.661 118.549 161.774 116.721C157.886 114.892 152.848 115.283 149.756 118.266C146.551 121.358 146.056 126.22 145.438 130.626C145.143 132.733 144.774 134.836 144.318 136.922C142.906 143.383 140.672 149.663 137.291 155.306C141.314 153.997 145.664 152.36 150.149 150.434C158.662 146.78 166.098 142.755 171.327 139.146L171.453 139.019C171.542 135.566 171.399 132.057 170.587 128.702Z" fill="#006C8F"/>
<path d="M156.774 115.612C158.501 115.61 160.208 115.988 161.774 116.718C165.661 118.546 168.432 122.262 169.876 126.307C170.155 127.091 170.392 127.89 170.587 128.699C171.399 132.047 171.542 135.555 171.453 139.012L171.327 139.14C166.094 142.748 158.662 146.773 150.149 150.427C145.666 152.353 141.314 153.99 137.29 155.3C140.68 149.656 142.906 143.376 144.318 136.915C144.774 134.83 145.143 132.728 145.438 130.619C146.056 126.207 146.551 121.345 149.756 118.259C151.616 116.465 154.18 115.608 156.774 115.608V115.612ZM156.774 114.212C153.658 114.212 150.821 115.293 148.787 117.254C145.422 120.5 144.754 125.362 144.164 129.65L144.053 130.436C143.756 132.553 143.385 134.636 142.95 136.616C141.465 143.42 139.162 149.465 136.088 154.582C135.961 154.794 135.893 155.035 135.89 155.282C135.887 155.529 135.949 155.772 136.071 155.987C136.192 156.202 136.369 156.381 136.582 156.505C136.795 156.63 137.038 156.695 137.284 156.695C137.431 156.696 137.576 156.672 137.715 156.626C141.902 155.262 146.274 153.607 150.693 151.711C158.989 148.149 166.594 144.094 172.114 140.288C172.191 140.235 172.261 140.175 172.326 140.109L172.451 139.979C172.692 139.728 172.831 139.396 172.84 139.048C172.952 134.762 172.665 131.371 171.939 128.37C171.731 127.511 171.479 126.662 171.183 125.829C169.485 121.07 166.271 117.284 162.362 115.444C160.61 114.627 158.701 114.205 156.768 114.206L156.774 114.212Z" fill="#323544"/>
<path d="M170.588 128.701C170.392 127.892 170.155 127.093 169.876 126.309C168.432 122.264 165.659 118.548 161.774 116.72C161.425 116.555 161.068 116.408 160.703 116.281C163.767 118.275 165.992 121.51 167.232 124.987C167.511 125.772 167.749 126.57 167.944 127.38L167.968 127.479C168.614 130.248 168.342 133.151 167.192 135.751C166.043 138.352 164.079 140.507 161.596 141.893C157.294 144.319 151.84 147.252 147.498 149.116C144.525 150.391 141.615 151.538 138.818 152.549C138.334 153.479 137.822 154.399 137.283 155.31C141.306 154 145.656 152.363 150.141 150.437C158.654 146.783 166.09 142.758 171.319 139.15L171.445 139.022C171.542 135.565 171.399 132.056 170.588 128.701Z" fill="#08A4CA"/>
<path d="M75.6574 99.4382C66.8697 100.529 57.7271 96.6471 51.9178 99.4382C46.1085 102.229 47.502 111.057 55.1693 110.826C61.8618 110.626 70.6754 110.951 74.5071 112.273C74.8041 111.2 75.0733 110.118 75.2926 109.019C75.949 105.868 76.0723 102.63 75.6574 99.4382Z" fill="#08A4CA"/>
<path d="M64.3318 78.2838C57.7828 77.8851 47.8508 80.7658 42.8788 83.5329C40.6859 84.753 37.0017 87.0276 34.6055 87.7752C32.2092 88.5228 29.1092 87.9168 28.0526 85.6401C27.4325 84.3024 27.6778 82.6757 28.4134 81.3978C29.149 80.1199 30.3232 79.145 31.5672 78.3516C34.7088 76.3586 38.3791 75.3608 42.0973 75.4888C43.0941 75.5267 44.4478 75.3911 44.5973 74.4003C44.7129 73.6368 43.9235 73.0367 43.1779 72.8333C42.4323 72.63 41.5989 72.6121 40.9849 72.1456C40.1995 71.5475 40.0539 70.3513 40.4646 69.4542C40.8753 68.5571 41.7066 67.8952 42.6137 67.5105C54.1426 62.6262 64.3318 78.2838 64.3318 78.2838Z" fill="#006C8F"/>
<path d="M32.5974 88.7702C30.4623 88.7702 28.3192 87.8751 27.4141 85.9334C26.7363 84.4721 26.8818 82.6459 27.8028 81.0491C28.4946 79.8529 29.5971 78.7744 31.1919 77.7637C34.4548 75.6972 38.2648 74.6621 42.1247 74.7932C42.9102 74.8231 43.8472 74.7095 43.909 74.2948C43.9568 73.9898 43.4644 73.6349 42.9959 73.5074C42.7966 73.4555 42.5972 73.4157 42.3819 73.3738C41.7938 73.2602 41.1279 73.1306 40.5618 72.7C39.565 71.9444 39.254 70.4253 39.8281 69.1633C40.2767 68.1805 41.1698 67.3691 42.342 66.8667C47.3081 64.7635 52.8044 66.0274 58.2389 70.5289C60.7899 72.6727 63.0368 75.1543 64.9174 77.9052C64.9878 78.0136 65.0267 78.1394 65.0298 78.2685C65.0329 78.3977 65 78.5252 64.9349 78.6369C64.8698 78.7485 64.775 78.8398 64.661 78.9007C64.547 78.9616 64.4184 78.9897 64.2894 78.9817C58.0236 78.599 48.1613 81.394 43.2172 84.1411C42.7786 84.3863 42.2782 84.6734 41.742 84.9804C39.5411 86.2384 36.7979 87.8213 34.8043 88.4413C34.0891 88.66 33.3453 88.7709 32.5974 88.7702ZM41.437 76.1748C38.0742 76.1815 34.7821 77.1402 31.9415 78.9399C30.546 79.827 29.5951 80.7461 29.0169 81.7448C28.3331 82.941 28.2055 84.3126 28.686 85.3472C29.5831 87.283 32.2944 87.7635 34.3976 87.1076C36.2377 86.5354 38.9051 85.0024 41.0482 83.7723C41.5905 83.4593 42.0948 83.1742 42.5374 82.923C47.3898 80.2237 56.4008 77.5802 62.9497 77.5404C61.3098 75.3475 59.425 73.3489 57.3318 71.5835C52.2621 67.397 47.4057 66.2407 42.8943 68.1526C42.045 68.5134 41.409 69.0776 41.1 69.7475C40.8389 70.3216 40.8807 71.1928 41.409 71.5935C41.7161 71.8268 42.1686 71.9145 42.6471 72.0062C42.8803 72.052 43.1215 72.0979 43.3628 72.1637C44.4532 72.4607 45.466 73.3598 45.2906 74.5081C45.1909 75.178 44.6406 76.2884 42.0749 76.1907C41.8609 76.1801 41.6483 76.1748 41.437 76.1748Z" fill="#323544"/>
<path d="M59.1267 96.8829C58.9554 96.8829 58.7899 96.8199 58.662 96.7059C58.5341 96.5918 58.4527 96.4347 58.4332 96.2644C58.4138 96.0941 58.4576 95.9226 58.5565 95.7826C58.6554 95.6426 58.8023 95.5439 58.9692 95.5053L61.9895 94.8076C62.1698 94.7658 62.3593 94.7974 62.5164 94.8953C62.6734 94.9933 62.7851 95.1496 62.8268 95.3299C62.8686 95.5102 62.837 95.6997 62.7391 95.8567C62.6411 96.0137 62.4848 96.1254 62.3045 96.1672L59.2842 96.8649C59.2326 96.8767 59.1797 96.8827 59.1267 96.8829Z" fill="#323544"/>
<path d="M77.2438 98.5101C77.1358 98.5099 77.0293 98.4846 76.9328 98.4363L73.2147 96.5763C73.1311 96.5363 73.0563 96.4801 72.9946 96.4109C72.933 96.3417 72.8857 96.261 72.8557 96.1733C72.8256 96.0856 72.8133 95.9929 72.8194 95.9004C72.8256 95.8079 72.8501 95.7176 72.8915 95.6347C72.933 95.5518 72.9905 95.478 73.0608 95.4176C73.1311 95.3572 73.2127 95.3114 73.3009 95.2829C73.389 95.2544 73.482 95.2437 73.5744 95.2515C73.6667 95.2593 73.7566 95.2854 73.8387 95.3283L77.5568 97.1864C77.6967 97.2574 77.8087 97.3734 77.8748 97.5158C77.9409 97.6582 77.9572 97.8186 77.9211 97.9714C77.885 98.1241 77.7985 98.2603 77.6757 98.358C77.5528 98.4557 77.4007 98.5093 77.2438 98.5101Z" fill="#323544"/>
<path d="M61.0961 105.596C61.8658 105.596 62.4897 104.972 62.4897 104.203C62.4897 103.433 61.8658 102.809 61.0961 102.809C60.3265 102.809 59.7026 103.433 59.7026 104.203C59.7026 104.972 60.3265 105.596 61.0961 105.596Z" fill="#323544"/>
<path d="M73.4106 105.828C74.1802 105.828 74.8041 105.204 74.8041 104.434C74.8041 103.664 74.1802 103.041 73.4106 103.041C72.641 103.041 72.0171 103.664 72.0171 104.434C72.0171 105.204 72.641 105.828 73.4106 105.828Z" fill="#323544"/>
<path d="M159.233 87.3344C161.059 87.3344 162.538 85.8545 162.538 84.029C162.538 82.2035 161.059 80.7236 159.233 80.7236C157.408 80.7236 155.928 82.2035 155.928 84.029C155.928 85.8545 157.408 87.3344 159.233 87.3344Z" fill="#111217"/>
<path d="M159.233 80.7231C159.887 80.7231 160.526 80.917 161.069 81.2802C161.613 81.6434 162.037 82.1596 162.287 82.7636C162.537 83.3676 162.602 84.0322 162.475 84.6734C162.347 85.3145 162.033 85.9035 161.57 86.3657C161.108 86.828 160.519 87.1428 159.878 87.2704C159.237 87.3979 158.572 87.3324 157.968 87.0823C157.364 86.8321 156.848 86.4084 156.485 85.8649C156.122 85.3213 155.928 84.6822 155.928 84.0285C155.928 83.1519 156.276 82.3111 156.896 81.6913C157.516 81.0714 158.356 80.7231 159.233 80.7231ZM159.233 79.3276C158.303 79.3276 157.394 79.6033 156.621 80.1199C155.848 80.6364 155.246 81.3706 154.89 82.2296C154.534 83.0885 154.441 84.0337 154.623 84.9456C154.804 85.8575 155.252 86.6951 155.909 87.3525C156.567 88.0099 157.404 88.4577 158.316 88.639C159.228 88.8204 160.173 88.7273 161.032 88.3715C161.891 88.0157 162.625 87.4132 163.142 86.6402C163.658 85.8671 163.934 84.9583 163.934 84.0285C163.932 82.7822 163.437 81.5875 162.555 80.7062C161.674 79.825 160.479 79.3292 159.233 79.3276Z" fill="#323544"/>
<path d="M74.9665 59.9071C76.792 59.9071 78.2719 58.4272 78.2719 56.6017C78.2719 54.7762 76.792 53.2964 74.9665 53.2964C73.141 53.2964 71.6611 54.7762 71.6611 56.6017C71.6611 58.4272 73.141 59.9071 74.9665 59.9071Z" fill="#111217"/>
<path d="M74.9662 53.2959C75.62 53.2955 76.2592 53.489 76.8031 53.852C77.3469 54.2149 77.7709 54.731 78.0213 55.335C78.2718 55.9389 78.3376 56.6036 78.2103 57.2449C78.0829 57.8862 77.7683 58.4753 77.3061 58.9378C76.8439 59.4003 76.255 59.7153 75.6137 59.843C74.9725 59.9707 74.3078 59.9053 73.7037 59.6552C73.0996 59.4051 72.5833 58.9814 72.22 58.4378C71.8567 57.8942 71.6628 57.2551 71.6628 56.6013C71.6628 55.725 72.0108 54.8845 72.6302 54.2647C73.2497 53.6449 74.0899 53.2964 74.9662 53.2959ZM74.9662 51.9004C74.0361 51.8988 73.1264 52.1732 72.3523 52.6888C71.5782 53.2043 70.9745 53.938 70.6175 54.7968C70.2604 55.6556 70.1662 56.6011 70.3467 57.5135C70.5272 58.4259 70.9742 59.2642 71.6314 59.9225C72.2885 60.5807 73.1261 61.0292 74.0382 61.2112C74.9503 61.3933 75.8959 61.3006 76.7553 60.9451C77.6147 60.5895 78.3494 59.987 78.8663 59.2138C79.3832 58.4405 79.6591 57.5313 79.6591 56.6013C79.658 55.3548 79.1624 54.1598 78.281 53.2784C77.3997 52.3971 76.2046 51.9015 74.9582 51.9004H74.9662Z" fill="#323544"/>
<path d="M86.7523 147.293C86.2217 147.295 85.7027 147.138 85.261 146.844C84.8192 146.551 84.4746 146.132 84.2708 145.642C84.0669 145.152 84.013 144.613 84.1157 144.093C84.2185 143.572 84.4734 143.094 84.8482 142.718C85.2229 142.343 85.7007 142.087 86.221 141.983C86.7413 141.879 87.2807 141.931 87.771 142.134C88.2613 142.337 88.6805 142.681 88.9754 143.122C89.2703 143.563 89.4277 144.081 89.4277 144.612C89.4272 145.322 89.1453 146.003 88.6439 146.505C88.1424 147.008 87.4622 147.291 86.7523 147.293ZM86.7523 143.328C86.4979 143.328 86.2492 143.404 86.0377 143.545C85.8262 143.686 85.6614 143.887 85.5641 144.122C85.4669 144.357 85.4415 144.616 85.4913 144.866C85.5411 145.115 85.6637 145.344 85.8438 145.524C86.0238 145.704 86.2531 145.826 86.5027 145.875C86.7522 145.925 87.0108 145.899 87.2457 145.801C87.4807 145.704 87.6814 145.539 87.8224 145.327C87.9635 145.115 88.0385 144.866 88.0382 144.612C88.0376 144.271 87.9019 143.945 87.6608 143.704C87.4197 143.463 87.093 143.328 86.7523 143.328Z" fill="#323544"/>
</svg>
