<svg width="30" height="30" viewBox="0 0 30 30" fill="none" xmlns="http://www.w3.org/2000/svg">
<g clip-path="url(#clip0_27158_61799)">
<path d="M9.78779 7.49707V9.33573C9.78779 10.5029 8.84448 11.4382 7.68532 11.4382H3.61628C2.31323 11.4302 1.25 12.5014 1.25 13.8045V17.274C1.25 18.577 2.31323 19.6402 3.61628 19.6402H7.68532C8.85247 19.6402 9.78779 20.5915 9.78779 21.7427V25.8118C9.78779 27.1148 10.851 28.178 12.1541 28.178H15.6235C16.9266 28.178 17.9898 27.1148 17.9898 25.8118V21.7427C17.9898 20.5756 18.9331 19.6402 20.0923 19.6402H21.931C15.2478 19.6402 9.78779 14.1802 9.78779 7.49707Z" fill="black"/>
<path d="M26.5277 17.2739V13.8045C26.5277 12.5014 25.4644 11.4382 24.1614 11.4382H20.0923C18.9252 11.4382 17.9899 10.4949 17.9899 9.33571V5.26667C17.9899 3.96362 16.9267 2.90039 15.6236 2.90039H12.1541C10.8511 2.90039 9.78784 3.96362 9.78784 5.26667V7.49705C9.78784 14.1802 15.2559 19.6402 21.931 19.6402H24.1614C25.4644 19.6402 26.5277 18.577 26.5277 17.2739Z" fill="#DB0029"/>
<path d="M20.4601 8.37647C20.4601 8.37647 19.6686 0.11848 28.75 2.13302C28.5822 4.56325 28.806 10.5429 20.4601 8.37647Z" fill="#DB0029"/>
</g>
<defs>
<clipPath id="clip0_27158_61799">
<rect width="27.5" height="26.367" fill="white" transform="translate(1.25 1.8125)"/>
</clipPath>
</defs>
</svg>
