<svg width="24" height="25" viewBox="0 0 24 25" fill="none" xmlns="http://www.w3.org/2000/svg">
<path fill-rule="evenodd" clip-rule="evenodd" d="M6.63408 1.64063H13.9894L20.2233 8.13838V20.7766C20.2233 22.3598 18.9424 23.6406 17.3647 23.6406H6.63408C5.05087 23.6406 3.77002 22.3598 3.77002 20.7766V4.50468C3.76999 2.92148 5.05085 1.64063 6.63408 1.64063Z" fill="#E5252A"/>
<path opacity="0.302" fill-rule="evenodd" clip-rule="evenodd" d="M13.984 1.64062V8.0889H20.2234L13.984 1.64062Z" fill="white"/>
<path d="M6.953 18.0556V14.0371H8.66265C9.08595 14.0371 9.42129 14.1525 9.67416 14.3889C9.92703 14.6198 10.0535 14.9332 10.0535 15.3235C10.0535 15.7138 9.92703 16.0271 9.67416 16.258C9.42129 16.4944 9.08595 16.6098 8.66265 16.6098H7.98099V18.0556H6.953ZM7.98099 15.7358H8.54721C8.70113 15.7358 8.82207 15.7028 8.90454 15.6258C8.98699 15.5544 9.03099 15.4554 9.03099 15.3235C9.03099 15.1916 8.98702 15.0926 8.90454 15.0211C8.8221 14.9442 8.70115 14.9112 8.54721 14.9112H7.98099V15.7358ZM10.4767 18.0556V14.0371H11.9005C12.1809 14.0371 12.4448 14.0756 12.6921 14.1581C12.9395 14.2405 13.1649 14.356 13.3628 14.5154C13.5607 14.6693 13.7201 14.8782 13.8356 15.1421C13.9455 15.4059 14.006 15.7083 14.006 16.0491C14.006 16.3844 13.9455 16.6868 13.8356 16.9506C13.7201 17.2145 13.5607 17.4234 13.3628 17.5773C13.1649 17.7367 12.9395 17.8522 12.6921 17.9347C12.4448 18.0171 12.1809 18.0556 11.9005 18.0556H10.4767ZM11.4827 17.1816H11.7796C11.939 17.1816 12.0874 17.1651 12.2249 17.1266C12.3568 17.0881 12.4832 17.0276 12.6042 16.9452C12.7196 16.8627 12.8131 16.7473 12.879 16.5933C12.945 16.4394 12.978 16.258 12.978 16.0491C12.978 15.8347 12.945 15.6533 12.879 15.4994C12.8131 15.3455 12.7196 15.23 12.6042 15.1476C12.4832 15.0651 12.3568 15.0046 12.2249 14.9662C12.0874 14.9277 11.939 14.9112 11.7796 14.9112H11.4827V17.1816ZM14.5227 18.0556V14.0371H17.3813V14.9112H15.5507V15.5543H17.013V16.4229H15.5507V18.0556H14.5227Z" fill="white"/>
</svg>
