<svg width="30" height="30" viewBox="0 0 30 30" fill="none" xmlns="http://www.w3.org/2000/svg">
<g clip-path="url(#clip0_27158_61838)">
<path d="M12.0431 12.9025L14.6254 11.4239C14.7404 11.3581 14.8705 11.3235 15.003 11.3235C15.1354 11.3235 15.2656 11.3581 15.3805 11.4239L17.9629 12.9025C18.0557 12.9556 18.1362 13.0277 18.1992 13.114C18.2622 13.2004 18.3063 13.2991 18.3286 13.4036L18.2461 13.5229L15.0028 15.1487L11.734 13.4037L11.7066 13.3022C11.768 13.1334 11.8872 12.9918 12.0431 12.9025ZM25.9413 7.15439L16.3983 1.69047C15.9735 1.44728 15.4926 1.31934 15.0031 1.31934C14.5137 1.31934 14.0327 1.44728 13.6079 1.69047L4.06496 7.15439C3.53517 7.45788 3.11877 7.92584 2.87889 8.48732L2.87677 8.54367L4.98395 9.7143L5.03875 9.69239C5.23325 9.21789 5.58049 8.82182 6.02547 8.56692L13.8579 4.0824C14.2065 3.8828 14.6013 3.7778 15.003 3.7778C15.4048 3.7778 15.7995 3.8828 16.1482 4.0824L23.9806 8.56692C24.5065 8.86825 24.8926 9.36464 25.0552 9.94858L25.1945 10.0393L27.201 9.01725L27.2456 8.82204C27.0451 8.1172 26.5769 7.51871 25.9411 7.15439H25.9413ZM10.0171 11.4427L14.367 8.95211C14.5607 8.84129 14.7799 8.78299 15.003 8.78299C15.2261 8.78299 15.4454 8.84129 15.639 8.95211L19.9889 11.4427C20.1393 11.5289 20.2706 11.6448 20.3748 11.7832C20.4791 11.9217 20.5541 12.0799 20.5954 12.2483L20.6302 12.2861L22.7726 11.2002L22.7957 11.1319C22.7366 10.9007 22.6316 10.6839 22.4871 10.494C22.3426 10.3042 22.1615 10.1453 21.9545 10.0266L15.8897 6.55421C15.6197 6.39962 15.3141 6.31829 15.003 6.31829C14.692 6.31829 14.3863 6.39962 14.1164 6.55421L8.05159 10.0266C7.6995 10.2282 7.42585 10.5583 7.27793 10.9224L7.30504 10.9869L9.39186 12.1644L9.44252 12.1379C9.54336 11.8441 9.74759 11.5971 10.0171 11.4427Z" fill="#FF4300"/>
<path d="M25.0551 9.94792C25.1105 10.1467 25.14 10.3543 25.14 10.5662V19.5022C25.14 19.9081 25.0328 20.3069 24.8292 20.6581C24.6256 21.0093 24.3328 21.3005 23.9805 21.5022L16.1481 25.9867C15.7981 26.1864 15.4022 26.2913 14.9993 26.2912L14.9495 26.3472L14.9448 28.6674L15.0028 28.7498C15.4924 28.7499 15.9734 28.622 16.3982 28.3787L25.9412 22.9148C26.3704 22.669 26.7271 22.3142 26.9752 21.8863C27.2233 21.4584 27.3539 20.9725 27.3539 20.4779V9.59052C27.3537 9.33032 27.3172 9.07143 27.2455 8.82129L25.0552 9.94792H25.0551ZM22.7958 11.1312L20.5954 12.2476C20.6196 12.3463 20.6329 12.4486 20.6329 12.5528V17.5156C20.6329 17.9745 20.3871 18.3983 19.9889 18.6263L15.639 21.117C15.4418 21.2298 15.2181 21.2881 14.991 21.2858L14.926 21.3818L14.9486 23.6531L14.991 23.7505C15.3061 23.7528 15.6162 23.6716 15.8897 23.5151L21.9545 20.0425C22.2273 19.8863 22.454 19.6608 22.6116 19.3889C22.7693 19.117 22.8523 18.8082 22.8523 18.4939V11.5746C22.8523 11.4231 22.8325 11.2743 22.7958 11.1312ZM18.3285 13.4029C18.337 13.4483 18.3451 13.5139 18.3451 13.5611V16.5073C18.3451 16.6411 18.3098 16.7726 18.2427 16.8883C18.1756 17.0041 18.0791 17.1001 17.963 17.1666L15.3806 18.6452C15.2656 18.7111 15.1353 18.7457 15.0027 18.7456L14.9397 18.644L14.9511 15.0928L15.0029 15.0438L18.3285 13.4029Z" fill="#FF5B00"/>
<path d="M15.0029 15.0445V18.7463C14.8727 18.7463 14.7424 18.7128 14.6256 18.6459L12.0433 17.1673C11.9271 17.1008 11.8306 17.0048 11.7635 16.889C11.6963 16.7732 11.661 16.6418 11.661 16.5079V13.5618C11.661 13.472 11.6768 13.3845 11.7065 13.3026L15.0029 15.0445ZM14.991 21.2868C14.772 21.2848 14.5571 21.2265 14.3671 21.1176L11.6789 19.5785V24.4664L9.35705 23.2202L9.37316 12.5535C9.37316 12.4134 9.39941 12.2668 9.44263 12.1379L7.27795 10.9224C7.20124 11.1227 7.15367 11.354 7.15367 11.5752L7.12048 22.0592L6.01083 21.4275C5.2937 21.0169 4.86596 20.3292 4.86596 19.5028V10.5667C4.86596 10.2618 4.92675 9.96555 5.03877 9.69238L2.87892 8.4873C2.7294 8.83612 2.65225 9.21166 2.65216 9.59116L2.65216 20.4787C2.65215 20.9733 2.7828 21.4591 3.03088 21.887C3.27895 22.3149 3.63565 22.6697 4.06489 22.9154L13.6079 28.3794C14.0325 28.6226 14.5134 28.7505 15.0027 28.7505L14.991 21.2868Z" fill="#DC2F03"/>
</g>
<defs>
<clipPath id="clip0_27158_61838">
<rect width="24.706" height="27.5" fill="white" transform="translate(2.65002 1.25)"/>
</clipPath>
</defs>
</svg>
