<svg width="30" height="30" viewBox="0 0 30 30" fill="none" xmlns="http://www.w3.org/2000/svg">
<path d="M10.4139 28.75C6.96686 28.75 4.16251 25.9456 4.16251 22.4986V11.7928C4.16251 5.97946 8.89192 1.25 14.7053 1.25H15.31C21.1233 1.25 25.8529 5.97946 25.8529 11.7928C25.8529 17.1275 21.8758 21.5805 16.6653 22.2489V22.4986C16.6653 25.9456 13.861 28.75 10.4139 28.75Z" fill="#FF3C3C"/>
<path d="M15.31 1.25H15.0077V26.7338C16.0361 25.6192 16.6654 24.1311 16.6654 22.4986V22.2489C21.8758 21.5805 25.8529 17.1275 25.8529 11.7928C25.8528 5.97946 21.1234 1.25 15.31 1.25Z" fill="#DA0806"/>
<path d="M15.3103 4.46484H14.7055C10.6648 4.46484 7.37723 7.75244 7.37723 11.7932V22.4987C7.37723 24.1735 8.73944 25.5358 10.4143 25.5358C12.0885 25.5358 13.4508 24.1735 13.4508 22.4987V19.1215H15.3102C19.351 19.1215 22.6385 15.8339 22.6385 11.7932C22.6385 7.75249 19.3511 4.46484 15.3103 4.46484ZM15.3103 14.6672H12.6409C12.1939 14.6672 11.831 14.3049 11.831 13.8573V11.7932C11.831 10.2079 13.1203 8.91861 14.7055 8.91861H15.3103C16.8955 8.91861 18.1848 10.2079 18.1848 11.7932C18.1848 13.3779 16.8955 14.6672 15.3103 14.6672Z" fill="white"/>
<path d="M15.31 4.46484H15.0077V8.91866H15.31C16.8953 8.91866 18.1846 10.208 18.1846 11.7932C18.1846 13.3779 16.8953 14.6672 15.31 14.6672H15.0077V19.1216H15.31C19.3508 19.1216 22.6383 15.834 22.6383 11.7933C22.6383 7.75254 19.3508 4.46484 15.31 4.46484Z" fill="#DCE1EB"/>
</svg>
