<svg width="50" height="51" viewBox="0 0 50 51" fill="none" xmlns="http://www.w3.org/2000/svg">
<path d="M19 4.02074C22.7128 1.87715 27.2872 1.87715 31 4.02074L40.6506 9.59254C44.3634 11.7361 46.6506 15.6977 46.6506 19.9848V31.1284C46.6506 35.4156 44.3634 39.3771 40.6506 41.5207L31 47.0925C27.2872 49.2361 22.7128 49.2361 19 47.0925L9.34937 41.5207C5.63655 39.3771 3.34937 35.4156 3.34937 31.1284V19.9848C3.34937 15.6977 5.63655 11.7361 9.34937 9.59254L19 4.02074Z" fill="#EFF6FF"/>
<path d="M19.25 4.45376C22.8081 2.39948 27.1919 2.39948 30.75 4.45375L40.4006 10.0256C43.9587 12.0798 46.1506 15.8763 46.1506 19.9848V31.1284C46.1506 35.237 43.9587 39.0335 40.4006 41.0877L30.75 46.6595C27.1919 48.7138 22.8081 48.7138 19.25 46.6595L9.59937 41.0877C6.04125 39.0335 3.84937 35.237 3.84937 31.1284V19.9848C3.84937 15.8763 6.04125 12.0798 9.59937 10.0256L19.25 4.45376Z" stroke="#1B84FF" stroke-opacity="0.2"/>
<path opacity="0.1" d="M34.4252 29.7939V31.8772C34.4264 32.33 34.3383 32.7785 34.1658 33.1972C33.9934 33.6158 33.7401 33.9963 33.4203 34.3169C33.1006 34.6375 32.7207 34.8918 32.3026 35.0654C31.8844 35.2389 30.5303 35.3282 30.0775 35.3282H18.9636C18.0475 35.3258 17.1697 34.9602 16.5228 34.3116C15.8759 33.663 15.5126 32.7842 15.5126 31.8681V17.8557C15.5104 17.5832 15.5838 17.3154 15.7244 17.082C15.8651 16.8486 16.0677 16.6587 16.3096 16.5333C16.5511 16.4083 16.8221 16.3515 17.0934 16.369C17.3647 16.3866 17.6261 16.4778 17.8495 16.6329L18.9817 17.4391C18.9982 17.4486 19.017 17.4536 19.036 17.4536C19.0551 17.4536 19.0739 17.4486 19.0904 17.4391L20.9019 16.1076C21.1458 15.9216 21.4413 15.8156 21.7478 15.8042C22.0544 15.7929 22.3569 15.8767 22.6139 16.0442L24.4254 17.2579C24.4471 17.2716 24.4722 17.2789 24.4979 17.2789C24.5235 17.2789 24.5487 17.2716 24.5704 17.2579L25.6754 16.5333C25.9006 16.389 26.1604 16.3078 26.4278 16.2982C26.6951 16.2886 26.96 16.3508 27.1951 16.4785C27.4301 16.6062 27.6265 16.7946 27.7639 17.0241C27.9013 17.2536 27.9746 17.5158 27.9761 17.7833V26.6418H31.8981C32.2388 26.6345 32.5774 26.6958 32.8939 26.8223C33.2103 26.9487 33.498 27.1377 33.7398 27.3778C33.9816 27.6179 34.1725 27.9042 34.3012 28.2197C34.4298 28.5353 34.4936 28.8735 34.4886 29.2142L34.4252 29.7939Z" fill="#1B84FF"/>
<path d="M21.3912 22.5561C21.3912 22.738 21.3189 22.9124 21.1903 23.041C21.0617 23.1696 20.8873 23.2418 20.7054 23.2418H18.6666C18.4847 23.2418 18.3103 23.1696 18.1817 23.041C18.0531 22.9124 17.9809 22.738 17.9809 22.5561C17.9809 22.3743 18.0531 22.1998 18.1817 22.0713C18.3103 21.9427 18.4847 21.8704 18.6666 21.8704H20.7054C20.8866 21.8728 21.0596 21.9458 21.1877 22.0739C21.3158 22.202 21.3888 22.375 21.3912 22.5561ZM24.454 27.8681H22.4152C22.2333 27.8681 22.0589 27.9404 21.9303 28.069C21.8017 28.1976 21.7294 28.372 21.7294 28.5538C21.7294 28.7357 21.8017 28.9101 21.9303 29.0387C22.0589 29.1673 22.2333 29.2395 22.4152 29.2395H24.454C24.6359 29.2395 24.8103 29.1673 24.9389 29.0387C25.0675 28.9101 25.1397 28.7357 25.1397 28.5538C25.1397 28.372 25.0675 28.1976 24.9389 28.069C24.8103 27.9404 24.6359 27.8681 24.454 27.8681ZM20.7054 24.8693H18.6666C18.4847 24.8693 18.3103 24.9415 18.1817 25.0701C18.0531 25.1987 17.9809 25.3731 17.9809 25.555C17.9809 25.7368 18.0531 25.9113 18.1817 26.0399C18.3103 26.1684 18.4847 26.2407 18.6666 26.2407H20.7054C20.8873 26.2407 21.0617 26.1684 21.1903 26.0399C21.3189 25.9113 21.3912 25.7368 21.3912 25.555C21.3912 25.3731 21.3189 25.1987 21.1903 25.0701C21.0617 24.9415 20.8873 24.8693 20.7054 24.8693ZM24.454 21.8704H23.2106C23.0287 21.8704 22.8543 21.9427 22.7257 22.0713C22.5971 22.1998 22.5249 22.3743 22.5249 22.5561C22.5249 22.738 22.5971 22.9124 22.7257 23.041C22.8543 23.1696 23.0287 23.2418 23.2106 23.2418H24.454C24.6359 23.2418 24.8103 23.1696 24.9389 23.041C25.0675 22.9124 25.1397 22.738 25.1397 22.5561C25.1397 22.3743 25.0675 22.1998 24.9389 22.0713C24.8103 21.9427 24.6359 21.8704 24.454 21.8704ZM34.5112 29.8247V31.9275C34.5124 32.3846 34.4234 32.8373 34.2493 33.2599C34.0753 33.6825 33.8195 34.0666 33.4968 34.3901C33.1741 34.7137 32.7906 34.9705 32.3685 35.1456C31.9464 35.3208 30.5796 35.411 30.1226 35.411H18.9043C17.9796 35.4085 17.0936 35.0395 16.4406 34.3848C15.7876 33.7301 15.4209 32.8431 15.4209 31.9184V17.7744C15.4187 17.4993 15.4928 17.229 15.6348 16.9934C15.7768 16.7578 15.9812 16.5661 16.2255 16.4396C16.4692 16.3134 16.7427 16.256 17.0166 16.2737C17.2905 16.2915 17.5543 16.3836 17.7797 16.5401L18.9226 17.3538C18.9393 17.3635 18.9582 17.3685 18.9775 17.3685C18.9967 17.3685 19.0156 17.3635 19.0323 17.3538L20.8609 16.0098C21.1071 15.8221 21.4053 15.7151 21.7147 15.7037C22.0241 15.6922 22.3295 15.7768 22.5889 15.9458L24.4174 17.171C24.4393 17.1848 24.4647 17.1921 24.4906 17.1921C24.5165 17.1921 24.5418 17.1848 24.5637 17.171L25.6792 16.4396C25.9065 16.2939 26.1688 16.212 26.4386 16.2023C26.7084 16.1925 26.9759 16.2554 27.2131 16.3843C27.4503 16.5132 27.6486 16.7034 27.7873 16.935C27.9259 17.1667 27.9999 17.4313 28.0014 17.7013V26.643H31.9603C32.3042 26.6356 32.646 26.6975 32.9654 26.8252C33.2848 26.9528 33.5752 27.1435 33.8193 27.3859C34.0633 27.6282 34.256 27.9173 34.3859 28.2357C34.5158 28.5542 34.5801 28.8956 34.5751 29.2395L34.5112 29.8247ZM27.3523 34.0487C26.889 33.4387 26.6385 32.6936 26.6392 31.9275V27.3561V17.7104C26.6406 17.6866 26.6354 17.6629 26.6241 17.6419C26.6128 17.6209 26.5958 17.6034 26.5752 17.5916C26.554 17.5804 26.5305 17.5745 26.5066 17.5745C26.4827 17.5745 26.4591 17.5804 26.438 17.5916L25.3409 18.3138C25.0952 18.471 24.8097 18.5545 24.518 18.5545C24.2264 18.5545 23.9408 18.471 23.6952 18.3138L21.8666 17.0796C21.843 17.0659 21.8162 17.0587 21.7889 17.0587C21.7616 17.0587 21.7348 17.0659 21.7112 17.0796L19.9466 18.4418C19.6875 18.6475 19.3677 18.7616 19.037 18.7666C18.7062 18.7716 18.3832 18.667 18.118 18.4693L16.9935 17.6647C16.9697 17.657 16.9441 17.657 16.9203 17.6647H16.8563C16.8356 17.6766 16.8187 17.694 16.8074 17.715C16.7961 17.736 16.7908 17.7598 16.7923 17.7836V31.9275C16.7923 32.4885 17.0145 33.0267 17.4103 33.4242C17.8062 33.8217 18.3433 34.0463 18.9043 34.0487H27.3523ZM33.158 29.2395C33.158 28.9235 33.0331 28.6202 32.8104 28.3959C32.5878 28.1715 32.2855 28.0442 31.9694 28.0418H28.0106V31.8453C28.0092 32.2192 28.1003 32.5877 28.2757 32.9179C28.4512 33.2481 28.7056 33.5298 29.0163 33.7378L29.1717 33.8293L29.318 33.9024C29.477 33.9643 29.6427 34.0072 29.8117 34.0304C30.105 34.0787 31.3195 34.0637 31.6065 33.9864C31.8935 33.9091 32.1606 33.7714 32.39 33.5824C32.6307 33.383 32.8243 33.1329 32.9571 32.85C33.0899 32.5671 33.1585 32.2583 33.158 31.9458V29.2395ZM24.454 24.8876H23.2106C23.0287 24.8876 22.8543 24.9598 22.7257 25.0884C22.5971 25.217 22.5249 25.3914 22.5249 25.5733C22.5249 25.7551 22.5971 25.9295 22.7257 26.0581C22.8543 26.1867 23.0287 26.259 23.2106 26.259H24.454C24.6359 26.259 24.8103 26.1867 24.9389 26.0581C25.0675 25.9295 25.1397 25.7551 25.1397 25.5733C25.1397 25.3914 25.0675 25.217 24.9389 25.0884C24.8103 24.9598 24.6359 24.8876 24.454 24.8876Z" fill="#1B84FF"/>
</svg>
