<svg width="30" height="30" viewBox="0 0 30 30" fill="none" xmlns="http://www.w3.org/2000/svg">
<path d="M15 28.75C22.5939 28.75 28.75 22.5939 28.75 15C28.75 7.40613 22.5939 1.25 15 1.25C7.40613 1.25 1.25 7.40613 1.25 15C1.25 22.5939 7.40613 28.75 15 28.75Z" fill="#2CA01C"/>
<path d="M5.06955 15.0001C5.06955 16.4183 5.63292 17.7784 6.63572 18.7812C7.63853 19.784 8.99862 20.3473 10.4168 20.3473H11.1806V18.3611H10.4168C9.97315 18.3647 9.53318 18.2803 9.12228 18.113C8.71138 17.9457 8.33767 17.6987 8.0227 17.3862C7.70773 17.0738 7.45773 16.702 7.28713 16.2925C7.11653 15.8829 7.02869 15.4437 7.02869 15C7.02869 14.5563 7.11653 14.1171 7.28713 13.7075C7.45773 13.2979 7.70773 12.9262 8.0227 12.6138C8.33767 12.3013 8.71138 12.0543 9.12228 11.887C9.53318 11.7196 9.97315 11.6353 10.4168 11.6389H12.2501V22.0279C12.2502 22.5545 12.4595 23.0596 12.8319 23.4321C13.2043 23.8045 13.7094 24.0139 14.2361 24.0141V9.65285H10.4168C9.71457 9.65282 9.01921 9.79111 8.37043 10.0598C7.72165 10.3285 7.13214 10.7224 6.63558 11.2189C6.13902 11.7155 5.74513 12.305 5.47639 12.9537C5.20765 13.6025 5.06955 14.2979 5.06955 15.0001ZM19.5833 9.65285H18.8196V11.6391H19.5833C20.4681 11.6491 21.3133 12.0076 21.9355 12.6368C22.5576 13.266 22.9065 14.1152 22.9065 15.0001C22.9065 15.885 22.5576 16.7341 21.9355 17.3634C21.3133 17.9926 20.4681 18.3511 19.5833 18.3611H17.7501V7.97256C17.7501 7.71173 17.6987 7.45346 17.5989 7.21248C17.4991 6.9715 17.3529 6.75254 17.1684 6.56809C16.984 6.38365 16.7651 6.23735 16.5241 6.13752C16.2831 6.0377 16.0249 5.98633 15.764 5.98633V20.3476H19.5833C21.0015 20.3476 22.3616 19.7842 23.3644 18.7814C24.3672 17.7786 24.9306 16.4185 24.9306 15.0003C24.9306 13.5821 24.3672 12.222 23.3644 11.2192C22.3616 10.2164 21.0015 9.65285 19.5833 9.65285Z" fill="white"/>
</svg>
