<svg width="690" height="221" viewBox="0 0 690 221" fill="none" xmlns="http://www.w3.org/2000/svg">
<path d="M345.5 -734.248C608.94 -734.248 822.5 -520.573 822.5 -256.99C822.5 6.59191 608.939 220.267 345.5 220.267C82.0605 220.267 -131.5 6.5919 -131.5 -256.99C-131.5 -520.573 82.0604 -734.248 345.5 -734.248Z" stroke="url(#paint0_linear_27158_94844)"/>
<path d="M345.5 -666.927C574.542 -666.927 760.217 -481.151 760.217 -251.985C760.217 -22.8195 574.542 162.956 345.5 162.956C116.459 162.956 -69.2174 -22.8194 -69.2174 -251.985C-69.2174 -481.151 116.459 -666.927 345.5 -666.927Z" stroke="url(#paint1_linear_27158_94844)"/>
<path d="M345.5 -595.607C540.144 -595.607 697.935 -437.732 697.935 -242.982C697.935 -48.2322 540.144 109.643 345.5 109.643C150.856 109.643 -6.93451 -48.2323 -6.93451 -242.982C-6.93444 -437.732 150.856 -595.607 345.5 -595.607Z" stroke="url(#paint2_linear_27158_94844)"/>
<path d="M345.5 -536.294C505.746 -536.294 635.652 -406.319 635.652 -245.985C635.652 -85.652 505.746 44.3241 345.5 44.3242C185.254 44.3242 55.3478 -85.6519 55.3478 -245.985C55.348 -406.319 185.254 -536.294 345.5 -536.294Z" stroke="url(#paint3_linear_27158_94844)"/>
<g filter="url(#filter0_d_27158_94844)">
<rect x="0.999878" y="71.6865" width="55" height="55.0297" rx="27.5" fill="#111217" shape-rendering="crispEdges"/>
<rect x="1.5614" y="72.3096" width="54" height="54.0297" rx="27" fill="url(#paint4_radial_27158_94844)"/>
<rect x="1.5614" y="72.3096" width="54" height="54.0297" rx="27" stroke="#111217"/>
<rect x="12.0614" y="82.8149" width="33" height="33.0189" rx="16.5" fill="url(#paint5_radial_27158_94844)"/>
<rect x="12.0614" y="82.8149" width="33" height="33.0189" rx="16.5" stroke="#181921" stroke-width="2"/>
</g>
<g filter="url(#filter1_d_27158_94844)">
<rect x="110.869" y="14.5981" width="55" height="55.0297" rx="27.5" fill="#111217" shape-rendering="crispEdges"/>
<rect x="111.431" y="15.2212" width="54" height="54.0297" rx="27" fill="url(#paint6_radial_27158_94844)"/>
<rect x="111.431" y="15.2212" width="54" height="54.0297" rx="27" stroke="#111217"/>
<rect x="121.931" y="25.7266" width="33" height="33.0189" rx="16.5" fill="url(#paint7_radial_27158_94844)"/>
<rect x="121.931" y="25.7266" width="33" height="33.0189" rx="16.5" stroke="#181921" stroke-width="2"/>
<path d="M139.75 43.1568C139.758 43.0653 139.758 42.9732 139.75 42.8818C139.726 42.7173 139.768 42.55 139.866 42.4159C139.964 42.2819 140.111 42.1918 140.275 42.1651C140.356 42.1509 140.438 42.1531 140.518 42.1716C140.598 42.1901 140.673 42.2245 140.739 42.2727C140.805 42.3209 140.861 42.382 140.903 42.4523C140.945 42.5226 140.972 42.6006 140.983 42.6818C140.996 42.8398 140.996 42.9987 140.983 43.1568C140.983 43.5507 140.906 43.9408 140.755 44.3048C140.604 44.6688 140.383 44.9995 140.105 45.2781C139.826 45.5566 139.495 45.7776 139.131 45.9284C138.767 46.0792 138.377 46.1568 137.983 46.1568H137.65C137.485 46.1379 137.335 46.0545 137.232 45.9248C137.129 45.7951 137.081 45.6297 137.1 45.4651C137.108 45.3839 137.133 45.3052 137.172 45.2335C137.211 45.1618 137.263 45.0985 137.327 45.0474C137.39 44.9962 137.464 44.9582 137.542 44.9355C137.62 44.9128 137.702 44.9058 137.783 44.9151C138.031 44.9433 138.282 44.9188 138.519 44.8433C138.756 44.7678 138.975 44.6429 139.161 44.4768C139.347 44.3108 139.495 44.1073 139.597 43.8798C139.698 43.6523 139.751 43.4059 139.75 43.1568ZM145.242 39.1318C145.187 39.0688 145.12 39.0173 145.046 38.9801C144.971 38.9429 144.89 38.9208 144.807 38.915C144.724 38.9092 144.64 38.9198 144.561 38.9463C144.482 38.9727 144.409 39.0145 144.346 39.0693C144.219 39.1798 144.141 39.3362 144.129 39.5042C144.123 39.5874 144.134 39.6709 144.16 39.75C144.187 39.8291 144.229 39.9022 144.283 39.9651C145.11 40.8474 145.613 41.9846 145.708 43.1901C145.708 46.0318 141.967 49.6984 138 49.6984C136.922 49.6578 135.868 49.3729 134.917 48.8651C134.843 48.8235 134.762 48.7974 134.677 48.7882C134.593 48.7791 134.508 48.7872 134.427 48.812C134.346 48.8367 134.271 48.8777 134.206 48.9324C134.142 48.9871 134.089 49.0544 134.051 49.1301C134.013 49.2058 133.991 49.2885 133.986 49.373C133.981 49.4575 133.993 49.5422 134.022 49.6218C134.051 49.7015 134.095 49.7745 134.153 49.8363C134.211 49.8982 134.281 49.9477 134.358 49.9818C135.485 50.5662 136.731 50.8854 138 50.9151C142.35 50.9151 146.958 46.9318 146.958 43.1568C146.866 41.6576 146.26 40.2362 145.242 39.1318ZM146.075 35.5234L130.833 50.6651C130.719 50.7811 130.563 50.847 130.4 50.8484C130.232 50.8469 130.071 50.7813 129.95 50.6651C129.833 50.5465 129.767 50.3862 129.767 50.2193C129.767 50.0523 129.833 49.892 129.95 49.7734L131.617 48.1068C129.95 46.5734 129.008 44.7734 129.008 43.1734C129.042 39.4568 133.733 35.3984 138 35.3984C139.719 35.4559 141.385 36.0055 142.8 36.9818L145.167 34.6318C145.22 34.5546 145.289 34.4903 145.37 34.4437C145.451 34.397 145.542 34.3691 145.635 34.3621C145.728 34.3551 145.822 34.3691 145.909 34.4031C145.996 34.4371 146.075 34.4903 146.139 34.5586C146.203 34.6269 146.25 34.7088 146.278 34.798C146.306 34.8873 146.314 34.9817 146.301 35.0743C146.287 35.1669 146.254 35.2553 146.201 35.333C146.149 35.4108 146.081 35.4758 146 35.5234H146.075ZM132.567 47.1901L135.342 44.4318C135.065 43.8735 134.971 43.2426 135.073 42.6279C135.174 42.0133 135.466 41.446 135.906 41.006C136.347 40.566 136.915 40.2754 137.53 40.1754C138.145 40.0754 138.776 40.1709 139.333 40.4484L141.933 37.8651C140.758 37.1081 139.398 36.6873 138 36.6484C134.475 36.6484 130.292 40.1484 130.292 43.1568C130.292 44.3984 131.142 45.9151 132.533 47.2068L132.567 47.1901ZM136.283 43.4818L138.325 41.4401C138.217 41.4319 138.108 41.4319 138 41.4401C137.536 41.4401 137.091 41.6245 136.763 41.9526C136.434 42.2808 136.25 42.726 136.25 43.1901C136.251 43.2882 136.262 43.3859 136.283 43.4818Z" fill="#464852"/>
</g>
<g filter="url(#filter2_d_27158_94844)">
<rect x="211.715" y="60.7998" width="55" height="55.0297" rx="27.5" fill="#111217" shape-rendering="crispEdges"/>
<rect x="212.277" y="61.4229" width="54" height="54.0297" rx="27" fill="url(#paint8_radial_27158_94844)"/>
<rect x="212.277" y="61.4229" width="54" height="54.0297" rx="27" stroke="#111217"/>
<rect x="222.777" y="71.9282" width="33" height="33.0189" rx="16.5" fill="url(#paint9_radial_27158_94844)"/>
<rect x="222.777" y="71.9282" width="33" height="33.0189" rx="16.5" stroke="#181921" stroke-width="2"/>
</g>
<g filter="url(#filter3_d_27158_94844)">
<rect x="317.604" y="20.7056" width="55" height="55.0297" rx="27.5" fill="#111217" shape-rendering="crispEdges"/>
<rect x="318.165" y="21.3286" width="54" height="54.0297" rx="27" fill="url(#paint10_radial_27158_94844)"/>
<rect x="318.165" y="21.3286" width="54" height="54.0297" rx="27" stroke="#111217"/>
<rect x="328.665" y="31.834" width="33" height="33.0189" rx="16.5" fill="url(#paint11_radial_27158_94844)"/>
<rect x="328.665" y="31.834" width="33" height="33.0189" rx="16.5" stroke="#181921" stroke-width="2"/>
<path d="M350.156 46.2137H348.866V43.2693C348.866 41.1809 347.131 39.4819 344.999 39.4819C342.866 39.4819 341.132 41.1809 341.132 43.2693V46.2137H339.844C338.659 46.2137 337.695 47.1775 337.695 48.3621V55.6668C337.695 56.8515 338.659 57.8153 339.844 57.8153H350.156C351.341 57.8153 352.305 56.8515 352.305 55.6668V48.3621C352.305 47.1775 351.341 46.2137 350.156 46.2137ZM342.564 43.2693C342.564 41.9707 343.656 40.9142 344.999 40.9142C346.341 40.9142 347.434 41.9707 347.434 43.2693V46.2137H342.564V43.2693ZM350.872 55.6668C350.872 56.0617 350.551 56.383 350.156 56.383H339.844C339.449 56.383 339.128 56.0617 339.128 55.6668V48.3621C339.128 47.9673 339.449 47.646 339.844 47.646H350.156C350.551 47.646 350.872 47.9673 350.872 48.3621V55.6668Z" fill="#464852"/>
<path d="M345 49.7227C344.268 49.7227 343.675 50.3158 343.675 51.0475C343.675 51.5147 343.917 51.9252 344.283 52.1611V53.7331C344.283 54.1286 344.603 54.4492 344.999 54.4492C345.394 54.4492 345.715 54.1286 345.715 53.7331V52.1627C346.082 51.9271 346.325 51.5159 346.325 51.0475C346.325 50.3158 345.732 49.7227 345 49.7227Z" fill="#464852"/>
</g>
<g filter="url(#filter4_d_27158_94844)">
<rect x="423.758" y="60.7998" width="55" height="55.0297" rx="27.5" fill="#111217" shape-rendering="crispEdges"/>
<rect x="424.319" y="61.4229" width="54" height="54.0297" rx="27" fill="url(#paint12_radial_27158_94844)"/>
<rect x="424.319" y="61.4229" width="54" height="54.0297" rx="27" stroke="#111217"/>
<rect x="434.819" y="71.9282" width="33" height="33.0189" rx="16.5" fill="url(#paint13_radial_27158_94844)"/>
<rect x="434.819" y="71.9282" width="33" height="33.0189" rx="16.5" stroke="#181921" stroke-width="2"/>
</g>
<g filter="url(#filter5_d_27158_94844)">
<rect x="527.258" y="14.5981" width="55" height="55.0297" rx="27.5" fill="#111217" shape-rendering="crispEdges"/>
<rect x="527.819" y="15.2212" width="54" height="54.0297" rx="27" fill="url(#paint14_radial_27158_94844)"/>
<rect x="527.819" y="15.2212" width="54" height="54.0297" rx="27" stroke="#111217"/>
<rect x="538.319" y="25.7266" width="33" height="33.0189" rx="16.5" fill="url(#paint15_radial_27158_94844)"/>
<rect x="538.319" y="25.7266" width="33" height="33.0189" rx="16.5" stroke="#181921" stroke-width="2"/>
<g clip-path="url(#clip0_27158_94844)">
<path d="M555 52.0234C554.131 52.0241 553.289 51.7344 552.618 51.2038L548.46 47.9339C548.028 47.5957 547.681 47.1688 547.442 46.6845C547.204 46.2002 547.081 45.6707 547.083 45.1348V38.7258C547.084 38.0334 547.29 37.3556 547.679 36.7729C548.067 36.1902 548.622 35.7271 549.275 35.4384L553.433 33.6073C553.924 33.3874 554.459 33.2734 555 33.2734C555.541 33.2734 556.076 33.3874 556.567 33.6073L560.725 35.4384C561.378 35.7271 561.932 36.1902 562.321 36.7729C562.709 37.3556 562.916 38.0334 562.917 38.7258V45.1348C562.918 45.6707 562.796 46.2002 562.558 46.6845C562.319 47.1688 561.972 47.5957 561.54 47.9339L557.382 51.2038C556.711 51.7344 555.869 52.0241 555 52.0234ZM555 34.5839C554.655 34.5863 554.315 34.6607 554.004 34.8019L549.846 36.6243C549.428 36.8091 549.074 37.1051 548.825 37.4775C548.576 37.8499 548.443 38.283 548.442 38.7258V45.1348C548.45 45.4718 548.535 45.803 548.692 46.1045C548.848 46.406 549.072 46.6704 549.348 46.8788L553.505 50.1487C553.935 50.4858 554.473 50.6698 555.027 50.6698C555.582 50.6698 556.119 50.4858 556.549 50.1487L560.706 46.8788C560.982 46.6704 561.206 46.406 561.362 46.1045C561.519 45.803 561.604 45.4718 561.612 45.1348V38.7258C561.611 38.283 561.478 37.8499 561.229 37.4775C560.981 37.1051 560.626 36.8091 560.208 36.6243L555.996 34.8019C555.684 34.6607 555.345 34.5863 555 34.5839ZM554.275 44.8907L558.062 41.3417C558.189 41.2191 558.26 41.0529 558.26 40.8796C558.26 40.7063 558.189 40.54 558.062 40.4174C557.934 40.295 557.761 40.2262 557.581 40.2262C557.401 40.2262 557.229 40.295 557.101 40.4174L553.813 43.5217L552.908 42.6497C552.855 42.5675 552.784 42.4976 552.7 42.4449C552.616 42.3923 552.521 42.3582 552.421 42.3452C552.322 42.3321 552.221 42.3405 552.125 42.3695C552.029 42.3986 551.941 42.4477 551.868 42.5133C551.794 42.5789 551.737 42.6594 551.699 42.749C551.662 42.8386 551.645 42.935 551.651 43.0314C551.657 43.1278 551.685 43.2218 551.733 43.3066C551.781 43.3913 551.848 43.4648 551.929 43.5217L553.315 44.8907C553.379 44.9536 553.455 45.0038 553.539 45.0382C553.623 45.0727 553.713 45.0907 553.804 45.0912C553.893 45.0893 553.98 45.0707 554.061 45.0362C554.141 45.0018 554.214 44.9523 554.275 44.8907Z" fill="#464852"/>
</g>
</g>
<g filter="url(#filter6_d_27158_94844)">
<rect x="628.104" y="71.6865" width="55" height="55.0297" rx="27.5" fill="#111217" shape-rendering="crispEdges"/>
<rect x="628.665" y="72.3096" width="54" height="54.0297" rx="27" fill="url(#paint16_radial_27158_94844)"/>
<rect x="628.665" y="72.3096" width="54" height="54.0297" rx="27" stroke="#111217"/>
<rect x="639.165" y="82.8149" width="33" height="33.0189" rx="16.5" fill="url(#paint17_radial_27158_94844)"/>
<rect x="639.165" y="82.8149" width="33" height="33.0189" rx="16.5" stroke="#181921" stroke-width="2"/>
</g>
<defs>
<filter id="filter0_d_27158_94844" x="-3.00012" y="70.6865" width="63.0615" height="63.1528" filterUnits="userSpaceOnUse" color-interpolation-filters="sRGB">
<feFlood flood-opacity="0" result="BackgroundImageFix"/>
<feColorMatrix in="SourceAlpha" type="matrix" values="0 0 0 0 0 0 0 0 0 0 0 0 0 0 0 0 0 0 127 0" result="hardAlpha"/>
<feOffset dy="3"/>
<feGaussianBlur stdDeviation="2"/>
<feComposite in2="hardAlpha" operator="out"/>
<feColorMatrix type="matrix" values="0 0 0 0 0 0 0 0 0 0 0 0 0 0 0 0 0 0 0.03 0"/>
<feBlend mode="normal" in2="BackgroundImageFix" result="effect1_dropShadow_27158_94844"/>
<feBlend mode="normal" in="SourceGraphic" in2="effect1_dropShadow_27158_94844" result="shape"/>
</filter>
<filter id="filter1_d_27158_94844" x="106.869" y="13.5981" width="63.0615" height="63.1528" filterUnits="userSpaceOnUse" color-interpolation-filters="sRGB">
<feFlood flood-opacity="0" result="BackgroundImageFix"/>
<feColorMatrix in="SourceAlpha" type="matrix" values="0 0 0 0 0 0 0 0 0 0 0 0 0 0 0 0 0 0 127 0" result="hardAlpha"/>
<feOffset dy="3"/>
<feGaussianBlur stdDeviation="2"/>
<feComposite in2="hardAlpha" operator="out"/>
<feColorMatrix type="matrix" values="0 0 0 0 0 0 0 0 0 0 0 0 0 0 0 0 0 0 0.03 0"/>
<feBlend mode="normal" in2="BackgroundImageFix" result="effect1_dropShadow_27158_94844"/>
<feBlend mode="normal" in="SourceGraphic" in2="effect1_dropShadow_27158_94844" result="shape"/>
</filter>
<filter id="filter2_d_27158_94844" x="207.715" y="59.7998" width="63.0615" height="63.1528" filterUnits="userSpaceOnUse" color-interpolation-filters="sRGB">
<feFlood flood-opacity="0" result="BackgroundImageFix"/>
<feColorMatrix in="SourceAlpha" type="matrix" values="0 0 0 0 0 0 0 0 0 0 0 0 0 0 0 0 0 0 127 0" result="hardAlpha"/>
<feOffset dy="3"/>
<feGaussianBlur stdDeviation="2"/>
<feComposite in2="hardAlpha" operator="out"/>
<feColorMatrix type="matrix" values="0 0 0 0 0 0 0 0 0 0 0 0 0 0 0 0 0 0 0.03 0"/>
<feBlend mode="normal" in2="BackgroundImageFix" result="effect1_dropShadow_27158_94844"/>
<feBlend mode="normal" in="SourceGraphic" in2="effect1_dropShadow_27158_94844" result="shape"/>
</filter>
<filter id="filter3_d_27158_94844" x="313.604" y="19.7056" width="63.0616" height="63.1528" filterUnits="userSpaceOnUse" color-interpolation-filters="sRGB">
<feFlood flood-opacity="0" result="BackgroundImageFix"/>
<feColorMatrix in="SourceAlpha" type="matrix" values="0 0 0 0 0 0 0 0 0 0 0 0 0 0 0 0 0 0 127 0" result="hardAlpha"/>
<feOffset dy="3"/>
<feGaussianBlur stdDeviation="2"/>
<feComposite in2="hardAlpha" operator="out"/>
<feColorMatrix type="matrix" values="0 0 0 0 0 0 0 0 0 0 0 0 0 0 0 0 0 0 0.03 0"/>
<feBlend mode="normal" in2="BackgroundImageFix" result="effect1_dropShadow_27158_94844"/>
<feBlend mode="normal" in="SourceGraphic" in2="effect1_dropShadow_27158_94844" result="shape"/>
</filter>
<filter id="filter4_d_27158_94844" x="419.758" y="59.7998" width="63.0616" height="63.1528" filterUnits="userSpaceOnUse" color-interpolation-filters="sRGB">
<feFlood flood-opacity="0" result="BackgroundImageFix"/>
<feColorMatrix in="SourceAlpha" type="matrix" values="0 0 0 0 0 0 0 0 0 0 0 0 0 0 0 0 0 0 127 0" result="hardAlpha"/>
<feOffset dy="3"/>
<feGaussianBlur stdDeviation="2"/>
<feComposite in2="hardAlpha" operator="out"/>
<feColorMatrix type="matrix" values="0 0 0 0 0 0 0 0 0 0 0 0 0 0 0 0 0 0 0.03 0"/>
<feBlend mode="normal" in2="BackgroundImageFix" result="effect1_dropShadow_27158_94844"/>
<feBlend mode="normal" in="SourceGraphic" in2="effect1_dropShadow_27158_94844" result="shape"/>
</filter>
<filter id="filter5_d_27158_94844" x="523.258" y="13.5981" width="63.0616" height="63.1528" filterUnits="userSpaceOnUse" color-interpolation-filters="sRGB">
<feFlood flood-opacity="0" result="BackgroundImageFix"/>
<feColorMatrix in="SourceAlpha" type="matrix" values="0 0 0 0 0 0 0 0 0 0 0 0 0 0 0 0 0 0 127 0" result="hardAlpha"/>
<feOffset dy="3"/>
<feGaussianBlur stdDeviation="2"/>
<feComposite in2="hardAlpha" operator="out"/>
<feColorMatrix type="matrix" values="0 0 0 0 0 0 0 0 0 0 0 0 0 0 0 0 0 0 0.03 0"/>
<feBlend mode="normal" in2="BackgroundImageFix" result="effect1_dropShadow_27158_94844"/>
<feBlend mode="normal" in="SourceGraphic" in2="effect1_dropShadow_27158_94844" result="shape"/>
</filter>
<filter id="filter6_d_27158_94844" x="624.104" y="70.6865" width="63.0616" height="63.1528" filterUnits="userSpaceOnUse" color-interpolation-filters="sRGB">
<feFlood flood-opacity="0" result="BackgroundImageFix"/>
<feColorMatrix in="SourceAlpha" type="matrix" values="0 0 0 0 0 0 0 0 0 0 0 0 0 0 0 0 0 0 127 0" result="hardAlpha"/>
<feOffset dy="3"/>
<feGaussianBlur stdDeviation="2"/>
<feComposite in2="hardAlpha" operator="out"/>
<feColorMatrix type="matrix" values="0 0 0 0 0 0 0 0 0 0 0 0 0 0 0 0 0 0 0.03 0"/>
<feBlend mode="normal" in2="BackgroundImageFix" result="effect1_dropShadow_27158_94844"/>
<feBlend mode="normal" in="SourceGraphic" in2="effect1_dropShadow_27158_94844" result="shape"/>
</filter>
<linearGradient id="paint0_linear_27158_94844" x1="345.5" y1="-734.748" x2="345.5" y2="220.767" gradientUnits="userSpaceOnUse">
<stop offset="0.879862" stop-color="#1B1C21"/>
<stop offset="1" stop-color="#121318"/>
</linearGradient>
<linearGradient id="paint1_linear_27158_94844" x1="346" y1="38.6687" x2="346" y2="217.765" gradientUnits="userSpaceOnUse">
<stop stop-color="#17181C"/>
<stop offset="0.668469" stop-color="#121319"/>
</linearGradient>
<linearGradient id="paint2_linear_27158_94844" x1="605" y1="-0.852401" x2="74.5003" y2="-3.85082" gradientUnits="userSpaceOnUse">
<stop stop-color="#16171C"/>
<stop offset="0.592862" stop-color="#18191D"/>
<stop offset="1" stop-color="#191A1E"/>
</linearGradient>
<linearGradient id="paint3_linear_27158_94844" x1="190.5" y1="-12.3589" x2="475.42" y2="-103.201" gradientUnits="userSpaceOnUse">
<stop stop-color="#181920"/>
<stop offset="0.384356" stop-color="#16171B"/>
<stop offset="1" stop-color="#16171B"/>
</linearGradient>
<radialGradient id="paint4_radial_27158_94844" cx="0" cy="0" r="1" gradientUnits="userSpaceOnUse" gradientTransform="translate(29.0614 55.8009) rotate(90) scale(77.5418 97.9467)">
<stop stop-color="#0E101A"/>
<stop offset="1" stop-color="#1C1E28" stop-opacity="0.5"/>
</radialGradient>
<radialGradient id="paint5_radial_27158_94844" cx="0" cy="0" r="1" gradientUnits="userSpaceOnUse" gradientTransform="translate(28.5614 98.624) rotate(90) scale(18.2098 17.5)">
<stop offset="0.078391" stop-color="#13141B"/>
<stop offset="1" stop-color="#13141B"/>
</radialGradient>
<radialGradient id="paint6_radial_27158_94844" cx="0" cy="0" r="1" gradientUnits="userSpaceOnUse" gradientTransform="translate(138.931 -1.28743) rotate(90) scale(77.5418 97.9467)">
<stop stop-color="#0E101A"/>
<stop offset="1" stop-color="#1C1E28" stop-opacity="0.5"/>
</radialGradient>
<radialGradient id="paint7_radial_27158_94844" cx="0" cy="0" r="1" gradientUnits="userSpaceOnUse" gradientTransform="translate(138.431 41.5356) rotate(90) scale(18.2098 17.5)">
<stop offset="0.078391" stop-color="#13141B"/>
<stop offset="1" stop-color="#13141B"/>
</radialGradient>
<radialGradient id="paint8_radial_27158_94844" cx="0" cy="0" r="1" gradientUnits="userSpaceOnUse" gradientTransform="translate(239.777 44.9142) rotate(90) scale(77.5418 97.9467)">
<stop stop-color="#0E101A"/>
<stop offset="1" stop-color="#1C1E28" stop-opacity="0.5"/>
</radialGradient>
<radialGradient id="paint9_radial_27158_94844" cx="0" cy="0" r="1" gradientUnits="userSpaceOnUse" gradientTransform="translate(239.277 87.7373) rotate(90) scale(18.2098 17.5)">
<stop offset="0.078391" stop-color="#13141B"/>
<stop offset="1" stop-color="#13141B"/>
</radialGradient>
<radialGradient id="paint10_radial_27158_94844" cx="0" cy="0" r="1" gradientUnits="userSpaceOnUse" gradientTransform="translate(345.665 4.81999) rotate(90) scale(77.5418 97.9467)">
<stop stop-color="#0E101A"/>
<stop offset="1" stop-color="#1C1E28" stop-opacity="0.5"/>
</radialGradient>
<radialGradient id="paint11_radial_27158_94844" cx="0" cy="0" r="1" gradientUnits="userSpaceOnUse" gradientTransform="translate(345.165 47.643) rotate(90) scale(18.2098 17.5)">
<stop offset="0.078391" stop-color="#13141B"/>
<stop offset="1" stop-color="#13141B"/>
</radialGradient>
<radialGradient id="paint12_radial_27158_94844" cx="0" cy="0" r="1" gradientUnits="userSpaceOnUse" gradientTransform="translate(451.819 44.9142) rotate(90) scale(77.5418 97.9467)">
<stop stop-color="#0E101A"/>
<stop offset="1" stop-color="#1C1E28" stop-opacity="0.5"/>
</radialGradient>
<radialGradient id="paint13_radial_27158_94844" cx="0" cy="0" r="1" gradientUnits="userSpaceOnUse" gradientTransform="translate(451.319 87.7373) rotate(90) scale(18.2098 17.5)">
<stop offset="0.078391" stop-color="#13141B"/>
<stop offset="1" stop-color="#13141B"/>
</radialGradient>
<radialGradient id="paint14_radial_27158_94844" cx="0" cy="0" r="1" gradientUnits="userSpaceOnUse" gradientTransform="translate(555.319 -1.28743) rotate(90) scale(77.5418 97.9467)">
<stop stop-color="#0E101A"/>
<stop offset="1" stop-color="#1C1E28" stop-opacity="0.5"/>
</radialGradient>
<radialGradient id="paint15_radial_27158_94844" cx="0" cy="0" r="1" gradientUnits="userSpaceOnUse" gradientTransform="translate(554.819 41.5356) rotate(90) scale(18.2098 17.5)">
<stop offset="0.078391" stop-color="#13141B"/>
<stop offset="1" stop-color="#13141B"/>
</radialGradient>
<radialGradient id="paint16_radial_27158_94844" cx="0" cy="0" r="1" gradientUnits="userSpaceOnUse" gradientTransform="translate(656.165 55.8009) rotate(90) scale(77.5418 97.9467)">
<stop stop-color="#0E101A"/>
<stop offset="1" stop-color="#1C1E28" stop-opacity="0.5"/>
</radialGradient>
<radialGradient id="paint17_radial_27158_94844" cx="0" cy="0" r="1" gradientUnits="userSpaceOnUse" gradientTransform="translate(655.665 98.624) rotate(90) scale(18.2098 17.5)">
<stop offset="0.078391" stop-color="#13141B"/>
<stop offset="1" stop-color="#13141B"/>
</radialGradient>
<clipPath id="clip0_27158_94844">
<rect width="20" height="20" fill="white" transform="translate(545 32.6484)"/>
</clipPath>
</defs>
</svg>
