<svg width="100" height="114" viewBox="0 0 100 114" fill="none" xmlns="http://www.w3.org/2000/svg">
<path d="M54.2419 59.5054L54.2407 59.5063C50.7024 62.3532 50.1419 67.5295 52.9888 71.0678L82.0312 107.163C84.8781 110.702 90.0543 111.262 93.5926 108.415L93.5938 108.414C97.1321 105.567 97.6927 100.391 94.8458 96.8529L65.8034 60.7573C62.9565 57.219 57.7802 56.6585 54.2419 59.5054Z" fill="#13161A"/>
<path d="M88.4293 110.409C87.1545 110.412 85.8954 110.128 84.7451 109.579C83.5949 109.029 82.5828 108.228 81.7838 107.235L52.7371 71.1416C52.0357 70.2701 51.5129 69.2689 51.1984 68.1953C50.884 67.1218 50.7841 65.9967 50.9044 64.8845C51.0247 63.7723 51.3629 62.6948 51.8997 61.7133C52.4365 60.7318 53.1614 59.8657 54.033 59.1643C54.9045 58.463 55.9057 57.9401 56.9793 57.6257C58.0529 57.3112 59.1777 57.2113 60.2899 57.3317C61.4021 57.452 62.4798 57.7902 63.4613 58.327C64.4428 58.8638 65.3089 59.5887 66.0103 60.4602L95.057 96.5536C96.0644 97.8045 96.6975 99.3148 96.8831 100.91C97.0688 102.505 96.7994 104.121 96.1063 105.569C95.4131 107.018 94.3243 108.241 92.9656 109.098C91.6069 109.954 90.0338 110.409 88.4277 110.409H88.4293ZM59.3713 57.8813C57.8764 57.8817 56.4121 58.3048 55.1475 59.1019C53.883 59.8991 52.8697 61.0376 52.2246 62.3861C51.5795 63.7346 51.3291 65.2382 51.5021 66.723C51.6752 68.2078 52.2647 69.6134 53.2025 70.7774L82.2493 106.871C83.5676 108.509 85.4829 109.557 87.5737 109.784C89.6646 110.01 91.7599 109.397 93.3985 108.078C95.0371 106.76 96.0849 104.845 96.3114 102.754C96.5379 100.663 95.9245 98.5677 94.6062 96.9291L65.5594 60.8373C64.8155 59.9122 63.8731 59.1662 62.802 58.6545C61.7308 58.1428 60.5583 57.8786 59.3713 57.8813Z" fill="#25272E"/>
<path d="M63.9604 62.7254L55.4269 69.5914C52.7822 71.7193 52.3632 75.5883 54.4912 78.2331L59.1238 83.9908C61.2518 86.6355 65.1208 87.0546 67.7656 84.9266L76.2991 78.0606C78.9438 75.9327 79.3626 72.0636 77.2347 69.4188L72.6021 63.6611C70.4741 61.0164 66.6051 60.5974 63.9604 62.7254Z" fill="#13161A"/>
<path d="M63.9026 86.4635C62.9381 86.4647 61.9859 86.2489 61.1161 85.8323C60.2463 85.4156 59.4814 84.8087 58.878 84.0563L54.245 78.2999C53.1763 76.9678 52.6794 75.2663 52.8632 73.5684C53.047 71.8706 53.8965 70.3149 55.2255 69.2424L63.7582 62.3771C65.09 61.3076 66.7916 60.8102 68.4897 60.994C70.1878 61.1779 71.7436 62.0279 72.8156 63.3576L77.4486 69.1141C78.5173 70.4461 79.0142 72.1475 78.8304 73.8454C78.6466 75.5432 77.7972 77.0991 76.4682 78.1716L67.9354 85.0368C66.7943 85.9603 65.3706 86.4641 63.9026 86.4635ZM67.791 61.5523C66.4594 61.5488 65.1668 62.0019 64.1289 62.8361L55.5962 69.703C54.3888 70.6768 53.6169 72.0898 53.4499 73.6319C53.283 75.1741 53.7345 76.7195 54.7056 77.9291L59.3386 83.6871C60.3124 84.8946 61.7254 85.6665 63.2677 85.8332C64.81 85.9999 66.3554 85.5478 67.5647 84.5762L76.0974 77.711C77.3048 76.7372 78.0767 75.3242 78.2437 73.7821C78.4106 72.2399 77.959 70.6943 76.988 69.4847L72.355 63.7267C71.8057 63.0456 71.1104 62.4966 70.3205 62.1202C69.5305 61.7438 68.6661 61.5497 67.791 61.5523Z" fill="#25272E"/>
<path d="M38.8062 77.1544C59.9117 77.1544 77.0211 60.045 77.0211 38.9395C77.0211 17.834 59.9117 0.724609 38.8062 0.724609C17.7007 0.724609 0.591309 17.834 0.591309 38.9395C0.591309 60.045 17.7007 77.1544 38.8062 77.1544Z" fill="#111217"/>
<path d="M38.807 77.4597C17.5724 77.4597 0.291992 60.1841 0.291992 38.9447C0.291992 17.7053 17.5676 0.429688 38.807 0.429688C60.0464 0.429688 77.322 17.7053 77.322 38.9447C77.322 60.1841 60.0416 77.4597 38.807 77.4597ZM38.807 1.02835C17.8982 1.02835 0.887364 18.039 0.887364 38.9478C0.887364 59.8567 17.8982 76.8692 38.807 76.8692C59.7158 76.8692 76.7282 59.8583 76.7282 38.9478C76.7282 18.0374 59.7158 1.0202 38.807 1.0202V1.02835Z" fill="#25272E"/>
<path d="M38.8075 63.5516C52.4008 63.5516 63.4203 52.5321 63.4203 38.9389C63.4203 25.3457 52.4008 14.3262 38.8075 14.3262C25.2143 14.3262 14.1948 25.3457 14.1948 38.9389C14.1948 52.5321 25.2143 63.5516 38.8075 63.5516Z" fill="#111217"/>
<path d="M38.8088 63.8489C25.075 63.8489 13.9009 52.6746 13.9009 38.9392C13.9009 25.2038 25.075 14.0312 38.8088 14.0312C52.5427 14.0312 63.7184 25.2054 63.7184 38.9392C63.7184 52.673 52.5427 63.8489 38.8088 63.8489ZM38.8088 14.6219C25.4008 14.6219 14.4914 25.5344 14.4914 38.9392C14.4914 52.344 25.404 63.2582 38.8088 63.2582C52.2137 63.2582 63.1279 52.3457 63.1279 38.9392C63.1279 25.5328 52.2169 14.6219 38.8088 14.6219Z" fill="#25272E"/>
<path d="M36.563 20.448L34.0024 55.4834L34.5914 55.5264L37.1519 20.4911L36.563 20.448Z" fill="#25272E"/>
<path d="M41.9159 34.8267L40.541 45.4565L41.1267 45.5323L42.5016 34.9024L41.9159 34.8267Z" fill="#25272E"/>
<path d="M73.5135 37.5323C73.2516 37.5316 72.9988 37.4361 72.8018 37.2636C72.6048 37.091 72.4768 36.853 72.4415 36.5934C71.0181 26.0018 66.2102 17.7051 58.1493 11.9439C52.1057 7.62379 46.391 6.42333 46.3348 6.41049C46.0535 6.35367 45.8062 6.18744 45.6474 5.94833C45.4887 5.70922 45.4314 5.41692 45.4882 5.13559C45.545 4.85425 45.7113 4.60698 45.9504 4.44822C46.1895 4.28947 46.4819 4.23218 46.7633 4.289C47.012 4.33875 52.9192 5.57281 59.3303 10.1272C65.252 14.3366 72.7063 22.2948 74.5871 36.3046C74.6063 36.4454 74.5975 36.5886 74.5613 36.726C74.525 36.8634 74.4621 36.9924 74.3759 37.1054C74.2897 37.2184 74.1821 37.3132 74.0592 37.3845C73.9362 37.4559 73.8004 37.5023 73.6595 37.521C73.6112 37.5287 73.5624 37.5325 73.5135 37.5323Z" fill="#111217"/>
<path d="M22.1427 70.0094C21.9757 70.0096 21.811 69.9711 21.6613 69.897C13.5539 65.8963 9.00752 59.092 6.6228 54.0883C4.05514 48.6897 3.38111 44.2717 3.35382 44.0856C3.31507 43.8032 3.38907 43.5169 3.55991 43.2888C3.73075 43.0607 3.98471 42.9092 4.26655 42.8669C4.54839 42.8247 4.83547 42.8953 5.06565 43.0633C5.29584 43.2313 5.45048 43.4833 5.49616 43.7646C5.49616 43.8063 6.15571 48.0976 8.60623 53.212C10.8529 57.8836 15.0928 64.2337 22.6193 67.9471C22.8385 68.0556 23.0145 68.235 23.1188 68.4562C23.223 68.6773 23.2495 68.9273 23.1937 69.1653C23.1379 69.4034 23.0031 69.6155 22.8115 69.7673C22.6198 69.9191 22.3824 70.0015 22.1379 70.0012L22.1427 70.0094Z" fill="#111217"/>
<path d="M32.2381 84.3098C20.483 84.3098 12.5985 79.5629 7.9302 75.3695C2.39366 70.3947 0.126137 65.2595 0.0314547 65.0476C-0.010043 64.9519 -0.0117756 64.8435 0.0265964 64.7464C0.0649684 64.6494 0.140364 64.5715 0.236128 64.53C0.331892 64.4885 0.440125 64.4868 0.537184 64.5251C0.634242 64.5635 0.712113 64.6389 0.753611 64.7347C0.776078 64.786 3.06136 69.9518 8.48075 74.8079C13.4733 79.2804 22.2306 84.3982 35.6017 83.3952C35.6534 83.3909 35.7052 83.3967 35.7545 83.4126C35.8038 83.4286 35.8495 83.4542 35.8888 83.488C35.9281 83.5218 35.9603 83.563 35.9835 83.6093C36.0067 83.6556 36.0203 83.7062 36.0238 83.7579C36.0277 83.8094 36.0214 83.8612 36.0053 83.9104C35.9892 83.9595 35.9636 84.0048 35.9299 84.044C35.8962 84.0832 35.8552 84.1154 35.8091 84.1387C35.7629 84.162 35.7127 84.1761 35.6611 84.1799C34.4832 84.2687 33.3422 84.312 32.2381 84.3098Z" fill="#25272E"/>
</svg>
