<svg width="100" height="114" viewBox="0 0 100 114" fill="none" xmlns="http://www.w3.org/2000/svg">
<path d="M54.2415 59.5053L54.2402 59.5063C50.7019 62.3532 50.1414 67.5296 52.9883 71.0679L82.031 107.164C84.878 110.702 90.0542 111.263 93.5925 108.416L93.5938 108.415C97.1321 105.568 97.6927 100.392 94.8458 96.8532L65.8031 60.7572C62.9561 57.2189 57.7798 56.6584 54.2415 59.5053Z" fill="#EBECEE"/>
<path d="M88.4287 110.41C87.1539 110.413 85.8948 110.129 84.7445 109.579C83.5942 109.03 82.5821 108.229 81.7831 107.236L52.7361 71.1418C52.0347 70.2702 51.5119 69.2691 51.1974 68.1955C50.883 67.1219 50.7831 65.9968 50.9034 64.8846C51.0238 63.7724 51.362 62.6949 51.8988 61.7134C52.4356 60.7319 53.1605 59.8657 54.032 59.1643C54.9036 58.463 55.9048 57.9401 56.9784 57.6257C58.052 57.3112 59.1768 57.2113 60.2891 57.3317C61.4013 57.452 62.4789 57.7902 63.4604 58.327C64.4419 58.8638 65.3081 59.5887 66.0095 60.4602L95.0565 96.554C96.0639 97.8049 96.6969 99.3152 96.8826 100.91C97.0682 102.506 96.7989 104.121 96.1057 105.57C95.4125 107.019 94.3238 108.242 92.9651 109.098C91.6064 109.955 90.0332 110.409 88.4271 110.41H88.4287ZM59.3704 57.8813C57.8755 57.8817 56.4112 58.3048 55.1466 59.102C53.882 59.8991 52.8687 61.0377 52.2236 62.3862C51.5786 63.7347 51.3281 65.2383 51.5012 66.7231C51.6742 68.2079 52.2637 69.6135 53.2016 70.7776L82.2486 106.871C83.567 108.51 85.4822 109.558 87.5731 109.784C89.6641 110.011 91.7593 109.397 93.3979 108.079C95.0366 106.76 96.0844 104.845 96.3109 102.754C96.5373 100.663 95.924 98.5681 94.6056 96.9295L65.5586 60.8373C64.8147 59.9122 63.8722 59.1662 62.8011 58.6545C61.73 58.1428 60.5574 57.8786 59.3704 57.8813Z" fill="#9EA3B5"/>
<path d="M63.9624 62.7262L55.4289 69.5923C52.7841 71.7203 52.3652 75.5893 54.4932 78.2341L59.1258 83.9919C61.2538 86.6366 65.1229 87.0557 67.7677 84.9277L76.3013 78.0617C78.946 75.9337 79.3649 72.0645 77.2369 69.4198L72.6042 63.662C70.4763 61.0172 66.6072 60.5983 63.9624 62.7262Z" fill="#EBECEE"/>
<path d="M63.9046 86.4643C62.9402 86.4655 61.9879 86.2497 61.1181 85.833C60.2484 85.4163 59.4834 84.8094 58.88 84.057L54.2469 78.3006C53.1782 76.9685 52.6813 75.2669 52.8651 73.5691C53.0489 71.8712 53.8985 70.3155 55.2275 69.243L63.7603 62.3776C65.092 61.308 66.7937 60.8107 68.4918 60.9945C70.1899 61.1783 71.7457 62.0284 72.8177 63.3582L77.4508 69.1146C78.5195 70.4467 79.0164 72.1481 78.8326 73.846C78.6488 75.5439 77.7994 77.0997 76.4704 78.1722L67.9375 85.0375C66.7964 85.9611 65.3727 86.4648 63.9046 86.4643ZM67.7931 61.5527C66.4615 61.5493 65.1689 62.0024 64.1309 62.8366L55.5982 69.7036C54.3907 70.6774 53.6189 72.0904 53.4519 73.6325C53.2849 75.1747 53.7365 76.7201 54.7075 77.9298L59.3406 83.6878C60.3144 84.8954 61.7274 85.6672 63.2697 85.8339C64.812 86.0006 66.3575 85.5485 67.5668 84.5769L76.0996 77.7116C77.307 76.7378 78.0789 75.3248 78.2459 73.7827C78.4128 72.2405 77.9612 70.6949 76.9902 69.4853L72.3571 63.7272C71.8078 63.0461 71.1126 62.4971 70.3226 62.1207C69.5326 61.7443 68.6682 61.5502 67.7931 61.5527Z" fill="#9EA3B5"/>
<path d="M38.8066 77.1551C59.9123 77.1551 77.0218 60.0456 77.0218 38.9399C77.0218 17.8342 59.9123 0.724609 38.8066 0.724609C17.7009 0.724609 0.591309 17.8342 0.591309 38.9399C0.591309 60.0456 17.7009 77.1551 38.8066 77.1551Z" fill="#FCFCFC"/>
<path d="M38.8079 77.46C17.573 77.46 0.29248 60.1842 0.29248 38.9446C0.29248 17.705 17.5682 0.429199 38.8079 0.429199C60.0475 0.429199 77.3232 17.705 77.3232 38.9446C77.3232 60.1842 60.0427 77.46 38.8079 77.46ZM38.8079 1.02787C17.8988 1.02787 0.887858 18.0387 0.887858 38.9477C0.887858 59.8568 17.8988 76.8694 38.8079 76.8694C59.7169 76.8694 76.7294 59.8584 76.7294 38.9477C76.7294 18.0371 59.7169 1.01972 38.8079 1.01972V1.02787Z" fill="#9EA3B5"/>
<path d="M38.8068 63.5531C52.4002 63.5531 63.4198 52.5335 63.4198 38.9401C63.4198 25.3468 52.4002 14.3271 38.8068 14.3271C25.2135 14.3271 14.1938 25.3468 14.1938 38.9401C14.1938 52.5335 25.2135 63.5531 38.8068 63.5531Z" fill="#FCFCFC"/>
<path d="M38.8081 63.8499C25.0742 63.8499 13.8999 52.6755 13.8999 38.94C13.8999 25.2044 25.0742 14.0317 38.8081 14.0317C52.5421 14.0317 63.7179 25.206 63.7179 38.94C63.7179 52.6739 52.5421 63.8499 38.8081 63.8499ZM38.8081 14.6224C25.3999 14.6224 14.4904 25.535 14.4904 38.94C14.4904 52.3449 25.4032 63.2592 38.8081 63.2592C52.2131 63.2592 63.1274 52.3465 63.1274 38.94C63.1274 25.5334 52.2163 14.6224 38.8081 14.6224Z" fill="#9EA3B5"/>
<path d="M36.562 20.4487L34.0015 55.4844L34.5904 55.5274L37.151 20.4917L36.562 20.4487Z" fill="#9EA3B5"/>
<path d="M41.9155 34.8261L40.5405 45.4561L41.1262 45.5318L42.5011 34.9018L41.9155 34.8261Z" fill="#9EA3B5"/>
<path d="M73.5142 37.5322C73.2523 37.5314 72.9996 37.4359 72.8026 37.2634C72.6055 37.0908 72.4775 36.8528 72.4423 36.5933C71.0188 26.0015 66.2109 17.7047 58.1499 11.9435C52.1062 7.62333 46.3915 6.42286 46.3353 6.41002C46.054 6.3532 45.8067 6.18697 45.6479 5.94785C45.4892 5.70874 45.4319 5.41644 45.4887 5.13511C45.5455 4.85377 45.7118 4.60649 45.9509 4.44774C46.19 4.28898 46.4824 4.23169 46.7638 4.28851C47.0125 4.33826 52.9197 5.57234 59.331 10.1268C65.2527 14.3362 72.7071 22.2945 74.5879 36.3044C74.6071 36.4452 74.5983 36.5884 74.5621 36.7258C74.5258 36.8633 74.4628 36.9923 74.3767 37.1053C74.2905 37.2183 74.1828 37.313 74.0599 37.3844C73.937 37.4557 73.8012 37.5021 73.6603 37.5209C73.612 37.5285 73.5631 37.5323 73.5142 37.5322Z" fill="#FCFCFC"/>
<path d="M22.1434 70.0092C21.9764 70.0093 21.8116 69.9709 21.662 69.8968C13.5545 65.896 9.00807 59.0917 6.62332 54.0879C4.05563 48.6893 3.38159 44.2713 3.35431 44.0851C3.31555 43.8028 3.38956 43.5164 3.5604 43.2883C3.73124 43.0602 3.9852 42.9087 4.26705 42.8664C4.54889 42.8242 4.83597 42.8948 5.06616 43.0628C5.29635 43.2308 5.45098 43.4828 5.49667 43.7641C5.49667 43.8059 6.15622 48.0971 8.60677 53.2117C10.8535 57.8833 15.0934 64.2334 22.62 67.9469C22.8391 68.0553 23.0152 68.2348 23.1195 68.4559C23.2237 68.6771 23.2502 68.927 23.1944 69.1651C23.1386 69.4031 23.0038 69.6152 22.8121 69.767C22.6205 69.9188 22.3831 70.0013 22.1386 70.001L22.1434 70.0092Z" fill="#FCFCFC"/>
<path d="M32.2389 84.3091C20.4837 84.3091 12.5991 79.562 7.93076 75.3687C2.39418 70.3938 0.126627 65.2585 0.0319433 65.0467C-0.00955481 64.9509 -0.0112874 64.8425 0.027085 64.7454C0.0654574 64.6484 0.140854 64.5705 0.236619 64.529C0.332384 64.4875 0.440618 64.4858 0.537677 64.5242C0.634737 64.5625 0.712609 64.6379 0.754107 64.7337C0.776574 64.785 3.06188 69.9508 8.48132 74.807C13.4739 79.2796 22.2313 84.3974 35.6026 83.3944C35.6542 83.3901 35.7061 83.3959 35.7554 83.4118C35.8047 83.4278 35.8504 83.4534 35.8897 83.4872C35.929 83.521 35.9612 83.5622 35.9843 83.6085C36.0075 83.6549 36.0212 83.7054 36.0246 83.7571C36.0286 83.8086 36.0222 83.8605 36.0061 83.9096C35.99 83.9587 35.9644 84.0041 35.9307 84.0433C35.8971 84.0825 35.856 84.1146 35.8099 84.1379C35.7638 84.1612 35.7135 84.1753 35.662 84.1791C34.484 84.2679 33.343 84.3112 32.2389 84.3091Z" fill="#9EA3B5"/>
</svg>
