<svg width="18" height="18" viewBox="0 0 18 18" fill="none" xmlns="http://www.w3.org/2000/svg">
<g clip-path="url(#clip0_27158_267829)">
<g clip-path="url(#clip1_27158_267829)">
<path d="M17.186 0.75H0.813965V17.25H17.186V0.75Z" fill="#C8414B"/>
<path d="M17.186 4.22363H0.813965V13.7762H17.186V4.22363Z" fill="#FFD250"/>
<path d="M7.94766 9.01307L8.21163 7.93657C8.23593 7.83745 8.15268 7.74341 8.04063 7.74341H7.85469C7.74263 7.74341 7.65936 7.83745 7.68369 7.93657L7.94766 9.01307Z" fill="#C8414B"/>
<path d="M8.25891 8.44849H7.63623V10.8468H8.25891V8.44849Z" fill="#F5F5F5"/>
<path d="M8.41501 8.1665H7.48096V8.44868H8.41501V8.1665Z" fill="#FAB446"/>
<path d="M8.41445 9.01318H6.85791V9.29536H8.41445V9.01318Z" fill="#C8414B"/>
<path d="M8.41474 10.1417L7.48071 9.85954V9.57739L8.41474 9.85954V10.1417Z" fill="#C8414B"/>
<path d="M3.27774 9.01307L3.5417 7.93657C3.566 7.83745 3.48276 7.74341 3.37071 7.74341H3.18476C3.07271 7.74341 2.98944 7.83745 3.01377 7.93657L3.27774 9.01307Z" fill="#C8414B"/>
<path d="M4.36725 8.16675C4.19532 8.16675 4.05591 8.29304 4.05591 8.44892V10.2829C4.05591 10.6257 4.40895 11.2704 5.61261 11.2704C6.81627 11.2704 7.16932 10.6257 7.16932 10.2829V8.44892C7.16932 8.29311 7.02994 8.16675 6.85798 8.16675H4.36725Z" fill="#F5F5F5"/>
<path d="M5.61261 9.5775H4.05591V8.46314C4.05591 8.29946 4.18862 8.16675 4.3523 8.16675H5.61258V9.5775H5.61261Z" fill="#C8414B"/>
<path d="M5.61255 9.57739H7.16925V10.2472C7.16925 10.6564 6.83751 10.9881 6.4283 10.9881H6.35353C5.94432 10.9881 5.61258 10.6564 5.61258 10.2472L5.61255 9.57739Z" fill="#C8414B"/>
<path d="M4.05591 9.57739H5.61261V10.2472C5.61261 10.6564 5.28087 10.9881 4.87166 10.9881H4.79689C4.38768 10.9881 4.05594 10.6564 4.05594 10.2472L4.05591 9.57739Z" fill="#FAB446"/>
<path d="M5.30158 10.8439V9.57739H4.99023V10.9739C5.10599 10.9526 5.21066 10.9061 5.30158 10.8439Z" fill="#C8414B"/>
<path d="M4.67877 10.9739V9.57739H4.36743V10.8439C4.45834 10.9061 4.56298 10.9526 4.67877 10.9739Z" fill="#C8414B"/>
<path d="M5.30124 9.01318H4.36719V9.29536H5.30124V9.01318Z" fill="#FFB441"/>
<path d="M5.30124 8.44849H4.36719V8.73066H5.30124V8.44849Z" fill="#FAB446"/>
<path d="M5.14587 8.61646H4.52319V9.1276H5.14587V8.61646Z" fill="#FAB446"/>
<path d="M3.58899 8.44849H2.96631V10.8468H3.58899V8.44849Z" fill="#F5F5F5"/>
<path d="M3.7446 10.7061H2.81055V10.9882H3.7446V10.7061Z" fill="#FAB446"/>
<path d="M3.7446 8.1665H2.81055V8.44868H3.7446V8.1665Z" fill="#FAB446"/>
<path d="M3.90036 10.9883H2.65503V11.2705H3.90036V10.9883Z" fill="#5064AA"/>
<path d="M8.57029 10.7061H7.63623V10.9882H8.57029V10.7061Z" fill="#FAB446"/>
<path d="M8.57053 10.9883H7.3252V11.2705H8.57053V10.9883Z" fill="#5064AA"/>
<path d="M6.54679 7.88452H4.67871V8.1667H6.54679V7.88452Z" fill="#FAB446"/>
<path d="M5.76837 7.03833H5.45703V7.88492H5.76837V7.03833Z" fill="#FFB441"/>
<path d="M5.30147 7.46139C5.04395 7.46139 4.83447 7.27154 4.83447 7.03819C4.83447 6.80484 5.04395 6.61499 5.30147 6.61499C5.55899 6.61499 5.76846 6.80484 5.76846 7.03819C5.76843 7.27154 5.55896 7.46139 5.30147 7.46139ZM5.30147 6.8971C5.21558 6.8971 5.14581 6.96036 5.14581 7.03819C5.14581 7.11602 5.21558 7.17928 5.30147 7.17928C5.38735 7.17928 5.45712 7.11602 5.45712 7.03819C5.45712 6.96033 5.38735 6.8971 5.30147 6.8971Z" fill="#F5F5F5"/>
<path d="M5.92403 7.46139C5.6665 7.46139 5.45703 7.27154 5.45703 7.03819C5.45703 6.80484 5.6665 6.61499 5.92403 6.61499C6.18155 6.61499 6.39102 6.80484 6.39102 7.03819C6.39099 7.27154 6.18155 7.46139 5.92403 7.46139ZM5.92403 6.8971C5.83814 6.8971 5.76837 6.96036 5.76837 7.03819C5.76837 7.11602 5.83814 7.17928 5.92403 7.17928C6.00991 7.17928 6.07968 7.11602 6.07968 7.03819C6.07968 6.96033 6.00991 6.8971 5.92403 6.8971Z" fill="#F5F5F5"/>
<path d="M6.54659 7.74362C6.28906 7.74362 6.07959 7.55377 6.07959 7.32042C6.07959 7.08706 6.28906 6.89722 6.54659 6.89722C6.80411 6.89722 7.01358 7.08706 7.01358 7.32042C7.01358 7.55377 6.80408 7.74362 6.54659 7.74362ZM6.54659 7.1793C6.4607 7.1793 6.39093 7.24256 6.39093 7.32038C6.39093 7.39821 6.4607 7.46147 6.54659 7.46147C6.63247 7.46147 6.70224 7.39821 6.70224 7.32038C6.70224 7.24252 6.63247 7.1793 6.54659 7.1793Z" fill="#F5F5F5"/>
<path d="M4.67866 7.74362C4.42114 7.74362 4.21167 7.55377 4.21167 7.32042C4.21167 7.08706 4.42114 6.89722 4.67866 6.89722C4.93619 6.89722 5.14566 7.08706 5.14566 7.32042C5.14563 7.55377 4.93616 7.74362 4.67866 7.74362ZM4.67866 7.1793C4.59278 7.1793 4.52301 7.24256 4.52301 7.32038C4.52301 7.39821 4.59278 7.46147 4.67866 7.46147C4.76455 7.46147 4.83432 7.39821 4.83432 7.32038C4.83432 7.24252 4.76455 7.1793 4.67866 7.1793Z" fill="#F5F5F5"/>
<path d="M6.54679 10.1418V10.2829C6.54679 10.3606 6.47695 10.4239 6.39113 10.4239C6.30531 10.4239 6.23548 10.3606 6.23548 10.2829V10.1418H6.54679ZM6.85809 9.85962H5.92407V10.2828C5.92407 10.5162 6.13358 10.706 6.39107 10.706C6.64859 10.706 6.85806 10.5162 6.85806 10.2828L6.85809 9.85962Z" fill="#FAB446"/>
<path d="M6.40588 9.29519H6.37598C6.2123 9.29519 6.07959 9.16248 6.07959 8.99881V8.74512C6.07959 8.58144 6.2123 8.44873 6.37598 8.44873H6.40588C6.56956 8.44873 6.70227 8.58144 6.70227 8.74512V8.99881C6.70227 9.16255 6.56956 9.29519 6.40588 9.29519Z" fill="#FFA0D2"/>
<path d="M5.61275 10.0006C5.87066 10.0006 6.07974 9.81112 6.07974 9.57743C6.07974 9.34374 5.87066 9.1543 5.61275 9.1543C5.35483 9.1543 5.14575 9.34374 5.14575 9.57743C5.14575 9.81112 5.35483 10.0006 5.61275 10.0006Z" fill="#5064AA"/>
<path d="M5.76837 6.47388H5.45703V7.32047H5.76837V6.47388Z" fill="#FAB446"/>
<path d="M4.67877 7.88455L4.36743 7.60237L4.5498 7.43708C4.83172 7.18159 5.21409 7.03809 5.61276 7.03809C6.01144 7.03809 6.39384 7.18162 6.67572 7.43708L6.85809 7.60237L6.54675 7.88455H4.67877Z" fill="#C8414B"/>
<path d="M5.61269 7.74336C5.69865 7.74336 5.76834 7.68019 5.76834 7.60227C5.76834 7.52435 5.69865 7.46118 5.61269 7.46118C5.52672 7.46118 5.45703 7.52435 5.45703 7.60227C5.45703 7.68019 5.52672 7.74336 5.61269 7.74336Z" fill="#FFD250"/>
<path d="M4.99013 7.74336C5.07609 7.74336 5.14578 7.68019 5.14578 7.60227C5.14578 7.52435 5.07609 7.46118 4.99013 7.46118C4.90416 7.46118 4.83447 7.52435 4.83447 7.60227C4.83447 7.68019 4.90416 7.74336 4.99013 7.74336Z" fill="#FFD250"/>
<path d="M6.23524 7.74336C6.32121 7.74336 6.3909 7.68019 6.3909 7.60227C6.3909 7.52435 6.32121 7.46118 6.23524 7.46118C6.14928 7.46118 6.07959 7.52435 6.07959 7.60227C6.07959 7.68019 6.14928 7.74336 6.23524 7.74336Z" fill="#FFD250"/>
<path d="M4.36709 9.01318H2.81055V9.29536H4.36709V9.01318Z" fill="#C8414B"/>
<path d="M2.81055 10.1417L3.74457 9.85954V9.57739L2.81055 9.85954V10.1417Z" fill="#C8414B"/>
</g>
</g>
<defs>
<clipPath id="clip0_27158_267829">
<rect width="18" height="18" rx="9" fill="white"/>
</clipPath>
<clipPath id="clip1_27158_267829">
<rect x="0.75" y="0.75" width="16.5" height="16.5" rx="8.25" fill="white"/>
</clipPath>
</defs>
</svg>
