<svg width="50" height="50" viewBox="0 0 50 50" fill="none" xmlns="http://www.w3.org/2000/svg">
<path d="M19 3.4641C22.7128 1.32051 27.2872 1.32051 31 3.4641L40.6506 9.0359C44.3634 11.1795 46.6506 15.141 46.6506 19.4282V30.5718C46.6506 34.859 44.3634 38.8205 40.6506 40.9641L31 46.5359C27.2872 48.6795 22.7128 48.6795 19 46.5359L9.34937 40.9641C5.63655 38.8205 3.34937 34.859 3.34937 30.5718V19.4282C3.34937 15.141 5.63655 11.1795 9.34937 9.0359L19 3.4641Z" fill="#FFF5EF"/>
<path d="M19.25 3.89711C22.8081 1.84284 27.1919 1.84284 30.75 3.89711L40.4006 9.46891C43.9587 11.5232 46.1506 15.3196 46.1506 19.4282V30.5718C46.1506 34.6804 43.9587 38.4768 40.4006 40.5311L30.75 46.1029C27.1919 48.1572 22.8081 48.1572 19.25 46.1029L9.59937 40.5311C6.04125 38.4768 3.84937 34.6803 3.84937 30.5718V19.4282C3.84937 15.3196 6.04125 11.5232 9.59937 9.46891L19.25 3.89711Z" stroke="#FF6F1E" stroke-opacity="0.2"/>
<path opacity="0.1" d="M28.462 15.2378H21.5008C19.8322 15.2592 18.2393 15.9372 17.067 17.1248C15.8947 18.3123 15.2374 19.9139 15.2375 21.5826V28.3263C15.2374 29.995 15.8947 31.5966 17.067 32.7842C18.2393 33.9717 19.8322 34.6497 21.5008 34.6711H28.462C30.1306 34.6497 31.7235 33.9717 32.8958 32.7842C34.0681 31.5966 34.7254 29.995 34.7253 28.3263V21.6098C34.7254 19.9411 34.0681 18.3395 32.8958 17.1519C31.7235 15.9644 30.1306 15.2864 28.462 15.265V15.2378Z" fill="#FF6F1E"/>
<path d="M28.5199 16.475C29.1892 16.481 29.8508 16.6188 30.4669 16.8805C31.0829 17.1421 31.6414 17.5226 32.1104 18.0001C32.5795 18.4777 32.9498 19.0429 33.2004 19.6636C33.4509 20.2842 33.5768 20.9482 33.5708 21.6175V28.4375C33.5768 29.1068 33.4509 29.7708 33.2004 30.3914C32.9498 31.0121 32.5795 31.5773 32.1104 32.0549C31.6414 32.5324 31.0829 32.9129 30.4669 33.1746C29.8508 33.4362 29.1892 33.574 28.5199 33.58H21.4799C20.8106 33.574 20.149 33.4362 19.533 33.1746C18.9169 32.9129 18.3584 32.5324 17.8894 32.0549C17.4204 31.5773 17.05 31.0121 16.7995 30.3914C16.5489 29.7708 16.423 29.1068 16.4291 28.4375V21.6175C16.423 20.9482 16.5489 20.2842 16.7995 19.6636C17.05 19.0429 17.4204 18.4777 17.8894 18.0001C18.3584 17.5226 18.9169 17.1421 19.533 16.8805C20.149 16.6188 20.8106 16.481 21.4799 16.475H28.5199ZM27.3833 20.2517H28.0249C26.3512 22.2484 23.9695 23.5197 21.3791 23.7992C21.2065 23.7992 21.0409 23.8677 20.9189 23.9898C20.7968 24.1119 20.7283 24.2774 20.7283 24.45C20.7283 24.6226 20.7968 24.7882 20.9189 24.9102C21.0409 25.0323 21.2065 25.1008 21.3791 25.1008C24.2046 24.8337 26.8244 23.5074 28.7124 21.3883V21.6267C28.7124 21.7969 28.78 21.9601 28.9004 22.0804C29.0207 22.2007 29.1839 22.2683 29.3541 22.2683C29.5243 22.2683 29.6875 22.2007 29.8078 22.0804C29.9281 21.9601 29.9958 21.7969 29.9958 21.6267V19.6008C29.9958 19.6008 29.9958 19.6008 29.9958 19.5458V19.4175C29.9844 19.3793 29.9691 19.3424 29.9499 19.3075C29.934 19.2707 29.9124 19.2366 29.8858 19.2067L29.8033 19.1058H29.7391C29.7029 19.0489 29.6477 19.0066 29.5833 18.9867C29.541 18.9772 29.4972 18.9772 29.4549 18.9867H29.3908H27.3833C27.2228 19.0057 27.0749 19.0829 26.9675 19.2037C26.8602 19.3245 26.8009 19.4805 26.8009 19.6421C26.8009 19.8037 26.8602 19.9597 26.9675 20.0805C27.0749 20.2013 27.2228 20.2785 27.3833 20.2975M29.3816 31.3525C29.4666 31.3525 29.5508 31.3356 29.6293 31.3028C29.7077 31.27 29.7789 31.2219 29.8386 31.1613C29.8983 31.1008 29.9454 31.029 29.9771 30.95C30.0088 30.8711 30.0245 30.7867 30.0233 30.7017V24.8258C30.0233 24.7416 30.0067 24.6581 29.9744 24.5803C29.9422 24.5024 29.8949 24.4317 29.8353 24.3721C29.7757 24.3125 29.705 24.2653 29.6271 24.233C29.5493 24.2008 29.4658 24.1842 29.3816 24.1842C29.2973 24.1842 29.2139 24.2008 29.136 24.233C29.0582 24.2653 28.9874 24.3125 28.9279 24.3721C28.8683 24.4317 28.821 24.5024 28.7888 24.5803C28.7565 24.6581 28.7399 24.7416 28.7399 24.8258V30.6558C28.7387 30.7409 28.7544 30.8253 28.7861 30.9042C28.8178 30.9831 28.8649 31.0549 28.9246 31.1155C28.9843 31.1761 29.0554 31.2241 29.1339 31.257C29.2123 31.2898 29.2965 31.3067 29.3816 31.3067M25.3116 31.3067C25.3966 31.3067 25.4808 31.2898 25.5593 31.257C25.6377 31.2241 25.7089 31.1761 25.7686 31.1155C25.8283 31.0549 25.8754 30.9831 25.9071 30.9042C25.9388 30.8253 25.9545 30.7409 25.9533 30.6558V27.1175C25.9533 26.9473 25.8856 26.7841 25.7653 26.6638C25.645 26.5434 25.4818 26.4758 25.3116 26.4758C25.1414 26.4758 24.9782 26.5434 24.8579 26.6638C24.7375 26.7841 24.6699 26.9473 24.6699 27.1175V30.6558C24.6687 30.7409 24.6844 30.8253 24.7161 30.9042C24.7478 30.9831 24.7949 31.0549 24.8546 31.1155C24.9143 31.1761 24.9854 31.2241 25.0639 31.257C25.1423 31.2898 25.2265 31.3067 25.3116 31.3067ZM21.1866 31.3067C21.2716 31.3067 21.3558 31.2898 21.4343 31.257C21.5127 31.2241 21.5839 31.1761 21.6436 31.1155C21.7033 31.0549 21.7504 30.9831 21.7821 30.9042C21.8138 30.8253 21.8295 30.7409 21.8283 30.6558V28.2083C21.8391 28.1183 21.8307 28.0269 21.8036 27.9403C21.7765 27.8537 21.7314 27.7739 21.6712 27.706C21.611 27.6381 21.5371 27.5838 21.4543 27.5466C21.3716 27.5094 21.2819 27.4901 21.1912 27.4901C21.1004 27.4901 21.0107 27.5094 20.928 27.5466C20.8453 27.5838 20.7713 27.6381 20.7111 27.706C20.6509 27.7739 20.6058 27.8537 20.5787 27.9403C20.5517 28.0269 20.5433 28.1183 20.5541 28.2083V30.6558C20.5529 30.7401 20.5683 30.8238 20.5994 30.9021C20.6305 30.9804 20.6768 31.0518 20.7355 31.1123C20.7943 31.1727 20.8643 31.221 20.9417 31.2543C21.0191 31.2877 21.1023 31.3055 21.1866 31.3067ZM28.5199 15.1733H21.4799C19.7924 15.195 18.1815 15.8806 16.9959 17.0817C15.8103 18.2827 15.1456 19.9024 15.1458 21.59V28.41C15.1456 30.0976 15.8103 31.7173 16.9959 32.9184C18.1815 34.1194 19.7924 34.805 21.4799 34.8267H28.5199C30.2074 34.805 31.8184 34.1194 33.0039 32.9184C34.1895 31.7173 34.8542 30.0976 34.8541 28.41V21.6175C34.8542 19.9299 34.1895 18.3102 33.0039 17.1092C31.8184 15.9081 30.2074 15.2225 28.5199 15.2008V15.1733Z" fill="#FF6F1E"/>
</svg>
