<svg width="22" height="22" viewBox="0 0 22 22" fill="none" xmlns="http://www.w3.org/2000/svg">
<path fill-rule="evenodd" clip-rule="evenodd" d="M6.07926 0.916748H12.8269L18.5387 6.87596V18.46C18.5387 19.909 17.3642 21.0834 15.9152 21.0834H6.07926C4.63023 21.0834 3.45581 19.909 3.45581 18.46V3.5402C3.45581 2.0912 4.63023 0.916748 6.07926 0.916748Z" fill="#FF6600"/>
<path opacity="0.302" fill-rule="evenodd" clip-rule="evenodd" d="M12.8187 0.916748V6.82701H18.5387L12.8187 0.916748Z" fill="white"/>
<path d="M7.44125 15.0319C7.07423 15.0319 6.75073 14.9204 6.47615 14.6948C6.20157 14.4691 6.05205 14.1918 6.02759 13.8629L6.82686 13.6291C6.8459 13.8085 6.91658 13.958 7.04706 14.0776C7.17485 14.1945 7.31892 14.2543 7.48204 14.2543C7.61798 14.2543 7.72671 14.2244 7.811 14.1646C7.89256 14.1048 7.93605 14.0287 7.93605 13.9308C7.93605 13.852 7.90071 13.784 7.83546 13.7269C7.7702 13.6725 7.68321 13.6263 7.57991 13.5937C7.47389 13.5584 7.35426 13.523 7.2265 13.4877C7.09601 13.4551 6.9655 13.4088 6.83774 13.3545C6.70996 13.2974 6.59308 13.2321 6.48705 13.156C6.38103 13.0799 6.29404 12.9739 6.22878 12.8352C6.16353 12.6993 6.13091 12.5389 6.13091 12.354C6.13091 12.0577 6.2587 11.8076 6.51151 11.6091C6.76706 11.4106 7.07428 11.3101 7.43585 11.3101C7.79199 11.3101 8.10463 11.397 8.36833 11.5711C8.63476 11.7423 8.80058 11.9707 8.86584 12.2507L8.03395 12.5987C7.99588 12.4437 7.9252 12.3187 7.81918 12.229C7.71588 12.1365 7.58809 12.0903 7.43585 12.0903C7.31894 12.0903 7.22652 12.1121 7.15854 12.161C7.09058 12.2072 7.05524 12.2698 7.05524 12.3486C7.05524 12.4274 7.10147 12.49 7.19118 12.5362C7.2809 12.5851 7.39235 12.6205 7.52556 12.6449C7.65877 12.6667 7.80557 12.7047 7.96054 12.7564C8.11821 12.808 8.26231 12.8706 8.39552 12.9494C8.52873 13.0255 8.64018 13.1451 8.7299 13.3083C8.81962 13.4741 8.86584 13.6726 8.86584 13.9036C8.86584 14.2408 8.73535 14.5126 8.47436 14.722C8.21061 14.9285 7.86807 15.0319 7.44125 15.0319ZM10.2061 14.9911L8.92289 11.3509H9.86896L10.6438 13.8683L11.4294 11.3509H12.3701L11.0869 14.9911H10.2061ZM14.1807 15.0319C13.6777 15.0319 13.2509 14.8687 12.8975 14.5452C12.5468 14.219 12.3701 13.7623 12.3701 13.1724C12.3701 12.7727 12.4598 12.4302 12.6419 12.142C12.8214 11.8538 13.0497 11.6445 13.3297 11.5113C13.6097 11.3781 13.9169 11.3101 14.2568 11.3101C14.7298 11.3101 15.1159 11.4216 15.4149 11.6445C15.7139 11.8701 15.8988 12.1828 15.9695 12.5851L15.0533 12.77C15.0153 12.5661 14.9228 12.403 14.776 12.2834C14.6292 12.161 14.4525 12.1012 14.2486 12.1012C13.9631 12.1012 13.7348 12.1964 13.5581 12.3894C13.3841 12.5824 13.2944 12.8434 13.2944 13.1724C13.2944 13.5013 13.3814 13.7623 13.5554 13.9553C13.7294 14.1457 13.955 14.2435 14.2323 14.2435C14.4444 14.2435 14.6211 14.1946 14.7679 14.094C14.912 13.9961 14.999 13.8657 15.0262 13.708H14.129V12.9793H15.8852V14.9911H15.037V14.6703C14.9664 14.779 14.8495 14.8687 14.6945 14.934C14.5396 14.9992 14.3683 15.0319 14.1807 15.0319Z" fill="white"/>
</svg>
