<svg width="30" height="30" viewBox="0 0 30 30" fill="none" xmlns="http://www.w3.org/2000/svg">
<path d="M16.1116 22.3441L10.7297 27.7099C10.5687 27.8066 10.3592 28.0483 9.92407 27.9194C9.69854 27.8388 9.42456 27.5809 9.37627 27.291V27.2748L7.82935 18.0258L9.08623 17.0752C9.24898 17.1706 12.3548 18.9918 12.1638 18.8799L16.1116 21.2002C16.4178 21.5224 16.4178 22.0219 16.1116 22.3441Z" fill="#009AE4"/>
<path d="M28.7343 3.02972L23.8462 27.3066C23.7978 27.5644 23.6045 27.79 23.3467 27.8867C23.25 27.935 23.1533 27.9512 23.0566 27.9512C22.8955 27.9512 22.7344 27.9028 22.5893 27.8061C22.4272 27.6903 10.5548 19.21 11.3101 19.7495C4.12139 16.1885 7.8711 18.0601 1.70117 14.98C1.41113 14.8349 1.25 14.5449 1.25 14.2388C1.26611 13.9165 1.44336 13.6426 1.7334 13.5137L27.6225 2.12738C27.8964 2.01458 28.2187 2.04681 28.4443 2.24017C28.4765 2.2724 28.5248 2.32074 28.5571 2.35296C28.7182 2.54632 28.7826 2.78802 28.7343 3.02972Z" fill="#25D9F8"/>
<path d="M28.5572 2.35254L12.1642 18.879L11.3103 19.749L9.9245 27.9184C9.69897 27.8379 9.42499 27.58 9.3767 27.29V27.2739L7.82977 18.0249L9.08666 17.0743L28.5572 2.35254Z" fill="#00C0F1"/>
</svg>
