<svg width="50" height="51" viewBox="0 0 50 51" fill="none" xmlns="http://www.w3.org/2000/svg">
<path d="M19.25 4.30617C22.8081 2.2519 27.1919 2.25189 30.75 4.30617L40.4006 9.87797C43.9587 11.9322 46.1506 15.7287 46.1506 19.8373V30.9809C46.1506 35.0894 43.9587 38.8859 40.4006 40.9401L30.75 46.5119C27.1919 48.5662 22.8081 48.5662 19.25 46.5119L9.59937 40.9401C6.04125 38.8859 3.84937 35.0894 3.84937 30.9809V19.8373C3.84937 15.7287 6.04125 11.9322 9.59937 9.87797L19.25 4.30617Z" fill="#F9F9F9" stroke="#DBDFE9"/>
<path opacity="0.1" d="M25.0046 35.2173C24.6626 35.2153 24.3259 35.1318 24.0226 34.9738C23.7192 34.8158 23.4579 34.5878 23.2602 34.3087L22.2789 32.8641C22.2268 32.7892 22.1576 32.7279 22.077 32.6853C21.9964 32.6426 21.9067 32.6198 21.8155 32.6188H20.3346C18.9828 32.6188 17.6863 32.0818 16.7304 31.1259C15.7746 30.17 15.2375 28.8736 15.2375 27.5217V20.7893C15.2375 19.4375 15.7746 18.141 16.7304 17.1851C17.6863 16.2293 18.9828 15.6923 20.3346 15.6923H29.6746C30.344 15.6923 31.0068 15.8241 31.6252 16.0802C32.2436 16.3364 32.8054 16.7118 33.2787 17.1851C33.7521 17.6585 34.1275 18.2203 34.3836 18.8387C34.6398 19.4571 34.7716 20.1199 34.7716 20.7893V27.5217C34.7716 28.1911 34.6398 28.8539 34.3836 29.4723C34.1275 30.0907 33.7521 30.6526 33.2787 31.1259C32.8054 31.5992 32.2436 31.9746 31.6252 32.2308C31.0068 32.4869 30.344 32.6188 29.6746 32.6188H28.23C28.1388 32.6198 28.0492 32.6426 27.9686 32.6853C27.888 32.7279 27.8187 32.7892 27.7666 32.8641L26.749 34.3087C26.5513 34.5878 26.29 34.8158 25.9866 34.9738C25.6833 35.1318 25.3466 35.2153 25.0046 35.2173Z" fill="#99A1B7"/>
<path d="M24.9999 35.2541C24.6548 35.2521 24.3152 35.1679 24.0091 35.0085C23.7031 34.849 23.4394 34.619 23.2399 34.3374L22.2499 32.8799C22.1973 32.8044 22.1275 32.7426 22.0462 32.6995C21.9649 32.6565 21.8744 32.6335 21.7824 32.6324H20.2883C18.9244 32.6324 17.6164 32.0906 16.652 31.1262C15.6875 30.1618 15.1458 28.8538 15.1458 27.4899V20.6974C15.1458 19.3336 15.6875 18.0255 16.652 17.0611C17.6164 16.0967 18.9244 15.5549 20.2883 15.5549H29.7116C30.3869 15.5549 31.0556 15.6879 31.6795 15.9464C32.3035 16.2048 32.8704 16.5836 33.3479 17.0611C33.8254 17.5387 34.2042 18.1056 34.4626 18.7295C34.7211 19.3534 34.8541 20.0221 34.8541 20.6974V27.4899C34.8541 28.1653 34.7211 28.834 34.4626 29.4579C34.2042 30.0818 33.8254 30.6487 33.3479 31.1262C32.8704 31.6038 32.3035 31.9825 31.6795 32.241C31.0556 32.4994 30.3869 32.6324 29.7116 32.6324H28.2541C28.1621 32.6335 28.0717 32.6565 27.9903 32.6995C27.909 32.7426 27.8392 32.8044 27.7866 32.8799L26.7599 34.3374C26.5604 34.619 26.2968 34.849 25.9907 35.0085C25.6846 35.1679 25.345 35.2521 24.9999 35.2541ZM20.2883 16.9208C19.7927 16.9208 19.3021 17.0185 18.8444 17.2084C18.3867 17.3983 17.9709 17.6767 17.621 18.0275C17.271 18.3783 16.9937 18.7947 16.8049 19.2529C16.6161 19.711 16.5195 20.2019 16.5208 20.6974V27.4899C16.5208 28.4891 16.9177 29.4474 17.6242 30.154C18.3308 30.8605 19.289 31.2574 20.2883 31.2574H21.7458C22.059 31.2583 22.3675 31.3346 22.6451 31.4798C22.9227 31.6249 23.1613 31.8348 23.3408 32.0916L24.3583 33.5399C24.4335 33.6387 24.5306 33.7188 24.6419 33.7739C24.7532 33.8291 24.8757 33.8577 24.9999 33.8577C25.1241 33.8577 25.2466 33.8291 25.3579 33.7739C25.4692 33.7188 25.5663 33.6387 25.6416 33.5399L26.6591 32.0916C26.8385 31.8348 27.0771 31.6249 27.3547 31.4798C27.6323 31.3346 27.9408 31.2583 28.2541 31.2574H29.7116C30.7108 31.2574 31.6691 30.8605 32.3756 30.154C33.0822 29.4474 33.4791 28.4891 33.4791 27.4899V20.6974C33.4803 20.2019 33.3837 19.711 33.1949 19.2529C33.0061 18.7947 32.7288 18.3783 32.3789 18.0275C32.0289 17.6767 31.6132 17.3983 31.1555 17.2084C30.6978 17.0185 30.2071 16.9208 29.7116 16.9208H20.2883ZM30.0508 22.3108C30.0484 22.1292 29.9752 21.9557 29.8468 21.8273C29.7183 21.6988 29.5448 21.6256 29.3633 21.6233H20.6366C20.4542 21.6233 20.2794 21.6957 20.1504 21.8246C20.0215 21.9536 19.9491 22.1284 19.9491 22.3108C19.9491 22.4931 20.0215 22.668 20.1504 22.7969C20.2794 22.9258 20.4542 22.9983 20.6366 22.9983H29.3633C29.5448 22.9959 29.7183 22.9227 29.8468 22.7943C29.9752 22.6659 30.0484 22.4924 30.0508 22.3108ZM28.5933 26.8941C28.5933 26.7118 28.5208 26.5369 28.3919 26.408C28.263 26.279 28.0881 26.2066 27.9058 26.2066H22.0941C21.9117 26.2066 21.7369 26.279 21.6079 26.408C21.479 26.5369 21.4066 26.7118 21.4066 26.8941C21.4066 27.0764 21.479 27.2513 21.6079 27.3802C21.7369 27.5092 21.9117 27.5816 22.0941 27.5816H27.9058C28.0881 27.5816 28.263 27.5092 28.3919 27.3802C28.5208 27.2513 28.5933 27.0764 28.5933 26.8941Z" fill="#99A1B7"/>
</svg>
