<svg width="21" height="20" viewBox="0 0 21 20" fill="none" xmlns="http://www.w3.org/2000/svg">
<path d="M12.2035 18.2813C10.8196 18.2884 9.46074 17.9107 8.27825 17.1902C7.09577 16.4698 6.13598 15.4349 5.50566 14.2006C4.89259 12.9768 4.64201 11.6029 4.78354 10.241C4.92506 8.87914 5.45278 7.58633 6.30432 6.51531C6.02143 6.39267 5.72642 6.30025 5.42419 6.23956C4.97926 6.14378 4.5197 6.1382 4.07258 6.22315C3.62547 6.3081 3.19985 6.48186 2.82083 6.73418C2.44702 6.98201 2.12824 7.30439 1.88441 7.6812C1.64059 8.058 1.47695 8.48113 1.40374 8.92415C1.35744 9.28959 1.33394 9.65756 1.33337 10.0259C1.33939 11.5749 1.74034 13.0967 2.49818 14.4469C3.25602 15.797 4.34564 16.9309 5.66367 17.7409C6.99815 18.567 8.51555 19.0503 10.0812 19.1481C11.6469 19.2458 13.2125 18.9548 14.639 18.3011C14.7105 18.2758 14.7724 18.2291 14.8166 18.1674C14.8607 18.1057 14.8849 18.032 14.8859 17.956C14.8859 17.9001 14.8723 17.8449 14.8464 17.7953C14.0015 18.1142 13.1064 18.2788 12.2035 18.2813Z" fill="url(#paint0_linear_27158_192608)"/>
<path d="M14.6539 17.6074C13.4047 17.8864 12.0981 17.7344 10.946 17.1762C9.79387 16.618 8.86378 15.6862 8.30656 14.5321C7.85738 13.5742 7.69865 12.5053 7.85006 11.4579C8.00146 10.4105 8.45633 9.4307 9.1583 8.6398C9.03486 8.50378 8.91142 8.36405 8.76946 8.22679C8.06522 7.48305 7.21444 6.89395 6.27103 6.49683C5.18139 7.73985 4.5542 9.322 4.49571 10.9752C4.43722 12.6285 4.95102 14.2511 5.95008 15.5683C8.01154 18.2974 11.7234 19.278 14.9057 17.9264C14.8993 17.8545 14.872 17.7859 14.8273 17.7293C14.7826 17.6726 14.7223 17.6302 14.6539 17.6074Z" fill="url(#paint1_linear_27158_192608)"/>
<path d="M6.47586 6.5871C6.40426 6.55247 6.33637 6.52279 6.26848 6.49683C5.17276 7.75181 4.54775 9.35 4.50089 11.0166C4.45403 12.6832 4.98826 14.3141 6.01172 15.6289C5.03797 14.2978 4.55305 12.6706 4.63897 11.0226C4.7249 9.37458 5.37639 7.80687 6.48326 6.58462L6.47586 6.5871Z" fill="url(#paint2_linear_27158_192608)"/>
<path d="M14.5292 17.5852C13.782 17.5887 13.0489 17.3819 12.4134 16.9884C11.7779 16.5949 11.2655 16.0304 10.9346 15.3594C10.6113 14.6954 10.4871 13.9517 10.5771 13.2184C10.6672 12.4851 10.9676 11.7937 11.4419 11.228C10.6926 10.4081 9.97422 9.51782 9.1484 8.62378C8.27352 9.48773 7.71884 10.6247 7.57588 11.847C7.43293 13.0693 7.71025 14.3039 8.36209 15.347C9.03039 16.4001 10.0253 17.2043 11.1941 17.6361C12.3628 18.068 13.6407 18.1035 14.8316 17.7373C14.7963 17.6903 14.7507 17.6521 14.6982 17.6257C14.6457 17.5993 14.5879 17.5854 14.5292 17.5852Z" fill="url(#paint3_linear_27158_192608)"/>
<path d="M7.72507 12.5807C7.7266 11.1589 8.28561 9.7947 9.28165 8.78192L9.14833 8.63477C8.53723 9.24215 8.0794 9.98666 7.81278 10.8066C7.54616 11.6266 7.47843 12.4984 7.6152 13.3498C7.75757 14.2048 8.09911 15.0142 8.61213 15.7122C9.12514 16.4102 9.79518 16.9773 10.5679 17.3674C9.71042 16.8967 8.99448 16.2044 8.49454 15.3626C7.99459 14.5208 7.72889 13.5602 7.72507 12.5807Z" fill="url(#paint4_linear_27158_192608)"/>
<path opacity="0.2" d="M11.4443 11.2316C10.5703 10.2857 9.75317 9.242 8.76935 8.22678C7.09797 6.49558 5.42411 6.23466 5.42411 6.23466C4.55389 6.04637 3.64467 6.20564 2.88988 6.67859C2.52149 6.9091 2.20255 7.21072 1.95163 7.56589C1.70071 7.92105 1.52283 8.32268 1.42834 8.74737C1.84869 8.23506 2.40707 7.85446 3.03707 7.65081C3.66707 7.44716 4.34221 7.42904 4.9822 7.5986C6.41657 7.96957 7.57445 8.93533 8.54962 9.98641C9.29891 10.7964 9.99018 11.6496 10.7345 12.4596C10.8904 12.0114 11.1295 11.5968 11.4394 11.2378L11.4443 11.2316Z" fill="url(#paint5_linear_27158_192608)"/>
<path d="M11.4443 11.2316C11.8906 11.73 12.436 12.1295 13.0454 12.4044C13.6549 12.6793 14.315 12.8236 14.9833 12.828C15.7704 12.8296 16.5454 12.634 17.2377 12.2588C17.93 11.8836 18.5176 11.3409 18.947 10.6801C19.3683 10.0278 19.6138 9.27727 19.6594 8.50166C19.7051 7.72605 19.5494 6.95183 19.2075 6.25444C17.4867 2.47795 13.391 0.300355 9.21743 0.945844C5.04391 1.59133 1.83322 4.89792 1.38513 9.00951C1.44617 8.55572 1.60179 8.11986 1.84188 7.73022C2.08198 7.34058 2.40118 7.00588 2.77877 6.74783C3.16122 6.48547 3.59306 6.30399 4.04789 6.21448C4.50272 6.12497 4.971 6.12931 5.4241 6.22723C5.4241 6.22723 7.09796 6.49186 8.76934 8.21934C9.7581 9.24199 10.5703 10.2857 11.4443 11.2316Z" fill="url(#paint6_linear_27158_192608)"/>
<path d="M15.1586 12.5411C14.4896 12.5516 13.8258 12.4224 13.2094 12.1616C12.593 11.9008 12.0377 11.5141 11.5789 11.0263C10.6827 10.0964 9.84082 9.07 8.82861 8.09188C7.11773 6.39778 5.44017 6.17643 5.44017 6.17643C5.20404 6.12995 4.96357 6.10922 4.72298 6.1146C4.12139 6.12786 3.53421 6.30159 3.02197 6.61789C3.53405 6.32256 4.11482 6.16773 4.7057 6.16901C4.94634 6.16869 5.18634 6.19398 5.42165 6.24444C5.42165 6.24444 7.09551 6.50783 8.76689 8.23656C9.75442 9.25302 10.5679 10.2954 11.4418 11.2414C11.8892 11.7385 12.4354 12.1363 13.0453 12.4095C13.6551 12.6828 14.3153 12.8253 14.9834 12.8279C17.251 12.8279 19.1914 11.2315 19.5864 9.04527C19.3311 10.0326 18.76 10.909 17.9603 11.5403C17.1607 12.1716 16.1766 12.5231 15.1586 12.5411Z" fill="url(#paint7_linear_27158_192608)"/>
<defs>
<linearGradient id="paint0_linear_27158_192608" x1="8.29542" y1="2.47634" x2="8.29542" y2="19.2315" gradientUnits="userSpaceOnUse">
<stop stop-color="#1631B0"/>
<stop offset="1" stop-color="#D9BDFF"/>
</linearGradient>
<linearGradient id="paint1_linear_27158_192608" x1="9.49939" y1="3.10701" x2="9.49939" y2="20.7782" gradientUnits="userSpaceOnUse">
<stop stop-color="#1631B0"/>
<stop offset="1" stop-color="#D9BDFF"/>
</linearGradient>
<linearGradient id="paint2_linear_27158_192608" x1="5.5144" y1="1.17958" x2="5.5144" y2="15.8824" gradientUnits="userSpaceOnUse">
<stop stop-color="#1631B0"/>
<stop offset="1" stop-color="#D9BDFF"/>
</linearGradient>
<linearGradient id="paint3_linear_27158_192608" x1="11.0933" y1="6.13574" x2="11.0933" y2="20.9513" gradientUnits="userSpaceOnUse">
<stop stop-color="#1631B0"/>
<stop offset="1" stop-color="#D9BDFF"/>
</linearGradient>
<linearGradient id="paint4_linear_27158_192608" x1="9.36605" y1="2.90813" x2="9.36605" y2="17.3785" gradientUnits="userSpaceOnUse">
<stop stop-color="#1631B0"/>
<stop offset="1" stop-color="#D9BDFF"/>
</linearGradient>
<linearGradient id="paint5_linear_27158_192608" x1="3.15027" y1="7.87456" x2="10.1117" y2="13.7292" gradientUnits="userSpaceOnUse">
<stop stop-color="#0000CD" stop-opacity="0"/>
<stop offset="0.3" stop-color="#0000CD"/>
<stop offset="0.7" stop-color="#0000CD"/>
<stop offset="1" stop-color="#0000CD" stop-opacity="0"/>
</linearGradient>
<linearGradient id="paint6_linear_27158_192608" x1="17.2633" y1="11.9986" x2="9.81221" y2="-0.315732" gradientUnits="userSpaceOnUse">
<stop stop-color="#72FFC9"/>
<stop offset="1" stop-color="#6EAFFC"/>
</linearGradient>
<linearGradient id="paint7_linear_27158_192608" x1="17.2137" y1="12.1746" x2="14.7325" y2="1.52711" gradientUnits="userSpaceOnUse">
<stop stop-color="#A6FFD2"/>
<stop offset="1" stop-color="#80F0FF"/>
</linearGradient>
</defs>
</svg>
