<svg width="28" height="28" viewBox="0 0 28 28" fill="none" xmlns="http://www.w3.org/2000/svg">
<g clip-path="url(#clip0_27732_79742)">
<path d="M22.9917 27.5226C17.0162 28.1601 10.9899 28.1601 5.01443 27.5226C3.85405 27.4001 2.77073 26.8835 1.94507 26.059C1.11942 25.2345 0.60132 24.1519 0.477154 22.9917C-0.160353 17.0162 -0.160353 10.9899 0.477154 5.01443C0.599692 3.85405 1.11627 2.77073 1.94077 1.94507C2.76526 1.11942 3.84785 0.60132 5.00806 0.477154C10.9835 -0.160353 17.0099 -0.160353 22.9853 0.477154C24.1457 0.599692 25.229 1.11627 26.0547 1.94077C26.8803 2.76526 27.3984 3.84785 27.5226 5.00806C28.1601 10.9835 28.1601 17.0099 27.5226 22.9853C27.4001 24.1457 26.8835 25.229 26.059 26.0547C25.2345 26.8803 24.1519 27.3984 22.9917 27.5226V27.5226Z" fill="#010101"/>
<path d="M11.8889 22.75C10.4079 22.75 8.98757 22.1617 7.94035 21.1145C6.89313 20.0672 6.30481 18.6469 6.30481 17.1659C6.30481 15.6849 6.89313 14.2646 7.94035 13.2174C8.98757 12.1701 10.4079 11.5818 11.8889 11.5818H13.2523V14.307H11.8889C11.3225 14.307 10.7689 14.475 10.2979 14.7897C9.82703 15.1043 9.45999 15.5516 9.24325 16.0748C9.0265 16.5981 8.96979 17.1739 9.08029 17.7293C9.19078 18.2848 9.46352 18.7951 9.864 19.1956C10.2645 19.5961 10.7747 19.8688 11.3302 19.9793C11.8857 20.0898 12.4615 20.0331 12.9848 19.8163C13.508 19.5996 13.9553 19.2326 14.2699 18.7616C14.5846 18.2907 14.7525 17.7371 14.7525 17.1707V5.25H17.4778V6.61182C17.4778 7.3713 17.7795 8.09968 18.3165 8.63671C18.8535 9.17375 19.5819 9.47545 20.3414 9.47545H21.7048V12.1959H20.3319C19.3226 12.1974 18.3322 11.9223 17.4682 11.4005V17.1659C17.467 18.6457 16.8789 20.0646 15.833 21.1114C14.7871 22.1582 13.3687 22.7475 11.8889 22.75V22.75Z" fill="white"/>
</g>
<defs>
<clipPath id="clip0_27732_79742">
<rect width="28" height="28" fill="white"/>
</clipPath>
</defs>
</svg>
