<svg width="14" height="14" viewBox="0 0 14 14" fill="none" xmlns="http://www.w3.org/2000/svg">
<g clip-path="url(#clip0_27158_267692)">
<g clip-path="url(#clip1_27158_267692)">
<path d="M13.4048 0.589111H0.583252V13.4107H13.4048V0.589111Z" fill="#F5F5F5"/>
<path d="M13.4166 0.589111H0.583252V1.57517H13.4166V0.589111Z" fill="#FF4B55"/>
<path d="M13.4166 4.53418H0.583252V5.52024H13.4166V4.53418Z" fill="#FF4B55"/>
<path d="M13.4166 2.56177H0.583252V3.54783H13.4166V2.56177Z" fill="#FF4B55"/>
<path d="M13.4166 6.50659H0.583252V7.49265H13.4166V6.50659Z" fill="#FF4B55"/>
<path d="M13.4166 10.4517H0.583252V11.4377H13.4166V10.4517Z" fill="#FF4B55"/>
<path d="M13.4166 12.4243H0.583252V13.4104H13.4166V12.4243Z" fill="#FF4B55"/>
<path d="M13.4166 8.47925H0.583252V9.46531H13.4166V8.47925Z" fill="#FF4B55"/>
<path d="M7.48719 0.589111H0.583252V7.49304H7.48719V0.589111Z" fill="#41479B"/>
<path d="M1.46611 1.10485L1.51929 1.26436L1.68743 1.26566C1.70919 1.26584 1.71824 1.29361 1.70072 1.30654L1.56546 1.40643L1.61617 1.56675C1.62274 1.5875 1.59913 1.60467 1.58138 1.59201L1.44457 1.49423L1.30777 1.59201C1.29007 1.60469 1.26644 1.5875 1.27298 1.56675L1.32369 1.40643L1.18843 1.30654C1.17094 1.29361 1.17994 1.26584 1.20172 1.26566L1.36986 1.26436L1.42304 1.10485C1.43001 1.08419 1.45924 1.08419 1.46611 1.10485Z" fill="#F5F5F5"/>
<path d="M1.46611 2.43543L1.51929 2.59495L1.68743 2.59625C1.70919 2.59642 1.71824 2.6242 1.70072 2.63713L1.56546 2.73701L1.61617 2.89733C1.62274 2.91808 1.59913 2.93525 1.58138 2.9226L1.44457 2.82482L1.30777 2.9226C1.29007 2.93528 1.26644 2.91808 1.27298 2.89733L1.32369 2.73701L1.18843 2.63713C1.17094 2.6242 1.17994 2.59642 1.20172 2.59625L1.36986 2.59495L1.42304 2.43543C1.43001 2.41475 1.45924 2.41475 1.46611 2.43543Z" fill="#F5F5F5"/>
<path d="M1.46611 3.91124L1.51929 4.07076L1.68743 4.07206C1.70919 4.07224 1.71824 4.10001 1.70072 4.11297L1.56546 4.21285L1.61617 4.37317C1.62274 4.39392 1.59913 4.41109 1.58138 4.39843L1.44457 4.30065L1.30777 4.39843C1.29007 4.41112 1.26644 4.39392 1.27298 4.37317L1.32369 4.21285L1.18843 4.11297C1.17094 4.10003 1.17994 4.07224 1.20172 4.07206L1.36986 4.07076L1.42304 3.91124C1.43001 3.89059 1.45924 3.89059 1.46611 3.91124Z" fill="#F5F5F5"/>
<path d="M1.46611 5.2672L1.51929 5.42671L1.68743 5.42802C1.70919 5.42819 1.71824 5.45596 1.70072 5.4689L1.56546 5.56878L1.61617 5.7291C1.62274 5.74985 1.59913 5.76702 1.58138 5.75436L1.44457 5.65659L1.30777 5.75436C1.29007 5.76705 1.26644 5.74985 1.27298 5.7291L1.32369 5.56878L1.18843 5.4689C1.17094 5.45596 1.17994 5.42819 1.20172 5.42802L1.36986 5.42671L1.42304 5.2672C1.43001 5.24655 1.45924 5.24655 1.46611 5.2672Z" fill="#F5F5F5"/>
<path d="M1.46611 6.50109L1.51929 6.6606L1.68743 6.6619C1.70919 6.66208 1.71824 6.68985 1.70072 6.70278L1.56546 6.80267L1.61617 6.96299C1.62274 6.98374 1.59913 7.00091 1.58138 6.98825L1.44457 6.89047L1.30777 6.98825C1.29007 7.00093 1.26644 6.98374 1.27298 6.96299L1.32369 6.80267L1.18843 6.70278C1.17094 6.68985 1.17994 6.66205 1.20172 6.6619L1.36986 6.6606L1.42304 6.50109C1.43001 6.48043 1.45924 6.48043 1.46611 6.50109Z" fill="#F5F5F5"/>
<path d="M2.11381 1.73497L2.167 1.89449L2.33514 1.89579C2.35689 1.89597 2.36594 1.92374 2.34842 1.93667L2.21317 2.03656L2.26388 2.19687C2.27044 2.21763 2.24683 2.2348 2.22909 2.22214L2.09228 2.12436L1.95547 2.22214C1.93778 2.23482 1.91414 2.21763 1.92068 2.19687L1.97139 2.03656L1.83614 1.93667C1.81864 1.92374 1.82764 1.89597 1.84942 1.89579L2.01756 1.89449L2.07075 1.73497C2.07772 1.71432 2.10694 1.71432 2.11381 1.73497Z" fill="#F5F5F5"/>
<path d="M2.11381 3.2108L2.167 3.37032L2.33514 3.37162C2.35689 3.3718 2.36594 3.39957 2.34842 3.4125L2.21317 3.51239L2.26388 3.6727C2.27044 3.69346 2.24683 3.71063 2.22909 3.69797L2.09228 3.60019L1.95547 3.69797C1.93778 3.71065 1.91414 3.69346 1.92068 3.6727L1.97139 3.51239L1.83614 3.4125C1.81864 3.39957 1.82764 3.3718 1.84942 3.37162L2.01756 3.37032L2.07075 3.2108C2.07772 3.19015 2.10694 3.19015 2.11381 3.2108Z" fill="#F5F5F5"/>
<path d="M2.11381 4.61288L2.167 4.7724L2.33514 4.7737C2.35689 4.77388 2.36594 4.80165 2.34842 4.81458L2.21317 4.91447L2.26388 5.07478C2.27044 5.09554 2.24683 5.11271 2.22909 5.10005L2.09228 5.00227L1.95547 5.10005C1.93778 5.11273 1.91414 5.09554 1.92068 5.07478L1.97139 4.91447L1.83614 4.81458C1.81864 4.80165 1.82764 4.77388 1.84942 4.7737L2.01756 4.7724L2.07075 4.61288C2.07772 4.59225 2.10694 4.59225 2.11381 4.61288Z" fill="#F5F5F5"/>
<path d="M2.11381 5.87195L2.167 6.03147L2.33514 6.03277C2.35689 6.03295 2.36594 6.06072 2.34842 6.07365L2.21317 6.17354L2.26388 6.33385C2.27044 6.35461 2.24683 6.37178 2.22909 6.35912L2.09228 6.26134L1.95547 6.35912C1.93778 6.3718 1.91414 6.35461 1.92068 6.33385L1.97139 6.17354L1.83614 6.07365C1.81864 6.06072 1.82764 6.03295 1.84942 6.03277L2.01756 6.03147L2.07075 5.87195C2.07772 5.85128 2.10694 5.85128 2.11381 5.87195Z" fill="#F5F5F5"/>
<path d="M2.76152 1.10485L2.8147 1.26436L2.98284 1.26566C3.0046 1.26584 3.01365 1.29361 2.99613 1.30654L2.86087 1.40643L2.91158 1.56675C2.91815 1.5875 2.89454 1.60467 2.87679 1.59201L2.73999 1.49423L2.60318 1.59201C2.58548 1.60469 2.56185 1.5875 2.56839 1.56675L2.6191 1.40643L2.48384 1.30654C2.46635 1.29361 2.47535 1.26584 2.49713 1.26566L2.66527 1.26436L2.71845 1.10485C2.72542 1.08419 2.75462 1.08419 2.76152 1.10485Z" fill="#F5F5F5"/>
<path d="M2.76152 2.43543L2.8147 2.59495L2.98284 2.59625C3.0046 2.59642 3.01365 2.6242 2.99613 2.63713L2.86087 2.73701L2.91158 2.89733C2.91815 2.91808 2.89454 2.93525 2.87679 2.9226L2.73999 2.82482L2.60318 2.9226C2.58548 2.93528 2.56185 2.91808 2.56839 2.89733L2.6191 2.73701L2.48384 2.63713C2.46635 2.6242 2.47535 2.59642 2.49713 2.59625L2.66527 2.59495L2.71845 2.43543C2.72542 2.41475 2.75462 2.41475 2.76152 2.43543Z" fill="#F5F5F5"/>
<path d="M2.76152 3.91124L2.8147 4.07076L2.98284 4.07206C3.0046 4.07224 3.01365 4.10001 2.99613 4.11297L2.86087 4.21285L2.91158 4.37317C2.91815 4.39392 2.89454 4.41109 2.87679 4.39843L2.73999 4.30065L2.60318 4.39843C2.58548 4.41112 2.56185 4.39392 2.56839 4.37317L2.6191 4.21285L2.48384 4.11297C2.46635 4.10003 2.47535 4.07224 2.49713 4.07206L2.66527 4.07076L2.71845 3.91124C2.72542 3.89059 2.75462 3.89059 2.76152 3.91124Z" fill="#F5F5F5"/>
<path d="M2.76147 5.2672L2.81465 5.42672L2.98279 5.42802C3.00455 5.4282 3.0136 5.45597 2.99608 5.4689L2.86082 5.56879L2.91153 5.7291C2.9181 5.74986 2.89449 5.76703 2.87674 5.75437L2.73999 5.65656L2.60318 5.75434C2.58548 5.76703 2.56185 5.74983 2.56839 5.72908L2.6191 5.56876L2.48384 5.46888C2.46635 5.45594 2.47535 5.42817 2.49713 5.42799L2.66527 5.42669L2.71845 5.26718C2.72537 5.24655 2.75457 5.24655 2.76147 5.2672Z" fill="#F5F5F5"/>
<path d="M2.76152 6.50109L2.8147 6.6606L2.98284 6.6619C3.0046 6.66208 3.01365 6.68985 2.99613 6.70278L2.86087 6.80267L2.91158 6.96299C2.91815 6.98374 2.89454 7.00091 2.87679 6.98825L2.73999 6.89047L2.60318 6.98825C2.58548 7.00093 2.56185 6.98374 2.56839 6.96299L2.6191 6.80267L2.48384 6.70278C2.46635 6.68985 2.47535 6.66205 2.49713 6.6619L2.66527 6.6606L2.71845 6.50109C2.72542 6.48043 2.75462 6.48043 2.76152 6.50109Z" fill="#F5F5F5"/>
<path d="M3.40922 1.73497L3.46241 1.89449L3.63055 1.89579C3.6523 1.89597 3.66135 1.92374 3.64383 1.93667L3.50858 2.03656L3.55929 2.19687C3.56585 2.21763 3.54224 2.2348 3.5245 2.22214L3.38769 2.12436L3.25088 2.22214C3.23319 2.23482 3.20955 2.21763 3.21609 2.19687L3.2668 2.03656L3.13155 1.93667C3.11405 1.92374 3.12305 1.89597 3.14483 1.89579L3.31305 1.89449L3.36623 1.73497C3.37313 1.71432 3.40233 1.71432 3.40922 1.73497Z" fill="#F5F5F5"/>
<path d="M3.40922 3.2108L3.46241 3.37032L3.63055 3.37162C3.6523 3.3718 3.66135 3.39957 3.64383 3.4125L3.50858 3.51239L3.55929 3.6727C3.56585 3.69346 3.54224 3.71063 3.5245 3.69797L3.38769 3.60019L3.25088 3.69797C3.23319 3.71065 3.20955 3.69346 3.21609 3.6727L3.2668 3.51239L3.13155 3.4125C3.11405 3.39957 3.12305 3.3718 3.14483 3.37162L3.31297 3.37032L3.36616 3.2108C3.37313 3.19015 3.40233 3.19015 3.40922 3.2108Z" fill="#F5F5F5"/>
<path d="M3.40922 4.61288L3.46241 4.7724L3.63055 4.7737C3.6523 4.77388 3.66135 4.80165 3.64383 4.81458L3.50858 4.91447L3.55929 5.07478C3.56585 5.09554 3.54224 5.11271 3.5245 5.10005L3.38769 5.00227L3.25088 5.10005C3.23319 5.11273 3.20955 5.09554 3.21609 5.07478L3.2668 4.91447L3.13155 4.81458C3.11405 4.80165 3.12305 4.77388 3.14483 4.7737L3.31297 4.7724L3.36616 4.61288C3.37313 4.59225 3.40233 4.59225 3.40922 4.61288Z" fill="#F5F5F5"/>
<path d="M3.40922 5.87195L3.46241 6.03147L3.63055 6.03277C3.6523 6.03295 3.66135 6.06072 3.64383 6.07365L3.50858 6.17354L3.55929 6.33385C3.56585 6.35461 3.54224 6.37178 3.5245 6.35912L3.38769 6.26134L3.25088 6.35912C3.23319 6.3718 3.20955 6.35461 3.21609 6.33385L3.2668 6.17354L3.13155 6.07365C3.11405 6.06072 3.12305 6.03295 3.14483 6.03277L3.31297 6.03147L3.36616 5.87195C3.37313 5.85128 3.40233 5.85128 3.40922 5.87195Z" fill="#F5F5F5"/>
<path d="M4.05668 1.10485L4.10987 1.26436L4.27801 1.26566C4.29976 1.26584 4.30881 1.29361 4.29129 1.30654L4.15604 1.40643L4.20675 1.56675C4.21331 1.5875 4.1897 1.60467 4.17196 1.59201L4.03515 1.49423L3.89835 1.59201C3.88065 1.60469 3.85701 1.5875 3.86356 1.56675L3.91426 1.40643L3.77901 1.30654C3.76152 1.29361 3.77051 1.26584 3.7923 1.26566L3.96043 1.26436L4.01362 1.10485C4.02059 1.08419 4.04979 1.08419 4.05668 1.10485Z" fill="#F5F5F5"/>
<path d="M4.05668 2.43543L4.10987 2.59495L4.27801 2.59625C4.29976 2.59642 4.30881 2.6242 4.29129 2.63713L4.15604 2.73701L4.20675 2.89733C4.21331 2.91808 4.1897 2.93525 4.17196 2.9226L4.03515 2.82482L3.89835 2.9226C3.88065 2.93528 3.85701 2.91808 3.86356 2.89733L3.91426 2.73701L3.77901 2.63713C3.76152 2.6242 3.77051 2.59642 3.7923 2.59625L3.96043 2.59495L4.01362 2.43543C4.02059 2.41475 4.04979 2.41475 4.05668 2.43543Z" fill="#F5F5F5"/>
<path d="M4.05668 3.91124L4.10987 4.07076L4.27801 4.07206C4.29976 4.07224 4.30881 4.10001 4.29129 4.11297L4.15604 4.21285L4.20675 4.37317C4.21331 4.39392 4.1897 4.41109 4.17196 4.39843L4.03515 4.30065L3.89835 4.39843C3.88065 4.41112 3.85701 4.39392 3.86356 4.37317L3.91426 4.21285L3.77901 4.11297C3.76152 4.10003 3.77051 4.07224 3.7923 4.07206L3.96043 4.07076L4.01362 3.91124C4.02059 3.89059 4.04979 3.89059 4.05668 3.91124Z" fill="#F5F5F5"/>
<path d="M4.05668 5.2672L4.10987 5.42671L4.27801 5.42802C4.29976 5.42819 4.30881 5.45596 4.29129 5.4689L4.15604 5.56878L4.20675 5.7291C4.21331 5.74985 4.1897 5.76702 4.17196 5.75436L4.03515 5.65659L3.89835 5.75436C3.88065 5.76705 3.85701 5.74985 3.86356 5.7291L3.91426 5.56878L3.77901 5.4689C3.76152 5.45596 3.77051 5.42819 3.7923 5.42802L3.96043 5.42671L4.01362 5.2672C4.02059 5.24655 4.04979 5.24655 4.05668 5.2672Z" fill="#F5F5F5"/>
<path d="M4.05668 6.50109L4.10987 6.6606L4.27801 6.6619C4.29976 6.66208 4.30881 6.68985 4.29129 6.70278L4.15604 6.80267L4.20675 6.96299C4.21331 6.98374 4.1897 7.00091 4.17196 6.98825L4.03515 6.89047L3.89835 6.98825C3.88065 7.00093 3.85701 6.98374 3.86356 6.96299L3.91426 6.80267L3.77901 6.70278C3.76152 6.68985 3.77051 6.66205 3.7923 6.6619L3.96043 6.6606L4.01362 6.50109C4.02059 6.48043 4.04979 6.48043 4.05668 6.50109Z" fill="#F5F5F5"/>
<path d="M4.70439 1.73497L4.75758 1.89449L4.92571 1.89579C4.94747 1.89597 4.95652 1.92374 4.939 1.93667L4.80375 2.03656L4.85445 2.19687C4.86102 2.21763 4.83741 2.2348 4.81966 2.22214L4.68286 2.12436L4.54605 2.22214C4.52836 2.23482 4.50472 2.21763 4.51126 2.19687L4.56197 2.03656L4.42672 1.93667C4.40922 1.92374 4.41822 1.89597 4.43998 1.89579L4.60811 1.89449L4.6613 1.73497C4.66829 1.71432 4.6975 1.71432 4.70439 1.73497Z" fill="#F5F5F5"/>
<path d="M4.70439 3.2108L4.75758 3.37032L4.92571 3.37162C4.94747 3.3718 4.95652 3.39957 4.939 3.4125L4.80375 3.51239L4.85445 3.6727C4.86102 3.69346 4.83741 3.71063 4.81966 3.69797L4.68286 3.60019L4.54605 3.69797C4.52836 3.71065 4.50472 3.69346 4.51126 3.6727L4.56197 3.51239L4.42672 3.4125C4.40922 3.39957 4.41822 3.3718 4.43998 3.37162L4.60811 3.37032L4.6613 3.2108C4.66829 3.19015 4.6975 3.19015 4.70439 3.2108Z" fill="#F5F5F5"/>
<path d="M4.70439 4.61288L4.75758 4.7724L4.92571 4.7737C4.94747 4.77388 4.95652 4.80165 4.939 4.81458L4.80375 4.91447L4.85445 5.07478C4.86102 5.09554 4.83741 5.11271 4.81966 5.10005L4.68286 5.00227L4.54605 5.10005C4.52836 5.11273 4.50472 5.09554 4.51126 5.07478L4.56197 4.91447L4.42672 4.81458C4.40922 4.80165 4.41822 4.77388 4.43998 4.7737L4.60811 4.7724L4.6613 4.61288C4.66829 4.59225 4.6975 4.59225 4.70439 4.61288Z" fill="#F5F5F5"/>
<path d="M4.70439 5.87195L4.75758 6.03147L4.92571 6.03277C4.94747 6.03295 4.95652 6.06072 4.939 6.07365L4.80375 6.17354L4.85445 6.33385C4.86102 6.35461 4.83741 6.37178 4.81966 6.35912L4.68286 6.26134L4.54605 6.35912C4.52836 6.3718 4.50472 6.35461 4.51126 6.33385L4.56197 6.17354L4.42672 6.07365C4.40922 6.06072 4.41822 6.03295 4.43998 6.03277L4.60811 6.03147L4.6613 5.87195C4.66829 5.85128 4.6975 5.85128 4.70439 5.87195Z" fill="#F5F5F5"/>
<path d="M5.35209 1.10485L5.40528 1.26436L5.57342 1.26566C5.59517 1.26584 5.60422 1.29361 5.5867 1.30654L5.45145 1.40643L5.50216 1.56675C5.50872 1.5875 5.48511 1.60467 5.46737 1.59201L5.33056 1.49423L5.19376 1.59201C5.17606 1.60469 5.15242 1.5875 5.15897 1.56675L5.20967 1.40643L5.07442 1.30654C5.05693 1.29361 5.06592 1.26584 5.08771 1.26566L5.25584 1.26436L5.30903 1.10485C5.316 1.08419 5.3452 1.08419 5.35209 1.10485Z" fill="#F5F5F5"/>
<path d="M5.35209 2.43543L5.40528 2.59495L5.57342 2.59625C5.59517 2.59642 5.60422 2.6242 5.5867 2.63713L5.45145 2.73701L5.50216 2.89733C5.50872 2.91808 5.48511 2.93525 5.46737 2.9226L5.33056 2.82482L5.19376 2.9226C5.17606 2.93528 5.15242 2.91808 5.15897 2.89733L5.20967 2.73701L5.07442 2.63713C5.05693 2.6242 5.06592 2.59642 5.08771 2.59625L5.25584 2.59495L5.30903 2.43543C5.316 2.41475 5.3452 2.41475 5.35209 2.43543Z" fill="#F5F5F5"/>
<path d="M5.35209 3.91124L5.40528 4.07076L5.57342 4.07206C5.59517 4.07224 5.60422 4.10001 5.5867 4.11297L5.45145 4.21285L5.50216 4.37317C5.50872 4.39392 5.48511 4.41109 5.46737 4.39843L5.33056 4.30065L5.19376 4.39843C5.17606 4.41112 5.15242 4.39392 5.15897 4.37317L5.20967 4.21285L5.07442 4.11297C5.05693 4.10003 5.06592 4.07224 5.08771 4.07206L5.25584 4.07076L5.30903 3.91124C5.316 3.89059 5.3452 3.89059 5.35209 3.91124Z" fill="#F5F5F5"/>
<path d="M5.35209 5.2672L5.40528 5.42671L5.57342 5.42802C5.59517 5.42819 5.60422 5.45596 5.5867 5.4689L5.45145 5.56878L5.50216 5.7291C5.50872 5.74985 5.48511 5.76702 5.46737 5.75436L5.33056 5.65659L5.19376 5.75436C5.17606 5.76705 5.15242 5.74985 5.15897 5.7291L5.20967 5.56878L5.07442 5.4689C5.05693 5.45596 5.06592 5.42819 5.08771 5.42802L5.25584 5.42671L5.30903 5.2672C5.316 5.24655 5.3452 5.24655 5.35209 5.2672Z" fill="#F5F5F5"/>
<path d="M5.35209 6.50109L5.40528 6.6606L5.57342 6.6619C5.59517 6.66208 5.60422 6.68985 5.5867 6.70278L5.45145 6.80267L5.50216 6.96299C5.50872 6.98374 5.48511 7.00091 5.46737 6.98825L5.33056 6.89047L5.19376 6.98825C5.17606 7.00093 5.15242 6.98374 5.15897 6.96299L5.20967 6.80267L5.07442 6.70278C5.05693 6.68985 5.06592 6.66205 5.08771 6.6619L5.25584 6.6606L5.30903 6.50109C5.316 6.48043 5.3452 6.48043 5.35209 6.50109Z" fill="#F5F5F5"/>
<path d="M5.9998 1.73497L6.05299 1.89449L6.22112 1.89579C6.24288 1.89597 6.25193 1.92374 6.23441 1.93667L6.09915 2.03656L6.14986 2.19687C6.15643 2.21763 6.13282 2.2348 6.11507 2.22214L5.97827 2.12436L5.84146 2.22214C5.82376 2.23482 5.80013 2.21763 5.80667 2.19687L5.85738 2.03656L5.72213 1.93667C5.70463 1.92374 5.71363 1.89597 5.73541 1.89579L5.90355 1.89449L5.95674 1.73497C5.96368 1.71432 5.9929 1.71432 5.9998 1.73497Z" fill="#F5F5F5"/>
<path d="M5.9998 3.2108L6.05299 3.37032L6.22112 3.37162C6.24288 3.3718 6.25193 3.39957 6.23441 3.4125L6.09915 3.51239L6.14986 3.6727C6.15643 3.69346 6.13282 3.71063 6.11507 3.69797L5.97827 3.60019L5.84146 3.69797C5.82376 3.71065 5.80013 3.69346 5.80667 3.6727L5.85738 3.51239L5.72213 3.4125C5.70463 3.39957 5.71363 3.3718 5.73541 3.37162L5.90355 3.37032L5.95674 3.2108C5.96368 3.19015 5.9929 3.19015 5.9998 3.2108Z" fill="#F5F5F5"/>
<path d="M5.9998 4.61288L6.05299 4.7724L6.22112 4.7737C6.24288 4.77388 6.25193 4.80165 6.23441 4.81458L6.09915 4.91447L6.14986 5.07478C6.15643 5.09554 6.13282 5.11271 6.11507 5.10005L5.97827 5.00227L5.84146 5.10005C5.82376 5.11273 5.80013 5.09554 5.80667 5.07478L5.85738 4.91447L5.72213 4.81458C5.70463 4.80165 5.71363 4.77388 5.73541 4.7737L5.90355 4.7724L5.95674 4.61288C5.96368 4.59225 5.9929 4.59225 5.9998 4.61288Z" fill="#F5F5F5"/>
<path d="M5.9998 5.87195L6.05299 6.03147L6.22112 6.03277C6.24288 6.03295 6.25193 6.06072 6.23441 6.07365L6.09915 6.17354L6.14986 6.33385C6.15643 6.35461 6.13282 6.37178 6.11507 6.35912L5.97827 6.26134L5.84146 6.35912C5.82376 6.3718 5.80013 6.35461 5.80667 6.33385L5.85738 6.17354L5.72213 6.07365C5.70463 6.06072 5.71363 6.03295 5.73541 6.03277L5.90355 6.03147L5.95674 5.87195C5.96368 5.85128 5.9929 5.85128 5.9998 5.87195Z" fill="#F5F5F5"/>
<path d="M6.6475 1.10485L6.70069 1.26436L6.86883 1.26566C6.89058 1.26584 6.89963 1.29361 6.88211 1.30654L6.74686 1.40643L6.79757 1.56675C6.80413 1.5875 6.78052 1.60467 6.76278 1.59201L6.62597 1.49423L6.48917 1.59201C6.47147 1.60469 6.44783 1.5875 6.45438 1.56675L6.50508 1.40643L6.36983 1.30654C6.35234 1.29361 6.36133 1.26584 6.38312 1.26566L6.55125 1.26436L6.60444 1.10485C6.61138 1.08419 6.64061 1.08419 6.6475 1.10485Z" fill="#F5F5F5"/>
<path d="M6.6475 2.43543L6.70069 2.59495L6.86883 2.59625C6.89058 2.59642 6.89963 2.6242 6.88211 2.63713L6.74686 2.73701L6.79757 2.89733C6.80413 2.91808 6.78052 2.93525 6.76278 2.9226L6.62597 2.82482L6.48917 2.9226C6.47147 2.93528 6.44783 2.91808 6.45438 2.89733L6.50508 2.73701L6.36983 2.63713C6.35234 2.6242 6.36133 2.59642 6.38312 2.59625L6.55125 2.59495L6.60444 2.43543C6.61138 2.41475 6.64061 2.41475 6.6475 2.43543Z" fill="#F5F5F5"/>
<path d="M6.6475 3.91124L6.70069 4.07076L6.86883 4.07206C6.89058 4.07224 6.89963 4.10001 6.88211 4.11297L6.74686 4.21285L6.79757 4.37317C6.80413 4.39392 6.78052 4.41109 6.76278 4.39843L6.62597 4.30065L6.48917 4.39843C6.47147 4.41112 6.44783 4.39392 6.45438 4.37317L6.50508 4.21285L6.36983 4.11297C6.35234 4.10003 6.36133 4.07224 6.38312 4.07206L6.55125 4.07076L6.60444 3.91124C6.61138 3.89059 6.64061 3.89059 6.6475 3.91124Z" fill="#F5F5F5"/>
<path d="M6.6475 5.2672L6.70069 5.42671L6.86883 5.42802C6.89058 5.42819 6.89963 5.45596 6.88211 5.4689L6.74686 5.56878L6.79757 5.7291C6.80413 5.74985 6.78052 5.76702 6.76278 5.75436L6.62597 5.65659L6.48917 5.75436C6.47147 5.76705 6.44783 5.74985 6.45438 5.7291L6.50508 5.56878L6.36983 5.4689C6.35234 5.45596 6.36133 5.42819 6.38312 5.42802L6.55125 5.42671L6.60444 5.2672C6.61138 5.24655 6.64061 5.24655 6.6475 5.2672Z" fill="#F5F5F5"/>
<path d="M6.6475 6.50109L6.70069 6.6606L6.86883 6.6619C6.89058 6.66208 6.89963 6.68985 6.88211 6.70278L6.74686 6.80267L6.79757 6.96299C6.80413 6.98374 6.78052 7.00091 6.76278 6.98825L6.62597 6.89047L6.48917 6.98825C6.47147 7.00093 6.44783 6.98374 6.45438 6.96299L6.50508 6.80267L6.36983 6.70278C6.35234 6.68985 6.36133 6.66205 6.38312 6.6619L6.55125 6.6606L6.60444 6.50109C6.61138 6.48043 6.64061 6.48043 6.6475 6.50109Z" fill="#F5F5F5"/>
</g>
</g>
<defs>
<clipPath id="clip0_27158_267692">
<rect width="14" height="14" rx="7" fill="white"/>
</clipPath>
<clipPath id="clip1_27158_267692">
<rect x="0.583252" y="0.583252" width="12.8333" height="12.8333" rx="6.41667" fill="white"/>
</clipPath>
</defs>
</svg>
