<svg width="223" height="162" viewBox="0 0 223 162" fill="none" xmlns="http://www.w3.org/2000/svg">
<path d="M77.2433 155.477H168.854C170.651 155.477 172.401 154.903 173.849 153.838C175.297 152.773 176.367 151.274 176.903 149.558L195.446 90.132C195.666 89.4246 195.717 88.6752 195.595 87.9444C195.472 87.2135 195.18 86.5218 194.74 85.9249C194.301 85.3281 193.728 84.8429 193.067 84.5085C192.405 84.1741 191.675 83.9999 190.934 84H99.5464L77.2433 155.477Z" fill="#F0F0F0"/>
<path d="M99.5464 84.0003L77.2432 155.477H168.854C170.651 155.477 172.401 154.903 173.849 153.838C175.297 152.774 176.367 151.274 176.903 149.559L195.446 90.1323C195.666 89.4249 195.717 88.6755 195.595 87.9447C195.472 87.2138 195.18 86.5221 194.74 85.9252C194.301 85.3284 193.728 84.8432 193.067 84.5088C192.405 84.1744 191.675 84.0002 190.934 84.0003H99.5464ZM99.5464 82.3203H190.934C191.938 82.3208 192.928 82.5573 193.824 83.0109C194.721 83.4644 195.498 84.1223 196.093 84.9314C196.688 85.7405 197.084 86.6781 197.251 87.6687C197.417 88.6592 197.348 89.675 197.049 90.6339L178.506 150.058C177.871 152.119 176.589 153.922 174.851 155.2C173.114 156.478 171.011 157.164 168.854 157.157H77.2432C76.98 157.157 76.7204 157.095 76.4855 156.976C76.2506 156.857 76.0469 156.685 75.8909 156.473C75.7349 156.261 75.6309 156.015 75.5873 155.755C75.5438 155.496 75.5618 155.229 75.6401 154.978L97.9432 83.4987C98.0501 83.1571 98.2632 82.8586 98.5516 82.6467C98.84 82.4347 99.1885 82.3203 99.5464 82.3203Z" fill="#4C3133"/>
<path d="M76.0721 155.477H165.47C166.764 155.477 168.025 155.064 169.068 154.297C170.111 153.53 170.882 152.45 171.268 151.214L191.363 86.8512C191.466 86.5223 191.489 86.174 191.432 85.8343C191.375 85.4946 191.239 85.1731 191.035 84.8956C190.831 84.6182 190.564 84.3926 190.257 84.237C189.95 84.0814 189.61 84.0003 189.266 84H98.0824C97.0269 84.0003 95.9992 84.3378 95.149 84.9634C94.2989 85.589 93.671 86.4699 93.3568 87.4776L73.3096 151.723C73.1745 152.156 73.1431 152.615 73.218 153.063C73.293 153.51 73.4722 153.934 73.7411 154.299C74.01 154.664 74.3611 154.961 74.766 155.166C75.171 155.371 75.6184 155.477 76.0721 155.477Z" fill="white"/>
<path d="M98.0825 84.0003C97.027 84.0006 95.9992 84.3382 95.1491 84.9638C94.299 85.5894 93.671 86.4703 93.3569 87.4779L73.3097 151.724C73.1745 152.157 73.1432 152.615 73.2181 153.063C73.293 153.51 73.4722 153.934 73.7411 154.299C74.01 154.665 74.3612 154.962 74.7661 155.166C75.171 155.371 75.6184 155.477 76.0721 155.477H165.47C166.764 155.478 168.025 155.064 169.068 154.298C170.112 153.531 170.882 152.451 171.268 151.215L191.363 86.8515C191.466 86.5226 191.489 86.1743 191.432 85.8346C191.375 85.4949 191.239 85.1734 191.035 84.896C190.831 84.6185 190.564 84.3929 190.257 84.2374C189.95 84.0818 189.61 84.0006 189.266 84.0003H98.0825ZM98.0825 82.3203H189.266C189.875 82.3203 190.475 82.4635 191.018 82.7385C191.561 83.0135 192.032 83.4125 192.392 83.9033C192.753 84.394 192.992 84.9627 193.092 85.5633C193.192 86.1638 193.149 86.7795 192.966 87.3603L172.883 151.721C172.394 153.303 171.409 154.685 170.074 155.664C168.739 156.643 167.125 157.166 165.47 157.157H76.0721C75.3549 157.157 74.6476 156.989 74.0075 156.665C73.3675 156.342 72.8125 155.872 72.3876 155.294C71.9626 154.716 71.6795 154.047 71.5612 153.339C71.4429 152.632 71.4926 151.907 71.7065 151.222L91.7537 86.9763C92.1707 85.6247 93.0107 84.4427 94.1501 83.6045C95.2895 82.7662 96.668 82.3161 98.0825 82.3203Z" fill="#4C3133"/>
<path d="M139.814 124.858H169.814C170.802 124.858 171.851 124.056 172.154 123.065L173.704 117.992C174.006 117.003 173.45 116.201 172.461 116.201H142.461C141.472 116.201 140.426 117.003 140.123 117.992L138.57 123.065C138.268 124.056 138.83 124.858 139.814 124.858Z" fill="#F0F0F0"/>
<path d="M83.716 148.258H165.95C168.251 148.258 170.601 146.468 171.299 144.178L186.743 93.6462C187.106 92.4462 186.95 91.2822 186.311 90.4206C185.988 90.001 185.57 89.6648 185.091 89.4402C184.611 89.2155 184.085 89.109 183.556 89.1294H101.236C98.9632 89.1294 96.6424 90.8982 95.956 93.1566L80.5072 143.691C80.1376 144.891 80.296 146.091 80.9416 146.953C81.2673 147.375 81.6888 147.713 82.1712 147.94C82.6537 148.167 83.1832 148.276 83.716 148.258ZM183.556 90.8094C183.822 90.7922 184.088 90.8385 184.333 90.9445C184.577 91.0505 184.793 91.2131 184.962 91.419C185.284 91.8534 185.344 92.4702 185.135 93.1566L169.686 143.691C169.206 145.256 167.493 146.571 165.942 146.571H83.716C83.4435 146.589 83.1707 146.541 82.9203 146.432C82.6699 146.323 82.449 146.156 82.276 145.945C81.9472 145.501 81.8848 144.872 82.0984 144.173L97.5496 93.6462C98.0296 92.1078 99.7096 90.8094 101.229 90.8094H183.556Z" fill="#4C3133"/>
<path d="M108.71 84H118.175C118.384 85.9485 118.726 87.8802 119.2 89.7816C121.725 99.6072 128.86 107.899 137.541 113.374C146.104 118.771 154.168 121.171 164.162 122.753C163.506 125.581 162.339 128.265 160.718 130.673H108.71V84Z" fill="#E2E2E0"/>
<path d="M95.5529 98.1599H184.742C184.921 98.1602 185.097 98.1027 185.241 97.996C185.386 97.8893 185.493 97.739 185.546 97.5671L186.89 93.1727C187.056 92.6959 187.108 92.1866 187.04 91.6862C186.972 91.1857 186.788 90.7083 186.501 90.2927C186.212 89.9171 185.838 89.6161 185.409 89.4148C184.98 89.2136 184.509 89.1179 184.036 89.1359H100.756C98.7521 89.1359 96.7073 90.6935 96.0977 92.6807L94.7561 97.0751C94.7179 97.2005 94.7095 97.3331 94.7318 97.4623C94.754 97.5915 94.8061 97.7137 94.884 97.8191C94.9619 97.9246 95.0634 98.0103 95.1804 98.0695C95.2974 98.1287 95.4266 98.1596 95.5577 98.1599H95.5529ZM184.113 96.4799H96.6809L97.6937 93.1727C98.0849 91.8935 99.4817 90.8159 100.744 90.8159H184.024C184.235 90.8017 184.446 90.8378 184.64 90.9213C184.834 91.0047 185.005 91.1332 185.14 91.2959C185.392 91.6391 185.44 92.1311 185.27 92.6831L184.113 96.4799Z" fill="#4C3133"/>
<path d="M173.434 94.6742C173.091 94.275 173.251 93.5747 173.793 93.1102C174.334 92.6456 175.05 92.5927 175.393 92.992C175.736 93.3912 175.575 94.0914 175.034 94.556C174.493 95.0205 173.776 95.0735 173.434 94.6742Z" fill="#4C3133"/>
<path d="M168.55 94.6713C168.207 94.2721 168.368 93.5718 168.909 93.1073C169.45 92.6427 170.167 92.5898 170.51 92.989C170.852 93.3883 170.692 94.0885 170.151 94.553C169.61 95.0176 168.893 95.0705 168.55 94.6713Z" fill="#4C3133"/>
<path d="M141.413 87.1752C141.07 86.776 141.231 86.0757 141.772 85.6112C142.313 85.1466 143.029 85.0937 143.372 85.4929C143.715 85.8922 143.554 86.5924 143.013 87.057C142.472 87.5215 141.756 87.5744 141.413 87.1752Z" fill="#4C3133"/>
<path d="M178.76 94.6752C178.418 94.276 178.578 93.5757 179.119 93.1112C179.66 92.6466 180.377 92.5937 180.72 92.9929C181.063 93.3922 180.902 94.0924 180.361 94.557C179.82 95.0215 179.103 95.0744 178.76 94.6752Z" fill="#4C3133"/>
<path d="M143.824 111.742H173.824C174.813 111.742 175.859 110.94 176.162 109.949L177.71 104.88C178.012 103.891 177.455 103.09 176.466 103.09H146.466C145.478 103.09 144.429 103.891 144.126 104.88L142.576 109.954C142.278 110.94 142.835 111.742 143.824 111.742Z" fill="#F0F0F0"/>
<path d="M135.803 137.974H165.803C166.792 137.974 167.841 137.173 168.143 136.181L169.694 131.108C169.996 130.119 169.439 129.317 168.45 129.317H138.45C137.462 129.317 136.415 130.119 136.113 131.108L134.56 136.181C134.258 137.173 134.814 137.974 135.803 137.974Z" fill="#F0F0F0"/>
<path d="M116.494 137.743C114.874 135.856 115.635 132.544 118.196 130.345C120.756 128.147 124.145 127.895 125.766 129.782C127.387 131.67 126.625 134.982 124.065 137.181C121.504 139.379 118.115 139.631 116.494 137.743Z" fill="#F0F0F0"/>
<path d="M168.875 155.477H4.69125C4.69093 156.041 4.80188 156.6 5.01775 157.122C5.23363 157.644 5.55019 158.118 5.94937 158.518C6.34854 158.917 6.82249 159.234 7.34416 159.45C7.86581 159.666 8.42497 159.777 8.98965 159.777H164.574C165.139 159.777 165.698 159.666 166.219 159.45C166.741 159.234 167.215 158.918 167.614 158.518C168.013 158.119 168.33 157.645 168.546 157.124C168.762 156.602 168.873 156.043 168.873 155.479L168.875 155.477Z" fill="#F0F0F0"/>
<path d="M4.69131 155.477C4.69099 156.042 4.80193 156.601 5.01781 157.123C5.23367 157.644 5.55025 158.118 5.94942 158.518C6.34859 158.917 6.82256 159.234 7.34421 159.45C7.86588 159.666 8.42502 159.778 8.9897 159.778H164.574C165.715 159.778 166.809 159.325 167.616 158.518C168.422 157.711 168.875 156.618 168.875 155.477H4.69131ZM4.69131 153.797H168.875C169.321 153.797 169.748 153.974 170.063 154.289C170.378 154.604 170.555 155.031 170.555 155.477C170.55 157.062 169.918 158.58 168.798 159.7C167.677 160.821 166.159 161.453 164.574 161.458H8.9897C7.40547 161.452 5.88777 160.82 4.76778 159.7C3.64777 158.579 3.01637 157.061 3.01131 155.477C3.01131 155.031 3.18831 154.604 3.50336 154.289C3.81842 153.974 4.24574 153.797 4.69131 153.797Z" fill="#4C3133"/>
<path d="M162.275 157.734C163.051 157.733 163.811 157.524 164.477 157.126C165.143 156.729 165.689 156.16 166.058 155.478H168.875C168.875 156.618 168.422 157.712 167.616 158.519C166.809 159.325 165.715 159.778 164.574 159.778H8.98965C8.20151 159.778 7.42868 159.561 6.75568 159.15C6.08266 158.74 5.53537 158.153 5.17365 157.453C5.65741 157.637 6.17044 157.732 6.68803 157.734H162.275Z" fill="#E2E2E0"/>
<path d="M91.6169 155.477C91.6169 155.477 91.2617 158.472 95.0681 160.8L91.6169 155.477Z" fill="white"/>
<path d="M95.0681 161.64C95.2515 161.641 95.4302 161.581 95.5766 161.471C95.7231 161.36 95.8293 161.205 95.8791 161.028C95.9289 160.851 95.9195 160.663 95.8524 160.493C95.7852 160.322 95.664 160.178 95.5073 160.082C92.2505 158.093 92.4425 155.671 92.4521 155.568C92.4772 155.345 92.4128 155.122 92.2731 154.946C92.1333 154.771 91.9297 154.658 91.7069 154.633C91.4841 154.608 91.2604 154.673 91.0851 154.812C90.9098 154.952 90.7972 155.156 90.7721 155.378C90.7553 155.522 90.4001 158.938 94.6121 161.518C94.7496 161.6 94.9076 161.643 95.0681 161.64Z" fill="#4C3133"/>
<path d="M21.688 120.18C20.3872 120.132 19.144 119.666 17.9272 119.206C16.5904 118.699 15.2536 118.19 13.9576 117.583C12.8488 117.062 9.70242 115.217 9.34482 114.686C8.98722 114.156 8.94643 113.359 9.41683 112.925C10.1368 112.258 11.4352 112.848 12.2368 112.274C13.3168 111.502 12.3112 110.093 11.4136 109.699C10.0768 109.111 8.53362 109.44 7.20162 108.833C6.22002 108.382 5.47842 107.114 6.07362 106.214C6.54162 105.509 7.57363 105.386 8.09683 104.722C8.90323 103.694 7.96482 102.134 6.77922 101.585C5.59362 101.035 4.20882 101.03 3.04242 100.445C1.87602 99.8592 1.04083 98.2032 1.94563 97.2648C3.12403 96.0408 5.54563 97.536 6.77203 96.3504C7.73203 95.4096 6.97842 93.7824 6.10242 92.7504C5.22642 91.7184 4.18243 90.4128 4.74883 89.1888C5.28643 88.0248 6.97123 87.9048 8.10883 88.4688C9.24643 89.0328 10.1008 90.0768 11.1712 90.7824C12.2416 91.488 13.8112 91.7832 14.7208 90.8784C15.4792 90.1224 15.4408 88.8696 16.0408 87.9792C17.128 86.3496 19.8544 86.7792 21.0808 88.32C22.3072 89.8608 22.4128 91.968 22.4248 93.9264C22.4248 95.2392 22.8808 97.0272 24.1912 96.936C25.1032 96.876 25.6312 95.8536 26.452 95.4576C28.0072 94.7136 29.7184 96.6576 29.572 98.3664C29.4256 100.075 28.2256 101.486 27.304 102.95C25.4728 105.845 24.904 109.37 24.904 112.838C24.9064 116.021 26.572 120.355 21.688 120.18Z" fill="#FFD900"/>
<path d="M21.9688 121.025C23.368 121.025 24.3832 120.667 25.0696 119.935C26.2696 118.666 26.068 116.698 25.8784 114.794C25.8112 114.108 25.7464 113.458 25.7464 112.86C25.7464 108.919 26.4928 105.83 28.0192 103.418C28.1968 103.138 28.384 102.859 28.5736 102.581C29.4112 101.338 30.28 100.054 30.412 98.4552C30.4456 97.7836 30.3092 97.1144 30.0156 96.5095C29.7219 95.9046 29.2805 95.3835 28.732 94.9944C28.3556 94.7132 27.91 94.5392 27.4426 94.491C26.9752 94.4428 26.5035 94.5223 26.0776 94.7208C25.6668 94.938 25.292 95.2173 24.9664 95.5488C24.6448 95.844 24.3664 96.1008 24.1216 96.1176C24.0679 96.124 24.0136 96.1177 23.9627 96.0994C23.9119 96.0811 23.8661 96.0512 23.8288 96.012C23.4952 95.7024 23.2576 94.8504 23.2528 93.9408C23.2408 91.896 23.1112 89.568 21.7264 87.8184C21.2729 87.2714 20.7001 86.8355 20.0519 86.5443C19.4037 86.2531 18.6974 86.1142 17.9872 86.1384C17.4666 86.1426 16.9548 86.2724 16.4951 86.5169C16.0355 86.7613 15.6417 87.1131 15.3472 87.5424C15.057 88.0179 14.8394 88.534 14.7016 89.0736C14.5456 89.5896 14.4088 90.0336 14.1328 90.312C13.5688 90.8736 12.4264 90.6264 11.6392 90.108C11.2242 89.8211 10.8282 89.5076 10.4536 89.1696C9.86188 88.6143 9.20224 88.1361 8.4904 87.7464C7.56384 87.2797 6.49157 87.1936 5.5024 87.5064C5.17044 87.614 4.86412 87.7886 4.60238 88.0193C4.34065 88.2501 4.12909 88.5322 3.98081 88.848C3.16241 90.6216 4.6552 92.3664 5.4592 93.3048C6.1792 94.1376 6.6592 95.2752 6.1792 95.748C5.8504 96.072 5.1568 96.0144 4.4248 95.9568C3.436 95.8776 2.2048 95.7792 1.336 96.6768C1.08625 96.9393 0.903147 97.2578 0.80208 97.6057C0.701014 97.9536 0.684942 98.3207 0.755205 98.676C0.865177 99.2102 1.09314 99.7131 1.42243 100.148C1.75171 100.583 2.17399 100.938 2.6584 101.189C3.33667 101.5 4.05092 101.726 4.7848 101.861C5.34557 101.964 5.89412 102.125 6.4216 102.341C6.68361 102.465 6.91702 102.642 7.10705 102.861C7.29708 103.08 7.43961 103.336 7.52561 103.613C7.55876 103.71 7.56755 103.814 7.55123 103.915C7.53491 104.016 7.49397 104.112 7.43201 104.194C7.22307 104.396 6.97911 104.559 6.71201 104.674C6.17885 104.906 5.71555 105.273 5.368 105.739C5.19159 106.011 5.07696 106.317 5.03217 106.638C4.98738 106.959 5.01354 107.285 5.10881 107.594C5.24259 108.029 5.46617 108.431 5.76509 108.774C6.064 109.116 6.43158 109.392 6.844 109.584C7.6456 109.951 8.4592 110.028 9.244 110.1C9.86605 110.122 10.4807 110.242 11.0656 110.455C11.4328 110.616 11.8216 111.074 11.8528 111.382C11.8528 111.439 11.8528 111.49 11.7376 111.581C11.5672 111.703 11.1952 111.708 10.8376 111.713C10.2208 111.713 9.4504 111.732 8.8384 112.296C8.092 112.985 8.008 114.216 8.6392 115.145C9.2032 115.982 12.8992 118.006 13.5928 118.33C14.968 118.985 16.3816 119.52 17.6296 120C18.8296 120.458 20.2048 120.977 21.6568 121.027L21.9688 121.025ZM27.1672 96.1536C27.3924 96.1623 27.6095 96.2402 27.7888 96.3768C28.0949 96.5972 28.3424 96.8891 28.5098 97.2272C28.6771 97.5652 28.7592 97.939 28.7488 98.316C28.6504 99.4776 27.9424 100.529 27.1912 101.64C26.992 101.933 26.7952 102.226 26.608 102.521C24.9064 105.209 24.0784 108.59 24.076 112.858C24.076 113.539 24.148 114.262 24.2176 114.96C24.3688 116.491 24.5248 118.08 23.8552 118.786C23.476 119.191 22.7536 119.376 21.7264 119.34C20.5504 119.297 19.372 118.86 18.2344 118.421C17.0152 117.96 15.6328 117.437 14.3248 116.822C13.168 116.278 10.4368 114.634 10.0408 114.199C9.8896 113.959 9.88721 113.642 9.99761 113.544C10.108 113.446 10.5136 113.41 10.8808 113.405C11.44 113.405 12.136 113.386 12.7336 112.958C13.0156 112.771 13.2405 112.509 13.3836 112.202C13.5267 111.895 13.5825 111.555 13.5448 111.218C13.4368 110.194 12.5464 109.274 11.7616 108.931C11.0126 108.643 10.2211 108.481 9.4192 108.451C8.7829 108.431 8.15438 108.305 7.5592 108.079C7.36857 107.988 7.19816 107.859 7.05802 107.701C6.91788 107.543 6.81084 107.358 6.74321 107.158C6.71289 107.082 6.70077 107.001 6.70786 106.92C6.71495 106.839 6.74104 106.761 6.784 106.692C6.98466 106.473 7.23023 106.299 7.504 106.183C7.98163 105.961 8.40631 105.64 8.74961 105.24C8.96725 104.959 9.11723 104.631 9.18797 104.282C9.25872 103.933 9.24834 103.573 9.15761 103.229C9.01283 102.705 8.75606 102.22 8.40507 101.805C8.05408 101.391 7.61725 101.058 7.1248 100.829C6.49024 100.558 5.82788 100.358 5.1496 100.231C4.55117 100.124 3.9678 99.9449 3.41201 99.6984C3.16215 99.5663 2.9434 99.3823 2.77039 99.1588C2.59738 98.9353 2.47411 98.6774 2.40881 98.4024C2.38252 98.3066 2.38106 98.2056 2.40458 98.1091C2.42809 98.0125 2.4758 97.9235 2.54321 97.8504C2.83841 97.5456 3.4 97.5648 4.288 97.6368C5.2624 97.7136 6.4744 97.812 7.3504 96.9576C8.644 95.6952 7.972 93.6672 6.7336 92.2176C5.9608 91.3152 5.1664 90.2976 5.5048 89.556C5.56008 89.4453 5.63765 89.3472 5.73264 89.2679C5.82763 89.1887 5.93801 89.1299 6.05681 89.0952C6.61547 88.9305 7.21581 88.9837 7.73681 89.244C8.32339 89.5759 8.8667 89.9789 9.35441 90.444C9.78379 90.8313 10.2384 91.1897 10.7152 91.5168C12.0472 92.3952 14.056 92.7648 15.3184 91.5168C15.8944 90.9432 16.1152 90.216 16.3096 89.5752C16.4035 89.1945 16.5497 88.8286 16.744 88.488C16.8953 88.2808 17.0942 88.1129 17.3239 87.9985C17.5536 87.884 17.8074 87.8264 18.064 87.8304C18.5099 87.8187 18.9528 87.9073 19.3599 88.0897C19.767 88.272 20.1279 88.5435 20.416 88.884C21.4696 90.216 21.568 92.1288 21.58 93.9744C21.58 94.5072 21.6712 96.3192 22.6912 97.2673C22.8971 97.4619 23.1413 97.6115 23.4083 97.7065C23.6752 97.8016 23.959 97.84 24.2416 97.8192C25.0792 97.7616 25.6528 97.2312 26.1136 96.804C26.3198 96.5917 26.554 96.4084 26.8096 96.2592C26.9188 96.1963 27.0413 96.1602 27.1672 96.1536Z" fill="#4C3133"/>
<path d="M40.1656 130.559L36.3856 153.657H17.6296L13.3432 130.598C13.1608 129.614 13.804 128.678 14.6656 128.678H38.836C39.6856 128.675 40.324 129.575 40.1656 130.559Z" fill="white"/>
<path d="M14.6632 128.676C13.7992 128.676 13.1584 129.602 13.3408 130.596L17.6296 153.645H36.3856L40.1656 130.56C40.324 129.588 39.6856 128.688 38.836 128.688H14.6632V128.676ZM14.6632 127.008H38.836C39.2641 127.011 39.6865 127.107 40.0737 127.289C40.4609 127.472 40.8035 127.737 41.0776 128.066C41.395 128.445 41.6262 128.889 41.7551 129.366C41.8839 129.844 41.9075 130.344 41.824 130.831L38.044 153.929C37.9796 154.322 37.7775 154.68 37.4737 154.938C37.1699 155.196 36.7842 155.338 36.3856 155.337H17.6296C17.2366 155.338 16.856 155.2 16.5539 154.949C16.2518 154.698 16.0473 154.349 15.976 153.962L11.692 130.903C11.5973 130.41 11.6128 129.903 11.7373 129.417C11.8617 128.931 12.0922 128.479 12.412 128.093C12.6858 127.756 13.0307 127.484 13.422 127.297C13.8133 127.109 14.2413 127.01 14.6752 127.008H14.6632Z" fill="#4C3133"/>
<path d="M29.3752 150.285C30.5963 150.284 31.7773 149.849 32.7072 149.058C33.6371 148.266 34.2553 147.17 34.4512 145.965L37.2808 128.668H38.836C39.6856 128.668 40.324 129.568 40.1656 130.54L36.3856 153.638H17.6296L16.8952 149.694C17.6266 150.076 18.4391 150.276 19.264 150.278L29.3752 150.285Z" fill="#F0F0F0"/>
<path d="M24.0928 128.049C24.1549 128.049 24.2167 128.042 24.2776 128.03C24.3853 128.006 24.4871 127.96 24.5772 127.897C24.6673 127.833 24.744 127.752 24.8028 127.659C24.8617 127.565 24.9015 127.461 24.9201 127.352C24.9387 127.244 24.9357 127.132 24.9112 127.025C23.7928 122.061 22.636 116.928 20.7328 112.077C18.5728 106.586 15.7072 102.18 12.196 98.9781C12.0311 98.8279 11.8133 98.7493 11.5906 98.7597C11.3678 98.77 11.1582 98.8685 11.008 99.0333C10.8578 99.1982 10.7792 99.416 10.7896 99.6388C10.7999 99.8616 10.8983 100.071 11.0632 100.221C14.3824 103.245 17.1088 107.441 19.1704 112.701C21.0256 117.432 22.168 122.501 23.272 127.404C23.3163 127.588 23.4213 127.752 23.5703 127.869C23.7192 127.986 23.9033 128.05 24.0928 128.049Z" fill="#4C3133"/>
<path d="M23.7184 112.629C25.4128 115.043 28.4848 118.823 31.7416 118.893C34.4032 118.951 36.7408 116.493 38.4928 114.736C41.255 111.995 43.444 108.732 44.932 105.136C45.0472 104.853 45.1576 104.515 44.9968 104.255C44.6656 103.718 43.8712 104.191 43.2568 104.335C42.2728 104.575 41.308 103.667 41.0968 102.679C40.8856 101.69 41.188 100.67 41.4952 99.7051L44.8216 89.2459C45.1216 88.2859 45.4264 87.2827 45.1528 86.3275C44.8792 85.3723 43.7728 84.5899 42.8824 85.0363C41.7688 85.5931 41.5192 87.6595 40.288 87.4627C39.328 87.3091 39.2872 85.9387 39.4768 84.9739C40.5601 79.4536 40.4118 73.7622 39.0424 68.3059C38.8552 67.5643 38.5072 66.6979 37.7536 66.5779C36.8128 66.4243 36.1984 67.5691 36.1216 68.5171C36.0448 69.4651 36.148 70.5571 35.4736 71.2291C34.7176 71.9851 33.3616 71.7091 32.5936 70.9699C31.8256 70.2307 31.4728 69.1675 31.0744 68.1739C30.3183 66.2776 29.3101 64.4919 28.0768 62.8651C27.2344 61.7539 25.8832 60.6163 24.604 61.1683C23.4424 61.6699 23.224 63.2035 23.2696 64.4659C23.38 67.5595 24.0664 70.5979 24.748 73.6171L20.0008 69.7003C19.5208 69.3043 18.9592 68.8843 18.3448 68.9683C17.3848 69.1003 17.0224 70.2979 17.008 71.2651C16.9933 72.8365 17.3203 74.3924 17.9664 75.8249C18.6124 77.2575 19.5621 78.5326 20.7496 79.5619C21.4696 80.1787 22.3 80.7163 22.8208 81.5155C23.3416 82.3147 23.4448 83.5003 22.7416 84.1555L18.9016 81.8683C18.3376 81.5323 17.6656 81.1867 17.0584 81.4339C16.4512 81.6811 16.2256 82.3675 16.3 82.9795C16.3744 83.5915 16.7056 84.1363 17.02 84.6595L23.932 95.7595C24.0901 95.9695 24.1887 96.2182 24.2176 96.4795C24.2344 97.2307 23.1712 97.5163 22.4776 97.2307C21.784 96.9451 21.2176 96.3547 20.4808 96.2107C19.2568 95.9707 18.1192 97.1371 17.9128 98.3707C17.7064 99.6043 18.1528 100.833 18.6064 101.997C20.0296 105.676 21.4528 109.401 23.7184 112.629Z" fill="#FFD900"/>
<path d="M31.8328 119.733C34.6792 119.733 37.0744 117.333 38.8312 115.586L39.0856 115.332C41.9245 112.508 44.1759 109.15 45.7096 105.451C45.82 105.182 46.1152 104.467 45.7096 103.812C45.1072 102.832 43.9864 103.214 43.4464 103.396C43.3048 103.444 43.1704 103.49 43.0624 103.514C42.9715 103.532 42.878 103.531 42.7876 103.511C42.6972 103.491 42.6118 103.453 42.5368 103.399C42.2196 103.188 41.9941 102.865 41.9056 102.494C41.728 101.7 42.0232 100.773 42.2824 99.9572L45.6088 89.498C45.9016 88.5812 46.3 87.326 45.9496 86.0948C45.8298 85.6939 45.6253 85.3233 45.3499 85.0083C45.0746 84.6932 44.7348 84.4409 44.3536 84.2684C44.0624 84.1325 43.7445 84.0632 43.4231 84.0657C43.1018 84.0682 42.785 84.1424 42.496 84.2828C41.8 84.6284 41.4016 85.2788 41.056 85.8524C40.8496 86.1908 40.576 86.6564 40.4152 86.6324C40.3864 86.6324 40.3816 86.6324 40.36 86.5964C40.2232 86.3996 40.1584 85.8356 40.2952 85.1348C41.4009 79.4912 41.2493 73.6732 39.8512 68.0948C39.496 66.6884 38.8336 65.8964 37.8832 65.7428C37.6224 65.6998 37.3554 65.7129 37.1001 65.7812C36.8447 65.8495 36.6069 65.9714 36.4024 66.1388C35.6632 66.7196 35.3392 67.7108 35.2792 68.4476C35.2648 68.6348 35.2576 68.8268 35.248 69.0212C35.2192 69.686 35.1928 70.3148 34.876 70.6316C34.48 71.0252 33.6352 70.8092 33.172 70.3628C32.6248 69.8324 32.3152 69.0476 31.9912 68.2148L31.8496 67.8572C31.0616 65.8909 30.0121 64.0399 28.7296 62.354C27.3376 60.5156 25.6624 59.7836 24.2536 60.3932C23.3608 60.7796 22.3168 61.8044 22.4128 64.4924C22.5321 66.8222 22.8533 69.1373 23.3728 71.4116L20.4928 69.0476C20.0464 68.6804 19.2112 67.994 18.1888 68.1332C16.9624 68.2988 16.1536 69.5228 16.1272 71.2532C16.1097 72.9502 16.4635 74.6306 17.1637 76.1765C17.8639 77.7225 18.8936 79.0967 20.1808 80.2028C20.3632 80.3564 20.548 80.5052 20.7328 80.654C21.2522 81.0207 21.7107 81.467 22.0912 81.9764C22.282 82.2704 22.3806 82.6147 22.3744 82.9652L19.3072 81.1364C18.8056 80.8388 17.7664 80.2196 16.7176 80.6564C15.8368 81.0164 15.3112 82.0124 15.4408 83.0804C15.5392 83.8868 15.9568 84.5612 16.2928 85.1036L23.188 96.2156C23.2381 96.293 23.2837 96.3731 23.3248 96.4556C23.1438 96.524 22.9441 96.524 22.7632 96.4556C22.5265 96.3482 22.3 96.2197 22.0864 96.0716C21.6433 95.7507 21.142 95.5192 20.6104 95.39C20.2535 95.3252 19.8871 95.333 19.5333 95.413C19.1795 95.493 18.8455 95.6435 18.5512 95.8556C17.7593 96.4191 17.2213 97.2719 17.0536 98.2292C16.8136 99.7196 17.3512 101.148 17.7928 102.309C19.2016 105.988 20.6728 109.795 23.0008 113.126C26.044 117.46 28.9672 119.688 31.6936 119.748L31.8328 119.733ZM44.0992 104.949C42.6517 108.387 40.5467 111.51 37.9024 114.141L37.6432 114.398C35.992 116.047 33.94 118.104 31.7608 118.053C29.6296 118.008 27.088 115.965 24.4072 112.147C22.1872 108.986 20.7664 105.278 19.3912 101.692C19.0048 100.684 18.568 99.5324 18.7432 98.5052C18.8353 97.9951 19.1207 97.5403 19.54 97.2356C19.6502 97.1522 19.776 97.0916 19.9099 97.0574C20.0438 97.0232 20.1832 97.0161 20.32 97.0364C20.641 97.1309 20.9426 97.282 21.2104 97.4828C21.5139 97.6865 21.8352 97.8624 22.1704 98.0084C22.5259 98.1517 22.9106 98.2077 23.2923 98.1718C23.6739 98.1359 24.0414 98.0091 24.364 97.802C24.5854 97.6569 24.7663 97.4578 24.8898 97.2236C25.0132 96.9893 25.0751 96.7275 25.0696 96.4628C25.0411 96.0506 24.8991 95.6544 24.6592 95.318L17.764 84.206C17.4904 83.762 17.2048 83.306 17.152 82.8644C17.1184 82.5836 17.2336 82.2668 17.392 82.1996C17.668 82.0892 18.2632 82.4396 18.4888 82.5788L22.3288 84.866C22.4842 84.9582 22.6652 84.9979 22.845 84.9793C23.0248 84.9607 23.1938 84.8848 23.3272 84.7628C24.3928 83.7836 24.2344 82.1228 23.5408 81.0596C23.0668 80.3952 22.4861 79.8137 21.8224 79.3388C21.6496 79.2028 21.4792 79.0636 21.3112 78.9212C20.2102 77.9777 19.3288 76.8049 18.7289 75.4848C18.129 74.1648 17.825 72.7295 17.8384 71.2796C17.8384 70.6076 18.0784 69.8516 18.448 69.8012C18.7432 69.7628 19.2064 70.1444 19.456 70.3484L24.2056 74.2628C24.3404 74.3691 24.5046 74.4316 24.6761 74.4417C24.8475 74.4518 25.0179 74.4092 25.1644 74.3195C25.3108 74.2298 25.4263 74.0973 25.4951 73.94C25.564 73.7827 25.583 73.6081 25.5496 73.4396C24.8848 70.502 24.1984 67.466 24.0904 64.442C24.0664 63.8108 24.0904 62.2988 24.9184 61.9484C25.6864 61.6148 26.7304 62.51 27.388 63.3884C28.5737 64.9558 29.5425 66.6762 30.268 68.5028L30.4048 68.846C30.7624 69.7676 31.1704 70.8092 31.9816 71.5916C33.04 72.614 34.924 72.9572 36.0424 71.8316C36.82 71.054 36.868 69.974 36.904 69.1076C36.904 68.9324 36.9208 68.7596 36.9328 68.5916C36.9529 68.1732 37.1234 67.7761 37.4128 67.4732C37.5064 67.3988 37.5544 67.4084 37.588 67.4132C37.7536 67.4396 38.0008 67.7444 38.1952 68.5172C39.5323 73.8544 39.6781 79.4205 38.6224 84.8204C38.5168 85.3508 38.3392 86.6828 38.956 87.566C39.0896 87.7624 39.2625 87.929 39.4636 88.0554C39.6648 88.1817 39.8898 88.2652 40.1248 88.3004C41.3824 88.502 42.0304 87.4412 42.4624 86.7404C42.7024 86.3396 42.9616 85.9268 43.228 85.7948C43.2963 85.7647 43.3708 85.751 43.4453 85.7548C43.5199 85.7585 43.5926 85.7796 43.6576 85.8164C43.8127 85.889 43.9511 85.9931 44.0638 86.122C44.1766 86.2509 44.2614 86.4018 44.3128 86.5652C44.5096 87.254 44.284 88.0748 43.9888 88.9988L40.6624 99.458C40.3552 100.418 39.9712 101.632 40.2472 102.868C40.4316 103.678 40.9262 104.383 41.6248 104.832C41.8884 105.003 42.1835 105.121 42.4929 105.177C42.8024 105.234 43.1199 105.228 43.4272 105.16C43.6144 105.115 43.7944 105.055 43.9672 104.997L44.0992 104.949Z" fill="#4C3133"/>
<path d="M30.004 127.838C30.1811 127.838 30.3535 127.781 30.4966 127.677C30.6397 127.573 30.7461 127.426 30.8008 127.257C35.3019 113.324 35.1891 98.3103 30.4792 84.4461C30.4467 84.3379 30.3927 84.2374 30.3205 84.1505C30.2483 84.0637 30.1593 83.9923 30.0589 83.9407C29.9584 83.889 29.8486 83.8581 29.7359 83.8499C29.6233 83.8417 29.5102 83.8562 29.4033 83.8927C29.2964 83.9292 29.198 83.9869 29.1139 84.0623C29.0298 84.1377 28.9618 84.2293 28.9139 84.3316C28.866 84.4338 28.8392 84.5447 28.8352 84.6576C28.8312 84.7705 28.8499 84.883 28.8904 84.9885C33.4854 98.5121 33.5957 113.157 29.2048 126.748C29.1645 126.875 29.1545 127.009 29.1755 127.139C29.1965 127.27 29.248 127.394 29.3258 127.501C29.4036 127.609 29.5055 127.696 29.6233 127.757C29.7411 127.817 29.8715 127.849 30.004 127.85V127.838Z" fill="#4C3133"/>
<path d="M25.9095 134.159H40.5495C40.7723 134.159 40.986 134.071 41.1435 133.913C41.301 133.756 41.3895 133.542 41.3895 133.319C41.3895 133.097 41.301 132.883 41.1435 132.726C40.986 132.568 40.7723 132.479 40.5495 132.479H25.9095C25.6867 132.479 25.4731 132.568 25.3156 132.726C25.158 132.883 25.0695 133.097 25.0695 133.319C25.0695 133.542 25.158 133.756 25.3156 133.913C25.4731 134.071 25.6867 134.159 25.9095 134.159Z" fill="#4C3133"/>
<path d="M17.7496 134.159H20.6296C20.8524 134.159 21.066 134.071 21.2236 133.913C21.3811 133.756 21.4696 133.542 21.4696 133.319C21.4696 133.097 21.3811 132.883 21.2236 132.726C21.066 132.568 20.8524 132.479 20.6296 132.479H17.7496C17.5268 132.479 17.3132 132.568 17.1556 132.726C16.9981 132.883 16.9096 133.097 16.9096 133.319C16.9096 133.542 16.9981 133.756 17.1556 133.913C17.3132 134.071 17.5268 134.159 17.7496 134.159Z" fill="#4C3133"/>
<path d="M68.6871 1.67969H122.572C123.036 1.67937 123.496 1.7705 123.925 1.94787C124.354 2.12524 124.744 2.38538 125.072 2.71343C125.401 3.04148 125.662 3.43102 125.839 3.85981C126.017 4.2886 126.109 4.74824 126.109 5.21249V20.9085C126.11 21.3728 126.019 21.8327 125.841 22.2617C125.663 22.6908 125.403 23.0806 125.075 23.409C124.746 23.7373 124.357 23.9977 123.928 24.1752C123.498 24.3528 123.039 24.444 122.574 24.4437H121.055C120.949 24.4437 120.847 24.4859 120.772 24.5611C120.697 24.6362 120.654 24.7382 120.654 24.8445V28.9605C120.655 29.0312 120.637 29.1008 120.602 29.1621C120.566 29.2234 120.515 29.2743 120.454 29.3095C120.393 29.3446 120.323 29.3629 120.253 29.3623C120.182 29.3617 120.113 29.3423 120.052 29.3061L111.933 24.5061C111.871 24.4682 111.801 24.4483 111.729 24.4485H68.6871C68.2222 24.4488 67.7619 24.3574 67.3324 24.1796C66.9029 24.0018 66.5127 23.741 66.1841 23.4122C65.8555 23.0834 65.595 22.693 65.4174 22.2634C65.2399 21.8338 65.1489 21.3733 65.1495 20.9085V5.21249C65.1508 4.27509 65.524 3.37652 66.1873 2.71413C66.8506 2.05174 67.7497 1.67969 68.6871 1.67969Z" fill="white"/>
<path d="M68.6871 1.68C67.7498 1.68 66.8507 2.05205 66.1874 2.71444C65.5241 3.37683 65.1508 4.2754 65.1496 5.2128V20.9088C65.1496 21.3732 65.2411 21.8331 65.4189 22.2622C65.5967 22.6913 65.8573 23.0811 66.1858 23.4094C66.5144 23.7377 66.9044 23.9981 67.3335 24.1756C67.7627 24.3531 68.2227 24.4443 68.6871 24.444H111.726C111.798 24.4438 111.869 24.4638 111.93 24.5016L120.05 29.3016C120.111 29.3378 120.18 29.3569 120.251 29.3568C120.357 29.3568 120.459 29.3146 120.535 29.2394C120.61 29.1642 120.652 29.0623 120.652 28.956V24.8448C120.652 24.7385 120.694 24.6366 120.769 24.5614C120.845 24.4862 120.946 24.444 121.053 24.444H122.572C123.036 24.4446 123.497 24.3536 123.926 24.1762C124.355 23.9988 124.745 23.7385 125.074 23.4101C125.403 23.0818 125.663 22.6918 125.841 22.2626C126.019 21.8334 126.11 21.3733 126.11 20.9088V5.2128C126.109 4.74855 126.017 4.28891 125.84 3.86012C125.662 3.43133 125.401 3.04179 125.072 2.71374C124.744 2.38569 124.354 2.12555 123.925 1.94818C123.496 1.77081 123.036 1.67968 122.572 1.68H68.6871ZM68.6871 0H122.572C123.955 0.00126841 125.28 0.550728 126.258 1.52791C127.236 2.50508 127.787 3.83023 127.79 5.2128V20.9088C127.788 22.2914 127.238 23.6168 126.26 24.5944C125.282 25.572 123.957 26.1221 122.574 26.124H122.334V28.9608C122.335 29.328 122.238 29.6888 122.054 30.0065C121.87 30.3242 121.605 30.5874 121.286 30.7693C120.967 30.9512 120.605 31.0454 120.238 31.0422C119.871 31.039 119.511 30.9386 119.195 30.7512L111.378 26.124H68.6871C67.3042 26.1227 65.9782 25.5729 65 24.5952C64.0219 23.6175 63.4715 22.2918 63.4696 20.9088V5.2128C63.4721 3.83023 64.0228 2.50508 65.0009 1.52791C65.9789 0.550728 67.3046 0.00126841 68.6871 0Z" fill="#4C3133"/>
<path d="M91.9335 16.262H120.398C120.62 16.262 120.834 16.1735 120.992 16.016C121.149 15.8585 121.238 15.6448 121.238 15.422C121.238 15.1992 121.149 14.9856 120.992 14.8281C120.834 14.6705 120.62 14.582 120.398 14.582H91.9335C91.7108 14.582 91.4971 14.6705 91.3396 14.8281C91.182 14.9856 91.0935 15.1992 91.0935 15.422C91.0935 15.6448 91.182 15.8585 91.3396 16.016C91.4971 16.1735 91.7108 16.262 91.9335 16.262Z" fill="#4C3133"/>
<path d="M120.398 11.7599C120.62 11.7615 120.835 11.6745 120.993 11.5181C121.152 11.3617 121.242 11.1487 121.244 10.9259C121.245 10.7031 121.158 10.4889 121.002 10.3302C120.845 10.1715 120.632 10.0815 120.41 10.0799L104.99 9.83993C104.879 9.83835 104.77 9.85852 104.667 9.89928C104.565 9.94004 104.471 10.0006 104.392 10.0775C104.313 10.1544 104.25 10.2461 104.206 10.3474C104.162 10.4487 104.139 10.5576 104.138 10.6679C104.136 10.7782 104.156 10.8878 104.197 10.9903C104.238 11.0928 104.298 11.1863 104.375 11.2654C104.452 11.3445 104.544 11.4077 104.645 11.4514C104.746 11.4951 104.855 11.5184 104.966 11.5199L120.383 11.7599H120.398Z" fill="#4C3133"/>
<path d="M79.9984 14.0851C81.3328 14.0347 85.1872 14.2339 86.092 18.1483C86.1159 18.2587 86.1753 18.3583 86.2613 18.4318C86.3472 18.5052 86.4549 18.5483 86.5678 18.5546C86.6806 18.5609 86.7924 18.5299 86.886 18.4665C86.9795 18.403 87.0497 18.3106 87.0856 18.2035C87.9256 15.6955 88.1512 11.3131 79.9696 10.5595C79.848 10.5506 79.7334 10.4994 79.6457 10.4148C79.558 10.3302 79.5028 10.2174 79.4896 10.0963L79.1824 6.95946C79.1735 6.86752 79.1401 6.77965 79.0856 6.70503C79.0312 6.63041 78.9577 6.57177 78.8729 6.53524C78.788 6.49871 78.695 6.48561 78.6033 6.49733C78.5117 6.50905 78.4249 6.54515 78.352 6.60186L71.488 11.9395C71.4279 11.9859 71.3789 12.045 71.3443 12.1126C71.3098 12.1802 71.2905 12.2546 71.288 12.3305C71.2855 12.4063 71.2997 12.4818 71.3297 12.5515C71.3597 12.6213 71.4048 12.6835 71.4616 12.7339L78.316 18.8275C78.3876 18.8918 78.4758 18.9348 78.5705 18.9516C78.6653 18.9685 78.7628 18.9585 78.8522 18.9228C78.9416 18.8871 79.0192 18.8271 79.0763 18.7496C79.1333 18.6721 79.1676 18.5802 79.1752 18.4843L79.504 14.5603C79.5144 14.4344 79.5704 14.3167 79.6614 14.2292C79.7524 14.1417 79.8723 14.0905 79.9984 14.0851Z" fill="#C5E6F1"/>
<path d="M78.6591 19.7999C78.9997 19.7993 79.3277 19.6711 79.5783 19.4405C79.8289 19.2099 79.9839 18.8937 80.0127 18.5543L80.3151 14.9207C81.7551 14.9207 84.5751 15.3167 85.2735 18.3383C85.3386 18.6272 85.4965 18.8868 85.723 19.0775C85.9495 19.2682 86.2321 19.3795 86.5278 19.3945C86.8235 19.4094 87.116 19.3272 87.3606 19.1603C87.6052 18.9935 87.7884 18.7511 87.8823 18.4703C88.5783 16.3919 88.4415 14.5199 87.4887 13.0583C86.2887 11.2319 83.8887 10.1183 80.3055 9.74872L80.0199 6.86872C79.9962 6.62711 79.908 6.39632 79.7646 6.20044C79.6211 6.00456 79.4278 5.85078 79.2046 5.75515C78.9815 5.65952 78.7367 5.62554 78.496 5.65678C78.2552 5.68801 78.0273 5.78331 77.8359 5.93272L70.9719 11.2799C70.8146 11.4022 70.6862 11.5576 70.5958 11.7351C70.5053 11.9126 70.4551 12.1078 70.4487 12.3069C70.4423 12.5061 70.4798 12.7041 70.5587 12.8871C70.6375 13.0701 70.7556 13.2334 70.9047 13.3655L77.7591 19.4591C78.0071 19.6793 78.3275 19.8006 78.6591 19.7999ZM79.9647 13.2479C79.6338 13.2609 79.3191 13.3944 79.0799 13.6235C78.8408 13.8525 78.6936 14.1611 78.6663 14.4911L78.3927 17.7719L72.3087 12.3647L78.4047 7.62472L78.6615 10.1783C78.6937 10.4925 78.8341 10.7857 79.0587 11.0077C79.2834 11.2297 79.5782 11.3667 79.8927 11.3951C83.0727 11.6879 85.1535 12.5567 86.0799 13.9775C86.6727 14.8823 86.7159 15.9359 86.5599 16.8575C85.0887 13.3415 81.2079 13.1927 79.9647 13.2407V13.2479Z" fill="#4C3133"/>
<path d="M99.5871 11.5198H101.987C102.21 11.5198 102.424 11.4313 102.581 11.2738C102.739 11.1163 102.827 10.9026 102.827 10.6798C102.827 10.4571 102.739 10.2434 102.581 10.0859C102.424 9.92834 102.21 9.83984 101.987 9.83984H99.5871C99.3644 9.83984 99.1507 9.92834 98.9932 10.0859C98.8357 10.2434 98.7471 10.4571 98.7471 10.6798C98.7471 10.9026 98.8357 11.1163 98.9932 11.2738C99.1507 11.4313 99.3644 11.5198 99.5871 11.5198Z" fill="#4C3133"/>
<path d="M75.2752 67.3636C80.9944 60.3868 92.3824 56.5804 100.221 61.042C105.866 64.2556 108.904 70.6684 110.51 76.9612C112.115 83.254 112.65 89.842 114.993 95.8996C118.715 105.519 126.825 113.031 136.113 117.5C145.286 121.92 153.59 123.36 163.706 123.747C162.746 133.565 155.567 141.987 146.694 146.547H94.9096C92.52 145.599 90.2396 144.396 88.108 142.959C80.7544 137.948 75.8344 130.03 72.508 121.774C68.7366 112.393 66.7686 102.384 66.7072 92.2732C66.652 83.266 69.556 74.338 75.2752 67.3636Z" fill="#C5E6F1"/>
<path d="M92.5384 59.1224C86.1184 59.1224 79.2952 62.4608 75.2752 67.364C69.556 74.3384 66.652 83.2664 66.7024 92.2856C66.7638 102.396 68.7318 112.405 72.5032 121.786C75.8272 130.042 80.7472 137.96 88.1032 142.971C90.2364 144.408 92.5184 145.611 94.9096 146.559H146.694C155.574 141.999 162.75 133.566 163.706 123.759C153.59 123.375 145.286 121.933 136.12 117.519C126.825 113.043 118.715 105.519 115 95.9192C112.658 89.8616 112.12 83.2736 110.517 76.9808C108.914 70.688 105.873 64.2752 100.228 61.0616C97.8788 59.764 95.2315 59.1021 92.548 59.1416L92.5384 59.1224ZM92.548 57.4616C95.7016 57.4616 98.5648 58.1816 101.061 59.6024C106.307 62.588 110.037 68.2952 112.146 76.5656C112.754 78.9512 113.214 81.392 113.661 83.7512C114.429 87.812 115.151 91.6448 116.57 95.312C119.874 103.849 127.269 111.392 136.859 116.012C144.952 119.91 152.75 121.669 163.778 122.089C164.006 122.098 164.231 122.153 164.437 122.252C164.644 122.35 164.828 122.49 164.979 122.662C165.129 122.835 165.243 123.036 165.313 123.254C165.383 123.472 165.408 123.702 165.386 123.93C164.906 128.905 162.87 133.827 159.508 138.171C156.259 142.298 152.151 145.67 147.47 148.052C147.231 148.175 146.967 148.239 146.699 148.239H94.9096C94.6948 148.239 94.4821 148.198 94.2832 148.117C91.7816 147.123 89.3942 145.863 87.1624 144.358C80.4184 139.765 74.9656 132.382 70.9504 122.415C67.1137 112.833 65.1055 102.617 65.0296 92.2952C64.9768 82.6376 68.1496 73.4072 73.984 66.2984C78.3928 60.9176 85.6792 57.4424 92.5456 57.4424L92.548 57.4616Z" fill="#4C3133"/>
<path d="M89.8696 141.121H132.83C143.26 141.121 152.812 134.984 156.868 125.374C157.149 124.712 157.396 124.035 157.619 123.354C159.592 123.541 161.618 123.668 163.722 123.747C162.762 133.566 155.584 141.987 146.711 146.547H94.9096C88.907 144.201 83.6885 140.208 79.8544 135.027C80.8725 135.927 81.9458 136.762 83.068 137.528C85.1995 138.967 87.4799 140.171 89.8696 141.121Z" fill="#81C4D4"/>
<path d="M88.3096 72.8401C101.51 71.6401 101.51 84.1201 96.9496 88.9201C92.3896 93.7201 83.6296 89.0401 76.1896 89.7601C72.1312 90.1537 66.8584 87.8401 67.204 85.6417C67.9594 80.7929 69.6237 76.1304 72.1096 71.8993C77.3464 71.6281 78.4888 73.7329 88.3096 72.8401Z" fill="#81C4D4"/>
<path d="M72.988 80.8519C72.0244 80.8519 71.2432 80.0707 71.2432 79.1071C71.2432 78.1435 72.0244 77.3623 72.988 77.3623C73.9516 77.3623 74.7328 78.1435 74.7328 79.1071C74.7328 80.0707 73.9516 80.8519 72.988 80.8519Z" fill="#4C3133"/>
<path d="M87.8848 81.7152C86.9212 81.7152 86.14 80.934 86.14 79.9704C86.14 79.0068 86.9212 78.2256 87.8848 78.2256C88.8485 78.2256 89.6296 79.0068 89.6296 79.9704C89.6296 80.934 88.8485 81.7152 87.8848 81.7152Z" fill="#4C3133"/>
<path d="M72.9856 69.4992H73.108L75.1 69.2976C75.4183 69.2658 75.7109 69.1088 75.9134 68.8613C76.116 68.6137 76.2119 68.2958 76.18 67.9776C76.1482 67.6593 75.9913 67.3668 75.7437 67.1642C75.4962 66.9617 75.1783 66.8658 74.86 66.8976L72.8704 67.0992C72.7129 67.1069 72.5583 67.1456 72.4157 67.213C72.2731 67.2805 72.1451 67.3754 72.0391 67.4922C71.9332 67.6091 71.8513 67.7458 71.7981 67.8943C71.7449 68.0428 71.7215 68.2004 71.7292 68.358C71.737 68.5156 71.7756 68.6701 71.8431 68.8127C71.9105 68.9554 72.0054 69.0833 72.1223 69.1893C72.2392 69.2953 72.3758 69.3772 72.5243 69.4303C72.6729 69.4835 72.8304 69.5069 72.988 69.4992H72.9856Z" fill="#4C3133"/>
<path d="M90.5728 72.2401C90.8482 72.2398 91.1151 72.1447 91.3288 71.9708C91.5424 71.797 91.6897 71.5549 91.746 71.2853C91.8023 71.0157 91.7641 70.7349 91.6379 70.4901C91.5117 70.2453 91.3051 70.0514 91.0528 69.9409L89.2192 69.1441C88.9273 69.0168 88.5969 69.0106 88.3005 69.127C88.0041 69.2433 87.7661 69.4726 87.6388 69.7645C87.5115 70.0563 87.5053 70.3868 87.6217 70.6832C87.738 70.9795 87.9673 71.2176 88.2592 71.3449L90.0952 72.1417C90.246 72.2068 90.4085 72.2403 90.5728 72.2401Z" fill="#4C3133"/>
<path d="M85.7584 53.5321C91.4416 51.8521 98.6752 53.0809 103.871 55.9321C106.144 57.1801 108.246 58.8385 110.757 59.4865C113.267 60.1345 116.435 59.3545 117.407 56.9521C117.981 55.5385 117.647 53.8729 116.822 52.5913C115.996 51.3097 114.736 50.3665 113.414 49.6105C110.072 47.7136 106.234 46.8711 102.405 47.1937C101.373 47.2825 99.976 47.2105 99.7648 46.1977C99.6064 45.4129 100.391 44.7577 101.152 44.5177C101.913 44.2777 102.77 44.2105 103.379 43.6969C104.159 43.0393 104.248 41.7985 103.78 40.8937C103.312 39.9889 102.407 39.3793 101.464 38.9977C97.6456 37.4521 93.0904 39.2209 90.3616 42.3073C87.6328 45.3937 86.416 49.5193 85.6912 53.5729L85.7584 53.5321Z" fill="#C5E6F1"/>
<path d="M112.485 60.5404C114.863 60.5404 117.285 59.4868 118.187 57.2668C118.826 55.69 118.578 53.7724 117.527 52.138C116.742 50.9188 115.533 49.8532 113.829 48.8812C110.337 46.9029 106.33 46.023 102.33 46.3564C101.253 46.45 100.65 46.2628 100.593 46.03C100.554 45.8356 100.912 45.4708 101.416 45.31C101.606 45.2476 101.814 45.1972 102.033 45.142C102.647 44.9932 103.341 44.8228 103.924 44.3308C104.951 43.4668 105.213 41.8204 104.531 40.4908C104.03 39.5188 103.079 38.7268 101.783 38.2036C97.912 36.634 92.9608 38.0884 89.7376 41.734C86.6176 45.2692 85.4632 50.0884 84.8704 53.4076C84.8416 53.561 84.8563 53.7195 84.9128 53.8651C84.9694 54.0106 85.0654 54.1375 85.1902 54.2313C85.315 54.3252 85.4636 54.3823 85.6191 54.3962C85.7746 54.41 85.9309 54.3802 86.0704 54.31C91.2088 52.8196 98.1904 53.7628 103.473 56.662C104.114 57.0124 104.762 57.4108 105.393 57.7948C106.998 58.7812 108.657 59.8012 110.56 60.2932C111.189 60.4548 111.835 60.5378 112.485 60.5404ZM103.998 47.9644C107.152 47.9669 110.252 48.7855 112.996 50.3404C114.46 51.1756 115.48 52.0612 116.116 53.0476C116.862 54.2044 117.059 55.5796 116.632 56.6476C115.84 58.6036 113.078 59.2276 110.97 58.6852C109.31 58.2556 107.831 57.346 106.264 56.3836C105.621 55.9876 104.956 55.5796 104.277 55.2076C98.9344 52.2748 92.2168 51.2284 86.776 52.4164C87.3976 49.4308 88.5304 45.658 91 42.8644C93.256 40.3108 97.396 38.2564 101.154 39.778C101.795 40.0372 102.642 40.51 103.041 41.2804C103.36 41.8996 103.281 42.6964 102.846 43.0564C102.563 43.2964 102.126 43.3996 101.646 43.5196C101.406 43.5796 101.166 43.6396 100.907 43.7212C99.748 44.098 98.7064 45.1324 98.9584 46.3756C99.1048 47.0956 99.76 48.2788 102.489 48.0436C102.983 47.986 103.492 47.9644 103.998 47.9644Z" fill="#4C3133"/>
<path d="M45.7744 58.0414C53.3728 60.3574 59.8552 53.2558 61.3048 46.7614C61.5736 45.5614 61.84 44.2918 61.4968 43.1062C61.1536 41.9206 59.9728 40.879 58.768 41.143C57.5632 41.407 56.9632 42.7198 56.44 43.8382C55.9168 44.9566 55 46.1902 53.7856 46.0438C52.4656 45.8878 51.9232 44.2966 51.6688 42.991L50.1016 34.9318C49.8736 33.7582 49.5304 32.4238 48.46 31.8886C47.26 31.291 45.7432 32.1118 45.1144 33.2926C44.4856 34.4734 44.5144 35.8846 44.5744 37.2214C44.6344 38.5582 44.7088 39.9574 44.152 41.1766C43.5974 38.5658 42.5683 36.079 41.116 33.8398C40.5064 32.9038 39.496 31.903 38.4472 32.2822C37.5112 32.6206 37.2688 33.8134 37.2328 34.807C37.1316 37.6135 37.5165 40.4164 38.3704 43.0918C37.8904 41.7838 37.3696 40.423 36.328 39.4918C35.2864 38.5606 33.5512 38.2606 32.5288 39.2062C31.2232 40.4062 31.876 42.5662 32.7088 44.143C34.4381 47.4043 36.5629 50.44 39.0352 53.1814C40.9096 55.2598 43.0912 57.223 45.7744 58.0414Z" fill="#C5E6F1"/>
<path d="M48.7191 59.3282C50.7333 59.3137 52.7066 58.7592 54.4335 57.7226C58.1247 55.5626 61.1535 51.3386 62.1135 46.9346C62.3751 45.7538 62.704 44.2826 62.2912 42.8546C61.852 41.333 60.3039 39.9266 58.5759 40.3058C56.9775 40.6562 56.2599 42.1922 55.6959 43.4258L55.6791 43.4642C55.4775 43.8962 54.748 45.2954 53.8864 45.1922C53.0992 45.0986 52.6864 43.8458 52.4944 42.8138L50.9271 34.7522C50.7303 33.7514 50.368 31.8842 48.8344 31.1186C47.1664 30.2882 45.1815 31.3586 44.3727 32.8802C43.7031 34.1426 43.6671 35.5202 43.7247 36.9602C43.1986 35.7055 42.5609 34.5007 41.8191 33.3602C40.7607 31.733 39.3927 31.0274 38.1615 31.4714C37.3983 31.7474 36.4815 32.5394 36.3927 34.7546C36.3457 36.0318 36.3962 37.3107 36.5439 38.5802C35.2335 37.6538 33.2392 37.3922 31.96 38.5802C30.6184 39.821 30.6208 41.9882 31.96 44.5274C33.7215 47.8499 35.8867 50.9421 38.4063 53.7338C40.1103 55.6202 42.4575 57.9026 45.5247 58.8386C46.5594 59.159 47.636 59.324 48.7191 59.3282ZM59.1495 41.933C59.8143 41.933 60.4887 42.6194 60.6951 43.3298C60.9879 44.3378 60.724 45.5234 60.4888 46.5698C59.6056 50.537 56.8887 54.3458 53.5935 56.2706C51.1791 57.677 48.5535 58.013 46.0239 57.2306C43.3503 56.417 41.2239 54.3338 39.6639 52.6082C37.2352 49.9162 35.1497 46.9335 33.4551 43.7282C33.0999 43.0586 32.0271 40.7978 33.1047 39.8018C33.7791 39.1778 35.0535 39.4586 35.7735 40.0994C36.6831 40.9058 37.1631 42.2066 37.5879 43.3538C37.6605 43.5645 37.8138 43.7377 38.0141 43.8354C38.2144 43.933 38.4453 43.9471 38.6559 43.8746C38.8666 43.802 39.0399 43.6487 39.1375 43.4484C39.2352 43.2481 39.2493 43.0173 39.1768 42.8066C38.3478 40.2244 37.9751 37.5175 38.0751 34.8074C38.0943 34.3442 38.1904 33.2402 38.7376 33.0434C39.232 32.8658 39.9376 33.5234 40.4176 34.2698C41.8173 36.4201 42.8075 38.8107 43.3383 41.321C43.3748 41.4941 43.465 41.6513 43.596 41.7701C43.7271 41.889 43.8923 41.9634 44.0681 41.9829C44.244 42.0023 44.4215 41.9657 44.5753 41.8783C44.7291 41.7909 44.8514 41.6572 44.9247 41.4962C45.5583 40.1066 45.4863 38.5586 45.4239 37.1954V37.1546C45.3639 35.8634 45.352 34.625 45.8656 33.6602C46.2952 32.8538 47.3391 32.237 48.0927 32.6138C48.7911 32.9618 49.0791 33.9962 49.2927 35.0642L50.86 43.1234C51.3064 45.425 52.2639 46.6802 53.7015 46.8506C55.0791 47.0162 56.3415 46.061 57.2151 44.165L57.2344 44.1266C57.676 43.181 58.1751 42.1058 58.9623 41.9354C59.0245 41.9282 59.0872 41.9274 59.1495 41.933Z" fill="#4C3133"/>
<path d="M53.9489 46.4443C52.8071 46.4814 51.6907 46.7906 50.6926 47.3463C49.6945 47.9019 48.8435 48.6878 48.2104 49.6387" fill="#C5E6F1"/>
<path d="M48.208 50.479C48.3482 50.4795 48.4862 50.4449 48.6095 50.3782C48.7328 50.3115 48.8373 50.215 48.9136 50.0974C49.474 49.2622 50.2241 48.5715 51.1025 48.0818C51.981 47.5921 52.963 47.3173 53.968 47.2798C54.1908 47.2747 54.4025 47.1814 54.5564 47.0202C54.7103 46.8591 54.7939 46.6434 54.7888 46.4206C54.7838 46.1979 54.6904 45.9862 54.5292 45.8323C54.3681 45.6784 54.1524 45.5947 53.9296 45.5998C52.6513 45.6371 51.4007 45.981 50.2831 46.6024C49.1654 47.2239 48.2134 48.1048 47.5072 49.171C47.4465 49.2632 47.4046 49.3664 47.3837 49.4748C47.3629 49.5832 47.3637 49.6947 47.386 49.8028C47.4083 49.9109 47.4517 50.0135 47.5137 50.1048C47.5756 50.1962 47.655 50.2744 47.7472 50.335C47.8837 50.4266 48.0437 50.4766 48.208 50.479Z" fill="#4C3133"/>
<path d="M67.4296 35.6406C67.4296 35.6406 69.8296 45.0006 61.6696 56.5206L67.4296 35.6406Z" fill="white"/>
<path d="M61.6696 57.3606C61.8041 57.3607 61.9366 57.3284 62.0561 57.2666C62.1755 57.2048 62.2784 57.1152 62.356 57.0054C70.6456 45.303 68.356 35.8302 68.2432 35.4318C68.1832 35.2215 68.0436 35.0429 67.8539 34.9339C67.6643 34.825 67.4397 34.7943 67.2278 34.8483C67.0159 34.9024 66.8334 35.037 66.7192 35.2235C66.6049 35.41 66.5679 35.6336 66.616 35.847C66.6448 35.967 68.776 45.0222 60.9832 56.0358C60.8943 56.1616 60.8417 56.3094 60.8312 56.463C60.8206 56.6167 60.8525 56.7703 60.9234 56.907C60.9942 57.0438 61.1013 57.1584 61.2329 57.2384C61.3645 57.3184 61.5156 57.3607 61.6696 57.3606Z" fill="#4C3133"/>
<path d="M209.798 40.3936H142.525C141.354 40.3936 140.231 40.8588 139.403 41.687C138.575 42.5151 138.109 43.6384 138.109 44.8096V64.4056C138.109 65.5767 138.575 66.7 139.403 67.5281C140.231 68.3563 141.354 68.8216 142.525 68.8216H144.421C144.554 68.8222 144.681 68.8753 144.775 68.9693C144.868 69.0633 144.921 69.1905 144.921 69.3232V74.4616C144.921 74.5497 144.944 74.6362 144.988 74.7124C145.033 74.7886 145.096 74.8517 145.173 74.8953C145.249 74.939 145.336 74.9616 145.424 74.9608C145.512 74.9601 145.598 74.9361 145.674 74.8912L155.809 68.8912C155.887 68.8457 155.974 68.8216 156.064 68.8216H209.798C210.969 68.8216 212.092 68.3563 212.92 67.5281C213.748 66.7 214.214 65.5767 214.214 64.4056V44.8096C214.214 43.6384 213.748 42.5151 212.92 41.687C212.092 40.8588 210.969 40.3936 209.798 40.3936Z" fill="white"/>
<path d="M142.526 40.3939C141.354 40.3939 140.231 40.8591 139.403 41.6873C138.575 42.5154 138.11 43.6387 138.11 44.8099V64.4059C138.11 65.5771 138.575 66.7003 139.403 67.5285C140.231 68.3566 141.354 68.8219 142.526 68.8219H144.422C144.554 68.8225 144.681 68.8756 144.775 68.9696C144.868 69.0636 144.921 69.1909 144.921 69.3235V74.4619C144.921 74.55 144.944 74.6365 144.988 74.7127C145.033 74.7889 145.096 74.852 145.173 74.8956C145.249 74.9393 145.336 74.9619 145.424 74.9611C145.512 74.9604 145.599 74.9364 145.674 74.8915L155.81 68.8915C155.887 68.846 155.974 68.822 156.064 68.8219H209.798C210.969 68.8219 212.092 68.3566 212.92 67.5285C213.748 66.7003 214.214 65.5771 214.214 64.4059V44.8099C214.214 43.6387 213.748 42.5154 212.92 41.6873C212.092 40.8591 210.969 40.3939 209.798 40.3939H142.526ZM142.526 38.7139H209.798C211.414 38.7158 212.963 39.3586 214.106 40.5015C215.249 41.6443 215.892 43.1937 215.894 44.8099V64.4059C215.892 66.0222 215.25 67.572 214.107 68.715C212.964 69.8579 211.414 70.5006 209.798 70.5019H156.388L146.531 76.3363C146.2 76.5324 145.823 76.6375 145.439 76.6408C145.054 76.6441 144.676 76.5456 144.341 76.3552C144.007 76.1648 143.729 75.8893 143.536 75.5568C143.343 75.2243 143.241 74.8465 143.241 74.4619V70.5019H142.521C140.904 70.5006 139.355 69.8579 138.212 68.715C137.069 67.572 136.426 66.0222 136.425 64.4059V44.8099C136.427 43.1937 137.07 41.6443 138.212 40.5015C139.355 39.3586 140.905 38.7158 142.521 38.7139H142.526Z" fill="#4C3133"/>
<path d="M214.214 47.7978C210.289 47.7978 207.107 44.6161 207.107 40.6914C207.107 36.7666 210.289 33.585 214.214 33.585C218.138 33.585 221.32 36.7666 221.32 40.6914C221.32 44.6161 218.138 47.7978 214.214 47.7978Z" fill="white"/>
<path d="M214.214 33.5853C212.808 33.5853 211.434 34.0021 210.265 34.7829C209.097 35.5638 208.186 36.6736 207.648 37.9722C207.11 39.2707 206.97 40.6996 207.244 42.0781C207.518 43.4566 208.195 44.7228 209.189 45.7167C210.182 46.7105 211.449 47.3873 212.827 47.6615C214.206 47.9357 215.635 47.795 216.933 47.2571C218.232 46.7193 219.341 45.8084 220.122 44.6398C220.903 43.4711 221.32 42.0972 221.32 40.6917C221.32 38.8069 220.571 36.9994 219.239 35.6667C217.906 34.334 216.098 33.5853 214.214 33.5853ZM214.214 31.9053C215.951 31.9053 217.65 32.4206 219.095 33.386C220.54 34.3515 221.666 35.7238 222.331 37.3293C222.996 38.9348 223.17 40.7014 222.831 42.4058C222.492 44.1102 221.655 45.6758 220.427 46.9046C219.198 48.1334 217.632 48.9702 215.928 49.3092C214.223 49.6483 212.457 49.4743 210.851 48.8092C209.246 48.1442 207.873 47.0181 206.908 45.5731C205.943 44.1282 205.427 42.4295 205.427 40.6917C205.43 38.3622 206.356 36.1288 208.003 34.4816C209.651 32.8343 211.884 31.9078 214.214 31.9053Z" fill="#4C3133"/>
<path d="M160.612 60.5332H149.07C147.924 60.5332 146.994 59.6037 146.994 58.4572V51.6532C146.994 50.5067 147.924 49.5772 149.07 49.5772H160.612C161.759 49.5772 162.688 50.5067 162.688 51.6532V58.4572C162.688 59.6037 161.759 60.5332 160.612 60.5332Z" fill="#C5E6F1"/>
<path d="M149.07 61.3728H160.612C161.385 61.3715 162.127 61.0635 162.673 60.5165C163.22 59.9694 163.527 59.2278 163.528 58.4544V51.6528C163.527 50.8794 163.22 50.1378 162.673 49.5907C162.127 49.0436 161.385 48.7356 160.612 48.7344H149.07C148.297 48.7356 147.556 49.0436 147.009 49.5907C146.462 50.1378 146.155 50.8794 146.154 51.6528V58.4544C146.155 59.2278 146.462 59.9694 147.009 60.5165C147.556 61.0635 148.297 61.3715 149.07 61.3728ZM160.612 50.4144C160.94 50.415 161.254 50.5458 161.486 50.7779C161.718 51.0101 161.848 51.3247 161.848 51.6528V58.4544C161.848 58.7824 161.718 59.097 161.486 59.3292C161.254 59.5614 160.94 59.6921 160.612 59.6928H149.07C148.742 59.6921 148.428 59.5614 148.196 59.3292C147.964 59.097 147.834 58.7824 147.834 58.4544V51.6528C147.834 51.3247 147.964 51.0101 148.196 50.7779C148.428 50.5458 148.742 50.415 149.07 50.4144H160.612Z" fill="#4C3133"/>
<path d="M162.338 60.4505C162.508 60.4505 162.675 60.3986 162.815 60.3017C162.955 60.2049 163.063 60.0676 163.123 59.9083C163.183 59.7489 163.194 59.5749 163.153 59.4094C163.112 59.2439 163.022 59.0947 162.894 58.9817L155.25 52.2041C155.097 52.0712 154.901 51.998 154.698 51.998C154.496 51.998 154.3 52.0712 154.146 52.2041L146.61 58.6337C146.441 58.7782 146.336 58.9841 146.318 59.2063C146.3 59.4284 146.371 59.6485 146.516 59.8181C146.66 59.9877 146.866 60.093 147.088 60.1108C147.31 60.1286 147.53 60.0574 147.7 59.9129L154.67 53.9441L161.778 60.2393C161.933 60.3757 162.132 60.4508 162.338 60.4505Z" fill="#4C3133"/>
<path d="M147.662 50.1289L154.694 56.0905L162.018 50.1289" fill="#C5E6F1"/>
<path d="M154.694 56.9303C154.886 56.9307 155.073 56.8636 155.222 56.7407L162.549 50.7791C162.722 50.6384 162.832 50.4349 162.854 50.2132C162.877 49.9915 162.811 49.7699 162.67 49.5971C162.529 49.4243 162.326 49.3144 162.104 49.2917C161.882 49.269 161.661 49.3352 161.488 49.4759L154.703 54.9959L148.206 49.4759C148.037 49.3317 147.816 49.261 147.594 49.2792C147.372 49.2974 147.166 49.4031 147.022 49.5731C146.878 49.743 146.807 49.9633 146.825 50.1854C146.844 50.4075 146.949 50.6133 147.119 50.7575L154.149 56.7191C154.299 56.8522 154.493 56.9271 154.694 56.9303Z" fill="#4C3133"/>
<path d="M168.611 59.2991H204.146C204.368 59.2991 204.582 59.2106 204.74 59.0531C204.897 58.8956 204.986 58.6819 204.986 58.4591C204.986 58.2364 204.897 58.0227 204.74 57.8652C204.582 57.7076 204.368 57.6191 204.146 57.6191H168.611C168.388 57.6191 168.175 57.7076 168.017 57.8652C167.86 58.0227 167.771 58.2364 167.771 58.4591C167.771 58.6819 167.86 58.8956 168.017 59.0531C168.175 59.2106 168.388 59.2991 168.611 59.2991Z" fill="#4C3133"/>
<path d="M168.611 53.673H168.623L187.871 53.3754C187.982 53.3737 188.09 53.3502 188.192 53.3064C188.293 53.2626 188.385 53.1993 188.461 53.12C188.538 53.0408 188.599 52.9473 188.639 52.8447C188.68 52.7421 188.7 52.6325 188.698 52.5222C188.696 52.4119 188.673 52.303 188.629 52.2018C188.585 52.1005 188.522 52.0089 188.443 51.9321C188.363 51.8553 188.27 51.7949 188.167 51.7543C188.065 51.7137 187.955 51.6937 187.845 51.6954L168.597 51.993C168.374 51.9949 168.161 52.0853 168.005 52.2441C167.849 52.403 167.762 52.6174 167.764 52.8402C167.766 53.063 167.856 53.2759 168.015 53.4321C168.174 53.5883 168.388 53.6749 168.611 53.673Z" fill="#4C3133"/>
<path d="M214.79 43.9195H214.816C214.952 43.9149 215.085 43.8774 215.203 43.8101C215.322 43.7428 215.422 43.6477 215.495 43.5331L217.655 40.1731C217.722 40.0806 217.769 39.9754 217.794 39.8641C217.818 39.7527 217.82 39.6375 217.799 39.5254C217.778 39.4134 217.734 39.3068 217.67 39.2123C217.606 39.1178 217.524 39.0372 217.428 38.9755C217.332 38.9138 217.224 38.8723 217.112 38.8536C216.999 38.8348 216.884 38.8391 216.773 38.8663C216.663 38.8935 216.559 38.9429 216.468 39.0116C216.377 39.0803 216.3 39.1668 216.244 39.2659L214.742 41.6011L211.382 37.0603C211.318 36.9658 211.237 36.8852 211.141 36.8232C211.046 36.7613 210.939 36.7193 210.827 36.6999C210.715 36.6804 210.6 36.6839 210.49 36.7101C210.379 36.7363 210.275 36.7847 210.184 36.8523C210.092 36.92 210.016 37.0054 209.958 37.1035C209.901 37.2017 209.864 37.3104 209.85 37.4232C209.836 37.536 209.845 37.6504 209.876 37.7597C209.908 37.8689 209.961 37.9706 210.033 38.0587L214.113 43.5787C214.191 43.685 214.293 43.7713 214.41 43.8305C214.528 43.8898 214.658 43.9203 214.79 43.9195Z" fill="#4C3133"/>
<path d="M190.55 53.2796H193.91C194.132 53.2796 194.346 53.1911 194.504 53.0336C194.661 52.8761 194.75 52.6624 194.75 52.4396C194.75 52.2168 194.661 52.0032 194.504 51.8456C194.346 51.6881 194.132 51.5996 193.91 51.5996H190.55C190.327 51.5996 190.113 51.6881 189.956 51.8456C189.798 52.0032 189.71 52.2168 189.71 52.4396C189.71 52.6624 189.798 52.8761 189.956 53.0336C190.113 53.1911 190.327 53.2796 190.55 53.2796Z" fill="#4C3133"/>
<path d="M50.1016 114.542H107.39C108.387 114.542 109.344 114.938 110.049 115.643C110.754 116.349 111.15 117.305 111.15 118.303V134.992C111.151 135.486 111.054 135.976 110.865 136.432C110.676 136.889 110.399 137.304 110.05 137.653C109.7 138.003 109.286 138.28 108.829 138.469C108.373 138.658 107.884 138.756 107.39 138.756H105.777C105.664 138.756 105.556 138.8 105.476 138.88C105.396 138.959 105.35 139.068 105.35 139.18V143.558C105.349 143.633 105.329 143.706 105.292 143.771C105.254 143.836 105.2 143.889 105.135 143.926C105.07 143.963 104.996 143.982 104.921 143.982C104.847 143.981 104.773 143.961 104.709 143.923L96.0688 138.813C96.0023 138.775 95.927 138.755 95.8504 138.756H50.1016C49.1039 138.755 48.1474 138.358 47.4422 137.653C46.7369 136.947 46.3408 135.99 46.3408 134.992V118.303C46.3414 117.306 46.7378 116.349 47.443 115.644C48.1481 114.939 49.1044 114.543 50.1016 114.542Z" fill="white"/>
<path d="M50.1016 114.542C49.1044 114.543 48.1482 114.939 47.4431 115.645C46.7379 116.35 46.3415 117.306 46.3408 118.303V134.993C46.3408 135.99 46.737 136.947 47.4422 137.653C48.1474 138.359 49.104 138.755 50.1016 138.756H95.8696C95.9462 138.756 96.0215 138.775 96.088 138.814L104.728 143.923C104.792 143.962 104.866 143.983 104.941 143.984C105.016 143.985 105.09 143.966 105.155 143.929C105.221 143.891 105.275 143.838 105.312 143.772C105.35 143.707 105.369 143.633 105.369 143.558V139.181C105.369 139.068 105.415 138.96 105.495 138.88C105.575 138.801 105.683 138.756 105.796 138.756H107.39C107.884 138.756 108.373 138.659 108.829 138.469C109.286 138.28 109.701 138.003 110.05 137.654C110.399 137.304 110.676 136.889 110.865 136.433C111.054 135.976 111.151 135.487 111.15 134.993V118.303C111.15 117.306 110.754 116.349 110.049 115.644C109.344 114.939 108.387 114.542 107.39 114.542H50.1016ZM50.1016 112.862H107.39C108.832 112.864 110.215 113.438 111.235 114.458C112.255 115.478 112.829 116.861 112.83 118.303V134.993C112.829 136.436 112.256 137.819 111.236 138.839C110.216 139.86 108.832 140.434 107.39 140.436H107.03V143.556C107.029 143.927 106.93 144.292 106.744 144.613C106.557 144.934 106.289 145.199 105.966 145.383C105.644 145.567 105.278 145.663 104.907 145.66C104.536 145.657 104.172 145.557 103.852 145.368L95.5144 140.434H50.1016C48.6588 140.432 47.2757 139.857 46.2557 138.837C45.2357 137.817 44.6621 136.433 44.6608 134.99V118.303C44.6628 116.861 45.2366 115.478 46.2565 114.458C47.2765 113.438 48.6592 112.864 50.1016 112.862Z" fill="#4C3133"/>
<path d="M70.3025 130.689C67.5163 130.689 65.2577 128.431 65.2577 125.644C65.2577 122.858 67.5163 120.6 70.3025 120.6C73.0887 120.6 75.3473 122.858 75.3473 125.644C75.3473 128.431 73.0887 130.689 70.3025 130.689Z" fill="#F0F0F0"/>
<path d="M70.3024 131.52C71.4663 131.52 72.6041 131.174 73.5719 130.528C74.5396 129.881 75.2939 128.962 75.7393 127.887C76.1847 126.812 76.3012 125.628 76.0742 124.487C75.8471 123.345 75.2866 122.297 74.4636 121.474C73.6406 120.651 72.5921 120.09 71.4505 119.863C70.309 119.636 69.1257 119.753 68.0504 120.198C66.9751 120.643 66.056 121.398 65.4094 122.365C64.7628 123.333 64.4177 124.471 64.4177 125.635C64.4196 127.195 65.0402 128.691 66.1434 129.794C67.2466 130.897 68.7423 131.518 70.3024 131.52ZM70.3024 121.44C71.1341 121.44 71.947 121.686 72.6385 122.148C73.33 122.61 73.8689 123.267 74.1872 124.035C74.5054 124.804 74.5887 125.649 74.4265 126.465C74.2642 127.28 73.8637 128.03 73.2757 128.618C72.6876 129.206 71.9384 129.606 71.1228 129.768C70.3071 129.931 69.4617 129.847 68.6933 129.529C67.925 129.211 67.2683 128.672 66.8063 127.98C66.3443 127.289 66.0977 126.476 66.0977 125.644C66.0989 124.53 66.5423 123.461 67.3306 122.673C68.1189 121.884 69.1877 121.441 70.3024 121.44Z" fill="#4C3133"/>
<path d="M52.7728 124.632H55.9384C55.0264 123.948 54.124 123.192 54.2584 121.858C54.4984 119.336 56.2744 120.596 56.2744 121.858C56.2744 123.622 58.9864 122.866 59.0176 125.64C59.039 125.731 59.0495 125.824 59.0488 125.916V128.796C59.0487 129.109 58.9353 129.411 58.7297 129.646C58.524 129.881 58.24 130.034 57.9304 130.076L54.1096 130.587C53.7823 130.631 53.4494 130.604 53.1333 130.509C52.8172 130.413 52.5252 130.251 52.2767 130.034C52.0283 129.816 51.8293 129.548 51.693 129.247C51.5566 128.947 51.4862 128.62 51.4864 128.29V125.921C51.4861 125.752 51.5191 125.585 51.5836 125.428C51.6481 125.272 51.7428 125.13 51.8623 125.01C51.9818 124.89 52.1237 124.795 52.28 124.731C52.4362 124.666 52.6037 124.632 52.7728 124.632Z" fill="#C5E6F1"/>
<path d="M55.1416 120.401C54.7408 120.401 54.364 120.792 54.2584 121.858C54.124 123.197 55.0264 123.948 55.9384 124.632H52.7728C52.6035 124.632 52.4358 124.665 52.2793 124.729C52.1227 124.794 51.9805 124.889 51.8608 125.009C51.7411 125.128 51.6461 125.271 51.5815 125.427C51.5168 125.584 51.4837 125.751 51.484 125.921V128.29C51.4826 128.62 51.5523 128.948 51.6884 129.249C51.8244 129.551 52.0237 129.819 52.2727 130.037C52.5216 130.255 52.8145 130.417 53.1315 130.511C53.4484 130.606 53.782 130.632 54.1096 130.586L57.9304 130.08C58.2401 130.038 58.524 129.885 58.7297 129.65C58.9354 129.415 59.0487 129.113 59.0488 128.801V125.921C59.0495 125.828 59.0391 125.735 59.0176 125.645C58.9864 122.87 56.2744 123.626 56.2744 121.862C56.2744 121.142 55.6864 120.406 55.1416 120.406V120.401ZM55.1416 118.726C55.5502 118.738 55.9507 118.843 56.3128 119.032C56.675 119.222 56.9893 119.491 57.232 119.82C57.6473 120.339 57.898 120.97 57.952 121.632L58.2064 121.771C58.9912 122.191 60.6064 123.055 60.7 125.477C60.7229 125.625 60.7341 125.775 60.7336 125.926V128.806C60.7321 129.525 60.4706 130.219 59.9973 130.76C59.524 131.301 58.8708 131.653 58.1584 131.75L54.3328 132.259C54.1562 132.283 53.9782 132.295 53.8 132.295C52.7408 132.293 51.7257 131.871 50.9774 131.122C50.2291 130.372 49.8088 129.356 49.8088 128.297V125.928C49.8094 125.162 50.1054 124.426 50.6353 123.874C51.1651 123.321 51.8879 122.994 52.6528 122.962C52.5666 122.546 52.5455 122.119 52.5904 121.697C52.8736 118.872 54.7696 118.728 55.1464 118.728L55.1416 118.726Z" fill="#4C3133"/>
<path d="M80.8096 132.017H105.275C105.498 132.017 105.712 131.928 105.869 131.771C106.027 131.613 106.115 131.4 106.115 131.177C106.115 130.954 106.027 130.74 105.869 130.583C105.712 130.425 105.498 130.337 105.275 130.337H80.8096C80.5869 130.337 80.3732 130.425 80.2157 130.583C80.0581 130.74 79.9696 130.954 79.9696 131.177C79.9696 131.4 80.0581 131.613 80.2157 131.771C80.3732 131.928 80.5869 132.017 80.8096 132.017Z" fill="#4C3133"/>
<path d="M94.4296 126.72C94.6524 126.722 94.8668 126.635 95.0257 126.479C95.1846 126.323 95.2749 126.11 95.2768 125.887C95.2787 125.664 95.1921 125.45 95.0359 125.291C94.8797 125.132 94.6668 125.042 94.444 125.04L80.824 124.8C80.6012 124.796 80.3859 124.88 80.2255 125.035C80.065 125.19 79.9726 125.402 79.9684 125.624C79.9643 125.847 80.0488 126.062 80.2034 126.223C80.358 126.383 80.57 126.476 80.7928 126.48L94.4128 126.72H94.4296Z" fill="#4C3133"/>
<path d="M98.3896 126.48H100.55C100.772 126.48 100.986 126.391 101.144 126.234C101.301 126.076 101.39 125.863 101.39 125.64C101.39 125.417 101.301 125.203 101.144 125.046C100.986 124.888 100.772 124.8 100.55 124.8H98.3896C98.1669 124.8 97.9532 124.888 97.7957 125.046C97.6382 125.203 97.5496 125.417 97.5496 125.64C97.5496 125.863 97.6382 126.076 97.7957 126.234C97.9532 126.391 98.1669 126.48 98.3896 126.48Z" fill="#4C3133"/>
</svg>
