<svg width="50" height="50" viewBox="0 0 50 50" fill="none" xmlns="http://www.w3.org/2000/svg">
<path d="M19 3.4641C22.7128 1.32051 27.2872 1.32051 31 3.4641L40.6506 9.0359C44.3634 11.1795 46.6506 15.141 46.6506 19.4282V30.5718C46.6506 34.859 44.3634 38.8205 40.6506 40.9641L31 46.5359C27.2872 48.6795 22.7128 48.6795 19 46.5359L9.34937 40.9641C5.63655 38.8205 3.34937 34.859 3.34937 30.5718V19.4282C3.34937 15.141 5.63655 11.1795 9.34937 9.0359L19 3.4641Z" fill="#FFF5EF"/>
<path d="M19.25 3.89711C22.8081 1.84284 27.1919 1.84284 30.75 3.89711L40.4006 9.46891C43.9587 11.5232 46.1506 15.3196 46.1506 19.4282V30.5718C46.1506 34.6804 43.9587 38.4768 40.4006 40.5311L30.75 46.1029C27.1919 48.1572 22.8081 48.1572 19.25 46.1029L9.59937 40.5311C6.04125 38.4768 3.84937 34.6803 3.84937 30.5718V19.4282C3.84937 15.3196 6.04125 11.5232 9.59937 9.46891L19.25 3.89711Z" stroke="#FF6F1E" stroke-opacity="0.2"/>
<path opacity="0.1" d="M34.2944 18.8796C33.964 18.2668 33.5175 17.7267 32.9806 17.2907C32.4437 16.8546 31.8271 16.5312 31.1666 16.3393L28.0113 15.4087C26.9726 15.0951 25.8631 15.1223 24.8404 15.4864C23.8176 15.8505 22.9336 16.5331 22.3136 17.4373C22.1688 17.4603 22.0253 17.4914 21.8838 17.5304L18.7377 18.4609C17.4098 18.8678 16.2946 19.7935 15.6364 21.0354C14.9781 22.2772 14.8304 23.734 15.2257 25.0864L16.9268 30.9116C17.1228 31.5821 17.4468 32.2067 17.8802 32.7497C18.3137 33.2927 18.848 33.7435 19.4528 34.0762C20.0576 34.409 20.7209 34.6171 21.4048 34.6889C22.0887 34.7606 22.7798 34.6944 23.4385 34.4942L26.5846 33.5636C27.2487 33.3791 27.8703 33.0629 28.4138 32.6331C29.493 32.5674 30.5258 32.1637 31.3707 31.4773C32.2155 30.791 32.8311 29.8555 33.1329 28.7992L34.7791 22.9833C34.9755 22.3016 35.0338 21.5863 34.9505 20.8809C34.8672 20.1755 34.644 19.4947 34.2944 18.8796Z" fill="#FF6F1E"/>
<path fill-rule="evenodd" clip-rule="evenodd" d="M33.0578 17.2645C33.5997 17.7046 34.0505 18.2498 34.3839 18.8684C34.7368 19.4892 34.9621 20.1764 35.0462 20.8884C35.1303 21.6004 35.0715 22.3224 34.8732 23.0106L33.2115 28.8811C32.9069 29.9473 32.2855 30.8915 31.4327 31.5843C30.5799 32.2772 29.5374 32.6846 28.4481 32.7509C27.8995 33.1848 27.272 33.504 26.6018 33.6902L23.4261 34.6295C22.7612 34.8316 22.0636 34.8984 21.3733 34.826C20.683 34.7536 20.0134 34.5435 19.403 34.2077C18.7925 33.8718 18.2531 33.4168 17.8156 32.8687C17.3781 32.3206 17.0511 31.6901 16.8533 31.0133L15.1362 25.1334C14.7372 23.7683 14.8863 22.2979 15.5507 21.0444C16.2152 19.7908 17.3408 18.8564 18.6811 18.4457L21.8568 17.5064C21.9996 17.4671 22.1445 17.4357 22.2907 17.4125C22.9164 16.4998 23.8088 15.8108 24.8411 15.4433C25.8735 15.0757 26.9934 15.0483 28.0419 15.3649L31.2268 16.3041C31.8935 16.4979 32.5159 16.8243 33.0578 17.2645ZM20.0703 32.9753C20.9786 33.47 22.0425 33.5784 23.0292 33.2769L26.1033 32.3658L23.4354 31.5768C22.7674 31.3815 22.144 31.0536 21.601 30.6121C21.0581 30.1706 20.6063 29.6243 20.2717 29.0045C19.9371 28.3846 19.7262 27.7036 19.6513 27.0006C19.5764 26.2975 19.6388 25.5863 19.8351 24.908L21.4875 19.0938L19.0781 19.8264C18.5878 19.9749 18.1312 20.2204 17.7344 20.5488C17.3375 20.8772 17.0083 21.282 16.7656 21.7402C16.5229 22.1983 16.3714 22.7007 16.32 23.2185C16.2685 23.7363 16.318 24.2594 16.4656 24.7577L18.1826 30.6376C18.4833 31.6401 19.1621 32.4807 20.0703 32.9753ZM31.8268 28.4396L33.4977 22.5691L33.4608 22.6161C33.6035 22.1159 33.6479 21.5921 33.5914 21.0744C33.535 20.5568 33.3789 20.0555 33.132 19.5993C32.8851 19.1431 32.5522 18.7408 32.1524 18.4156C31.7527 18.0903 31.2938 17.8484 30.8021 17.7037L27.6172 16.7644C27.2633 16.6595 26.8966 16.6057 26.5279 16.6047C25.698 16.6142 24.8926 16.8924 24.2286 17.3991C23.5646 17.9058 23.0766 18.6145 22.8353 19.4226L21.1736 25.2931C21.031 25.7932 20.9866 26.3171 21.043 26.8348C21.0994 27.3524 21.2555 27.8536 21.5024 28.3099C21.7494 28.7661 22.0822 29.1683 22.482 29.4936C22.8818 29.8188 23.3406 30.0608 23.8323 30.2055L27.0172 31.1448C28.01 31.4353 29.0756 31.3137 29.9805 30.8066C30.4276 30.557 30.8212 30.219 31.1383 29.8126C31.4553 29.4061 31.6894 28.9394 31.8268 28.4396ZM30.7097 23.3771C30.6679 23.5269 30.5798 23.659 30.4584 23.7538C30.337 23.8485 30.1888 23.9009 30.0358 23.9031H29.8604L25.5216 22.776C25.3527 22.7143 25.213 22.59 25.1305 22.4279C25.048 22.2658 25.0288 22.078 25.0767 21.9022C25.1246 21.7263 25.236 21.5753 25.3888 21.4795C25.5415 21.3838 25.7241 21.3503 25.9 21.3858L30.2389 22.5223C30.411 22.5748 30.5564 22.6933 30.6442 22.8528C30.7321 23.0123 30.7556 23.2003 30.7097 23.3771ZM28.0234 26.58C27.9804 26.729 27.8919 26.8603 27.7708 26.9548C27.6496 27.0494 27.5021 27.1023 27.3495 27.106H27.1741L24.6077 26.4203C24.5203 26.3983 24.438 26.359 24.3656 26.3046C24.2932 26.2501 24.232 26.1817 24.1857 26.1031C24.1394 26.0245 24.1088 25.9374 24.0956 25.8468C24.0825 25.7561 24.0871 25.6638 24.1092 25.5749C24.1549 25.3946 24.2689 25.24 24.4264 25.1449C24.5838 25.0499 24.7718 25.0221 24.9493 25.0677L27.5249 25.7534C27.6962 25.8 27.8434 25.9117 27.9362 26.0655C28.0289 26.2193 28.0601 26.4035 28.0234 26.58Z" fill="#FF6F1E"/>
</svg>
