<svg width="20" height="20" viewBox="0 0 20 20" fill="none" xmlns="http://www.w3.org/2000/svg">
<path opacity="0.1" fill-rule="evenodd" clip-rule="evenodd" d="M5.50924 2.00047C6.16019 1.56553 6.92549 1.33337 7.70837 1.33337C8.22819 1.33337 8.74292 1.43576 9.22316 1.63468C9.70341 1.83361 10.1398 2.12518 10.5073 2.49274C10.8749 2.86031 11.1665 3.29667 11.3654 3.77692C11.5643 4.25717 11.6667 4.77189 11.6667 5.29171C11.6667 6.07459 11.4346 6.83989 10.9996 7.49084C10.5647 8.14178 9.94645 8.64913 9.22316 8.94873C8.49987 9.24832 7.70398 9.32671 6.93614 9.17398C6.1683 9.02125 5.46299 8.64425 4.90941 8.09067C4.35583 7.53709 3.97883 6.83178 3.8261 6.06394C3.67337 5.2961 3.75175 4.50021 4.05135 3.77692C4.35095 3.05363 4.8583 2.43542 5.50924 2.00047ZM1.58337 14.3333C1.58337 11.9003 4.30264 9.99996 7.76931 9.99996C11.236 9.99996 13.987 11.9003 13.987 14.3333C13.987 16.7663 11.236 18.6666 7.76931 18.6666C4.30264 18.6666 1.58337 16.7663 1.58337 14.3333ZM16.0297 8.46493C15.43 9.09165 14.6059 9.45449 13.7387 9.47362L13.6426 9.46561C13.4906 9.4781 13.3378 9.4781 13.1858 9.46561C13.1072 9.45479 13.0317 9.42856 12.9633 9.38842C12.895 9.34828 12.8353 9.29502 12.7876 9.23171C12.7399 9.1684 12.7052 9.09628 12.6856 9.01952C12.6659 8.94275 12.6615 8.86285 12.6729 8.78441L12.7198 8.64935C13.2395 7.15339 13.365 5.55153 13.0881 3.9976L13.076 3.93124C13.0225 3.63885 12.9634 3.31623 13.1695 3.11015C13.2822 2.99743 13.4351 2.93411 13.5945 2.93411C14.4617 2.91498 15.3009 3.24112 15.9277 3.84079C16.5544 4.44047 16.9172 5.26454 16.9364 6.13174C16.9555 6.99893 16.6293 7.8382 16.0297 8.46493ZM14.8779 17C17.0325 16.6568 18.5327 15.3242 18.5327 13.7442C18.5327 11.8769 16.4739 10.4166 13.8485 10.4166C13.6898 10.4166 13.5376 10.4797 13.4253 10.5919C13.3131 10.7042 13.25 10.8564 13.25 11.0151L13.4565 11.3378C14.3609 12.7512 14.6593 14.4622 14.2971 16.0888C14.2367 16.3599 14.183 16.6772 14.3945 16.8572C14.5027 16.9493 14.6401 16.9999 14.7822 17H14.8779Z" fill="#99A1B7"/>
<path fill-rule="evenodd" clip-rule="evenodd" d="M5.4914 1.93081C6.15573 1.48692 6.93676 1.25 7.73574 1.25C8.26624 1.25 8.79155 1.35449 9.28167 1.5575C9.77179 1.76052 10.2171 2.05808 10.5922 2.4332C10.9674 2.80832 11.2649 3.25366 11.4679 3.74378C11.671 4.2339 11.7754 4.7592 11.7754 5.2897C11.7754 6.08868 11.5385 6.86972 11.0946 7.53404C10.6507 8.19837 10.0198 8.71615 9.28167 9.0219C8.54351 9.32766 7.73126 9.40766 6.94763 9.25179C6.16401 9.09591 5.4442 8.71117 4.87924 8.14621C4.31427 7.58124 3.92953 6.86144 3.77366 6.07781C3.61778 5.29419 3.69778 4.48194 4.00354 3.74378C4.30929 3.00562 4.82707 2.3747 5.4914 1.93081ZM6.12424 7.66795C6.60042 7.98949 7.16117 8.16278 7.73574 8.16597C8.50864 8.16599 9.25012 7.86006 9.79815 7.31506C10.3462 6.77005 10.6562 6.03027 10.6605 5.25739C10.6605 4.68281 10.4903 4.12111 10.1714 3.64315C9.85251 3.1652 9.3992 2.79239 8.86867 2.57178C8.33813 2.35117 7.75414 2.29264 7.19038 2.40356C6.62661 2.51449 6.10833 2.7899 5.70092 3.19506C5.29351 3.60022 5.01523 4.11697 4.90118 4.68011C4.78714 5.24325 4.84243 5.82756 5.0601 6.3593C5.27777 6.89105 5.64806 7.34642 6.12424 7.66795ZM1.44995 14.3467C1.44995 11.8744 4.21311 9.94344 7.73573 9.94344C11.2584 9.94344 14.0538 11.8744 14.0538 14.3467C14.0538 16.819 11.2584 18.75 7.73573 18.75C4.21311 18.75 1.44995 16.819 1.44995 14.3467ZM2.66186 14.3467C2.66186 16.0757 4.98065 17.5381 7.73573 17.5381C10.4827 17.5381 12.8015 16.0757 12.8015 14.3467C12.8015 12.6177 10.4908 11.1554 7.73573 11.1554C4.98065 11.1554 2.66186 12.6177 2.66186 14.3467ZM13.7549 9.49928C14.6292 9.48 15.46 9.1142 16.0645 8.48237C16.6691 7.85054 16.9979 7.00443 16.9786 6.13017C16.9593 5.25591 16.5935 4.42512 15.9617 3.82056C15.3299 3.216 14.4837 2.8872 13.6095 2.90648C13.4488 2.90648 13.2946 2.97032 13.181 3.08396C13.0674 3.1976 13.0035 3.35173 13.0035 3.51244C13.0035 3.67315 13.0674 3.82728 13.181 3.94091C13.2946 4.05455 13.4488 4.11839 13.6095 4.11839C13.8832 4.11203 14.1555 4.15964 14.4109 4.25852C14.6662 4.35739 14.8996 4.50559 15.0976 4.69465C15.2957 4.88371 15.4546 5.10993 15.5652 5.3604C15.6759 5.61086 15.7361 5.88067 15.7424 6.15441C15.7488 6.42814 15.7012 6.70046 15.6023 6.9558C15.5035 7.21113 15.3553 7.4445 15.1662 7.64256C14.9771 7.84062 14.7509 7.99951 14.5004 8.11015C14.25 8.22078 13.9802 8.281 13.7064 8.28737C13.5935 8.29569 13.4801 8.29569 13.3671 8.28737C13.2081 8.26862 13.048 8.3119 12.92 8.40822C12.7921 8.50453 12.7063 8.64645 12.6804 8.80445C12.669 8.88353 12.6733 8.96408 12.6932 9.04148C12.713 9.11887 12.748 9.19157 12.796 9.2554C12.8441 9.31922 12.9043 9.37292 12.9732 9.41339C13.0421 9.45386 13.1183 9.4803 13.1974 9.4912C13.3507 9.50379 13.5047 9.50379 13.658 9.4912L13.7549 9.49928ZM18.5621 13.7571C18.5621 15.3568 17.0432 16.7061 14.8618 17.0535H14.7648C14.621 17.0534 14.4818 17.0022 14.3723 16.9089C14.2627 16.8157 14.1899 16.6865 14.1669 16.5445C14.1435 16.3862 14.1827 16.2251 14.2762 16.0953C14.3698 15.9655 14.5103 15.8774 14.6679 15.8497C16.2272 15.6073 17.3502 14.7266 17.3502 13.7571C17.3502 12.5856 15.7343 11.5999 13.8195 11.5999C13.6588 11.5999 13.5047 11.5361 13.391 11.4224C13.2774 11.3088 13.2136 11.1546 13.2136 10.9939C13.2136 10.8332 13.2774 10.6791 13.391 10.5655C13.5047 10.4518 13.6588 10.388 13.8195 10.388C16.4776 10.388 18.5621 11.8665 18.5621 13.7571Z" fill="#99A1B7"/>
</svg>
