<svg width="20" height="20" viewBox="0 0 20 20" fill="none" xmlns="http://www.w3.org/2000/svg">
<path opacity="0.1" fill-rule="evenodd" clip-rule="evenodd" d="M7.09252 10.2583C7.89763 10.7963 8.84419 11.0834 9.8125 11.0834C10.4554 11.0834 11.0921 10.9568 11.686 10.7107C12.28 10.4647 12.8198 10.1041 13.2744 9.64946C13.729 9.19484 14.0896 8.65513 14.3357 8.06114C14.5817 7.46715 14.7083 6.83051 14.7083 6.18758C14.7083 5.21928 14.4212 4.27272 13.8832 3.4676C13.3453 2.66249 12.5806 2.03498 11.686 1.66442C10.7915 1.29387 9.80706 1.19692 8.85737 1.38582C7.90767 1.57473 7.03531 2.04101 6.35062 2.72571C5.66592 3.4104 5.19964 4.28275 5.01073 5.23245C4.82183 6.18215 4.91878 7.16654 5.28933 8.06114C5.65989 8.95573 6.2874 9.72036 7.09252 10.2583ZM16.0679 12.65C16.1171 12.6053 16.1817 12.5815 16.2482 12.5836H16.3146C16.3612 12.5852 16.4071 12.5961 16.4494 12.6157C16.4918 12.6352 16.5298 12.663 16.5613 12.6975L17.1876 13.3617C17.2436 13.4243 17.2746 13.5054 17.2746 13.5894C17.2746 13.6734 17.2436 13.7545 17.1876 13.8172L13.9518 16.8442C13.9129 16.8812 13.8629 16.9045 13.8095 16.9106L12.5 17.1668L12.7847 15.8099C12.7969 15.7593 12.8232 15.7132 12.8606 15.677L16.0679 12.65ZM12.5166 12.5206C12.5001 12.4335 12.466 12.3507 12.4162 12.2773C12.3665 12.2039 12.3022 12.1415 12.2274 12.0939C12.1525 12.0463 12.0688 12.0146 11.9812 12.0007C11.2789 11.8345 10.5597 11.7504 9.83797 11.7501C5.68983 11.7501 2.12069 14.4378 1.50711 18.0242C1.482 18.1935 1.52395 18.3658 1.62402 18.5047C1.72409 18.6435 1.87439 18.7377 2.04291 18.7674H12.0497C12.2313 18.7674 12.3281 18.5533 12.2082 18.4169C10.7336 16.7412 10.8187 14.207 12.4025 12.6339L12.5166 12.5206Z" fill="#99A1B7"/>
<path d="M9.82125 11.1191C8.84529 11.1191 7.89124 10.8297 7.07975 10.2875C6.26827 9.74529 5.63579 8.97462 5.2623 8.07295C4.88882 7.17127 4.7911 6.17909 4.9815 5.22188C5.1719 4.26467 5.64187 3.38541 6.33198 2.6953C7.0221 2.00519 7.90135 1.53522 8.85856 1.34482C9.81578 1.15442 10.808 1.25214 11.7096 1.62562C12.6113 1.99911 13.382 2.63159 13.9242 3.44307C14.4664 4.25456 14.7558 5.2086 14.7558 6.18457C14.7558 6.83259 14.6282 7.47426 14.3802 8.07295C14.1322 8.67164 13.7687 9.21562 13.3105 9.67383C12.8523 10.1321 12.3083 10.4955 11.7096 10.7435C11.1109 10.9915 10.4693 11.1191 9.82125 11.1191ZM9.82125 2.5463C9.1013 2.54459 8.39703 2.75651 7.79759 3.15525C7.19814 3.55399 6.73047 4.12161 6.45377 4.78626C6.17707 5.45092 6.10379 6.18272 6.24319 6.88905C6.3826 7.59537 6.72843 8.24446 7.2369 8.75414C7.74538 9.26383 8.39364 9.6112 9.09963 9.75229C9.80562 9.89337 10.5376 9.82183 11.2029 9.54671C11.8682 9.2716 12.437 8.80528 12.8371 8.20678C13.2373 7.60828 13.4509 6.90452 13.4509 6.18457C13.4486 5.22183 13.0657 4.29905 12.3858 3.61748C11.7058 2.93591 10.784 2.55086 9.82125 2.5463ZM2.7694 18.2228C3.27063 15.25 6.30397 13.0377 9.82125 13.0377C10.4464 13.0369 11.0697 13.1064 11.6793 13.2451C11.7643 13.2702 11.8536 13.2776 11.9416 13.2668C12.0296 13.2561 12.1145 13.2274 12.1909 13.1825C12.2674 13.1376 12.3339 13.0776 12.3862 13.006C12.4385 12.9344 12.4756 12.8529 12.4951 12.7664C12.5147 12.6799 12.5163 12.5903 12.4998 12.5032C12.4834 12.4161 12.4492 12.3333 12.3995 12.2599C12.3497 12.1865 12.2855 12.1241 12.2106 12.0765C12.1358 12.0289 12.052 11.9972 11.9645 11.9833C11.2622 11.8171 10.5429 11.733 9.82125 11.7327C5.6731 11.7327 2.10397 14.4204 1.49039 18.0068C1.46528 18.1761 1.50723 18.3484 1.6073 18.4872C1.70737 18.6261 1.85766 18.7203 2.02619 18.75H2.13854C2.28843 18.7486 2.43322 18.6954 2.54824 18.5992C2.66327 18.5031 2.74142 18.3701 2.7694 18.2228ZM12.82 18.0414C12.649 18.0415 12.4797 18.0072 12.3223 17.9403C12.1649 17.8735 12.0226 17.7756 11.904 17.6525C11.7687 17.5038 11.6701 17.3256 11.6161 17.132C11.5621 16.9384 11.5541 16.7349 11.5929 16.5377L11.8521 15.3105C11.9173 15.0009 12.0738 14.7179 12.3015 14.4981L15.2571 11.7327C15.4107 11.5926 15.5907 11.4845 15.7865 11.4148C15.9824 11.345 16.1902 11.315 16.3978 11.3265C16.8164 11.3528 17.2091 11.5384 17.4953 11.8451L18.0571 12.45C18.3526 12.7492 18.5183 13.1529 18.5183 13.5735C18.5183 13.994 18.3526 14.3977 18.0571 14.6969L15.1015 17.4537C14.8644 17.6768 14.561 17.8163 14.2373 17.8512L12.9929 18.0241L12.82 18.0414ZM16.2768 12.6315C16.2163 12.6296 16.1574 12.6513 16.1126 12.692L13.1916 15.4488C13.1576 15.4817 13.1336 15.5237 13.1225 15.5698L12.8632 16.8056L14.0558 16.5722C14.1045 16.5667 14.15 16.5455 14.1854 16.5117L17.1324 13.7549C17.1834 13.6979 17.2116 13.6241 17.2116 13.5475C17.2116 13.471 17.1834 13.3972 17.1324 13.3401L16.562 12.7352C16.5333 12.7038 16.4987 12.6785 16.4601 12.6607C16.4215 12.6429 16.3798 12.633 16.3373 12.6315H16.2768Z" fill="#99A1B7"/>
</svg>
