<svg width="200" height="197" viewBox="0 0 200 197" fill="none" xmlns="http://www.w3.org/2000/svg">
<path d="M74.976 82.9516C67.828 85.4473 59.9112 82.6591 53.3406 78.8922C46.77 75.1254 40.6395 70.3023 33.3466 68.2778C28.873 67.0299 23.5088 67.1257 20.2571 70.4421C16.5835 74.1908 17.1375 80.2799 18.4449 85.367C21.5335 97.2552 27.7028 108.667 37.437 116.175C47.1713 123.683 60.7681 126.642 72.1593 122.026C83.5504 117.41 91.4698 104.421 88.5987 92.4658C87.8221 89.284 86.2868 86.1644 83.6565 84.215C81.0262 82.2655 77.1843 81.7607 74.4711 83.5911L74.976 82.9516Z" fill="#006C8F"/>
<path d="M28.1794 67.5317C29.9306 67.5435 31.6723 67.7916 33.3571 68.2695C40.6501 70.3018 46.7806 75.1249 53.3512 78.884C58.182 81.6541 63.7404 83.8961 69.1874 83.8961C71.1604 83.9078 73.1211 83.5857 74.9866 82.9434L74.4817 83.5828C75.6372 82.827 76.9922 82.4339 78.3728 82.4541C80.2741 82.4694 82.1218 83.0856 83.6516 84.2145C86.2819 86.164 87.8275 89.2836 88.5938 92.4653C91.47 104.411 83.5506 117.409 72.1595 122.025C68.4763 123.497 64.5431 124.243 60.5768 124.221C52.3545 124.221 44.0208 121.212 37.4476 116.154C27.7134 108.664 21.544 97.2548 18.4555 85.3588C17.1377 80.2768 16.5837 74.1826 20.2677 70.4339C22.3181 68.342 25.2099 67.5317 28.1897 67.5317H28.1794ZM28.1794 65.7195C24.3582 65.7195 21.1738 66.9104 18.9629 69.1653C15.5093 72.6888 14.7482 78.2886 16.7028 85.8145C18.2631 91.9649 20.6871 97.8632 23.9025 103.334C27.325 109.076 31.5113 113.873 36.3292 117.591C43.3011 122.957 52.1344 126.033 60.5638 126.033C64.764 126.057 68.9289 125.266 72.8274 123.703C78.8103 121.277 83.9441 116.726 87.2838 110.89C90.7348 104.866 91.8221 98.1713 90.3465 92.0408C89.663 89.193 88.1329 85.2838 84.7234 82.7544C82.8848 81.3932 80.6604 80.6532 78.3728 80.6419C77.3195 80.6361 76.2731 80.8112 75.2791 81.1596C75.209 81.1465 75.1381 81.1387 75.0668 81.1363H74.971C74.9089 81.1325 74.8467 81.1325 74.7846 81.1363C74.6316 81.1521 74.4811 81.1869 74.3367 81.2399C72.6741 81.806 70.9283 82.0895 69.1719 82.0787C64.7863 82.0787 59.7613 80.471 54.2366 77.3074C52.4632 76.2899 50.6794 75.1664 48.9526 74.0816C44.2434 71.1199 39.3737 68.0547 33.8283 66.5091C31.9879 65.9905 30.0863 65.7206 28.1742 65.7065L28.1794 65.7195Z" fill="#323544"/>
<path d="M43.1843 80.495L39.4537 70.6572C37.4968 69.673 35.4522 68.8739 33.3465 68.2702C30.5686 67.4936 27.449 67.2347 24.7048 67.9492L22.499 68.7854C21.669 69.2128 20.9122 69.7694 20.2571 70.4346C16.5834 74.1833 17.1374 80.2723 18.4448 85.3595C18.9367 87.2494 19.5063 89.1289 20.1561 90.9826L42.2238 82.6101C42.4261 82.5347 42.6115 82.4201 42.7693 82.2729C42.9271 82.1256 43.0543 81.9487 43.1436 81.7521C43.2328 81.5556 43.2824 81.3434 43.2893 81.1276C43.2963 80.9119 43.2606 80.6969 43.1843 80.495Z" fill="#08A4CA"/>
<path d="M75.4472 130.784C86.1393 116.32 93.8128 101.364 102.605 85.5431C105.9 79.6145 111.666 77.2897 115.622 71.8349C119.603 66.3284 121.884 59.3927 121.656 52.4389C121.46 46.4068 118.565 37.4751 121.426 32.2456C124.491 26.6458 132.988 26.5811 138.797 28.6082C152.858 33.5115 162.302 46.0729 166.729 59.9649C171.156 73.8569 170.066 92.0671 163.363 104.882C156.661 117.697 147.641 124.11 135.494 131.159C126.433 136.42 115.254 137.562 104.945 138.32C94.636 139.079 83.975 136.718 75.3591 130.668L75.4472 130.784Z" fill="#006C8F"/>
<path d="M131.634 27.3987C134.072 27.4085 136.492 27.8196 138.797 28.6154C152.858 33.5188 162.302 46.0801 166.729 59.9721C171.156 73.8641 170.066 92.0744 163.363 104.889C156.661 117.704 147.641 124.109 135.494 131.159C126.433 136.42 115.254 137.561 104.945 138.32C103.706 138.411 102.463 138.457 101.217 138.457C92.1559 138.457 83.03 136.016 75.4756 130.747C86.1548 116.293 93.8205 101.35 102.605 85.5426C105.9 79.614 111.666 77.2892 115.622 71.8344C119.603 66.3278 121.884 59.3922 121.656 52.4384C121.46 46.4063 118.565 37.4746 121.426 32.2451C123.355 28.7242 127.43 27.3909 131.634 27.3909V27.3987ZM75.3591 130.667L75.4756 130.747L75.4472 130.784L75.3591 130.667ZM131.634 25.5864C126.073 25.5864 121.882 27.6446 119.836 31.383C117.553 35.5511 118.415 41.4175 119.176 46.5901C119.489 48.7389 119.79 50.7686 119.844 52.498C120.012 59.0509 118.01 65.4757 114.149 70.773C112.499 73.0538 110.503 74.7443 108.391 76.5358C105.735 78.7882 102.988 81.1182 101.018 84.6624C99.5756 87.2513 98.1492 89.8557 96.7667 92.3695C89.7327 105.185 83.0792 117.301 74.422 129.111C74.2899 129.192 74.1682 129.288 74.0595 129.398C73.7586 129.706 73.577 130.111 73.5471 130.54C73.5172 130.969 73.641 131.395 73.8964 131.741L73.9844 131.86C74.1855 132.134 74.4602 132.345 74.7766 132.469C82.2508 137.574 91.3818 140.269 101.212 140.269C102.491 140.269 103.801 140.22 105.072 140.127C115.836 139.35 127.121 138.115 136.397 132.728C141.886 129.541 147.657 125.979 152.661 121.546C157.779 117.016 161.686 111.988 164.958 105.731C171.738 92.7604 173.142 74.1463 168.448 59.4233C163.348 43.4187 152.754 31.5642 139.388 26.9042C136.888 26.0437 134.264 25.5986 131.621 25.5864H131.634Z" fill="#323544"/>
<path d="M75.4473 130.786L75.4758 130.747L75.3593 130.669L75.4473 130.786Z" fill="#006C8F"/>
<path d="M75.3595 130.669L75.476 130.746L75.4475 130.785L75.3595 130.669ZM75.3595 128.856C75.0243 128.856 74.6955 128.949 74.4099 129.125C74.1243 129.3 73.893 129.552 73.7417 129.851C73.5903 130.15 73.525 130.485 73.5528 130.819C73.5806 131.153 73.7006 131.473 73.8994 131.743L73.9848 131.862C74.1533 132.09 74.3729 132.275 74.6261 132.403C74.8792 132.531 75.1588 132.597 75.4423 132.597C75.7257 132.598 76.0051 132.532 76.2582 132.404C76.5114 132.277 76.7311 132.092 76.8999 131.865L76.9206 131.834C77.0664 131.639 77.1716 131.417 77.2298 131.181C77.288 130.945 77.2981 130.699 77.2594 130.459C77.2208 130.219 77.1342 129.989 77.0048 129.783C76.8754 129.577 76.7059 129.399 76.5064 129.26L76.4313 129.209L76.3976 129.185C76.0942 128.972 75.7328 128.858 75.3621 128.856H75.3595Z" fill="#323544"/>
<path d="M166.729 59.9728C163.651 50.3136 158.145 41.2991 150.344 35.0547C153.511 39.6951 155.977 44.7764 157.663 50.135C162.09 64.0296 161 82.2373 154.298 95.0523C147.595 107.867 138.58 114.272 126.433 121.322C117.372 126.582 106.193 127.724 95.8844 128.483C89.9991 128.934 84.0807 128.313 78.4172 126.65C77.461 128.02 76.4807 129.385 75.4762 130.745C84.0687 136.739 94.6832 139.074 104.946 138.32C115.255 137.562 126.433 136.42 135.495 131.16C147.642 124.11 156.656 117.718 163.361 104.89C170.067 92.0621 171.157 73.8674 166.729 59.9728Z" fill="#08A4CA"/>
<path d="M66.3862 120.946L66.4147 120.907L66.2982 120.83L66.3862 120.946Z" fill="#006C8F"/>
<path d="M66.2984 120.829L66.4149 120.906L66.3864 120.945L66.2984 120.829ZM66.2984 119.017C65.9631 119.016 65.6344 119.109 65.3488 119.285C65.0632 119.46 64.8318 119.712 64.6805 120.011C64.5292 120.31 64.4638 120.645 64.4917 120.979C64.5195 121.313 64.6395 121.633 64.8382 121.903L64.9237 122.022C65.0922 122.25 65.3118 122.436 65.565 122.563C65.8181 122.691 66.0977 122.758 66.3812 122.758C66.6645 122.758 66.944 122.692 67.1971 122.564C67.4502 122.437 67.67 122.252 67.8388 122.025L67.8595 121.994C68.0053 121.799 68.1105 121.577 68.1687 121.341C68.2269 121.105 68.237 120.859 68.1983 120.619C68.1597 120.379 68.0731 120.149 67.9437 119.943C67.8143 119.737 67.6448 119.56 67.4453 119.42L67.3702 119.369L67.3365 119.345C67.0331 119.132 66.6716 119.018 66.301 119.017H66.2984Z" fill="#323544"/>
<path d="M150.711 42.7707C148.042 40.5028 144.118 41.2821 140.915 42.5584C137.713 43.8347 134.357 45.5357 131.018 44.7305C129.464 44.3577 128.056 43.462 126.485 43.2134C125.518 43.0748 124.531 43.1795 123.615 43.5181C122.699 43.8567 121.881 44.4184 121.237 45.1525C121.18 45.2172 121.126 45.2845 121.071 45.3544C121.265 47.7207 121.589 50.1154 121.656 52.4402C121.752 55.6362 121.346 58.8274 120.452 61.8975C129.073 59.7228 139.061 61.7421 146.926 57.1443C149.36 55.7204 151.545 53.5923 152.49 50.8248C153.435 48.0572 152.881 44.614 150.711 42.7707Z" fill="#08A4CA"/>
<path d="M123.161 21.1593C128.059 9.37979 140.62 1.22477 153.373 1.5691C155.211 1.6157 157.329 1.99885 158.227 3.60138C159.24 5.4136 158.085 7.70478 156.534 9.07171C154.983 10.4386 153.019 11.3448 151.721 12.9551C156.666 12.5916 161.632 12.6635 166.564 13.1699C168.081 13.3253 169.629 13.5324 170.991 14.221C172.352 14.9097 173.515 16.1653 173.693 17.6824C173.872 19.1995 173.054 20.6544 171.881 21.6045C170.708 22.5547 169.248 23.044 167.786 23.3779C162.181 24.6355 156.311 23.8697 151.217 21.2162C147.753 19.404 144.656 16.7064 140.846 15.8261C137.845 15.1349 134.671 15.6527 131.784 16.7452C128.898 17.8377 126.28 19.4842 123.673 21.1178" fill="#006C8F"/>
<path d="M162.528 24.8596C158.45 24.8673 154.432 23.8904 150.813 22.0118C149.645 21.3982 148.517 20.6889 147.424 20.0002C145.185 18.5893 143.072 17.2586 140.659 16.702C138.135 16.1195 135.186 16.425 132.134 17.5848C129.33 18.6514 126.71 20.2928 124.181 21.8798C123.979 22.0053 123.735 22.047 123.503 21.9963C123.337 22.0612 123.156 22.0759 122.982 22.0387C122.808 22.0015 122.649 21.914 122.525 21.787C122.4 21.6601 122.316 21.4993 122.282 21.3248C122.249 21.1502 122.267 20.9696 122.335 20.8054C124.774 14.939 129.214 9.70162 134.839 6.04869C140.465 2.39576 147.059 0.482573 153.407 0.650851C156.255 0.725929 158.139 1.56473 159.03 3.14654C160.304 5.41441 158.945 8.15346 157.143 9.73787C156.5 10.2828 155.827 10.7903 155.126 11.2575C154.82 11.4698 154.52 11.6795 154.23 11.8892C158.376 11.7103 162.529 11.8331 166.657 12.2569C168.234 12.4174 169.896 12.64 171.402 13.3986C173.215 14.3073 174.398 15.8632 174.597 17.5641C174.796 19.265 173.978 21.0617 172.466 22.294C171.053 23.4461 169.334 23.9431 167.995 24.2486C166.201 24.6564 164.367 24.8613 162.528 24.8596ZM138.034 14.5998C139.054 14.5961 140.071 14.7081 141.066 14.9338C143.779 15.5603 146.122 17.036 148.39 18.465C149.451 19.133 150.551 19.8242 151.657 20.4067C156.564 22.9475 162.208 23.6807 167.602 22.4778C169.303 22.0895 170.45 21.5976 171.327 20.8856C172.363 20.0391 172.932 18.8456 172.806 17.779C172.653 16.4845 171.563 15.5085 170.592 15.0192C169.362 14.3979 167.887 14.2063 166.481 14.0613C161.603 13.5622 156.69 13.4912 151.799 13.849C151.623 13.8639 151.445 13.8265 151.29 13.7414C151.134 13.6563 151.007 13.5274 150.925 13.3707C150.842 13.2139 150.807 13.0363 150.824 12.8599C150.842 12.6834 150.911 12.5161 151.023 12.3785C151.895 11.2938 153.011 10.5197 154.088 9.77152C154.731 9.34371 155.349 8.87954 155.939 8.38129C157.251 7.22664 158.189 5.36523 157.443 4.03712C156.889 3.05076 155.514 2.52262 153.355 2.46566C141.925 2.16535 130.449 9.06734 125.103 19.1666C127.123 17.8775 129.259 16.7802 131.484 15.8891C133.572 15.0695 135.791 14.6361 138.034 14.6102V14.5998Z" fill="#323544"/>
<path d="M125.397 52.1711C126.385 52.1711 127.186 51.3702 127.186 50.3822C127.186 49.3942 126.385 48.5933 125.397 48.5933C124.409 48.5933 123.608 49.3942 123.608 50.3822C123.608 51.3702 124.409 52.1711 125.397 52.1711Z" fill="#323544"/>
<path d="M139.45 50.384C140.438 50.384 141.239 49.5831 141.239 48.5951C141.239 47.6071 140.438 46.8062 139.45 46.8062C138.462 46.8062 137.661 47.6071 137.661 48.5951C137.661 49.5831 138.462 50.384 139.45 50.384Z" fill="#323544"/>
<path d="M118.04 42.1632C117.737 42.1632 117.443 42.0569 117.211 41.8626C116.978 41.6684 116.821 41.3986 116.766 41.1004C116.712 40.8021 116.764 40.4943 116.914 40.2305C117.063 39.9668 117.301 39.7639 117.584 39.6572L119.505 38.9349C119.664 38.8751 119.834 38.8471 120.004 38.8528C120.173 38.8584 120.341 38.8974 120.495 38.9676C120.65 39.0378 120.79 39.1378 120.906 39.2619C121.022 39.386 121.113 39.5317 121.172 39.6909C121.232 39.85 121.26 40.0193 121.255 40.1892C121.249 40.3591 121.21 40.5262 121.14 40.681C121.07 40.8359 120.97 40.9753 120.846 41.0915C120.721 41.2077 120.576 41.2983 120.417 41.3581L118.501 42.0804C118.354 42.1362 118.197 42.1643 118.04 42.1632Z" fill="#323544"/>
<path d="M136.19 40.2669C136.125 40.2669 136.06 40.2617 135.996 40.2514L133.969 39.9433C133.796 39.9235 133.629 39.8691 133.478 39.7833C133.326 39.6975 133.194 39.582 133.088 39.4439C132.982 39.3057 132.906 39.1476 132.862 38.979C132.819 38.8105 132.81 38.635 132.836 38.4629C132.863 38.2909 132.923 38.1259 133.014 37.9778C133.106 37.8297 133.226 37.7015 133.368 37.6009C133.51 37.5004 133.671 37.4295 133.841 37.3924C134.011 37.3554 134.187 37.353 134.357 37.3855L136.385 37.6936C136.706 37.7438 136.997 37.9133 137.199 38.1684C137.401 38.4235 137.5 38.7453 137.476 39.0699C137.451 39.3944 137.305 39.6978 137.067 39.9197C136.829 40.1415 136.516 40.2655 136.19 40.2669Z" fill="#323544"/>
<path d="M189.838 44.817C189.838 44.817 195.443 43.5924 198.203 49.0576C200.962 54.5227 196.315 61.0157 196.315 61.0157C196.315 61.0157 190.035 60.0397 189.843 56.0683C189.843 56.0683 192.01 55.6929 191.301 53.7927C190.591 51.8924 188.864 53.8367 188.864 53.8367C188.864 53.8367 185.354 49.8109 189.838 44.817Z" fill="#111217"/>
<path d="M196.315 61.9231C196.269 61.9271 196.224 61.9271 196.178 61.9231C195.89 61.8791 189.162 60.7788 188.947 56.1214C188.937 55.9009 189.008 55.6843 189.146 55.5122C189.284 55.3401 189.48 55.2244 189.698 55.1868C189.889 55.1506 190.353 54.9875 190.498 54.7286C190.538 54.6301 190.557 54.524 190.552 54.4177C190.548 54.3113 190.52 54.2072 190.472 54.1124C190.444 54.0276 190.404 53.9473 190.353 53.8743C190.048 54.0003 189.777 54.1953 189.561 54.4438C189.474 54.5378 189.369 54.613 189.251 54.6647C189.134 54.7163 189.008 54.7434 188.88 54.7441C188.752 54.7434 188.625 54.7156 188.509 54.6625C188.392 54.6094 188.289 54.5322 188.204 54.4361C188.163 54.3895 184.209 49.7424 189.175 44.2151C189.303 44.0745 189.471 43.9768 189.656 43.9355C189.719 43.9226 195.981 42.6411 199.02 48.6525C201.995 54.537 197.265 61.263 197.063 61.5477C196.978 61.6656 196.865 61.7611 196.735 61.8264C196.605 61.8918 196.461 61.9249 196.315 61.9231ZM190.878 56.678C191.51 58.7828 194.612 59.707 195.901 60.0074C196.846 58.4696 199.474 53.561 197.405 49.4654C195.308 45.3232 191.401 45.5147 190.319 45.6597C187.73 48.7172 188.45 51.275 189.082 52.4892C189.554 52.1525 190.137 52.0072 190.713 52.0828C191.174 52.1708 191.8 52.4814 192.17 53.4756C192.32 53.817 192.39 54.1883 192.374 54.5608C192.357 54.9334 192.256 55.2972 192.077 55.6244C191.791 56.0911 191.369 56.4589 190.868 56.678H190.878Z" fill="#323544"/>
<path d="M195.091 56.3221C194.861 56.322 194.639 56.2344 194.472 56.0772C194.304 55.9201 194.202 55.705 194.187 55.4756C193.579 46.2721 184.517 40.561 184.435 40.504C184.229 40.378 184.081 40.1753 184.025 39.9406C183.968 39.7059 184.007 39.4583 184.133 39.2523C184.259 39.0463 184.462 38.8988 184.696 38.8422C184.931 38.7857 185.179 38.8247 185.385 38.9507C185.791 39.2096 195.326 45.1977 195.999 55.3435C196.007 55.4624 195.992 55.5817 195.954 55.6945C195.916 55.8074 195.856 55.9117 195.777 56.0014C195.699 56.0911 195.604 56.1644 195.497 56.2172C195.39 56.27 195.274 56.3013 195.155 56.3092L195.091 56.3221Z" fill="#323544"/>
<path d="M172.532 145.895C173.894 148.65 178.088 148.777 180.527 146.91C182.966 145.043 184.084 141.965 185.081 139.058L186.549 134.768C183.688 137.23 179.22 135.863 175.642 137.062C174.085 137.619 172.74 138.647 171.794 140.004C170.848 141.36 170.349 142.978 170.366 144.632" fill="#111217"/>
<path d="M176.685 149.066C176.17 149.067 175.657 149.009 175.155 148.892C174.426 148.745 173.738 148.436 173.143 147.988C172.549 147.54 172.062 146.964 171.72 146.303C171.613 146.088 171.597 145.839 171.674 145.611C171.751 145.383 171.916 145.196 172.132 145.089C172.347 144.983 172.596 144.966 172.824 145.044C173.052 145.121 173.239 145.285 173.346 145.501C173.57 145.922 173.886 146.288 174.27 146.572C174.655 146.855 175.098 147.048 175.567 147.137C176.325 147.3 177.11 147.301 177.868 147.139C178.627 146.977 179.342 146.656 179.968 146.197C182.275 144.434 183.349 141.294 184.214 138.772L184.918 136.701C183.442 137.219 181.811 137.281 180.237 137.348C178.663 137.416 177.232 137.48 175.919 137.921C174.547 138.416 173.361 139.325 172.527 140.522C171.692 141.719 171.249 143.146 171.259 144.605C171.263 144.724 171.243 144.843 171.2 144.954C171.158 145.065 171.094 145.167 171.013 145.254C170.931 145.34 170.833 145.41 170.725 145.459C170.616 145.508 170.499 145.535 170.38 145.538C170.261 145.542 170.143 145.522 170.031 145.48C169.92 145.438 169.818 145.374 169.731 145.292C169.645 145.211 169.575 145.113 169.526 145.004C169.477 144.896 169.45 144.778 169.447 144.659C169.415 142.809 169.968 140.996 171.026 139.477C172.085 137.959 173.595 136.813 175.342 136.202C176.895 135.684 178.552 135.609 180.157 135.539C182.373 135.443 184.468 135.352 185.946 134.079C186.097 133.949 186.286 133.873 186.485 133.862C186.683 133.851 186.88 133.905 187.044 134.016C187.209 134.128 187.332 134.291 187.395 134.479C187.458 134.668 187.457 134.872 187.393 135.06L185.925 139.35C184.983 142.104 183.807 145.532 181.066 147.634C179.796 148.566 178.261 149.068 176.685 149.066Z" fill="#323544"/>
<path d="M168.764 145.915C168.474 145.915 168.184 145.907 167.894 145.892C167.653 145.879 167.428 145.772 167.267 145.593C167.106 145.414 167.023 145.178 167.035 144.938C167.048 144.698 167.156 144.472 167.335 144.311C167.514 144.15 167.749 144.067 167.989 144.08C170.141 144.178 172.291 143.839 174.308 143.085C176.326 142.331 178.17 141.177 179.73 139.691C179.812 139.596 179.913 139.519 180.027 139.465C180.14 139.411 180.264 139.381 180.389 139.377C180.515 139.374 180.64 139.396 180.757 139.443C180.873 139.49 180.979 139.561 181.066 139.652C181.154 139.742 181.222 139.849 181.266 139.967C181.309 140.085 181.328 140.21 181.321 140.336C181.314 140.461 181.28 140.584 181.223 140.696C181.166 140.808 181.086 140.907 180.988 140.986C177.691 144.127 173.318 145.891 168.764 145.915Z" fill="#323544"/>
<path d="M53.0659 40.8953C49.7781 41.2267 47.0908 37.7369 47.2539 34.6612C47.417 31.5856 49.47 28.9657 51.4479 26.5684L54.3656 23.0112C53.928 26.7625 57.8891 29.8174 59.0256 33.4988C60.0119 36.7117 58.5078 40.362 55.5254 42.0551" fill="#111217"/>
<path d="M55.5205 42.9607C55.3202 42.9609 55.1254 42.8947 54.9666 42.7724C54.8079 42.65 54.6942 42.4786 54.6433 42.2848C54.5924 42.0909 54.6072 41.8857 54.6854 41.7012C54.7635 41.5167 54.9006 41.3633 55.0753 41.265C57.69 39.7867 59.013 36.5636 58.1534 33.7572C57.7392 32.4084 56.859 31.0751 56.0073 29.7858C55.0623 28.3542 54.0966 26.8889 53.6617 25.2915L52.1472 27.1374C50.4385 29.2241 48.3105 31.8207 48.1577 34.7047C48.0827 36.126 48.7635 37.7363 49.8871 38.8107C50.7984 39.678 51.8935 40.1052 52.9757 39.9887C53.216 39.9646 53.456 40.0371 53.6429 40.19C53.8298 40.3429 53.9484 40.5639 53.9724 40.8042C53.9964 41.0445 53.924 41.2845 53.7711 41.4714C53.6181 41.6584 53.3972 41.7769 53.1569 41.8009C51.544 41.964 49.9389 41.3711 48.6367 40.1311C47.1222 38.6865 46.2445 36.5739 46.3481 34.6193C46.5319 31.1424 48.8697 28.2895 50.7492 25.9983L53.6669 22.4412C53.7911 22.2902 53.9608 22.1835 54.1506 22.1369C54.3404 22.0904 54.5403 22.1064 54.7202 22.1827C54.9002 22.259 55.0506 22.3914 55.1491 22.5603C55.2477 22.7291 55.2889 22.9252 55.2668 23.1194C55.0442 25.043 56.248 26.8656 57.5243 28.7995C58.446 30.1949 59.3987 31.6473 59.888 33.2368C60.9935 36.8302 59.3081 40.9621 55.9684 42.8468C55.8318 42.9235 55.6773 42.9628 55.5205 42.9607Z" fill="#323544"/>
<path d="M56.6936 45.2078C56.5578 45.2079 56.4238 45.1775 56.3015 45.1188C56.1791 45.0601 56.0716 44.9746 55.9868 44.8686C52.8387 40.962 51.4614 35.8075 52.308 31.106C52.3505 30.8695 52.4853 30.6596 52.6827 30.5224C52.8801 30.3853 53.1238 30.3321 53.3604 30.3747C53.5969 30.4173 53.8068 30.552 53.944 30.7494C54.0811 30.9468 54.1343 31.1905 54.0917 31.4271C53.3383 35.6288 54.5733 40.2293 57.3977 43.7321C57.5042 43.8654 57.5709 44.026 57.5904 44.1954C57.6098 44.3649 57.5812 44.5365 57.5077 44.6904C57.4343 44.8444 57.3189 44.9745 57.175 45.066C57.031 45.1575 56.8641 45.2066 56.6936 45.2078Z" fill="#323544"/>
<path d="M81.1571 118.538L18.4376 104.415C16.2881 103.931 14.1532 105.282 13.6691 107.431L4.77781 146.917C4.29379 149.067 5.64394 151.202 7.79345 151.686L70.513 165.809C72.6625 166.293 74.7974 164.942 75.2814 162.793L84.1728 123.307C84.6568 121.157 83.3066 119.022 81.1571 118.538Z" fill="#111217"/>
<path d="M71.4113 166.81C71.0462 166.811 70.6824 166.77 70.3265 166.689L7.60541 152.569C6.97813 152.428 6.38472 152.166 5.85914 151.796C5.33356 151.425 4.88614 150.955 4.54249 150.412C4.19885 149.869 3.96574 149.263 3.8565 148.63C3.74726 147.996 3.76404 147.348 3.90588 146.721L12.7936 107.232C12.9346 106.605 13.1978 106.012 13.5683 105.486C13.9387 104.961 14.409 104.514 14.9524 104.17C15.4958 103.826 16.1015 103.593 16.735 103.484C17.3685 103.375 18.0173 103.391 18.6444 103.533L81.3656 117.652C82.6313 117.939 83.7318 118.716 84.4258 119.813C85.1197 120.91 85.3506 122.237 85.0677 123.503L76.1774 162.989C75.9338 164.072 75.3295 165.04 74.4635 165.734C73.5975 166.429 72.5212 166.808 71.4113 166.81ZM17.5623 105.223C16.863 105.225 16.185 105.464 15.6394 105.901C15.0937 106.339 14.7129 106.949 14.5592 107.631L5.6741 147.117C5.58499 147.512 5.57458 147.92 5.64348 148.319C5.71237 148.718 5.85921 149.099 6.0756 149.442C6.29199 149.784 6.57369 150.08 6.90459 150.313C7.2355 150.546 7.60912 150.712 8.0041 150.801L70.7252 164.918C71.5226 165.096 72.3583 164.951 73.049 164.515C73.7396 164.078 74.2288 163.385 74.4092 162.588L83.2917 123.105C83.4702 122.307 83.3252 121.472 82.8884 120.781C82.4516 120.09 81.7587 119.601 80.9617 119.421L18.2458 105.301C18.0224 105.249 17.794 105.223 17.5649 105.223H17.5623Z" fill="#323544"/>
<path d="M15.1416 105.915L43.4874 142.04L84.0424 121.428" fill="#111217"/>
<path d="M43.4875 142.948C43.3499 142.948 43.2141 142.917 43.0903 142.856C42.9666 142.796 42.858 142.709 42.773 142.601L14.4272 106.475C14.3477 106.383 14.2878 106.275 14.2511 106.158C14.2144 106.041 14.2017 105.919 14.2137 105.797C14.2257 105.675 14.2622 105.557 14.321 105.45C14.3798 105.343 14.4596 105.249 14.5558 105.173C14.6519 105.098 14.7623 105.043 14.8803 105.011C14.9983 104.979 15.1216 104.972 15.2426 104.989C15.3636 105.006 15.4799 105.048 15.5844 105.111C15.689 105.174 15.7797 105.258 15.8511 105.357L43.7412 140.895L83.6335 120.621C83.8472 120.517 84.0932 120.501 84.3186 120.577C84.544 120.652 84.7306 120.813 84.8382 121.025C84.9459 121.237 84.966 121.483 84.8941 121.71C84.8223 121.936 84.6643 122.125 84.4541 122.237L43.8965 142.849C43.7697 142.914 43.6297 142.947 43.4875 142.948Z" fill="#323544"/>
<path d="M7.15234 139.819C6.95177 139.818 6.75704 139.751 6.59866 139.628C6.44029 139.505 6.32722 139.333 6.27719 139.139C6.22715 138.945 6.24297 138.739 6.32216 138.555C6.40136 138.371 6.53946 138.218 6.71482 138.121L29.7896 125.357C29.8939 125.295 30.0097 125.254 30.13 125.238C30.2504 125.221 30.3729 125.229 30.4902 125.26C30.6076 125.292 30.7173 125.347 30.813 125.422C30.9087 125.496 30.9884 125.59 31.0473 125.696C31.1061 125.802 31.143 125.919 31.1558 126.04C31.1685 126.161 31.1568 126.283 31.1213 126.399C31.0859 126.516 31.0274 126.624 30.9494 126.717C30.8714 126.81 30.7754 126.886 30.6673 126.942L7.59245 139.705C7.4579 139.78 7.30637 139.819 7.15234 139.819Z" fill="#323544"/>
<path d="M76.9774 154.977C76.8204 154.977 76.6662 154.935 76.53 154.857C76.3938 154.779 76.2803 154.667 76.2007 154.532L62.9973 132.197C62.9261 132.095 62.8767 131.98 62.8522 131.857C62.8277 131.735 62.8286 131.61 62.8549 131.488C62.8811 131.366 62.9322 131.251 63.0049 131.15C63.0775 131.049 63.1703 130.964 63.2773 130.9C63.3843 130.837 63.5032 130.796 63.6267 130.78C63.7503 130.764 63.8757 130.774 63.9951 130.809C64.1146 130.844 64.2256 130.904 64.3212 130.983C64.4168 131.063 64.4949 131.162 64.5507 131.273L77.754 153.61C77.8352 153.747 77.8786 153.904 77.8799 154.063C77.8813 154.223 77.8405 154.38 77.7617 154.519C77.6829 154.657 77.5689 154.773 77.4311 154.853C77.2934 154.934 77.1369 154.976 76.9774 154.977Z" fill="#323544"/>
<path d="M27.5944 59.1328L2.87644 68.5124C2.02892 68.834 1.60257 69.7818 1.92418 70.6293L7.82915 86.1906C8.15075 87.0381 9.09853 87.4645 9.94606 87.1429L34.664 77.7633C35.5116 77.4417 35.9379 76.4939 35.6163 75.6464L29.7113 60.0851C29.3897 59.2375 28.442 58.8112 27.5944 59.1328Z" fill="#111217"/>
<path d="M28.1739 59.0344C28.5066 59.0348 28.8313 59.1362 29.105 59.3253C29.3787 59.5144 29.5885 59.7822 29.7065 60.0933L35.6118 75.6577C35.7657 76.0645 35.7517 76.5158 35.5731 76.9124C35.3945 77.309 35.0657 77.6184 34.6591 77.7728L9.94033 87.1524C9.53313 87.3063 9.08149 87.2925 8.68449 87.1139C8.28748 86.9353 7.97753 86.6065 7.82261 86.1996L1.91994 70.6378C1.76513 70.231 1.77826 69.7793 1.95644 69.3822C2.13462 68.9851 2.46326 68.675 2.87006 68.5201L27.5914 59.1431C27.7774 59.0719 27.9748 59.0351 28.1739 59.0344ZM28.1739 57.2222C27.7554 57.2217 27.3403 57.298 26.9494 57.4474L2.22802 66.827C1.37194 67.1519 0.679945 67.8035 0.304186 68.6385C-0.0715735 69.4736 -0.100339 70.4236 0.224211 71.2799L6.14242 86.8365C6.39192 87.4884 6.83226 88.0499 7.40591 88.4476C7.97956 88.8452 8.65983 89.0606 9.35783 89.0656C9.77635 89.066 10.1914 88.9897 10.5824 88.8403L35.3037 79.4608C36.1589 79.1347 36.8498 78.4829 37.225 77.6481C37.6001 76.8133 37.6289 75.8638 37.3049 75.0079L31.4023 59.446C31.1505 58.7935 30.7077 58.2321 30.1317 57.8353C29.5557 57.4385 28.8733 57.2248 28.1739 57.2222Z" fill="#323544"/>
<path d="M2.07819 69.7809L19.9933 75.7457L29.2331 59.4771" fill="#111217"/>
<path d="M19.9932 76.6509C19.8964 76.6506 19.8003 76.6349 19.7085 76.6043L1.79073 70.6499C1.67785 70.6121 1.57352 70.5525 1.48368 70.4745C1.39384 70.3964 1.32025 70.3014 1.26713 70.1949C1.214 70.0884 1.18237 69.9725 1.17404 69.8538C1.16571 69.7351 1.18084 69.6159 1.21858 69.503C1.25632 69.3901 1.31592 69.2858 1.39398 69.1959C1.47204 69.1061 1.56703 69.0325 1.67352 68.9794C1.78002 68.9262 1.89594 68.8946 2.01466 68.8863C2.13339 68.878 2.25259 68.8931 2.36546 68.9308L19.5738 74.6601L28.446 59.0335C28.5648 58.8244 28.7617 58.6711 28.9936 58.6073C29.1084 58.5756 29.2283 58.5669 29.3464 58.5817C29.4646 58.5964 29.5786 58.6342 29.6822 58.6931C29.7857 58.7519 29.8766 58.8305 29.9498 58.9245C30.0229 59.0184 30.0768 59.1259 30.1084 59.2406C30.14 59.3554 30.1487 59.4753 30.134 59.5935C30.1193 59.7116 30.0814 59.8257 30.0226 59.9293L20.7828 76.1979C20.7029 76.3363 20.5877 76.4512 20.4491 76.5307C20.3104 76.6103 20.1531 76.6518 19.9932 76.6509Z" fill="#323544"/>
<path d="M6.8183 83.817C6.66256 83.8168 6.50947 83.7766 6.37381 83.7001C6.23816 83.6236 6.12451 83.5134 6.04385 83.3801C5.96318 83.2469 5.91822 83.0951 5.91329 82.9395C5.90837 82.7838 5.94366 82.6295 6.01575 82.4914L11.0382 72.8789C11.0933 72.7733 11.1686 72.6796 11.2599 72.6032C11.3512 72.5267 11.4566 72.469 11.5702 72.4333C11.6838 72.3976 11.8033 72.3846 11.9219 72.3951C12.0405 72.4056 12.1559 72.4394 12.2615 72.4944C12.367 72.5495 12.4607 72.6248 12.5371 72.7161C12.6136 72.8074 12.6713 72.9128 12.707 73.0264C12.7427 73.14 12.7557 73.2595 12.7452 73.3781C12.7347 73.4967 12.701 73.6121 12.6459 73.7177L7.62345 83.3302C7.54644 83.4771 7.4307 83.6001 7.28877 83.6859C7.14684 83.7717 6.98415 83.817 6.8183 83.817Z" fill="#323544"/>
<path d="M34.2114 73.1863C34.074 73.1859 33.9385 73.154 33.8153 73.0931L24.2183 68.433C24.1112 68.381 24.0154 68.3084 23.9363 68.2194C23.8573 68.1303 23.7966 68.0266 23.7576 67.9141C23.7187 67.8016 23.7023 67.6825 23.7094 67.5637C23.7164 67.4448 23.7469 67.3285 23.7989 67.2214C23.8509 67.1144 23.9235 67.0186 24.0125 66.9395C24.1016 66.8605 24.2053 66.7998 24.3178 66.7608C24.4303 66.7219 24.5494 66.7055 24.6682 66.7125C24.7871 66.7196 24.9034 66.75 25.0105 66.802L34.6204 71.4621C34.8051 71.5515 34.954 71.701 35.0426 71.886C35.1313 72.0711 35.1545 72.2807 35.1085 72.4807C35.0625 72.6807 34.95 72.8591 34.7894 72.9868C34.6287 73.1145 34.4295 73.1839 34.2243 73.1837L34.2114 73.1863Z" fill="#323544"/>
<path d="M145.319 160.374L86.3388 192.36C84.7987 193.195 82.9898 193.385 81.3099 192.887C79.6301 192.389 78.2169 191.244 77.3812 189.703L55.1167 148.672C54.5781 147.679 54.3029 146.565 54.3174 145.436C54.3319 144.306 54.6356 143.199 55.1996 142.221L74.0493 109.549C74.6424 108.522 75.5011 107.673 76.5351 107.093C77.5691 106.512 78.7404 106.22 79.9261 106.248L120.126 107.058C121.293 107.082 122.432 107.414 123.429 108.021C124.425 108.628 125.243 109.489 125.799 110.514L147.986 151.419C148.819 152.96 149.006 154.769 148.506 156.448C148.006 158.128 146.86 159.54 145.319 160.374Z" fill="#111217"/>
<path d="M83.1982 194.075C82.4713 194.073 81.7485 193.967 81.052 193.759C80.1047 193.48 79.2222 193.017 78.4555 192.395C77.6889 191.772 77.0535 191.004 76.5862 190.134L54.3217 149.103C53.7143 147.972 53.4045 146.706 53.4212 145.422C53.438 144.139 53.7808 142.881 54.4175 141.766L73.2672 109.094C73.9396 107.93 74.9122 106.968 76.0835 106.308C77.2548 105.648 78.5818 105.315 79.9258 105.343L120.134 106.151C121.46 106.179 122.756 106.557 123.888 107.248C125.021 107.938 125.952 108.915 126.585 110.081L148.772 150.985C149.72 152.737 149.933 154.793 149.366 156.703C148.799 158.612 147.498 160.219 145.748 161.17L86.7709 193.161C85.6751 193.759 84.4468 194.073 83.1982 194.075ZM79.7809 107.153C78.7803 107.152 77.7972 107.415 76.9305 107.915C76.0638 108.414 75.3441 109.134 74.8438 110L55.9967 142.672C55.5128 143.517 55.252 144.472 55.2388 145.446C55.2257 146.419 55.4607 147.38 55.9216 148.238L78.1861 189.27C78.5425 189.928 79.0252 190.51 79.6066 190.982C80.188 191.453 80.8567 191.806 81.5744 192.019C82.2922 192.232 83.0449 192.301 83.7895 192.223C84.5342 192.145 85.2561 191.921 85.914 191.563L144.886 159.578C145.545 159.221 146.126 158.738 146.598 158.157C147.069 157.575 147.421 156.906 147.634 156.189C147.847 155.471 147.916 154.718 147.838 153.974C147.759 153.229 147.535 152.508 147.178 151.85L124.993 110.945C124.513 110.061 123.807 109.319 122.947 108.795C122.087 108.271 121.104 107.984 120.098 107.963L79.8974 107.153H79.7809Z" fill="#1D1D1B"/>
<path d="M98.9777 81.0812L45.1667 110.274C43.8747 110.975 43.3956 112.59 44.0965 113.882L77.8482 176.097C78.5491 177.389 80.1647 177.868 81.4566 177.167L135.268 147.975C136.56 147.274 137.039 145.658 136.338 144.366L102.586 82.1514C101.885 80.8595 100.27 80.3803 98.9777 81.0812Z" fill="#111217"/>
<path d="M100.241 80.7793C100.719 80.7813 101.187 80.9119 101.597 81.1574C102.007 81.403 102.344 81.7544 102.571 82.1747L136.33 144.383C136.666 145.004 136.742 145.733 136.541 146.409C136.34 147.086 135.879 147.655 135.258 147.992L81.4481 177.179C81.1408 177.347 80.8035 177.451 80.4557 177.488C80.1078 177.525 79.7561 177.493 79.4206 177.393C79.0852 177.294 78.7727 177.13 78.5008 176.909C78.229 176.689 78.0033 176.418 77.8366 176.11L44.0929 113.894C43.7586 113.274 43.6833 112.547 43.8837 111.872C44.0841 111.197 44.5438 110.629 45.1621 110.293L98.9749 81.0978C99.3628 80.8849 99.7983 80.7736 100.241 80.7741V80.7793ZM100.241 78.9619C99.4965 78.9633 98.7642 79.1501 98.1102 79.5056L44.2974 108.693C43.2549 109.259 42.4798 110.216 42.1425 111.353C41.8051 112.491 41.933 113.715 42.4982 114.759L76.2444 176.972C76.5234 177.49 76.9017 177.947 77.3576 178.318C77.8136 178.69 78.3382 178.967 78.9016 179.136C79.465 179.304 80.056 179.36 80.6408 179.299C81.2257 179.239 81.793 179.064 82.3102 178.784L136.123 149.587C137.164 149.018 137.937 148.061 138.273 146.923C138.609 145.786 138.481 144.562 137.917 143.519L104.176 81.2971C103.791 80.5905 103.221 80.001 102.529 79.5909C101.836 79.1808 101.046 78.9653 100.241 78.9671V78.9619Z" fill="#323544"/>
<path d="M98.9753 81.0989L52.5098 106.302L59.0571 141.487L64.253 151.066C64.7019 151.113 65.1553 151.096 65.5992 151.015L120.888 140.724C122.11 140.496 123.191 139.793 123.895 138.768C124.598 137.743 124.866 136.481 124.639 135.259L121.118 116.339L102.584 82.1656C102.417 81.8583 102.192 81.587 101.92 81.3671C101.648 81.1472 101.336 80.983 101.001 80.8839C100.666 80.7849 100.314 80.7529 99.9667 80.7898C99.6191 80.8266 99.2822 80.9317 98.9753 81.0989Z" fill="#111217"/>
<path d="M54.4092 67.3856L110.791 56.8952C112.013 56.6677 113.276 56.9352 114.301 57.6388C115.326 58.3424 116.03 59.4244 116.258 60.6469L129.034 129.312C129.261 130.534 128.994 131.797 128.29 132.822C127.586 133.847 126.504 134.551 125.282 134.779L69.9922 145.066C68.7697 145.293 67.5069 145.026 66.4817 144.322C65.4564 143.619 64.7526 142.537 64.5252 141.314L51.5466 71.5601C51.4603 71.098 51.4659 70.6234 51.5631 70.1635C51.6602 69.7036 51.8471 69.2673 52.1129 68.8797C52.3787 68.492 52.7184 68.1605 53.1124 67.9041C53.5064 67.6478 53.947 67.4716 54.4092 67.3856Z" fill="#111217"/>
<path d="M111.658 56.8093C112.751 56.8113 113.81 57.1953 114.65 57.8949C115.491 58.5945 116.061 59.5658 116.261 60.6409L129.04 129.303C129.267 130.526 128.999 131.788 128.295 132.813C127.592 133.838 126.51 134.541 125.288 134.769L70 145.059C69.3948 145.173 68.7731 145.166 68.1706 145.039C67.5681 144.911 66.9967 144.666 66.489 144.318C65.9813 143.969 65.5473 143.524 65.212 143.008C64.8767 142.491 64.6466 141.914 64.5348 141.308L51.5515 71.5556C51.4654 71.0936 51.4712 70.6191 51.5684 70.1593C51.6657 69.6995 51.8527 69.2633 52.1186 68.8758C52.3845 68.4882 52.7241 68.1568 53.1181 67.9006C53.5121 67.6443 53.9528 67.4682 54.4149 67.3823L110.793 56.8896C111.078 56.8374 111.368 56.8105 111.658 56.8093ZM111.658 54.9971C111.257 54.9981 110.856 55.0353 110.462 55.1084L54.0809 65.6012C52.6765 65.8645 51.4339 66.6743 50.6258 67.8527C49.8177 69.0312 49.51 70.482 49.7704 71.887L62.7511 141.64C63.0284 143.131 63.8183 144.478 64.9842 145.448C66.1501 146.418 67.6186 146.95 69.1353 146.952C69.5365 146.951 69.9369 146.914 70.3314 146.841L125.62 136.55C126.459 136.394 127.259 136.075 127.975 135.609C128.691 135.144 129.308 134.543 129.791 133.839C130.274 133.135 130.614 132.343 130.79 131.508C130.967 130.673 130.977 129.811 130.821 128.972L118.042 60.3095C117.765 58.8181 116.975 57.4705 115.809 56.5002C114.643 55.53 113.175 54.9982 111.658 54.9971Z" fill="#323544"/>
<path d="M109.481 66.303L61.0323 74.837C59.5383 75.1001 58.5405 76.5246 58.8037 78.0186L58.9002 78.5668C59.1634 80.0608 60.5879 81.0586 62.0819 80.7955L110.53 72.2615C112.024 71.9983 113.022 70.5738 112.759 69.0798L112.662 68.5316C112.399 67.0376 110.975 66.0398 109.481 66.303Z" fill="#111217"/>
<path d="M111.257 76.3855L62.8084 84.9195C61.3144 85.1827 60.3166 86.6071 60.5797 88.1012L60.6763 88.6493C60.9395 90.1434 62.364 91.1412 63.858 90.878L112.306 82.344C113.8 82.0808 114.798 80.6563 114.535 79.1623L114.438 78.6141C114.175 77.1201 112.751 76.1223 111.257 76.3855Z" fill="#111217"/>
<path d="M113.033 86.468L64.5851 95.002C63.0911 95.2652 62.0933 96.6897 62.3564 98.1837L62.453 98.7319C62.7161 100.226 64.1406 101.224 65.6347 100.961L114.083 92.4265C115.577 92.1633 116.575 90.7388 116.312 89.2448L116.215 88.6967C115.952 87.2026 114.527 86.2048 113.033 86.468Z" fill="#111217"/>
<path d="M114.81 96.5529L66.3618 105.087C64.8678 105.35 63.87 106.775 64.1331 108.269L64.2297 108.817C64.4929 110.311 65.9173 111.309 67.4114 111.045L115.86 102.511C117.354 102.248 118.351 100.824 118.088 99.3298L117.992 98.7816C117.729 97.2876 116.304 96.2898 114.81 96.5529Z" fill="#111217"/>
<path d="M116.584 106.635L68.136 115.169C66.6419 115.433 65.6441 116.857 65.9073 118.351L66.0039 118.899C66.267 120.393 67.6915 121.391 69.1855 121.128L117.634 112.594C119.128 112.331 120.126 110.906 119.862 109.412L119.766 108.864C119.503 107.37 118.078 106.372 116.584 106.635Z" fill="#111217"/>
<path d="M118.361 116.718L69.9127 125.252C68.4187 125.516 67.4209 126.94 67.684 128.434L67.7806 128.982C68.0438 130.476 69.4682 131.474 70.9623 131.211L119.411 122.677C120.905 122.414 121.902 120.989 121.639 119.495L121.543 118.947C121.279 117.453 119.855 116.455 118.361 116.718Z" fill="#111217"/>
<path d="M61.2858 160.049L102.325 151.493L131.888 121.759L149.722 154.638C149.907 154.978 150.022 155.351 150.062 155.736C150.101 156.121 150.065 156.509 149.954 156.88C149.844 157.251 149.661 157.596 149.417 157.896C149.173 158.195 148.872 158.444 148.532 158.628L83.1179 194.111C82.7783 194.296 82.4057 194.411 82.0214 194.452C81.637 194.492 81.2485 194.456 80.878 194.346C80.5075 194.236 80.1623 194.055 79.8621 193.811C79.5619 193.568 79.3126 193.268 79.1285 192.928L61.2858 160.049Z" fill="#111217"/>
<path d="M131.888 121.759L149.723 154.638C149.907 154.978 150.022 155.351 150.062 155.736C150.102 156.12 150.065 156.509 149.955 156.88C149.844 157.25 149.661 157.595 149.417 157.895C149.173 158.195 148.872 158.444 148.532 158.627L83.1182 194.111C82.7787 194.296 82.4061 194.412 82.0216 194.452C81.6372 194.493 81.2486 194.457 80.878 194.347C80.5074 194.237 80.1621 194.055 79.8619 193.812C79.5618 193.568 79.3126 193.268 79.1287 192.928L61.2861 160.049L102.325 151.492L131.888 121.759ZM131.888 119.947C131.647 119.946 131.409 119.993 131.187 120.085C130.964 120.177 130.763 120.312 130.593 120.483L101.435 149.83L60.9262 158.275C60.6495 158.333 60.3901 158.454 60.1687 158.63C59.9473 158.805 59.77 159.03 59.6511 159.287C59.5321 159.543 59.4747 159.824 59.4835 160.106C59.4923 160.389 59.567 160.665 59.7017 160.913L77.5366 193.792C78.1374 194.901 79.1538 195.725 80.3622 196.083C81.5707 196.442 82.8721 196.306 83.9803 195.706L149.404 160.22C150.509 159.618 151.33 158.603 151.688 157.397C152.046 156.192 151.912 154.893 151.315 153.786L133.483 120.907C133.348 120.658 133.157 120.445 132.925 120.283C132.693 120.121 132.427 120.016 132.147 119.975C132.061 119.964 131.974 119.958 131.888 119.957V119.947Z" fill="#323544"/>
<path d="M80.6818 186.973L65.5938 159.153L61.2859 160.049L79.1182 192.928C79.3023 193.268 79.5516 193.568 79.8518 193.811C80.152 194.055 80.4972 194.236 80.8677 194.346C81.2382 194.456 81.6267 194.492 82.0111 194.451C82.3954 194.411 82.768 194.295 83.1076 194.111L148.532 158.628C148.871 158.443 149.171 158.194 149.415 157.894C149.658 157.594 149.84 157.249 149.95 156.878C150.06 156.508 150.096 156.119 150.055 155.735C150.015 155.35 149.899 154.978 149.715 154.638L148.982 153.269L84.6713 188.156C84.3317 188.341 83.9591 188.457 83.5748 188.497C83.1904 188.537 82.8019 188.502 82.4314 188.392C82.0609 188.282 81.7157 188.1 81.4155 187.857C81.1153 187.613 80.866 187.313 80.6818 186.973Z" fill="#111217"/>
<path d="M80.0604 175.322L95.0449 144.695C95.6005 143.562 96.5141 142.644 97.6443 142.082C98.7745 141.52 100.058 141.347 101.297 141.589L131.429 147.463" fill="#111217"/>
<path d="M80.0604 176.23C79.9222 176.23 79.7859 176.198 79.6617 176.137C79.4463 176.031 79.2816 175.844 79.204 175.617C79.1263 175.39 79.142 175.141 79.2475 174.926L94.232 144.296C94.8765 142.983 95.9359 141.918 97.2462 141.267C98.5565 140.616 100.045 140.415 101.481 140.695L131.613 146.572C131.731 146.594 131.844 146.638 131.944 146.704C132.045 146.769 132.131 146.854 132.199 146.953C132.267 147.052 132.314 147.163 132.338 147.281C132.362 147.398 132.363 147.519 132.34 147.637C132.317 147.755 132.271 147.867 132.204 147.966C132.138 148.066 132.052 148.152 131.952 148.218C131.852 148.284 131.74 148.33 131.622 148.353C131.505 148.376 131.384 148.375 131.266 148.351L101.124 142.474C100.08 142.272 98.9992 142.42 98.0476 142.893C97.096 143.367 96.3265 144.14 95.8578 145.094L80.8759 175.72C80.8011 175.873 80.685 176.002 80.5409 176.092C80.3968 176.182 80.2304 176.23 80.0604 176.23Z" fill="#323544"/>
<path d="M82.8869 101.963C95.3563 101.963 105.465 91.8542 105.465 79.3849C105.465 66.9155 95.3563 56.8071 82.8869 56.8071C70.4176 56.8071 60.3092 66.9155 60.3092 79.3849C60.3092 91.8542 70.4176 101.963 82.8869 101.963Z" fill="#111217"/>
<path d="M82.9054 102.87C76.9946 102.877 71.2983 100.656 66.9528 96.6493C62.6072 92.6426 59.9318 87.145 59.4601 81.2531C58.9884 75.3612 60.7551 69.508 64.4079 64.861C68.0607 60.214 73.331 57.1148 79.1676 56.1815C85.0042 55.2482 90.9782 56.5495 95.8979 59.8257C100.818 63.102 104.321 68.1124 105.71 73.8576C107.1 79.6029 106.272 85.6606 103.392 90.8226C100.513 95.9845 95.7933 99.8713 90.175 101.708C87.8278 102.474 85.3746 102.866 82.9054 102.87ZM82.9054 57.7016C77.5852 57.6859 72.4445 59.6238 68.4585 63.1475C64.4726 66.6712 61.9189 71.5356 61.282 76.8174C60.6451 82.0993 61.9693 87.4313 65.0034 91.8014C68.0374 96.1716 72.5702 99.276 77.7416 100.525C82.9129 101.775 88.363 101.082 93.0577 98.5796C97.7523 96.0767 101.365 91.9375 103.21 86.9475C105.055 81.9574 105.003 76.4638 103.066 71.5089C101.128 66.5541 97.4396 62.4829 92.6992 60.0678C89.6669 58.5227 86.3138 57.7121 82.9105 57.7016H82.9054Z" fill="#323544"/>
<path d="M82.8874 95.941C92.031 95.941 99.4434 88.5287 99.4434 79.3851C99.4434 70.2415 92.031 62.8291 82.8874 62.8291C73.7438 62.8291 66.3315 70.2415 66.3315 79.3851C66.3315 88.5287 73.7438 95.941 82.8874 95.941Z" fill="#111217"/>
<path d="M82.8691 96.8571C78.4693 96.8618 74.2294 95.2081 70.9947 92.2258C67.76 89.2434 65.7681 85.1515 65.4161 80.7659C65.0641 76.3802 66.3779 72.023 69.0955 68.563C71.8132 65.1029 75.7351 62.7941 80.0792 62.097C84.4234 61.3999 88.8707 62.3656 92.5345 64.8016C96.1984 67.2376 98.8095 70.9649 99.8475 75.2405C100.885 79.516 100.274 84.0257 98.1347 87.8704C95.9956 91.7152 92.486 94.6125 88.3057 95.9847C86.5514 96.5625 84.7161 96.857 82.8691 96.8571ZM82.9027 63.7193C81.2479 63.7203 79.6035 63.9824 78.0304 64.496C75.0881 65.4567 72.4968 67.2683 70.584 69.7017C68.6713 72.1351 67.5231 75.081 67.2846 78.1669C67.0461 81.2529 67.728 84.3403 69.2441 87.0387C70.7602 89.7371 73.0424 91.9253 75.8021 93.3267C78.5618 94.7281 81.6751 95.2797 84.7483 94.9118C87.8215 94.5439 90.7166 93.2729 93.0675 91.2596C95.4184 89.2464 97.1195 86.5812 97.9558 83.6012C98.792 80.6211 98.7258 77.46 97.7655 74.5176C96.7393 71.3826 94.7505 68.6511 92.082 66.7119C89.4135 64.7727 86.2014 63.7246 82.9027 63.7167V63.7193Z" fill="#323544"/>
<path d="M80.9997 70.4088C82.0094 71.9129 85.0513 82.3177 85.0513 82.3177C85.0513 82.3177 76.5598 75.5762 75.5475 74.0695C75.3071 73.7115 75.1397 73.3097 75.0546 72.8869C74.9695 72.4642 74.9685 72.0288 75.0517 71.6057C75.1349 71.1826 75.3006 70.7801 75.5394 70.421C75.7781 70.0619 76.0853 69.7534 76.4433 69.513C76.8013 69.2727 77.2031 69.1052 77.6258 69.0201C78.0486 68.935 78.4839 68.9341 78.907 69.0172C79.3301 69.1004 79.7327 69.2661 80.0918 69.5049C80.4508 69.7436 80.7594 70.0508 80.9997 70.4088Z" fill="#CB730B"/>
<path d="M85.0515 83.2288C84.8467 83.2284 84.6479 83.1591 84.4872 83.0321C83.6069 82.3305 75.8558 76.1534 74.7969 74.5768C74.4798 74.1204 74.2565 73.6056 74.1403 73.0621C74.024 72.5187 74.0171 71.9576 74.1198 71.4114C74.2226 70.8653 74.433 70.345 74.7388 69.881C75.0446 69.417 75.4396 69.0184 75.901 68.7086C76.3623 68.3987 76.8807 68.1838 77.4259 68.0762C77.9711 67.9687 78.5323 67.9707 79.0767 68.0822C79.6212 68.1937 80.138 68.4124 80.597 68.7256C81.0561 69.0388 81.4483 69.4402 81.7507 69.9064C82.8096 71.483 85.6056 80.9946 85.9214 82.0742C85.9747 82.2591 85.9681 82.4561 85.9025 82.637C85.8369 82.8179 85.7158 82.9734 85.5564 83.0813C85.4066 83.1797 85.2308 83.2311 85.0515 83.2288ZM78.2712 69.8624C77.7997 69.8611 77.3387 70.0019 76.9483 70.2662C76.6892 70.4403 76.467 70.6637 76.2943 70.9236C76.1215 71.1836 76.0017 71.475 75.9416 71.7813C75.8815 72.0876 75.8823 72.4027 75.944 72.7087C76.0057 73.0146 76.127 73.3054 76.3011 73.5645C76.837 74.3645 80.3113 77.3132 83.3455 79.7778C82.2012 76.0343 80.7825 71.7031 80.2388 70.9057C80.0212 70.5842 79.728 70.3209 79.385 70.139C79.0419 69.9571 78.6595 69.8621 78.2712 69.8624Z" fill="#CB730B"/>
<path d="M88.5878 89.5208C89.7917 89.5208 90.7677 88.5449 90.7677 87.341C90.7677 86.1371 89.7917 85.1611 88.5878 85.1611C87.3839 85.1611 86.408 86.1371 86.408 87.341C86.408 88.5449 87.3839 89.5208 88.5878 89.5208Z" fill="#323544"/>
<path d="M88.5828 90.4283C87.9944 90.4276 87.4184 90.2587 86.9228 89.9415C86.4273 89.6243 86.0327 89.1721 85.7856 88.6381C85.5386 88.1041 85.4493 87.5106 85.5284 86.9275C85.6075 86.3445 85.8516 85.7962 86.232 85.3473C86.6124 84.8984 87.1132 84.5676 87.6753 84.3939C88.2375 84.2202 88.8376 84.2108 89.4049 84.3669C89.9722 84.523 90.4831 84.838 90.8773 85.2748C91.2715 85.7116 91.5326 86.252 91.6299 86.8323C91.7648 87.6393 91.5739 88.4669 91.0992 89.1333C90.6245 89.7997 89.9047 90.2506 89.0979 90.3868C88.9276 90.4147 88.7553 90.4285 88.5828 90.4283ZM88.5828 86.0712C88.5124 86.0708 88.4423 86.0768 88.3731 86.0893C88.2077 86.1159 88.0495 86.1754 87.9076 86.2644C87.7657 86.3533 87.6432 86.4699 87.5472 86.6071C87.4499 86.7431 87.3803 86.8971 87.3426 87.06C87.3049 87.223 87.2997 87.3919 87.3273 87.5569C87.355 87.7219 87.415 87.8798 87.5038 88.0215C87.5926 88.1633 87.7085 88.2862 87.8449 88.383C88.0501 88.5286 88.2937 88.6101 88.5451 88.6174C88.7966 88.6246 89.0445 88.5573 89.2577 88.4238C89.4709 88.2903 89.6398 88.0968 89.7432 87.8674C89.8465 87.6381 89.8796 87.3833 89.8384 87.1352C89.7889 86.8388 89.6363 86.5695 89.4075 86.3748C89.1787 86.1801 88.8884 86.0726 88.5879 86.0712H88.5828Z" fill="#CB730B"/>
<path d="M101.274 93.5557L99.7929 95.1195C98.9542 96.0049 98.992 97.4026 99.8774 98.2414L117.676 115.102C118.561 115.941 119.959 115.903 120.798 115.018L122.279 113.454C123.118 112.568 123.08 111.171 122.195 110.332L104.396 93.4713C103.511 92.6325 102.113 92.6703 101.274 93.5557Z" fill="#323544"/>
<path d="M119.191 116.601C118.394 116.601 117.628 116.295 117.05 115.746L99.2516 98.9004C98.9541 98.6197 98.7148 98.283 98.5477 97.9097C98.3806 97.5363 98.2889 97.1336 98.2779 96.7246C98.2668 96.3157 98.3366 95.9086 98.4833 95.5267C98.6299 95.1449 98.8506 94.7957 99.1325 94.4993L100.613 92.946C100.894 92.6482 101.23 92.4088 101.604 92.2415C101.977 92.0742 102.38 91.9822 102.789 91.9709C103.198 91.9596 103.605 92.0292 103.987 92.1756C104.369 92.3221 104.718 92.5425 105.014 92.8243L122.813 109.683C123.411 110.252 123.759 111.034 123.782 111.859C123.804 112.684 123.498 113.484 122.932 114.084L121.451 115.638C121.171 115.936 120.834 116.175 120.46 116.341C120.086 116.508 119.683 116.599 119.274 116.608L119.191 116.601ZM102.881 93.7615H102.845C102.674 93.7656 102.505 93.8036 102.349 93.8734C102.192 93.9432 102.051 94.0433 101.934 94.1679L100.453 95.7213C100.334 95.8449 100.241 95.9908 100.18 96.1505C100.118 96.3103 100.088 96.4807 100.093 96.6519C100.098 96.8231 100.136 96.9917 100.206 97.1479C100.277 97.3042 100.377 97.4449 100.502 97.562L118.296 114.434C118.419 114.553 118.565 114.646 118.725 114.708C118.885 114.77 119.056 114.799 119.227 114.795C119.399 114.79 119.568 114.752 119.724 114.681C119.881 114.611 120.022 114.51 120.139 114.385L121.617 112.831C121.736 112.708 121.828 112.562 121.89 112.402C121.952 112.242 121.981 112.072 121.977 111.901C121.972 111.729 121.934 111.561 121.864 111.405C121.793 111.248 121.693 111.108 121.568 110.991L103.769 94.1188C103.528 93.8894 103.209 93.7614 102.876 93.7615H102.881Z" fill="#CB730B"/>
<path d="M114.839 94.3999C112.597 92.4116 108.835 90.7159 105.778 91.213C102.671 91.7178 100.054 94.0608 97.8456 96.1034C96.4035 97.4315 95.0573 98.99 94.5758 100.89C94.0943 102.791 94.7156 105.084 96.4346 106.027C97.6928 106.715 99.3212 106.609 100.44 107.502C101.33 108.217 101.675 109.39 102.156 110.423C102.873 111.958 104.1 113.376 105.747 113.765C106.747 113.966 107.784 113.87 108.729 113.488C111.093 112.615 112.871 110.656 114.528 108.763C115.823 107.306 117.117 105.799 117.762 103.963C118.922 100.621 117.485 96.7455 114.839 94.3999Z" fill="#006C8F"/>
<path d="M106.902 91.135C109.713 91.135 112.856 92.6598 114.839 94.4099C117.485 96.7555 118.922 100.623 117.765 103.973C117.13 105.809 115.815 107.316 114.531 108.773C112.864 110.666 111.096 112.625 108.732 113.498C108.091 113.745 107.41 113.876 106.723 113.886C106.395 113.887 106.069 113.849 105.75 113.775C104.103 113.387 102.876 111.963 102.159 110.433C101.677 109.397 101.333 108.227 100.442 107.512C99.3241 106.619 97.6957 106.736 96.4375 106.037C94.7184 105.094 94.1074 102.801 94.5786 100.9C95.0498 99 96.4064 97.4415 97.8484 96.1134C100.057 94.0785 102.677 91.7278 105.781 91.223C106.151 91.1634 106.526 91.134 106.902 91.135ZM106.902 89.3228C106.428 89.3225 105.956 89.3597 105.488 89.4341C101.768 90.0373 98.7933 92.7789 96.6213 94.7801C95.2983 95.9969 93.4654 97.9101 92.8208 100.455C92.1943 102.93 92.9373 106.187 95.5676 107.626C96.2786 107.986 97.0355 108.248 97.8173 108.403C98.4257 108.548 99.0005 108.683 99.3085 108.921C99.658 109.2 99.9221 109.819 100.202 110.474C100.3 110.707 100.404 110.948 100.518 111.191C101.584 113.477 103.339 115.059 105.33 115.53C105.787 115.638 106.254 115.692 106.723 115.691C107.625 115.681 108.518 115.512 109.361 115.191C112.209 114.137 114.252 111.825 115.89 109.964C117.216 108.462 118.717 106.759 119.479 104.558C120.161 102.51 120.151 100.294 119.45 98.2518C118.791 96.2476 117.616 94.4522 116.043 93.0456C114.099 91.3214 110.544 89.3228 106.902 89.3228Z" fill="#323544"/>
</svg>
