<svg width="200" height="201" viewBox="0 0 200 201" fill="none" xmlns="http://www.w3.org/2000/svg">
<rect width="200" height="200" transform="translate(0 0.640625)" fill="white"/>
<path d="M89.576 92.9185C84.054 94.8465 77.9379 92.6925 72.8619 89.7825C67.7859 86.8725 63.0499 83.1465 57.4159 81.5825C53.9599 80.6185 49.816 80.6925 47.304 83.2545C44.466 86.1505 44.894 90.8545 45.904 94.7845C48.29 103.968 53.056 112.784 60.576 118.584C68.096 124.384 78.5999 126.67 87.3999 123.104C96.1999 119.538 102.318 109.505 100.1 100.269C99.5 97.8105 98.3139 95.4005 96.2819 93.8945C94.25 92.3885 91.2819 91.9985 89.1859 93.4125L89.576 92.9185Z" fill="#C5E6F1"/>
<path d="M53.4239 81.0067C54.7768 81.0158 56.1223 81.2075 57.4239 81.5767C63.0579 83.1467 67.7939 86.8727 72.8699 89.7767C76.6019 91.9167 80.8959 93.6487 85.1039 93.6487C86.628 93.6577 88.1427 93.4089 89.5839 92.9127L89.1939 93.4067C90.0865 92.8227 91.1333 92.5191 92.1999 92.5347C93.6686 92.5465 95.0961 93.0225 96.2779 93.8947C98.3099 95.4007 99.5039 97.8107 100.096 100.269C102.318 109.497 96.1999 119.539 87.3999 123.105C84.5546 124.242 81.516 124.818 78.4519 124.801C72.0999 124.801 65.6619 122.477 60.5839 118.569C53.0639 112.783 48.2979 103.969 45.9119 94.7787C44.8939 90.8527 44.4659 86.1447 47.3119 83.2487C48.8959 81.6327 51.1299 81.0067 53.4319 81.0067H53.4239ZM53.4239 79.6067C50.4719 79.6067 48.0119 80.5267 46.3039 82.2687C43.6359 84.9907 43.0479 89.3167 44.5579 95.1307C45.7633 99.8821 47.6359 104.439 50.1199 108.665C52.7639 113.101 55.9979 116.807 59.7199 119.679C65.1059 123.825 71.9299 126.201 78.4419 126.201C81.6866 126.22 84.9042 125.608 87.9159 124.401C92.5379 122.527 96.5039 119.011 99.0839 114.503C101.75 109.849 102.59 104.677 101.45 99.9407C100.922 97.7407 99.7399 94.7207 97.1059 92.7667C95.6856 91.7151 93.9671 91.1434 92.1999 91.1347C91.3862 91.1302 90.5778 91.2655 89.8099 91.5347C89.7558 91.5245 89.7009 91.5185 89.6459 91.5167H89.5719C89.5239 91.5137 89.4758 91.5137 89.4279 91.5167C89.3097 91.5288 89.1934 91.5557 89.0819 91.5967C87.7974 92.034 86.4487 92.253 85.0919 92.2447C81.7039 92.2447 77.8219 91.0027 73.5539 88.5587C72.1839 87.7727 70.8059 86.9047 69.4719 86.0667C65.8339 83.7787 62.0719 81.4107 57.7879 80.2167C56.3661 79.8161 54.897 79.6075 53.4199 79.5967L53.4239 79.6067Z" fill="#4C3133"/>
<path d="M65.0159 91.0204L62.134 83.4204C60.6222 82.6601 59.0426 82.0427 57.4159 81.5764C55.2699 80.9764 52.8599 80.7764 50.7399 81.3284L49.0359 81.9744C48.3947 82.3045 47.8101 82.7346 47.304 83.2484C44.466 86.1444 44.894 90.8484 45.904 94.7784C46.284 96.2384 46.724 97.6904 47.226 99.1224L64.2739 92.6544C64.4302 92.5962 64.5734 92.5076 64.6953 92.3939C64.8173 92.2801 64.9155 92.1434 64.9845 91.9916C65.0534 91.8398 65.0917 91.6758 65.0971 91.5091C65.1025 91.3425 65.0749 91.1764 65.0159 91.0204Z" fill="#81C4D4"/>
<path d="M89.9398 129.87C98.1998 118.696 104.128 107.142 110.92 94.9204C113.466 90.3404 117.92 88.5444 120.976 84.3304C124.052 80.0764 125.814 74.7184 125.638 69.3464C125.486 64.6864 123.25 57.7864 125.46 53.7464C127.828 49.4204 134.392 49.3704 138.88 50.9364C149.742 54.7244 157.038 64.4284 160.458 75.1604C163.878 85.8924 163.036 99.9604 157.858 109.86C152.68 119.76 145.712 124.714 136.328 130.16C129.328 134.224 120.692 135.106 112.728 135.692C104.764 136.278 96.5278 134.454 89.8718 129.78L89.9398 129.87Z" fill="#C5E6F1"/>
<path d="M133.346 50.0025C135.23 50.0101 137.099 50.3277 138.88 50.9425C149.742 54.7305 157.038 64.4345 160.458 75.1665C163.878 85.8985 163.036 99.9665 157.858 109.867C152.68 119.767 145.712 124.715 136.328 130.161C129.328 134.225 120.692 135.107 112.728 135.693C111.77 135.763 110.81 135.799 109.848 135.799C102.848 135.799 95.7978 133.913 89.9618 129.843C98.2118 118.677 104.134 107.133 110.92 94.9205C113.466 90.3405 117.92 88.5445 120.976 84.3305C124.052 80.0765 125.814 74.7185 125.638 69.3465C125.486 64.6865 123.25 57.7865 125.46 53.7465C126.95 51.0265 130.098 49.9965 133.346 49.9965V50.0025ZM89.8718 129.781L89.9618 129.843L89.9398 129.871L89.8718 129.781ZM133.346 48.6025C129.05 48.6025 125.812 50.1925 124.232 53.0805C122.468 56.3005 123.134 60.8325 123.722 64.8285C123.964 66.4885 124.196 68.0565 124.238 69.3925C124.367 74.4549 122.821 79.4182 119.838 83.5105C118.564 85.2725 117.022 86.5785 115.39 87.9625C113.338 89.7025 111.216 91.5025 109.694 94.2405C108.58 96.2405 107.478 98.2525 106.41 100.195C100.976 110.095 95.8358 119.455 89.1478 128.579C89.0458 128.641 88.9517 128.715 88.8678 128.801C88.6353 129.038 88.495 129.351 88.4719 129.682C88.4488 130.014 88.5445 130.343 88.7418 130.611L88.8098 130.703C88.9651 130.914 89.1773 131.077 89.4218 131.173C95.1958 135.117 102.25 137.199 109.844 137.199C110.832 137.199 111.844 137.161 112.826 137.089C121.142 136.489 129.86 135.535 137.026 131.373C141.266 128.911 145.724 126.159 149.59 122.735C153.544 119.235 156.562 115.351 159.09 110.517C164.328 100.497 165.412 86.1165 161.786 74.7425C157.846 62.3785 149.662 53.2205 139.336 49.6205C137.405 48.9558 135.378 48.6119 133.336 48.6025H133.346Z" fill="#4C3133"/>
<path d="M89.9398 129.87L89.9618 129.84L89.8718 129.78L89.9398 129.87Z" fill="#C5E6F1"/>
<path d="M89.8718 129.78L89.9618 129.84L89.9398 129.87L89.8718 129.78ZM89.8718 128.38C89.6128 128.38 89.3588 128.452 89.1382 128.588C88.9175 128.723 88.7388 128.917 88.6219 129.148C88.505 129.38 88.4545 129.639 88.476 129.897C88.4975 130.155 88.5902 130.402 88.7438 130.61L88.8098 130.702C88.9399 130.879 89.1096 131.022 89.3052 131.12C89.5007 131.219 89.7167 131.27 89.9358 131.27C90.1546 131.271 90.3705 131.22 90.566 131.121C90.7616 131.023 90.9314 130.88 91.0618 130.704L91.0778 130.68C91.1904 130.53 91.2717 130.358 91.3166 130.176C91.3616 129.994 91.3694 129.804 91.3395 129.618C91.3097 129.433 91.2428 129.255 91.1428 129.096C91.0429 128.937 90.9119 128.8 90.7578 128.692L90.6998 128.652L90.6738 128.634C90.4393 128.47 90.1601 128.381 89.8738 128.38H89.8718Z" fill="#4C3133"/>
<path d="M160.458 75.1665C158.08 67.7045 153.826 60.7405 147.8 55.9165C150.246 59.5014 152.151 63.4268 153.454 67.5665C156.874 78.3005 156.032 92.3665 150.854 102.267C145.676 112.167 138.712 117.114 129.328 122.561C122.328 126.624 113.692 127.507 105.728 128.093C101.181 128.441 96.6089 127.961 92.2337 126.677C91.495 127.735 90.7377 128.79 89.9617 129.841C96.5997 134.471 104.8 136.275 112.728 135.693C120.692 135.107 129.328 134.225 136.328 130.16C145.712 124.715 152.676 119.777 157.856 109.867C163.036 99.9565 163.878 85.9005 160.458 75.1665Z" fill="#81C4D4"/>
<path d="M82.9398 122.27L82.9618 122.24L82.8718 122.18L82.9398 122.27Z" fill="#C5E6F1"/>
<path d="M82.8718 122.18L82.9618 122.24L82.9398 122.27L82.8718 122.18ZM82.8718 120.78C82.6128 120.78 82.3588 120.852 82.1382 120.988C81.9175 121.123 81.7388 121.317 81.6219 121.548C81.505 121.779 81.4545 122.038 81.476 122.297C81.4975 122.555 81.5902 122.802 81.7438 123.01L81.8098 123.102C81.9399 123.278 82.1096 123.422 82.3052 123.52C82.5007 123.619 82.7167 123.67 82.9358 123.67C83.1546 123.671 83.3705 123.619 83.566 123.521C83.7616 123.423 83.9314 123.28 84.0618 123.104L84.0778 123.08C84.1904 122.93 84.2717 122.758 84.3166 122.576C84.3616 122.394 84.3694 122.204 84.3395 122.018C84.3097 121.833 84.2428 121.655 84.1428 121.496C84.0429 121.337 83.9119 121.2 83.7578 121.092L83.6998 121.052L83.6738 121.034C83.4393 120.87 83.1601 120.781 82.8738 120.78H82.8718Z" fill="#4C3133"/>
<path d="M148.084 61.8764C146.022 60.1244 142.99 60.7264 140.516 61.7124C138.042 62.6984 135.45 64.0124 132.87 63.3904C131.67 63.1024 130.582 62.4104 129.368 62.2184C128.621 62.1114 127.859 62.1923 127.151 62.4538C126.443 62.7154 125.812 63.1494 125.314 63.7164C125.27 63.7664 125.228 63.8184 125.186 63.8724C125.336 65.7004 125.586 67.5504 125.638 69.3464C125.712 71.8154 125.398 74.2807 124.708 76.6524C131.368 74.9724 139.084 76.5324 145.16 72.9804C147.04 71.8804 148.728 70.2364 149.458 68.0984C150.188 65.9604 149.76 63.3004 148.084 61.8764Z" fill="#81C4D4"/>
<path d="M126.8 45.1826C130.584 36.0826 140.288 29.7826 150.14 30.0486C151.56 30.0846 153.196 30.3806 153.89 31.6186C154.672 33.0186 153.78 34.7886 152.582 35.8446C151.384 36.9006 149.866 37.6006 148.864 38.8446C152.683 38.5639 156.52 38.6194 160.33 39.0106C161.502 39.1306 162.698 39.2906 163.75 39.8226C164.802 40.3546 165.7 41.3246 165.838 42.4966C165.976 43.6686 165.344 44.7926 164.438 45.5266C163.532 46.2606 162.404 46.6386 161.274 46.8966C156.944 47.8681 152.41 47.2766 148.474 45.2266C145.798 43.8266 143.406 41.7426 140.462 41.0626C138.144 40.5286 135.692 40.9286 133.462 41.7726C131.232 42.6166 129.21 43.8886 127.196 45.1506" fill="#C5E6F1"/>
<path d="M157.212 48.0405C154.062 48.0464 150.957 47.2917 148.162 45.8405C147.26 45.3665 146.388 44.8185 145.544 44.2865C143.814 43.1965 142.182 42.1685 140.318 41.7385C138.368 41.2885 136.09 41.5245 133.732 42.4205C131.566 43.2445 129.542 44.5125 127.588 45.7385C127.432 45.8354 127.244 45.8677 127.064 45.8285C126.936 45.8786 126.796 45.89 126.662 45.8612C126.528 45.8325 126.405 45.7649 126.309 45.6668C126.212 45.5687 126.147 45.4445 126.121 45.3097C126.095 45.1749 126.109 45.0353 126.162 44.9085C128.046 40.3765 131.476 36.3305 135.822 33.5085C140.168 30.6865 145.262 29.2085 150.166 29.3385C152.366 29.3965 153.822 30.0445 154.51 31.2665C155.494 33.0185 154.444 35.1345 153.052 36.3585C152.556 36.7795 152.035 37.1715 151.494 37.5325C151.258 37.6965 151.026 37.8585 150.802 38.0205C154.005 37.8822 157.213 37.9771 160.402 38.3045C161.62 38.4285 162.904 38.6005 164.068 39.1865C165.468 39.8885 166.382 41.0905 166.536 42.4045C166.69 43.7185 166.058 45.1065 164.89 46.0585C163.798 46.9485 162.47 47.3325 161.436 47.5685C160.05 47.8835 158.633 48.0418 157.212 48.0405ZM138.29 40.1145C139.078 40.1116 139.863 40.1982 140.632 40.3725C142.728 40.8565 144.538 41.9965 146.29 43.1005C147.11 43.6165 147.96 44.1505 148.814 44.6005C152.605 46.5633 156.965 47.1297 161.132 46.2005C162.446 45.9005 163.332 45.5205 164.01 44.9705C164.81 44.3165 165.25 43.3945 165.152 42.5705C165.034 41.5705 164.192 40.8165 163.442 40.4385C162.492 39.9585 161.352 39.8105 160.266 39.6985C156.497 39.3129 152.702 39.258 148.924 39.5345C148.787 39.5459 148.651 39.517 148.53 39.4513C148.41 39.3856 148.312 39.286 148.248 39.1649C148.184 39.0438 148.157 38.9066 148.171 38.7703C148.184 38.634 148.237 38.5047 148.324 38.3985C148.998 37.5605 149.86 36.9625 150.692 36.3845C151.189 36.054 151.666 35.6954 152.122 35.3105C153.136 34.4185 153.86 32.9805 153.284 31.9545C152.856 31.1925 151.794 30.7845 150.126 30.7405C141.296 30.5085 132.43 35.8405 128.3 43.6425C129.861 42.6466 131.511 41.7989 133.23 41.1105C134.843 40.4773 136.557 40.1425 138.29 40.1225V40.1145Z" fill="#4C3133"/>
<path d="M128.528 69.1405C129.291 69.1405 129.91 68.5217 129.91 67.7585C129.91 66.9952 129.291 66.3765 128.528 66.3765C127.765 66.3765 127.146 66.9952 127.146 67.7585C127.146 68.5217 127.765 69.1405 128.528 69.1405Z" fill="#4C3133"/>
<path d="M139.384 67.7586C140.147 67.7586 140.766 67.1399 140.766 66.3766C140.766 65.6134 140.147 64.9946 139.384 64.9946C138.621 64.9946 138.002 65.6134 138.002 66.3766C138.002 67.1399 138.621 67.7586 139.384 67.7586Z" fill="#4C3133"/>
<path d="M122.844 61.4086C122.61 61.4086 122.383 61.3264 122.203 61.1763C122.023 61.0263 121.902 60.8179 121.86 60.5875C121.818 60.3571 121.858 60.1193 121.974 59.9155C122.089 59.7118 122.273 59.555 122.492 59.4726L123.976 58.9146C124.099 58.8684 124.23 58.8468 124.361 58.8511C124.492 58.8555 124.621 58.8856 124.741 58.9398C124.86 58.9941 124.968 59.0713 125.058 59.1672C125.148 59.2631 125.218 59.3757 125.264 59.4986C125.31 59.6215 125.332 59.7523 125.327 59.8836C125.323 60.0148 125.293 60.1439 125.239 60.2635C125.184 60.3831 125.107 60.4909 125.011 60.5806C124.915 60.6704 124.803 60.7404 124.68 60.7866L123.2 61.3446C123.086 61.3877 122.965 61.4094 122.844 61.4086Z" fill="#4C3133"/>
<path d="M136.866 59.9423C136.816 59.9422 136.765 59.9382 136.716 59.9303L135.15 59.6923C135.016 59.677 134.887 59.635 134.77 59.5687C134.653 59.5024 134.551 59.4132 134.469 59.3064C134.388 59.1997 134.328 59.0775 134.295 58.9473C134.261 58.8171 134.255 58.6815 134.275 58.5486C134.295 58.4157 134.342 58.2883 134.412 58.1738C134.483 58.0594 134.576 57.9604 134.685 57.8827C134.795 57.805 134.919 57.7502 135.051 57.7216C135.182 57.693 135.318 57.6912 135.45 57.7163L137.016 57.9543C137.264 57.9931 137.489 58.124 137.645 58.3211C137.801 58.5181 137.878 58.7668 137.859 59.0175C137.84 59.2682 137.727 59.5026 137.543 59.674C137.359 59.8454 137.117 59.9412 136.866 59.9423Z" fill="#4C3133"/>
<path d="M178.31 63.4607C178.31 63.4607 182.64 62.5147 184.772 66.7367C186.904 70.9587 183.314 75.9747 183.314 75.9747C183.314 75.9747 178.462 75.2207 178.314 72.1527C178.314 72.1527 179.988 71.8627 179.44 70.3947C178.892 68.9267 177.558 70.4287 177.558 70.4287C177.558 70.4287 174.846 67.3187 178.31 63.4607Z" fill="#E2E2E0"/>
<path d="M183.314 76.6746C183.279 76.6777 183.243 76.6777 183.208 76.6746C182.986 76.6406 177.788 75.7906 177.622 72.1926C177.614 72.0223 177.669 71.8549 177.776 71.722C177.882 71.5891 178.034 71.4997 178.202 71.4706C178.35 71.4426 178.708 71.3166 178.82 71.1166C178.851 71.0405 178.866 70.9586 178.862 70.8764C178.859 70.7943 178.837 70.7138 178.8 70.6406C178.779 70.5751 178.748 70.513 178.708 70.4566C178.473 70.554 178.263 70.7046 178.096 70.8966C178.029 70.9693 177.948 71.0273 177.857 71.0672C177.767 71.1071 177.669 71.128 177.57 71.1286C177.471 71.1281 177.373 71.1066 177.284 71.0656C177.194 71.0245 177.113 70.9649 177.048 70.8906C177.016 70.8546 173.962 67.2646 177.798 62.9946C177.897 62.886 178.027 62.8105 178.17 62.7786C178.218 62.7686 183.056 61.7786 185.404 66.4226C187.702 70.9686 184.048 76.1646 183.892 76.3846C183.826 76.4756 183.739 76.5495 183.638 76.5999C183.538 76.6504 183.427 76.676 183.314 76.6746ZM179.114 72.6226C179.602 74.2486 181.998 74.9626 182.994 75.1946C183.724 74.0066 185.754 70.2146 184.156 67.0506C182.536 63.8506 179.518 63.9986 178.682 64.1106C176.682 66.4726 177.238 68.4486 177.726 69.3866C178.091 69.1265 178.541 69.0143 178.986 69.0726C179.342 69.1406 179.826 69.3806 180.112 70.1486C180.228 70.4124 180.282 70.6992 180.269 70.987C180.257 71.2748 180.178 71.5559 180.04 71.8086C179.819 72.1692 179.493 72.4533 179.106 72.6226H179.114Z" fill="#B9B9B9"/>
<path d="M182.368 72.3466C182.19 72.3465 182.019 72.2788 181.89 72.1574C181.76 72.036 181.682 71.8698 181.67 71.6926C181.2 64.5826 174.2 60.1706 174.136 60.1266C173.977 60.0293 173.863 59.8727 173.819 59.6913C173.776 59.51 173.806 59.3187 173.903 59.1596C174 59.0005 174.157 58.8865 174.338 58.8428C174.52 58.7991 174.711 58.8293 174.87 58.9266C175.184 59.1266 182.55 63.7526 183.07 71.5906C183.076 71.6824 183.064 71.7745 183.035 71.8617C183.006 71.9489 182.959 72.0295 182.899 72.0988C182.838 72.1681 182.765 72.2247 182.682 72.2655C182.6 72.3063 182.51 72.3305 182.418 72.3366L182.368 72.3466Z" fill="#B9B9B9"/>
<path d="M164.942 141.545C165.994 143.673 169.234 143.771 171.118 142.329C173.002 140.887 173.866 138.509 174.636 136.263L175.77 132.949C173.56 134.851 170.108 133.795 167.344 134.721C166.141 135.151 165.102 135.945 164.372 136.993C163.641 138.042 163.255 139.291 163.268 140.569" fill="#E2E2E0"/>
<path d="M168.15 143.995C167.752 143.996 167.356 143.951 166.968 143.861C166.404 143.747 165.873 143.508 165.414 143.162C164.954 142.816 164.579 142.371 164.314 141.861C164.232 141.694 164.219 141.502 164.279 141.326C164.338 141.15 164.465 141.005 164.632 140.923C164.799 140.84 164.991 140.828 165.167 140.887C165.343 140.947 165.488 141.074 165.57 141.241C165.743 141.566 165.987 141.849 166.284 142.068C166.581 142.287 166.924 142.436 167.286 142.505C167.872 142.631 168.478 142.631 169.064 142.506C169.65 142.381 170.203 142.133 170.686 141.779C172.468 140.417 173.298 137.991 173.966 136.043L174.51 134.443C173.37 134.843 172.11 134.891 170.894 134.943C169.678 134.995 168.572 135.045 167.558 135.385C166.498 135.768 165.582 136.47 164.937 137.395C164.293 138.319 163.951 139.421 163.958 140.549C163.961 140.641 163.945 140.732 163.913 140.818C163.88 140.904 163.831 140.983 163.768 141.05C163.705 141.117 163.629 141.171 163.545 141.208C163.461 141.246 163.371 141.267 163.279 141.27C163.187 141.272 163.095 141.257 163.01 141.224C162.924 141.192 162.845 141.143 162.778 141.08C162.711 141.016 162.657 140.941 162.619 140.857C162.582 140.773 162.561 140.683 162.558 140.591C162.534 139.161 162.961 137.76 163.778 136.587C164.596 135.414 165.762 134.529 167.112 134.057C168.312 133.657 169.592 133.599 170.832 133.545C172.544 133.471 174.162 133.401 175.304 132.417C175.421 132.317 175.567 132.258 175.72 132.249C175.873 132.24 176.025 132.282 176.153 132.369C176.28 132.455 176.375 132.58 176.424 132.726C176.472 132.872 176.472 133.029 176.422 133.175L175.288 136.489C174.56 138.617 173.652 141.265 171.534 142.889C170.553 143.609 169.367 143.997 168.15 143.995Z" fill="#B9B9B9"/>
<path d="M162.03 141.561C161.806 141.561 161.582 141.555 161.358 141.543C161.172 141.533 160.998 141.45 160.874 141.312C160.749 141.173 160.685 140.991 160.695 140.806C160.705 140.62 160.788 140.446 160.926 140.322C161.064 140.197 161.246 140.133 161.432 140.143C163.094 140.218 164.755 139.957 166.313 139.375C167.872 138.792 169.297 137.9 170.502 136.753C170.565 136.679 170.643 136.62 170.731 136.578C170.819 136.536 170.914 136.513 171.011 136.51C171.108 136.507 171.205 136.525 171.295 136.561C171.385 136.597 171.466 136.652 171.534 136.722C171.602 136.792 171.654 136.874 171.688 136.966C171.722 137.057 171.737 137.154 171.731 137.251C171.725 137.348 171.7 137.442 171.655 137.529C171.611 137.615 171.549 137.691 171.474 137.753C168.926 140.18 165.548 141.542 162.03 141.561Z" fill="#B9B9B9"/>
<path d="M72.65 60.4288C70.11 60.6848 68.034 57.9888 68.16 55.6128C68.286 53.2368 69.872 51.2128 71.4 49.3608L73.654 46.6128C73.316 49.5108 76.376 51.8708 77.254 54.7148C78.016 57.1968 76.854 60.0168 74.55 61.3248" fill="#E2E2E0"/>
<path d="M74.546 62.0247C74.3912 62.0248 74.2407 61.9736 74.1181 61.8791C73.9955 61.7846 73.9076 61.6522 73.8683 61.5024C73.829 61.3527 73.8404 61.1942 73.9008 61.0516C73.9612 60.9091 74.0671 60.7906 74.202 60.7147C76.222 59.5727 77.244 57.0827 76.58 54.9147C76.26 53.8727 75.58 52.8427 74.922 51.8467C74.192 50.7407 73.446 49.6087 73.11 48.3747L71.94 49.8007C70.62 51.4127 68.976 53.4187 68.858 55.6467C68.8 56.7447 69.326 57.9887 70.194 58.8187C70.898 59.4887 71.744 59.8187 72.58 59.7287C72.7656 59.7101 72.9511 59.766 73.0955 59.8842C73.2399 60.0023 73.3314 60.173 73.35 60.3587C73.3686 60.5443 73.3126 60.7297 73.1945 60.8741C73.0763 61.0185 72.9056 61.1101 72.72 61.1287C71.474 61.2547 70.234 60.7967 69.228 59.8387C68.058 58.7227 67.38 57.0907 67.46 55.5807C67.602 52.8947 69.408 50.6907 70.86 48.9207L73.114 46.1727C73.2099 46.0561 73.341 45.9736 73.4877 45.9376C73.6343 45.9017 73.7887 45.9141 73.9277 45.973C74.0667 46.0319 74.183 46.1343 74.2591 46.2647C74.3352 46.3951 74.3671 46.5466 74.35 46.6967C74.178 48.1827 75.108 49.5907 76.094 51.0847C76.806 52.1627 77.542 53.2847 77.92 54.5127C78.774 57.2887 77.472 60.4807 74.892 61.9367C74.7864 61.9959 74.6671 62.0263 74.546 62.0247Z" fill="#B9B9B9"/>
<path d="M75.452 63.7606C75.3471 63.7607 75.2436 63.7373 75.1491 63.6919C75.0545 63.6465 74.9715 63.5805 74.906 63.4986C72.474 60.4806 71.41 56.4986 72.064 52.8666C72.0969 52.6839 72.201 52.5217 72.3534 52.4157C72.5059 52.3098 72.6942 52.2687 72.877 52.3016C73.0597 52.3345 73.2219 52.4386 73.3278 52.5911C73.4338 52.7436 73.4748 52.9319 73.442 53.1146C72.86 56.3606 73.814 59.9146 75.996 62.6206C76.0782 62.7236 76.1298 62.8476 76.1448 62.9786C76.1598 63.1095 76.1377 63.242 76.0809 63.3609C76.0242 63.4799 75.9351 63.5804 75.8239 63.6511C75.7126 63.7218 75.5837 63.7597 75.452 63.7606Z" fill="#B9B9B9"/>
<path d="M94.3509 120.412L45.8981 109.501C44.2375 109.127 42.5882 110.17 42.2143 111.831L35.3455 142.335C34.9716 143.996 36.0146 145.645 37.6752 146.019L86.128 156.929C87.7885 157.303 89.4378 156.26 89.8117 154.6L96.6805 124.095C97.0545 122.435 96.0114 120.786 94.3509 120.412Z" fill="#F0F0F0"/>
<path d="M86.8219 157.702C86.5399 157.703 86.2588 157.671 85.9839 157.608L37.5299 146.7C37.0453 146.592 36.5869 146.389 36.1809 146.103C35.7749 145.817 35.4292 145.454 35.1637 145.034C34.8983 144.614 34.7182 144.147 34.6338 143.657C34.5494 143.168 34.5624 142.667 34.6719 142.182L41.5379 111.676C41.6469 111.192 41.8503 110.733 42.1364 110.328C42.4226 109.922 42.7859 109.576 43.2057 109.311C43.6255 109.045 44.0934 108.865 44.5828 108.781C45.0722 108.696 45.5735 108.709 46.0579 108.818L94.5119 119.726C95.4898 119.948 96.3399 120.548 96.876 121.395C97.4121 122.243 97.5905 123.268 97.3719 124.246L90.5039 154.75C90.3158 155.587 89.8489 156.335 89.1799 156.871C88.5108 157.407 87.6794 157.701 86.8219 157.702ZM45.2219 110.124C44.6817 110.126 44.1579 110.31 43.7364 110.648C43.3149 110.986 43.0207 111.457 42.9019 111.984L36.0379 142.488C35.9691 142.793 35.9611 143.109 36.0143 143.417C36.0675 143.725 36.1809 144.02 36.3481 144.284C36.5153 144.549 36.7329 144.777 36.9885 144.958C37.2442 145.138 37.5328 145.266 37.8379 145.334L86.2919 156.24C86.908 156.378 87.5536 156.266 88.0871 155.929C88.6206 155.591 88.9985 155.056 89.1379 154.44L95.9999 123.938C96.1379 123.322 96.0258 122.677 95.6884 122.143C95.3509 121.61 94.8156 121.232 94.1999 121.092L45.7499 110.184C45.5774 110.145 45.401 110.124 45.2239 110.124H45.2219Z" fill="#4C3133"/>
<path d="M43.3518 110.66L65.2498 138.568L96.5798 122.644" fill="#F0F0F0"/>
<path d="M65.2499 139.268C65.1436 139.268 65.0387 139.244 64.943 139.198C64.8474 139.151 64.7636 139.084 64.6979 139L42.7999 111.092C42.7385 111.021 42.6922 110.937 42.6639 110.847C42.6355 110.757 42.6257 110.662 42.635 110.568C42.6443 110.474 42.6725 110.383 42.7179 110.3C42.7633 110.218 42.825 110.145 42.8992 110.087C42.9735 110.028 43.0587 109.986 43.1499 109.961C43.2411 109.936 43.3363 109.931 43.4298 109.944C43.5233 109.957 43.6131 109.989 43.6939 110.038C43.7747 110.087 43.8447 110.152 43.8999 110.228L65.4459 137.682L96.2639 122.02C96.429 121.94 96.619 121.927 96.7931 121.986C96.9672 122.044 97.1114 122.169 97.1946 122.333C97.2778 122.496 97.2933 122.686 97.2378 122.861C97.1823 123.036 97.0602 123.182 96.8979 123.268L65.5659 139.192C65.4679 139.242 65.3597 139.268 65.2499 139.268Z" fill="#4C3133"/>
<path d="M37.1799 136.85C37.025 136.85 36.8745 136.798 36.7522 136.703C36.6298 136.608 36.5425 136.475 36.5038 136.325C36.4652 136.175 36.4774 136.016 36.5386 135.874C36.5998 135.732 36.7064 135.614 36.8419 135.538L54.6679 125.678C54.7485 125.63 54.8379 125.599 54.9309 125.586C55.0239 125.573 55.1185 125.579 55.2091 125.603C55.2998 125.628 55.3846 125.67 55.4585 125.728C55.5325 125.786 55.594 125.858 55.6395 125.94C55.685 126.022 55.7135 126.112 55.7233 126.206C55.7331 126.299 55.7241 126.394 55.6967 126.483C55.6693 126.573 55.6241 126.656 55.5639 126.728C55.5036 126.8 55.4295 126.86 55.3459 126.902L37.5199 136.762C37.416 136.82 37.2989 136.851 37.1799 136.85Z" fill="#4C3133"/>
<path d="M91.1219 148.56C91.0006 148.56 90.8815 148.528 90.7763 148.468C90.6711 148.407 90.5834 148.321 90.5219 148.216L80.3219 130.962C80.2669 130.883 80.2287 130.794 80.2097 130.7C80.1908 130.605 80.1915 130.508 80.2118 130.414C80.2321 130.32 80.2715 130.231 80.3277 130.153C80.3838 130.075 80.4555 130.009 80.5381 129.96C80.6208 129.911 80.7127 129.879 80.8081 129.867C80.9035 129.855 81.0004 129.863 81.0927 129.89C81.185 129.917 81.2708 129.963 81.3446 130.024C81.4184 130.086 81.4788 130.162 81.5219 130.248L91.7219 147.504C91.7845 147.61 91.8181 147.731 91.8191 147.854C91.8202 147.978 91.7887 148.099 91.7278 148.206C91.6669 148.313 91.5788 148.402 91.4724 148.465C91.366 148.527 91.2451 148.56 91.1219 148.56Z" fill="#4C3133"/>
<path d="M52.9723 74.516L33.8769 81.7621C33.2222 82.0105 32.8928 82.7427 33.1413 83.3974L37.703 95.419C37.9515 96.0738 38.6837 96.4031 39.3384 96.1547L58.4338 88.9086C59.0886 88.6602 59.4179 87.928 59.1695 87.2732L54.6077 75.2517C54.3593 74.5969 53.6271 74.2676 52.9723 74.516Z" fill="white"/>
<path d="M53.42 74.44C53.677 74.4403 53.9278 74.5187 54.1393 74.6648C54.3507 74.8109 54.5128 75.0178 54.604 75.258L59.166 87.282C59.2849 87.5963 59.2741 87.945 59.1361 88.2513C58.9981 88.5577 58.7441 88.7968 58.43 88.916L39.334 96.162C39.0194 96.281 38.6705 96.2703 38.3638 96.1323C38.0571 95.9943 37.8177 95.7403 37.698 95.426L33.138 83.404C33.0184 83.0898 33.0285 82.7408 33.1662 82.434C33.3038 82.1272 33.5577 81.8877 33.872 81.768L52.97 74.524C53.1137 74.469 53.2661 74.4406 53.42 74.44ZM53.42 73.04C53.0967 73.0397 52.776 73.0986 52.474 73.214L33.376 80.46C32.7147 80.7111 32.1801 81.2145 31.8898 81.8595C31.5995 82.5046 31.5773 83.2386 31.828 83.9L36.4 95.918C36.5927 96.4217 36.9329 96.8554 37.3761 97.1626C37.8192 97.4698 38.3448 97.6362 38.884 97.64C39.2073 97.6404 39.528 97.5814 39.83 97.466L58.928 90.22C59.5886 89.9682 60.1224 89.4646 60.4122 88.8197C60.7021 88.1748 60.7243 87.4413 60.474 86.78L55.914 74.758C55.7195 74.2539 55.3774 73.8202 54.9324 73.5137C54.4875 73.2072 53.9603 73.0421 53.42 73.04Z" fill="#4C3133"/>
<path d="M33.26 82.7417L47.1 87.3497L54.238 74.7817" fill="#F0F0F0"/>
<path d="M47.0999 88.0499C47.0252 88.0496 46.9509 88.0375 46.8799 88.0139L33.0379 83.4139C32.9507 83.3847 32.8701 83.3387 32.8007 83.2784C32.7313 83.2181 32.6745 83.1447 32.6334 83.0624C32.5924 82.9801 32.568 82.8906 32.5615 82.7989C32.5551 82.7072 32.5668 82.6151 32.5959 82.5279C32.6251 82.4407 32.6711 82.3601 32.7314 82.2907C32.7917 82.2213 32.8651 82.1644 32.9474 82.1234C33.0297 82.0823 33.1192 82.0579 33.2109 82.0515C33.3027 82.045 33.3947 82.0567 33.4819 82.0859L46.7759 86.5119L53.6299 74.4399C53.7217 74.2784 53.8739 74.1599 54.053 74.1106C54.1417 74.0862 54.2343 74.0794 54.3256 74.0908C54.4168 74.1022 54.505 74.1314 54.5849 74.1769C54.6649 74.2223 54.7352 74.2831 54.7917 74.3556C54.8482 74.4282 54.8898 74.5112 54.9142 74.5999C54.9387 74.6886 54.9454 74.7812 54.934 74.8725C54.9226 74.9638 54.8934 75.0519 54.8479 75.1319L47.7099 87.6999C47.6482 87.8068 47.5592 87.8956 47.4521 87.957C47.345 88.0185 47.2235 88.0505 47.0999 88.0499Z" fill="#4C3133"/>
<path d="M36.9219 93.5862C36.8016 93.5861 36.6833 93.555 36.5785 93.4959C36.4737 93.4368 36.3859 93.3517 36.3236 93.2488C36.2613 93.1458 36.2266 93.0286 36.2228 92.9083C36.219 92.7881 36.2462 92.6689 36.3019 92.5622L40.1819 85.1362C40.2245 85.0547 40.2827 84.9823 40.3532 84.9232C40.4237 84.8642 40.5051 84.8196 40.5929 84.792C40.6807 84.7644 40.773 84.7544 40.8646 84.7625C40.9562 84.7706 41.0454 84.7967 41.1269 84.8392C41.2085 84.8818 41.2808 84.9399 41.3399 85.0105C41.399 85.081 41.4435 85.1624 41.4711 85.2502C41.4987 85.3379 41.5087 85.4303 41.5006 85.5219C41.4925 85.6135 41.4665 85.7027 41.4239 85.7842L37.5439 93.2102C37.4844 93.3237 37.395 93.4187 37.2854 93.485C37.1757 93.5512 37.05 93.5863 36.9219 93.5862Z" fill="#4C3133"/>
<path d="M58.0841 85.372C57.9779 85.3717 57.8733 85.3471 57.7781 85.3L50.3641 81.7C50.2814 81.6598 50.2074 81.6037 50.1463 81.535C50.0853 81.4662 50.0383 81.386 50.0083 81.2991C49.9782 81.2122 49.9655 81.1202 49.971 81.0284C49.9764 80.9366 49.9999 80.8467 50.0401 80.764C50.0803 80.6813 50.1364 80.6073 50.2052 80.5462C50.274 80.4852 50.3541 80.4382 50.441 80.4082C50.5279 80.3781 50.6199 80.3654 50.7117 80.3709C50.8035 80.3763 50.8934 80.3998 50.9761 80.44L58.4001 84.04C58.5428 84.1091 58.6578 84.2246 58.7263 84.3675C58.7948 84.5105 58.8127 84.6725 58.7772 84.827C58.7416 84.9814 58.6547 85.1193 58.5306 85.2179C58.4065 85.3166 58.2526 85.3702 58.0941 85.37L58.0841 85.372Z" fill="#4C3133"/>
<path d="M143.918 152.73L98.3539 177.44C97.1641 178.085 95.7666 178.232 94.4689 177.847C93.1712 177.462 92.0794 176.578 91.4339 175.388L74.2339 143.69C73.8178 142.923 73.6052 142.062 73.6164 141.19C73.6276 140.317 73.8622 139.462 74.2979 138.706L88.8599 113.466C89.3181 112.673 89.9814 112.017 90.7802 111.568C91.579 111.12 92.4839 110.894 93.3999 110.916L124.456 111.542C125.357 111.56 126.237 111.817 127.007 112.286C127.777 112.755 128.408 113.42 128.838 114.212L145.978 145.812C146.622 147.003 146.766 148.4 146.38 149.697C145.994 150.995 145.108 152.085 143.918 152.73Z" fill="#E2E2E0"/>
<path d="M95.928 178.764C95.3664 178.763 94.808 178.681 94.27 178.52C93.5382 178.305 92.8564 177.947 92.2641 177.466C91.6719 176.986 91.181 176.392 90.82 175.72L73.62 144.022C73.1508 143.149 72.9114 142.17 72.9243 141.179C72.9373 140.187 73.2021 139.215 73.694 138.354L88.256 113.114C88.7754 112.215 89.5268 111.471 90.4316 110.962C91.3365 110.452 92.3616 110.194 93.4 110.216L124.462 110.84C125.487 110.862 126.487 111.154 127.362 111.687C128.238 112.221 128.957 112.976 129.446 113.876L146.586 145.476C147.318 146.83 147.483 148.418 147.045 149.893C146.607 151.368 145.602 152.609 144.25 153.344L98.688 178.058C97.8414 178.52 96.8925 178.763 95.928 178.764ZM93.288 111.614C92.515 111.614 91.7555 111.817 91.086 112.203C90.4164 112.589 89.8604 113.145 89.474 113.814L74.914 139.054C74.5401 139.707 74.3386 140.444 74.3285 141.197C74.3183 141.949 74.4999 142.691 74.856 143.354L92.056 175.052C92.3313 175.561 92.7042 176.01 93.1533 176.375C93.6025 176.739 94.1191 177.011 94.6736 177.176C95.2281 177.34 95.8096 177.394 96.3848 177.334C96.96 177.273 97.5177 177.1 98.026 176.824L143.584 152.114C144.092 151.839 144.542 151.466 144.906 151.016C145.27 150.567 145.542 150.051 145.707 149.496C145.871 148.942 145.924 148.36 145.864 147.785C145.803 147.21 145.63 146.652 145.354 146.144L128.216 114.544C127.845 113.861 127.299 113.288 126.635 112.883C125.971 112.478 125.212 112.257 124.434 112.24L93.378 111.614H93.288Z" fill="#1D1D1B"/>
<path d="M108.118 91.4737L66.5477 114.026C65.5496 114.567 65.1794 115.815 65.7209 116.814L91.7952 164.876C92.3366 165.874 93.5847 166.245 94.5828 165.703L136.153 143.151C137.151 142.609 137.522 141.361 136.98 140.363L110.906 92.3005C110.364 91.3024 109.116 90.9322 108.118 91.4737Z" fill="#F0F0F0"/>
<path d="M109.094 91.2404C109.463 91.242 109.825 91.3429 110.142 91.5325C110.459 91.7222 110.718 91.9937 110.894 92.3184L136.974 140.376C137.233 140.856 137.292 141.419 137.137 141.942C136.982 142.464 136.625 142.904 136.146 143.164L94.5759 165.712C94.3385 165.842 94.078 165.923 93.8093 165.951C93.5405 165.979 93.2688 165.955 93.0097 165.878C92.7506 165.801 92.5091 165.674 92.2991 165.504C92.0891 165.334 91.9147 165.124 91.7859 164.886L65.7179 116.822C65.4596 116.344 65.4015 115.782 65.5563 115.261C65.7111 114.739 66.0663 114.301 66.5439 114.04L108.116 91.4864C108.416 91.322 108.752 91.236 109.094 91.2364V91.2404ZM109.094 89.8364C108.519 89.8375 107.953 89.9818 107.448 90.2564L65.8759 112.804C65.0706 113.242 64.4718 113.981 64.2111 114.86C63.9505 115.738 64.0493 116.685 64.4859 117.49L90.5559 165.552C90.7715 165.952 91.0637 166.306 91.416 166.592C91.7682 166.879 92.1735 167.094 92.6087 167.224C93.0439 167.354 93.5005 167.397 93.9523 167.35C94.4042 167.304 94.8424 167.168 95.2419 166.952L136.814 144.396C137.618 143.957 138.215 143.217 138.475 142.339C138.735 141.46 138.636 140.514 138.2 139.708L112.134 91.6404C111.836 91.0945 111.397 90.6391 110.861 90.3223C110.326 90.0055 109.716 89.839 109.094 89.8404V89.8364Z" fill="#4C3133"/>
<path d="M108.116 91.4862L72.22 110.956L77.278 138.138L81.292 145.538C81.6388 145.575 81.989 145.561 82.332 145.498L125.044 137.548C125.988 137.372 126.824 136.829 127.367 136.037C127.91 135.245 128.117 134.27 127.942 133.326L125.222 118.71L110.904 92.3102C110.775 92.0728 110.601 91.8632 110.391 91.6933C110.181 91.5234 109.94 91.3966 109.681 91.3201C109.422 91.2435 109.15 91.2188 108.882 91.2473C108.613 91.2758 108.353 91.357 108.116 91.4862Z" fill="#E2E2E0"/>
<path d="M73.6876 80.8928L117.244 72.7887C118.188 72.613 119.164 72.8196 119.956 73.3631C120.748 73.9067 121.292 74.7426 121.467 75.687L131.337 128.733C131.513 129.677 131.306 130.653 130.763 131.445C130.219 132.237 129.383 132.78 128.439 132.956L85.7259 140.903C84.7815 141.079 83.806 140.872 83.0139 140.329C82.2219 139.785 81.6782 138.949 81.5025 138.005L71.4762 84.1178C71.4095 83.7608 71.4138 83.3942 71.4889 83.0389C71.5639 82.6836 71.7083 82.3466 71.9136 82.0471C72.119 81.7476 72.3814 81.4915 72.6858 81.2934C72.9901 81.0954 73.3306 80.9593 73.6876 80.8928Z" fill="white"/>
<path d="M117.914 72.7223C118.759 72.7238 119.576 73.0205 120.226 73.5609C120.875 74.1014 121.315 74.8518 121.47 75.6823L131.342 128.726C131.517 129.67 131.31 130.646 130.767 131.437C130.224 132.229 129.388 132.772 128.444 132.948L85.732 140.898C85.2644 140.986 84.7841 140.98 84.3187 140.882C83.8533 140.784 83.4118 140.595 83.0196 140.325C82.6274 140.056 82.2922 139.712 82.0331 139.313C81.7741 138.914 81.5963 138.468 81.51 138L71.48 84.1143C71.4134 83.7573 71.4179 83.3908 71.493 83.0355C71.5682 82.6803 71.7126 82.3434 71.918 82.044C72.1234 81.7446 72.3858 81.4886 72.6902 81.2906C72.9946 81.0927 73.335 80.9566 73.692 80.8903L117.246 72.7843C117.466 72.7439 117.69 72.7232 117.914 72.7223ZM117.914 71.3223C117.604 71.323 117.295 71.3518 116.99 71.4083L73.434 79.5143C72.349 79.7177 71.3891 80.3433 70.7648 81.2536C70.1405 82.164 69.9028 83.2849 70.104 84.3703L80.132 138.256C80.3462 139.408 80.9564 140.449 81.8571 141.199C82.7578 141.948 83.8922 142.359 85.064 142.36C85.3739 142.36 85.6832 142.331 85.988 142.274L128.7 134.324C129.348 134.204 129.967 133.957 130.52 133.598C131.072 133.239 131.549 132.774 131.922 132.23C132.295 131.686 132.558 131.074 132.694 130.429C132.831 129.784 132.839 129.119 132.718 128.47L122.846 75.4263C122.632 74.2741 122.022 73.233 121.121 72.4835C120.22 71.7339 119.086 71.3231 117.914 71.3223Z" fill="#4C3133"/>
<path d="M116.232 80.0567L78.8039 86.6495C77.6498 86.8528 76.8789 87.9532 77.0822 89.1074L77.1568 89.5309C77.3601 90.6851 78.4606 91.4559 79.6148 91.2526L117.043 84.6598C118.197 84.4565 118.968 83.356 118.764 82.2019L118.69 81.7784C118.486 80.6242 117.386 79.8534 116.232 80.0567Z" fill="#F0F0F0"/>
<path d="M117.604 87.8443L80.1763 94.4371C79.0221 94.6404 78.2512 95.7408 78.4545 96.895L78.5291 97.3185C78.7324 98.4727 79.8329 99.2435 80.9871 99.0402L118.415 92.4474C119.569 92.2441 120.34 91.1436 120.137 89.9895L120.062 89.566C119.859 88.4118 118.758 87.641 117.604 87.8443Z" fill="#F0F0F0"/>
<path d="M118.977 95.6343L81.5488 102.227C80.3946 102.43 79.6238 103.531 79.8271 104.685L79.9017 105.109C80.105 106.263 81.2055 107.034 82.3596 106.83L119.787 100.237C120.942 100.034 121.712 98.9337 121.509 97.7795L121.435 97.356C121.231 96.2018 120.131 95.431 118.977 95.6343Z" fill="#F0F0F0"/>
<path d="M120.349 103.424L82.9214 110.017C81.7672 110.22 80.9964 111.321 81.1997 112.475L81.2743 112.899C81.4776 114.053 82.578 114.824 83.7322 114.62L121.16 108.027C122.314 107.824 123.085 106.724 122.882 105.57L122.807 105.146C122.604 103.992 121.503 103.221 120.349 103.424Z" fill="#F0F0F0"/>
<path d="M121.72 111.214L84.292 117.807C83.1378 118.01 82.367 119.11 82.5703 120.265L82.6449 120.688C82.8482 121.842 83.9486 122.613 85.1028 122.41L122.531 115.817C123.685 115.614 124.456 114.513 124.252 113.359L124.178 112.936C123.974 111.781 122.874 111.011 121.72 111.214Z" fill="#F0F0F0"/>
<path d="M123.092 119.002L85.664 125.595C84.5099 125.798 83.739 126.899 83.9423 128.053L84.0169 128.476C84.2202 129.63 85.3207 130.401 86.4749 130.198L123.903 123.605C125.057 123.402 125.828 122.301 125.624 121.147L125.55 120.724C125.346 119.57 124.246 118.799 123.092 119.002Z" fill="#F0F0F0"/>
<path d="M79 152.478L110.704 145.868L133.542 122.898L147.32 148.298C147.462 148.561 147.551 148.849 147.582 149.146C147.613 149.443 147.585 149.743 147.499 150.03C147.414 150.316 147.273 150.583 147.084 150.814C146.895 151.046 146.663 151.238 146.4 151.38L95.866 178.792C95.6037 178.934 95.3158 179.024 95.0189 179.055C94.722 179.086 94.4218 179.059 94.1356 178.974C93.8493 178.889 93.5827 178.748 93.3507 178.56C93.1188 178.372 92.9262 178.14 92.784 177.878L79 152.478Z" fill="white"/>
<path d="M133.542 122.898L147.32 148.298C147.462 148.561 147.551 148.849 147.582 149.146C147.613 149.443 147.585 149.744 147.499 150.03C147.414 150.316 147.273 150.583 147.084 150.814C146.895 151.046 146.663 151.238 146.4 151.38L95.8659 178.792C95.6036 178.935 95.3158 179.024 95.0188 179.056C94.7218 179.087 94.4216 179.06 94.1353 178.975C93.849 178.89 93.5822 178.749 93.3503 178.561C93.1185 178.373 92.926 178.141 92.7839 177.878L78.9999 152.478L110.704 145.868L133.542 122.898ZM133.542 121.498C133.356 121.497 133.172 121.533 133 121.605C132.829 121.676 132.673 121.78 132.542 121.912L110.016 144.584L78.7219 151.108C78.5082 151.152 78.3078 151.246 78.1367 151.382C77.9657 151.518 77.8287 151.691 77.7368 151.889C77.6449 152.087 77.6006 152.304 77.6074 152.522C77.6142 152.741 77.6719 152.954 77.7759 153.146L91.5539 178.546C92.0181 179.402 92.8033 180.039 93.7368 180.316C94.6704 180.593 95.6758 180.488 96.5319 180.024L147.074 152.61C147.927 152.145 148.561 151.361 148.838 150.43C149.115 149.498 149.011 148.495 148.55 147.64L134.774 122.24C134.67 122.048 134.523 121.883 134.343 121.758C134.164 121.633 133.958 121.551 133.742 121.52C133.676 121.511 133.609 121.507 133.542 121.506V121.498Z" fill="#4C3133"/>
<path d="M93.984 173.278L82.328 151.786L79 152.478L92.776 177.878C92.9182 178.141 93.1108 178.373 93.3427 178.561C93.5746 178.749 93.8413 178.889 94.1276 178.974C94.4138 179.059 94.714 179.087 95.0109 179.055C95.3078 179.024 95.5957 178.935 95.858 178.792L146.4 151.38C146.662 151.238 146.894 151.045 147.082 150.814C147.27 150.582 147.411 150.315 147.496 150.029C147.581 149.742 147.608 149.442 147.577 149.145C147.546 148.848 147.457 148.561 147.314 148.298L146.748 147.24L97.066 174.192C96.8036 174.335 96.5158 174.424 96.2189 174.455C95.922 174.487 95.6218 174.459 95.3356 174.374C95.0493 174.289 94.7827 174.149 94.5507 173.961C94.3188 173.773 94.1262 173.541 93.984 173.278Z" fill="#F0F0F0"/>
<path d="M93.5039 164.276L105.08 140.616C105.509 139.741 106.215 139.031 107.088 138.597C107.961 138.164 108.953 138.03 109.91 138.216L133.188 142.754" fill="white"/>
<path d="M93.504 164.978C93.3972 164.978 93.2919 164.953 93.196 164.906C93.0295 164.824 92.9023 164.68 92.8423 164.504C92.7823 164.329 92.7944 164.137 92.876 163.97L104.452 140.308C104.95 139.293 105.768 138.471 106.78 137.968C107.793 137.465 108.943 137.31 110.052 137.526L133.33 142.066C133.421 142.083 133.508 142.117 133.586 142.168C133.663 142.218 133.73 142.284 133.783 142.36C133.835 142.437 133.871 142.523 133.89 142.614C133.909 142.704 133.909 142.798 133.892 142.889C133.874 142.98 133.838 143.066 133.787 143.143C133.735 143.22 133.669 143.286 133.592 143.338C133.515 143.389 133.428 143.425 133.337 143.442C133.246 143.46 133.153 143.459 133.062 143.44L109.776 138.9C108.97 138.744 108.135 138.858 107.4 139.224C106.664 139.59 106.07 140.187 105.708 140.924L94.134 164.584C94.0762 164.702 93.9865 164.801 93.8752 164.871C93.7639 164.941 93.6353 164.978 93.504 164.978Z" fill="#4C3133"/>
<path d="M95.6881 107.604C105.321 107.604 113.13 99.7952 113.13 90.1622C113.13 80.5293 105.321 72.7202 95.6881 72.7202C86.0551 72.7202 78.2461 80.5293 78.2461 90.1622C78.2461 99.7952 86.0551 107.604 95.6881 107.604Z" fill="#F0F0F0"/>
<path d="M95.7021 108.306C91.1358 108.312 86.7353 106.596 83.3782 103.501C80.0212 100.405 77.9543 96.1583 77.5899 91.6066C77.2255 87.0549 78.5904 82.5331 81.4122 78.9431C84.2341 75.3532 88.3056 72.9589 92.8145 72.238C97.3235 71.517 101.939 72.5222 105.739 75.0532C109.54 77.5843 112.247 81.455 113.32 85.8933C114.393 90.3317 113.753 95.0115 111.529 98.9993C109.304 102.987 105.658 105.99 101.318 107.408C99.5048 108 97.6096 108.304 95.7021 108.306ZM95.7021 73.4123C91.5921 73.4002 87.6207 74.8973 84.5415 77.6195C81.4622 80.3416 79.4894 84.0995 78.9974 88.1799C78.5054 92.2603 79.5283 96.3794 81.8723 99.7555C84.2162 103.132 87.7179 105.53 91.7129 106.495C95.7079 107.46 99.9183 106.925 103.545 104.992C107.172 103.058 109.963 99.8606 111.388 96.0056C112.813 92.1507 112.773 87.9066 111.277 84.0789C109.78 80.2511 106.93 77.106 103.268 75.2403C100.926 74.0466 98.3352 73.4204 95.7061 73.4123H95.7021Z" fill="#4C3133"/>
<path d="M95.688 102.952C102.752 102.952 108.478 97.2258 108.478 90.1621C108.478 83.0983 102.752 77.3721 95.688 77.3721C88.6242 77.3721 82.8979 83.0983 82.8979 90.1621C82.8979 97.2258 88.6242 102.952 95.688 102.952Z" fill="#F0F0F0"/>
<path d="M95.674 103.66C92.2751 103.664 88.9996 102.386 86.5007 100.082C84.0018 97.7784 82.463 94.6173 82.191 91.2293C81.9191 87.8412 82.9341 84.4751 85.0335 81.8021C87.133 79.1291 90.1628 77.3455 93.5188 76.807C96.8748 76.2684 100.31 77.0144 103.141 78.8963C105.971 80.7782 107.989 83.6577 108.79 86.9607C109.592 90.2637 109.12 93.7476 107.467 96.7178C105.815 99.6879 103.103 101.926 99.874 102.986C98.5187 103.433 97.1009 103.66 95.674 103.66ZM95.7 78.0603C94.4216 78.061 93.1513 78.2635 91.936 78.6603C89.663 79.4024 87.6611 80.8019 86.1835 82.6818C84.7058 84.5617 83.8188 86.8375 83.6345 89.2215C83.4503 91.6055 83.9771 93.9906 85.1483 96.0752C86.3195 98.1598 88.0826 99.8503 90.2146 100.933C92.3465 102.016 94.7516 102.442 97.1258 102.157C99.4999 101.873 101.736 100.891 103.553 99.336C105.369 97.7807 106.683 95.7218 107.329 93.4196C107.975 91.1174 107.924 88.6754 107.182 86.4023C106.389 83.9804 104.853 81.8703 102.791 80.3722C100.73 78.8741 98.2483 78.0644 95.7 78.0583V78.0603Z" fill="#4C3133"/>
<path d="M94.2301 83.2281C95.0101 84.3901 97.3601 92.4281 97.3601 92.4281C97.3601 92.4281 90.8001 87.2201 90.0181 86.0561C89.8324 85.7796 89.703 85.4691 89.6373 85.1426C89.5715 84.816 89.5708 84.4797 89.635 84.1528C89.6993 83.8259 89.8273 83.5149 90.0118 83.2376C90.1962 82.9602 90.4335 82.7218 90.7101 82.5361C90.9866 82.3504 91.2971 82.221 91.6236 82.1553C91.9502 82.0896 92.2865 82.0889 92.6134 82.1531C92.9402 82.2174 93.2512 82.3454 93.5286 82.5298C93.806 82.7143 94.0444 82.9516 94.2301 83.2281Z" fill="#FFD900"/>
<path d="M97.36 93.1322C97.2018 93.1319 97.0482 93.0783 96.924 92.9802C96.244 92.4382 90.256 87.6662 89.438 86.4482C89.193 86.0957 89.0205 85.698 88.9307 85.2782C88.8409 84.8583 88.8355 84.4248 88.9149 84.0029C88.9943 83.581 89.1568 83.1791 89.3931 82.8206C89.6293 82.4621 89.9345 82.1543 90.2909 81.9149C90.6473 81.6755 91.0478 81.5095 91.469 81.4264C91.8902 81.3433 92.3237 81.3449 92.7443 81.431C93.1649 81.5171 93.5641 81.6861 93.9188 81.928C94.2734 82.17 94.5764 82.4801 94.81 82.8402C95.628 84.0582 97.788 91.4062 98.032 92.2402C98.0732 92.3831 98.0681 92.5353 98.0174 92.6751C97.9667 92.8148 97.8731 92.9349 97.75 93.0182C97.6343 93.0943 97.4985 93.134 97.36 93.1322ZM92.122 82.8062C91.7577 82.8053 91.4016 82.914 91.1 83.1182C90.8999 83.2527 90.7282 83.4253 90.5947 83.6261C90.4613 83.8269 90.3687 84.0521 90.3223 84.2887C90.2759 84.5253 90.2765 84.7687 90.3241 85.0051C90.3718 85.2414 90.4655 85.4661 90.6 85.6662C91.014 86.2842 93.698 88.5622 96.042 90.4662C95.158 87.5742 94.062 84.2282 93.642 83.6122C93.4739 83.3638 93.2474 83.1605 92.9824 83.0199C92.7174 82.8794 92.422 82.806 92.122 82.8062Z" fill="#4C3133"/>
<path d="M100.092 97.9945C101.022 97.9945 101.776 97.2405 101.776 96.3105C101.776 95.3804 101.022 94.6265 100.092 94.6265C99.1619 94.6265 98.408 95.3804 98.408 96.3105C98.408 97.2405 99.1619 97.9945 100.092 97.9945Z" fill="#FFD900"/>
<path d="M100.088 98.6943C99.6335 98.6937 99.1885 98.5633 98.8057 98.3182C98.4228 98.0732 98.118 97.7238 97.9271 97.3113C97.7363 96.8988 97.6673 96.4403 97.7284 95.9898C97.7895 95.5394 97.9781 95.1158 98.272 94.7691C98.5658 94.4223 98.9527 94.1667 99.387 94.0325C99.8213 93.8983 100.285 93.8911 100.723 94.0117C101.161 94.1322 101.556 94.3756 101.861 94.713C102.165 95.0505 102.367 95.468 102.442 95.9163C102.546 96.5397 102.399 97.179 102.032 97.6939C101.665 98.2087 101.109 98.557 100.486 98.6623C100.354 98.6838 100.221 98.6945 100.088 98.6943ZM100.088 95.3283C100.034 95.328 99.9795 95.3326 99.926 95.3423C99.7983 95.3628 99.676 95.4088 99.5664 95.4775C99.4568 95.5463 99.3622 95.6363 99.288 95.7423C99.2128 95.8474 99.1591 95.9663 99.1299 96.0922C99.1008 96.2181 99.0968 96.3486 99.1182 96.476C99.1395 96.6035 99.1858 96.7255 99.2545 96.835C99.3231 96.9445 99.4126 97.0394 99.518 97.1143C99.6765 97.2267 99.8647 97.2897 100.059 97.2953C100.253 97.3009 100.445 97.2489 100.609 97.1458C100.774 97.0427 100.905 96.8931 100.984 96.7159C101.064 96.5388 101.09 96.3419 101.058 96.1503C101.02 95.9213 100.902 95.7133 100.725 95.5629C100.548 95.4124 100.324 95.3293 100.092 95.3283H100.088Z" fill="#4C3133"/>
<path d="M109.893 101.111L108.748 102.319C108.1 103.003 108.129 104.082 108.813 104.73L122.563 117.756C123.247 118.404 124.327 118.375 124.975 117.691L126.12 116.483C126.768 115.799 126.738 114.719 126.054 114.071L112.304 101.045C111.62 100.397 110.541 100.427 109.893 101.111Z" fill="#FFD900"/>
<path d="M123.734 118.914C123.119 118.914 122.527 118.678 122.08 118.254L108.33 105.24C108.1 105.023 107.916 104.763 107.787 104.475C107.657 104.186 107.587 103.875 107.578 103.559C107.569 103.243 107.623 102.929 107.737 102.634C107.85 102.339 108.02 102.069 108.238 101.84L109.382 100.64C109.599 100.41 109.859 100.225 110.147 100.096C110.436 99.9664 110.747 99.8954 111.063 99.8867C111.379 99.8779 111.693 99.9317 111.988 100.045C112.283 100.158 112.553 100.328 112.782 100.546L126.532 113.57C126.994 114.009 127.263 114.614 127.28 115.251C127.298 115.888 127.062 116.506 126.624 116.97L125.48 118.17C125.264 118.4 125.003 118.585 124.714 118.714C124.426 118.842 124.114 118.912 123.798 118.92L123.734 118.914ZM111.134 101.27H111.106C110.974 101.273 110.844 101.302 110.723 101.356C110.602 101.41 110.493 101.488 110.402 101.584L109.258 102.784C109.167 102.879 109.095 102.992 109.047 103.116C109 103.239 108.977 103.371 108.98 103.503C108.984 103.635 109.014 103.765 109.068 103.886C109.122 104.007 109.2 104.115 109.296 104.206L123.042 117.24C123.138 117.332 123.251 117.404 123.374 117.452C123.498 117.5 123.63 117.522 123.762 117.519C123.895 117.515 124.025 117.486 124.146 117.431C124.267 117.377 124.376 117.299 124.466 117.202L125.608 116.002C125.7 115.906 125.772 115.794 125.819 115.67C125.867 115.547 125.89 115.415 125.886 115.283C125.883 115.151 125.853 115.02 125.799 114.9C125.744 114.779 125.667 114.67 125.57 114.58L111.82 101.546C111.634 101.369 111.387 101.27 111.13 101.27H111.134Z" fill="#4C3133"/>
<path d="M120.372 101.763C118.64 100.227 115.734 98.9165 113.372 99.3005C110.972 99.6905 108.95 101.501 107.244 103.079C106.13 104.105 105.09 105.309 104.718 106.777C104.346 108.245 104.826 110.017 106.154 110.745C107.126 111.277 108.384 111.195 109.248 111.885C109.936 112.437 110.202 113.343 110.574 114.141C111.128 115.327 112.076 116.423 113.348 116.723C114.12 116.878 114.921 116.804 115.652 116.509C117.478 115.835 118.852 114.321 120.132 112.859C121.132 111.733 122.132 110.569 122.63 109.151C123.526 106.569 122.416 103.575 120.372 101.763Z" fill="#C5E6F1"/>
<path d="M114.24 99.2403C116.412 99.2403 118.84 100.418 120.372 101.77C122.416 103.582 123.526 106.57 122.632 109.158C122.142 110.576 121.126 111.74 120.134 112.866C118.846 114.328 117.48 115.842 115.654 116.516C115.158 116.707 114.633 116.809 114.102 116.816C113.849 116.817 113.596 116.788 113.35 116.73C112.078 116.43 111.13 115.33 110.576 114.148C110.204 113.348 109.938 112.444 109.25 111.892C108.386 111.202 107.128 111.292 106.156 110.752C104.828 110.024 104.356 108.252 104.72 106.784C105.084 105.316 106.132 104.112 107.246 103.086C108.952 101.514 110.976 99.6983 113.374 99.3083C113.66 99.2623 113.95 99.2396 114.24 99.2403ZM114.24 97.8403C113.874 97.8401 113.509 97.8689 113.148 97.9263C110.274 98.3923 107.976 100.51 106.298 102.056C105.276 102.996 103.86 104.474 103.362 106.44C102.878 108.352 103.452 110.868 105.484 111.98C106.033 112.259 106.618 112.46 107.222 112.58C107.692 112.692 108.136 112.796 108.374 112.98C108.644 113.196 108.848 113.674 109.064 114.18C109.14 114.36 109.22 114.546 109.308 114.734C110.132 116.5 111.488 117.722 113.026 118.086C113.379 118.169 113.74 118.211 114.102 118.21C114.799 118.203 115.489 118.073 116.14 117.824C118.34 117.01 119.918 115.224 121.184 113.786C122.208 112.626 123.368 111.31 123.956 109.61C124.484 108.028 124.476 106.316 123.934 104.738C123.425 103.19 122.517 101.803 121.302 100.716C119.8 99.3843 117.054 97.8403 114.24 97.8403Z" fill="#4C3133"/>
</svg>
