<svg width="21" height="20" viewBox="0 0 21 20" fill="none" xmlns="http://www.w3.org/2000/svg">
<g clip-path="url(#clip0_27158_192614)">
<path d="M8.61053 15.9345L10.4989 19.1647L18.3896 5.46512H16.6221C16.6221 5.46512 16.0748 5.41945 16.1043 4.97925C16.1171 4.83473 16.1845 4.7005 16.2927 4.60386L17.6925 3.36989C17.7163 3.34784 17.7352 3.32097 17.7478 3.29108C17.7605 3.26119 17.7666 3.22895 17.7659 3.1965C17.7651 3.16405 17.7574 3.13213 17.7434 3.10286C17.7294 3.07359 17.7093 3.04764 17.6845 3.02673C17.6612 3.00729 17.6343 2.99265 17.6054 2.98367C17.5764 2.97469 17.546 2.97155 17.5158 2.97442C17.4857 2.97729 17.4564 2.98613 17.4296 3.00041C17.4029 3.01469 17.3793 3.03414 17.3601 3.05762L15.8891 4.77913C15.8694 4.80298 15.8452 4.82271 15.8179 4.83719C15.7906 4.85167 15.7606 4.86062 15.7299 4.86352C15.6991 4.86642 15.668 4.86322 15.6385 4.8541C15.6089 4.84498 15.5815 4.83011 15.5577 4.81036C15.5327 4.78946 15.5123 4.76358 15.4978 4.73438C15.4834 4.70518 15.4751 4.67329 15.4736 4.64074C15.4721 4.60819 15.4774 4.57568 15.4892 4.54528C15.501 4.51489 15.5189 4.48727 15.5419 4.46418L16.153 3.85307C16.165 3.84113 16.1744 3.82694 16.1809 3.81133C16.1874 3.79571 16.1907 3.77898 16.1907 3.76208C16.1907 3.74517 16.1874 3.72844 16.1809 3.71282C16.1744 3.69721 16.165 3.68303 16.153 3.67108C16.1404 3.65853 16.1254 3.64871 16.1089 3.64224C16.0923 3.63578 16.0746 3.63279 16.0569 3.63349C16.0391 3.63418 16.0217 3.63853 16.0057 3.64628C15.9897 3.65402 15.9755 3.66498 15.964 3.67847L14.9177 4.898C14.9177 4.898 14.6021 5.27675 14.9177 5.59237C14.9177 5.59237 15.1353 5.86469 14.9137 6.10544C14.8551 6.16514 14.8165 6.2415 14.8032 6.32402C14.7814 6.49191 14.8522 6.72863 15.4227 6.72863H16.2433L10.4989 16.7028L8.92078 13.9253C8.92078 13.9253 8.66828 13.4216 9.11016 13.0415L9.2861 12.8256C9.32409 12.7813 9.34395 12.7243 9.34171 12.6659C9.33947 12.6076 9.31529 12.5523 9.27401 12.511C9.25256 12.4895 9.22707 12.4724 9.19901 12.4608C9.17095 12.4491 9.14087 12.4431 9.11049 12.4431C9.08012 12.4431 9.05004 12.4491 9.02198 12.4608C8.99392 12.4724 8.96843 12.4895 8.94697 12.511L8.70018 12.7598C8.68057 12.7796 8.657 12.795 8.63101 12.805C8.60503 12.815 8.57721 12.8194 8.5494 12.8179C8.52159 12.8164 8.49441 12.8091 8.46964 12.7963C8.44488 12.7836 8.42309 12.7658 8.40571 12.744L8.40235 12.7403C8.37057 12.7015 8.35443 12.6522 8.35711 12.602C8.35978 12.5519 8.38106 12.5046 8.41679 12.4693C8.75525 12.1336 9.66922 11.2193 10.0621 10.8261C10.0854 10.8027 10.1037 10.7748 10.1156 10.744C10.1276 10.7132 10.1329 10.6802 10.1314 10.6472C10.1299 10.6142 10.1215 10.5819 10.1068 10.5524C10.0921 10.5228 10.0714 10.4966 10.046 10.4755C9.99825 10.4357 9.93685 10.4162 9.87491 10.4211C9.81297 10.426 9.75541 10.4549 9.71455 10.5017L7.84631 12.6627C7.84631 12.6627 7.34265 13.1664 7.65693 14.0515L7.69353 14.1351C7.96386 14.7523 8.27005 15.3531 8.61053 15.9345Z" fill="url(#paint0_linear_27158_192614)"/>
<path d="M9.80721 11.6622L9.64839 11.8529C9.63687 11.8667 9.62863 11.8829 9.62427 11.9003C9.61992 11.9177 9.61957 11.9359 9.62325 11.9535C9.62694 11.9711 9.63456 11.9876 9.64554 12.0018C9.65652 12.016 9.67059 12.0275 9.68667 12.0355L9.72024 12.0523C9.74422 12.0644 9.7716 12.068 9.79789 12.0625C9.82419 12.0571 9.84783 12.0428 9.86496 12.0221L10.0238 11.8314C10.0353 11.8176 10.0435 11.8014 10.0479 11.784C10.0523 11.7665 10.0526 11.7484 10.0489 11.7308C10.0452 11.7132 10.0376 11.6967 10.0266 11.6825C10.0156 11.6683 10.0016 11.6567 9.98551 11.6487L9.95193 11.6319C9.92793 11.62 9.90058 11.6164 9.87432 11.6219C9.84806 11.6274 9.82441 11.6416 9.80721 11.6622Z" fill="#8A02E4"/>
<path d="M11.4391 7.24846L11.2296 7.49996C11.2144 7.51813 11.2035 7.53952 11.1977 7.56251C11.1919 7.58551 11.1915 7.60951 11.1963 7.63271C11.2012 7.65592 11.2112 7.67772 11.2257 7.69649C11.2402 7.71525 11.2587 7.73048 11.28 7.74104L11.3239 7.7632C11.3556 7.77906 11.3917 7.78374 11.4264 7.77648C11.4611 7.76923 11.4923 7.75047 11.515 7.72324L11.7245 7.47175C11.7397 7.45358 11.7506 7.43219 11.7564 7.40919C11.7622 7.3862 11.7627 7.3622 11.7578 7.33899C11.753 7.31579 11.7429 7.29398 11.7284 7.27522C11.7139 7.25646 11.6954 7.24122 11.6742 7.23067L11.6302 7.2085C11.5985 7.19265 11.5624 7.18797 11.5277 7.19522C11.493 7.20248 11.4618 7.22124 11.4391 7.24846Z" fill="#FF6C11"/>
<path d="M13.9698 3.36893L13.7895 3.58483C13.7763 3.60042 13.7669 3.6188 13.7619 3.63857C13.7569 3.65835 13.7565 3.67901 13.7607 3.69898C13.7648 3.71895 13.7735 3.7377 13.786 3.75382C13.7985 3.76994 13.8145 3.783 13.8328 3.792L13.8708 3.81114C13.8979 3.8249 13.9288 3.82907 13.9586 3.82297C13.9883 3.81687 14.0151 3.80087 14.0346 3.77756L14.2146 3.56166C14.228 3.54609 14.2376 3.52766 14.2427 3.50778C14.2479 3.48791 14.2484 3.46712 14.2442 3.44702C14.2401 3.42692 14.2314 3.40803 14.2188 3.39182C14.2062 3.3756 14.1901 3.36249 14.1716 3.35348L14.1337 3.33468C14.1065 3.321 14.0755 3.31693 14.0458 3.32315C14.016 3.32938 13.9892 3.34551 13.9698 3.36893Z" fill="#FF4029"/>
<path d="M2.60828 5.52951H10.4989C10.4989 5.52951 11.3827 5.59264 12.2665 4.96139L12.7664 4.56383C12.8038 4.53369 12.8504 4.51725 12.8984 4.51725C12.9464 4.51725 12.993 4.53369 13.0303 4.56383C13.0534 4.58225 13.0723 4.60534 13.0859 4.63159C13.0994 4.65783 13.1072 4.68664 13.1089 4.71613C13.1105 4.74561 13.1058 4.77511 13.0953 4.80268C13.0847 4.83025 13.0684 4.85527 13.0475 4.8761L12.9262 4.99765C12.9068 5.01709 12.8916 5.04042 12.8818 5.06613C12.8719 5.09184 12.8676 5.11933 12.8691 5.14682C12.8706 5.1743 12.878 5.20115 12.8906 5.22561C12.9032 5.25008 12.9208 5.2716 12.9424 5.28877C12.9815 5.32014 13.0312 5.3353 13.0812 5.33112C13.1311 5.32693 13.1776 5.30372 13.211 5.26627L17.0636 0.94487C17.1163 0.885769 17.1885 0.84768 17.267 0.837622C17.3454 0.827565 17.4249 0.846216 17.4907 0.890139C17.531 0.91698 17.5648 0.952381 17.5898 0.99381C17.6147 1.03524 17.6303 1.08167 17.6352 1.12979C17.6401 1.17791 17.6344 1.22653 17.6184 1.27217C17.6023 1.31781 17.5764 1.35934 17.5425 1.3938L13.4027 5.59264L12.7715 6.16077C12.7715 6.16077 12.3927 6.60265 12.0771 6.16077C12.0771 6.16077 11.8246 5.90827 11.5089 6.35014C11.5089 6.35014 11.2564 6.7289 10.3096 6.7289H4.75454L6.96392 10.4533C6.96392 10.4533 7.34268 10.8952 7.78455 10.4533L8.16331 10.0114C8.16331 10.0114 8.28956 9.88516 8.41581 10.0114C8.41581 10.0114 8.54206 10.2639 8.79456 10.1377L9.01617 9.97918C9.16213 9.87517 9.29114 9.74922 9.39862 9.6058L10.1632 8.56692C10.2026 8.51433 10.261 8.47926 10.326 8.46922C10.3909 8.45918 10.4572 8.47496 10.5107 8.51319C10.5405 8.53443 10.5652 8.5619 10.5833 8.59369C10.6014 8.62548 10.6123 8.66082 10.6153 8.69726C10.6183 8.7337 10.6133 8.77036 10.6007 8.80468C10.5881 8.839 10.5681 8.87015 10.5423 8.89597L10.0581 9.38016L8.03806 11.5264C8.03806 11.5264 7.37961 12.1842 6.61237 11.8917C6.36082 11.792 6.15089 11.6093 6.01738 11.374L2.60828 5.52951Z" fill="url(#paint1_linear_27158_192614)"/>
</g>
<defs>
<linearGradient id="paint0_linear_27158_192614" x1="5.40826" y1="11.0692" x2="16.8746" y2="11.0692" gradientUnits="userSpaceOnUse">
<stop stop-color="#8A02E4"/>
<stop offset="0.33" stop-color="#7900F4"/>
<stop offset="0.68" stop-color="#AF00BB"/>
<stop offset="1" stop-color="#E30084"/>
</linearGradient>
<linearGradient id="paint1_linear_27158_192614" x1="4.6481" y1="7.24095" x2="21.1184" y2="5.40528" gradientUnits="userSpaceOnUse">
<stop stop-color="#FF8802"/>
<stop offset="0.18" stop-color="#FF6A12"/>
<stop offset="0.61" stop-color="#FF4029"/>
<stop offset="1" stop-color="#FF0649"/>
</linearGradient>
<clipPath id="clip0_27158_192614">
<rect width="15.7813" height="18.3333" fill="white" transform="translate(2.60828 0.833252)"/>
</clipPath>
</defs>
</svg>
