<svg width="21" height="20" viewBox="0 0 21 20" fill="none" xmlns="http://www.w3.org/2000/svg">
<g clip-path="url(#clip0_27158_192611)">
<path d="M4.00559 4.45419C3.84645 4.45419 3.71253 4.51011 3.64497 4.61947C3.5753 4.73231 3.58585 4.87779 3.66019 5.025L5.44796 8.11976C5.45099 8.12563 5.45099 8.12938 5.44796 8.13479L2.63856 13.0925C2.56532 13.2384 2.56889 13.385 2.63856 13.4981C2.70603 13.6069 2.82492 13.6783 2.98424 13.6783H5.62827C6.02354 13.6783 6.2143 13.4116 6.34941 13.1678C6.34941 13.1678 9.09694 8.3085 9.20391 8.11985C9.19309 8.10244 7.38616 4.95002 7.38616 4.95002C7.25425 4.71563 7.05561 4.4541 6.65008 4.4541H4.00559V4.45419Z" fill="#005A5F"/>
<path d="M15.1137 0.833527C14.7187 0.833527 14.5476 1.08231 14.4058 1.33714C14.4058 1.33714 8.70958 11.4388 8.52185 11.7705C8.53148 11.7884 12.2787 18.663 12.2787 18.663C12.41 18.8975 12.6125 19.1666 13.0175 19.1666H15.6585C15.8178 19.1666 15.9423 19.1066 16.0094 18.9976C16.0799 18.8849 16.0779 18.7358 16.004 18.589L12.2764 11.7786C12.2747 11.7761 12.2737 11.773 12.2737 11.77C12.2737 11.7669 12.2747 11.7638 12.2764 11.7613L18.1305 1.41029C18.2041 1.26418 18.2057 1.11513 18.1361 1.00219C18.0687 0.893294 17.9438 0.833252 17.7845 0.833252H15.1134V0.833435L15.1137 0.833527Z" fill="#D4D600"/>
</g>
<defs>
<clipPath id="clip0_27158_192611">
<rect width="15.8333" height="18.3334" fill="white" transform="translate(2.58337 0.833252)"/>
</clipPath>
</defs>
</svg>
