<svg width="22" height="22" viewBox="0 0 22 22" fill="none" xmlns="http://www.w3.org/2000/svg">
<path fill-rule="evenodd" clip-rule="evenodd" d="M6.07603 0.916748H12.8252L18.5367 6.87843V18.4559C18.5367 19.9058 17.3664 21.0834 15.9165 21.0834H6.07603C4.63345 21.0834 3.45584 19.9058 3.45584 18.4559V3.53694C3.45582 2.09436 4.63345 0.916748 6.07603 0.916748Z" fill="#00733B"/>
<path opacity="0.302" fill-rule="evenodd" clip-rule="evenodd" d="M12.8178 0.916748V6.82691H18.5366L12.8178 0.916748Z" fill="white"/>
<path d="M9.72658 15.6001H8.74769L8.07794 14.474L7.40816 15.6001H6.42191L7.58481 13.6423L6.56177 11.9421H7.54799L8.07791 12.8253L8.60047 11.9421H9.58672L8.57101 13.6496L9.72658 15.6001ZM10.0725 15.6001V11.9421H11.0072V14.8052H12.597V15.6H10.0725V15.6001ZM14.1426 15.6442C13.7746 15.6442 13.4508 15.5265 13.1711 15.2983C12.8988 15.0775 12.7442 14.7978 12.7221 14.4666L13.5244 14.2311C13.5465 14.4077 13.6201 14.5623 13.7452 14.6801C13.8777 14.7978 14.0249 14.8567 14.1868 14.8567C14.3193 14.8567 14.4297 14.8273 14.518 14.7684C14.599 14.7095 14.6431 14.6285 14.6431 14.5329C14.6431 14.4519 14.6063 14.3857 14.5401 14.3268C14.4738 14.2753 14.3855 14.2311 14.2825 14.1943C14.1794 14.1575 14.0543 14.1207 13.9292 14.0913C13.7967 14.0545 13.6642 14.0103 13.5391 13.9514C13.4066 13.8999 13.2889 13.8337 13.1858 13.7527C13.0754 13.6791 12.9945 13.5687 12.9282 13.4288C12.862 13.2964 12.8252 13.1344 12.8252 12.9504C12.8252 12.6487 12.9503 12.3984 13.2079 12.1997C13.4655 11.9936 13.7746 11.8979 14.1352 11.8979C14.4959 11.8979 14.8124 11.9863 15.0773 12.1556C15.3423 12.3322 15.5116 12.5604 15.5778 12.84L14.7388 13.1933C14.702 13.0388 14.6284 12.9137 14.5253 12.818C14.4223 12.7297 14.2898 12.6781 14.1352 12.6781C14.0175 12.6781 13.9292 12.7076 13.8556 12.7518C13.7893 12.7959 13.7599 12.8622 13.7599 12.9431C13.7599 13.0167 13.804 13.0829 13.8924 13.1345C13.9807 13.1786 14.0985 13.2154 14.2309 13.2375C14.3634 13.2596 14.5106 13.2964 14.6652 13.3479C14.8271 13.4068 14.9669 13.4657 15.1068 13.5466C15.2392 13.6203 15.3496 13.7454 15.438 13.9073C15.5336 14.0766 15.5778 14.2753 15.5778 14.5035C15.5778 14.842 15.4453 15.1217 15.1804 15.3278C14.9154 15.5338 14.5695 15.6442 14.1426 15.6442Z" fill="white"/>
</svg>
