<svg width="26" height="27" viewBox="0 0 26 27" fill="none" xmlns="http://www.w3.org/2000/svg">
<path d="M18.9151 16.927C18.6996 16.927 18.4929 16.8448 18.3406 16.6986C18.1882 16.5523 18.1026 16.3539 18.1026 16.147V12.5278L15.1668 14.1606V16.1678C15.1668 16.3747 15.0811 16.5731 14.9288 16.7194C14.7764 16.8656 14.5697 16.9478 14.3543 16.9478C14.1388 16.9478 13.9321 16.8656 13.7797 16.7194C13.6274 16.5731 13.5418 16.3747 13.5418 16.1678V13.6926C13.5422 13.5551 13.5805 13.4202 13.6528 13.3014C13.7251 13.1827 13.8288 13.0845 13.9534 13.0166L18.5034 10.4998C18.6258 10.4282 18.7663 10.3902 18.9097 10.3902C19.053 10.3902 19.1936 10.4282 19.3159 10.4998C19.4405 10.5677 19.5442 10.6659 19.6165 10.7846C19.6888 10.9034 19.7271 11.0383 19.7276 11.1758V16.147C19.7248 16.3531 19.6383 16.5499 19.4865 16.6956C19.3347 16.8413 19.1297 16.9243 18.9151 16.927V16.927ZM12.4151 16.1054V13.6614C12.4146 13.5239 12.3763 13.389 12.304 13.2702C12.2317 13.1515 12.128 13.0533 12.0034 12.9854L7.49675 10.4686C7.3744 10.397 7.23384 10.359 7.0905 10.359C6.94717 10.359 6.80661 10.397 6.68425 10.4686C6.56123 10.5356 6.45854 10.6322 6.38634 10.7489C6.31414 10.8657 6.27493 10.9985 6.27259 11.1342V16.1054C6.27259 16.3123 6.35819 16.5107 6.51056 16.657C6.66294 16.8032 6.8696 16.8854 7.08509 16.8854C7.30057 16.8854 7.50724 16.8032 7.65961 16.657C7.81198 16.5107 7.89759 16.3123 7.89759 16.1054V12.4862L10.8334 14.1606V16.1574C10.8334 16.3643 10.919 16.5627 11.0714 16.709C11.2238 16.8552 11.4304 16.9374 11.6459 16.9374C11.8614 16.9374 12.0681 16.8552 12.2204 16.709C12.3728 16.5627 12.4584 16.3643 12.4584 16.1574L12.4151 16.1054ZM12.9568 24.8206C10.6553 24.8124 8.40796 24.1497 6.49852 22.9163C4.58909 21.6828 3.10316 19.9339 2.22835 17.8903C1.35355 15.8467 1.12909 13.6001 1.58333 11.4341C2.03757 9.26816 3.15013 7.27997 4.78055 5.72058C6.41096 4.16119 8.48611 3.10052 10.744 2.6725C13.0019 2.24447 15.3412 2.46829 17.4667 3.31569C19.5922 4.16308 21.4085 5.59606 22.6862 7.43369C23.964 9.27132 24.6459 11.4312 24.6459 13.6406C24.643 16.6049 23.4152 19.447 21.2318 21.543C19.0484 23.6391 16.0879 24.8179 13.0001 24.8206H12.9568ZM12.9568 4.02062C10.9748 4.02062 9.03739 4.58482 7.38948 5.64188C5.74156 6.69894 4.45716 8.20138 3.69871 9.95921C2.94026 11.717 2.74181 13.6513 3.12847 15.5174C3.51512 17.3835 4.46952 19.0976 5.87095 20.443C7.27239 21.7884 9.05793 22.7046 11.0018 23.0758C12.9456 23.447 14.9605 23.2565 16.7916 22.5283C18.6226 21.8002 20.1877 20.5672 21.2888 18.9852C22.3899 17.4032 22.9776 15.5433 22.9776 13.6406C22.9748 11.0973 21.924 8.65825 20.0547 6.85593C18.1854 5.05361 15.6494 4.03435 13.0001 4.02062H12.9568Z" fill="#FF6F1E"/>
</svg>
